<svg width="306" height="285" viewBox="0 0 306 285" fill="none" xmlns="http://www.w3.org/2000/svg">
<path d="M115.908 122.754C119.695 120.478 124.61 121.702 126.886 125.489L156.067 174.038C158.344 177.825 157.119 182.74 153.332 185.017L104.783 214.198C100.996 216.474 96.0808 215.249 93.8046 211.462L64.6236 162.913C62.3475 159.126 63.5722 154.211 67.359 151.935L115.908 122.754Z" fill="#FEAB33"/>
<path d="M153.294 107.466C152.644 98.435 164.235 94.2051 169.554 101.533L170.988 103.508C173.842 107.439 179.299 108.397 183.32 105.672L185.341 104.303C192.837 99.2242 202.296 107.148 198.61 115.418L197.616 117.648C195.638 122.084 197.538 127.289 201.908 129.409L204.104 130.475C212.25 134.427 210.118 146.581 201.112 147.523L198.684 147.777C193.854 148.283 190.296 152.53 190.644 157.375L190.82 159.81C191.47 168.841 179.879 173.071 174.56 165.743L173.126 163.768C170.272 159.837 164.815 158.879 160.794 161.604L158.773 162.973C151.277 168.052 141.818 160.128 145.504 151.858L146.498 149.628C148.476 145.192 146.576 139.987 142.206 137.867L140.01 136.801C131.864 132.849 133.996 120.695 143.002 119.753L145.43 119.499C150.26 118.993 153.818 114.746 153.47 109.901L153.294 107.466Z" fill="#E13125"/>
<circle cx="161.466" cy="130.786" r="4.01006" transform="rotate(-1.67786 161.466 130.786)" fill="#111111" stroke="white" stroke-width="2.78"/>
<circle cx="177.126" cy="122.224" r="4.01006" transform="rotate(-1.67786 177.126 122.224)" fill="#111111" stroke="white" stroke-width="2.78"/>
<path d="M163.966 141.906C167.679 141.654 178.727 141.474 184.683 130.995" stroke="white" stroke-width="3.27"/>
<circle cx="163.585" cy="141.841" r="1.89331" transform="rotate(-1.67786 163.585 141.841)" fill="white"/>
<circle cx="185.961" cy="129.821" r="2.65064" transform="rotate(-1.67786 185.961 129.821)" fill="white"/>
<circle cx="101.813" cy="162.09" r="4.01006" transform="rotate(30.5983 101.813 162.09)" fill="#111111" stroke="white" stroke-width="2.78"/>
<circle cx="119.626" cy="163.213" r="4.01006" transform="rotate(30.5983 119.626 163.213)" fill="#111111" stroke="white" stroke-width="2.78"/>
<path d="M97.9917 172.827C101.266 174.597 110.703 180.344 121.335 174.665" stroke="black" stroke-width="3.27"/>
<circle cx="97.705" cy="172.569" r="1.89331" transform="rotate(30.5983 97.705 172.569)" fill="#FEAB33"/>
<circle cx="123.046" cy="174.356" r="2.65064" transform="rotate(30.5983 123.046 174.356)" fill="#FEAB33"/>
</svg>
