<svg width="241" height="241" viewBox="0 0 241 241" fill="none" xmlns="http://www.w3.org/2000/svg">
<path d="M106.472 83.5689C106.881 77.5475 114.924 75.831 117.755 81.1609L124.393 93.658C125.912 96.5172 129.425 97.6556 132.332 96.2303L145.037 90.0008C150.456 87.3439 155.964 93.4515 152.764 98.5682L145.26 110.565C143.543 113.31 144.314 116.922 147.002 118.727L158.75 126.615C163.76 129.98 161.225 137.804 155.193 137.591L141.052 137.09C137.816 136.976 135.074 139.45 134.855 142.68L133.897 156.798C133.488 162.819 125.445 164.536 122.614 159.206L115.976 146.708C114.457 143.849 110.944 142.711 108.037 144.136L95.3316 150.366C89.9128 153.023 84.4044 146.915 87.6048 141.798L95.1087 129.801C96.8255 127.056 96.0547 123.445 93.367 121.64L81.6193 113.751C76.6089 110.387 79.1441 102.563 85.1755 102.776L99.3172 103.276C102.553 103.39 105.295 100.917 105.514 97.6869L106.472 83.5689Z" fill="#FEAB33"/>
<circle cx="110.499" cy="116.057" r="4.25699" transform="rotate(6.32239 110.499 116.057)" fill="#111111" stroke="white" stroke-width="1.85298"/>
<circle cx="126.526" cy="110.01" r="4.25699" transform="rotate(6.32239 126.526 110.01)" fill="#111111" stroke="white" stroke-width="1.85298"/>
<path d="M111.384 126.961C114.947 127.218 125.473 128.522 132.535 119.358" stroke="black" stroke-width="2.17959"/>
<circle cx="111.032" cy="126.849" r="1.81738" transform="rotate(6.32239 111.032 126.849)" fill="#D77121"/>
<circle cx="133.909" cy="118.413" r="2.54433" transform="rotate(6.32239 133.909 118.413)" fill="#D77121"/>
</svg>
