<svg width="111" height="95" viewBox="0 0 111 95" fill="none" xmlns="http://www.w3.org/2000/svg">
	<path d="M71.0381 59.3096C73.6653 60.6668 76.8122 62.1596 79.7783 63.2168C81.3759 63.7862 82.9607 64.2439 84.4082 64.4795C85.7369 64.6957 87.0868 64.7482 88.2588 64.4209L88.4912 64.3506C90.5249 63.6787 93.6064 62.1339 96.7178 60.4414C99.4674 58.9457 102.327 57.2844 104.674 55.8916C103.308 58.3337 101.753 61.3754 100.604 64.3848C99.9493 66.1012 99.4119 67.8437 99.124 69.4824C98.857 71.0025 98.7869 72.5319 99.1103 73.9014L99.1797 74.1729C99.8801 76.6782 101.526 80.0026 103.306 83.1963C104.851 85.9705 106.553 88.7367 107.953 90.9395C105.452 89.7703 102.288 88.361 99.207 87.1895C97.4319 86.5144 95.6641 85.9095 94.0547 85.4746C92.6666 85.0995 91.3227 84.8303 90.1621 84.7764L89.6768 84.7666C88.3948 84.7783 86.9316 85.1801 85.4707 85.7402C83.984 86.3103 82.3794 87.0922 80.7793 87.9639C77.9536 89.5033 75.0605 91.3672 72.7256 92.9561C73.8852 90.5466 75.2182 87.5992 76.3164 84.6904C77.4734 81.6261 78.4374 78.4338 78.5703 75.9277L78.5859 75.4365C78.6061 72.91 77.3624 69.8406 75.8516 66.9863C74.4276 64.2961 72.6427 61.5779 71.0381 59.3096Z" stroke="#0F0B0C" stroke-width="3" />
	<path d="M52.8325 50.819C47.2587 41.092 29.289 17.6588 2 1.74189M35.4424 63.4199C30.5375 61.6514 26.0785 58.7775 11.3639 60.7671M66.8783 42.1974C68.8848 35.5653 72.2291 23.6276 63.534 9.03714" stroke="#0F0B0C" stroke-width="3" stroke-linecap="round" />
</svg>
