<svg width="199" height="305" viewBox="0 0 199 305" fill="none" xmlns="http://www.w3.org/2000/svg">
<path d="M194.493 1.48991C195.2 0.64151 196.461 0.52714 197.31 1.23446C198.158 1.94177 198.272 3.20293 197.565 4.05132L194.493 1.48991ZM7.0278 91.2281L8.8701 92.0065L7.0278 91.2281ZM125.958 301.592L103.049 304.508L111.978 283.21L125.958 301.592ZM196.029 2.77062L197.565 4.05132C196.897 4.85227 196.192 5.62801 195.451 6.37981L194.027 4.97577L192.602 3.57174C193.268 2.89585 193.899 2.20222 194.493 1.48991L196.029 2.77062ZM189.516 8.92033L190.727 10.5122C189.113 11.7399 187.389 12.8952 185.568 13.9861L184.54 12.2703L183.512 10.5546C185.22 9.53126 186.82 8.45776 188.305 7.32843L189.516 8.92033ZM179.282 15.1134L180.162 16.9095C178.372 17.7861 176.51 18.6186 174.583 19.4125L173.821 17.5634L173.059 15.7142C174.915 14.9495 176.698 14.152 178.402 13.3172L179.282 15.1134ZM168.225 19.7011L168.894 21.5859C167.022 22.2506 165.099 22.8878 163.133 23.5016L162.537 21.5925L161.941 19.6833C163.864 19.0831 165.737 18.462 167.556 17.8163L168.225 19.7011ZM156.784 23.2902L157.323 25.2163C155.413 25.7503 153.469 26.2676 151.494 26.7712L151 24.8332L150.506 22.8953C152.454 22.3983 154.369 21.8889 156.245 21.3641L156.784 23.2902ZM145.191 26.2585L145.652 28.2047C143.722 28.6614 141.768 29.1087 139.793 29.5493L139.357 27.5973L138.922 25.6453C140.882 25.2079 142.82 24.7644 144.731 24.3122L145.191 26.2585ZM133.504 28.8742L133.922 30.83C131.978 31.2457 130.018 31.6576 128.045 32.0682L127.637 30.1101L127.23 28.1521C129.198 27.7425 131.151 27.3321 133.086 26.9184L133.504 28.8742ZM121.764 31.3238L122.167 33.2828C120.219 33.6834 118.264 34.0847 116.301 34.4895L115.897 32.5307L115.493 30.572C117.457 30.1668 119.416 29.7649 121.361 29.3648L121.764 31.3238ZM110.035 33.7485L110.445 35.7059C108.497 36.1143 106.547 36.5279 104.596 36.9491L104.174 34.9941L103.752 33.0391C105.712 32.616 107.671 32.2006 109.624 31.791L110.035 33.7485ZM98.3212 36.2824L98.76 38.2337C96.8179 38.6704 94.8787 39.1166 92.9453 39.5744L92.4844 37.6282L92.0236 35.682C93.9735 35.2203 95.9275 34.7707 97.8825 34.3311L98.3212 36.2824ZM86.6642 39.0483L87.1525 40.9878C85.2203 41.4742 83.2971 41.9745 81.3856 42.4907L80.8641 40.5599L80.3426 38.6291C82.2781 38.1064 84.2236 37.6003 86.1759 37.1088L86.6642 39.0483ZM75.0947 42.1797L75.6555 44.0995C73.745 44.6576 71.8498 45.2342 69.9729 45.8316L69.3664 43.9258L68.7598 42.02C70.6693 41.4122 72.5951 40.8263 74.534 40.2599L75.0947 42.1797ZM63.6901 45.8178L64.3495 47.706C62.4705 48.3622 60.6142 49.0424 58.7836 49.7489L58.0635 47.883L57.3434 46.0172C59.2167 45.2942 61.1136 44.5992 63.0306 43.9296L63.6901 45.8178ZM52.5099 50.1433L53.299 51.9811C51.4741 52.7646 49.6804 53.5783 47.9211 54.4245L47.0541 52.6222L46.1872 50.8198C48.0009 49.9474 49.8467 49.1102 51.7208 48.3056L52.5099 50.1433ZM41.7207 55.3464L42.6747 57.1042C40.9378 58.0468 39.2416 59.0265 37.5895 60.0459L36.5393 58.3438L35.489 56.6418C37.2077 55.5813 38.9683 54.5646 40.7668 53.5886L41.7207 55.3464ZM31.5456 61.642L32.7008 63.2747C31.0983 64.4085 29.5467 65.587 28.0497 66.8132L26.7824 65.266L25.5151 63.7187C27.0882 62.4302 28.7149 61.1949 30.3904 60.0094L31.5456 61.642ZM22.2983 69.236L23.6823 70.6798C22.2777 72.0263 20.9333 73.4251 19.6531 74.8793L18.1519 73.5577L16.6507 72.2362C18.0081 70.6943 19.431 69.2141 20.9143 67.7922L22.2983 69.236ZM14.4013 78.2217L16.015 79.4033C14.8795 80.954 13.8102 82.5627 12.8109 84.2328L11.0947 83.2058L9.37844 82.1789C10.4423 80.401 11.5802 78.6892 12.7876 77.0402L14.4013 78.2217ZM8.26729 88.4738L10.0716 89.3367C9.65346 90.211 9.2528 91.1008 8.8701 92.0065L7.0278 91.2281L5.18549 90.4497C5.59222 89.4871 6.01823 88.541 6.46302 87.6109L8.26729 88.4738ZM7.0278 91.2281L8.8701 92.0065C8.48778 92.9114 8.12919 93.827 7.79388 94.7529L5.91338 94.0719L4.03288 93.391C4.39164 92.4003 4.77566 91.4197 5.18549 90.4497L7.0278 91.2281ZM4.12511 99.9157L6.06406 100.406C5.58318 102.307 5.18905 104.247 4.87851 106.221L2.9028 105.91L0.927089 105.599C1.25588 103.509 1.67414 101.45 2.18617 99.4253L4.12511 99.9157ZM2.20736 111.998L4.20204 112.143C4.05899 114.1 3.98998 116.086 3.99221 118.1L1.99221 118.102L-0.00778445 118.104C-0.0101228 115.997 0.0621113 113.911 0.212686 111.852L2.20736 111.998ZM2.20424 124.203L4.19974 124.069C4.33197 126.037 4.52651 128.027 4.78083 130.036L2.79666 130.288L0.812491 130.539C0.548774 128.455 0.346463 126.387 0.208735 124.337L2.20424 124.203ZM3.72826 136.342L5.6965 135.987C6.04986 137.946 6.45575 139.92 6.91186 141.908L4.96253 142.355L3.01321 142.803C2.54365 140.757 2.12502 138.721 1.76002 136.697L3.72826 136.342ZM6.45285 148.266L8.38162 147.737C8.90842 149.657 9.47892 151.588 10.091 153.526L8.18387 154.129L6.27671 154.731C5.64986 152.746 5.06487 150.766 4.52408 148.795L6.45285 148.266ZM10.133 159.941L12.018 159.272C12.687 161.159 13.3929 163.052 14.1338 164.948L12.271 165.676L10.4082 166.404C9.65238 164.469 8.93161 162.537 8.24796 160.609L10.133 159.941ZM14.5779 171.33L16.4186 170.548C17.2048 172.398 18.0222 174.25 18.8692 176.102L17.0504 176.934L15.2316 177.766C14.37 175.882 13.5379 173.997 12.7372 172.112L14.5779 171.33ZM19.6689 182.471L21.4661 181.594C22.3484 183.401 23.2571 185.206 24.1906 187.009L22.4146 187.928L20.6387 188.848C19.6911 187.018 18.7682 185.185 17.8717 183.349L19.6689 182.471ZM25.2918 193.334L27.0468 192.375C28.0156 194.147 29.0069 195.915 30.0191 197.678L28.2848 198.674L26.5505 199.67C25.5245 197.884 24.5194 196.091 23.5368 194.293L25.2918 193.334ZM31.3839 203.945L33.0978 202.914C34.1413 204.649 35.2038 206.377 36.2837 208.096L34.5901 209.16L32.8964 210.224C31.8031 208.483 30.7271 206.733 29.67 204.976L31.3839 203.945ZM37.8925 214.31L39.566 213.215C40.6768 214.912 41.8032 216.6 42.9438 218.276L41.2903 219.401L39.6369 220.526C38.4829 218.831 37.3431 217.123 36.219 215.405L37.8925 214.31ZM44.7769 224.428L46.4103 223.274C47.5828 224.934 48.768 226.58 49.9642 228.212L48.351 229.395L46.7379 230.577C45.5282 228.926 44.3295 227.261 43.1435 225.583L44.7769 224.428ZM52.0136 234.303L53.6062 233.093C54.8364 234.713 56.0761 236.316 57.3238 237.902L55.7519 239.139L54.1801 240.375C52.9184 238.772 51.6648 237.151 50.4209 235.513L52.0136 234.303ZM59.5779 243.917L61.1284 242.654C62.4189 244.238 63.7159 245.802 65.0176 247.344L63.4892 248.634L61.9608 249.924C60.6441 248.364 59.3324 246.782 58.0274 245.181L59.5779 243.917ZM67.4699 253.268L68.9754 251.951C70.3212 253.49 71.67 255.005 73.02 256.493L71.5386 257.837L70.0571 259.181C68.6908 257.674 67.3259 256.142 65.9643 254.585L67.4699 253.268ZM75.7021 262.342L77.1579 260.971C78.5625 262.462 79.9661 263.923 81.3666 265.352L79.9382 266.752L78.5097 268.152C77.0905 266.704 75.6686 265.223 74.2462 263.713L75.7021 262.342ZM84.2459 271.057L85.6446 269.627C87.1205 271.072 88.5902 272.477 90.0512 273.843L88.6857 275.304L87.3201 276.765C85.8362 275.378 84.3443 273.951 82.8472 272.487L84.2459 271.057ZM93.2188 279.436L94.547 277.941C96.091 279.312 97.6215 280.634 99.1355 281.905L97.8501 283.437L96.5647 284.969C95.0206 283.674 93.4614 282.327 91.8905 280.931L93.2188 279.436ZM102.593 287.289L103.828 285.716C105.458 286.995 107.064 288.208 108.64 289.349L107.467 290.969L106.294 292.589C104.673 291.415 103.027 290.172 101.358 288.862L102.593 287.289ZM112.501 294.439L113.595 292.764C115.352 293.912 117.062 294.957 118.716 295.894L117.731 297.634L116.745 299.374C115.01 298.392 113.228 297.302 111.407 296.113L112.501 294.439ZM194.493 1.48991C195.2 0.64151 196.461 0.52714 197.31 1.23446C198.158 1.94177 198.272 3.20293 197.565 4.05132L194.493 1.48991ZM7.0278 91.2281L8.8701 92.0065L7.0278 91.2281ZM125.958 301.592L103.049 304.508L111.978 283.21L125.958 301.592ZM196.029 2.77062L197.565 4.05132C196.897 4.85227 196.192 5.62801 195.451 6.37981L194.027 4.97577L192.602 3.57174C193.268 2.89585 193.899 2.20222 194.493 1.48991L196.029 2.77062ZM189.516 8.92033L190.727 10.5122C189.113 11.7399 187.389 12.8952 185.568 13.9861L184.54 12.2703L183.512 10.5546C185.22 9.53126 186.82 8.45776 188.305 7.32843L189.516 8.92033ZM179.282 15.1134L180.162 16.9095C178.372 17.7861 176.51 18.6186 174.583 19.4125L173.821 17.5634L173.059 15.7142C174.915 14.9495 176.698 14.152 178.402 13.3172L179.282 15.1134ZM168.225 19.7011L168.894 21.5859C167.022 22.2506 165.099 22.8878 163.133 23.5016L162.537 21.5925L161.941 19.6833C163.864 19.0831 165.737 18.462 167.556 17.8163L168.225 19.7011ZM156.784 23.2902L157.323 25.2163C155.413 25.7503 153.469 26.2676 151.494 26.7712L151 24.8332L150.506 22.8953C152.454 22.3983 154.369 21.8889 156.245 21.3641L156.784 23.2902ZM145.191 26.2585L145.652 28.2047C143.722 28.6614 141.768 29.1087 139.793 29.5493L139.357 27.5973L138.922 25.6453C140.882 25.2079 142.82 24.7644 144.731 24.3122L145.191 26.2585ZM133.504 28.8742L133.922 30.83C131.978 31.2457 130.018 31.6576 128.045 32.0682L127.637 30.1101L127.23 28.1521C129.198 27.7425 131.151 27.3321 133.086 26.9184L133.504 28.8742ZM121.764 31.3238L122.167 33.2828C120.219 33.6834 118.264 34.0847 116.301 34.4895L115.897 32.5307L115.493 30.572C117.457 30.1668 119.416 29.7649 121.361 29.3648L121.764 31.3238ZM110.035 33.7485L110.445 35.7059C108.497 36.1143 106.547 36.5279 104.596 36.9491L104.174 34.9941L103.752 33.0391C105.712 32.616 107.671 32.2006 109.624 31.791L110.035 33.7485ZM98.3212 36.2824L98.76 38.2337C96.8179 38.6704 94.8787 39.1166 92.9453 39.5744L92.4844 37.6282L92.0236 35.682C93.9735 35.2203 95.9275 34.7707 97.8825 34.3311L98.3212 36.2824ZM86.6642 39.0483L87.1525 40.9878C85.2203 41.4742 83.2971 41.9745 81.3856 42.4907L80.8641 40.5599L80.3426 38.6291C82.2781 38.1064 84.2236 37.6003 86.1759 37.1088L86.6642 39.0483ZM75.0947 42.1797L75.6555 44.0995C73.745 44.6576 71.8498 45.2342 69.9729 45.8316L69.3664 43.9258L68.7598 42.02C70.6693 41.4122 72.5951 40.8263 74.534 40.2599L75.0947 42.1797ZM63.6901 45.8178L64.3495 47.706C62.4705 48.3622 60.6142 49.0424 58.7836 49.7489L58.0635 47.883L57.3434 46.0172C59.2167 45.2942 61.1136 44.5992 63.0306 43.9296L63.6901 45.8178ZM52.5099 50.1433L53.299 51.9811C51.4741 52.7646 49.6804 53.5783 47.9211 54.4245L47.0541 52.6222L46.1872 50.8198C48.0009 49.9474 49.8467 49.1102 51.7208 48.3056L52.5099 50.1433ZM41.7207 55.3464L42.6747 57.1042C40.9378 58.0468 39.2416 59.0265 37.5895 60.0459L36.5393 58.3438L35.489 56.6418C37.2077 55.5813 38.9683 54.5646 40.7668 53.5886L41.7207 55.3464ZM31.5456 61.642L32.7008 63.2747C31.0983 64.4085 29.5467 65.587 28.0497 66.8132L26.7824 65.266L25.5151 63.7187C27.0882 62.4302 28.7149 61.1949 30.3904 60.0094L31.5456 61.642ZM22.2983 69.236L23.6823 70.6798C22.2777 72.0263 20.9333 73.4251 19.6531 74.8793L18.1519 73.5577L16.6507 72.2362C18.0081 70.6943 19.431 69.2141 20.9143 67.7922L22.2983 69.236ZM14.4013 78.2217L16.015 79.4033C14.8795 80.954 13.8102 82.5627 12.8109 84.2328L11.0947 83.2058L9.37844 82.1789C10.4423 80.401 11.5802 78.6892 12.7876 77.0402L14.4013 78.2217ZM8.26729 88.4738L10.0716 89.3367C9.65346 90.211 9.2528 91.1008 8.8701 92.0065L7.0278 91.2281L5.18549 90.4497C5.59222 89.4871 6.01823 88.541 6.46302 87.6109L8.26729 88.4738ZM7.0278 91.2281L8.8701 92.0065C8.48778 92.9114 8.12919 93.827 7.79388 94.7529L5.91338 94.0719L4.03288 93.391C4.39164 92.4003 4.77566 91.4197 5.18549 90.4497L7.0278 91.2281ZM4.12511 99.9157L6.06406 100.406C5.58318 102.307 5.18905 104.247 4.87851 106.221L2.9028 105.91L0.927089 105.599C1.25588 103.509 1.67414 101.45 2.18617 99.4253L4.12511 99.9157ZM2.20736 111.998L4.20204 112.143C4.05899 114.1 3.98998 116.086 3.99221 118.1L1.99221 118.102L-0.00778445 118.104C-0.0101228 115.997 0.0621113 113.911 0.212686 111.852L2.20736 111.998ZM2.20424 124.203L4.19974 124.069C4.33197 126.037 4.52651 128.027 4.78083 130.036L2.79666 130.288L0.812491 130.539C0.548774 128.455 0.346463 126.387 0.208735 124.337L2.20424 124.203ZM3.72826 136.342L5.6965 135.987C6.04986 137.946 6.45575 139.92 6.91186 141.908L4.96253 142.355L3.01321 142.803C2.54365 140.757 2.12502 138.721 1.76002 136.697L3.72826 136.342ZM6.45285 148.266L8.38162 147.737C8.90842 149.657 9.47892 151.588 10.091 153.526L8.18387 154.129L6.27671 154.731C5.64986 152.746 5.06487 150.766 4.52408 148.795L6.45285 148.266ZM10.133 159.941L12.018 159.272C12.687 161.159 13.3929 163.052 14.1338 164.948L12.271 165.676L10.4082 166.404C9.65238 164.469 8.93161 162.537 8.24796 160.609L10.133 159.941ZM14.5779 171.33L16.4186 170.548C17.2048 172.398 18.0222 174.25 18.8692 176.102L17.0504 176.934L15.2316 177.766C14.37 175.882 13.5379 173.997 12.7372 172.112L14.5779 171.33ZM19.6689 182.471L21.4661 181.594C22.3484 183.401 23.2571 185.206 24.1906 187.009L22.4146 187.928L20.6387 188.848C19.6911 187.018 18.7682 185.185 17.8717 183.349L19.6689 182.471ZM25.2918 193.334L27.0468 192.375C28.0156 194.147 29.0069 195.915 30.0191 197.678L28.2848 198.674L26.5505 199.67C25.5245 197.884 24.5194 196.091 23.5368 194.293L25.2918 193.334ZM31.3839 203.945L33.0978 202.914C34.1413 204.649 35.2038 206.377 36.2837 208.096L34.5901 209.16L32.8964 210.224C31.8031 208.483 30.7271 206.733 29.67 204.976L31.3839 203.945ZM37.8925 214.31L39.566 213.215C40.6768 214.912 41.8032 216.6 42.9438 218.276L41.2903 219.401L39.6369 220.526C38.4829 218.831 37.3431 217.123 36.219 215.405L37.8925 214.31ZM44.7769 224.428L46.4103 223.274C47.5828 224.934 48.768 226.58 49.9642 228.212L48.351 229.395L46.7379 230.577C45.5282 228.926 44.3295 227.261 43.1435 225.583L44.7769 224.428ZM52.0136 234.303L53.6062 233.093C54.8364 234.713 56.0761 236.316 57.3238 237.902L55.7519 239.139L54.1801 240.375C52.9184 238.772 51.6648 237.151 50.4209 235.513L52.0136 234.303ZM59.5779 243.917L61.1284 242.654C62.4189 244.238 63.7159 245.802 65.0176 247.344L63.4892 248.634L61.9608 249.924C60.6441 248.364 59.3324 246.782 58.0274 245.181L59.5779 243.917ZM67.4699 253.268L68.9754 251.951C70.3212 253.49 71.67 255.005 73.02 256.493L71.5386 257.837L70.0571 259.181C68.6908 257.674 67.3259 256.142 65.9643 254.585L67.4699 253.268ZM75.7021 262.342L77.1579 260.971C78.5625 262.462 79.9661 263.923 81.3666 265.352L79.9382 266.752L78.5097 268.152C77.0905 266.704 75.6686 265.223 74.2462 263.713L75.7021 262.342ZM84.2459 271.057L85.6446 269.627C87.1205 271.072 88.5902 272.477 90.0512 273.843L88.6857 275.304L87.3201 276.765C85.8362 275.378 84.3443 273.951 82.8472 272.487L84.2459 271.057ZM93.2188 279.436L94.547 277.941C96.091 279.312 97.6215 280.634 99.1355 281.905L97.8501 283.437L96.5647 284.969C95.0206 283.674 93.4614 282.327 91.8905 280.931L93.2188 279.436ZM102.593 287.289L103.828 285.716C105.458 286.995 107.064 288.208 108.64 289.349L107.467 290.969L106.294 292.589C104.673 291.415 103.027 290.172 101.358 288.862L102.593 287.289ZM112.501 294.439L113.595 292.764C115.352 293.912 117.062 294.957 118.716 295.894L117.731 297.634L116.745 299.374C115.01 298.392 113.228 297.302 111.407 296.113L112.501 294.439Z" fill="#868686"/>
</svg>
