<svg width="288" height="56" viewBox="0 0 288 56" fill="none" xmlns="http://www.w3.org/2000/svg">
<path d="M1.58064 51.6584C0.621645 52.2065 0.288545 53.4282 0.836638 54.3872C1.38473 55.3462 2.60647 55.6793 3.56546 55.1312L1.58064 51.6584ZM287.227 16.7711L270.852 0.486224L264.936 22.8097L287.227 16.7711ZM2.57305 53.3948L3.56546 55.1312C4.44667 54.6276 5.33072 54.1273 6.2176 53.6304L5.24003 51.8856L4.26246 50.1408C3.36567 50.6432 2.47172 51.1491 1.58064 51.6584L2.57305 53.3948ZM10.6145 48.9342L11.5623 50.6954C13.3488 49.734 15.1464 48.7862 16.9547 47.8522L16.0369 46.0752L15.1191 44.2982C13.2907 45.2426 11.4732 46.2009 9.6668 47.173L10.6145 48.9342ZM21.5082 43.3076L22.3959 45.0997C24.2141 44.1991 26.0429 43.3123 27.8821 42.4395L27.0246 40.6326L26.1671 38.8258C24.3077 39.7082 22.4588 40.6048 20.6205 41.5154L21.5082 43.3076ZM32.5847 38.0506L33.4119 39.8716C35.2596 39.0322 37.1175 38.2068 38.9852 37.3957L38.1885 35.5612L37.3918 33.7268C35.5037 34.5468 33.6255 35.3812 31.7575 36.2297L32.5847 38.0506ZM43.8312 33.166L44.5974 35.0134C46.4717 34.2361 48.3556 33.4729 50.249 32.7241L49.5134 30.8643L48.7779 29.0044C46.864 29.7614 44.9597 30.5328 43.065 31.3186L43.8312 33.166ZM55.2342 28.6561L55.939 30.5278C57.8376 29.8129 59.7454 29.1123 61.6621 28.4262L60.9881 26.5432L60.3141 24.6602C58.3767 25.3536 56.4485 26.0618 54.5294 26.7844L55.2342 28.6561ZM66.777 24.5243L67.4202 26.4181C69.342 25.7654 71.2725 25.1272 73.2116 24.5038L72.5993 22.5998L71.9871 20.6958C70.0274 21.3259 68.0762 21.9709 66.1339 22.6305L66.777 24.5243ZM78.4497 20.7709L79.0309 22.6846C80.9725 22.0949 82.9223 21.5199 84.8803 20.9596L84.3301 19.0368L83.7799 17.1139C81.8012 17.6801 79.8306 18.2613 77.8684 18.8573L78.4497 20.7709ZM90.2391 17.3974L90.7583 19.3288C92.7174 18.8022 94.6845 18.2904 96.6593 17.7934L96.1712 15.8539L95.6831 13.9144C93.6876 14.4165 91.6998 14.9338 89.72 15.4659L90.2391 17.3974ZM102.128 14.4055L102.585 16.3526C104.561 15.8889 106.544 15.44 108.535 15.0062L108.109 13.0521L107.683 11.0979C105.672 11.5363 103.668 11.9898 101.671 12.4584L102.128 14.4055ZM114.109 11.7944L114.504 13.755C116.493 13.3545 118.489 12.969 120.492 12.5986L120.128 10.6319L119.764 8.66527C117.74 9.03953 115.724 9.42906 113.714 9.83371L114.109 11.7944ZM126.166 9.56447L126.498 11.5366C128.499 11.1991 130.507 10.8766 132.521 10.5693L132.22 8.59216L131.918 6.61504C129.883 6.9255 127.855 7.25132 125.833 7.59233L126.166 9.56447ZM138.286 7.71511L138.557 9.69671C139.564 9.55918 140.572 9.42543 141.582 9.29549L141.327 7.31184L141.072 5.32819C140.051 5.45946 139.033 5.59458 138.016 5.73352L138.286 7.71511ZM141.327 7.31184L141.582 9.29549C142.592 9.16555 143.601 9.03969 144.61 8.91788L144.371 6.9323L144.131 4.94672C143.112 5.06977 142.092 5.19693 141.072 5.32819L141.327 7.31184ZM150.462 6.24514L150.67 8.23423C152.697 8.02166 154.721 7.82545 156.742 7.64547L156.564 5.65335L156.387 3.66123C154.345 3.84307 152.3 4.0413 150.253 4.25605L150.462 6.24514ZM162.676 5.15766L162.822 7.15233C164.853 7.00368 166.882 6.8714 168.907 6.75537L168.793 4.75864L168.679 2.76192C166.632 2.87915 164.582 3.0128 162.53 3.16299L162.676 5.15766ZM174.916 4.45665L174.999 6.45494C177.034 6.37075 179.066 6.30295 181.095 6.25142L181.044 4.25206L180.994 2.25271C178.944 2.30478 176.89 2.37328 174.833 2.45836L174.916 4.45665ZM187.174 4.14541L187.193 6.14532C189.229 6.1262 191.262 6.12345 193.29 6.13697L193.304 4.13701L193.317 2.13706C191.267 2.1234 189.213 2.12617 187.155 2.1455L187.174 4.14541ZM199.435 4.22725L199.39 6.22673C201.426 6.27312 203.458 6.33589 205.485 6.41492L205.563 4.41643L205.641 2.41795C203.592 2.33809 201.538 2.27465 199.481 2.22777L199.435 4.22725ZM211.686 4.7048L211.576 6.70175C213.609 6.81409 215.638 6.94279 217.663 7.08773L217.806 5.09284L217.949 3.09794C215.902 2.95146 213.852 2.82138 211.796 2.70784L211.686 4.7048ZM223.917 5.5806L223.742 7.57289C225.77 7.75145 227.793 7.94633 229.81 8.15739L230.018 6.16825L230.227 4.1791C228.187 3.96576 226.142 3.76878 224.093 3.58831L223.917 5.5806ZM236.112 6.85638L235.871 8.84183C237.892 9.08698 239.908 9.34841 241.918 9.62598L242.192 7.64478L242.465 5.66358C240.433 5.383 238.396 5.11874 236.353 4.87093L236.112 6.85638ZM248.257 8.53365L247.951 10.51C249.963 10.822 251.969 11.1502 253.969 11.4945L254.308 9.52351L254.648 7.5525C252.626 7.20443 250.598 6.87264 248.563 6.55726L248.257 8.53365ZM260.341 10.614L259.969 12.579C261.969 12.9579 263.963 13.3529 265.95 13.7639L266.355 11.8054L266.76 9.84686C264.751 9.43129 262.735 9.03192 260.713 8.6489L260.341 10.614ZM272.348 13.098L271.91 15.0494C273.896 15.4953 275.875 15.9572 277.847 16.435L278.318 14.4913L278.789 12.5476C276.795 12.0644 274.794 11.5973 272.787 11.1466L272.348 13.098ZM1.58064 51.6584C0.621645 52.2065 0.288545 53.4282 0.836638 54.3872C1.38473 55.3462 2.60647 55.6793 3.56546 55.1312L1.58064 51.6584ZM287.227 16.7711L270.852 0.486224L264.936 22.8097L287.227 16.7711ZM2.57305 53.3948L3.56546 55.1312C4.44667 54.6276 5.33072 54.1273 6.2176 53.6304L5.24003 51.8856L4.26246 50.1408C3.36567 50.6432 2.47172 51.1491 1.58064 51.6584L2.57305 53.3948ZM10.6145 48.9342L11.5623 50.6954C13.3488 49.734 15.1464 48.7862 16.9547 47.8522L16.0369 46.0752L15.1191 44.2982C13.2907 45.2426 11.4732 46.2009 9.6668 47.173L10.6145 48.9342ZM21.5082 43.3076L22.3959 45.0997C24.2141 44.1991 26.0429 43.3123 27.8821 42.4395L27.0246 40.6326L26.1671 38.8258C24.3077 39.7082 22.4588 40.6048 20.6205 41.5154L21.5082 43.3076ZM32.5847 38.0506L33.4119 39.8716C35.2596 39.0322 37.1175 38.2068 38.9852 37.3957L38.1885 35.5612L37.3918 33.7268C35.5037 34.5468 33.6255 35.3812 31.7575 36.2297L32.5847 38.0506ZM43.8312 33.166L44.5974 35.0134C46.4717 34.2361 48.3556 33.4729 50.249 32.7241L49.5134 30.8643L48.7779 29.0044C46.864 29.7614 44.9597 30.5328 43.065 31.3186L43.8312 33.166ZM55.2342 28.6561L55.939 30.5278C57.8376 29.8129 59.7454 29.1123 61.6621 28.4262L60.9881 26.5432L60.3141 24.6602C58.3767 25.3536 56.4485 26.0618 54.5294 26.7844L55.2342 28.6561ZM66.777 24.5243L67.4202 26.4181C69.342 25.7654 71.2725 25.1272 73.2116 24.5038L72.5993 22.5998L71.9871 20.6958C70.0274 21.3259 68.0762 21.9709 66.1339 22.6305L66.777 24.5243ZM78.4497 20.7709L79.0309 22.6846C80.9725 22.0949 82.9223 21.5199 84.8803 20.9596L84.3301 19.0368L83.7799 17.1139C81.8012 17.6801 79.8306 18.2613 77.8684 18.8573L78.4497 20.7709ZM90.2391 17.3974L90.7583 19.3288C92.7174 18.8022 94.6845 18.2904 96.6593 17.7934L96.1712 15.8539L95.6831 13.9144C93.6876 14.4165 91.6998 14.9338 89.72 15.4659L90.2391 17.3974ZM102.128 14.4055L102.585 16.3526C104.561 15.8889 106.544 15.44 108.535 15.0062L108.109 13.0521L107.683 11.0979C105.672 11.5363 103.668 11.9898 101.671 12.4584L102.128 14.4055ZM114.109 11.7944L114.504 13.755C116.493 13.3545 118.489 12.969 120.492 12.5986L120.128 10.6319L119.764 8.66527C117.74 9.03953 115.724 9.42906 113.714 9.83371L114.109 11.7944ZM126.166 9.56447L126.498 11.5366C128.499 11.1991 130.507 10.8766 132.521 10.5693L132.22 8.59216L131.918 6.61504C129.883 6.9255 127.855 7.25132 125.833 7.59233L126.166 9.56447ZM138.286 7.71511L138.557 9.69671C139.564 9.55918 140.572 9.42543 141.582 9.29549L141.327 7.31184L141.072 5.32819C140.051 5.45946 139.033 5.59458 138.016 5.73352L138.286 7.71511ZM141.327 7.31184L141.582 9.29549C142.592 9.16555 143.601 9.03969 144.61 8.91788L144.371 6.9323L144.131 4.94672C143.112 5.06977 142.092 5.19693 141.072 5.32819L141.327 7.31184ZM150.462 6.24514L150.67 8.23423C152.697 8.02166 154.721 7.82545 156.742 7.64547L156.564 5.65335L156.387 3.66123C154.345 3.84307 152.3 4.0413 150.253 4.25605L150.462 6.24514ZM162.676 5.15766L162.822 7.15233C164.853 7.00368 166.882 6.8714 168.907 6.75537L168.793 4.75864L168.679 2.76192C166.632 2.87915 164.582 3.0128 162.53 3.16299L162.676 5.15766ZM174.916 4.45665L174.999 6.45494C177.034 6.37075 179.066 6.30295 181.095 6.25142L181.044 4.25206L180.994 2.25271C178.944 2.30478 176.89 2.37328 174.833 2.45836L174.916 4.45665ZM187.174 4.14541L187.193 6.14532C189.229 6.1262 191.262 6.12345 193.29 6.13697L193.304 4.13701L193.317 2.13706C191.267 2.1234 189.213 2.12617 187.155 2.1455L187.174 4.14541ZM199.435 4.22725L199.39 6.22673C201.426 6.27312 203.458 6.33589 205.485 6.41492L205.563 4.41643L205.641 2.41795C203.592 2.33809 201.538 2.27465 199.481 2.22777L199.435 4.22725ZM211.686 4.7048L211.576 6.70175C213.609 6.81409 215.638 6.94279 217.663 7.08773L217.806 5.09284L217.949 3.09794C215.902 2.95146 213.852 2.82138 211.796 2.70784L211.686 4.7048ZM223.917 5.5806L223.742 7.57289C225.77 7.75145 227.793 7.94633 229.81 8.15739L230.018 6.16825L230.227 4.1791C228.187 3.96576 226.142 3.76878 224.093 3.58831L223.917 5.5806ZM236.112 6.85638L235.871 8.84183C237.892 9.08698 239.908 9.34841 241.918 9.62598L242.192 7.64478L242.465 5.66358C240.433 5.383 238.396 5.11874 236.353 4.87093L236.112 6.85638ZM248.257 8.53365L247.951 10.51C249.963 10.822 251.969 11.1502 253.969 11.4945L254.308 9.52351L254.648 7.5525C252.626 7.20443 250.598 6.87264 248.563 6.55726L248.257 8.53365ZM260.341 10.614L259.969 12.579C261.969 12.9579 263.963 13.3529 265.95 13.7639L266.355 11.8054L266.76 9.84686C264.751 9.43129 262.735 9.03192 260.713 8.6489L260.341 10.614ZM272.348 13.098L271.91 15.0494C273.896 15.4953 275.875 15.9572 277.847 16.435L278.318 14.4913L278.789 12.5476C276.795 12.0644 274.794 11.5973 272.787 11.1466L272.348 13.098Z" fill="#474646"/>
</svg>
