<svg width="268" height="306" viewBox="0 0 268 306" fill="none" xmlns="http://www.w3.org/2000/svg">
<path d="M3.9689 1.1483C3.22222 0.33433 1.95707 0.279775 1.14309 1.02645C0.329129 1.77313 0.274574 3.03828 1.02124 3.85225L3.9689 1.1483ZM262.658 110.988L264.64 110.718L264.613 110.519L264.547 110.33L262.658 110.988ZM169.321 294.16L189.519 305.357L189.117 282.267L169.321 294.16ZM2.49507 2.50028L1.02124 3.85225C1.7321 4.62717 2.47634 5.37979 3.25249 6.11104L4.62396 4.65534L5.99545 3.19964C5.28745 2.53262 4.61172 1.84905 3.9689 1.1483L2.49507 2.50028ZM9.3343 8.54292L8.15783 10.1603C9.82472 11.3728 11.5933 12.5182 13.4549 13.6026L14.4616 11.8745L15.4683 10.1463C13.7128 9.12365 12.0586 8.05144 10.5108 6.92554L9.3343 8.54292ZM19.8786 14.7343L19.0138 16.5376C20.8571 17.4216 22.7722 18.261 24.7534 19.0602L25.5016 17.2054L26.2497 15.3506C24.3401 14.5803 22.5032 13.7748 20.7434 12.9309L19.8786 14.7343ZM31.2287 19.3428L30.5753 21.233C32.4841 21.8929 34.4442 22.5233 36.4514 23.1274L37.0277 21.2122L37.6041 19.297C35.644 18.7072 33.7356 18.0933 31.8822 17.4525L31.2287 19.3428ZM42.9181 22.8757L42.4052 24.8089C44.3738 25.3312 46.3814 25.8329 48.4245 26.3165L48.8852 24.3703L49.3459 22.4241C47.3346 21.948 45.362 21.4549 43.431 20.9426L42.9181 22.8757ZM54.8356 25.7084L54.4173 27.6642C56.3964 28.0875 58.4046 28.497 60.439 28.8946L60.8227 26.9317L61.2063 24.9689C59.1928 24.5753 57.2079 24.1706 55.2539 23.7526L54.8356 25.7084ZM66.8646 28.0661L66.5091 30.0342C68.4989 30.3936 70.5106 30.7439 72.5417 31.087L72.8748 29.1149L73.2079 27.1429C71.19 26.802 69.1933 26.4543 67.22 26.0979L66.8646 28.0661ZM78.9129 30.1061L78.5973 32.081C80.609 32.4025 82.6372 32.7187 84.6797 33.0312L84.9821 31.0542L85.2846 29.0772C83.2495 28.7659 81.2301 28.451 79.2286 28.1312L78.9129 30.1061ZM91.0119 31.9615L90.7186 33.9398C92.7314 34.2382 94.756 34.5346 96.7903 34.8303L97.078 32.8511L97.3657 30.8719C95.3339 30.5766 93.3132 30.2808 91.3052 29.9831L91.0119 31.9615ZM103.132 33.7267L102.846 35.7062C104.858 35.9963 106.877 36.287 108.902 36.5799L109.188 34.6005L109.474 32.6211C107.448 32.328 105.428 32.0371 103.417 31.7472L103.132 33.7267ZM115.253 35.4831L114.962 37.4619C116.973 37.7567 118.986 38.0549 121.003 38.3577L121.3 36.3799L121.597 34.4021C119.575 34.0984 117.556 33.7996 115.543 33.5043L115.253 35.4831ZM127.354 37.3037L127.047 39.2801C129.058 39.5921 131.068 39.9101 133.078 40.2352L133.397 38.2608L133.716 36.2865C131.698 35.9599 129.679 35.6406 127.661 35.3274L127.354 37.3037ZM139.437 39.2618L139.102 41.2335C141.108 41.5745 143.111 41.9238 145.11 42.2829L145.463 40.3144L145.817 38.3459C143.805 37.9845 141.79 37.6329 139.772 37.2901L139.437 39.2618ZM151.486 41.4302L151.11 43.3946C153.108 43.7764 155.098 44.1693 157.081 44.5746L157.481 42.6151L157.882 40.6556C155.882 40.2467 153.874 39.8505 151.861 39.4657L151.486 41.4302ZM163.478 43.8859L163.048 45.8392C165.037 46.2762 167.014 46.7271 168.98 47.1933L169.442 45.2473L169.903 43.3013C167.915 42.8297 165.916 42.3739 163.907 41.9325L163.478 43.8859ZM175.381 46.714L174.883 48.651C176.858 49.1587 178.818 49.6837 180.761 50.2273L181.3 48.3012L181.839 46.3751C179.867 45.8236 177.88 45.2913 175.879 44.777L175.381 46.714ZM187.155 50.0122L186.571 51.925C188.524 52.5212 190.457 53.1382 192.368 53.7778L193.003 51.8811L193.637 49.9844C191.69 49.3331 189.724 48.7053 187.739 48.0993L187.155 50.0122ZM198.774 53.9057L198.084 55.7828C199.988 56.4833 201.868 57.2086 203.72 57.9603L204.472 56.1071L205.224 54.2538C203.329 53.4848 201.408 52.7436 199.464 52.0287L198.774 53.9057ZM210.114 58.5167L209.294 60.3409C211.141 61.1711 212.957 62.0307 214.74 62.9216L215.634 61.1326L216.528 59.3436C214.694 58.4272 212.829 57.5441 210.934 56.6925L210.114 58.5167ZM221.043 63.9893L220.068 65.7356C221.836 66.7226 223.566 67.7446 225.255 68.8033L226.317 67.1086L227.38 65.4138C225.63 64.3177 223.842 63.2614 222.017 62.2429L221.043 63.9893ZM231.402 70.4923L230.248 72.1253C231.89 73.2862 233.486 74.4875 235.036 75.731L236.287 74.1713L237.539 72.6116C235.925 71.3153 234.263 70.0653 232.557 68.8592L231.402 70.4923ZM240.934 78.1571L239.581 79.6306C241.052 80.9801 242.471 82.3753 243.835 83.8181L245.288 82.4438L246.741 81.0695C245.31 79.5562 243.824 78.095 242.286 76.6836L240.934 78.1571ZM249.326 87.0421L247.774 88.3042C249.023 89.8399 250.217 91.4255 251.351 93.063L252.995 91.9242L254.639 90.7855C253.445 89.062 252.19 87.3942 250.877 85.78L249.326 87.0421ZM256.274 97.078L254.545 98.0845C255.541 99.7934 256.477 101.555 257.352 103.371L259.154 102.504L260.956 101.636C260.035 99.7246 259.05 97.8706 258.002 96.0714L256.274 97.078ZM261.582 108.079L259.72 108.808C260.085 109.741 260.435 110.687 260.77 111.647L262.658 110.988L264.547 110.33C264.195 109.323 263.828 108.33 263.445 107.35L261.582 108.079ZM262.658 110.988L260.677 111.259C260.814 112.268 260.947 113.274 261.074 114.278L263.058 114.027L265.042 113.776C264.914 112.759 264.779 111.739 264.64 110.718L262.658 110.988ZM263.762 120.07L261.773 120.281C261.988 122.305 262.181 124.32 262.353 126.325L264.345 126.155L266.338 125.984C266.164 123.951 265.968 121.909 265.75 119.859L263.762 120.07ZM264.802 132.233L262.806 132.362C262.937 134.384 263.045 136.395 263.132 138.396L265.13 138.31L267.128 138.223C267.04 136.194 266.93 134.154 266.798 132.104L264.802 132.233ZM265.328 144.419L263.328 144.461C263.372 146.49 263.393 148.507 263.391 150.512L265.391 150.514L267.391 150.516C267.393 148.481 267.372 146.434 267.328 144.376L265.328 144.419ZM265.316 156.595L263.317 156.547C263.269 158.582 263.197 160.603 263.102 162.61L265.099 162.705L267.097 162.799C267.194 160.761 267.267 158.708 267.316 156.642L265.316 156.595ZM264.737 168.794L262.742 168.651C262.597 170.672 262.428 172.677 262.235 174.666L264.226 174.859L266.217 175.052C266.413 173.03 266.585 170.991 266.732 168.937L264.737 168.794ZM263.56 180.922L261.575 180.677C261.326 182.695 261.053 184.694 260.754 186.675L262.732 186.972L264.71 187.27C265.013 185.254 265.292 183.219 265.545 181.166L263.56 180.922ZM261.741 192.988L259.773 192.635C259.415 194.629 259.032 196.602 258.624 198.553L260.581 198.962L262.539 199.372C262.955 197.383 263.346 195.372 263.71 193.34L261.741 192.988ZM259.242 204.912L257.298 204.443C256.821 206.419 256.318 208.37 255.788 210.295L257.717 210.826L259.645 211.356C260.186 209.389 260.7 207.397 261.186 205.381L259.242 204.912ZM256.001 216.679L254.092 216.084C253.489 218.019 252.858 219.926 252.201 221.803L254.088 222.465L255.976 223.126C256.649 221.204 257.294 219.253 257.911 217.274L256.001 216.679ZM251.969 228.173L250.108 227.442C249.368 229.327 248.599 231.178 247.802 232.996L249.634 233.799L251.465 234.603C252.284 232.736 253.073 230.836 253.831 228.904L251.969 228.173ZM247.066 239.339L245.27 238.46C244.379 240.279 243.459 242.06 242.509 243.802L244.264 244.76L246.02 245.718C246.999 243.923 247.947 242.09 248.863 240.218L247.066 239.339ZM241.218 250.044L239.51 249.004C238.46 250.73 237.378 252.411 236.265 254.047L237.919 255.171L239.573 256.296C240.724 254.604 241.842 252.866 242.927 251.084L241.218 250.044ZM234.357 260.119L232.766 258.906C231.545 260.508 230.292 262.059 229.007 263.557L230.525 264.859L232.043 266.161C233.379 264.603 234.681 262.993 235.948 261.331L234.357 260.119ZM226.417 269.362L224.982 267.969C223.585 269.409 222.154 270.79 220.691 272.111L222.031 273.595L223.372 275.08C224.901 273.698 226.395 272.256 227.852 270.756L226.417 269.362ZM217.37 277.522L216.136 275.948C214.565 277.18 212.961 278.346 211.324 279.446L212.44 281.106L213.555 282.766C215.274 281.611 216.957 280.387 218.604 279.096L217.37 277.522ZM207.255 284.309L206.27 282.569C204.544 283.545 202.785 284.452 200.993 285.286L201.837 287.099L202.681 288.912C204.57 288.033 206.423 287.078 208.24 286.05L207.255 284.309ZM196.213 289.445L195.519 287.57C193.67 288.255 191.79 288.866 189.878 289.401L190.418 291.327L190.957 293.253C192.974 292.688 194.958 292.043 196.908 291.321L196.213 289.445ZM184.488 292.731L184.106 290.768C182.18 291.143 180.225 291.443 178.24 291.668L178.465 293.655L178.69 295.643C180.779 295.406 182.84 295.089 184.87 294.694L184.488 292.731ZM3.9689 1.1483C3.22222 0.33433 1.95707 0.279775 1.14309 1.02645C0.329129 1.77313 0.274574 3.03828 1.02124 3.85225L3.9689 1.1483ZM262.658 110.988L264.64 110.718L264.613 110.519L264.547 110.33L262.658 110.988ZM169.321 294.16L189.519 305.357L189.117 282.267L169.321 294.16ZM2.49507 2.50028L1.02124 3.85225C1.7321 4.62717 2.47634 5.37979 3.25249 6.11104L4.62396 4.65534L5.99545 3.19964C5.28745 2.53262 4.61172 1.84905 3.9689 1.1483L2.49507 2.50028ZM9.3343 8.54292L8.15783 10.1603C9.82472 11.3728 11.5933 12.5182 13.4549 13.6026L14.4616 11.8745L15.4683 10.1463C13.7128 9.12365 12.0586 8.05144 10.5108 6.92554L9.3343 8.54292ZM19.8786 14.7343L19.0138 16.5376C20.8571 17.4216 22.7722 18.261 24.7534 19.0602L25.5016 17.2054L26.2497 15.3506C24.3401 14.5803 22.5032 13.7748 20.7434 12.9309L19.8786 14.7343ZM31.2287 19.3428L30.5753 21.233C32.4841 21.8929 34.4442 22.5233 36.4514 23.1274L37.0277 21.2122L37.6041 19.297C35.644 18.7072 33.7356 18.0933 31.8822 17.4525L31.2287 19.3428ZM42.9181 22.8757L42.4052 24.8089C44.3738 25.3312 46.3814 25.8329 48.4245 26.3165L48.8852 24.3703L49.3459 22.4241C47.3346 21.948 45.362 21.4549 43.431 20.9426L42.9181 22.8757ZM54.8356 25.7084L54.4173 27.6642C56.3964 28.0875 58.4046 28.497 60.439 28.8946L60.8227 26.9317L61.2063 24.9689C59.1928 24.5753 57.2079 24.1706 55.2539 23.7526L54.8356 25.7084ZM66.8646 28.0661L66.5091 30.0342C68.4989 30.3936 70.5106 30.7439 72.5417 31.087L72.8748 29.1149L73.2079 27.1429C71.19 26.802 69.1933 26.4543 67.22 26.0979L66.8646 28.0661ZM78.9129 30.1061L78.5973 32.081C80.609 32.4025 82.6372 32.7187 84.6797 33.0312L84.9821 31.0542L85.2846 29.0772C83.2495 28.7659 81.2301 28.451 79.2286 28.1312L78.9129 30.1061ZM91.0119 31.9615L90.7186 33.9398C92.7314 34.2382 94.756 34.5346 96.7903 34.8303L97.078 32.8511L97.3657 30.8719C95.3339 30.5766 93.3132 30.2808 91.3052 29.9831L91.0119 31.9615ZM103.132 33.7267L102.846 35.7062C104.858 35.9963 106.877 36.287 108.902 36.5799L109.188 34.6005L109.474 32.6211C107.448 32.328 105.428 32.0371 103.417 31.7472L103.132 33.7267ZM115.253 35.4831L114.962 37.4619C116.973 37.7567 118.986 38.0549 121.003 38.3577L121.3 36.3799L121.597 34.4021C119.575 34.0984 117.556 33.7996 115.543 33.5043L115.253 35.4831ZM127.354 37.3037L127.047 39.2801C129.058 39.5921 131.068 39.9101 133.078 40.2352L133.397 38.2608L133.716 36.2865C131.698 35.9599 129.679 35.6406 127.661 35.3274L127.354 37.3037ZM139.437 39.2618L139.102 41.2335C141.108 41.5745 143.111 41.9238 145.11 42.2829L145.463 40.3144L145.817 38.3459C143.805 37.9845 141.79 37.6329 139.772 37.2901L139.437 39.2618ZM151.486 41.4302L151.11 43.3946C153.108 43.7764 155.098 44.1693 157.081 44.5746L157.481 42.6151L157.882 40.6556C155.882 40.2467 153.874 39.8505 151.861 39.4657L151.486 41.4302ZM163.478 43.8859L163.048 45.8392C165.037 46.2762 167.014 46.7271 168.98 47.1933L169.442 45.2473L169.903 43.3013C167.915 42.8297 165.916 42.3739 163.907 41.9325L163.478 43.8859ZM175.381 46.714L174.883 48.651C176.858 49.1587 178.818 49.6837 180.761 50.2273L181.3 48.3012L181.839 46.3751C179.867 45.8236 177.88 45.2913 175.879 44.777L175.381 46.714ZM187.155 50.0122L186.571 51.925C188.524 52.5212 190.457 53.1382 192.368 53.7778L193.003 51.8811L193.637 49.9844C191.69 49.3331 189.724 48.7053 187.739 48.0993L187.155 50.0122ZM198.774 53.9057L198.084 55.7828C199.988 56.4833 201.868 57.2086 203.72 57.9603L204.472 56.1071L205.224 54.2538C203.329 53.4848 201.408 52.7436 199.464 52.0287L198.774 53.9057ZM210.114 58.5167L209.294 60.3409C211.141 61.1711 212.957 62.0307 214.74 62.9216L215.634 61.1326L216.528 59.3436C214.694 58.4272 212.829 57.5441 210.934 56.6925L210.114 58.5167ZM221.043 63.9893L220.068 65.7356C221.836 66.7226 223.566 67.7446 225.255 68.8033L226.317 67.1086L227.38 65.4138C225.63 64.3177 223.842 63.2614 222.017 62.2429L221.043 63.9893ZM231.402 70.4923L230.248 72.1253C231.89 73.2862 233.486 74.4875 235.036 75.731L236.287 74.1713L237.539 72.6116C235.925 71.3153 234.263 70.0653 232.557 68.8592L231.402 70.4923ZM240.934 78.1571L239.581 79.6306C241.052 80.9801 242.471 82.3753 243.835 83.8181L245.288 82.4438L246.741 81.0695C245.31 79.5562 243.824 78.095 242.286 76.6836L240.934 78.1571ZM249.326 87.0421L247.774 88.3042C249.023 89.8399 250.217 91.4255 251.351 93.063L252.995 91.9242L254.639 90.7855C253.445 89.062 252.19 87.3942 250.877 85.78L249.326 87.0421ZM256.274 97.078L254.545 98.0845C255.541 99.7934 256.477 101.555 257.352 103.371L259.154 102.504L260.956 101.636C260.035 99.7246 259.05 97.8706 258.002 96.0714L256.274 97.078ZM261.582 108.079L259.72 108.808C260.085 109.741 260.435 110.687 260.77 111.647L262.658 110.988L264.547 110.33C264.195 109.323 263.828 108.33 263.445 107.35L261.582 108.079ZM262.658 110.988L260.677 111.259C260.814 112.268 260.947 113.274 261.074 114.278L263.058 114.027L265.042 113.776C264.914 112.759 264.779 111.739 264.64 110.718L262.658 110.988ZM263.762 120.07L261.773 120.281C261.988 122.305 262.181 124.32 262.353 126.325L264.345 126.155L266.338 125.984C266.164 123.951 265.968 121.909 265.75 119.859L263.762 120.07ZM264.802 132.233L262.806 132.362C262.937 134.384 263.045 136.395 263.132 138.396L265.13 138.31L267.128 138.223C267.04 136.194 266.93 134.154 266.798 132.104L264.802 132.233ZM265.328 144.419L263.328 144.461C263.372 146.49 263.393 148.507 263.391 150.512L265.391 150.514L267.391 150.516C267.393 148.481 267.372 146.434 267.328 144.376L265.328 144.419ZM265.316 156.595L263.317 156.547C263.269 158.582 263.197 160.603 263.102 162.61L265.099 162.705L267.097 162.799C267.194 160.761 267.267 158.708 267.316 156.642L265.316 156.595ZM264.737 168.794L262.742 168.651C262.597 170.672 262.428 172.677 262.235 174.666L264.226 174.859L266.217 175.052C266.413 173.03 266.585 170.991 266.732 168.937L264.737 168.794ZM263.56 180.922L261.575 180.677C261.326 182.695 261.053 184.694 260.754 186.675L262.732 186.972L264.71 187.27C265.013 185.254 265.292 183.219 265.545 181.166L263.56 180.922ZM261.741 192.988L259.773 192.635C259.415 194.629 259.032 196.602 258.624 198.553L260.581 198.962L262.539 199.372C262.955 197.383 263.346 195.372 263.71 193.34L261.741 192.988ZM259.242 204.912L257.298 204.443C256.821 206.419 256.318 208.37 255.788 210.295L257.717 210.826L259.645 211.356C260.186 209.389 260.7 207.397 261.186 205.381L259.242 204.912ZM256.001 216.679L254.092 216.084C253.489 218.019 252.858 219.926 252.201 221.803L254.088 222.465L255.976 223.126C256.649 221.204 257.294 219.253 257.911 217.274L256.001 216.679ZM251.969 228.173L250.108 227.442C249.368 229.327 248.599 231.178 247.802 232.996L249.634 233.799L251.465 234.603C252.284 232.736 253.073 230.836 253.831 228.904L251.969 228.173ZM247.066 239.339L245.27 238.46C244.379 240.279 243.459 242.06 242.509 243.802L244.264 244.76L246.02 245.718C246.999 243.923 247.947 242.09 248.863 240.218L247.066 239.339ZM241.218 250.044L239.51 249.004C238.46 250.73 237.378 252.411 236.265 254.047L237.919 255.171L239.573 256.296C240.724 254.604 241.842 252.866 242.927 251.084L241.218 250.044ZM234.357 260.119L232.766 258.906C231.545 260.508 230.292 262.059 229.007 263.557L230.525 264.859L232.043 266.161C233.379 264.603 234.681 262.993 235.948 261.331L234.357 260.119ZM226.417 269.362L224.982 267.969C223.585 269.409 222.154 270.79 220.691 272.111L222.031 273.595L223.372 275.08C224.901 273.698 226.395 272.256 227.852 270.756L226.417 269.362ZM217.37 277.522L216.136 275.948C214.565 277.18 212.961 278.346 211.324 279.446L212.44 281.106L213.555 282.766C215.274 281.611 216.957 280.387 218.604 279.096L217.37 277.522ZM207.255 284.309L206.27 282.569C204.544 283.545 202.785 284.452 200.993 285.286L201.837 287.099L202.681 288.912C204.57 288.033 206.423 287.078 208.24 286.05L207.255 284.309ZM196.213 289.445L195.519 287.57C193.67 288.255 191.79 288.866 189.878 289.401L190.418 291.327L190.957 293.253C192.974 292.688 194.958 292.043 196.908 291.321L196.213 289.445ZM184.488 292.731L184.106 290.768C182.18 291.143 180.225 291.443 178.24 291.668L178.465 293.655L178.69 295.643C180.779 295.406 182.84 295.089 184.87 294.694L184.488 292.731Z" fill="#868686"/>
</svg>
