<svg width="287" height="46" viewBox="0 0 287 46" fill="none" xmlns="http://www.w3.org/2000/svg">
<path d="M1.39692 28.6107C0.343666 28.2779 -0.240408 27.1543 0.0923537 26.1011C0.425116 25.0478 1.5487 24.4637 2.60196 24.7965L1.39692 28.6107ZM286.931 2.00002L274.42 21.4118L263.864 0.87134L286.931 2.00002ZM1.99944 26.7036L2.60196 24.7965C3.56656 25.1013 4.53321 25.4021 5.50189 25.6991L4.9157 27.6112L4.3295 29.5234C3.34992 29.2231 2.37239 28.9189 1.39692 28.6107L1.99944 26.7036ZM10.7736 29.3525L11.3271 27.4307C13.2702 27.9903 15.2211 28.5343 17.1795 29.0625L16.6587 30.9935L16.1379 32.9245C14.1576 32.3904 12.1849 31.8403 10.2201 31.2744L10.7736 29.3525ZM22.5722 32.535L23.0603 30.5955C25.0215 31.089 26.99 31.5669 28.9656 32.0289L28.5102 33.9763L28.0548 35.9238C26.0573 35.4567 24.067 34.9736 22.0841 34.4745L22.5722 32.535ZM34.4712 35.3177L34.8939 33.3628C36.8709 33.7903 38.8548 34.202 40.8452 34.5977L40.4552 36.5593L40.0653 38.5209C38.053 38.1209 36.0473 37.7047 34.0485 37.2725L34.4712 35.3177ZM46.4574 37.7007L46.8147 35.7329C48.8045 36.0942 50.8007 36.4396 52.803 36.7689L52.4784 38.7424L52.1537 40.7159C50.1296 40.3829 48.1117 40.0338 46.1001 39.6686L46.4574 37.7007ZM58.5171 39.6845L58.8091 37.7059C60.8094 38.0011 62.8156 38.2803 64.8274 38.5435L64.5681 40.5266L64.3087 42.5097C62.2751 42.2437 60.2472 41.9615 58.2251 41.6631L58.5171 39.6845ZM70.6333 41.2693L70.8601 39.2822C72.8699 39.5116 74.8851 39.725 76.9055 39.9222L76.7112 41.9127L76.5168 43.9033C74.4748 43.7039 72.4379 43.4883 70.4065 43.2564L70.6333 41.2693ZM82.7961 42.4567L82.958 40.4633C84.9737 40.627 86.9944 40.7746 89.0199 40.906L88.8904 42.9018L88.7609 44.8976C86.7138 44.7648 84.6715 44.6156 82.6342 44.4502L82.7961 42.4567ZM94.9924 43.2482L95.0896 41.2505C97.1091 41.3488 99.1332 41.431 101.162 41.497L101.097 43.4959L101.032 45.4949C98.9817 45.4282 96.9362 45.3451 94.8952 45.2458L94.9924 43.2482ZM107.205 43.6455L107.238 41.6457C109.26 41.679 111.287 41.6962 113.317 41.6971L113.317 43.6971L113.316 45.6971C111.264 45.6962 109.216 45.6788 107.172 45.6452L107.205 43.6455ZM119.426 43.6511L119.395 41.6514C121.417 41.6201 123.443 41.5726 125.472 41.509L125.535 43.508L125.597 45.507C123.547 45.5713 121.5 45.6192 119.457 45.6509L119.426 43.6511ZM131.641 43.268L131.547 41.2702C133.567 41.1748 135.59 41.0632 137.617 40.9355L137.743 42.9315L137.869 44.9276C135.821 45.0566 133.777 45.1693 131.735 45.2657L131.641 43.268ZM143.837 42.4993L143.68 40.5055C144.689 40.4259 145.7 40.3423 146.711 40.2546L146.884 42.2472L147.056 44.2397C146.035 44.3282 145.014 44.4127 143.994 44.4931L143.837 42.4993ZM146.884 42.2472L146.711 40.2546C147.722 40.167 148.732 40.0754 149.74 39.9801L149.928 41.9712L150.116 43.9623C149.098 44.0586 148.078 44.1511 147.056 44.2397L146.884 42.2472ZM156.006 41.3481L155.786 39.3602C157.804 39.1373 159.817 38.8989 161.823 38.6452L162.074 40.6294L162.325 42.6136C160.298 42.8699 158.265 43.1108 156.225 43.3361L156.006 41.3481ZM168.131 39.8148L167.849 37.8349C169.859 37.5484 171.862 37.2465 173.859 36.9294L174.173 38.9046L174.486 40.8799C172.468 41.2003 170.444 41.5053 168.413 41.7948L168.131 39.8148ZM180.199 37.8984L179.854 35.9284C181.854 35.578 183.847 35.2123 185.834 34.8315L186.211 36.7957L186.587 38.7599C184.58 39.1448 182.565 39.5143 180.544 39.8684L180.199 37.8984ZM192.202 35.5971L191.794 33.6391C193.781 33.225 195.761 32.7957 197.733 32.3513L198.173 34.3024L198.612 36.2535C196.619 36.7026 194.618 37.1365 192.61 37.555L192.202 35.5971ZM204.124 32.911L203.653 30.9673C205.626 30.4892 207.591 29.996 209.548 29.4879L210.051 31.4237L210.553 33.3595C208.575 33.8731 206.589 34.3716 204.595 34.8548L204.124 32.911ZM215.951 29.8406L215.417 27.9132C217.374 27.3712 219.322 26.8142 221.262 26.2423L221.828 28.1607L222.393 30.0791C220.432 30.6572 218.463 31.2202 216.485 31.768L215.951 29.8406ZM227.675 26.3852L227.078 24.4764C229.014 23.8709 230.943 23.2506 232.862 22.6155L233.49 24.5143L234.118 26.4131C232.178 27.055 230.229 27.6821 228.271 28.2941L227.675 26.3852ZM239.277 22.5469L238.617 20.6588C240.533 19.9897 242.44 19.3059 244.338 18.6076L245.029 20.4846L245.719 22.3615C243.801 23.0675 241.873 23.7588 239.936 24.4351L239.277 22.5469ZM250.745 18.3272L250.023 16.462C251.916 15.7296 253.799 14.9826 255.673 14.2212L256.426 16.0742L257.179 17.9271C255.284 18.6968 253.38 19.452 251.467 20.1924L250.745 18.3272ZM262.067 13.7269L261.283 11.8869C263.15 11.0918 265.007 10.2823 266.854 9.45854L267.668 11.2851L268.483 13.1117C266.616 13.9446 264.738 14.763 262.851 15.5669L262.067 13.7269ZM273.228 8.7489L272.383 6.93636C274.221 6.07892 276.049 5.20727 277.867 4.32159L278.743 6.11953L279.619 7.91746C277.781 8.81306 275.933 9.69445 274.074 10.5614L273.228 8.7489ZM1.39692 28.6107C0.343666 28.2779 -0.240408 27.1543 0.0923537 26.1011C0.425116 25.0478 1.5487 24.4637 2.60196 24.7965L1.39692 28.6107ZM286.931 2.00002L274.42 21.4118L263.864 0.87134L286.931 2.00002ZM1.99944 26.7036L2.60196 24.7965C3.56656 25.1013 4.53321 25.4021 5.50189 25.6991L4.9157 27.6112L4.3295 29.5234C3.34992 29.2231 2.37239 28.9189 1.39692 28.6107L1.99944 26.7036ZM10.7736 29.3525L11.3271 27.4307C13.2702 27.9903 15.2211 28.5343 17.1795 29.0625L16.6587 30.9935L16.1379 32.9245C14.1576 32.3904 12.1849 31.8403 10.2201 31.2744L10.7736 29.3525ZM22.5722 32.535L23.0603 30.5955C25.0215 31.089 26.99 31.5669 28.9656 32.0289L28.5102 33.9763L28.0548 35.9238C26.0573 35.4567 24.067 34.9736 22.0841 34.4745L22.5722 32.535ZM34.4712 35.3177L34.8939 33.3628C36.8709 33.7903 38.8548 34.202 40.8452 34.5977L40.4552 36.5593L40.0653 38.5209C38.053 38.1209 36.0473 37.7047 34.0485 37.2725L34.4712 35.3177ZM46.4574 37.7007L46.8147 35.7329C48.8045 36.0942 50.8007 36.4396 52.803 36.7689L52.4784 38.7424L52.1537 40.7159C50.1296 40.3829 48.1117 40.0338 46.1001 39.6686L46.4574 37.7007ZM58.5171 39.6845L58.8091 37.7059C60.8094 38.0011 62.8156 38.2803 64.8274 38.5435L64.5681 40.5266L64.3087 42.5097C62.2751 42.2437 60.2472 41.9615 58.2251 41.6631L58.5171 39.6845ZM70.6333 41.2693L70.8601 39.2822C72.8699 39.5116 74.8851 39.725 76.9055 39.9222L76.7112 41.9127L76.5168 43.9033C74.4748 43.7039 72.4379 43.4883 70.4065 43.2564L70.6333 41.2693ZM82.7961 42.4567L82.958 40.4633C84.9737 40.627 86.9944 40.7746 89.0199 40.906L88.8904 42.9018L88.7609 44.8976C86.7138 44.7648 84.6715 44.6156 82.6342 44.4502L82.7961 42.4567ZM94.9924 43.2482L95.0896 41.2505C97.1091 41.3488 99.1332 41.431 101.162 41.497L101.097 43.4959L101.032 45.4949C98.9817 45.4282 96.9362 45.3451 94.8952 45.2458L94.9924 43.2482ZM107.205 43.6455L107.238 41.6457C109.26 41.679 111.287 41.6962 113.317 41.6971L113.317 43.6971L113.316 45.6971C111.264 45.6962 109.216 45.6788 107.172 45.6452L107.205 43.6455ZM119.426 43.6511L119.395 41.6514C121.417 41.6201 123.443 41.5726 125.472 41.509L125.535 43.508L125.597 45.507C123.547 45.5713 121.5 45.6192 119.457 45.6509L119.426 43.6511ZM131.641 43.268L131.547 41.2702C133.567 41.1748 135.59 41.0632 137.617 40.9355L137.743 42.9315L137.869 44.9276C135.821 45.0566 133.777 45.1693 131.735 45.2657L131.641 43.268ZM143.837 42.4993L143.68 40.5055C144.689 40.4259 145.7 40.3423 146.711 40.2546L146.884 42.2472L147.056 44.2397C146.035 44.3282 145.014 44.4127 143.994 44.4931L143.837 42.4993ZM146.884 42.2472L146.711 40.2546C147.722 40.167 148.732 40.0754 149.74 39.9801L149.928 41.9712L150.116 43.9623C149.098 44.0586 148.078 44.1511 147.056 44.2397L146.884 42.2472ZM156.006 41.3481L155.786 39.3602C157.804 39.1373 159.817 38.8989 161.823 38.6452L162.074 40.6294L162.325 42.6136C160.298 42.8699 158.265 43.1108 156.225 43.3361L156.006 41.3481ZM168.131 39.8148L167.849 37.8349C169.859 37.5484 171.862 37.2465 173.859 36.9294L174.173 38.9046L174.486 40.8799C172.468 41.2003 170.444 41.5053 168.413 41.7948L168.131 39.8148ZM180.199 37.8984L179.854 35.9284C181.854 35.578 183.847 35.2123 185.834 34.8315L186.211 36.7957L186.587 38.7599C184.58 39.1448 182.565 39.5143 180.544 39.8684L180.199 37.8984ZM192.202 35.5971L191.794 33.6391C193.781 33.225 195.761 32.7957 197.733 32.3513L198.173 34.3024L198.612 36.2535C196.619 36.7026 194.618 37.1365 192.61 37.555L192.202 35.5971ZM204.124 32.911L203.653 30.9673C205.626 30.4892 207.591 29.996 209.548 29.4879L210.051 31.4237L210.553 33.3595C208.575 33.8731 206.589 34.3716 204.595 34.8548L204.124 32.911ZM215.951 29.8406L215.417 27.9132C217.374 27.3712 219.322 26.8142 221.262 26.2423L221.828 28.1607L222.393 30.0791C220.432 30.6572 218.463 31.2202 216.485 31.768L215.951 29.8406ZM227.675 26.3852L227.078 24.4764C229.014 23.8709 230.943 23.2506 232.862 22.6155L233.49 24.5143L234.118 26.4131C232.178 27.055 230.229 27.6821 228.271 28.2941L227.675 26.3852ZM239.277 22.5469L238.617 20.6588C240.533 19.9897 242.44 19.3059 244.338 18.6076L245.029 20.4846L245.719 22.3615C243.801 23.0675 241.873 23.7588 239.936 24.4351L239.277 22.5469ZM250.745 18.3272L250.023 16.462C251.916 15.7296 253.799 14.9826 255.673 14.2212L256.426 16.0742L257.179 17.9271C255.284 18.6968 253.38 19.452 251.467 20.1924L250.745 18.3272ZM262.067 13.7269L261.283 11.8869C263.15 11.0918 265.007 10.2823 266.854 9.45854L267.668 11.2851L268.483 13.1117C266.616 13.9446 264.738 14.763 262.851 15.5669L262.067 13.7269ZM273.228 8.7489L272.383 6.93636C274.221 6.07892 276.049 5.20727 277.867 4.32159L278.743 6.11953L279.619 7.91746C277.781 8.81306 275.933 9.69445 274.074 10.5614L273.228 8.7489Z" fill="#474646"/>
</svg>
