<svg width="118" height="118" viewBox="0 0 118 118" fill="none" xmlns="http://www.w3.org/2000/svg">
<g filter="url(#filter0_f_546_157)">
<path d="M4 29C4 15.1929 15.1929 4 29 4H89C102.807 4 114 15.1929 114 29V89C114 102.807 102.807 114 89 114H4V29Z" fill="white" fill-opacity="0.5"/>
</g>
<path d="M4 29C4 15.1929 15.1929 4 29 4H89C102.807 4 114 15.1929 114 29V89C114 102.807 102.807 114 89 114H4V29Z" fill="#51B59F"/>
<path d="M38.3084 41.848L41.4435 44.9749L26.2917 60.0862L23.1562 56.9594L38.3084 41.848Z" fill="#FFDC48"/>
<mask id="mask0_546_157" style="mask-type:luminance" maskUnits="userSpaceOnUse" x="19" y="19" width="80" height="80">
<path d="M19 19.0002H98.9998V99H19V19.0002Z" fill="white"/>
</mask>
<g mask="url(#mask0_546_157)">
<path d="M20.4 59.5301C20.2539 59.3837 20.1719 59.1853 20.1719 58.9784C20.1719 58.7716 20.2539 58.5732 20.4 58.4267L22.4853 56.347C22.7895 56.0436 23.2873 56.0436 23.5915 56.347L26.9073 59.654C27.0534 59.8004 27.1355 59.9988 27.1355 60.2057C27.1355 60.4125 27.0534 60.6109 26.9073 60.7573L24.822 62.837C24.5178 63.1404 24.02 63.1404 23.7158 62.837L20.4 59.5301Z" fill="#FED2A4"/>
<path d="M23.525 59.5301C23.3789 59.3837 23.2969 59.1853 23.2969 58.9784C23.2969 58.7716 23.3789 58.5732 23.525 58.4267L24.6009 57.3537L23.5915 56.347C23.2873 56.0436 22.7895 56.0436 22.4853 56.347L20.4 58.4267C20.2539 58.5732 20.1719 58.7716 20.1719 58.9784C20.1719 59.1853 20.2539 59.3837 20.4 59.5301L23.7158 62.837C24.02 63.1404 24.5178 63.1404 24.822 62.837L25.8314 61.8304L23.525 59.5301Z" fill="#FFBD86"/>
<path d="M41.457 59.8829C41.0273 59.8829 40.6758 60.2345 40.6758 60.6642V64.8573C40.6758 65.287 41.0273 65.6385 41.457 65.6385H53.4237C53.8534 65.6385 54.205 65.9901 54.205 66.4198V74.4501C54.205 74.8798 54.5565 75.2313 54.9862 75.2313H59.1948C59.6245 75.2313 59.976 74.8798 59.976 74.4501V60.6642C59.976 60.2345 59.6245 59.8829 59.1948 59.8829H41.457Z" fill="#766E6E"/>
<path d="M56.5487 64.0759C56.5487 63.6462 56.1971 63.2946 55.7675 63.2946H40.6758V64.8571C40.6758 65.2868 41.0273 65.6384 41.457 65.6384H53.4237C53.8534 65.6384 54.205 65.9899 54.205 66.4196V74.4501C54.205 74.8798 54.5565 75.2313 54.9862 75.2313H56.5487V64.0759Z" fill="#5B5555"/>
<path d="M42.1308 84.0566H36.3594V57.0048H42.1308V84.0566Z" fill="#766E6E"/>
<path d="M36.3594 84.0566H39.1198V57.0048H36.3594V84.0566Z" fill="#5B5555"/>
<path d="M45.5662 88.3242C45.5662 89.0117 45.0037 89.5742 44.3162 89.5742H36.125C35.4375 89.5742 34.875 89.0117 34.875 88.3242V84.4689C34.875 83.7814 35.4375 83.2189 36.125 83.2189H44.3162C45.0037 83.2189 45.5662 83.7814 45.5662 84.4689V88.3242Z" fill="#CDBFBA"/>
<path d="M38.7812 88.3242V84.4689C38.7812 83.7814 39.3437 83.2189 40.0312 83.2189H36.125C35.4375 83.2189 34.875 83.7814 34.875 84.4689V88.3242C34.875 89.0117 35.4375 89.5742 36.125 89.5742H40.0312C39.3437 89.5742 38.7812 89.0117 38.7812 88.3242Z" fill="#9C9C9C"/>
<path d="M63.9529 78.6364C63.9529 79.3239 63.3904 79.8864 62.7029 79.8864H54.5117C53.8242 79.8864 53.2617 79.3239 53.2617 78.6364V74.7814C53.2617 74.0939 53.8242 73.5314 54.5117 73.5314H62.7029C63.3904 73.5314 63.9529 74.0939 63.9529 74.7814V78.6364Z" fill="#CDBFBA"/>
<path d="M57.168 78.6364V74.7814C57.168 74.0939 57.7305 73.5314 58.418 73.5314H54.5117C53.8242 73.5314 53.2617 74.0939 53.2617 74.7814V78.6364C53.2617 79.3239 53.8242 79.8864 54.5117 79.8864H58.418C57.7305 79.8864 57.168 79.3239 57.168 78.6364Z" fill="#9C9C9C"/>
<path d="M40.2069 41.2464C38.0853 41.2464 36.3594 42.9678 36.3594 45.0835V61.8011H50.4998C50.5755 61.8012 50.6504 61.7864 50.7204 61.7576C50.7903 61.7287 50.8539 61.6864 50.9075 61.6329C50.9611 61.5795 51.0036 61.516 51.0327 61.4461C51.0617 61.3763 51.0767 61.3014 51.0768 61.2257V45.6684H65.3746V41.2464H40.2069Z" fill="#FFDC48"/>
<path d="M44.8943 41.2464H40.2069C38.0853 41.2464 36.3594 42.9678 36.3594 45.0835V61.8011H41.0469V45.0835C41.0469 42.9678 42.7728 41.2464 44.8943 41.2464Z" fill="#FAC600"/>
<path d="M67.8887 45.7946C67.8887 46.2242 67.5372 46.5758 67.1075 46.5758H64.1562C63.7266 46.5758 63.375 46.2242 63.375 45.7946V41.12C63.375 40.6904 63.7266 40.3388 64.1562 40.3388H67.1075C67.5372 40.3388 67.8887 40.6904 67.8887 41.12V45.7946Z" fill="#FED2A4"/>
<path d="M65.7187 45.7946V41.12C65.7187 40.6904 66.0703 40.3388 66.5 40.3388H64.1562C63.7266 40.3388 63.375 40.6904 63.375 41.12V45.7946C63.375 46.2242 63.7266 46.5758 64.1562 46.5758H66.5C66.0703 46.5758 65.7187 46.2242 65.7187 45.7946Z" fill="#FFBD86"/>
<path d="M50.845 29.8997C50.845 34.1677 47.3759 37.6274 43.0964 37.6274C38.817 37.6274 35.3477 34.1677 35.3477 29.8997C35.3477 25.6318 38.817 22.172 43.0964 22.172C47.3759 22.172 50.845 25.6318 50.845 29.8997Z" fill="#FED2A4"/>
<path d="M40.0351 29.8997C40.0351 26.4466 42.3065 23.5234 45.4401 22.5327C44.682 22.2931 43.8915 22.1714 43.0964 22.172C38.8169 22.172 35.3477 25.6318 35.3477 29.8997C35.3477 34.1677 38.8169 37.6274 43.0964 37.6274C43.9134 37.6274 44.7006 37.5005 45.4401 37.2666C42.3065 36.276 40.0351 33.3529 40.0351 29.8997Z" fill="#FFBD86"/>
<path d="M50.0904 95.3595C50.0904 95.6173 49.8795 95.8282 49.6216 95.8282H26.6953C26.4375 95.8282 26.2266 95.6173 26.2266 95.3595V87.6869C26.2266 87.4291 26.4375 87.2181 26.6953 87.2181H49.6216C49.8795 87.2181 50.0904 87.4291 50.0904 87.6869V95.3595Z" fill="#76DDFD"/>
<path d="M31.6953 95.3595V87.6869C31.6953 87.4291 31.9062 87.2181 32.164 87.2181H26.6953C26.4375 87.2181 26.2266 87.4291 26.2266 87.6869V95.3595C26.2266 95.6173 26.4375 95.8282 26.6953 95.8282H32.164C31.9062 95.8282 31.6953 95.6173 31.6953 95.3595Z" fill="#08A9F1"/>
<path d="M73.9576 95.3595C73.9576 95.6173 73.7466 95.8282 73.4888 95.8282H50.5625C50.3047 95.8282 50.0938 95.6173 50.0938 95.3595V77.9097C50.0938 77.6519 50.3047 77.441 50.5625 77.441H73.4888C73.7466 77.441 73.9576 77.6519 73.9576 77.9097V95.3595Z" fill="#97DFFF"/>
<path d="M55.5625 95.3595V77.9097C55.5625 77.6519 55.7734 77.441 56.0312 77.441H50.5625C50.3047 77.441 50.0938 77.6519 50.0938 77.9097V95.3595C50.0938 95.6173 50.3047 95.8282 50.5625 95.8282H56.0312C55.7734 95.8282 55.5625 95.6173 55.5625 95.3595Z" fill="#0290CF"/>
<path d="M97.817 95.3595C97.817 95.6173 97.606 95.8282 97.3482 95.8282H74.4219C74.1641 95.8282 73.9531 95.6173 73.9531 95.3595V68.1757C73.9531 67.918 74.1641 67.7069 74.4219 67.7069H97.3482C97.606 67.7069 97.817 67.918 97.817 68.1757V95.3595Z" fill="#0290CF"/>
<path d="M79.8205 95.3595V68.1757C79.8205 67.918 80.0314 67.7069 80.2892 67.7069H74.4219C74.1641 67.7069 73.9531 67.918 73.9531 68.1757V95.3595C73.9531 95.6173 74.1641 95.8282 74.4219 95.8282H80.2892C80.0314 95.8282 79.8205 95.6173 79.8205 95.3595Z" fill="#017BAE"/>
<path d="M97.8113 28.5199C97.8794 28.2711 97.7318 28.1238 97.4832 28.1922L84.8726 31.6643C84.6242 31.7327 84.5696 31.9378 84.7518 32.1203L87.0376 34.4116C87.1251 34.4999 87.1741 34.6191 87.1741 34.7434C87.1741 34.8677 87.1251 34.9869 87.0376 35.0752L65.5741 56.5884C65.4866 56.6767 65.4375 56.796 65.4375 56.9203C65.4375 57.0446 65.4866 57.1638 65.5741 57.2521L68.8186 60.5042C68.9064 60.5919 69.0255 60.6411 69.1496 60.6412C69.2738 60.6412 69.3929 60.592 69.4808 60.5043L90.9444 38.9911C91.0323 38.9034 91.1514 38.8542 91.2755 38.8542C91.3997 38.8542 91.5188 38.9034 91.6066 38.9911L93.8923 41.2822C94.0743 41.4647 94.2791 41.4106 94.3473 41.1619L97.8113 28.5199Z" fill="#97D729"/>
<path d="M69.4803 57.252C69.3928 57.1637 69.3437 57.0445 69.3437 56.9202C69.3437 56.7959 69.3928 56.6766 69.4803 56.5883L90.9438 35.0751C91.0313 34.9868 91.0804 34.8675 91.0804 34.7433C91.0804 34.619 91.0313 34.4998 90.9438 34.4115L87.4821 30.9457L84.8726 31.6641C84.624 31.7326 84.5696 31.9379 84.7518 32.1204L87.0376 34.4115C87.1251 34.4998 87.1741 34.619 87.1741 34.7433C87.1741 34.8675 87.1251 34.9868 87.0376 35.0751L65.5741 56.5883C65.4866 56.6766 65.4375 56.7959 65.4375 56.9202C65.4375 57.0445 65.4866 57.1637 65.5741 57.252L68.8186 60.5041C68.9064 60.5918 69.0254 60.641 69.1496 60.6411C69.2737 60.6411 69.3927 60.5919 69.4806 60.5042L71.1028 58.8783L69.4803 57.252Z" fill="#8BC727"/>
</g>
<defs>
<filter id="filter0_f_546_157" x="0" y="0" width="118" height="118" filterUnits="userSpaceOnUse" color-interpolation-filters="sRGB">
<feFlood flood-opacity="0" result="BackgroundImageFix"/>
<feBlend mode="normal" in="SourceGraphic" in2="BackgroundImageFix" result="shape"/>
<feGaussianBlur stdDeviation="2" result="effect1_foregroundBlur_546_157"/>
</filter>
</defs>
</svg>
