<svg width="118" height="118" viewBox="0 0 118 118" fill="none" xmlns="http://www.w3.org/2000/svg">
<g filter="url(#filter0_f_547_224)">
<path d="M4 29.0005C4 15.1934 15.1929 4.00049 29 4.00049H89C102.807 4.00049 114 15.1934 114 29.0005V89.0005C114 102.808 102.807 114 89 114H4V29.0005Z" fill="white" fill-opacity="0.5"/>
</g>
<path d="M4 29.0005C4 15.1934 15.1929 4.00049 29 4.00049H89C102.807 4.00049 114 15.1934 114 29.0005V89.0005C114 102.808 102.807 114 89 114H4V29.0005Z" fill="#51B59F"/>
<path d="M79.3456 93.7165C72.6162 94.4223 65.9339 94.8459 59.2162 94.987L56.1456 95.0223H56.1339C55.8397 95.0341 55.5221 95.0341 55.228 95.0341H53.0986L49.9574 94.9988C43.228 94.8576 36.5103 94.4341 29.7809 93.7165C28.9646 93.629 28.1737 93.3803 27.4543 92.9847C26.7349 92.5892 26.1012 92.0546 25.5901 91.4121C25.0789 90.7697 24.7005 90.032 24.4768 89.2421C24.2531 88.4522 24.1885 87.6257 24.2868 86.8106L24.3574 86.1988C24.7524 82.9993 25.7745 79.909 27.3653 77.105C28.9561 74.301 31.0842 71.8382 33.628 69.8576C33.7574 69.7635 33.8868 69.6576 34.0162 69.5753C35.9574 68.1165 38.1221 66.94 40.4162 66.1165H40.4397C40.5691 66.0694 40.7103 66.0223 40.8397 65.987C42.6633 65.3518 44.5574 64.9635 46.5456 64.787C47.2397 64.7165 47.9456 64.6929 48.675 64.6929H60.4515C61.2397 64.6929 61.9692 64.7165 62.7103 64.7988H62.7221C64.6515 64.9753 66.5221 65.3753 68.3103 65.9753L68.8044 66.1518C71.0868 66.9753 73.2162 68.1282 75.1221 69.5753C75.275 69.6812 75.4397 69.7988 75.5927 69.9282C80.5221 73.7988 83.9456 79.5518 84.7809 86.1988L84.8515 86.8106C84.9486 87.6264 84.8828 88.4534 84.6579 89.2435C84.433 90.0337 84.0535 90.7714 83.5413 91.4138C83.0292 92.0562 82.3946 92.5905 81.6743 92.9858C80.9541 93.381 80.1626 93.6294 79.3456 93.7165Z" fill="#8A9BEA"/>
<path d="M54.9458 71.1176L46.6399 71.4047L43.8281 77.0553L54.0328 95.0341H55.2328L69.9728 75.4341L62.5258 71.1165L54.9458 71.1176Z" fill="white"/>
<path d="M62.218 58.5647V64.6353C62.218 68.8588 58.7944 72.2823 54.5709 72.2823H54.5662C52.538 72.2823 50.5928 71.4767 49.1585 70.0426C47.7242 68.6086 46.9183 66.6635 46.918 64.6353V58.5647H62.218Z" fill="#FEA9AD"/>
<path d="M62.4453 32.9741H70.8512V47.28H62.4453V32.9741Z" fill="#3A3A3A"/>
<path d="M67.1924 39.6824V50.5753C67.1924 57.54 61.5453 63.1871 54.5689 63.1871C51.0865 63.1871 47.9218 61.7753 45.6394 59.4929C44.4666 58.3232 43.5365 56.9331 42.9025 55.4027C42.2686 53.8724 41.9433 52.2318 41.9453 50.5753V39.6812C41.9453 38.716 42.3279 37.7901 43.0094 37.1065C43.6908 36.4228 44.6154 36.0372 45.5806 36.0341H63.5571C64.5223 36.0372 65.4469 36.4228 66.1283 37.1065C66.8098 37.7901 67.1924 38.7171 67.1924 39.6824Z" fill="#FFCECF"/>
<path d="M76.2616 25.6459C76.2441 28.3959 75.1454 31.0287 73.2028 32.9753C72.2336 33.9469 71.0819 34.7172 69.814 35.2422C68.5461 35.7671 67.1869 36.0363 65.8146 36.0341H45.6028C43.5793 36.0341 41.944 37.6812 41.944 39.693V47.2812H38.2852V35.4353C38.2852 28.5412 43.8616 22.9647 50.7557 22.9647H73.6263C75.0969 22.9647 76.2616 24.1753 76.2616 25.6459Z" fill="#3A3A3A"/>
<path d="M67.1878 43.62C67.6764 43.6076 68.1625 43.6932 68.6175 43.8716C69.0726 44.05 69.4873 44.3177 69.8372 44.6589C70.1872 45.0001 70.4653 45.4079 70.6552 45.8583C70.8451 46.3086 70.9429 46.7924 70.9429 47.2812C70.9429 47.7699 70.8451 48.2538 70.6552 48.7041C70.4653 49.1545 70.1872 49.5623 69.8372 49.9035C69.4873 50.2447 69.0726 50.5124 68.6175 50.6908C68.1625 50.8692 67.6764 50.9548 67.1878 50.9424V43.62ZM41.9466 43.62C41.458 43.6076 40.9718 43.6932 40.5168 43.8716C40.0618 44.05 39.6471 44.3177 39.2971 44.6589C38.9472 45.0001 38.669 45.4079 38.4791 45.8583C38.2892 46.3086 38.1914 46.7924 38.1914 47.2812C38.1914 47.7699 38.2892 48.2538 38.4791 48.7041C38.669 49.1545 38.9472 49.5623 39.2971 49.9035C39.6471 50.2447 40.0618 50.5124 40.5168 50.6908C40.9718 50.8692 41.458 50.9548 41.9466 50.9424V43.62ZM50.2278 56.4235C51.0772 56.3365 51.8372 56.3353 52.5807 56.3294L54.7654 56.3024C55.4866 56.2953 56.2101 56.2788 56.9619 56.2918C57.7125 56.2941 58.4795 56.3024 59.3266 56.4224C58.7007 57.0035 57.9666 57.3859 57.1948 57.6494C56.4194 57.9204 55.6044 58.0611 54.7831 58.0659C53.9572 58.0781 53.1354 57.9479 52.3536 57.6812C51.5736 57.42 50.8336 57.0271 50.2278 56.4235Z" fill="#FEA9AD"/>
<path d="M54.9449 71.1177L49.4296 75.7365L46.2238 78.44L46.2085 78.4565L40.4414 66.12C42.4063 65.4097 44.456 64.9608 46.5379 64.7847L54.9449 71.1177ZM68.8049 66.153L63.0532 78.4565L63.0379 78.44L59.8167 75.533L54.9461 71.1165L62.7085 64.7988H62.7238C64.8296 64.9883 66.872 65.4447 68.8061 66.1518L68.8049 66.153Z" fill="#D1DAFE"/>
<path d="M59.8257 75.5282L56.7199 78.94L58.061 87.587L57.6493 88.4694L54.5669 95.0223L51.4846 88.4694L51.0846 87.6223L52.3904 78.94L49.4375 75.74L54.9434 71.1165L59.8257 75.5165V75.5282Z" fill="#B53016"/>
<path d="M51.4862 88.4694L54.5686 95.0224H53.6392L50.8744 92.5047L36.9097 79.7635L38.145 74.7635L34.1568 69.8459L34.0156 69.5753C35.9568 68.1165 38.1215 66.94 40.4156 66.1165H40.4392C40.5686 66.0694 40.7097 66.0224 40.8392 65.9871L40.9568 66.1047H40.9803L46.7568 78.4341L51.4862 88.4694Z" fill="#255299"/>
<path d="M74.9782 69.8459L70.9899 74.7636L72.2252 79.7636L58.2605 92.5048L55.4958 95.0224H54.5664L57.6488 88.4695L62.3782 78.4342L68.1546 66.1048H68.1782L68.3076 65.9753L68.8017 66.1518C71.0841 66.9753 73.2135 68.1283 75.1193 69.5753L74.9782 69.8459Z" fill="#255299"/>
<path d="M42.9906 75.293V91.9989C42.9906 93.5989 41.6965 94.893 40.0965 94.893H23.2847C21.6847 94.893 20.3906 93.5989 20.3906 91.9989V70.7518C20.3906 69.1636 21.6847 67.8694 23.2847 67.8694H35.5553L42.9906 75.293Z" fill="#D1DAFE"/>
<path d="M42.99 75.293H37.4841C36.4135 75.293 35.5547 74.4224 35.5547 73.3636V67.8694L42.99 75.293Z" fill="#8A9BEA"/>
<path d="M24.1123 76.7859C24.0729 76.7455 24.042 76.6976 24.0214 76.6451C24.0008 76.5925 23.9909 76.5364 23.9923 76.48C23.9923 76.4306 24.0088 76.3659 24.0405 76.2906L26.4747 70.5447C26.5218 70.4345 26.5954 70.3375 26.6888 70.2624C26.7857 70.1878 26.9054 70.1491 27.0276 70.1529H27.1229C27.2451 70.1492 27.3648 70.1879 27.4617 70.2624C27.5547 70.3353 27.6264 70.4294 27.677 70.5447L30.1111 76.2906C30.1429 76.3659 30.1582 76.4306 30.1582 76.4812C30.1582 76.6024 30.1182 76.7047 30.0394 76.7871C29.9991 76.8282 29.9507 76.8605 29.8972 76.8818C29.8437 76.903 29.7863 76.9129 29.7288 76.9106C29.6394 76.9106 29.5582 76.8871 29.4853 76.8388C29.4123 76.7906 29.357 76.7259 29.3182 76.6435L28.6982 75.1541H25.4535L24.8323 76.6435C24.7966 76.7225 24.7391 76.7895 24.6666 76.8368C24.5941 76.8842 24.5095 76.9097 24.4229 76.9106C24.3653 76.9127 24.3079 76.9027 24.2544 76.8812C24.2009 76.8597 24.1525 76.8273 24.1123 76.7859ZM25.7876 74.3623H28.3641L27.0758 71.2588L25.7876 74.3623ZM30.4958 72.76C30.4717 72.7369 30.4526 72.7092 30.4396 72.6784C30.4267 72.6476 30.4202 72.6145 30.4205 72.5812V71.5106H29.3511C29.3185 71.5114 29.286 71.5056 29.2556 71.4934C29.2253 71.4813 29.1977 71.4631 29.1746 71.44C29.1515 71.4169 29.1334 71.3894 29.1212 71.359C29.1091 71.3287 29.1033 71.2962 29.1041 71.2635C29.1028 71.2299 29.1084 71.1964 29.1206 71.1651C29.1327 71.1337 29.1511 71.1052 29.1747 71.0812C29.2217 71.0329 29.2805 71.0094 29.3511 71.0094H30.4217V69.9388C30.4213 69.9053 30.4275 69.8721 30.4401 69.841C30.4527 69.81 30.4714 69.7818 30.4951 69.7581C30.5188 69.7344 30.547 69.7157 30.578 69.7031C30.6091 69.6905 30.6423 69.6842 30.6758 69.6847C30.7095 69.6836 30.7431 69.6894 30.7744 69.7017C30.8058 69.7141 30.8343 69.7327 30.8582 69.7565C30.9053 69.8035 30.9288 69.8647 30.9288 69.9388V71.0094H31.9935C32.0271 71.0081 32.0606 71.0138 32.0919 71.0259C32.1233 71.038 32.1519 71.0564 32.1758 71.08C32.1998 71.104 32.2185 71.1327 32.2308 71.1643C32.2432 71.1959 32.2489 71.2296 32.2476 71.2635C32.2476 71.2966 32.241 71.3293 32.2281 71.3597C32.2153 71.3902 32.1965 71.4177 32.1728 71.4408C32.1491 71.4638 32.121 71.4819 32.0902 71.4938C32.0594 71.5058 32.0265 71.5115 31.9935 71.5106H30.93V72.5812C30.9304 72.6147 30.9242 72.6479 30.9116 72.679C30.899 72.71 30.8803 72.7382 30.8566 72.7619C30.8329 72.7856 30.8047 72.8043 30.7736 72.8169C30.7426 72.8295 30.7093 72.8358 30.6758 72.8353C30.6423 72.8358 30.609 72.8293 30.578 72.8164C30.547 72.8034 30.5191 72.7842 30.4958 72.76Z" fill="#B53016"/>
<path d="M35.8543 80.3671C36.5837 79.9883 37.3107 79.9024 38.039 79.8871C38.7672 79.9 39.4955 79.9859 40.2237 80.3671C39.4943 80.7483 38.7672 80.8341 38.039 80.8471C37.3096 80.8318 36.5825 80.7459 35.8543 80.3671ZM23.1613 80.3671C24.9813 79.9883 26.8013 79.9024 28.6225 79.8871C30.4437 79.9 32.2637 79.9859 34.0849 80.3671C32.2637 80.7483 30.4437 80.8341 28.6225 80.8471C26.8013 80.8318 24.9813 80.7459 23.1613 80.3671ZM27.946 84.2718C29.9919 83.893 32.0378 83.8083 34.0849 83.7918C36.1307 83.8059 38.1766 83.8906 40.2237 84.2718C38.1766 84.653 36.1296 84.7388 34.0849 84.7518C32.0378 84.7365 29.9907 84.6518 27.946 84.2718ZM23.1613 84.2718C23.6743 83.893 24.1872 83.8083 24.7013 83.7918C25.2143 83.8059 25.7284 83.8906 26.2425 84.2718C25.7284 84.653 25.2143 84.7388 24.7013 84.7518C24.1872 84.7365 23.6755 84.6518 23.1613 84.2718ZM36.5754 88.1765C37.1837 87.7977 37.7907 87.713 38.399 87.6977C39.0072 87.7106 39.6154 87.7965 40.2225 88.1777C39.6154 88.5588 39.0072 88.6436 38.399 88.6577C37.7907 88.6412 37.1837 88.5553 36.5754 88.1765ZM23.1613 88.1765C25.0966 87.7977 27.0319 87.713 28.9672 87.6977C30.9025 87.7106 32.8378 87.7965 34.7731 88.1777C32.8378 88.5588 30.9025 88.6436 28.9672 88.6577C27.0319 88.6412 25.0966 88.5553 23.1613 88.1765ZM23.1613 92.0824C24.7555 91.7036 26.3496 91.6189 27.946 91.6024C29.5402 91.6165 31.1343 91.7012 32.7307 92.0824C31.1355 92.4636 29.5402 92.5494 27.946 92.5624C26.3507 92.5471 24.7555 92.4612 23.1613 92.0824Z" fill="#8A9BEA"/>
<path d="M78.3593 69.6871C76.9146 70.0047 75.471 70.1694 74.0263 70.2824C72.8216 70.3118 72.1087 71.3506 72.444 72.3447C72.7734 73.6824 73.2416 74.9765 73.8934 76.1624C74.5558 77.3447 75.4463 78.3953 76.6852 79.2118C75.2063 79.0036 73.8381 78.0459 72.9028 76.8306C71.9405 75.6177 71.3487 74.1765 70.9616 72.7212C70.7052 71.88 70.8958 70.7283 71.5452 70.0341C72.1522 69.313 73.2334 68.9541 74.0263 69.093C75.471 69.2059 76.9146 69.3718 78.3593 69.6871ZM88.0981 69.6871C89.5428 70.0047 90.9875 70.1694 92.431 70.2824C93.6369 70.3118 94.3487 71.3506 94.0134 72.3447C93.684 73.6824 93.2158 74.9765 92.564 76.1624C91.9016 77.3447 91.011 78.3953 89.7722 79.2118C91.251 79.0036 92.6193 78.0459 93.5546 76.8306C94.5181 75.6177 95.1087 74.1765 95.4958 72.7212C95.7522 71.88 95.5616 70.7283 94.9122 70.0341C94.3052 69.313 93.224 68.9541 92.431 69.093C90.9875 69.2059 89.5428 69.3718 88.0981 69.6871Z" fill="#E0860E"/>
<path d="M87.6839 90.2624H78.6992L80.6404 81.0718H85.7427L87.6839 90.2624Z" fill="#FA990E"/>
<path d="M89.1997 93.4588C89.1173 94.1165 88.6114 94.6459 87.9408 94.7282C84.7879 95.14 81.6349 95.14 78.4702 94.7282C77.8349 94.6459 77.3408 94.14 77.2349 93.5047C77.0195 92.291 77.0155 91.0492 77.2232 89.8341C77.3291 89.2223 77.8232 88.74 78.4349 88.6459C81.5879 88.1753 84.7761 88.1635 87.9761 88.6341C88.6232 88.7282 89.1173 89.2576 89.1997 89.9047C89.3526 91.0812 89.3526 92.2706 89.1997 93.4588Z" fill="#51504F"/>
<path d="M89.2035 93.4588C89.1094 94.1165 88.6153 94.6459 87.9564 94.7282C84.7917 95.14 81.6388 95.14 78.4858 94.7282C77.8388 94.6459 77.3447 94.1282 77.2388 93.5047C77.18 93.1635 77.1329 92.8223 77.1094 92.4929C78.4741 93.2929 80.3564 93.7753 82.4388 93.7753C85.5094 93.7753 88.1447 92.7282 89.2976 91.2106C89.3329 91.9635 89.2976 92.7059 89.2035 93.4588Z" fill="#3A3A3A"/>
<path d="M91.5808 82.693C88.6278 85.6459 77.8278 85.6459 74.8867 82.693C72.6043 80.4106 75.3808 71.3518 76.4984 68.0341C76.7455 67.293 77.4396 66.8106 78.2043 66.8106H88.2514C89.0278 66.8106 89.7102 67.293 89.9572 68.0341C91.0867 71.3518 93.8631 80.4106 91.5808 82.693Z" fill="#FBAD3E"/>
<path d="M79.1535 90.6318C80.4994 90.2906 81.8476 90.2141 83.1947 90.2C84.5418 90.2118 85.8888 90.2894 87.2359 90.6318C85.8888 90.9753 84.5418 91.0518 83.1947 91.0647C81.8476 91.0494 80.5018 90.973 79.1535 90.6318ZM79.1535 92.6871C80.4994 92.3459 81.8476 92.2694 83.1947 92.2541C84.5418 92.2659 85.8888 92.3435 87.2359 92.6871C85.8888 93.0294 84.5418 93.1071 83.1947 93.1188C81.8476 93.1047 80.5018 93.0282 79.1535 92.6871Z" fill="white"/>
<path d="M83.2288 80.7294C85.9181 80.7294 88.0982 78.5493 88.0982 75.86C88.0982 73.1707 85.9181 70.9906 83.2288 70.9906C80.5395 70.9906 78.3594 73.1707 78.3594 75.86C78.3594 78.5493 80.5395 80.7294 83.2288 80.7294Z" fill="#FA990E"/>
<path d="M88.1019 75.8612C88.1019 77.153 87.5887 78.3918 86.6753 79.3052C85.7619 80.2187 84.5231 80.7318 83.2313 80.7318C82.5236 80.7336 81.8242 80.5795 81.1827 80.2806C80.5413 79.9818 79.9734 79.5454 79.5195 79.0024C79.9431 79.0718 80.3936 79.1059 80.8431 79.1059C84.2431 79.1059 87.1066 77.2365 87.9631 74.7024C88.0501 75.0742 88.1019 75.4636 88.1019 75.8612Z" fill="#E0860E"/>
<path d="M85.2798 76.2588C85.2154 76.3205 85.1669 76.3967 85.1382 76.4811C85.1095 76.5654 85.1016 76.6555 85.115 76.7435L85.3139 77.8953C85.3315 77.9963 85.3204 78.1003 85.2819 78.1953C85.2434 78.2904 85.1791 78.3727 85.0961 78.433C85.0131 78.4933 84.9149 78.5291 84.8126 78.5364C84.7103 78.5437 84.608 78.5221 84.5174 78.4741L83.488 77.9294C83.4083 77.8871 83.3194 77.8649 83.2292 77.8649C83.1389 77.8649 83.05 77.8871 82.9703 77.9294L81.9398 78.4741C81.8491 78.5218 81.747 78.5431 81.6449 78.5356C81.5428 78.5282 81.4448 78.4924 81.362 78.4321C81.2793 78.3719 81.215 78.2897 81.1766 78.1948C81.1381 78.0999 81.127 77.9962 81.1445 77.8953L81.3339 76.7435C81.3509 76.6564 81.3456 76.5663 81.3185 76.4818C81.2913 76.3972 81.2432 76.3209 81.1786 76.26L80.348 75.4365C80.0186 75.1259 80.2009 74.5729 80.6503 74.5035L81.8009 74.3388C81.8898 74.3268 81.9742 74.2928 82.0467 74.2401C82.1192 74.1873 82.1775 74.1173 82.2162 74.0365L82.7362 72.9894C82.7822 72.8981 82.8526 72.8213 82.9396 72.7676C83.0267 72.714 83.1269 72.6855 83.2292 72.6855C83.3314 72.6855 83.4317 72.714 83.5187 72.7676C83.6057 72.8213 83.6762 72.8981 83.7221 72.9894L84.2409 74.0365C84.2797 74.1173 84.3379 74.1873 84.4104 74.2401C84.4829 74.2928 84.5674 74.3268 84.6562 74.3388L85.8068 74.5035C86.2574 74.5729 86.4386 75.1271 86.1103 75.4376L85.2798 76.2588Z" fill="white"/>
<path d="M85.284 76.2588C85.2196 76.3205 85.1711 76.3967 85.1424 76.4811C85.1138 76.5654 85.1058 76.6554 85.1193 76.7435L85.3181 77.8953C85.3357 77.9963 85.3246 78.1003 85.2862 78.1953C85.2477 78.2904 85.1833 78.3727 85.1003 78.433C85.0173 78.4933 84.9191 78.5291 84.8168 78.5364C84.7145 78.5436 84.6123 78.5221 84.5216 78.4741L83.4922 77.9294C83.4125 77.8871 83.3236 77.8649 83.2334 77.8649C83.1431 77.8649 83.0543 77.8871 82.9746 77.9294L81.944 78.4741C81.8534 78.5217 81.7512 78.5431 81.6491 78.5356C81.547 78.5282 81.449 78.4923 81.3662 78.4321C81.2835 78.3719 81.2192 78.2897 81.1808 78.1948C81.1423 78.0999 81.1312 77.9962 81.1487 77.8953L81.3298 76.8047C83.3287 76.7965 85.1016 76.0694 86.2698 74.9447C86.2893 75.0333 86.2852 75.1254 86.2579 75.2119C86.2307 75.2984 86.1813 75.3762 86.1146 75.4376L85.284 76.2588Z" fill="#D1DAFE"/>
<path d="M76.0952 56.48C76.1349 56.8736 76.3007 57.2439 76.5678 57.5358C76.8348 57.8276 77.189 58.0255 77.5775 58.1C77.9257 58.1741 78.2622 58.2377 78.6116 58.2871V59.7941C78.6116 60.4541 79.4093 60.8036 79.8822 60.3294L81.3905 58.86C81.4655 58.7907 81.5538 58.7373 81.65 58.7029C81.7463 58.6685 81.8485 58.6539 81.9505 58.66C84.6669 58.8224 87.4069 58.5988 90.1481 58.0494C90.501 57.9812 90.8243 57.806 91.0739 57.5474C91.3236 57.2889 91.4875 56.9598 91.5434 56.6047C92.1163 53.1412 92.0916 49.7647 91.5552 46.4518C91.4929 46.0867 91.3197 45.7497 91.0591 45.4866C90.7985 45.2235 90.4631 45.047 90.0987 44.9812C86.0116 44.2965 81.8387 44.2836 77.5893 44.9694C77.1959 45.0327 76.8347 45.2247 76.5622 45.5153C76.2897 45.8059 76.1213 46.1787 76.0834 46.5753C75.8069 49.8717 75.8108 53.1844 76.0952 56.48Z" fill="#3D5E2A"/>
<path d="M74.5534 56.6271C74.5932 57.0207 74.7589 57.391 75.026 57.6829C75.293 57.9747 75.6472 58.1726 76.0357 58.2471C76.384 58.3212 76.7204 58.3847 77.0698 58.4342V59.9412C77.0698 60.6012 77.8675 60.9506 78.3404 60.4765L79.8475 59.0071C79.9227 58.9376 80.0112 58.8841 80.1076 58.8497C80.2041 58.8154 80.3065 58.8009 80.4087 58.8071C83.124 58.9695 85.8651 58.7459 88.6063 58.1965C88.959 58.1284 89.2822 57.9533 89.5318 57.695C89.7815 57.4367 89.9455 57.1078 90.0016 56.753C90.5745 53.2906 90.5498 49.913 90.0134 46.6C89.951 46.2348 89.7776 45.8977 89.5168 45.6345C89.256 45.3714 88.9204 45.195 88.5557 45.1295C84.4698 44.4447 80.2969 44.4318 76.0475 45.1177C75.6539 45.1807 75.2925 45.3726 75.0197 45.6633C74.747 45.9539 74.5784 46.3268 74.5404 46.7236C74.2639 50.0199 74.2678 53.3338 74.5522 56.6295L74.5534 56.6271Z" fill="#AEC46E"/>
<path d="M74.3359 51.7318C74.3359 53.3506 74.3983 54.9706 74.5477 56.6271C74.5875 57.0207 74.7532 57.391 75.0203 57.6829C75.2874 57.9747 75.6415 58.1726 76.0301 58.2471C76.3783 58.3212 76.7148 58.3848 77.0642 58.4342V59.9412C77.0642 60.6012 77.8618 60.9506 78.3348 60.4765L79.8418 59.0071C79.917 58.9376 80.0055 58.8841 80.102 58.8497C80.1984 58.8154 80.3008 58.8009 80.403 58.8071C83.1183 58.9695 85.8595 58.7459 88.6006 58.1965C88.9533 58.1284 89.2765 57.9533 89.5262 57.695C89.7758 57.4367 89.9398 57.1078 89.9959 56.753C90.083 56.193 90.1701 55.6318 90.2195 55.0824C88.5253 55.8436 86.5454 56.2671 84.4148 56.2671C79.9912 56.2671 76.1548 54.4224 74.3359 51.7318Z" fill="#617F4D"/>
<path d="M87.5766 48.0636C86.7095 47.7977 85.8425 47.6589 84.9766 47.5647C84.1126 47.4676 83.2437 47.4201 82.3742 47.4224C81.5072 47.4224 80.6401 47.4612 79.7742 47.5636C78.906 47.6565 78.0389 47.7965 77.1719 48.0636C78.0389 48.3306 78.906 48.4694 79.773 48.5636C80.6401 48.6659 81.5072 48.7047 82.3742 48.7047C83.2433 48.707 84.1118 48.6594 84.9754 48.5624C85.8425 48.4683 86.7095 48.3283 87.5766 48.0636ZM87.5766 51.3636C86.7095 51.0977 85.8425 50.9588 84.9766 50.8647C84.1126 50.7676 83.2437 50.7201 82.3742 50.7224C81.5072 50.7224 80.6401 50.7612 79.7742 50.8636C78.906 50.9577 78.0389 51.0965 77.1719 51.3636C78.0389 51.6306 78.906 51.7706 79.773 51.8636C80.6401 51.9659 81.5072 52.0047 82.3742 52.0047C83.2433 52.007 84.1118 51.9594 84.9754 51.8624C85.8425 51.7683 86.7095 51.6294 87.5766 51.3636ZM82.4107 54.6647C82.006 54.4248 81.5631 54.2561 81.1013 54.1659C80.6715 54.0694 80.2323 54.0217 79.7919 54.0236C79.3554 54.0236 78.9178 54.0624 78.4813 54.1647C78.046 54.2588 77.6083 54.3977 77.1719 54.6647C77.6083 54.9318 78.0448 55.0718 78.4813 55.1659C78.9178 55.2671 79.3554 55.3047 79.7919 55.3071C80.2324 55.3086 80.6716 55.2604 81.1013 55.1636C81.5378 55.0694 81.9742 54.9306 82.4107 54.6647Z" fill="white"/>
<path d="M47.6009 47.6353C48.3858 47.6353 49.022 46.8015 49.022 45.7729C49.022 44.7444 48.3858 43.9106 47.6009 43.9106C46.816 43.9106 46.1797 44.7444 46.1797 45.7729C46.1797 46.8015 46.816 47.6353 47.6009 47.6353Z" fill="#3A3A3A"/>
<path d="M61.5306 47.6353C62.3154 47.6353 62.9517 46.8015 62.9517 45.7729C62.9517 44.7444 62.3154 43.9106 61.5306 43.9106C60.7457 43.9106 60.1094 44.7444 60.1094 45.7729C60.1094 46.8015 60.7457 47.6353 61.5306 47.6353Z" fill="#3A3A3A"/>
<path d="M45.1484 42.9059C45.659 42.0694 46.6567 41.6659 47.612 41.6824C48.5708 41.7188 49.4931 42.1177 50.0626 42.9059C49.092 42.9647 48.3402 42.8612 47.5861 42.8588C46.8296 42.8247 46.1202 42.8894 45.1484 42.9059ZM59.0779 42.9059C59.5873 42.0694 60.5861 41.6659 61.5414 41.6824C62.5002 41.7188 63.4214 42.1177 63.992 42.9059C63.0202 42.9647 62.2696 42.8612 61.5155 42.8588C60.759 42.8247 60.0484 42.8894 59.0779 42.9059Z" fill="#FEA9AD"/>
<defs>
<filter id="filter0_f_547_224" x="0" y="0.000488281" width="118" height="118" filterUnits="userSpaceOnUse" color-interpolation-filters="sRGB">
<feFlood flood-opacity="0" result="BackgroundImageFix"/>
<feBlend mode="normal" in="SourceGraphic" in2="BackgroundImageFix" result="shape"/>
<feGaussianBlur stdDeviation="2" result="effect1_foregroundBlur_547_224"/>
</filter>
</defs>
</svg>
