<svg width="118" height="118" viewBox="0 0 118 118" fill="none" xmlns="http://www.w3.org/2000/svg">
<g filter="url(#filter0_f_547_226)">
<path d="M4 29.0005C4 15.1934 15.1929 4.00049 29 4.00049H89C102.807 4.00049 114 15.1934 114 29.0005V89.0005C114 102.808 102.807 114 89 114H4V29.0005Z" fill="white" fill-opacity="0.5"/>
</g>
<path d="M4 29.0005C4 15.1934 15.1929 4.00049 29 4.00049H89C102.807 4.00049 114 15.1934 114 29.0005V89.0005C114 102.808 102.807 114 89 114H4V29.0005Z" fill="#51B59F"/>
<g style="mix-blend-mode:overlay">
<mask id="mask0_547_226" style="mask-type:alpha" maskUnits="userSpaceOnUse" x="4" y="4" width="110" height="110">
<rect x="4" y="4" width="110" height="110" rx="25" fill="url(#paint0_linear_547_226)"/>
</mask>
<g mask="url(#mask0_547_226)">
<path opacity="0.3" d="M4 4H114V114L56.25 60.1L4 4Z" fill="#FD7979"/>
</g>
</g>
<path d="M32.9781 47.3791L21.1228 57.5698C21.0941 57.5945 21.071 57.6251 21.0552 57.6595C21.0394 57.694 21.0312 57.7314 21.0313 57.7693V59.698C21.0312 59.7425 21.0425 59.7862 21.0639 59.8251C21.0854 59.864 21.1163 59.8969 21.1539 59.9206C21.1915 59.9443 21.2345 59.9581 21.2788 59.9607C21.3232 59.9633 21.3675 59.9546 21.4076 59.9354L32.9782 54.4184L36.7661 53.6701L38.0604 59.0361L40.802 59.8045L48.5671 65.158L50.3936 71.006L52.4155 76.1131L55.9305 74.9958L54.8653 71.0058L51.8574 59.8853C51.7651 59.5443 51.5791 59.2361 51.3203 58.9957L40.802 49.2235L35.2486 45.5639L32.9781 47.3791Z" fill="#CFEFFC"/>
<path d="M67.1809 38.47H88.4216V25.4194H67.1809C67.0368 25.4194 66.938 25.5648 66.9911 25.6987L69.4338 31.8696C69.4529 31.9179 69.4529 31.9716 69.4338 32.0198L66.9911 38.1907C66.9789 38.2217 66.9743 38.2552 66.978 38.2883C66.9816 38.3214 66.9933 38.3531 67.012 38.3807C67.0307 38.4082 67.0559 38.4307 67.0853 38.4463C67.1148 38.4619 67.1476 38.47 67.1809 38.47Z" fill="#EA9A98"/>
<path d="M89.0451 58.4961H84.8203V23.8804C84.8203 23.6613 84.9073 23.4512 85.0623 23.2963C85.2172 23.1414 85.4273 23.0543 85.6464 23.0543H88.219C88.4381 23.0543 88.6482 23.1414 88.8031 23.2963C88.958 23.4512 89.0451 23.6613 89.0451 23.8804V58.4961Z" fill="#B3ADB5"/>
<path d="M96.2794 94.9457H77.5793C76.7265 94.9457 76.0352 94.2543 76.0352 93.4016V88.5099C76.0352 87.6572 76.7265 86.9658 77.5793 86.9658H96.2794C97.1321 86.9658 97.8234 87.6572 97.8234 88.5099V93.4016C97.8234 94.2543 97.1321 94.9457 96.2794 94.9457Z" fill="#DE6A66"/>
<path d="M96.2794 86.9659H77.5793C76.7265 86.9659 76.0352 86.2745 76.0352 85.4218V80.5301C76.0352 79.6774 76.7265 78.986 77.5793 78.986H96.2794C97.1321 78.986 97.8234 79.6774 97.8234 80.5301V85.4218C97.8234 86.2745 97.1321 86.9659 96.2794 86.9659Z" fill="#E5827F"/>
<path d="M96.2794 78.986H77.5793C76.7265 78.986 76.0352 78.2946 76.0352 77.4419V72.5503C76.0352 71.6975 76.7265 71.0062 77.5793 71.0062H96.2794C97.1321 71.0062 97.8234 71.6975 97.8234 72.5503V77.4419C97.8234 78.2946 97.1321 78.986 96.2794 78.986Z" fill="#EA9A98"/>
<path d="M96.2794 71.0062H77.5793C76.7265 71.0062 76.0352 70.3148 76.0352 69.4621V64.5704C76.0352 63.7177 76.7265 63.0263 77.5793 63.0263H96.2794C97.1321 63.0263 97.8234 63.7177 97.8234 64.5704V69.4621C97.8234 70.3148 97.1321 71.0062 96.2794 71.0062Z" fill="#EFB4B2"/>
<path d="M96.2794 63.0263H77.5793C76.7265 63.0263 76.0352 62.3349 76.0352 61.4822V56.5905C76.0352 55.7378 76.7265 55.0464 77.5793 55.0464H96.2794C97.1321 55.0464 97.8234 55.7378 97.8234 56.5905V61.4822C97.8234 62.3349 97.1321 63.0263 96.2794 63.0263Z" fill="#F3C9C7"/>
<path d="M68.3495 94.9457H49.6496C48.7968 94.9457 48.1055 94.2543 48.1055 93.4016V88.5099C48.1055 87.6572 48.7968 86.9658 49.6496 86.9658H68.3497C69.2024 86.9658 69.8938 87.6572 69.8938 88.5099V93.4016C69.8938 94.2543 69.2024 94.9457 68.3495 94.9457Z" fill="#FBE372"/>
<path d="M68.3495 86.9659H49.6496C48.7968 86.9659 48.1055 86.2745 48.1055 85.4218V80.5301C48.1055 79.6774 48.7968 78.986 49.6496 78.986H68.3497C69.2024 78.986 69.8938 79.6774 69.8938 80.5301V85.4218C69.8938 86.2745 69.2024 86.9659 68.3495 86.9659Z" fill="#FBE88C"/>
<path d="M68.3495 78.986H49.6496C48.7968 78.986 48.1055 78.2946 48.1055 77.4419V72.5503C48.1055 71.6975 48.7968 71.0062 49.6496 71.0062H68.3497C69.2024 71.0062 69.8938 71.6975 69.8938 72.5503V77.4419C69.8938 78.2946 69.2024 78.986 68.3495 78.986Z" fill="#FCF0B6"/>
<path d="M43.9398 52.1375L40.8038 49.2238L35.2504 45.5642L32.9799 47.379L29.8438 50.0748V55.9139L32.9799 54.4186L36.7678 53.6701L38.0621 59.0363L40.8038 59.8047L43.9398 61.9669V52.1375Z" fill="#A9E4F9"/>
<path d="M33.3875 78.986L40.617 66.5898C40.7401 66.3788 40.8049 66.1389 40.8049 65.8946V45.5396L50.9456 35.0977C51.0237 35.0173 51.0673 34.9097 51.0672 34.7977V32.5513C51.0672 32.2024 50.6738 31.9983 50.3887 32.1995L34.1399 43.659C33.7818 43.9115 33.4897 44.2464 33.288 44.6354C33.0863 45.0244 32.9811 45.4561 32.9811 45.8943V65.4123C32.9811 65.5079 32.9712 65.6034 32.9514 65.6971L30.2377 78.562L29.5703 82.3232H31.7965L33.3875 78.986Z" fill="#CFEFFC"/>
<path d="M35.25 41.7765C37.9165 41.7765 40.0782 39.6149 40.0782 36.9484C40.0782 34.2819 37.9165 32.1202 35.25 32.1202C32.5835 32.1202 30.4219 34.2819 30.4219 36.9484C30.4219 39.6149 32.5835 41.7765 35.25 41.7765Z" fill="#CFEFFC"/>
<path d="M40.42 94.9457H21.7199C20.8672 94.9457 20.1758 94.2543 20.1758 93.4016V88.5099C20.1758 87.6572 20.8672 86.9658 21.7199 86.9658H40.42C41.2727 86.9658 41.9641 87.6572 41.9641 88.5099V93.4016C41.9641 94.2543 41.2727 94.9457 40.42 94.9457Z" fill="#9DE5D1"/>
<path d="M40.42 86.9659H21.7199C20.8672 86.9659 20.1758 86.2745 20.1758 85.4218V80.5301C20.1758 79.6774 20.8672 78.986 21.7199 78.986H40.42C41.2727 78.986 41.9641 79.6774 41.9641 80.5301V85.4218C41.9641 86.2745 41.2727 86.9659 40.42 86.9659Z" fill="#B6EBDD"/>
<path d="M77.5795 86.9658C76.7267 86.9658 76.0354 87.6572 76.0354 88.5099V93.4016C76.0354 94.2543 76.7267 94.9457 77.5795 94.9457H96.2796C97.1323 94.9457 97.8236 94.2543 97.8236 93.4016V88.5099C97.8236 87.6572 97.1323 86.9658 96.2796 86.9658M77.5795 86.9658H96.2796M77.5795 86.9658C76.7267 86.9658 76.0354 86.2745 76.0354 85.4217V80.5301C76.0354 79.6774 76.7267 78.986 77.5795 78.986M96.2796 86.9658C97.1323 86.9658 97.8236 86.2745 97.8236 85.4217V80.5301C97.8236 79.6774 97.1323 78.986 96.2796 78.986M77.5795 78.986H96.2796M77.5795 78.986C76.7267 78.986 76.0354 78.2946 76.0354 77.4419V72.5502C76.0354 71.6975 76.7267 71.0061 77.5795 71.0061M96.2796 78.986C97.1323 78.986 97.8236 78.2946 97.8236 77.4419V72.5502C97.8236 71.6975 97.1323 71.0061 96.2796 71.0061M77.5795 71.0061H96.2796M77.5795 71.0061C76.7267 71.0061 76.0354 70.3148 76.0354 69.462V64.5704C76.0354 63.7177 76.7267 63.0263 77.5795 63.0263M96.2796 71.0061C97.1323 71.0061 97.8236 70.3148 97.8236 69.462V64.5704C97.8236 63.7177 97.1323 63.0263 96.2796 63.0263M77.5795 63.0263H96.2796M77.5795 63.0263C76.7267 63.0263 76.0354 62.3349 76.0354 61.4822V56.5905C76.0354 55.7378 76.7267 55.0464 77.5795 55.0464H96.2796C97.1323 55.0464 97.8236 55.7378 97.8236 56.5905V61.4822C97.8236 62.3349 97.1323 63.0263 96.2796 63.0263M49.6497 86.9658C48.797 86.9658 48.1056 87.6572 48.1056 88.5099V93.4016C48.1056 94.2543 48.797 94.9457 49.6497 94.9457H68.3497C69.2026 94.9457 69.8939 94.2543 69.8939 93.4016V88.5099C69.8939 87.6572 69.2026 86.9658 68.3498 86.9658H49.6497ZM49.6497 86.9658H68.3497C69.2026 86.9658 69.8939 86.2745 69.8939 85.4217V80.5301C69.8939 79.6774 69.2026 78.986 68.3498 78.986H49.6497C48.797 78.986 48.1056 79.6774 48.1056 80.5301V85.4217C48.1056 86.2745 48.797 86.9658 49.6497 86.9658ZM21.7199 86.9658C20.8672 86.9658 20.1758 87.6572 20.1758 88.5099V93.4016C20.1758 94.2543 20.8672 94.9457 21.7199 94.9457H40.42C41.2727 94.9457 41.9641 94.2543 41.9641 93.4016V88.5099C41.9641 87.6572 41.2727 86.9658 40.42 86.9658M21.7199 86.9658H40.42M21.7199 86.9658C20.8672 86.9658 20.1758 86.2745 20.1758 85.4217V80.5301C20.1758 79.6774 20.8672 78.986 21.7199 78.986H40.42C41.2727 78.986 41.9641 79.6774 41.9641 80.5301V85.4217C41.9641 86.2745 41.2727 86.9658 40.42 86.9658M33.3855 78.986L40.615 66.5898C40.7381 66.3788 40.803 66.1389 40.8029 65.8946V45.5396L50.9436 35.0977C51.0217 35.0173 51.0653 34.9097 51.0653 34.7977V32.5513C51.0653 32.2024 50.6718 31.9983 50.3867 32.1995L34.1379 43.659C33.7798 43.9115 33.4877 44.2464 33.286 44.6354C33.0843 45.0244 32.9791 45.4561 32.9791 45.8943V65.4123C32.9791 65.5079 32.9692 65.6034 32.9494 65.6971L30.2357 78.562" stroke="black" stroke-width="2.35213" stroke-miterlimit="10" stroke-linecap="round" stroke-linejoin="round"/>
<path d="M40.8019 49.2237L51.3202 58.9959C51.5789 59.2363 51.765 59.5445 51.8572 59.8854L54.8651 71.006M40.8019 59.8047L48.5669 65.1581L50.3934 71.0062M32.9781 47.3792L21.1228 57.5698C21.0941 57.5945 21.071 57.6251 21.0552 57.6596C21.0394 57.694 21.0312 57.7314 21.0313 57.7693V59.6981C21.0312 59.7425 21.0425 59.7862 21.0639 59.8251C21.0854 59.8641 21.1163 59.8969 21.1539 59.9206C21.1915 59.9443 21.2345 59.9581 21.2788 59.9607C21.3232 59.9633 21.3675 59.9546 21.4076 59.9355L32.9782 54.4185" stroke="black" stroke-width="2.35213" stroke-miterlimit="10" stroke-linecap="round" stroke-linejoin="round"/>
<path d="M35.25 41.7765C37.9165 41.7765 40.0782 39.6149 40.0782 36.9484C40.0782 34.2819 37.9165 32.1202 35.25 32.1202C32.5835 32.1202 30.4219 34.2819 30.4219 36.9484C30.4219 39.6149 32.5835 41.7765 35.25 41.7765Z" stroke="black" stroke-width="2.35213" stroke-miterlimit="10" stroke-linecap="round" stroke-linejoin="round"/>
<path d="M84.8171 38.47H67.183C67.1497 38.47 67.1169 38.4619 67.0875 38.4463C67.058 38.4307 67.0328 38.4082 67.0141 38.3806C66.9954 38.3531 66.9837 38.3214 66.9801 38.2883C66.9765 38.2552 66.981 38.2217 66.9933 38.1907L69.4359 32.0198C69.455 31.9716 69.455 31.9179 69.4359 31.8696L66.9933 25.6987C66.981 25.6678 66.9765 25.6343 66.9802 25.6012C66.9838 25.5681 66.9955 25.5364 67.0142 25.5089C67.0329 25.4813 67.0581 25.4588 67.0875 25.4432C67.1169 25.4276 67.1497 25.4195 67.183 25.4194H84.8171M58.9998 71.0061H49.6496C48.7968 71.0061 48.1055 71.6975 48.1055 72.5502V77.4419C48.1055 78.2946 48.7968 78.986 49.6496 78.986H68.3497C69.2024 78.986 69.8938 78.2946 69.8938 77.4419V72.5502C69.8938 71.6975 69.2024 71.0061 68.3497 71.0061H64.0117M89.0419 55.0463V47.9366" stroke="black" stroke-width="2.35213" stroke-miterlimit="10" stroke-linecap="round" stroke-linejoin="round"/>
<path d="M89.0451 42.9247V23.8804C89.0451 23.6613 88.958 23.4512 88.8031 23.2963C88.6482 23.1414 88.4381 23.0543 88.219 23.0543H85.6464C85.5379 23.0543 85.4305 23.0757 85.3302 23.1172C85.23 23.1587 85.1389 23.2195 85.0622 23.2962C84.9855 23.3729 84.9247 23.464 84.8831 23.5642C84.8416 23.6645 84.8203 23.7719 84.8203 23.8804V55.0463" stroke="black" stroke-width="2.35213" stroke-miterlimit="10" stroke-linecap="round" stroke-linejoin="round"/>
<defs>
<filter id="filter0_f_547_226" x="0" y="0.000488281" width="118" height="118" filterUnits="userSpaceOnUse" color-interpolation-filters="sRGB">
<feFlood flood-opacity="0" result="BackgroundImageFix"/>
<feBlend mode="normal" in="SourceGraphic" in2="BackgroundImageFix" result="shape"/>
<feGaussianBlur stdDeviation="2" result="effect1_foregroundBlur_547_226"/>
</filter>
<linearGradient id="paint0_linear_547_226" x1="6.55814" y1="56.1053" x2="110.163" y2="56.1053" gradientUnits="userSpaceOnUse">
<stop stop-color="#07569E"/>
<stop offset="1" stop-color="#0093DD"/>
</linearGradient>
</defs>
</svg>
