<svg width="153" height="129" viewBox="0 0 153 129" fill="none" xmlns="http://www.w3.org/2000/svg">
<path d="M71.4551 4.29452C68.4954 4.8342 65.5357 5.37387 62.5759 5.91354C62.2177 5.97921 61.861 6.04346 61.5028 6.10913C61.136 6.17623 60.7036 6.34328 60.4025 6.04203C60.1856 5.82502 60.0429 5.47809 59.8888 5.21396C59.6847 4.86846 59.4821 4.52153 59.278 4.17602C58.4974 2.84969 57.7182 1.52336 56.9376 0.19702C56.7906 -0.0528278 56.3825 -0.0770988 56.2426 0.19702C55.168 2.30574 54.416 4.55294 53.9779 6.87581C50.8369 8.12933 47.6959 9.38428 44.5564 10.6378C44.2225 10.772 44.1283 11.3202 44.5564 11.4145C47.382 12.0341 50.2646 12.3311 53.1559 12.3225C51.6803 15.6533 50.4059 19.0698 49.3656 22.562C49.28 22.8489 49.5697 23.1516 49.8608 23.0574C52.1869 22.3093 53.6611 20.3333 55.1609 18.5287C55.5505 18.0604 55.9458 17.5978 56.3711 17.1624C56.6365 16.8897 56.9476 16.5328 57.35 16.4885C57.7068 16.45 58.1007 16.627 58.426 16.7555C59.6519 17.2424 60.7507 17.999 61.9124 18.6158C63.1411 19.2668 64.4668 19.7694 65.8782 19.6109C66.1165 19.5838 66.362 19.3725 66.2663 19.1012C65.3987 16.6413 64.3027 14.2713 63.0012 12.0127C66.4404 10.3723 69.4844 7.95943 71.8519 4.96983C72.0988 4.65002 71.869 4.21886 71.4551 4.29452Z" fill="#E6E89F"/>
<path d="M13.6505 60.8644C19.5914 57.702 27.2547 57.5706 32.5548 61.651C31.5759 53.5017 37.7465 45.1368 45.818 43.6705C53.8895 42.2043 62.606 47.8637 64.5539 55.836C64.0074 45.5408 70.208 35.3171 79.3911 30.6399C88.5743 25.9628 100.216 26.8451 108.854 32.4688C118.059 38.4609 122.921 48.7589 123.496 59.3995C130.46 59.9977 136.793 61.661 142.192 66.3853C151.736 74.7373 157.118 89.6668 149.119 101.729C142.133 112.263 128.726 114.583 118.173 110.587C113.938 120.164 104.211 126.085 94.2155 128.028C84.9595 129.827 71.9861 129.453 64.0131 124.072C58.0522 120.048 53.9109 113.429 52.8991 106.307C43.8558 109.161 34.3287 111.231 24.9229 110.02C14.5809 108.688 2.47229 102.262 0.418739 91.1745C-1.41789 81.2619 2.9161 68.8923 10.8905 62.6518C11.7525 61.9808 12.6787 61.3812 13.6505 60.8644Z" fill="#FFCB0F"/>
<path d="M123.519 79.7057C122.416 76.719 120.334 74.0178 117.491 72.5844C114.649 71.1509 111.028 71.1409 108.391 72.9241C105.754 74.7073 104.415 78.368 105.644 81.3062" stroke="#1B0512" stroke-width="2" stroke-miterlimit="10" stroke-linecap="round"/>
<path d="M83.0248 85.6964C78.7764 89.2899 71.8837 89.2185 67.7109 85.5379" stroke="#1B0512" stroke-width="2" stroke-miterlimit="10" stroke-linecap="round"/>
<path d="M42.904 85.7749C43.5719 83.5163 42.8041 80.9821 41.2658 79.2003C39.726 77.4171 37.5083 76.3235 35.2179 75.7738C33.1857 75.287 30.8625 75.2527 29.2042 76.5248C26.5998 78.5207 26.9166 82.4669 27.4903 85.6992" stroke="#1B0512" stroke-width="2" stroke-miterlimit="10" stroke-linecap="round"/>
<path d="M111.148 107.597C109.004 112.639 104.699 116.558 99.4672 118.247C98.7337 118.484 98.3812 119.399 98.6466 120.091C98.9363 120.845 99.754 121.15 100.49 120.912C106.391 119.008 111.33 114.463 113.755 108.758C114.474 107.07 111.868 105.904 111.148 107.597Z" fill="white"/>
<path d="M86.7548 119.12C85.3592 119.367 83.9621 119.613 82.5664 119.86C82.1982 119.926 81.8628 120.077 81.6202 120.372C81.3948 120.646 81.2492 121.079 81.3049 121.436C81.4176 122.16 82.094 122.837 82.8803 122.698C84.276 122.451 85.6731 122.206 87.0688 121.959C87.437 121.893 87.7723 121.742 88.0149 121.446C88.2404 121.172 88.386 120.739 88.3303 120.382C88.2176 119.659 87.5411 118.982 86.7548 119.12Z" fill="white"/>
<path d="M75.9391 39.6273C75.2027 39.2989 74.4064 39.6616 74.0554 40.3511C72.1288 44.1288 70.98 48.3049 70.7146 52.5366C70.6661 53.3061 71.1028 54.0385 71.9133 54.1613C72.6254 54.2698 73.4888 53.7358 73.5373 52.962C73.7885 48.9545 74.8388 45.0897 76.6626 41.5119C77.0122 40.8251 76.6169 39.93 75.9391 39.6273Z" fill="white"/>
<path d="M84.3008 40.1584C84.1753 39.8314 83.8799 39.4959 83.5488 39.366C83.2049 39.2304 82.8053 39.1861 82.4571 39.3375C82.1246 39.4817 81.7906 39.7358 81.6651 40.0899C81.2541 41.2406 80.8431 42.3899 80.4335 43.5406C80.3051 43.9018 80.2637 44.2645 80.405 44.6328C80.5305 44.9597 80.8259 45.2953 81.157 45.4252C81.5009 45.5608 81.8991 45.6051 82.2487 45.4537C82.5812 45.3095 82.9137 45.0554 83.0407 44.7013C83.4517 43.5506 83.8627 42.4013 84.2723 41.2506C84.4007 40.8894 84.4407 40.5267 84.3008 40.1584Z" fill="white"/>
<path d="M53.5707 51.6714C51.6256 48.8631 47.998 47.3083 44.6245 47.9137C43.8909 48.045 43.2388 48.6932 43.3629 49.4899C43.4742 50.2123 44.1521 50.8933 44.9384 50.7519C45.2695 50.692 45.602 50.652 45.9373 50.6377C46.0301 50.6334 46.1229 50.6363 46.2171 50.632C46.2256 50.632 46.2285 50.6334 46.2385 50.6334C46.4054 50.6449 46.5724 50.6549 46.7394 50.6748C47.0733 50.7134 47.4029 50.7748 47.7283 50.8562C47.774 50.8676 47.8011 50.8704 47.8239 50.8719C47.8725 50.889 47.921 50.9104 47.9524 50.9204C48.1293 50.9804 48.3034 51.046 48.4761 51.1174C48.7872 51.2474 49.084 51.4015 49.3794 51.5614C49.4237 51.5857 49.4479 51.5957 49.4579 51.5986C49.5036 51.6314 49.5478 51.6685 49.5749 51.6871C49.7134 51.7813 49.8489 51.8813 49.9817 51.984C50.1286 52.0983 50.2714 52.2196 50.4084 52.3453C50.464 52.3952 50.5182 52.4466 50.571 52.498C50.5825 52.5094 50.6267 52.5537 50.6666 52.5922C50.6952 52.6237 50.7323 52.6622 50.7409 52.6736C50.8022 52.7436 50.8622 52.815 50.9207 52.8878C51.0377 53.0334 51.1476 53.1833 51.2546 53.3375C51.6799 53.9514 52.6474 54.1342 53.2468 53.6645C53.8618 53.179 54.026 52.3267 53.5707 51.6714Z" fill="white"/>
<path d="M16.8741 66.0954C10.0342 68.5825 5.42908 75.494 5.55323 82.731C5.56608 83.502 6.41375 84.0731 7.12871 83.9931C7.95356 83.9017 8.40451 83.1908 8.39024 82.4169C8.28892 76.4563 12.3361 70.7826 17.8959 68.761C19.627 68.1328 18.6009 65.4673 16.8741 66.0954Z" fill="white"/>
<path d="M144.047 89.5483C143.213 89.4598 142.623 89.9695 142.423 90.7476C141.915 92.715 141.407 94.6838 140.899 96.6511C140.712 97.3764 141.385 98.2002 142.098 98.2759C142.931 98.3644 143.522 97.8533 143.722 97.0766C144.23 95.1078 144.738 93.1404 145.246 91.1716C145.433 90.4478 144.759 89.624 144.047 89.5483Z" fill="white"/>
<path d="M122.739 88.7959C121.825 87.4424 120.093 86.9028 118.54 86.7957C116.25 86.6386 113.889 86.9213 111.642 87.3482C111.081 87.4553 110.612 87.8265 110.442 88.3405C109.988 88.6403 109.633 89.0772 109.384 89.5554C109.22 89.871 109.142 90.2136 109.097 90.5634C108.612 91.1331 108.675 92.1039 109.266 92.5622C109.333 92.6136 109.406 92.645 109.473 92.695C109.534 92.8035 109.597 92.9105 109.668 93.0091C109.885 93.3103 110.248 93.533 110.614 93.5887C110.739 93.6073 110.88 93.5873 111.017 93.5701C113.967 94.8551 117.383 94.294 120.441 93.3174C121.339 93.0305 122.333 92.7806 122.914 91.974C123.614 91.0017 123.369 89.7325 122.739 88.7959Z" fill="#FFA649"/>
<path d="M46.9249 95.2134C45.9388 92.6793 43.2916 91.8183 40.8071 91.5685C39.0004 91.3872 37.1595 91.2544 35.4342 91.697C34.3168 91.9326 33.2279 92.3337 32.2104 92.8963C31.3099 93.3945 31.5811 94.5724 32.1362 95.1592C35.771 99.0011 41.5078 98.45 46.1043 97.058C46.8393 96.8353 47.1889 95.8916 46.9249 95.2134Z" fill="#FFA649"/>
</svg>
