<svg width="31" height="25" viewBox="0 0 31 25" fill="none" xmlns="http://www.w3.org/2000/svg">
<path d="M0.3125 0.645508H13.4287V12.3525C13.4528 15.9658 12.3086 18.7601 9.99609 20.7354C8.04492 22.3975 5.44336 23.7103 2.19141 24.6738L0.348633 20.7715C3.40788 19.6393 5.22656 18.3024 5.80469 16.7607C6.09375 16.0381 6.22624 15.1709 6.20215 14.1592H0.3125V0.645508ZM17.6201 0.645508H30.7363V12.3525C30.7363 15.9658 29.5801 18.7601 27.2676 20.7354C25.3164 22.3975 22.7269 23.7103 19.499 24.6738L17.6924 20.7715C20.7035 19.5911 22.498 18.2542 23.0762 16.7607C23.3652 16.0381 23.5098 15.1709 23.5098 14.1592H17.6201V0.645508Z" fill="#F5CE94"/>
</svg>
