<?xml version="1.0" encoding="utf-8"?>
<!-- Generator: Adobe Illustrator 26.0.1, SVG Export Plug-In . SVG Version: 6.00 Build 0)  -->
<svg version="1.1" id="Layer_1" xmlns="http://www.w3.org/2000/svg" xmlns:xlink="http://www.w3.org/1999/xlink" x="0px" y="0px"
	 viewBox="0 0 1000 1000" style="enable-background:new 0 0 1000 1000;" xml:space="preserve">
<style type="text/css">
	.st0{fill:#FC7186;}
	.st1{opacity:0.7;fill:#E55A75;}
	.st2{fill:#FFFFFF;}
	.st3{fill:#6289CC;}
	.st4{fill:#4A6BB2;}
	.st5{fill:#EBF0F4;}
	.st6{fill:#3C58A0;}
	.st7{fill:#4ABA9F;}
	.st8{fill:#3FAF9A;}
	.st9{fill:#58CCB0;}
	.st10{fill:#FFE077;}
	.st11{fill:#D8E3EA;}
</style>
<g>
	<polygon class="st0" points="493.25,965.21 596.65,786.13 389.86,786.13 	"/>
	<path class="st0" d="M904.52,99.14v693.36c0,20.76-16.83,37.55-37.55,37.55H133.03c-20.76,0-37.55-16.79-37.55-37.55V99.14
		c0-20.72,16.79-37.55,37.55-37.55h733.94C887.7,61.59,904.52,78.42,904.52,99.14z"/>
	<path class="st1" d="M904.52,556.49v236.02c0,20.76-16.83,37.55-37.55,37.55H133.03c-20.76,0-37.55-16.79-37.55-37.55V309.24
		C260.83,557.82,540.26,816.29,904.52,556.49z"/>
	<g>
		<path class="st2" d="M207.55,249.3H195.8v-14.18c0-5.48-1.71-8.22-5.12-8.22c-1.12,0-2.17,0.48-3.15,1.43
			c-0.98,0.95-1.9,2.11-2.77,3.48c-0.87,1.37-1.85,2.76-2.94,4.15s-2.59,2.57-4.49,3.52s-4.14,1.43-6.71,1.43
			c-2.29,0-4.47-0.34-6.54-1.01v-9.65c1.51,0.45,3.13,0.67,4.87,0.67c1.06,0,2.08-0.29,3.06-0.88c0.98-0.59,1.71-1.16,2.18-1.72
			c0.47-0.56,1.19-1.55,2.14-2.98c0.95-1.43,1.59-2.36,1.93-2.81c-0.67-3.75-2.2-6.57-4.57-8.47c-2.38-1.9-5.41-2.85-9.1-2.85v-8.81
			h-4.87V193h55.04v9.4h-7.22V249.3z M188.09,216.99c3.58,0,6.15,1.09,7.72,3.27V202.4h-20.39c6.49,2.8,10.6,7.66,12.33,14.6H188.09
			z"/>
		<path class="st2" d="M237.33,202.4h-7.13v46.9h-11.75v-41.7c0-2.18-0.29-3.59-0.88-4.24c-0.59-0.64-1.78-0.96-3.57-0.96h-2.68V193
			h4.19c1.85,0,3.24,0.95,4.2,2.85c-0.56-3.02-0.84-5.71-0.84-8.05v-1.51h11.33V193h7.13V202.4z"/>
		<path class="st2" d="M302.94,227.31c0,5.93-2.08,11.21-6.25,15.86c-4.17,4.64-9.64,6.96-16.4,6.96c-4.53,0-8.42-1.31-11.66-3.94
			c-3.25-2.63-4.87-6.15-4.87-10.57V202.4h-10.91v46.9h-11.75v-46.9h-7.13V193h7.13v-10.24c0-5.93,1.92-10.35,5.75-13.26
			c3.83-2.91,9.07-4.36,15.73-4.36c7.44,0,15.63,1.15,24.58,3.44v8.56c-6.71-1.79-14.04-2.77-21.98-2.94
			c0.45,1.96,1.26,3.43,2.43,4.4c1.17,0.98,2.94,1.47,5.29,1.47c1.17,0,3.44-0.11,6.8-0.34c3.36-0.22,6.01-0.33,7.97-0.33
			c4.25,0,7.44,1.06,9.56,3.19c2.12,2.13,3.19,4.75,3.19,7.89c0,0.56-0.06,1.4-0.17,2.52h7.13v9.4h-31.88v33.22
			c0,1.4,0.45,2.49,1.34,3.27c0.89,0.79,2.04,1.18,3.44,1.18c3.3,0,5.94-1.33,7.93-3.99c1.99-2.66,2.98-5.58,2.98-8.77
			c0-4.53-2.38-6.79-7.13-6.79c-1.23,0-2.41,0.11-3.52,0.34v-10.24c1.73-0.39,3.5-0.59,5.29-0.59c5.42,0,9.63,1.57,12.63,4.7
			C301.44,217.86,302.94,222.06,302.94,227.31z M252.94,182.68V193h37c0.05-0.39,0.08-0.87,0.08-1.43c0-2.24-1.57-3.36-4.7-3.36
			c-1.73,0-4.07,0.11-7,0.34c-2.94,0.22-5.24,0.34-6.92,0.34c-4.75-0.06-8.36-1.27-10.82-3.65c-2.46-2.38-3.97-5.47-4.53-9.27
			C253.97,177.31,252.94,179.55,252.94,182.68z"/>
		<path class="st2" d="M271.81,184.27l14.35-14.09h11.49v0.34l-14.26,14.09h-11.58V184.27z"/>
		<path class="st2" d="M330.04,202.4h-7.13v46.9h-11.75v-46.9h-7.13V193h7.13v-3.52c0-5.93,1.92-10.35,5.75-13.26
			c3.83-2.91,9.07-4.36,15.73-4.36c3.97,0,8.1,0.46,12.38,1.38c4.28,0.92,7.56,1.89,9.86,2.89v8.89c-2.46-0.89-5.75-1.75-9.86-2.56
			c-4.11-0.81-7.93-1.22-11.45-1.22c-7.05,0-10.57,2.71-10.57,8.14V193h7.05V202.4z"/>
		<path class="st2" d="M394.98,225.22c0,5.26-1.41,9.37-4.24,12.33c-2.83,2.96-6.73,4.45-11.7,4.45c-0.78,0-1.37-0.03-1.76-0.08
			v-10.57h0.84c3.69,0,5.54-2.04,5.54-6.12c0-5.09-3.8-7.63-11.41-7.63v31.71H360.5l-29.2-11.91l0.08-0.08v-11.07l12.08-8.14
			l-11.83-6.96v-8.73h-4.95V193h72.82v9.4h-61.25l16.36,10.74v9.98l-10.99,7.63l16.86,7.3v-30.62h11.75
			c6.26,0,11.62,1.53,16.07,4.57C392.75,215.05,394.98,219.46,394.98,225.22z"/>
		<path class="st2" d="M422.5,249.88c-0.89,0.17-1.96,0.25-3.19,0.25c-3.08,0-5.76-0.66-8.05-1.97c-2.29-1.31-4.12-3.12-5.5-5.41
			c-1.37-2.29-2.39-4.84-3.06-7.63s-1.04-5.82-1.09-9.06c0-11.69,1.68-19.58,5.03-23.66h-10.49V193h29.28v9.4h-2.77
			c-2.07,0-3.79,0.62-5.16,1.85c-1.37,1.23-2.36,3.05-2.98,5.45c-0.62,2.41-1.04,4.84-1.26,7.3c-0.22,2.46-0.34,5.48-0.34,9.06
			c0,9.17,2.54,13.76,7.63,13.76c0.89,0,1.54-0.03,1.93-0.08V249.88z"/>
		<path class="st2" d="M486.34,226.89c0,5.26-1.41,9.37-4.24,12.33s-6.73,4.45-11.7,4.45c-0.78,0-1.37-0.03-1.76-0.08v-10.57h0.84
			c3.69,0,5.54-2.04,5.54-6.12c0-2.74-0.99-5-2.98-6.79c-1.99-1.79-4.8-2.8-8.43-3.02v32.22h-11.33v-0.08l-0.08,0.08l-25.34-17.54
			v-11.24c4.58-3.69,8.81-6.67,12.67-8.94s8.11-3.85,12.75-4.74v-4.45h-30.2V193h68.8v9.4h-27.27v4.45
			c5.98,0.17,11.27,2.05,15.86,5.66C484.05,216.11,486.34,220.91,486.34,226.89z M452.28,237.05v-19.63
			c-4.87,1.62-9.87,4.56-15.02,8.81L452.28,237.05z"/>
		<path class="st2" d="M533.83,227.31c0,5.93-2.08,11.21-6.25,15.86c-4.17,4.64-9.63,6.96-16.4,6.96c-4.53,0-8.42-1.31-11.66-3.94
			c-3.24-2.63-4.87-6.15-4.87-10.57V202.4h-7.13V193h33.48c0-0.28,0.01-0.7,0.04-1.26c0.03-0.56,0.04-0.89,0.04-1.01
			c0-1.73-0.29-3.02-0.88-3.86c-0.59-0.84-1.75-1.26-3.48-1.26c-1.23,0-3.66,0.27-7.3,0.8c-3.64,0.53-6.35,0.8-8.14,0.8
			c-3.75,0-6.66-0.61-8.72-1.85v-8.98c1.73,0.95,4.28,1.43,7.63,1.43c1.73,0,4.57-0.33,8.52-1.01c3.94-0.67,7.06-1.01,9.35-1.01
			c4.42,0,7.8,1.16,10.15,3.48c2.35,2.32,3.52,5.58,3.52,9.77c0,1.34-0.11,2.66-0.34,3.94h6.88v9.4h-31.88v33.22
			c0,1.4,0.45,2.49,1.34,3.27c0.89,0.79,2.04,1.18,3.44,1.18c3.3,0,5.94-1.33,7.93-3.99c1.98-2.66,2.98-5.58,2.98-8.77
			c0-4.53-2.38-6.79-7.13-6.79c-1.23,0-2.41,0.11-3.52,0.34v-10.24c1.73-0.39,3.5-0.59,5.29-0.59c5.42,0,9.63,1.57,12.63,4.7
			S533.83,222.06,533.83,227.31z"/>
		<path class="st2" d="M232.3,350.02h-11.75c0-7.1-3.41-10.65-10.24-10.65h-3.52c-4.42,3.97-9.93,5.96-16.53,5.96
			c-7.61,0-13.8-2.24-18.58-6.71c-4.78-4.47-7.17-11.19-7.17-20.13c0-2.35,0.17-4.81,0.5-7.38h11.33c-0.39,2.57-0.59,5.09-0.59,7.55
			c0,5.54,1.3,9.69,3.9,12.46c2.6,2.77,6.03,4.15,10.28,4.15c3.97,0,6.98-1.16,9.02-3.48c2.04-2.32,3.06-5.21,3.06-8.68
			c0-2.12-0.39-3.86-1.17-5.2c-0.78-1.34-1.96-2.01-3.52-2.01c-1.34,0-2.39,0.49-3.15,1.47s-1.13,2.25-1.13,3.82
			c0,1.51,0.31,3.13,0.92,4.87h-10.07c-0.9-1.9-1.34-4.05-1.34-6.46c0-4.03,1.3-7.21,3.9-9.56s6.05-3.52,10.36-3.52
			c5.09,0,9.19,1.59,12.29,4.78c3.1,3.19,4.66,7.22,4.66,12.08c0,2.41-0.34,4.62-1.01,6.63c3.52,0.22,6.12,1.57,7.8,4.03v-30.88
			h-60.83v-9.4h79.7v9.4h-7.13V350.02z"/>
		<path class="st2" d="M289.18,329.13c0,6.15-1.96,11.31-5.87,15.48c-3.92,4.17-9.31,6.25-16.19,6.25c-7.83,0-14.12-2.7-18.88-8.1
			c-4.75-5.4-7.13-12.79-7.13-22.19c0-1.57,0.03-2.8,0.08-3.69h11.58c-0.06,0.79-0.08,1.85-0.08,3.19c0,6.6,1.27,11.7,3.82,15.31
			c2.54,3.61,6.08,5.41,10.61,5.41c3.3,0,5.91-0.84,7.84-2.52s3.03-4.08,3.31-7.21c-1.51,0.34-3.05,0.5-4.61,0.5
			c-4.64,0-8.39-1.36-11.24-4.07c-2.85-2.71-4.28-6.33-4.28-10.86c0-5.37,1.73-9.87,5.2-13.51h-27.27v-9.4h77.77v9.4h-26.76
			c3.63,4.92,10.77,8.81,21.39,11.66c-2.85,6.99-4.28,14.63-4.28,22.9c0,4.08,0.53,8.19,1.59,12.33h-11.33
			c-1.01-4.03-1.51-8.08-1.51-12.16c0-6.6,0.92-12.36,2.77-17.28c-10.18-3.69-16.78-8.89-19.8-15.61
			c-3.75,3.19-5.62,6.77-5.62,10.74c0,4.2,2.46,6.29,7.38,6.29c3.36,0,6.68-0.76,9.98-2.27
			C288.68,322.64,289.18,325.78,289.18,329.13z"/>
		<path class="st2" d="M268.88,290.03l14.35-14.09h11.49v0.34l-14.26,14.09h-11.58V290.03z"/>
		<path class="st2" d="M356.89,350.02h-11.75c-0.34-2.35-0.81-4.72-1.43-7.13c-0.62-2.4-1.44-4.92-2.47-7.55
			c-1.04-2.63-2.36-4.77-3.99-6.42c-1.62-1.65-3.41-2.48-5.37-2.48c-1.9,0-3.33,0.62-4.28,1.85c-0.95,1.23-1.43,2.85-1.43,4.87
			c0,1.57,0.14,3.1,0.42,4.62h-11.41c-0.5-2.07-0.75-4-0.75-5.79c0-4.42,1.37-8.17,4.11-11.24c2.74-3.07,6.54-4.61,11.41-4.61
			c6.82,0,11.88,3.33,15.19,9.98v-22.99h-34.65v-9.4h52.77v9.4h-6.38V350.02z"/>
		<path class="st2" d="M369.01,316.04c-2.71-2.52-4.07-5.76-4.07-9.73c0-3.97,1.36-7.2,4.07-9.69c2.71-2.49,6.22-3.73,10.53-3.73
			c4.31,0,7.8,1.25,10.49,3.73c2.69,2.49,4.03,5.72,4.03,9.69c0,3.97-1.34,7.21-4.03,9.73c-2.68,2.52-6.18,3.78-10.49,3.78
			C375.23,319.82,371.72,318.56,369.01,316.04z M369.01,347.09c-2.71-2.52-4.07-5.76-4.07-9.73c0-3.97,1.36-7.2,4.07-9.69
			c2.71-2.49,6.22-3.73,10.53-3.73c4.31,0,7.8,1.24,10.49,3.73c2.69,2.49,4.03,5.72,4.03,9.69c0,3.97-1.34,7.21-4.03,9.73
			c-2.68,2.52-6.18,3.78-10.49,3.78C375.23,350.86,371.72,349.6,369.01,347.09z M383.15,310.25c0.84-1.01,1.26-2.32,1.26-3.94
			c0-1.62-0.42-2.95-1.26-3.98c-0.84-1.04-2.04-1.55-3.61-1.55c-1.57,0-2.78,0.52-3.65,1.55c-0.87,1.04-1.3,2.36-1.3,3.98
			c0,1.62,0.43,2.94,1.3,3.94c0.87,1.01,2.08,1.51,3.65,1.51C381.11,311.76,382.31,311.26,383.15,310.25z M383.15,341.3
			c0.84-1.01,1.26-2.32,1.26-3.94c0-1.62-0.42-2.95-1.26-3.99c-0.84-1.03-2.04-1.55-3.61-1.55c-1.57,0-2.78,0.52-3.65,1.55
			c-0.87,1.04-1.3,2.37-1.3,3.99c0,1.62,0.43,2.94,1.3,3.94c0.87,1.01,2.08,1.51,3.65,1.51C381.11,342.81,382.31,342.3,383.15,341.3
			z"/>
	</g>
	<g>
		<path class="st2" d="M186.63,499.02c-0.48,0.06-1.29,0.09-2.43,0.09c-5.7,0-9.9-2.23-12.59-6.7c-2.7-4.47-4.11-10.39-4.23-17.77
			c0-4.2,0.32-8.16,0.95-11.88c0.63-3.72,1.66-7.32,3.1-10.79c1.44-3.48,3.55-6.24,6.34-8.28c2.79-2.04,6.13-3.06,10.03-3.06h1.35
			v6.03h-1.26c-2.58,0-4.81,0.83-6.7,2.47c-1.89,1.65-3.31,3.88-4.27,6.7c-0.96,2.82-1.65,5.77-2.07,8.86
			c-0.42,3.09-0.63,6.4-0.63,9.94c0,12.17,3.57,18.26,10.71,18.26h1.71V499.02z"/>
		<path class="st2" d="M240.51,498.39h-6.93v-39.22c0-3.66-0.87-6.81-2.61-9.45c-1.74-2.64-4.68-3.96-8.82-3.96
			c-3.06,0-5.49,0.93-7.29,2.79c-1.8,1.86-2.7,4.35-2.7,7.47c0,3.36,0.85,5.91,2.56,7.65c1.71,1.74,4.03,2.61,6.97,2.61
			c1.26,0,2.52-0.09,3.78-0.27v6.21c-1.38,0.24-2.82,0.36-4.32,0.36c-5.76,0-9.93-2.07-12.5-6.21c-2.52,4.14-6.63,6.21-12.32,6.21
			c-1.68,0-3.36-0.18-5.04-0.54v-6.12c1.38,0.24,2.85,0.36,4.41,0.36c3.06,0,5.41-0.87,7.06-2.61c1.65-1.74,2.47-4.29,2.47-7.65
			c0-3.06-0.93-5.37-2.79-6.93c-1.86-1.56-4.44-2.34-7.74-2.34l-9.17-0.09v-6.03h9.54c6.12,0,10.58,2.01,13.4,6.03
			c2.88-4.62,7.29-6.93,13.22-6.93c5.28,0,9.23,1.71,11.87,5.13v-11.78h6.93v7.56h10.17v6.03h-10.17V498.39z"/>
		<path class="st2" d="M296.92,498.39h-6.84v-0.18l-0.09,0.18l-38.23-21.86v-6.48h6.66c4.8-0.06,8.58-1.47,11.33-4.23
			c2.76-2.76,4.14-6.39,4.14-10.88v-0.45c-2.28,4.5-5.97,6.75-11.06,6.75c-4.2,0-7.51-1.29-9.94-3.87
			c-2.43-2.58-3.64-5.88-3.64-9.89c0-2.52,0.42-4.8,1.26-6.84h6.75c-0.66,2.4-0.99,4.56-0.99,6.48c0,2.58,0.67,4.57,2.02,5.98
			c1.35,1.41,3.19,2.11,5.53,2.11c2.46,0,4.41-0.85,5.85-2.56c1.44-1.71,2.16-4.03,2.16-6.97c0-1.86-0.12-3.54-0.36-5.04h6.57
			c1.56,5.94,2.34,10.71,2.34,14.3c0,5.28-1.54,9.79-4.63,13.54s-7.3,6.04-12.64,6.88l26.99,15.56v-57.84h6.84v7.56h10.17v6.03
			h-10.17V498.39z"/>
		<path class="st2" d="M330.65,446.67h-10.17v51.72h-6.93v-44.44c0-2.34-0.42-4.14-1.26-5.4c-0.84-1.26-2.34-1.89-4.5-1.89h-4.41
			v-6.03h4.68c2.88,0,4.98,1.29,6.3,3.87c-0.48-2.76-0.72-5.67-0.72-8.73v-2.7h6.84v7.56h10.17V446.67z"/>
		<path class="st2" d="M377.87,446.67h-10.17v51.72h-6.84l-28.16-21.5v-7.83c3.96-3.66,8.42-6.93,13.4-9.8
			c4.98-2.88,9.9-4.92,14.75-6.12v-6.48h-33.82v-6.03h50.83V446.67z M340.63,492.32c0.96,0.93,1.44,2.05,1.44,3.37
			s-0.46,2.43-1.39,3.33c-0.93,0.9-2.08,1.35-3.46,1.35c-1.38,0-2.5-0.45-3.37-1.35c-0.87-0.9-1.3-2.01-1.3-3.33
			s0.45-2.44,1.35-3.37c0.9-0.93,2.01-1.39,3.33-1.39C338.53,490.92,339.67,491.39,340.63,492.32z M360.87,490.3v-30.59
			c-7.62,2.46-14.99,6.87-22.13,13.22L360.87,490.3z"/>
		<path class="st2" d="M449.21,446.67h-10.17v51.72h-7.02l-30.32-15.29v-7.83l16.19-11.96l-16.1-11.42v-5.22h-7.2v-6.03h54.6V446.67
			z M423.84,459.62v7.2l-15.38,11.87l23.57,12.32v-44.35h-25.64L423.84,459.62z"/>
		<path class="st2" d="M472.78,446.67h-10.17v51.72h-6.93v-44.44c0-2.34-0.42-4.14-1.26-5.4c-0.84-1.26-2.34-1.89-4.5-1.89h-4.41
			v-6.03h4.68c2.88,0,4.98,1.29,6.3,3.87c-0.48-2.76-0.72-5.67-0.72-8.73v-2.7h6.84v7.56h10.17V446.67z"/>
		<path class="st2" d="M469.18,440.64h56.94v6.03h-56.94V440.64z M484.02,469.87c0-4.86,1.69-8.89,5.08-12.1
			c3.39-3.21,7.87-4.81,13.45-4.81c9.05,0,13.58,4.44,13.58,13.31v34.81h-7.02v-0.81c0-2.76-1.17-4.14-3.51-4.14
			c-1.02,0-3.28,0.48-6.79,1.44c-3.51,0.96-6.61,1.44-9.31,1.44c-4.08,0-7.38-1.15-9.9-3.46c-2.52-2.31-3.78-5.59-3.78-9.85
			c0-1.8,0.18-3.42,0.54-4.86h6.39c-0.3,1.5-0.45,3.06-0.45,4.68c0,4.86,2.55,7.29,7.65,7.29c1.92,0,4.5-0.43,7.74-1.3
			c3.24-0.87,5.67-1.3,7.29-1.3s3,0.57,4.14,1.71v-25.64c0-4.8-2.22-7.2-6.66-7.2c-3.3,0-6.04,1-8.23,3.01
			c-2.19,2.01-3.28,4.6-3.28,7.78c0,4.92,2.46,7.38,7.38,7.38c1.26,0,2.49-0.06,3.69-0.18v5.85c-1.68,0.24-3.18,0.36-4.5,0.36
			c-4.14,0-7.42-1.21-9.85-3.64C485.23,477.21,484.02,473.95,484.02,469.87z"/>
		<path class="st2" d="M549.87,446.67H539.7v51.72h-6.93v-44.44c0-2.34-0.42-4.14-1.26-5.4c-0.84-1.26-2.34-1.89-4.5-1.89h-4.41
			v-6.03h4.68c2.88,0,4.98,1.29,6.3,3.87c-0.48-2.76-0.72-5.67-0.72-8.73v-2.7h6.84v7.56h10.17V446.67z"/>
		<path class="st2" d="M205.34,606.34h-7.02V587c0-2.34-0.51-4.27-1.53-5.8c-1.02-1.53-2.58-2.29-4.68-2.29
			c-1.44,0-2.77,0.51-4,1.53c-1.23,1.02-2.35,2.26-3.37,3.73c-1.02,1.47-2.1,2.95-3.24,4.45c-1.14,1.5-2.58,2.76-4.32,3.78
			c-1.74,1.02-3.72,1.53-5.94,1.53c-1.98,0-4.05-0.42-6.21-1.26v-6.12c1.98,0.6,3.72,0.9,5.22,0.9c1.68,0,3.12-0.48,4.32-1.44
			c1.2-0.96,2.55-2.52,4.05-4.68c1.5-2.16,2.58-3.63,3.24-4.41c-0.66-5.1-2.42-9.16-5.26-12.19c-2.85-3.03-6.55-4.54-11.11-4.54
			v-5.58h-5.76v-6.03h55.77v6.03h-10.17V606.34z M190.95,572.52c3.42,0,5.88,1.23,7.38,3.69v-21.59H172.6
			c4.08,1.32,7.41,3.64,9.99,6.97c2.58,3.33,4.26,7.12,5.04,11.38C188.7,572.67,189.81,572.52,190.95,572.52z"/>
		<path class="st2" d="M239.07,554.61h-10.17v51.72h-6.93V561.9c0-2.34-0.42-4.14-1.26-5.4c-0.84-1.26-2.34-1.89-4.5-1.89h-4.41
			v-6.03h4.68c2.88,0,4.98,1.29,6.3,3.87c-0.48-2.76-0.72-5.67-0.72-8.73v-2.7h6.84v7.56h10.17V554.61z"/>
		<path class="st2" d="M252.57,606.34h-6.93v-51.72h-10.17v-6.03h10.17v-7.29c0-5.94,1.59-10.49,4.77-13.67
			c3.18-3.18,8.4-4.77,15.65-4.77c7.44,0,15.17,1.08,23.21,3.24v5.85c-7.26-2.1-14.9-3.15-22.94-3.15c-0.84,0-1.47,0.03-1.89,0.09
			c0.78,5.04,3.78,7.56,9,7.56c1.68,0,4.77-0.27,9.27-0.81c4.5-0.54,7.68-0.81,9.54-0.81c3.96,0,6.9,1.07,8.82,3.19
			c1.92,2.13,2.88,4.72,2.88,7.78c0,0.54-0.06,1.47-0.18,2.79h7.83v6.03h-35.35v37.33c0,2.46,0.64,4.36,1.93,5.71
			c1.29,1.35,3.01,2.02,5.17,2.02c4.14,0,7.56-1.75,10.25-5.26c2.7-3.51,4.05-7.6,4.05-12.28c0-6.42-3.54-9.62-10.61-9.62
			c-1.2,0-2.43,0.09-3.69,0.27v-6.21c1.38-0.24,2.88-0.36,4.5-0.36c5.28,0,9.38,1.44,12.32,4.32c2.94,2.88,4.41,6.75,4.41,11.6
			c0,6.36-1.92,11.89-5.76,16.6c-3.84,4.71-9,7.06-15.47,7.06c-4.08,0-7.44-1.23-10.08-3.69c-2.64-2.46-3.96-5.85-3.96-10.17v-37.33
			h-16.73V606.34z M252.57,541.3v7.29h44.8c0.06-0.54,0.09-1.26,0.09-2.16c0-3.84-1.92-5.76-5.76-5.76c-1.68,0-4.65,0.29-8.91,0.85
			c-4.26,0.57-7.47,0.85-9.62,0.85c-4.68-0.06-8.22-1.24-10.62-3.55c-2.4-2.31-3.81-5.2-4.23-8.68
			C254.48,531.89,252.57,535.6,252.57,541.3z"/>
		<path class="st2" d="M276.85,537.79l12.68-13.49h6.66v0.36l-12.5,13.49h-6.84V537.79z"/>
		<path class="st2" d="M335.24,554.61h-10.17v51.72h-6.93v-51.72h-10.17v-6.03h10.17v-2.97c0-12.29,6.81-18.44,20.42-18.44
			c7.08,0,14.99,1.32,23.75,3.96v5.94c-8.04-2.58-15.86-3.87-23.48-3.87c-5.16,0-8.74,1.05-10.75,3.15
			c-2.01,2.1-3.01,5.19-3.01,9.27v2.97h10.17V554.61z"/>
		<path class="st2" d="M400.45,580.97c0,5.28-1.46,9.36-4.36,12.23c-2.91,2.88-6.55,4.32-10.93,4.32c-0.78,0-1.38-0.03-1.8-0.09
			v-6.48h1.17c6,0,9-3.33,9-9.99c0-4.26-1.63-7.63-4.9-10.12c-3.27-2.49-7.45-3.73-12.55-3.73v39.22h-7.02l-30.32-15.29v-7.83
			l16.19-11.96l-16.1-11.42v-5.22h-7.2v-6.03h74.39v6.03h-62.61l17.45,12.95v7.2l-15.38,11.87l23.57,12.32v-38.05h7.02
			c7.08,0,12.91,1.86,17.5,5.58C398.16,570.21,400.45,575.03,400.45,580.97z"/>
		<path class="st2" d="M429.33,606.97c-0.48,0.06-1.32,0.09-2.52,0.09c-5.76,0-9.96-2.25-12.59-6.75c-2.64-4.5-4.02-10.4-4.14-17.72
			c0-13.61,2.76-22.94,8.28-27.98h-15.92v-6.03h29.42v6.03h-1.35c-2.58,0-4.78,0.81-6.61,2.43c-1.83,1.62-3.24,3.82-4.23,6.61
			c-0.99,2.79-1.7,5.74-2.11,8.86c-0.42,3.12-0.63,6.48-0.63,10.08c0,12.17,3.57,18.26,10.71,18.26h1.71V606.97z"/>
		<path class="st2" d="M493.29,581.33c0,5.28-1.44,9.36-4.32,12.23c-2.88,2.88-6.54,4.32-10.98,4.32c-0.78,0-1.35-0.03-1.71-0.09
			v-6.48h1.08c6.06,0,9.08-3.33,9.08-9.99c0-4.32-1.65-7.78-4.95-10.39c-3.3-2.61-7.5-3.91-12.59-3.91v39.31h-6.84l-28.16-21.5
			v-7.83c10.01-9.17,19.4-14.54,28.16-16.1v-6.3h-33.82v-6.03h70.62v6.03h-29.96v6.21c7.02,0.06,12.83,1.99,17.45,5.8
			C490.98,570.43,493.29,575.34,493.29,581.33z M462.07,598.33v-30.95c-6.78,1.68-14.18,6.21-22.22,13.58L462.07,598.33z"/>
		<path class="st2" d="M540.69,582.14c0,6.36-1.92,11.89-5.76,16.6c-3.84,4.71-9,7.06-15.47,7.06c-4.08,0-7.44-1.23-10.08-3.69
			c-2.64-2.46-3.96-5.85-3.96-10.17v-37.33h-10.17v-6.03h37.96c0.3-1.5,0.45-3,0.45-4.5c0-4.08-1.89-6.12-5.67-6.12
			c-1.62,0-4.03,0.36-7.24,1.08c-3.21,0.72-5.92,1.08-8.14,1.08c-3.78,0-6.81-0.6-9.09-1.8v-5.58c2.58,0.9,5.52,1.35,8.82,1.35
			c1.8,0,4.41-0.37,7.83-1.12c3.42-0.75,6.09-1.12,8.01-1.12c4.08,0,7.09,1.08,9.04,3.24c1.95,2.16,2.92,4.92,2.92,8.28
			c0,1.56-0.15,3.3-0.45,5.22h8.01v6.03h-35.35v37.33c0,2.46,0.64,4.36,1.93,5.71c1.29,1.35,3.01,2.02,5.17,2.02
			c4.14,0,7.56-1.75,10.25-5.26c2.7-3.51,4.05-7.6,4.05-12.28c0-6.42-3.54-9.62-10.62-9.62c-1.2,0-2.43,0.09-3.69,0.27v-6.21
			c1.38-0.24,2.88-0.36,4.5-0.36c5.28,0,9.39,1.44,12.32,4.32C539.22,573.42,540.69,577.28,540.69,582.14z"/>
		<path class="st2" d="M637.67,606.34h-6.93v-1.44c0-8.58-3.3-12.86-9.9-12.86h-5.22c-4.2,5.22-10.2,7.83-17.99,7.83
			c-7.8,0-13.84-2.44-18.13-7.33c-4.29-4.89-6.43-11.29-6.43-19.21c0-3.12,0.21-6.3,0.63-9.54h6.84c-0.42,3.48-0.63,6.69-0.63,9.63
			c0,6.36,1.56,11.33,4.68,14.93c3.12,3.6,7.43,5.4,12.95,5.4c5.1,0,9.05-1.57,11.87-4.72c2.82-3.15,4.23-7.3,4.23-12.46
			c0-3.12-0.62-5.65-1.84-7.6c-1.23-1.95-3.1-2.92-5.62-2.92c-2.16,0-3.84,0.78-5.04,2.34c-1.2,1.56-1.8,3.57-1.8,6.03
			c0,1.74,0.3,3.93,0.9,6.57h-6.3c-0.84-2.1-1.26-4.47-1.26-7.11c0-3.9,1.2-7.18,3.6-9.85c2.4-2.67,5.67-4,9.8-4
			c4.5,0,8.05,1.59,10.66,4.77c2.61,3.18,3.91,7.11,3.91,11.78c0,3.42-0.57,6.57-1.71,9.45h2.16c4.44,0,7.65,1.44,9.63,4.32v-35.71
			h-66.3v-6.03h83.39v6.03h-10.17V606.34z"/>
		<path class="st2" d="M715.21,606.34h-6.84c-1.32-5.46-1.98-11.21-1.98-17.27c0-5.34,0.66-10.55,1.98-15.65
			c-5.64-1.32-10.74-3.51-15.29-6.57s-7.83-6.72-9.8-10.97c-5.58,4.14-8.37,8.82-8.37,14.03c0,4.86,2.85,7.29,8.55,7.29
			c4.2,0,8.4-0.93,12.59-2.79c1.14,2.46,1.71,5.43,1.71,8.91c0,6.54-1.92,11.92-5.76,16.15c-3.84,4.23-9.24,6.34-16.19,6.34
			c-7.68,0-13.73-2.76-18.17-8.28c-4.44-5.52-6.66-12.65-6.66-21.41c0-0.9,0.06-2.31,0.18-4.23h6.84c-0.06,0.84-0.09,2.07-0.09,3.69
			c0,7.2,1.56,13.01,4.68,17.45c3.12,4.44,7.53,6.66,13.22,6.66c5.04,0,8.86-1.48,11.47-4.45s3.91-6.94,3.91-11.92v-1.44
			c-2.82,0.96-5.94,1.44-9.36,1.44c-4.32,0-7.74-1.18-10.25-3.55c-2.52-2.37-3.78-5.59-3.78-9.67c0-5.94,2.46-11.09,7.38-15.47
			h-30.94v-6.03h78.35v6.03h-32.56c4.38,7.14,13.04,11.96,26,14.48c-1.92,6.42-2.88,13.08-2.88,19.97
			C713.14,593.81,713.83,599.56,715.21,606.34z"/>
		<path class="st2" d="M678.77,543.91l12.68-13.49h6.66v0.36l-12.5,13.49h-6.84V543.91z"/>
		<path class="st2" d="M763.51,606.34h-6.93v-0.36c-1.92-18.83-7.29-28.25-16.1-28.25c-2.94,0-5.19,0.9-6.75,2.7
			c-1.56,1.8-2.34,4.26-2.34,7.38c0,1.56,0.09,2.94,0.27,4.14h-6.84c-0.3-1.92-0.45-3.42-0.45-4.5c0-4.62,1.41-8.46,4.23-11.51
			c2.82-3.06,6.6-4.59,11.33-4.59c7.79,0,13.34,4.29,16.64,12.86v-29.6h-37.6v-6.03h54.51v6.03h-9.99V606.34z"/>
		<path class="st2" d="M224.77,689.28c0,5.28-1.44,9.36-4.32,12.23c-2.88,2.88-6.54,4.32-10.98,4.32c-0.78,0-1.35-0.03-1.71-0.09
			v-6.48h1.08c6.06,0,9.08-3.33,9.08-9.99c0-4.32-1.65-7.78-4.95-10.39c-3.3-2.61-7.5-3.91-12.59-3.91v39.31h-6.84l-28.16-21.5
			v-7.83c10.01-9.17,19.4-14.54,28.16-16.1v-6.3h-33.82v-6.03h70.62v6.03h-29.96v6.21c7.02,0.06,12.83,1.99,17.45,5.8
			C222.46,678.38,224.77,683.28,224.77,689.28z M193.56,706.28v-30.95c-6.78,1.68-14.18,6.21-22.22,13.58L193.56,706.28z"/>
		<path class="st2" d="M253.65,714.92c-0.48,0.06-1.32,0.09-2.52,0.09c-5.76,0-9.96-2.25-12.59-6.75c-2.64-4.5-4.02-10.4-4.14-17.72
			c0-13.61,2.76-22.94,8.28-27.98h-15.92v-6.03h29.42v6.03h-1.35c-2.58,0-4.78,0.81-6.61,2.43c-1.83,1.62-3.24,3.82-4.23,6.61
			c-0.99,2.79-1.7,5.74-2.11,8.86c-0.42,3.12-0.63,6.48-0.63,10.08c0,12.17,3.57,18.26,10.71,18.26h1.71V714.92z"/>
		<path class="st2" d="M303.39,662.56h-10.17v51.72h-6.84l-28.16-21.5v-7.83c3.96-3.66,8.42-6.93,13.4-9.8
			c4.98-2.88,9.9-4.92,14.75-6.12v-6.48h-33.82v-6.03h50.83V662.56z M266.15,708.21c0.96,0.93,1.44,2.05,1.44,3.37
			s-0.46,2.43-1.39,3.33c-0.93,0.9-2.08,1.35-3.46,1.35c-1.38,0-2.5-0.45-3.37-1.35c-0.87-0.9-1.3-2.01-1.3-3.33
			s0.45-2.44,1.35-3.37c0.9-0.93,2.01-1.39,3.33-1.39C264.05,706.82,265.19,707.29,266.15,708.21z M286.39,706.19v-30.59
			c-7.62,2.46-14.99,6.87-22.13,13.22L286.39,706.19z"/>
		<path class="st2" d="M375.72,688.74c0,7.02-2.04,12.79-6.12,17.32c-4.08,4.53-9.75,6.79-17,6.79c-7.86,0-14.03-2.7-18.53-8.1
			c-4.5-5.4-6.75-12.53-6.75-21.41c0-2.4,0.18-4.92,0.54-7.56h6.84c-0.24,2.16-0.36,4.62-0.36,7.38c0,7.14,1.57,12.85,4.72,17.14
			c3.15,4.29,7.66,6.43,13.54,6.43c5.28,0,9.34-1.68,12.19-5.04c2.85-3.36,4.27-7.83,4.27-13.4c0-0.84-0.06-1.98-0.18-3.42
			c-3.9,2.4-7.74,3.6-11.51,3.6c-3.54,0-6.39-1.08-8.55-3.24c-2.16-2.16-3.24-5.13-3.24-8.91v-13.76h-25.46v-6.03h46.51
			c0.3-1.5,0.45-3.03,0.45-4.59c0-4.02-2.19-6.03-6.57-6.03c-1.5,0-4.53,0.36-9.08,1.08c-4.56,0.72-8.25,1.08-11.06,1.08
			c-4.02,0-7.44-0.6-10.26-1.8v-5.58c3,0.9,6.27,1.35,9.81,1.35c2.16,0,5.67-0.37,10.53-1.12c4.86-0.75,8.3-1.12,10.34-1.12
			c4.2,0,7.39,1.04,9.58,3.1c2.19,2.07,3.28,4.84,3.28,8.32c0,1.92-0.21,3.69-0.63,5.31h9.36v6.03H352.6v13.76
			c0,3.96,1.8,5.94,5.4,5.94c1.68,0,3.46-0.33,5.35-0.99c1.89-0.66,3.49-1.36,4.81-2.11c1.32-0.75,3.15-1.84,5.49-3.28
			C375.03,679.53,375.72,683.82,375.72,688.74z"/>
		<path class="st2" d="M394.07,700.25h-6.93v-37.69h-8.37v-6.03h51.18v6.03h-35.89v27.8c2.82-3.36,6.22-6.69,10.21-9.98
			c3.99-3.3,7.18-5.52,9.58-6.66h6.84v40.57h-6.84v-33.1c-3.06,2.1-6.48,4.96-10.25,8.59C399.82,693.4,396.64,696.9,394.07,700.25z"
			/>
		<path class="st2" d="M480.96,662.56H470.8v51.72h-7.02l-30.32-15.29v-7.83l16.19-11.96l-16.1-11.42v-5.22h-7.2v-6.03h54.6V662.56z
			 M455.6,675.52v7.2l-15.38,11.87l23.57,12.32v-44.35h-25.64L455.6,675.52z"/>
		<path class="st2" d="M504.53,662.56h-10.17v51.72h-6.93v-44.44c0-2.34-0.42-4.14-1.26-5.4c-0.84-1.26-2.34-1.89-4.5-1.89h-4.41
			v-6.03h4.68c2.88,0,4.98,1.29,6.3,3.87c-0.48-2.76-0.72-5.67-0.72-8.73v-2.7h6.84v7.56h10.17V662.56z"/>
		<path class="st2" d="M507.86,692.16l9.36-5.67c-1.8-3.84-5.16-6.69-10.08-8.55v-3.78c0-4.86,1.6-9.16,4.81-12.91
			c3.21-3.75,7.63-5.62,13.27-5.62c6.48,0,11.09,2.25,13.85,6.75v-13.4h7.02v7.56h10.08v6.03h-10.08v51.72h-7.02v-33.64
			l-31.21,19.16V692.16z M513.98,674.26c3.9,1.92,6.75,4.92,8.55,9l16.28-9.99c-0.54-3.48-1.88-6.25-4-8.32
			c-2.13-2.07-5.02-3.1-8.68-3.1c-3.84,0-6.82,1.16-8.95,3.46C515.04,667.61,513.98,670.6,513.98,674.26z"/>
		<path class="st2" d="M597.1,714.29h-6.93v-0.36c-1.92-18.83-7.29-28.25-16.1-28.25c-2.94,0-5.19,0.9-6.75,2.7
			c-1.56,1.8-2.34,4.26-2.34,7.38c0,1.56,0.09,2.94,0.27,4.14h-6.84c-0.3-1.92-0.45-3.42-0.45-4.5c0-4.62,1.41-8.46,4.23-11.51
			c2.82-3.06,6.6-4.59,11.33-4.59c7.79,0,13.34,4.29,16.64,12.86v-29.6h-37.6v-6.03h54.51v6.03h-9.99V714.29z"/>
		<path class="st2" d="M688.85,689.28c0,5.28-1.44,9.36-4.32,12.23c-2.88,2.88-6.54,4.32-10.98,4.32c-0.78,0-1.35-0.03-1.71-0.09
			v-6.48h1.08c6.06,0,9.08-3.33,9.08-9.99c0-4.32-1.65-7.78-4.95-10.39c-3.3-2.61-7.5-3.91-12.59-3.91v39.31h-6.84l-28.16-21.5
			v-7.83c10.01-9.17,19.4-14.54,28.16-16.1v-6.3h-33.82v-6.03h70.62v6.03h-29.96v6.21c7.02,0.06,12.83,1.99,17.45,5.8
			C686.54,678.38,688.85,683.28,688.85,689.28z M657.64,706.28v-30.95c-6.78,1.68-14.18,6.21-22.22,13.58L657.64,706.28z"/>
		<path class="st2" d="M741.65,662.56h-10.17v51.72h-6.84l-28.16-21.5v-7.83c3.96-3.66,8.42-6.93,13.4-9.8
			c4.98-2.88,9.9-4.92,14.75-6.12v-6.48h-33.82v-6.03h50.83V662.56z M704.41,708.21c0.96,0.93,1.44,2.05,1.44,3.37
			s-0.46,2.43-1.39,3.33c-0.93,0.9-2.08,1.35-3.46,1.35c-1.38,0-2.5-0.45-3.37-1.35c-0.87-0.9-1.3-2.01-1.3-3.33
			s0.45-2.44,1.35-3.37c0.9-0.93,2.01-1.39,3.33-1.39C702.31,706.82,703.45,707.29,704.41,708.21z M724.65,706.19v-30.59
			c-7.62,2.46-14.99,6.87-22.13,13.22L724.65,706.19z"/>
		<path class="st2" d="M765.31,662.56h-10.17v51.72h-6.93v-44.44c0-2.34-0.42-4.14-1.26-5.4c-0.84-1.26-2.34-1.89-4.5-1.89h-4.41
			v-6.03h4.68c2.88,0,4.98,1.29,6.3,3.87c-0.48-2.76-0.72-5.67-0.72-8.73v-2.7h6.84v7.56h10.17V662.56z"/>
	</g>
	<g>
		<path class="st3" d="M556.28,41.25v206.91c0,3.56,2.91,6.47,6.47,6.47h276.09l10.74-4.07c3.56,0,6.47-2.91,6.47-6.47l-1.89-198.57
			c0-3.56-2.91-6.47-6.47-6.47l-8.85-4.27H562.74C559.19,34.79,556.28,37.7,556.28,41.25L556.28,41.25z"/>
		<path class="st4" d="M858.23,41.26v206.9c0,3.56-2.91,6.47-6.46,6.47h-12.93v-39.97l-11.44-71.33l11.44-68.57V34.79h12.93
			C855.32,34.79,858.23,37.7,858.23,41.26L858.23,41.26z"/>
		<path class="st5" d="M575.67,214.66V74.76c0-0.64,0.49-1.17,1.13-1.21c4.45-0.26,8.5-2.01,11.65-4.78
			c3.79-3.32,6.27-8.1,6.58-13.45c0.04-0.64,0.57-1.14,1.21-1.14h222.01c0.64,0,1.17,0.5,1.21,1.13c0.28,4.9,2.39,9.32,5.65,12.58
			s7.68,5.37,12.58,5.65c0.64,0.04,1.13,0.57,1.13,1.21v139.9c0,0.64-0.5,1.17-1.13,1.21c-4.9,0.28-9.32,2.39-12.58,5.65
			s-5.37,7.68-5.65,12.58c-0.04,0.64-0.57,1.13-1.21,1.13h-28.94l-19.71-11.98l-17.05,11.98H596.25c-0.64,0-1.17-0.5-1.21-1.13
			c-0.28-4.9-2.39-9.32-5.65-12.58s-7.68-5.37-12.58-5.65C576.17,215.83,575.67,215.3,575.67,214.66L575.67,214.66z"/>
		<g>
			<circle class="st4" cx="838.83" cy="235.23" r="4.56"/>
			<circle class="st4" cx="838.83" cy="54.19" r="4.56"/>
			
				<ellipse transform="matrix(0.0161 -0.9999 0.9999 0.0161 331.1927 807.0349)" class="st4" cx="575.67" cy="235.23" rx="4.56" ry="4.56"/>
			<circle class="st4" cx="575.67" cy="54.19" r="4.56"/>
		</g>
		<g>
			<path class="st6" d="M843.39,235.23c0,2.52-2.04,4.56-4.56,4.56v-9.11C841.34,230.67,843.39,232.72,843.39,235.23z"/>
			<path class="st6" d="M843.39,54.19c0,2.52-2.04,4.56-4.56,4.56v-9.11C841.34,49.63,843.39,51.67,843.39,54.19z"/>
		</g>
		<g>
			<g>
				<path class="st7" d="M760.58,212.72l5.18,2.99l5.18,2.99l-7.65,15.03l0.24,10.36l-14.22,48.75c-0.3,1.02-1.68,1.19-2.21,0.27
					l-10.35-17.65l-1.32-6.13c-0.22-0.37-0.61-0.6-1.04-0.6l-5.43,1.99l-20.9-0.14c-1.07-0.01-1.61-1.29-0.87-2.06l33.42-34.93
					l10.67-8.01L760.58,212.72z"/>
				<path class="st8" d="M740.61,233.6l10.56,0.84c0.51,0.04,0.99,0.24,1.38,0.57l9.04,7.7c0.61,0.52,1.26,0.98,1.94,1.38l7.41-25.4
					l-5.18-2.99l-5.18-2.99L740.61,233.6z"/>
				<g>
					<path class="st8" d="M728.95,270.72l4.34,0.03c0.43,0.01,0.82,0.23,1.04,0.6l2.41,4.11l11.06-19.16
						c1.26-2.18,0.52-4.97-1.66-6.23c-2.18-1.26-4.96-0.51-6.22,1.66L728.95,270.72z"/>
				</g>
			</g>
			<g>
				<path class="st7" d="M781.29,212.72l-5.18,2.99l-5.18,2.99l7.65,15.03l-0.24,10.36l14.22,48.75c0.3,1.02,1.68,1.19,2.21,0.27
					l10.35-17.65l1.32-6.13c0.22-0.37,0.61-0.6,1.04-0.6l5.43,1.99l20.9-0.14c1.07-0.01,1.61-1.29,0.87-2.06l-33.42-34.93
					l-10.67-8.01L781.29,212.72z"/>
				<path class="st8" d="M801.26,233.6l-10.56,0.84c-0.51,0.04-0.99,0.24-1.38,0.57l-9.04,7.7c-0.61,0.52-1.26,0.98-1.94,1.38
					l-7.41-25.4l5.18-2.99l5.18-2.99L801.26,233.6z"/>
				<g>
					<path class="st8" d="M812.92,270.72l-4.34,0.03c-0.43,0.01-0.82,0.23-1.04,0.6l-2.41,4.11l-11.06-19.16
						c-1.26-2.18-0.52-4.97,1.66-6.23c2.18-1.26,4.96-0.51,6.22,1.66L812.92,270.72z"/>
				</g>
			</g>
			<path class="st9" d="M772.79,143.97l11.82,10.08c0.43,0.37,0.96,0.59,1.53,0.63l10.7,0.85l3.5,1.46c1.31,0.1,2.36,1.15,2.46,2.46
				l0.97,14.65c0.04,0.56,0.27,1.1,0.63,1.53l8.75,11.57c0.86,1,0.86,2.48,0,3.48l-9.85,10.98c-0.37,0.43-0.59,0.96-0.63,1.53
				l-0.17,14.18c-0.1,1.31-1.15,2.36-2.46,2.46l-14.51,1.94c-0.56,0.04-1.1,0.27-1.53,0.63l-10.9,8.01c-1,0.86-2.48,0.86-3.48,0
				l-11.37-8.4c-0.43-0.37-0.96-0.59-1.53-0.63l-15.36-0.8c-1.31-0.1-2.36-1.15-2.46-2.46l-1.23-3.04l-0.88-11.04
				c-0.04-0.56-0.27-1.1-0.63-1.53l-10.08-11.82c-0.86-1-0.86-2.48,0-3.48l10.08-11.82c0.37-0.43,0.59-0.96,0.63-1.53l1.24-15.48
				c0.1-1.31,1.15-2.36,2.46-2.46l15.48-1.24c0.56-0.04,1.1-0.27,1.53-0.63l11.82-10.08C770.31,143.11,771.79,143.11,772.79,143.97
				L772.79,143.97z"/>
			<path class="st7" d="M816.03,190.69l-10.07,11.82c-0.36,0.43-0.59,0.96-0.63,1.53l-1.24,15.49c-0.1,1.31-1.14,2.36-2.46,2.46
				l-15.48,1.23c-0.57,0.05-1.1,0.27-1.53,0.64l-11.82,10.07c-1,0.86-2.48,0.86-3.48,0l-11.82-10.07c-0.43-0.37-0.97-0.59-1.53-0.64
				l-15.49-1.23c-1.31-0.1-2.36-1.15-2.46-2.46l-0.35-4.44c5.49,2.38,11.54,3.7,17.9,3.7c24.9,0,45.09-20.19,45.09-45.09
				c0-6.46-1.36-12.61-3.82-18.17l4.78,0.38c1.32,0.11,2.36,1.15,2.46,2.47l1.24,15.48c0.04,0.56,0.27,1.1,0.63,1.53l10.07,11.82
				C816.88,188.21,816.88,189.69,816.03,190.69z"/>
			<circle class="st5" cx="770.94" cy="189.06" r="18.12"/>
		</g>
		<path class="st10" d="M609.29,112.98V89.02c0-0.67,0.54-1.21,1.21-1.21h98.25c0.67,0,1.21,0.54,1.21,1.21v23.95
			c0,0.67-0.54,1.21-1.21,1.21h-98.25C609.84,114.19,609.29,113.65,609.29,112.98z"/>
		<g>
			<g>
				<path class="st11" d="M617.54,215.32c-1.71,0-3.45-0.33-5.13-1.01c-3.44-1.4-6.04-4.24-7.13-7.79
					c-1.09-3.55-0.53-7.36,1.54-10.44c4.31-6.43,10.6-11.18,17.91-13.56c-0.11-0.47-0.24-0.93-0.38-1.39
					c-0.66-2.21-2.31-3.85-4.53-4.5c-2.22-0.65-4.49-0.16-6.24,1.35l-1.15,0.99c-1.91,1.64-4.78,1.43-6.43-0.48
					c-1.64-1.91-1.43-4.78,0.48-6.43l1.15-0.99c4.07-3.51,9.58-4.7,14.74-3.2c5.16,1.51,9.16,5.48,10.71,10.63
					c0.17,0.56,0.32,1.13,0.47,1.7l8.39-2.12c3.23-0.82,6.67,0.62,8.35,3.51l3.57,6.12l6.94-11.67c1.18-1.98,3.26-3.19,5.56-3.23
					c2.32-0.02,4.42,1.09,5.67,3.02l4.63,7.16c1.74,2.69,4.42,4.49,7.57,5.07c3.15,0.58,6.3-0.14,8.88-2.02l2.23-1.63
					c2.03-1.48,4.88-1.04,6.37,0.99c1.48,2.03,1.04,4.88-0.99,6.37l-2.23,1.63c-4.63,3.38-10.28,4.67-15.92,3.63
					c-5.64-1.04-10.45-4.27-13.57-9.09l-2.44-3.77l-5.53,9.3c-1.52,2.56-4.21,4.09-7.19,4.09c-0.01,0-0.02,0-0.04,0
					c-2.99-0.01-5.68-1.56-7.19-4.15l-3.61-6.19l-8.37,2.12c-0.02,6.83-1.91,13.6-5.56,19.52
					C626.55,212.98,622.13,215.32,617.54,215.32L617.54,215.32z M625.41,192c-4.45,1.91-8.28,5.08-11.01,9.16
					c-0.73,1.09-0.56,2.16-0.4,2.7c0.17,0.54,0.62,1.52,1.84,2.01c2.04,0.83,4.35,0.07,5.5-1.8
					C623.62,200.37,624.99,196.24,625.41,192L625.41,192z"/>
			</g>
			<g>
				<path class="st11" d="M775.54,92.37H728.1c-2.52,0-4.56-2.04-4.56-4.56s2.04-4.56,4.56-4.56h47.44c2.52,0,4.56,2.04,4.56,4.56
					S778.06,92.37,775.54,92.37z"/>
			</g>
			<g>
				<path class="st11" d="M804.31,118.91H728.1c-2.52,0-4.56-2.04-4.56-4.56c0-2.52,2.04-4.56,4.56-4.56h76.21
					c2.52,0,4.56,2.04,4.56,4.56C808.86,116.87,806.82,118.91,804.31,118.91z"/>
			</g>
			<g>
				<path class="st11" d="M709.97,145.45H609.29c-2.52,0-4.56-2.04-4.56-4.56c0-2.52,2.04-4.56,4.56-4.56h100.68
					c2.52,0,4.56,2.04,4.56,4.56C714.53,143.41,712.49,145.45,709.97,145.45z"/>
			</g>
		</g>
	</g>
</g>
</svg>
