<?xml version="1.0" encoding="utf-8"?>
<!-- Generator: Adobe Illustrator 26.0.1, SVG Export Plug-In . SVG Version: 6.00 Build 0)  -->
<svg version="1.1" id="Layer_1" xmlns="http://www.w3.org/2000/svg" xmlns:xlink="http://www.w3.org/1999/xlink" x="0px" y="0px"
	 viewBox="0 0 1000 1000" style="enable-background:new 0 0 1000 1000;" xml:space="preserve">
<style type="text/css">
	.st0{fill:#3A5DC4;}
	.st1{opacity:0.51;fill:#1F4799;}
	.st2{fill:#E3F4FF;}
	.st3{fill:#BDDFF4;}
	.st4{fill:#43A3F9;}
	.st5{fill:#1685FB;}
	.st6{fill:#618BAA;}
	.st7{fill:#3FEFEF;}
	.st8{fill:#4E7693;}
	.st9{fill:#FC3E81;}
	.st10{fill:#9BE058;}
	.st11{fill:#FFDF46;}
	.st12{fill:#4A5BE5;}
	.st13{fill:#FFFFFF;}
</style>
<g>
	<polygon class="st0" points="9.3,523.4 188.4,626.8 188.4,420 	"/>
	<path class="st0" d="M990.7,176.7v693.4c0,20.8-16.8,37.5-37.5,37.5H219.2c-20.8,0-37.5-16.8-37.5-37.5V176.7
		c0-20.7,16.8-37.5,37.5-37.5h733.9C973.9,139.2,990.7,156,990.7,176.7z"/>
	<path class="st1" d="M990.7,634.1v236c0,20.8-16.8,37.5-37.5,37.5H219.2c-20.8,0-37.5-16.8-37.5-37.5V386.8
		C347,635.4,626.5,893.9,990.7,634.1z"/>
	<g>
		<path class="st2" d="M933.3,104.4V310c0,0.9-0.2,1.8-0.6,2.5c-1,2-3,3.4-5.4,3.4H666.7c-3.3,0-6-2.7-6-6V104.4
			c0-6.7,5.4-12.1,12.1-12.1h248.3C927.9,92.3,933.3,97.7,933.3,104.4z"/>
		<path class="st3" d="M933.3,303v7c0,3.3-2.7,6-6,6h-55.5l-14.1-14.1c-4.1-4.1-4.8-10.4-2-15.2l-16.3-16.3
			c-15.1,10.4-32.9,15.9-51.7,15.9c-24.5,0-47.5-9.5-64.8-26.8c-35.7-35.7-35.7-93.8,0-129.5c17.3-17.3,40.3-26.8,64.8-26.8
			c24.5,0,47.5,9.5,64.7,26.8c17.3,17.3,26.8,40.3,26.8,64.8c0,18.7-5.6,36.6-15.9,51.7l16.3,16.3c1.9-1.1,4.1-1.7,6.3-1.7
			c3.4,0,6.5,1.3,8.9,3.7L933.3,303z"/>
		<path class="st3" d="M933.3,104.4V310c0,0.9-0.2,1.8-0.6,2.5c-1,2-3,3.4-5.4,3.4h-13c1.8,0,3.3-0.8,4.4-2c1-1,1.6-2.4,1.6-4V104.4
			c0-6.7-5.4-12.1-12.1-12.1h13C927.9,92.3,933.3,97.7,933.3,104.4z"/>
		<path class="st4" d="M933.3,104.4v20.8H660.8v-20.8c0-6.7,5.4-12.1,12.1-12.1h248.3C927.9,92.3,933.3,97.7,933.3,104.4z"/>
		<path class="st5" d="M847.5,125.3H728.1c16.6-14.3,37.5-22.1,59.7-22.1C809.9,103.2,830.9,111,847.5,125.3z"/>
		<path class="st5" d="M933.3,104.4v20.8h-13v-20.8c0-6.7-5.4-12.1-12.1-12.1h13C927.9,92.3,933.3,97.7,933.3,104.4z"/>
		<path class="st4" d="M834.6,255.4l13.9-13.9l38.2,38.2l-13.9,13.9L834.6,255.4z"/>
		<path class="st6" d="M872.2,194.7c0,46.6-37.8,84.4-84.4,84.4c-46.6,0-84.4-37.8-84.4-84.4s37.8-84.4,84.4-84.4
			C834.4,110.3,872.2,148.1,872.2,194.7z"/>
		<path class="st7" d="M857,194.7c0,38.2-31,69.1-69.1,69.1s-69.1-31-69.1-69.1c0-38.2,31-69.1,69.1-69.1S857,156.6,857,194.7z"/>
		<path class="st6" d="M955.2,342.8l-19.3,19.3c-2.1,2.1-5.6,2.1-7.8,0l-65.3-65.3c-2.1-2.1-2.1-5.6,0-7.8l19.3-19.3
			c2.1-2.1,5.6-2.1,7.8,0l65.3,65.3C957.4,337.2,957.4,340.7,955.2,342.8z"/>
		<path class="st8" d="M889.9,269.8l65.3,65.3c2.1,2.1,2.1,5.6,0,7.8l-7.7,7.7c2.1-2.1,2.1-5.6,0-7.8l-65.3-65.3
			c-2.1-2.1-5.6-2.1-7.8,0l7.7-7.7C884.3,267.6,887.8,267.6,889.9,269.8z"/>
		<path class="st4" d="M923,359.4c-1.1,0-2.3-0.4-3.2-1.3c-1.7-1.7-1.7-4.6,0-6.3l24.3-24.3c1.7-1.7,4.6-1.7,6.3,0
			c1.7,1.7,1.7,4.6,0,6.3l-24.3,24.3C925.3,359,924.2,359.4,923,359.4z"/>
		<path class="st9" d="M688.4,113.6c-2.5,0-4.5-2-4.5-4.4c0-2.5,2-4.5,4.4-4.5h0c2.5,0,4.5,2,4.5,4.4v0
			C692.9,111.6,690.9,113.6,688.4,113.6C688.5,113.6,688.5,113.6,688.4,113.6z"/>
		<path class="st10" d="M700.1,113.6c-2.5,0-4.5-2-4.5-4.4c0-2.5,2-4.5,4.4-4.5h0c2.5,0,4.5,2,4.5,4.4v0
			C704.5,111.6,702.6,113.6,700.1,113.6C700.1,113.6,700.1,113.6,700.1,113.6z"/>
		<path class="st11" d="M711.7,113.6c-2.5,0-4.5-2-4.5-4.4c0-2.5,2-4.5,4.4-4.5h0c2.5,0,4.5,2,4.5,4.4l0,0
			C716.1,111.6,714.2,113.6,711.7,113.6C711.7,113.6,711.7,113.6,711.7,113.6z"/>
		<g>
			<path class="st2" d="M751.4,213c-2.5,0-4.5-2-4.5-4.5c0-2.5,2-4.5,4.5-4.5c2.5,0,4.5,2,4.5,4.4v0C755.8,211,753.8,213,751.4,213z
				"/>
			<path class="st2" d="M751.4,227.9c-2.5,0-4.5-2-4.5-4.5c0-2.5,2-4.5,4.5-4.5c2.5,0,4.5,2,4.5,4.4v0.1
				C755.8,225.9,753.8,227.9,751.4,227.9z"/>
			<path class="st2" d="M764.1,213c-2.5,0-4.5-2-4.5-4.5c0-2.5,2-4.5,4.5-4.5s4.5,2,4.5,4.4v0C768.6,211,766.6,213,764.1,213z"/>
			<path class="st2" d="M764.1,227.9c-2.5,0-4.5-2-4.5-4.5c0-2.5,2-4.5,4.5-4.5s4.5,2,4.5,4.4v0.1
				C768.6,225.9,766.6,227.9,764.1,227.9z"/>
		</g>
		<path class="st4" d="M802.5,155.3l-47.9,11.6c-3.5,0.9-4.7,5.3-2.1,7.8l37.9,36.6c2.6,2.5,7,1.2,7.7-2.4l10-48.2
			C808.8,157.4,805.8,154.5,802.5,155.3z"/>
		<path class="st9" d="M774.5,183.8l10.8,48.1c0.8,3.5,5.2,4.8,7.7,2.2l37.3-37.3c2.6-2.6,1.3-6.9-2.2-7.7L780,178.3
			C776.7,177.6,773.8,180.5,774.5,183.8z"/>
		<path class="st12" d="M803.4,183.6l-5.2,25.4c-0.7,3.5-5.1,4.9-7.7,2.4l-12.4-12l-3.5-15.5c-0.7-3.3,2.2-6.2,5.5-5.5L803.4,183.6z
			"/>
		<path class="st6" d="M690.1,273.8h-2.4c-2.5,0-4.5-2-4.5-4.5c0-2.5,2-4.5,4.5-4.5h2.4c2.5,0,4.5,2,4.5,4.5
			C694.5,271.8,692.5,273.8,690.1,273.8z"/>
		<path class="st6" d="M715.9,273.8h-15.2c-2.5,0-4.5-2-4.5-4.5c0-2.5,2-4.5,4.5-4.5h15.2c2.5,0,4.5,2,4.5,4.5
			C720.4,271.8,718.4,273.8,715.9,273.8z"/>
		<path class="st6" d="M715.9,285.6h-28.3c-2.5,0-4.5-2-4.5-4.5c0-2.5,2-4.5,4.5-4.5h28.3c2.5,0,4.5,2,4.5,4.5
			C720.4,283.6,718.4,285.6,715.9,285.6z"/>
		<path class="st6" d="M715.9,297.4h-28.3c-2.5,0-4.5-2-4.5-4.5s2-4.5,4.5-4.5h28.3c2.5,0,4.5,2,4.5,4.5S718.4,297.4,715.9,297.4z"
			/>
		<path class="st4" d="M909.2,240.8c-2.5,0-4.5-2-4.5-4.5v-92.1c0-2.5,2-4.5,4.5-4.5c2.5,0,4.5,2,4.5,4.5v92.1
			C913.7,238.8,911.7,240.8,909.2,240.8z"/>
	</g>
	<g>
		<path class="st13" d="M300.3,302.6c2.2,2.8,3.3,6.1,3.3,9.8c0,5.3-1.8,9.5-5.5,12.5c-3.7,3.1-8.8,4.6-15.4,4.6h-29.4v-63.1h28.4
			c6.4,0,11.4,1.5,15.1,4.4c3.6,2.9,5.4,6.9,5.4,12c0,3.7-1,6.8-2.9,9.3c-1.9,2.5-4.5,4.2-7.8,5.1
			C295.2,298,298.1,299.8,300.3,302.6z M268.7,292h10.1c2.5,0,4.5-0.6,5.8-1.7c1.3-1.1,2-2.7,2-4.9c0-2.2-0.7-3.8-2-4.9
			c-1.3-1.1-3.3-1.7-5.8-1.7h-10.1V292z M286,315.4c1.4-1.2,2.1-2.9,2.1-5.1c0-2.2-0.7-4-2.2-5.2c-1.5-1.3-3.5-1.9-6.1-1.9h-11.2
			v13.9H280C282.6,317.2,284.6,316.6,286,315.4z"/>
		<path class="st13" d="M322.2,327.2c-3.9-2.1-7-5.1-9.3-9c-2.2-3.9-3.4-8.5-3.4-13.7c0-5.2,1.1-9.7,3.4-13.6c2.3-3.9,5.4-6.9,9.4-9
			c4-2.1,8.4-3.1,13.3-3.1c4.9,0,9.4,1,13.3,3.1c4,2.1,7.1,5.1,9.4,9c2.3,3.9,3.4,8.5,3.4,13.6c0,5.2-1.2,9.7-3.5,13.6
			c-2.3,3.9-5.5,6.9-9.4,9c-4,2.1-8.4,3.1-13.4,3.1C330.5,330.3,326.1,329.3,322.2,327.2z M342.9,313.8c2.1-2.2,3.1-5.2,3.1-9.3
			c0-4-1-7.1-3-9.3c-2-2.2-4.5-3.2-7.4-3.2c-3,0-5.5,1.1-7.5,3.2c-2,2.1-3,5.2-3,9.3c0,4,1,7.1,2.9,9.3c1.9,2.2,4.4,3.2,7.3,3.2
			S340.9,315.9,342.9,313.8z"/>
		<path class="st13" d="M369.7,290.8c1.9-3.9,4.6-6.9,8-9c3.4-2.1,7.1-3.1,11.2-3.1c3.5,0,6.6,0.7,9.3,2.2c2.7,1.4,4.7,3.3,6.2,5.7
			v-7.1h15.4v50.2h-15.4v-7.1c-1.5,2.3-3.6,4.2-6.3,5.7c-2.7,1.4-5.8,2.2-9.3,2.2c-4.1,0-7.8-1.1-11.2-3.2c-3.4-2.1-6-5.2-8-9.1
			c-1.9-3.9-2.9-8.5-2.9-13.6C366.8,299.2,367.8,294.7,369.7,290.8z M401.2,295.4c-2.1-2.2-4.7-3.3-7.8-3.3s-5.7,1.1-7.8,3.3
			c-2.1,2.2-3.2,5.2-3.2,9s1.1,6.9,3.2,9.1c2.1,2.2,4.7,3.4,7.8,3.4s5.7-1.1,7.8-3.3c2.1-2.2,3.2-5.2,3.2-9.1
			C404.4,300.6,403.4,297.6,401.2,295.4z"/>
		<path class="st13" d="M453.1,281.2c2.7-1.6,5.7-2.4,9-2.4v16.3h-4.2c-3.8,0-6.7,0.8-8.6,2.5c-1.9,1.7-2.9,4.5-2.9,8.7v23.3H431
			v-50.2h15.4v8.4C448.1,285,450.4,282.8,453.1,281.2z"/>
		<path class="st13" d="M469.3,290.8c1.9-3.9,4.6-6.9,8-9c3.4-2.1,7.1-3.1,11.2-3.1c3.3,0,6.3,0.7,9,2.1c2.7,1.4,4.9,3.2,6.4,5.6
			V263h15.4v66.6H504v-7.2c-1.4,2.4-3.5,4.3-6.2,5.8c-2.7,1.4-5.8,2.2-9.3,2.2c-4.1,0-7.9-1.1-11.2-3.2c-3.4-2.1-6-5.2-8-9.1
			c-1.9-3.9-2.9-8.5-2.9-13.6C466.4,299.2,467.4,294.7,469.3,290.8z M500.8,295.4c-2.1-2.2-4.7-3.3-7.8-3.3s-5.7,1.1-7.8,3.3
			c-2.1,2.2-3.2,5.2-3.2,9s1.1,6.9,3.2,9.1c2.1,2.2,4.7,3.4,7.8,3.4s5.7-1.1,7.8-3.3c2.1-2.2,3.2-5.2,3.2-9.1
			C504,300.6,502.9,297.6,500.8,295.4z"/>
		<path class="st13" d="M281.3,424.5v13h-7.8c-5.6,0-9.9-1.4-13-4.1c-3.1-2.7-4.7-7.2-4.7-13.4v-20h-6.1v-12.8h6.1v-12.2h15.4v12.2
			h10.1v12.8h-10.1v20.2c0,1.5,0.4,2.6,1.1,3.2c0.7,0.7,1.9,1,3.6,1H281.3z"/>
		<path class="st13" d="M334.5,392.5c3.5,3.8,5.2,9,5.2,15.7v29.3h-15.3v-27.3c0-3.4-0.9-6-2.6-7.8c-1.7-1.9-4.1-2.8-7-2.8
			c-2.9,0-5.3,0.9-7,2.8c-1.7,1.9-2.6,4.5-2.6,7.8v27.3h-15.4V371h15.4v23.1c1.6-2.2,3.7-4,6.4-5.3c2.7-1.3,5.7-2,9.1-2
			C326.4,386.8,331.1,388.7,334.5,392.5z"/>
		<path class="st13" d="M397.5,416.1h-34.8c0.2,3.1,1.2,5.5,3,7.2c1.8,1.6,3.9,2.5,6.5,2.5c3.8,0,6.5-1.6,8-4.9h16.4
			c-0.8,3.3-2.4,6.3-4.5,8.9c-2.2,2.6-4.9,4.7-8.2,6.2c-3.3,1.5-7,2.2-11.1,2.2c-4.9,0-9.3-1-13.1-3.1c-3.8-2.1-6.8-5.1-9-9
			c-2.2-3.9-3.2-8.5-3.2-13.7s1.1-9.8,3.2-13.7c2.1-3.9,5.1-6.9,9-9c3.8-2.1,8.2-3.1,13.2-3.1c4.9,0,9.2,1,13,3.1
			c3.8,2,6.7,4.9,8.9,8.7c2.1,3.8,3.2,8.2,3.2,13.2C397.8,413.1,397.7,414.6,397.5,416.1z M382,407.6c0-2.6-0.9-4.7-2.7-6.3
			s-4-2.3-6.7-2.3c-2.6,0-4.8,0.8-6.5,2.2c-1.8,1.5-2.9,3.6-3.3,6.4H382z"/>
		<path class="st13" d="M470.4,374.4v12.3h-16.7v50.8h-15.4v-50.8h-16.7v-12.3H470.4z"/>
		<path class="st13" d="M500.2,389.2c2.7-1.6,5.7-2.4,9-2.4v16.3H505c-3.8,0-6.7,0.8-8.6,2.5c-1.9,1.7-2.9,4.5-2.9,8.7v23.3h-15.4
			v-50.2h15.4v8.4C495.3,392.9,497.5,390.8,500.2,389.2z"/>
		<path class="st13" d="M516.5,398.8c1.9-3.9,4.6-6.9,8-9c3.4-2.1,7.1-3.1,11.2-3.1c3.5,0,6.6,0.7,9.3,2.2c2.7,1.4,4.7,3.3,6.2,5.7
			v-7.1h15.4v50.2h-15.4v-7.1c-1.5,2.3-3.6,4.2-6.3,5.7c-2.7,1.4-5.8,2.2-9.3,2.2c-4.1,0-7.8-1.1-11.2-3.2c-3.4-2.1-6-5.2-8-9.1
			c-1.9-3.9-2.9-8.5-2.9-13.6C513.5,407.2,514.5,402.7,516.5,398.8z M547.9,403.3c-2.1-2.2-4.7-3.3-7.8-3.3s-5.7,1.1-7.8,3.3
			c-2.1,2.2-3.2,5.2-3.2,9s1.1,6.9,3.2,9.1c2.1,2.2,4.7,3.4,7.8,3.4s5.7-1.1,7.8-3.3c2.1-2.2,3.2-5.2,3.2-9.1
			C551.1,408.6,550.1,405.6,547.9,403.3z"/>
		<path class="st13" d="M578.8,379.7c-1.7-1.6-2.6-3.6-2.6-5.9c0-2.4,0.9-4.4,2.6-6c1.7-1.6,3.9-2.4,6.6-2.4c2.6,0,4.8,0.8,6.5,2.4
			c1.7,1.6,2.6,3.6,2.6,6c0,2.3-0.9,4.3-2.6,5.9c-1.7,1.6-3.9,2.4-6.5,2.4C582.7,382.1,580.5,381.3,578.8,379.7z M593.1,387.3v50.2
			h-15.4v-50.2H593.1z"/>
		<path class="st13" d="M648.9,392.5c3.5,3.8,5.3,9,5.3,15.7v29.3h-15.3v-27.3c0-3.4-0.9-6-2.6-7.8c-1.7-1.9-4.1-2.8-7-2.8
			c-2.9,0-5.3,0.9-7,2.8c-1.7,1.9-2.6,4.5-2.6,7.8v27.3h-15.4v-50.2h15.4v6.7c1.6-2.2,3.7-4,6.3-5.3c2.6-1.3,5.6-1.9,8.9-1.9
			C640.7,386.8,645.4,388.7,648.9,392.5z"/>
	</g>
	<g>
		<path class="st13" d="M254.8,529c2.5-4.3,5.8-7.7,10-10.2c4.2-2.5,8.9-3.7,14.1-3.7c6.1,0,11.4,1.5,15.9,4.4
			c4.5,2.9,7.8,7.1,9.9,12.5h-8.7c-1.5-3.4-3.8-5.9-6.7-7.8c-2.9-1.8-6.4-2.7-10.4-2.7c-3.9,0-7.4,0.9-10.5,2.7
			c-3.1,1.8-5.5,4.4-7.3,7.7c-1.8,3.3-2.6,7.2-2.6,11.7c0,4.4,0.9,8.3,2.6,11.6c1.8,3.3,4.2,5.9,7.3,7.7c3.1,1.8,6.6,2.7,10.5,2.7
			c4.1,0,7.5-0.9,10.4-2.7c2.9-1.8,5.1-4.4,6.7-7.7h8.7c-2.1,5.3-5.4,9.4-9.9,12.4c-4.5,2.9-9.8,4.4-15.9,4.4
			c-5.2,0-9.9-1.2-14.1-3.6c-4.2-2.4-7.6-5.8-10-10.1c-2.5-4.3-3.7-9.2-3.7-14.6S252.4,533.3,254.8,529z"/>
		<path class="st13" d="M346.3,529.1c2.7,1.4,4.8,3.5,6.3,6.4c1.5,2.8,2.3,6.3,2.3,10.3v25.8h-7.2v-24.8c0-4.4-1.1-7.7-3.3-10
			c-2.2-2.3-5.2-3.5-9-3.5c-3.8,0-6.9,1.2-9.2,3.6c-2.3,2.4-3.4,5.9-3.4,10.5v24.2h-7.3v-59.2h7.3V534c1.4-2.2,3.4-4,6-5.2
			c2.5-1.2,5.4-1.8,8.5-1.8C340.7,526.9,343.7,527.6,346.3,529.1z"/>
		<path class="st13" d="M374.7,569.5c-3.3-1.9-5.9-4.5-7.8-8c-1.9-3.4-2.8-7.4-2.8-12c0-4.5,1-8.4,2.9-11.9c1.9-3.4,4.6-6.1,8-7.9
			c3.4-1.8,7.1-2.8,11.3-2.8c4.2,0,7.9,0.9,11.3,2.8c3.4,1.8,6,4.5,8,7.9c1.9,3.4,2.9,7.4,2.9,11.9c0,4.5-1,8.5-3,12s-4.7,6.1-8.1,8
			c-3.4,1.9-7.2,2.8-11.4,2.8C381.8,572.3,378.1,571.3,374.7,569.5z M393.3,564c2.3-1.2,4.1-3.1,5.6-5.5c1.4-2.5,2.1-5.4,2.1-9
			s-0.7-6.5-2.1-9c-1.4-2.5-3.2-4.3-5.4-5.5c-2.2-1.2-4.7-1.8-7.3-1.8c-2.7,0-5.1,0.6-7.3,1.8c-2.2,1.2-4,3-5.3,5.5
			c-1.3,2.5-2,5.4-2,9c0,3.6,0.7,6.6,2,9c1.3,2.5,3.1,4.3,5.2,5.5c2.2,1.2,4.6,1.8,7.2,1.8C388.5,565.9,391,565.3,393.3,564z"/>
		<path class="st13" d="M425.9,569.5c-3.3-1.9-5.9-4.5-7.8-8c-1.9-3.4-2.8-7.4-2.8-12c0-4.5,1-8.4,2.9-11.9c1.9-3.4,4.6-6.1,8-7.9
			c3.4-1.8,7.1-2.8,11.3-2.8c4.2,0,7.9,0.9,11.3,2.8c3.4,1.8,6,4.5,8,7.9c1.9,3.4,2.9,7.4,2.9,11.9c0,4.5-1,8.5-3,12s-4.7,6.1-8.1,8
			c-3.4,1.9-7.2,2.8-11.4,2.8C433,572.3,429.2,571.3,425.9,569.5z M444.4,564c2.3-1.2,4.1-3.1,5.6-5.5c1.4-2.5,2.1-5.4,2.1-9
			s-0.7-6.5-2.1-9c-1.4-2.5-3.2-4.3-5.4-5.5c-2.2-1.2-4.7-1.8-7.3-1.8c-2.7,0-5.1,0.6-7.3,1.8c-2.2,1.2-4,3-5.3,5.5
			c-1.3,2.5-2,5.4-2,9c0,3.6,0.7,6.6,2,9c1.3,2.5,3.1,4.3,5.2,5.5c2.2,1.2,4.6,1.8,7.2,1.8C439.7,565.9,442.1,565.3,444.4,564z"/>
		<path class="st13" d="M475.6,570.6c-2.7-1.1-4.8-2.7-6.3-4.8c-1.5-2.1-2.4-4.4-2.6-7.1h7.5c0.2,2.2,1.2,4,3.1,5.4
			c1.8,1.4,4.2,2.1,7.2,2.1c2.8,0,5-0.6,6.6-1.8c1.6-1.2,2.4-2.8,2.4-4.6c0-1.9-0.9-3.3-2.6-4.3c-1.7-0.9-4.3-1.9-7.9-2.8
			c-3.3-0.9-5.9-1.7-8-2.6c-2.1-0.9-3.8-2.2-5.3-3.9c-1.5-1.7-2.2-4-2.2-6.8c0-2.2,0.7-4.3,2-6.2c1.3-1.9,3.2-3.3,5.7-4.4
			c2.5-1.1,5.2-1.6,8.4-1.6c4.9,0,8.8,1.2,11.8,3.7c3,2.5,4.6,5.8,4.8,10.1H493c-0.2-2.3-1.1-4.1-2.8-5.5c-1.7-1.4-3.9-2.1-6.8-2.1
			c-2.6,0-4.7,0.6-6.2,1.7c-1.5,1.1-2.3,2.6-2.3,4.4c0,1.4,0.5,2.6,1.4,3.6c0.9,0.9,2.1,1.7,3.5,2.2c1.4,0.6,3.4,1.2,5.9,1.9
			c3.1,0.9,5.7,1.7,7.7,2.5c2,0.8,3.7,2.1,5.1,3.7c1.4,1.7,2.1,3.8,2.2,6.5c0,2.4-0.7,4.6-2,6.5c-1.3,1.9-3.2,3.4-5.6,4.5
			c-2.4,1.1-5.2,1.6-8.4,1.6C481.3,572.3,478.3,571.7,475.6,570.6z"/>
		<path class="st13" d="M550.6,552.4h-35c0.3,4.3,1.7,7.7,4.4,10.1c2.7,2.4,6,3.6,9.8,3.6c3.1,0,5.8-0.7,7.9-2.2
			c2.1-1.5,3.6-3.4,4.4-5.9h7.8c-1.2,4.2-3.5,7.6-7,10.3s-7.9,4-13.1,4c-4.2,0-7.9-0.9-11.2-2.8c-3.3-1.9-5.9-4.5-7.7-8
			c-1.9-3.4-2.8-7.4-2.8-12c0-4.5,0.9-8.5,2.7-11.9c1.8-3.4,4.4-6,7.6-7.9c3.3-1.8,7-2.8,11.3-2.8c4.2,0,7.8,0.9,11,2.7
			s5.7,4.3,7.4,7.5c1.7,3.2,2.6,6.8,2.6,10.8C550.9,549.4,550.8,550.8,550.6,552.4z M541.5,539.3c-1.2-2-2.9-3.5-5-4.6
			c-2.1-1-4.4-1.6-7-1.6c-3.7,0-6.8,1.2-9.4,3.5c-2.6,2.3-4.1,5.6-4.4,9.8h27.7C543.3,543.7,542.7,541.3,541.5,539.3z"/>
		<path class="st13" d="M581.8,537.7c1.8-3.4,4.3-6,7.5-7.9c3.2-1.9,6.7-2.8,10.6-2.8c3.8,0,7.2,0.8,10,2.5c2.8,1.7,4.9,3.7,6.3,6.2
			v-8h7.4v43.8h-7.4v-8.2c-1.4,2.6-3.6,4.7-6.4,6.4c-2.9,1.7-6.2,2.5-10,2.5c-3.9,0-7.4-1-10.6-2.9c-3.1-1.9-5.6-4.6-7.4-8.1
			c-1.8-3.5-2.7-7.4-2.7-11.8C579.1,545,580,541.1,581.8,537.7z M614.2,540.9c-1.3-2.5-3.1-4.3-5.4-5.6c-2.3-1.3-4.8-2-7.5-2
			s-5.2,0.6-7.4,1.9c-2.2,1.3-4,3.1-5.4,5.6c-1.3,2.5-2,5.3-2,8.6c0,3.4,0.7,6.3,2,8.8c1.3,2.5,3.1,4.4,5.4,5.7c2.2,1.3,4.7,2,7.4,2
			s5.2-0.7,7.5-2c2.3-1.3,4.1-3.2,5.4-5.7c1.3-2.5,2-5.4,2-8.7C616.2,546.3,615.5,543.4,614.2,540.9z"/>
		<path class="st13" d="M267.6,625.5c2.9-1.7,6.2-2.5,10-2.5c3.9,0,7.4,0.9,10.6,2.8c3.2,1.9,5.7,4.5,7.5,7.9
			c1.8,3.4,2.7,7.3,2.7,11.8c0,4.4-0.9,8.4-2.7,11.8c-1.8,3.5-4.3,6.2-7.5,8.1s-6.7,2.9-10.6,2.9c-3.7,0-7-0.8-9.9-2.5
			c-2.9-1.7-5-3.8-6.5-6.3v28.9h-7.3v-64.6h7.3v8.1C262.6,629.3,264.7,627.2,267.6,625.5z M288.9,636.8c-1.3-2.5-3.1-4.3-5.4-5.6
			s-4.8-1.9-7.5-1.9c-2.7,0-5.1,0.7-7.4,2c-2.3,1.3-4.1,3.2-5.4,5.7c-1.4,2.5-2,5.3-2,8.6c0,3.3,0.7,6.2,2,8.7s3.2,4.4,5.4,5.7
			c2.3,1.3,4.7,2,7.4,2c2.7,0,5.2-0.7,7.5-2c2.3-1.3,4.1-3.2,5.4-5.7c1.3-2.5,2-5.4,2-8.8C290.9,642.1,290.2,639.3,288.9,636.8z"/>
		<path class="st13" d="M320.7,625c2.4-1.4,5.3-2.1,8.7-2.1v7.5h-1.9c-8.2,0-12.2,4.4-12.2,13.3v23.8h-7.3v-43.8h7.3v7.1
			C316.5,628.3,318.3,626.4,320.7,625z"/>
		<path class="st13" d="M345.7,665.4c-3.3-1.9-5.9-4.5-7.8-8c-1.9-3.4-2.8-7.4-2.8-12c0-4.5,1-8.4,2.9-11.9c1.9-3.4,4.6-6.1,8-7.9
			c3.4-1.8,7.1-2.8,11.3-2.8c4.2,0,7.9,0.9,11.3,2.8c3.4,1.8,6,4.5,8,7.9c1.9,3.4,2.9,7.4,2.9,11.9c0,4.5-1,8.5-3,12s-4.7,6.1-8.1,8
			c-3.4,1.9-7.2,2.8-11.4,2.8C352.8,668.2,349,667.3,345.7,665.4z M364.2,660c2.3-1.2,4.1-3.1,5.6-5.5c1.4-2.5,2.1-5.4,2.1-9
			s-0.7-6.5-2.1-9c-1.4-2.5-3.2-4.3-5.4-5.5c-2.2-1.2-4.7-1.8-7.3-1.8c-2.7,0-5.1,0.6-7.3,1.8c-2.2,1.2-4,3-5.3,5.5
			c-1.3,2.5-2,5.4-2,9c0,3.6,0.7,6.6,2,9c1.3,2.5,3.1,4.3,5.2,5.5c2.2,1.2,4.6,1.8,7.2,1.8C359.5,661.8,361.9,661.2,364.2,660z"/>
		<path class="st13" d="M417,625.5c2.9,1.7,5,3.7,6.4,6.2v-8h7.4v44.8c0,4-0.9,7.6-2.6,10.7c-1.7,3.1-4.1,5.6-7.3,7.3
			c-3.2,1.8-6.9,2.6-11.1,2.6c-5.8,0-10.6-1.4-14.4-4.1s-6.1-6.4-6.8-11.1h7.2c0.8,2.7,2.5,4.8,5,6.4c2.5,1.6,5.5,2.4,9,2.4
			c4,0,7.3-1.3,9.8-3.8c2.5-2.5,3.8-6,3.8-10.6v-9.2c-1.4,2.6-3.6,4.7-6.4,6.4c-2.8,1.7-6.1,2.6-9.9,2.6c-3.9,0-7.4-1-10.6-2.9
			c-3.2-1.9-5.7-4.6-7.5-8.1c-1.8-3.5-2.7-7.4-2.7-11.8c0-4.5,0.9-8.4,2.7-11.8c1.8-3.4,4.3-6,7.5-7.9c3.2-1.9,6.7-2.8,10.6-2.8
			C410.8,623,414.1,623.8,417,625.5z M421.3,636.9c-1.3-2.5-3.1-4.3-5.4-5.6c-2.3-1.3-4.8-2-7.5-2s-5.2,0.6-7.4,1.9
			c-2.2,1.3-4,3.1-5.4,5.6c-1.3,2.5-2,5.3-2,8.6c0,3.4,0.7,6.3,2,8.8c1.3,2.5,3.1,4.4,5.4,5.7c2.2,1.3,4.7,2,7.4,2s5.2-0.7,7.5-2
			c2.3-1.3,4.1-3.2,5.4-5.7c1.3-2.5,2-5.4,2-8.7C423.3,642.2,422.7,639.3,421.3,636.9z"/>
		<path class="st13" d="M455.7,625c2.4-1.4,5.3-2.1,8.7-2.1v7.5h-1.9c-8.2,0-12.2,4.4-12.2,13.3v23.8H443v-43.8h7.3v7.1
			C451.5,628.3,453.4,626.4,455.7,625z"/>
		<path class="st13" d="M472.8,633.7c1.8-3.4,4.3-6,7.5-7.9c3.2-1.9,6.7-2.8,10.6-2.8c3.8,0,7.2,0.8,10,2.5c2.8,1.7,4.9,3.7,6.3,6.2
			v-8h7.4v43.8h-7.4v-8.2c-1.4,2.6-3.6,4.7-6.4,6.4c-2.9,1.7-6.2,2.5-10,2.5c-3.9,0-7.4-1-10.6-2.9c-3.1-1.9-5.6-4.6-7.4-8.1
			c-1.8-3.5-2.7-7.4-2.7-11.8C470.1,641,471,637,472.8,633.7z M505.2,636.9c-1.3-2.5-3.1-4.3-5.4-5.6c-2.3-1.3-4.8-2-7.5-2
			s-5.2,0.6-7.4,1.9c-2.2,1.3-4,3.1-5.4,5.6c-1.3,2.5-2,5.3-2,8.6c0,3.4,0.7,6.3,2,8.8c1.3,2.5,3.1,4.4,5.4,5.7c2.2,1.3,4.7,2,7.4,2
			s5.2-0.7,7.5-2c2.3-1.3,4.1-3.2,5.4-5.7c1.3-2.5,2-5.4,2-8.7C507.2,642.2,506.5,639.3,505.2,636.9z"/>
		<path class="st13" d="M588.7,625c2.7,1.4,4.8,3.5,6.3,6.4c1.5,2.8,2.3,6.3,2.3,10.3v25.8h-7.2v-24.8c0-4.4-1.1-7.7-3.2-10
			c-2.2-2.3-5.1-3.5-8.8-3.5c-3.8,0-6.8,1.2-9,3.6c-2.2,2.4-3.4,5.9-3.4,10.5v24.1h-7.2v-24.8c0-4.4-1.1-7.7-3.2-10
			c-2.2-2.3-5.1-3.5-8.8-3.5c-3.8,0-6.8,1.2-9,3.6c-2.2,2.4-3.4,5.9-3.4,10.5v24.1h-7.3v-43.8h7.3v6.3c1.4-2.3,3.4-4.1,5.8-5.3
			c2.4-1.2,5.1-1.8,8-1.8c3.7,0,6.9,0.8,9.8,2.5c2.8,1.7,4.9,4.1,6.3,7.3c1.2-3.1,3.3-5.5,6.1-7.2c2.8-1.7,6-2.6,9.4-2.6
			C583,622.9,586,623.6,588.7,625z"/>
		<path class="st13" d="M639.5,629.7v25.8c0,2.1,0.5,3.6,1.4,4.5c0.9,0.9,2.5,1.3,4.7,1.3h5.4v6.2h-6.6c-4.1,0-7.1-0.9-9.1-2.8
			c-2-1.9-3-4.9-3-9.2v-25.8h-5.7v-6h5.7v-11h7.3v11h11.4v6H639.5z"/>
		<path class="st13" d="M690.4,625c2.7,1.4,4.8,3.5,6.3,6.4c1.5,2.8,2.3,6.3,2.3,10.3v25.8h-7.2v-24.8c0-4.4-1.1-7.7-3.3-10
			c-2.2-2.3-5.2-3.5-9-3.5c-3.8,0-6.9,1.2-9.2,3.6c-2.3,2.4-3.4,5.9-3.4,10.5v24.2h-7.3v-59.2h7.3v21.6c1.4-2.2,3.4-4,6-5.2
			c2.5-1.2,5.4-1.8,8.5-1.8C684.7,622.9,687.7,623.6,690.4,625z"/>
		<path class="st13" d="M710.9,633.7c1.8-3.4,4.3-6,7.5-7.9c3.2-1.9,6.7-2.8,10.6-2.8c3.8,0,7.2,0.8,10,2.5c2.8,1.7,4.9,3.7,6.3,6.2
			v-8h7.4v43.8h-7.4v-8.2c-1.4,2.6-3.6,4.7-6.4,6.4c-2.9,1.7-6.2,2.5-10,2.5c-3.9,0-7.4-1-10.6-2.9c-3.1-1.9-5.6-4.6-7.4-8.1
			c-1.8-3.5-2.7-7.4-2.7-11.8C708.1,641,709,637,710.9,633.7z M743.2,636.9c-1.3-2.5-3.1-4.3-5.4-5.6c-2.3-1.3-4.8-2-7.5-2
			s-5.2,0.6-7.4,1.9c-2.2,1.3-4,3.1-5.4,5.6c-1.3,2.5-2,5.3-2,8.6c0,3.4,0.7,6.3,2,8.8c1.3,2.5,3.1,4.4,5.4,5.7c2.2,1.3,4.7,2,7.4,2
			s5.2-0.7,7.5-2c2.3-1.3,4.1-3.2,5.4-5.7c1.3-2.5,2-5.4,2-8.7C745.2,642.2,744.6,639.3,743.2,636.9z"/>
		<path class="st13" d="M773.8,629.7v25.8c0,2.1,0.5,3.6,1.4,4.5c0.9,0.9,2.5,1.3,4.7,1.3h5.4v6.2h-6.6c-4.1,0-7.1-0.9-9.1-2.8
			c-2-1.9-3-4.9-3-9.2v-25.8h-5.7v-6h5.7v-11h7.3v11h11.4v6H773.8z"/>
		<path class="st13" d="M293.6,744.3h-35c0.3,4.3,1.7,7.7,4.4,10.1c2.7,2.4,6,3.6,9.8,3.6c3.1,0,5.8-0.7,7.9-2.2
			c2.1-1.5,3.6-3.4,4.4-5.9h7.8c-1.2,4.2-3.5,7.6-7,10.3s-7.9,4-13.1,4c-4.2,0-7.9-0.9-11.2-2.8c-3.3-1.9-5.9-4.5-7.7-8
			c-1.9-3.4-2.8-7.4-2.8-12c0-4.5,0.9-8.5,2.7-11.9c1.8-3.4,4.4-6,7.6-7.9c3.3-1.8,7-2.8,11.3-2.8c4.2,0,7.8,0.9,11,2.7
			s5.7,4.3,7.4,7.5c1.7,3.2,2.6,6.8,2.6,10.8C293.9,741.3,293.8,742.7,293.6,744.3z M284.5,731.2c-1.2-2-2.9-3.5-5-4.6
			c-2.1-1-4.4-1.6-7-1.6c-3.7,0-6.8,1.2-9.4,3.5c-2.6,2.3-4.1,5.6-4.4,9.8h27.7C286.3,735.6,285.7,733.2,284.5,731.2z"/>
		<path class="st13" d="M326.3,763.5l-10.4-16.3l-10,16.3h-7.6l14.2-21.7l-14.2-22.1h8.2l10.4,16.2l9.9-16.2h7.6l-14.1,21.7
			l14.2,22.1H326.3z"/>
		<path class="st13" d="M341.8,729.6c1.8-3.4,4.3-6,7.6-7.9c3.2-1.9,6.9-2.8,11.1-2.8c5.4,0,9.8,1.3,13.3,3.9
			c3.5,2.6,5.8,6.2,6.9,10.9h-7.8c-0.7-2.7-2.2-4.8-4.4-6.3c-2.2-1.5-4.8-2.3-8-2.3c-4.2,0-7.5,1.4-10.1,4.3
			c-2.6,2.9-3.8,6.9-3.8,12.1c0,5.3,1.3,9.4,3.8,12.2c2.6,2.9,5.9,4.3,10.1,4.3c3.2,0,5.9-0.7,8-2.2c2.1-1.5,3.6-3.6,4.4-6.4h7.8
			c-1.2,4.5-3.5,8.1-7,10.8c-3.5,2.7-7.9,4-13.2,4c-4.2,0-7.8-0.9-11.1-2.8c-3.2-1.9-5.7-4.5-7.6-7.9c-1.8-3.4-2.7-7.4-2.7-12
			C339,736.9,339.9,733,341.8,729.6z"/>
		<path class="st13" d="M390.5,711.1c-1-1-1.4-2.1-1.4-3.5c0-1.4,0.5-2.6,1.4-3.5c1-1,2.1-1.4,3.5-1.4c1.3,0,2.5,0.5,3.4,1.4
			c0.9,1,1.4,2.1,1.4,3.5c0,1.4-0.5,2.6-1.4,3.5c-0.9,1-2.1,1.4-3.4,1.4C392.7,712.5,391.5,712.1,390.5,711.1z M397.6,719.6v43.8
			h-7.3v-43.8H397.6z"/>
		<path class="st13" d="M418.8,725.6v25.8c0,2.1,0.5,3.6,1.4,4.5c0.9,0.9,2.5,1.3,4.7,1.3h5.4v6.2h-6.6c-4.1,0-7.1-0.9-9.1-2.8
			c-2-1.9-3-4.9-3-9.2v-25.8h-5.7v-6h5.7v-11h7.3v11h11.4v6H418.8z"/>
		<path class="st13" d="M478.8,744.3h-35c0.3,4.3,1.7,7.7,4.4,10.1c2.7,2.4,6,3.6,9.8,3.6c3.1,0,5.8-0.7,7.9-2.2
			c2.1-1.5,3.6-3.4,4.4-5.9h7.8c-1.2,4.2-3.5,7.6-7,10.3s-7.9,4-13.1,4c-4.2,0-7.9-0.9-11.2-2.8c-3.3-1.9-5.9-4.5-7.7-8
			c-1.9-3.4-2.8-7.4-2.8-12c0-4.5,0.9-8.5,2.7-11.9c1.8-3.4,4.4-6,7.6-7.9c3.3-1.8,7-2.8,11.3-2.8c4.2,0,7.8,0.9,11,2.7
			s5.7,4.3,7.4,7.5c1.7,3.2,2.6,6.8,2.6,10.8C479.1,741.3,479,742.7,478.8,744.3z M469.7,731.2c-1.2-2-2.9-3.5-5-4.6
			c-2.1-1-4.4-1.6-7-1.6c-3.7,0-6.8,1.2-9.4,3.5c-2.6,2.3-4.1,5.6-4.4,9.8h27.7C471.5,735.6,470.9,733.2,469.7,731.2z"/>
		<path class="st13" d="M495.1,762.5c-2.7-1.1-4.8-2.7-6.3-4.8c-1.5-2.1-2.4-4.4-2.6-7.1h7.5c0.2,2.2,1.2,4,3.1,5.4
			c1.8,1.4,4.2,2.1,7.2,2.1c2.8,0,5-0.6,6.6-1.8c1.6-1.2,2.4-2.8,2.4-4.6c0-1.9-0.9-3.3-2.6-4.3c-1.7-0.9-4.3-1.9-7.9-2.8
			c-3.3-0.9-5.9-1.7-8-2.6c-2.1-0.9-3.8-2.2-5.3-3.9c-1.5-1.7-2.2-4-2.2-6.8c0-2.2,0.7-4.3,2-6.2c1.3-1.9,3.2-3.3,5.7-4.4
			c2.5-1.1,5.2-1.6,8.4-1.6c4.9,0,8.8,1.2,11.8,3.7c3,2.5,4.6,5.8,4.8,10.1h-7.3c-0.2-2.3-1.1-4.1-2.8-5.5c-1.7-1.4-3.9-2.1-6.8-2.1
			c-2.6,0-4.7,0.6-6.2,1.7c-1.5,1.1-2.3,2.6-2.3,4.4c0,1.4,0.5,2.6,1.4,3.6c0.9,0.9,2.1,1.7,3.5,2.2c1.4,0.6,3.4,1.2,5.9,1.9
			c3.1,0.9,5.7,1.7,7.7,2.5c2,0.8,3.7,2.1,5.1,3.7c1.4,1.7,2.1,3.8,2.2,6.5c0,2.4-0.7,4.6-2,6.5c-1.3,1.9-3.2,3.4-5.6,4.5
			c-2.4,1.1-5.2,1.6-8.4,1.6C500.8,764.2,497.8,763.6,495.1,762.5z"/>
		<path class="st13" d="M589.5,719.6l-26.4,64.4h-7.5l8.6-21.1l-17.7-43.3h8.1l13.8,35.5l13.6-35.5H589.5z"/>
		<path class="st13" d="M604.7,761.4c-3.3-1.9-5.9-4.5-7.8-8c-1.9-3.4-2.8-7.4-2.8-12c0-4.5,1-8.4,2.9-11.9c1.9-3.4,4.6-6.1,8-7.9
			c3.4-1.8,7.1-2.8,11.3-2.8c4.2,0,7.9,0.9,11.3,2.8c3.4,1.8,6,4.5,8,7.9c1.9,3.4,2.9,7.4,2.9,11.9c0,4.5-1,8.5-3,12s-4.7,6.1-8.1,8
			c-3.4,1.9-7.2,2.8-11.4,2.8C611.8,764.2,608,763.3,604.7,761.4z M623.2,756c2.3-1.2,4.1-3.1,5.6-5.5c1.4-2.5,2.1-5.4,2.1-9
			s-0.7-6.5-2.1-9c-1.4-2.5-3.2-4.3-5.4-5.5c-2.2-1.2-4.7-1.8-7.3-1.8c-2.7,0-5.1,0.6-7.3,1.8c-2.2,1.2-4,3-5.3,5.5
			c-1.3,2.5-2,5.4-2,9c0,3.6,0.7,6.6,2,9c1.3,2.5,3.1,4.3,5.2,5.5c2.2,1.2,4.6,1.8,7.2,1.8C618.5,757.8,620.9,757.2,623.2,756z"/>
		<path class="st13" d="M686.8,719.6v43.8h-7.3V757c-1.4,2.2-3.3,4-5.8,5.2s-5.2,1.9-8.2,1.9c-3.4,0-6.5-0.7-9.2-2.1
			c-2.7-1.4-4.9-3.5-6.4-6.4c-1.6-2.8-2.4-6.3-2.4-10.3v-25.7h7.2v24.7c0,4.3,1.1,7.6,3.3,10c2.2,2.3,5.2,3.5,9,3.5
			c3.9,0,7-1.2,9.2-3.6c2.2-2.4,3.4-5.9,3.4-10.5v-24.1H686.8z"/>
		<path class="st13" d="M711.9,720.9c2.4-1.4,5.3-2.1,8.7-2.1v7.5h-1.9c-8.2,0-12.2,4.4-12.2,13.3v23.8h-7.3v-43.8h7.3v7.1
			C707.7,724.3,709.5,722.3,711.9,720.9z"/>
		<path class="st13" d="M750.3,729.6c1.8-3.4,4.3-6,7.6-7.9c3.2-1.9,6.9-2.8,11.1-2.8c5.4,0,9.8,1.3,13.3,3.9
			c3.5,2.6,5.8,6.2,6.9,10.9h-7.8c-0.7-2.7-2.2-4.8-4.4-6.3c-2.2-1.5-4.8-2.3-8-2.3c-4.2,0-7.5,1.4-10.1,4.3
			c-2.6,2.9-3.8,6.9-3.8,12.1c0,5.3,1.3,9.4,3.8,12.2c2.6,2.9,5.9,4.3,10.1,4.3c3.2,0,5.9-0.7,8-2.2c2.1-1.5,3.6-3.6,4.4-6.4h7.8
			c-1.2,4.5-3.5,8.1-7,10.8c-3.5,2.7-7.9,4-13.2,4c-4.2,0-7.8-0.9-11.1-2.8c-3.2-1.9-5.7-4.5-7.6-7.9c-1.8-3.4-2.7-7.4-2.7-12
			C747.6,736.9,748.5,733,750.3,729.6z"/>
		<path class="st13" d="M829.5,721c2.7,1.4,4.8,3.5,6.3,6.4c1.5,2.8,2.3,6.3,2.3,10.3v25.8h-7.2v-24.8c0-4.4-1.1-7.7-3.3-10
			c-2.2-2.3-5.2-3.5-9-3.5c-3.8,0-6.9,1.2-9.2,3.6c-2.3,2.4-3.4,5.9-3.4,10.5v24.2h-7.3v-59.2h7.3v21.6c1.4-2.2,3.4-4,6-5.2
			c2.5-1.2,5.4-1.8,8.5-1.8C823.9,718.8,826.9,719.6,829.5,721z"/>
		<path class="st13" d="M850.2,711.1c-1-1-1.4-2.1-1.4-3.5c0-1.4,0.5-2.6,1.4-3.5c1-1,2.1-1.4,3.5-1.4c1.3,0,2.5,0.5,3.4,1.4
			c0.9,1,1.4,2.1,1.4,3.5c0,1.4-0.5,2.6-1.4,3.5c-0.9,1-2.1,1.4-3.4,1.4C852.4,712.5,851.2,712.1,850.2,711.1z M857.3,719.6v43.8
			H850v-43.8H857.3z"/>
		<path class="st13" d="M876.9,704.3v59.2h-7.3v-59.2H876.9z"/>
		<path class="st13" d="M889.3,729.6c1.8-3.4,4.3-6,7.5-7.9c3.2-1.9,6.7-2.8,10.7-2.8c3.4,0,6.6,0.8,9.5,2.4
			c2.9,1.6,5.2,3.6,6.7,6.2v-23.2h7.4v59.2h-7.4v-8.2c-1.4,2.6-3.6,4.8-6.4,6.4c-2.8,1.7-6.1,2.5-9.9,2.5c-3.9,0-7.4-1-10.6-2.9
			c-3.2-1.9-5.7-4.6-7.5-8.1c-1.8-3.5-2.7-7.4-2.7-11.8C886.6,736.9,887.5,733,889.3,729.6z M921.7,732.8c-1.3-2.5-3.1-4.3-5.4-5.6
			c-2.3-1.3-4.8-2-7.5-2s-5.2,0.6-7.4,1.9c-2.2,1.3-4,3.1-5.4,5.6c-1.3,2.5-2,5.3-2,8.6c0,3.4,0.7,6.3,2,8.8
			c1.3,2.5,3.1,4.4,5.4,5.7c2.2,1.3,4.7,2,7.4,2s5.2-0.7,7.5-2c2.3-1.3,4.1-3.2,5.4-5.7c1.3-2.5,2-5.4,2-8.7
			C923.7,738.2,923,735.3,921.7,732.8z"/>
	</g>
</g>
</svg>
