<?xml version="1.0" encoding="utf-8"?>
<!-- Generator: Adobe Illustrator 26.0.1, SVG Export Plug-In . SVG Version: 6.00 Build 0)  -->
<svg version="1.1" id="Layer_1" xmlns="http://www.w3.org/2000/svg" xmlns:xlink="http://www.w3.org/1999/xlink" x="0px" y="0px"
	 viewBox="0 0 1000 1000" style="enable-background:new 0 0 1000 1000;" xml:space="preserve">
<style type="text/css">
	.st0{fill:#51B59F;}
	.st1{opacity:0.7;fill:#349B82;}
	.st2{fill:#FFFFFF;}
	.st3{fill:#CBC4CC;}
	.st4{fill:#FFDFCF;}
	.st5{fill:#FE646F;}
	.st6{fill:#2740B0;}
	.st7{fill:#1F3596;}
	.st8{fill:#EB9C8D;}
	.st9{fill:#FFB09E;}
	.st10{fill:#FD4755;}
	.st11{fill:#BB5D4C;}
	.st12{fill:#A44F3E;}
	.st13{fill:#883F2E;}
	.st14{fill:#FFCEBF;}
	.st15{fill:#FFE177;}
	.st16{fill:#97DA7B;}
	.st17{fill:#314DC9;}
	.st18{fill:#FB2B3A;}
</style>
<g>
	<polygon class="st0" points="496.7,992.4 592.7,826.1 400.7,826.1 	"/>
	<path class="st0" d="M872.2,181.3V825c0,19.3-15.6,34.9-34.9,34.9H156c-19.3,0-34.9-15.6-34.9-34.9V181.3
		c0-19.2,15.6-34.9,34.9-34.9h681.4C856.6,146.4,872.2,162,872.2,181.3z"/>
	<path class="st1" d="M872.2,605.9V825c0,19.3-15.6,34.9-34.9,34.9H156c-19.3,0-34.9-15.6-34.9-34.9V376.3
		C274.6,607.1,534.1,847.1,872.2,605.9z"/>
	<g>
		<path class="st2" d="M189,278.3c2.5-4.5,6-8.1,10.5-10.6c4.5-2.5,9.6-3.8,15.2-3.8c7,0,12.9,1.8,17.9,5.5c5,3.7,8.3,8.7,9.9,15
			h-15.7c-1.2-2.4-2.8-4.3-5-5.6c-2.1-1.3-4.6-1.9-7.3-1.9c-4.4,0-8,1.5-10.7,4.6c-2.7,3.1-4.1,7.2-4.1,12.3c0,5.1,1.4,9.2,4.1,12.3
			c2.7,3.1,6.3,4.6,10.7,4.6c2.7,0,5.2-0.6,7.3-1.9c2.1-1.3,3.8-3.1,5-5.6h15.7c-1.7,6.3-5,11.3-9.9,15c-5,3.6-10.9,5.5-17.9,5.5
			c-5.7,0-10.8-1.3-15.2-3.8c-4.5-2.5-8-6.1-10.5-10.6c-2.5-4.5-3.8-9.7-3.8-15.5C185.2,288,186.5,282.8,189,278.3z"/>
		<path class="st2" d="M260.2,320.9c-3.6-1.9-6.5-4.7-8.6-8.4c-2.1-3.6-3.1-7.9-3.1-12.7c0-4.8,1.1-9,3.2-12.7
			c2.1-3.6,5-6.4,8.7-8.4c3.7-1.9,7.8-2.9,12.4-2.9c4.6,0,8.7,1,12.4,2.9c3.7,1.9,6.6,4.7,8.7,8.4c2.1,3.6,3.2,7.9,3.2,12.7
			c0,4.8-1.1,9-3.2,12.7c-2.1,3.6-5.1,6.4-8.8,8.4c-3.7,1.9-7.8,2.9-12.4,2.9C267.9,323.8,263.8,322.9,260.2,320.9z M279.5,308.5
			c1.9-2,2.9-4.9,2.9-8.6c0-3.7-0.9-6.6-2.8-8.6c-1.9-2-4.2-3-6.9-3c-2.8,0-5.1,1-6.9,3c-1.8,2-2.8,4.9-2.8,8.6
			c0,3.7,0.9,6.6,2.7,8.6c1.8,2,4.1,3,6.8,3C275.2,311.5,277.5,310.5,279.5,308.5z"/>
		<path class="st2" d="M318.8,261.4v61.8h-14.3v-61.8H318.8z"/>
		<path class="st2" d="M343.4,261.4v61.8h-14.3v-61.8H343.4z"/>
		<path class="st2" d="M397.4,303.3h-32.3c0.2,2.9,1.2,5.1,2.8,6.6c1.6,1.5,3.7,2.3,6.1,2.3c3.6,0,6-1.5,7.4-4.5h15.2
			c-0.8,3.1-2.2,5.8-4.2,8.3c-2,2.5-4.6,4.4-7.6,5.8c-3.1,1.4-6.5,2.1-10.3,2.1c-4.6,0-8.6-1-12.2-2.9c-3.6-1.9-6.3-4.7-8.4-8.4
			c-2-3.6-3-7.9-3-12.7s1-9.1,3-12.7c2-3.6,4.7-6.4,8.3-8.4c3.6-1.9,7.7-2.9,12.3-2.9c4.5,0,8.5,0.9,12,2.8c3.5,1.9,6.2,4.6,8.2,8.1
			c2,3.5,3,7.6,3,12.3C397.7,300.5,397.6,301.9,397.4,303.3z M383.1,295.4c0-2.4-0.8-4.4-2.5-5.8c-1.7-1.4-3.8-2.2-6.3-2.2
			c-2.4,0-4.4,0.7-6.1,2.1c-1.6,1.4-2.7,3.4-3,5.9H383.1z"/>
		<path class="st2" d="M405.3,287.2c2-3.6,4.7-6.4,8.3-8.4c3.5-1.9,7.6-2.9,12.2-2.9c5.8,0,10.7,1.5,14.7,4.6
			c3.9,3.1,6.5,7.4,7.7,12.9h-15.2c-1.3-3.6-3.8-5.3-7.4-5.3c-2.6,0-4.7,1-6.3,3s-2.3,4.9-2.3,8.7c0,3.8,0.8,6.7,2.3,8.7
			c1.6,2,3.6,3,6.3,3c3.7,0,6.2-1.8,7.4-5.3h15.2c-1.2,5.5-3.8,9.7-7.8,12.9c-4,3.1-8.8,4.7-14.6,4.7c-4.6,0-8.6-1-12.2-2.9
			c-3.5-1.9-6.3-4.7-8.3-8.4c-2-3.6-3-7.9-3-12.7S403.3,290.8,405.3,287.2z"/>
		<path class="st2" d="M481.7,311.1v12.1h-7.3c-5.2,0-9.2-1.3-12.1-3.8c-2.9-2.5-4.3-6.7-4.3-12.4v-18.5h-5.7v-11.9h5.7v-11.4h14.3
			v11.4h9.4v11.9h-9.4v18.7c0,1.4,0.3,2.4,1,3c0.7,0.6,1.8,0.9,3.3,0.9H481.7z"/>
		<path class="st2" d="M201.9,376.2v11.9H221v11h-19.1V412h21.6v11.4h-35.9v-58.6h35.9v11.4H201.9z"/>
		<path class="st2" d="M260.4,423.4l-8.9-12.9l-7.5,12.9h-15.5l15.4-23.8l-15.8-22.8h16l8.9,12.9l7.5-12.9H276l-15.6,23.5l16,23.1
			H260.4z"/>
		<path class="st2" d="M302,378.1c2.4-1.3,5.3-2,8.6-2c3.8,0,7.3,1,10.4,2.9c3.1,1.9,5.6,4.7,7.4,8.4c1.8,3.6,2.7,7.8,2.7,12.6
			c0,4.8-0.9,9-2.7,12.7c-1.8,3.6-4.3,6.5-7.4,8.4c-3.1,2-6.6,3-10.4,3c-3.2,0-6.1-0.7-8.6-2c-2.5-1.3-4.4-3.1-5.8-5.2v28.7h-14.3
			v-68.8h14.3v6.6C297.6,381.2,299.5,379.5,302,378.1z M313.6,391.6c-2-2-4.4-3-7.3-3c-2.8,0-5.2,1-7.2,3.1c-2,2.1-3,4.9-3,8.4
			c0,3.6,1,6.4,3,8.4c2,2.1,4.4,3.1,7.2,3.1c2.8,0,5.3-1,7.3-3.1c2-2.1,3-4.9,3-8.5C316.6,396.4,315.6,393.6,313.6,391.6z"/>
		<path class="st2" d="M382.3,403.5H350c0.2,2.9,1.2,5.1,2.8,6.6c1.6,1.5,3.7,2.3,6.1,2.3c3.6,0,6-1.5,7.4-4.5h15.2
			c-0.8,3.1-2.2,5.8-4.2,8.3c-2,2.5-4.6,4.4-7.6,5.8c-3.1,1.4-6.5,2.1-10.3,2.1c-4.6,0-8.6-1-12.2-2.9c-3.6-1.9-6.3-4.7-8.4-8.4
			c-2-3.6-3-7.9-3-12.7s1-9.1,3-12.7c2-3.6,4.7-6.4,8.3-8.4c3.6-1.9,7.7-2.9,12.3-2.9c4.5,0,8.5,0.9,12,2.8c3.5,1.9,6.2,4.6,8.2,8.1
			c2,3.5,3,7.6,3,12.3C382.6,400.7,382.5,402.1,382.3,403.5z M367.9,395.6c0-2.4-0.8-4.4-2.5-5.8c-1.7-1.4-3.8-2.2-6.3-2.2
			c-2.4,0-4.4,0.7-6.1,2.1c-1.6,1.4-2.7,3.4-3,5.9H367.9z"/>
		<path class="st2" d="M410.6,378.5c2.5-1.5,5.3-2.2,8.4-2.2v15.1H415c-3.6,0-6.2,0.8-8,2.3c-1.8,1.5-2.7,4.2-2.7,8.1v21.6h-14.3
			v-46.6h14.3v7.8C406,382,408.1,380,410.6,378.5z"/>
		<path class="st2" d="M426.9,369.7c-1.6-1.5-2.4-3.3-2.4-5.5c0-2.2,0.8-4.1,2.4-5.6c1.6-1.5,3.6-2.2,6.1-2.2c2.4,0,4.5,0.7,6.1,2.2
			c1.6,1.5,2.4,3.3,2.4,5.6c0,2.2-0.8,4-2.4,5.5c-1.6,1.5-3.6,2.2-6.1,2.2C430.5,371.9,428.4,371.2,426.9,369.7z M440.1,376.8v46.6
			h-14.3v-46.6H440.1z"/>
		<path class="st2" d="M494.1,403.5h-32.3c0.2,2.9,1.2,5.1,2.8,6.6c1.6,1.5,3.7,2.3,6.1,2.3c3.6,0,6-1.5,7.4-4.5h15.2
			c-0.8,3.1-2.2,5.8-4.2,8.3c-2,2.5-4.6,4.4-7.6,5.8c-3.1,1.4-6.5,2.1-10.3,2.1c-4.6,0-8.6-1-12.2-2.9c-3.6-1.9-6.3-4.7-8.4-8.4
			c-2-3.6-3-7.9-3-12.7s1-9.1,3-12.7c2-3.6,4.7-6.4,8.3-8.4c3.6-1.9,7.7-2.9,12.3-2.9c4.5,0,8.5,0.9,12,2.8c3.5,1.9,6.2,4.6,8.2,8.1
			c2,3.5,3,7.6,3,12.3C494.4,400.7,494.3,402.1,494.1,403.5z M479.8,395.6c0-2.4-0.8-4.4-2.5-5.8c-1.7-1.4-3.8-2.2-6.3-2.2
			c-2.4,0-4.4,0.7-6.1,2.1c-1.6,1.4-2.7,3.4-3,5.9H479.8z"/>
		<path class="st2" d="M543.4,381.6c3.3,3.5,4.9,8.4,4.9,14.6v27.2H534v-25.3c0-3.1-0.8-5.5-2.4-7.3c-1.6-1.7-3.8-2.6-6.5-2.6
			c-2.7,0-4.9,0.9-6.5,2.6c-1.6,1.7-2.4,4.1-2.4,7.3v25.3h-14.3v-46.6h14.3v6.2c1.4-2.1,3.4-3.7,5.8-4.9c2.4-1.2,5.2-1.8,8.3-1.8
			C535.7,376.3,540.1,378.1,543.4,381.6z"/>
		<path class="st2" d="M558.3,387.4c2-3.6,4.7-6.4,8.3-8.4c3.5-1.9,7.6-2.9,12.2-2.9c5.8,0,10.7,1.5,14.7,4.6
			c3.9,3.1,6.5,7.4,7.7,12.9h-15.2c-1.3-3.6-3.8-5.3-7.4-5.3c-2.6,0-4.7,1-6.3,3s-2.3,4.9-2.3,8.7c0,3.8,0.8,6.7,2.3,8.7
			c1.6,2,3.6,3,6.3,3c3.7,0,6.2-1.8,7.4-5.3h15.2c-1.2,5.5-3.8,9.7-7.8,12.9c-4,3.1-8.8,4.7-14.6,4.7c-4.6,0-8.6-1-12.2-2.9
			c-3.5-1.9-6.3-4.7-8.3-8.4c-2-3.6-3-7.9-3-12.7S556.3,391,558.3,387.4z"/>
		<path class="st2" d="M652.4,403.5h-32.3c0.2,2.9,1.2,5.1,2.8,6.6c1.6,1.5,3.7,2.3,6.1,2.3c3.6,0,6-1.5,7.4-4.5h15.2
			c-0.8,3.1-2.2,5.8-4.2,8.3c-2,2.5-4.6,4.4-7.6,5.8c-3.1,1.4-6.5,2.1-10.3,2.1c-4.6,0-8.6-1-12.2-2.9c-3.6-1.9-6.3-4.7-8.4-8.4
			c-2-3.6-3-7.9-3-12.7s1-9.1,3-12.7c2-3.6,4.7-6.4,8.3-8.4c3.6-1.9,7.7-2.9,12.3-2.9c4.5,0,8.5,0.9,12,2.8c3.5,1.9,6.2,4.6,8.2,8.1
			c2,3.5,3,7.6,3,12.3C652.6,400.7,652.6,402.1,652.4,403.5z M638,395.6c0-2.4-0.8-4.4-2.5-5.8c-1.7-1.4-3.8-2.2-6.3-2.2
			c-2.4,0-4.4,0.7-6.1,2.1c-1.6,1.4-2.7,3.4-3,5.9H638z"/>
		<path class="st2" d="M668.3,422c-3.2-1.4-5.7-3.3-7.5-5.7c-1.8-2.4-2.9-5.1-3.1-8.1h14.1c0.2,1.6,0.9,2.9,2.3,3.9
			c1.3,1,3,1.5,4.9,1.5c1.8,0,3.2-0.3,4.1-1c1-0.7,1.5-1.6,1.5-2.7c0-1.3-0.7-2.3-2.1-3c-1.4-0.6-3.6-1.3-6.8-2.1
			c-3.3-0.8-6.1-1.6-8.4-2.5c-2.2-0.9-4.1-2.2-5.8-4.1c-1.6-1.9-2.4-4.4-2.4-7.6c0-2.7,0.7-5.1,2.2-7.3c1.5-2.2,3.6-3.9,6.5-5.2
			c2.9-1.3,6.3-1.9,10.2-1.9c5.8,0,10.5,1.4,13.8,4.3c3.4,2.9,5.3,6.7,5.8,11.5h-13.2c-0.2-1.6-0.9-2.9-2.1-3.8
			c-1.2-0.9-2.8-1.4-4.7-1.4c-1.7,0-3,0.3-3.8,1c-0.9,0.6-1.3,1.5-1.3,2.6c0,1.3,0.7,2.3,2.1,3s3.6,1.3,6.6,2
			c3.5,0.9,6.3,1.8,8.4,2.6c2.2,0.9,4.1,2.3,5.7,4.2c1.6,1.9,2.5,4.5,2.5,7.7c0,2.7-0.8,5.2-2.3,7.3c-1.5,2.1-3.7,3.8-6.6,5.1
			c-2.9,1.2-6.2,1.8-10,1.8C675,424.1,671.4,423.4,668.3,422z"/>
	</g>
	<g>
		<path class="st2" d="M216.2,547.8l-21.3-23.6v23.6h-6.8v-51.7h6.8v24l21.4-24h8.5L201.4,522l23.7,25.8H216.2z"/>
		<path class="st2" d="M232.9,499.2c-0.9-0.9-1.3-2-1.3-3.3c0-1.3,0.4-2.4,1.3-3.3c0.9-0.9,2-1.3,3.3-1.3c1.2,0,2.3,0.4,3.2,1.3
			c0.9,0.9,1.3,2,1.3,3.3c0,1.3-0.4,2.4-1.3,3.3c-0.9,0.9-1.9,1.3-3.2,1.3C234.8,500.5,233.8,500.1,232.9,499.2z M239.4,507.1v40.7
			h-6.8v-40.7H239.4z"/>
		<path class="st2" d="M250.9,516.4c1.7-3.1,4-5.6,6.9-7.3c2.9-1.7,6.2-2.6,9.9-2.6c3.2,0,6.1,0.7,8.8,2.2c2.7,1.5,4.8,3.4,6.2,5.8
			v-21.5h6.8v54.9h-6.8v-7.6c-1.3,2.4-3.3,4.4-5.9,6c-2.6,1.6-5.7,2.3-9.2,2.3c-3.6,0-6.9-0.9-9.8-2.7c-2.9-1.8-5.3-4.3-6.9-7.5
			c-1.7-3.2-2.5-6.9-2.5-11C248.4,523.2,249.2,519.5,250.9,516.4z M281,519.4c-1.2-2.3-2.9-4-5-5.2c-2.1-1.2-4.4-1.8-6.9-1.8
			c-2.5,0-4.8,0.6-6.9,1.8c-2.1,1.2-3.7,2.9-5,5.2c-1.2,2.3-1.9,4.9-1.9,8c0,3.1,0.6,5.8,1.9,8.1c1.2,2.3,2.9,4.1,5,5.3
			c2.1,1.2,4.4,1.8,6.9,1.8c2.5,0,4.8-0.6,6.9-1.8c2.1-1.2,3.8-3,5-5.3c1.2-2.3,1.9-5,1.9-8.1C282.8,524.3,282.2,521.7,281,519.4z"
			/>
		<path class="st2" d="M307.1,546.9c-2.5-1.1-4.4-2.5-5.9-4.5s-2.2-4.1-2.4-6.6h7c0.2,2,1.2,3.7,2.9,5c1.7,1.3,3.9,1.9,6.7,1.9
			c2.6,0,4.6-0.6,6.1-1.7c1.5-1.1,2.2-2.6,2.2-4.3c0-1.8-0.8-3.1-2.4-4c-1.6-0.9-4-1.7-7.3-2.6c-3-0.8-5.5-1.6-7.4-2.4
			c-1.9-0.8-3.5-2-4.9-3.6s-2-3.7-2-6.3c0-2.1,0.6-4,1.9-5.7c1.2-1.7,3-3.1,5.3-4.1c2.3-1,4.9-1.5,7.8-1.5c4.5,0,8.1,1.1,10.9,3.4
			c2.8,2.3,4.3,5.4,4.5,9.4h-6.8c-0.1-2.1-1-3.8-2.6-5.1c-1.6-1.3-3.7-1.9-6.3-1.9c-2.4,0-4.4,0.5-5.8,1.6c-1.4,1-2.2,2.4-2.2,4.1
			c0,1.3,0.4,2.4,1.3,3.3c0.9,0.9,2,1.6,3.3,2.1c1.3,0.5,3.1,1.1,5.5,1.7c2.9,0.8,5.3,1.6,7.1,2.3c1.8,0.8,3.4,1.9,4.7,3.5
			c1.3,1.5,2,3.5,2,6c0,2.2-0.6,4.2-1.9,6c-1.2,1.8-3,3.2-5.2,4.2s-4.8,1.5-7.8,1.5C312.4,548.5,309.6,548,307.1,546.9z"/>
		<path class="st2" d="M372.5,508.8c2.7-1.5,5.7-2.3,9.1-2.3c3.7,0,7,0.9,9.9,2.6c2.9,1.7,5.2,4.2,6.9,7.3c1.7,3.1,2.5,6.8,2.5,10.9
			c0,4.1-0.8,7.8-2.5,11c-1.7,3.2-4,5.7-6.9,7.5c-2.9,1.8-6.2,2.7-9.8,2.7c-3.5,0-6.6-0.8-9.2-2.3c-2.6-1.5-4.6-3.5-6-5.9v7.5h-6.8
			v-54.9h6.8v21.8C367.8,512.3,369.8,510.3,372.5,508.8z M392.2,519.3c-1.2-2.3-2.9-4-5-5.2c-2.1-1.2-4.4-1.8-6.9-1.8
			c-2.5,0-4.8,0.6-6.9,1.8c-2.1,1.2-3.8,3-5,5.3c-1.3,2.3-1.9,5-1.9,8c0,3.1,0.6,5.8,1.9,8.1c1.3,2.3,2.9,4.1,5,5.3
			c2.1,1.2,4.4,1.8,6.9,1.8c2.5,0,4.8-0.6,6.9-1.8c2.1-1.2,3.8-3,5-5.3c1.2-2.3,1.9-5,1.9-8.1C394,524.3,393.4,521.6,392.2,519.3z"
			/>
		<path class="st2" d="M445.9,507.1v40.7h-6.8v-6c-1.3,2.1-3.1,3.7-5.4,4.9c-2.3,1.2-4.8,1.7-7.6,1.7c-3.2,0-6-0.7-8.5-2
			c-2.5-1.3-4.5-3.3-6-5.9c-1.5-2.6-2.2-5.8-2.2-9.6v-23.8h6.7v22.9c0,4,1,7.1,3,9.2c2,2.2,4.8,3.2,8.3,3.2c3.6,0,6.5-1.1,8.5-3.3
			c2.1-2.2,3.1-5.5,3.1-9.7v-22.3H445.9z"/>
		<path class="st2" d="M457.6,499.2c-0.9-0.9-1.3-2-1.3-3.3c0-1.3,0.4-2.4,1.3-3.3c0.9-0.9,2-1.3,3.3-1.3c1.2,0,2.3,0.4,3.2,1.3
			c0.9,0.9,1.3,2,1.3,3.3c0,1.3-0.4,2.4-1.3,3.3c-0.9,0.9-1.9,1.3-3.2,1.3C459.6,500.5,458.5,500.1,457.6,499.2z M464.1,507.1v40.7
			h-6.8v-40.7H464.1z"/>
		<path class="st2" d="M482.4,492.9v54.9h-6.8v-54.9H482.4z"/>
		<path class="st2" d="M493.9,516.4c1.7-3.1,4-5.6,6.9-7.3c2.9-1.7,6.2-2.6,9.9-2.6c3.2,0,6.1,0.7,8.8,2.2c2.7,1.5,4.8,3.4,6.2,5.8
			v-21.5h6.8v54.9h-6.8v-7.6c-1.3,2.4-3.3,4.4-5.9,6c-2.6,1.6-5.7,2.3-9.2,2.3c-3.6,0-6.9-0.9-9.8-2.7c-2.9-1.8-5.3-4.3-6.9-7.5
			c-1.7-3.2-2.5-6.9-2.5-11C491.3,523.2,492.2,519.5,493.9,516.4z M523.9,519.4c-1.2-2.3-2.9-4-5-5.2c-2.1-1.2-4.4-1.8-6.9-1.8
			c-2.5,0-4.8,0.6-6.9,1.8c-2.1,1.2-3.7,2.9-5,5.2c-1.2,2.3-1.9,4.9-1.9,8c0,3.1,0.6,5.8,1.9,8.1c1.2,2.3,2.9,4.1,5,5.3
			c2.1,1.2,4.4,1.8,6.9,1.8c2.5,0,4.8-0.6,6.9-1.8c2.1-1.2,3.8-3,5-5.3c1.2-2.3,1.9-5,1.9-8.1C525.8,524.3,525.2,521.7,523.9,519.4z
			"/>
		<path class="st2" d="M569.9,546.9c-2.5-1.1-4.4-2.5-5.9-4.5s-2.2-4.1-2.4-6.6h7c0.2,2,1.2,3.7,2.9,5c1.7,1.3,3.9,1.9,6.7,1.9
			c2.6,0,4.6-0.6,6.1-1.7c1.5-1.1,2.2-2.6,2.2-4.3c0-1.8-0.8-3.1-2.4-4c-1.6-0.9-4-1.7-7.3-2.6c-3-0.8-5.5-1.6-7.4-2.4
			c-1.9-0.8-3.5-2-4.9-3.6s-2-3.7-2-6.3c0-2.1,0.6-4,1.9-5.7c1.2-1.7,3-3.1,5.3-4.1c2.3-1,4.9-1.5,7.8-1.5c4.5,0,8.1,1.1,10.9,3.4
			c2.8,2.3,4.3,5.4,4.5,9.4H586c-0.1-2.1-1-3.8-2.6-5.1c-1.6-1.3-3.7-1.9-6.3-1.9c-2.4,0-4.4,0.5-5.8,1.6c-1.4,1-2.2,2.4-2.2,4.1
			c0,1.3,0.4,2.4,1.3,3.3c0.9,0.9,2,1.6,3.3,2.1c1.3,0.5,3.1,1.1,5.5,1.7c2.9,0.8,5.3,1.6,7.1,2.3c1.8,0.8,3.4,1.9,4.7,3.5
			c1.3,1.5,2,3.5,2,6c0,2.2-0.6,4.2-1.9,6c-1.2,1.8-3,3.2-5.2,4.2s-4.8,1.5-7.8,1.5C575.2,548.5,572.4,548,569.9,546.9z"/>
		<path class="st2" d="M625.3,547.8l-16-18v18h-6.8v-54.9h6.8v32.3l15.7-18h9.4l-19.2,20.3l19.2,20.4H625.3z"/>
		<path class="st2" d="M641.1,499.2c-0.9-0.9-1.3-2-1.3-3.3c0-1.3,0.4-2.4,1.3-3.3c0.9-0.9,2-1.3,3.3-1.3c1.2,0,2.3,0.4,3.2,1.3
			c0.9,0.9,1.3,2,1.3,3.3c0,1.3-0.4,2.4-1.3,3.3c-0.9,0.9-1.9,1.3-3.2,1.3C643.1,500.5,642,500.1,641.1,499.2z M647.6,507.1v40.7
			h-6.8v-40.7H647.6z"/>
		<path class="st2" d="M665.9,492.9v54.9h-6.8v-54.9H665.9z"/>
		<path class="st2" d="M684.1,492.9v54.9h-6.8v-54.9H684.1z"/>
		<path class="st2" d="M701.7,546.9c-2.5-1.1-4.4-2.5-5.9-4.5s-2.2-4.1-2.4-6.6h7c0.2,2,1.2,3.7,2.9,5c1.7,1.3,3.9,1.9,6.7,1.9
			c2.6,0,4.6-0.6,6.1-1.7c1.5-1.1,2.2-2.6,2.2-4.3c0-1.8-0.8-3.1-2.4-4c-1.6-0.9-4-1.7-7.3-2.6c-3-0.8-5.5-1.6-7.4-2.4
			c-1.9-0.8-3.5-2-4.9-3.6s-2-3.7-2-6.3c0-2.1,0.6-4,1.9-5.7c1.2-1.7,3-3.1,5.3-4.1c2.3-1,4.9-1.5,7.8-1.5c4.5,0,8.1,1.1,10.9,3.4
			c2.8,2.3,4.3,5.4,4.5,9.4h-6.8c-0.1-2.1-1-3.8-2.6-5.1c-1.6-1.3-3.7-1.9-6.3-1.9c-2.4,0-4.4,0.5-5.8,1.6c-1.4,1-2.2,2.4-2.2,4.1
			c0,1.3,0.4,2.4,1.3,3.3c0.9,0.9,2,1.6,3.3,2.1c1.3,0.5,3.1,1.1,5.5,1.7c2.9,0.8,5.3,1.6,7.1,2.3c1.8,0.8,3.4,1.9,4.7,3.5
			c1.3,1.5,2,3.5,2,6c0,2.2-0.6,4.2-1.9,6c-1.2,1.8-3,3.2-5.2,4.2s-4.8,1.5-7.8,1.5C706.9,548.5,704.1,548,701.7,546.9z"/>
		<path class="st2" d="M754.4,499.2c-0.9-0.9-1.3-2-1.3-3.3c0-1.3,0.4-2.4,1.3-3.3c0.9-0.9,2-1.3,3.3-1.3c1.2,0,2.3,0.4,3.2,1.3
			c0.9,0.9,1.3,2,1.3,3.3c0,1.3-0.4,2.4-1.3,3.3c-0.9,0.9-1.9,1.3-3.2,1.3C756.4,500.5,755.3,500.1,754.4,499.2z M761,507.1v40.7
			h-6.8v-40.7H761z"/>
		<path class="st2" d="M804.3,510.9c3.1,3,4.6,7.3,4.6,13v24h-6.7v-23c0-4.1-1-7.2-3-9.3c-2-2.2-4.8-3.2-8.3-3.2
			c-3.6,0-6.4,1.1-8.5,3.3c-2.1,2.2-3.2,5.5-3.2,9.7v22.5h-6.8v-40.7h6.8v5.8c1.3-2.1,3.2-3.7,5.5-4.8c2.3-1.1,4.8-1.7,7.6-1.7
			C797.2,506.4,801.2,507.9,804.3,510.9z"/>
		<path class="st2" d="M188.2,605.5c1.7-3.1,4-5.6,6.9-7.3c2.9-1.7,6.2-2.6,9.8-2.6c3.6,0,6.7,0.8,9.3,2.3c2.6,1.5,4.6,3.5,5.9,5.8
			v-7.4h6.8v40.7h-6.8v-7.6c-1.3,2.4-3.3,4.3-6,5.9c-2.6,1.6-5.7,2.3-9.2,2.3c-3.6,0-6.9-0.9-9.8-2.7c-2.9-1.8-5.2-4.3-6.9-7.5
			c-1.7-3.2-2.5-6.9-2.5-11C185.7,612.3,186.5,608.6,188.2,605.5z M218.2,608.5c-1.2-2.3-2.9-4-5-5.2c-2.1-1.2-4.4-1.8-6.9-1.8
			c-2.5,0-4.8,0.6-6.9,1.8c-2.1,1.2-3.7,2.9-5,5.2c-1.2,2.3-1.9,4.9-1.9,8c0,3.1,0.6,5.8,1.9,8.1c1.2,2.3,2.9,4.1,5,5.3
			c2.1,1.2,4.4,1.8,6.9,1.8c2.5,0,4.8-0.6,6.9-1.8c2.1-1.2,3.8-3,5-5.3c1.2-2.3,1.9-5,1.9-8.1C220.1,613.4,219.5,610.7,218.2,608.5z
			"/>
		<path class="st2" d="M274.7,601.8h-8.5v35.1h-6.8v-35.1h-5.3v-5.6h5.3v-2.9c0-4.6,1.2-7.9,3.5-10c2.4-2.1,6.1-3.2,11.3-3.2v5.6
			c-3,0-5.1,0.6-6.3,1.7c-1.2,1.2-1.8,3.1-1.8,5.8v2.9h8.5V601.8z"/>
		<path class="st2" d="M318.7,596.2v40.7h-6.8v-6c-1.3,2.1-3.1,3.7-5.4,4.9c-2.3,1.2-4.8,1.7-7.6,1.7c-3.2,0-6-0.7-8.5-2
			c-2.5-1.3-4.5-3.3-6-5.9c-1.5-2.6-2.2-5.8-2.2-9.6v-23.8h6.7v22.9c0,4,1,7.1,3,9.2c2,2.2,4.8,3.2,8.3,3.2c3.6,0,6.5-1.1,8.5-3.3
			c2.1-2.2,3.1-5.5,3.1-9.7v-22.3H318.7z"/>
		<path class="st2" d="M362,600c3.1,3,4.6,7.3,4.6,13v24h-6.7v-23c0-4.1-1-7.2-3-9.3c-2-2.2-4.8-3.2-8.3-3.2c-3.6,0-6.4,1.1-8.5,3.3
			c-2.1,2.2-3.2,5.5-3.2,9.7v22.5h-6.8v-40.7h6.8v5.8c1.3-2.1,3.2-3.7,5.5-4.8c2.3-1.1,4.8-1.7,7.6-1.7
			C354.9,595.5,358.9,597,362,600z"/>
		<path class="st2" d="M397.4,605.5c1.7-3.1,4-5.6,6.9-7.3c2.9-1.7,6.2-2.6,9.8-2.6c3.6,0,6.7,0.8,9.3,2.3c2.6,1.5,4.6,3.5,5.9,5.8
			v-7.4h6.8v40.7h-6.8v-7.6c-1.3,2.4-3.3,4.3-6,5.9c-2.6,1.6-5.7,2.3-9.2,2.3c-3.6,0-6.9-0.9-9.8-2.7c-2.9-1.8-5.2-4.3-6.9-7.5
			c-1.7-3.2-2.5-6.9-2.5-11C394.9,612.3,395.8,608.6,397.4,605.5z M427.5,608.5c-1.2-2.3-2.9-4-5-5.2c-2.1-1.2-4.4-1.8-6.9-1.8
			c-2.5,0-4.8,0.6-6.9,1.8c-2.1,1.2-3.7,2.9-5,5.2c-1.2,2.3-1.9,4.9-1.9,8c0,3.1,0.6,5.8,1.9,8.1c1.2,2.3,2.9,4.1,5,5.3
			c2.1,1.2,4.4,1.8,6.9,1.8c2.5,0,4.8-0.6,6.9-1.8c2.1-1.2,3.8-3,5-5.3c1.2-2.3,1.9-5,1.9-8.1C429.4,613.4,428.7,610.7,427.5,608.5z
			"/>
		<path class="st2" d="M479.5,600c3.1,3,4.6,7.3,4.6,13v24h-6.7v-23c0-4.1-1-7.2-3-9.3c-2-2.2-4.8-3.2-8.3-3.2
			c-3.6,0-6.4,1.1-8.5,3.3c-2.1,2.2-3.2,5.5-3.2,9.7v22.5h-6.8v-40.7h6.8v5.8c1.3-2.1,3.2-3.7,5.5-4.8c2.3-1.1,4.8-1.7,7.6-1.7
			C472.4,595.5,476.4,597,479.5,600z"/>
		<path class="st2" d="M495.1,605.5c1.7-3.1,4-5.6,6.9-7.3c2.9-1.7,6.2-2.6,9.9-2.6c3.2,0,6.1,0.7,8.8,2.2c2.7,1.5,4.8,3.4,6.2,5.8
			V582h6.8v54.9h-6.8v-7.6c-1.3,2.4-3.3,4.4-5.9,6c-2.6,1.6-5.7,2.3-9.2,2.3c-3.6,0-6.9-0.9-9.8-2.7c-2.9-1.8-5.3-4.3-6.9-7.5
			c-1.7-3.2-2.5-6.9-2.5-11C492.6,612.3,493.5,608.6,495.1,605.5z M525.2,608.5c-1.2-2.3-2.9-4-5-5.2c-2.1-1.2-4.4-1.8-6.9-1.8
			c-2.5,0-4.8,0.6-6.9,1.8c-2.1,1.2-3.7,2.9-5,5.2c-1.2,2.3-1.9,4.9-1.9,8c0,3.1,0.6,5.8,1.9,8.1c1.2,2.3,2.9,4.1,5,5.3
			c2.1,1.2,4.4,1.8,6.9,1.8c2.5,0,4.8-0.6,6.9-1.8c2.1-1.2,3.8-3,5-5.3c1.2-2.3,1.9-5,1.9-8.1C527.1,613.4,526.4,610.7,525.2,608.5z
			"/>
		<path class="st2" d="M571.2,636c-2.5-1.1-4.4-2.5-5.9-4.5s-2.2-4.1-2.4-6.6h7c0.2,2,1.2,3.7,2.9,5c1.7,1.3,3.9,1.9,6.7,1.9
			c2.6,0,4.6-0.6,6.1-1.7c1.5-1.1,2.2-2.6,2.2-4.3c0-1.8-0.8-3.1-2.4-4c-1.6-0.9-4-1.7-7.3-2.6c-3-0.8-5.5-1.6-7.4-2.4
			c-1.9-0.8-3.5-2-4.9-3.6s-2-3.7-2-6.3c0-2.1,0.6-4,1.9-5.7c1.2-1.7,3-3.1,5.3-4.1c2.3-1,4.9-1.5,7.8-1.5c4.5,0,8.1,1.1,10.9,3.4
			c2.8,2.3,4.3,5.4,4.5,9.4h-6.8c-0.1-2.1-1-3.8-2.6-5.1c-1.6-1.3-3.7-1.9-6.3-1.9c-2.4,0-4.4,0.5-5.8,1.6c-1.4,1-2.2,2.4-2.2,4.1
			c0,1.3,0.4,2.4,1.3,3.3c0.9,0.9,2,1.6,3.3,2.1c1.3,0.5,3.1,1.1,5.5,1.7c2.9,0.8,5.3,1.6,7.1,2.3c1.8,0.8,3.4,1.9,4.7,3.5
			c1.3,1.5,2,3.5,2,6c0,2.2-0.6,4.2-1.9,6c-1.2,1.8-3,3.2-5.2,4.2s-4.8,1.5-7.8,1.5C576.4,637.6,573.6,637,571.2,636z"/>
		<path class="st2" d="M603.9,605.5c1.7-3.1,4-5.6,6.9-7.3c2.9-1.7,6.2-2.6,9.8-2.6c3.6,0,6.7,0.8,9.3,2.3c2.6,1.5,4.6,3.5,5.9,5.8
			v-7.4h6.8v40.7h-6.8v-7.6c-1.3,2.4-3.3,4.3-6,5.9c-2.6,1.6-5.7,2.3-9.2,2.3c-3.6,0-6.9-0.9-9.8-2.7c-2.9-1.8-5.2-4.3-6.9-7.5
			c-1.7-3.2-2.5-6.9-2.5-11C601.4,612.3,602.2,608.6,603.9,605.5z M634,608.5c-1.2-2.3-2.9-4-5-5.2c-2.1-1.2-4.4-1.8-6.9-1.8
			c-2.5,0-4.8,0.6-6.9,1.8c-2.1,1.2-3.7,2.9-5,5.2c-1.2,2.3-1.9,4.9-1.9,8c0,3.1,0.6,5.8,1.9,8.1c1.2,2.3,2.9,4.1,5,5.3
			c2.1,1.2,4.4,1.8,6.9,1.8c2.5,0,4.8-0.6,6.9-1.8c2.1-1.2,3.8-3,5-5.3c1.2-2.3,1.9-5,1.9-8.1C635.8,613.4,635.2,610.7,634,608.5z"
			/>
		<path class="st2" d="M670.6,601.8h-8.5v35.1h-6.8v-35.1h-5.3v-5.6h5.3v-2.9c0-4.6,1.2-7.9,3.5-10c2.4-2.1,6.1-3.2,11.3-3.2v5.6
			c-3,0-5.1,0.6-6.3,1.7c-1.2,1.2-1.8,3.1-1.8,5.8v2.9h8.5V601.8z"/>
		<path class="st2" d="M715.4,619.1h-32.5c0.2,4,1.6,7.1,4.1,9.4c2.5,2.3,5.5,3.4,9.1,3.4c2.9,0,5.4-0.7,7.3-2
			c2-1.4,3.3-3.2,4.1-5.5h7.3c-1.1,3.9-3.3,7.1-6.5,9.5c-3.3,2.5-7.3,3.7-12.2,3.7c-3.9,0-7.3-0.9-10.4-2.6s-5.4-4.2-7.2-7.4
			s-2.6-6.9-2.6-11.1c0-4.2,0.8-7.9,2.5-11.1c1.7-3.2,4-5.6,7.1-7.3c3-1.7,6.5-2.6,10.5-2.6c3.9,0,7.3,0.8,10.2,2.5
			c3,1.7,5.3,4,6.9,6.9c1.6,2.9,2.4,6.3,2.4,10C715.6,616.3,715.5,617.6,715.4,619.1z M706.9,606.9c-1.1-1.9-2.7-3.3-4.6-4.2
			c-2-1-4.1-1.4-6.5-1.4c-3.4,0-6.3,1.1-8.7,3.3s-3.8,5.2-4.1,9.1h25.7C708.6,611,708.1,608.8,706.9,606.9z"/>
		<path class="st2" d="M194.2,725.1c-2.5-1.1-4.4-2.5-5.9-4.5s-2.2-4.1-2.4-6.6h7c0.2,2,1.2,3.7,2.9,5c1.7,1.3,3.9,1.9,6.7,1.9
			c2.6,0,4.6-0.6,6.1-1.7c1.5-1.1,2.2-2.6,2.2-4.3c0-1.8-0.8-3.1-2.4-4c-1.6-0.9-4-1.7-7.3-2.6c-3-0.8-5.5-1.6-7.4-2.4
			c-1.9-0.8-3.5-2-4.9-3.6s-2-3.7-2-6.3c0-2.1,0.6-4,1.9-5.7c1.2-1.7,3-3.1,5.3-4.1c2.3-1,4.9-1.5,7.8-1.5c4.5,0,8.1,1.1,10.9,3.4
			c2.8,2.3,4.3,5.4,4.5,9.4h-6.8c-0.1-2.1-1-3.8-2.6-5.1c-1.6-1.3-3.7-1.9-6.3-1.9c-2.4,0-4.4,0.5-5.8,1.6c-1.4,1-2.2,2.4-2.2,4.1
			c0,1.3,0.4,2.4,1.3,3.3c0.9,0.9,2,1.6,3.3,2.1c1.3,0.5,3.1,1.1,5.5,1.7c2.9,0.8,5.3,1.6,7.1,2.3c1.8,0.8,3.4,1.9,4.7,3.5
			c1.3,1.5,2,3.5,2,6c0,2.2-0.6,4.2-1.9,6c-1.2,1.8-3,3.2-5.2,4.2s-4.8,1.5-7.8,1.5C199.5,726.6,196.7,726.1,194.2,725.1z"/>
		<path class="st2" d="M239.7,687c2.6-1.6,5.7-2.3,9.2-2.3c3.6,0,6.9,0.9,9.8,2.6c2.9,1.7,5.3,4.2,6.9,7.3c1.7,3.1,2.5,6.8,2.5,10.9
			c0,4.1-0.8,7.8-2.5,11c-1.7,3.2-4,5.7-6.9,7.5c-2.9,1.8-6.2,2.7-9.8,2.7c-3.5,0-6.5-0.8-9.2-2.3c-2.6-1.6-4.7-3.5-6-5.8v26.8h-6.8
			v-60h6.8v7.5C235,690.5,237,688.5,239.7,687z M259.4,697.5c-1.2-2.3-2.9-4-5-5.2c-2.1-1.2-4.4-1.8-6.9-1.8c-2.5,0-4.8,0.6-6.9,1.8
			c-2.1,1.2-3.8,3-5,5.3c-1.3,2.3-1.9,5-1.9,8c0,3.1,0.6,5.8,1.9,8.1c1.3,2.3,2.9,4.1,5,5.3c2.1,1.2,4.4,1.8,6.9,1.8
			c2.5,0,4.8-0.6,6.9-1.8c2.1-1.2,3.8-3,5-5.3c1.2-2.3,1.9-5,1.9-8.1C261.3,702.4,260.7,699.8,259.4,697.5z"/>
		<path class="st2" d="M277.1,694.5c1.7-3.1,4-5.6,6.9-7.3c2.9-1.7,6.2-2.6,9.8-2.6c3.6,0,6.7,0.8,9.3,2.3c2.6,1.5,4.6,3.5,5.9,5.8
			v-7.4h6.8V726H309v-7.6c-1.3,2.4-3.3,4.3-6,5.9c-2.6,1.6-5.7,2.3-9.2,2.3c-3.6,0-6.9-0.9-9.8-2.7c-2.9-1.8-5.2-4.3-6.9-7.5
			c-1.7-3.2-2.5-6.9-2.5-11C274.6,701.3,275.4,697.7,277.1,694.5z M307.2,697.5c-1.2-2.3-2.9-4-5-5.2c-2.1-1.2-4.4-1.8-6.9-1.8
			c-2.5,0-4.8,0.6-6.9,1.8c-2.1,1.2-3.7,2.9-5,5.2c-1.2,2.3-1.9,4.9-1.9,8c0,3.1,0.6,5.8,1.9,8.1c1.2,2.3,2.9,4.1,5,5.3
			c2.1,1.2,4.4,1.8,6.9,1.8c2.5,0,4.8-0.6,6.9-1.8c2.1-1.2,3.8-3,5-5.3c1.2-2.3,1.9-5,1.9-8.1C309,702.5,308.4,699.8,307.2,697.5z"
			/>
		<path class="st2" d="M327.3,694.5c1.7-3.1,4-5.6,7-7.3c3-1.7,6.4-2.6,10.3-2.6c5,0,9.1,1.2,12.4,3.6c3.2,2.4,5.4,5.8,6.4,10.1
			h-7.3c-0.7-2.5-2-4.4-4-5.9c-2-1.4-4.5-2.2-7.5-2.2c-3.9,0-7,1.3-9.4,4c-2.4,2.6-3.6,6.4-3.6,11.2c0,4.9,1.2,8.7,3.6,11.4
			c2.4,2.7,5.5,4,9.4,4c3,0,5.4-0.7,7.4-2.1c2-1.4,3.3-3.4,4.1-5.9h7.3c-1.1,4.2-3.3,7.5-6.5,10c-3.3,2.5-7.3,3.7-12.2,3.7
			c-3.9,0-7.3-0.9-10.3-2.6c-3-1.7-5.3-4.2-7-7.3c-1.7-3.2-2.5-6.9-2.5-11.1C324.8,701.4,325.6,697.7,327.3,694.5z"/>
		<path class="st2" d="M409.2,708.2h-32.5c0.2,4,1.6,7.1,4.1,9.4c2.5,2.3,5.5,3.4,9.1,3.4c2.9,0,5.4-0.7,7.3-2
			c2-1.4,3.3-3.2,4.1-5.5h7.3c-1.1,3.9-3.3,7.1-6.5,9.5c-3.3,2.5-7.3,3.7-12.2,3.7c-3.9,0-7.3-0.9-10.4-2.6s-5.4-4.2-7.2-7.4
			s-2.6-6.9-2.6-11.1c0-4.2,0.8-7.9,2.5-11.1c1.7-3.2,4-5.6,7.1-7.3c3-1.7,6.5-2.6,10.5-2.6c3.9,0,7.3,0.8,10.2,2.5
			c3,1.7,5.3,4,6.9,6.9c1.6,2.9,2.4,6.3,2.4,10C409.5,705.4,409.4,706.7,409.2,708.2z M400.8,696c-1.1-1.9-2.7-3.3-4.6-4.2
			c-2-1-4.1-1.4-6.5-1.4c-3.4,0-6.3,1.1-8.7,3.3s-3.8,5.2-4.1,9.1h25.7C402.5,700.1,401.9,697.9,400.8,696z"/>
	</g>
	<g>
		<g>
			<path class="st3" d="M497.7,141.4v36.4c1.9-1.1,4.1-1.6,6.5-1.6c1.7,0,3.4,0.3,4.9,0.9v-35.7L497.7,141.4z"/>
		</g>
		<g>
			<g>
				<path class="st4" d="M569,219.1h-15l-39.4-39.4c-5.6-5.6-15-5.8-20.5-0.1c-5.3,5.6-5.3,14.4,0.2,19.9l42.1,42.1
					c3.8,3.8,9,5.9,14.3,5.9H569L569,219.1L569,219.1z"/>
			</g>
		</g>
		<g>
			<path class="st5" d="M567.5,142.1h-69.9V93.8c0-2.2,1.8-3.9,3.9-3.9h66c2.2,0,3.9,1.8,3.9,3.9v44.4
				C571.4,140.4,569.7,142.1,567.5,142.1z"/>
		</g>
		<path class="st3" d="M860.1,101.7c1.5-0.6,3.2-0.9,4.9-0.9c2.3,0,4.6,0.6,6.5,1.8V66h-11.4V101.7z"/>
		<g>
			<g>
				<g>
					<g>
						<g>
							<path class="st4" d="M569,219.1h-15l-39.4-39.4c-5.6-5.6-15-5.8-20.5-0.1c-5.3,5.6-5.3,14.4,0.2,19.9l42.1,42.1
								c3.8,3.8,9,5.9,14.3,5.9H569L569,219.1L569,219.1z"/>
						</g>
					</g>
					<g>
						<path class="st6" d="M708,238.2c0-3.7-1-7.3-2.8-10.5l-4.9-8.6h-132v28.4H599c2.2,0,3.9,1.8,3.9,3.9v88.9
							c0,4.3,3.5,7.8,7.8,7.8H708V238.2z"/>
					</g>
					<g>
						<g>
							<path class="st7" d="M705.2,227.7l-4.9-8.6H685l0,97.9c0,4.3-3.5,7.8-7.8,7.8H603v15.4c0,4.3,3.5,7.8,7.8,7.8H708l0-109.9
								C708,234.5,707,230.9,705.2,227.7z"/>
						</g>
					</g>
					<g>
						<g>
							<g>
								<path class="st8" d="M872,102c-6.8-4.1-15.8-1.5-19.8,5.4L814,173.7l0.7,1.3l22.2,12.8l1.7,0l38.4-66.6
									C880.8,114.6,878.6,106,872,102L872,102z"/>
							</g>
							<g>
								<path class="st9" d="M705,175.1l0.8-1.4l-38.2-66.2c-4-6.9-13-9.5-19.8-5.4c-6.6,4-8.8,12.5-5,19.2l38.4,66.6l1.5,0.1
									L705,175.1z"/>
							</g>
						</g>
						<g>
							<g>
								<path class="st5" d="M814,173.7L801.6,195c-3.6,6.2-8.4,11.4-14,15.3c-6.1,8.8-16.2,14.6-27.7,14.6
									c-11.5,0-21.6-5.8-27.7-14.6c-5.6-4-10.5-9.1-14-15.3l-12.3-21.4l-24.6,14.2l23.2,40.2c1.8,3.1,2.7,6.6,2.7,10.1v109.9h97.6
									c4.3,0,7.8-3.5,7.8-7.8V238.2c0-3.6,0.9-7.1,2.7-10.1l23.2-40.2L814,173.7z"/>
							</g>
							<g>
								<g>
									<path class="st10" d="M814,173.7L801.6,195c-3,5.1-6.8,9.6-11.3,13.2c-0.8,2.2-1.2,4.5-1.2,6.8v102.1
										c0,4.3-3.5,7.8-7.8,7.8h-74.1v23.2h97.6c4.3,0,7.8-3.5,7.8-7.8V238.2c0-3.6,0.9-7.1,2.7-10.1l23.2-40.2L814,173.7z"/>
								</g>
							</g>
							<g>
								<g>
									<path class="st11" d="M759.9,157.6c7.2,0,13.8,2.3,19.3,6.1c1.1-2.5,1.7-5.3,1.7-8.3c0-11.6-9.4-21-21-21
										c-11.6,0-21,9.4-21,21c0,2.9,0.6,5.7,1.7,8.3C746.1,159.8,752.7,157.6,759.9,157.6z"/>
								</g>
								<g>
									<circle class="st9" cx="759.9" cy="191.3" r="34.4"/>
								</g>
								<g>
									<path class="st8" d="M768.6,158c5.1,6,8.2,13.8,8.2,22.2c0,19-15.4,34.4-34.4,34.4c-3,0-5.9-0.4-8.7-1.1
										c6.3,7.5,15.7,12.2,26.3,12.2c19,0,34.4-15.4,34.4-34.4C794.3,175.3,783.4,161.9,768.6,158L768.6,158z"/>
								</g>
								<g>
									<path class="st12" d="M759.9,156.9c-14.7,0-27.2,9.2-32.2,22.2h64.4C787.1,166.1,774.6,156.9,759.9,156.9z"/>
								</g>
								<g>
									<path class="st13" d="M776.7,179.1h15.3c-3.9-10.3-12.7-18.3-23.5-21.1C773.5,163.7,776.5,171.1,776.7,179.1z"/>
								</g>
							</g>
						</g>
					</g>
					<g>
						<g>
							<circle class="st4" cx="655.6" cy="195.4" r="34.4"/>
						</g>
					</g>
					<g>
						<path class="st14" d="M664.9,162.2c4.9,6,7.9,13.6,7.9,21.9c0,19-15.4,34.4-34.4,34.4c-3.2,0-6.3-0.4-9.2-1.3
							c6.3,7.6,15.9,12.5,26.6,12.5c19,0,34.4-15.4,34.4-34.4C690.1,179.6,679.4,166.3,664.9,162.2L664.9,162.2z"/>
					</g>
				</g>
				<g>
					<path class="st15" d="M626.4,48l-28,7.5c-1.7,0.5-2.3,2.6-1.1,3.9l20.5,20.5c1.3,1.3,3.5,0.7,3.9-1.1l7.5-28
						C629.7,49.1,628.1,47.5,626.4,48L626.4,48z"/>
				</g>
				<g>
					<path class="st16" d="M711.7,112.4l28-7.5c1.7-0.5,2.3-2.6,1.1-3.9l-20.5-20.5c-1.3-1.3-3.5-0.7-3.9,1.1l-7.5,28
						C708.3,111.3,709.9,112.9,711.7,112.4L711.7,112.4z"/>
				</g>
				<g>
					<path class="st10" d="M711.4,27.4l-15.8,15.8c-0.9,0.9-2.4,0.9-3.3,0l-15.8-15.8c-0.9-0.9-0.9-2.4,0-3.3l15.8-15.8
						c0.9-0.9,2.4-0.9,3.3,0l15.8,15.8C712.3,25,712.3,26.5,711.4,27.4z"/>
				</g>
			</g>
		</g>
		<g>
			<g>
				<g>
					<path class="st5" d="M567.5,142.1h-69.9V93.8c0-2.2,1.8-3.9,3.9-3.9h66c2.2,0,3.9,1.8,3.9,3.9v44.4
						C571.4,140.4,569.7,142.1,567.5,142.1z"/>
				</g>
				<g>
					<path class="st10" d="M567.5,89.9h-15.2v30.9c0,2.2-1.8,3.9-3.9,3.9h-50.7v17.5h69.9c2.2,0,3.9-1.8,3.9-3.9V93.8
						C571.4,91.7,569.7,89.9,567.5,89.9z"/>
				</g>
			</g>
			<g>
				<path class="st10" d="M526.9,30.1c-1.5,0-2.9-0.6-4-1.7c-2.2-2.2-2.2-5.8,0-8.1l5.8-5.8c2.2-2.2,5.8-2.2,8.1,0
					c2.2,2.2,2.2,5.8,0,8.1l-5.8,5.8C529.8,29.5,528.4,30.1,526.9,30.1z"/>
			</g>
			<g>
				<path class="st17" d="M762.2,72.8c-1.5,0-2.9-0.6-4-1.7l-5.8-5.8c-2.2-2.2-2.2-5.8,0-8.1c2.2-2.2,5.8-2.2,8.1,0l5.8,5.8
					c2.2,2.2,2.2,5.8,0,8.1C765.1,72.2,763.7,72.8,762.2,72.8L762.2,72.8z"/>
			</g>
			<g>
				<path class="st16" d="M560.1,63.4c-1.5,0-2.9-0.6-4-1.7l-5.8-5.8c-2.2-2.2-2.2-5.8,0-8.1c2.2-2.2,5.8-2.2,8.1,0l5.8,5.8
					c2.2,2.2,2.2,5.8,0,8.1C563,62.9,561.5,63.4,560.1,63.4z"/>
			</g>
		</g>
		<g>
			<g>
				<g>
					<path class="st10" d="M801.6,66.8h69.9V18.4c0-2.2-1.8-3.9-3.9-3.9h-66c-2.2,0-3.9,1.8-3.9,3.9v44.4
						C797.6,65,799.4,66.8,801.6,66.8z"/>
				</g>
				<g>
					<path class="st18" d="M867.5,14.5h-13.6v31c0,2.2-1.8,3.9-3.9,3.9h-52.4v13.4c0,2.2,1.8,3.9,3.9,3.9h69.9V18.4
						C871.4,16.3,869.7,14.5,867.5,14.5z"/>
				</g>
			</g>
		</g>
	</g>
</g>
</svg>
