<?xml version="1.0" encoding="utf-8"?>
<!-- Generator: Adobe Illustrator 26.0.1, SVG Export Plug-In . SVG Version: 6.00 Build 0)  -->
<svg version="1.1" id="Layer_1" xmlns="http://www.w3.org/2000/svg" xmlns:xlink="http://www.w3.org/1999/xlink" x="0px" y="0px"
	 viewBox="0 0 783.53 1000" style="enable-background:new 0 0 783.53 1000;" xml:space="preserve">
<style type="text/css">
	.st0{fill:#FF9039;}
	.st1{opacity:0.6;fill:#DD7026;}
	.st2{fill:#FFFFFF;}
	.st3{fill:#FF4FB9;}
	.st4{fill:#FFE02F;}
	.st5{fill:#FFB1A0;}
	.st6{fill:#00C2FB;}
	.st7{fill:#7B6C79;}
	.st8{fill:#2F4DCA;}
	.st9{fill:#6B7ED9;}
	.st10{fill:#FF72C7;}
	.st11{fill:#DBEDFF;}
	.st12{fill:#4D66D2;}
	.st13{fill:#62DDFC;}
	.st14{fill:#FBC700;}
</style>
<g>
	<polygon class="st0" points="391.76,986.19 292.34,813.99 491.19,813.99 	"/>
	<path class="st0" d="M780.75,118.6v666.73c0,19.96-16.18,36.11-36.11,36.11H38.89c-19.96,0-36.11-16.15-36.11-36.11V118.6
		c0-19.93,16.15-36.11,36.11-36.11h705.76C764.57,82.49,780.75,98.67,780.75,118.6z"/>
	<path class="st1" d="M780.75,558.38v226.95c0,19.96-16.18,36.11-36.11,36.11H38.89c-19.96,0-36.11-16.15-36.11-36.11V320.63
		C161.78,559.66,430.48,808.21,780.75,558.38z"/>
	<g>
		<path class="st2" d="M125.11,217.23h-9.95v48.35h-12.11v-7.35c0-4.21-1.08-7.58-3.24-10.12c-2.16-2.54-5.18-3.81-9.04-3.81
			c-2.42,0-4.31,0.51-5.67,1.51c-1.36,1.01-2.03,2.41-2.03,4.19c0,1.79,0.62,3.11,1.86,3.98c1.24,0.86,2.81,1.3,4.71,1.3
			c1.04,0,2.13-0.06,3.29-0.17v9.95c-1.62,0.35-3.55,0.52-5.8,0.52c-4.79,0-8.72-1.35-11.81-4.07c-3.09-2.71-4.63-6.57-4.63-11.59
			c0-3.81,0.99-6.99,2.98-9.56c1.99-2.56,4.68-4.4,8.09-5.49c-0.64-3.06-1.92-5.25-3.85-6.57c-1.93-1.33-4.63-1.99-8.09-1.99v-9.08
			h-5.28v-9.69h60.55V217.23z M103.05,240.58v-23.36H80.82c3.46,1.56,6.24,3.81,8.35,6.75c2.1,2.94,3.44,6.31,4.02,10.12
			C97.69,234.84,100.98,237.01,103.05,240.58z"/>
		<path class="st2" d="M146.74,217.23h-7.35v48.35h-12.11v-42.99c0-2.25-0.3-3.7-0.91-4.37c-0.61-0.66-1.83-0.99-3.68-0.99h-2.77
			v-9.69h4.32c1.9,0,3.34,0.98,4.33,2.94c-0.58-3.11-0.86-5.88-0.86-8.31v-1.56h11.68v6.92h7.35V217.23z"/>
		<path class="st2" d="M186.52,217.23h-43.25v-9.69H170c0-0.29,0.01-0.72,0.04-1.3c0.03-0.58,0.04-0.92,0.04-1.04
			c0-1.79-0.3-3.11-0.91-3.98c-0.61-0.86-1.8-1.3-3.59-1.3c-0.98,0-2.77,0.28-5.36,0.82c-2.59,0.55-4.67,0.82-6.23,0.82
			c-2.88,0-5.39-0.63-7.53-1.9v-9.26c1.79,0.98,3.92,1.47,6.4,1.47c1.5,0,3.71-0.35,6.62-1.04c2.91-0.69,5.41-1.04,7.48-1.04
			c4.56,0,8.04,1.2,10.47,3.59c2.42,2.39,3.63,5.75,3.63,10.08c0,1.38-0.12,2.74-0.35,4.07h5.79V217.23z M181.25,266.36h-15.83
			l-15.83-10.81v-9.52h8.65c3.92,0,6.89-0.85,8.91-2.55c2.02-1.7,3.03-4.02,3.03-6.96c0-1.9-0.51-3.4-1.51-4.5
			c-1.01-1.09-2.35-1.64-4.02-1.64c-1.62,0-2.91,0.51-3.89,1.51c-0.98,1.01-1.47,2.29-1.47,3.85c0,1.5,0.14,2.77,0.43,3.81h-10.99
			c-0.52-1.67-0.78-3.43-0.78-5.28c0-4.04,1.48-7.31,4.45-9.82c2.97-2.51,6.9-3.76,11.81-3.76c5.3,0,9.57,1.53,12.8,4.58
			c3.23,3.06,4.84,6.81,4.84,11.25c0,4.84-1.57,8.72-4.71,11.63c-3.14,2.91-7.31,4.77-12.5,5.58l16.61,11.33V266.36z"/>
		<path class="st2" d="M244.91,265.58H232.8v-25c0-4.27-1.59-6.4-4.76-6.4c-3.29,0-4.93,2.51-4.93,7.53v2.08h-12.37v-2.68
			c0-4.61-1.73-6.92-5.19-6.92c-1.73,0-3.04,0.62-3.94,1.86c-0.89,1.24-1.34,2.81-1.34,4.71c0,4.56,2.19,6.83,6.57,6.83
			c0.98,0,2.13-0.09,3.46-0.26v10.12c-1.56,0.23-3.17,0.35-4.84,0.35c-5.31,0-9.52-1.56-12.63-4.67c-3.11-3.11-4.67-7.29-4.67-12.54
			c0-4.9,1.43-8.88,4.28-11.94c2.85-3.06,6.85-4.58,11.98-4.58c3.46,0,6.27,0.74,8.43,2.21c2.16,1.47,3.5,3.3,4.02,5.49
			c0.58-2.19,1.67-4.04,3.29-5.54c1.61-1.5,3.75-2.25,6.4-2.25c2.65,0,4.73,0.84,6.23,2.51v-9.26h-49.74v-9.69h69.2v9.69h-7.35
			V265.58z"/>
		<path class="st2" d="M319.22,240.76c0,5.42-1.46,9.66-4.37,12.72c-2.91,3.06-6.93,4.58-12.07,4.58c-0.81,0-1.41-0.03-1.82-0.09
			v-10.9h0.86c3.81,0,5.71-2.1,5.71-6.31c0-5.25-3.92-7.87-11.76-7.87v32.7h-12.11l-30.1-12.28l0.09-0.09v-11.42l12.46-8.39
			l-12.2-7.18v-9h-5.1v-9.69h75.08v9.69h-63.15l16.87,11.07v10.29l-11.33,7.87l17.39,7.53v-31.57h12.11
			c6.46,0,11.98,1.57,16.56,4.72C316.93,230.28,319.22,234.82,319.22,240.76z"/>
		<path class="st2" d="M382.28,265.58h-12.11v-25c0-4.27-1.59-6.4-4.76-6.4c-3.29,0-4.93,2.51-4.93,7.53v2.08h-12.37v-2.68
			c0-4.61-1.73-6.92-5.19-6.92c-1.73,0-3.04,0.62-3.94,1.86c-0.89,1.24-1.34,2.81-1.34,4.71c0,4.56,2.19,6.83,6.57,6.83
			c0.98,0,2.13-0.09,3.46-0.26v10.12c-1.56,0.23-3.17,0.35-4.84,0.35c-5.31,0-9.52-1.56-12.63-4.67c-3.11-3.11-4.67-7.29-4.67-12.54
			c0-4.9,1.43-8.88,4.28-11.94c2.85-3.06,6.85-4.58,11.98-4.58c3.46,0,6.27,0.74,8.43,2.21c2.16,1.47,3.5,3.3,4.02,5.49
			c0.58-2.19,1.67-4.04,3.29-5.54c1.61-1.5,3.75-2.25,6.4-2.25c2.65,0,4.73,0.84,6.23,2.51v-9.26h-49.74v-9.69h69.2v9.69h-7.35
			V265.58z"/>
		<path class="st2" d="M413.33,266.19c-0.92,0.17-2.02,0.26-3.29,0.26c-3.17,0-5.94-0.68-8.31-2.03c-2.36-1.35-4.25-3.21-5.67-5.58
			c-1.41-2.36-2.46-4.99-3.16-7.87c-0.69-2.88-1.07-6-1.12-9.34c0-12.05,1.73-20.18,5.19-24.39h-10.81v-9.69h30.19v9.69h-2.85
			c-2.13,0-3.91,0.63-5.32,1.9c-1.41,1.27-2.44,3.14-3.07,5.62c-0.64,2.48-1.07,4.99-1.3,7.53c-0.23,2.54-0.35,5.65-0.35,9.34
			c0,9.46,2.62,14.19,7.87,14.19c0.92,0,1.59-0.03,1.99-0.09V266.19z"/>
		<path class="st2" d="M479.16,242.48c0,5.42-1.46,9.66-4.37,12.72c-2.91,3.06-6.93,4.58-12.07,4.58c-0.81,0-1.41-0.03-1.82-0.09
			v-10.9h0.86c3.81,0,5.71-2.1,5.71-6.32c0-2.82-1.02-5.16-3.07-7.01c-2.05-1.85-4.95-2.88-8.69-3.11v33.22h-11.68v-0.09l-0.09,0.09
			l-26.12-18.08v-11.59c4.73-3.81,9.08-6.88,13.06-9.21c3.98-2.34,8.36-3.96,13.15-4.89v-4.58H412.9v-9.69h70.93v9.69h-28.11v4.58
			c6.17,0.17,11.62,2.12,16.35,5.84C476.79,231.37,479.16,236.32,479.16,242.48z M444.04,252.95v-20.24
			c-5.02,1.67-10.18,4.7-15.48,9.08L444.04,252.95z"/>
		<path class="st2" d="M91.72,370.04c-0.92,0.17-1.96,0.26-3.11,0.26c-5.83,0-10.32-2.21-13.49-6.62
			c-3.17-4.41-4.82-10.48-4.93-18.21c-0.06-4.04,0.1-7.68,0.48-10.94c0.37-3.26,1.05-6.36,2.03-9.3c0.98-2.94,2.28-5.41,3.89-7.4
			c1.61-1.99,3.72-3.56,6.31-4.71c2.6-1.15,5.59-1.73,9-1.73h2.85v9.69h-2.51c-1.9,0-3.52,0.49-4.84,1.47
			c-1.33,0.98-2.34,2.18-3.03,3.59c-0.69,1.41-1.24,3.3-1.64,5.67c-0.4,2.37-0.65,4.51-0.74,6.44c-0.09,1.93-0.13,4.34-0.13,7.22
			c0,9.46,2.62,14.19,7.87,14.19c0.92,0,1.59-0.03,1.99-0.09V370.04z"/>
		<path class="st2" d="M98.81,346.08l6.83-3.81c-2.31-3.75-5.22-6.17-8.74-7.27v-4.67c0-5.07,1.69-9.65,5.06-13.71
			c3.37-4.07,8.17-6.1,14.4-6.1c6.17,0,10.58,2.19,13.24,6.57v-12.63h12.11v6.92h7.35v9.69h-7.35v48.35h-12.11v-28.72l-30.79,17.82
			V346.08z M108.59,330.42c2.65,1.27,4.84,3.46,6.57,6.57l13.84-7.79c-1.38-5.54-4.87-8.3-10.47-8.3c-2.88,0-5.26,0.91-7.14,2.73
			C109.52,325.45,108.59,327.71,108.59,330.42z"/>
		<path class="st2" d="M172.42,321.08h-7.35v48.35h-12.11v-48.35h-7.35v-9.69h8.56c0.17-2.42,0.26-4.24,0.26-5.45
			c0-1.79-0.3-3.11-0.91-3.98c-0.61-0.86-1.8-1.3-3.59-1.3c-0.98,0-2.77,0.2-5.36,0.61c-2.59,0.4-4.67,0.61-6.23,0.61
			c-2.94,0-5.45-0.61-7.53-1.82v-9.17c2.13,0.86,4.27,1.3,6.4,1.3c1.5,0,3.71-0.27,6.62-0.82c2.91-0.55,5.41-0.82,7.48-0.82
			c4.56,0,8.04,1.2,10.47,3.59c2.42,2.39,3.63,5.75,3.63,10.08c0,2.48-0.2,4.87-0.61,7.18h7.61V321.08z"/>
		<path class="st2" d="M177.53,291.67c0,4.21-1.49,7.81-4.45,10.81c-2.97,3-7.34,4.5-13.1,4.5c-5.71,0-10.08-1.5-13.11-4.5
			c-3.03-3-4.54-6.6-4.54-10.81h9.26c0,2.08,0.66,3.85,1.99,5.32c1.33,1.47,3.46,2.21,6.4,2.21c5.59,0,8.39-2.51,8.39-7.53H177.53z
			 M165.42,289.68c0,1.5-0.52,2.75-1.56,3.76c-1.04,1.01-2.34,1.51-3.89,1.51c-1.5,0-2.75-0.5-3.76-1.51
			c-1.01-1.01-1.51-2.26-1.51-3.76c0-1.5,0.51-2.77,1.51-3.81c1.01-1.04,2.26-1.56,3.76-1.56c1.56-0.06,2.87,0.43,3.94,1.47
			C164.97,286.82,165.48,288.12,165.42,289.68z"/>
		<path class="st2" d="M219.31,373.76h-16.78l-22.84-11.76v-8.22c2.42,0.12,4.27,0.17,5.54,0.17c3.4,0,6.54-0.2,9.43-0.6
			c2.88-0.4,5.54-1.05,7.96-1.95c2.42-0.89,4.32-2.16,5.71-3.81c1.38-1.64,2.08-3.59,2.08-5.84c0-1.61-0.53-2.85-1.6-3.72
			c-1.07-0.86-2.7-1.56-4.89-2.08c0.06,0.23,0.09,0.61,0.09,1.12c0,3.29-1.47,6.27-4.41,8.95c-2.94,2.68-6.35,4.02-10.21,4.02
			c-3.92,0-6.96-0.99-9.13-2.98c-2.16-1.99-3.24-4.83-3.24-8.52v-17.47h-8.04v-9.69h58.99v9.69H187.3v2.85l3.63,0.69
			c0.11,0,0.2,0.03,0.26,0.09l13.24,2.51c5.77,1.15,10.02,2.88,12.76,5.19c2.74,2.31,4.11,5.48,4.11,9.51
			c0,5.42-2.28,9.82-6.83,13.19c-4.56,3.37-10.47,5.58-17.73,6.62c4.61,1.96,7.67,3.32,9.17,4.07l13.41,6.83V373.76z M189.47,341.93
			c1.27,0,2.39-0.6,3.37-1.82c0.98-1.21,1.47-2.51,1.47-3.89c0-0.98-0.26-1.67-0.78-2.08c-0.52-0.4-1.44-0.75-2.77-1.04l-3.46-0.69
			v7.01C187.3,341.09,188.02,341.93,189.47,341.93z"/>
		<path class="st2" d="M251.31,321.08h-7.35v48.35h-12.11v-42.99c0-2.25-0.3-3.7-0.91-4.37c-0.61-0.66-1.83-0.99-3.68-0.99h-2.77
			v-9.69h4.32c1.9,0,3.34,0.98,4.33,2.94c-0.58-3.11-0.86-5.88-0.86-8.31v-1.56h11.68v6.92h7.35V321.08z"/>
		<path class="st2" d="M275.01,370.04c-0.92,0.17-2.02,0.26-3.29,0.26c-3.17,0-5.94-0.68-8.31-2.03c-2.36-1.35-4.25-3.21-5.67-5.58
			c-1.41-2.36-2.47-4.99-3.16-7.87c-0.69-2.88-1.07-6-1.12-9.34c0-12.05,1.73-20.18,5.19-24.39h-10.81v-9.69h30.19v9.69h-2.85
			c-2.13,0-3.91,0.63-5.32,1.9c-1.41,1.27-2.44,3.14-3.07,5.62c-0.64,2.48-1.07,4.99-1.3,7.53c-0.23,2.54-0.35,5.65-0.35,9.34
			c0,9.46,2.62,14.19,7.87,14.19c0.92,0,1.59-0.03,1.99-0.09V370.04z"/>
		<path class="st2" d="M322.41,369.43H310.3c-0.35-2.42-0.84-4.87-1.47-7.35c-0.63-2.48-1.48-5.07-2.55-7.78
			c-1.07-2.71-2.44-4.92-4.11-6.62c-1.67-1.7-3.52-2.55-5.54-2.55c-1.96,0-3.43,0.63-4.41,1.9c-0.98,1.27-1.47,2.94-1.47,5.02
			c0,1.62,0.14,3.2,0.43,4.76h-11.76c-0.52-2.13-0.78-4.12-0.78-5.97c0-4.55,1.41-8.42,4.24-11.59c2.82-3.17,6.75-4.76,11.76-4.76
			c7.04,0,12.25,3.43,15.66,10.29v-23.7h-35.72v-9.69h54.41v9.69h-6.57V369.43z"/>
		<path class="st2" d="M352.34,321.08h-7.35v48.35h-12.11v-42.99c0-2.25-0.3-3.7-0.91-4.37c-0.61-0.66-1.83-0.99-3.68-0.99h-2.77
			v-9.69h4.32c1.9,0,3.34,0.98,4.33,2.94c-0.58-3.11-0.86-5.88-0.86-8.31v-1.56h11.68v6.92h7.35V321.08z"/>
		<path class="st2" d="M358.27,334.4c-2.8-2.59-4.19-5.94-4.19-10.03c0-4.09,1.4-7.42,4.19-9.99c2.8-2.57,6.41-3.85,10.86-3.85
			c4.44,0,8.04,1.28,10.81,3.85c2.77,2.57,4.15,5.9,4.15,9.99c0,4.1-1.38,7.44-4.15,10.03c-2.77,2.6-6.37,3.89-10.81,3.89
			C364.68,338.29,361.06,337,358.27,334.4z M358.27,366.41c-2.8-2.59-4.19-5.94-4.19-10.03c0-4.09,1.4-7.43,4.19-9.99
			c2.8-2.57,6.41-3.85,10.86-3.85c4.44,0,8.04,1.28,10.81,3.85c2.77,2.57,4.15,5.9,4.15,9.99c0,4.1-1.38,7.44-4.15,10.03
			c-2.77,2.59-6.37,3.89-10.81,3.89C364.68,370.3,361.06,369,358.27,366.41z M372.84,328.43c0.86-1.04,1.3-2.39,1.3-4.07
			c0-1.67-0.43-3.04-1.3-4.11c-0.87-1.07-2.11-1.6-3.72-1.6c-1.62,0-2.87,0.53-3.76,1.6c-0.89,1.07-1.34,2.44-1.34,4.11
			c0,1.67,0.45,3.03,1.34,4.07c0.89,1.04,2.15,1.56,3.76,1.56C370.74,329.99,371.98,329.47,372.84,328.43z M372.84,360.44
			c0.86-1.04,1.3-2.39,1.3-4.07c0-1.67-0.43-3.04-1.3-4.11c-0.87-1.07-2.11-1.6-3.72-1.6c-1.62,0-2.87,0.53-3.76,1.6
			c-0.89,1.07-1.34,2.44-1.34,4.11c0,1.67,0.45,3.03,1.34,4.07c0.89,1.04,2.15,1.56,3.76,1.56
			C370.74,361.99,371.98,361.47,372.84,360.44z"/>
	</g>
	<g>
		<path class="st2" d="M102.45,495.94v-27.16l-30.36,13.67v-6.66l8.04-3.55c-2.08-3.23-4.84-5.51-8.3-6.83v-1.73
			c0-4.61,1.53-8.69,4.58-12.24c3.06-3.55,7.29-5.32,12.72-5.32c6.23,0,10.67,2.16,13.32,6.49v-12.89h6.66v7.27h9.77v5.8h-9.77
			v51.99h-6.66v-0.69c0-2.59-1.15-3.89-3.46-3.89c-0.92,0-2.9,0.39-5.93,1.17s-5.84,1.17-8.43,1.17c-3.81,0-6.82-1.12-9.04-3.37
			c-2.22-2.25-3.33-5.31-3.33-9.17c0-1.67,0.17-3.2,0.52-4.58h6.31c-0.29,1.44-0.43,2.85-0.43,4.24c0,4.56,2.16,6.83,6.49,6.83
			c1.79,0,4.02-0.36,6.7-1.08c2.68-0.72,4.83-1.08,6.44-1.08C99.97,494.3,101.36,494.85,102.45,495.94z M78.49,462.21
			c3.06,1.67,5.45,4.21,7.18,7.61l16.52-7.35c-0.58-3.23-1.89-5.8-3.94-7.7c-2.05-1.9-4.8-2.85-8.26-2.85
			c-3.46,0-6.16,1.01-8.09,3.03C79.98,456.96,78.84,459.38,78.49,462.21z"/>
		<path class="st2" d="M141.64,452.78h-9.77v49.74h-6.66v-49.74h-9.77v-5.8h9.77v-2.85c0-11.82,6.54-17.73,19.64-17.73
			c6.8,0,14.42,1.27,22.84,3.81v5.71c-7.73-2.48-15.25-3.72-22.58-3.72c-4.96,0-8.41,1.01-10.34,3.03c-1.93,2.02-2.9,4.99-2.9,8.91
			v2.85h9.77V452.78z"/>
		<path class="st2" d="M199.59,452.78h-61.42v-5.8h61.42V452.78z M192.07,475.44c0,3-0.43,5.87-1.3,8.61
			c-0.86,2.74-2.16,5.25-3.89,7.53c-1.73,2.28-4.1,4.1-7.09,5.45c-3,1.36-6.43,2.03-10.29,2.03c-7.73,0-13.65-2.75-17.78-8.26
			c-4.12-5.51-6.19-12.44-6.19-20.8c0-2.88,0.17-5.62,0.52-8.22h6.57c-0.35,2.13-0.52,4.87-0.52,8.22c0,6.69,1.48,12.23,4.45,16.61
			c2.97,4.38,7.28,6.57,12.93,6.57c5.13,0,9.05-1.64,11.76-4.93c2.71-3.29,4.07-7.55,4.07-12.8c0-3.17-0.59-5.8-1.77-7.87
			c-1.18-2.08-3.07-3.11-5.67-3.11c-2.13,0-3.78,0.74-4.93,2.21c-1.15,1.47-1.73,3.39-1.73,5.75c0,2.02,0.32,4.24,0.95,6.66h-6.23
			c-0.86-2.19-1.3-4.5-1.3-6.92c0-3.86,1.14-7.08,3.42-9.65c2.28-2.57,5.52-3.85,9.73-3.85c4.32,0,7.78,1.64,10.38,4.93
			C190.77,466.88,192.07,470.83,192.07,475.44z"/>
		<path class="st2" d="M222,503.12c-0.46,0.06-1.27,0.09-2.42,0.09c-5.54,0-9.57-2.16-12.11-6.49c-2.54-4.32-3.86-10-3.98-17.04
			c0-13.09,2.65-22.06,7.96-26.9h-15.31v-5.8h28.29v5.8h-1.3c-2.48,0-4.6,0.78-6.36,2.34c-1.76,1.56-3.11,3.68-4.07,6.36
			c-0.95,2.68-1.63,5.52-2.03,8.52c-0.4,3-0.61,6.23-0.61,9.69c0,11.71,3.43,17.56,10.29,17.56H222V503.12z"/>
		<path class="st2" d="M273.46,452.78h-9.77v49.74h-6.75l-29.15-14.71v-7.53l15.57-11.5l-15.48-10.99v-5.02h-6.92v-5.8h52.51V452.78
			z M249.07,465.23v6.92l-14.79,11.42l22.66,11.85v-42.65h-24.65L249.07,465.23z"/>
		<path class="st2" d="M296.13,452.78h-9.77v49.74h-6.66v-42.73c0-2.25-0.4-3.98-1.21-5.19c-0.81-1.21-2.25-1.82-4.33-1.82h-4.24
			v-5.8h4.5c2.77,0,4.79,1.24,6.06,3.72c-0.46-2.65-0.69-5.45-0.69-8.39v-2.6h6.57v7.27h9.77V452.78z"/>
		<path class="st2" d="M318.88,452.78h-9.77v49.74h-6.66v-49.74h-9.77v-5.8h9.77v-2.85c0-11.82,6.54-17.73,19.64-17.73
			c6.8,0,14.42,1.27,22.84,3.81v5.71c-7.73-2.48-15.25-3.72-22.58-3.72c-4.96,0-8.41,1.01-10.34,3.03c-1.93,2.02-2.9,4.99-2.9,8.91
			v2.85h9.77V452.78z"/>
		<path class="st2" d="M358.66,502.52H352v-36.16c0-4.33-1.02-7.79-3.07-10.38c-2.05-2.6-5.09-3.89-9.13-3.89
			c-3.69,0-6.53,0.99-8.52,2.98c-1.99,1.99-3.1,4.66-3.33,8h1.04c4.5,0,8.1,1.16,10.81,3.46c2.71,2.31,4.09,5.45,4.15,9.43
			c-0.06,4.15-1.51,7.41-4.37,9.77c-2.85,2.36-6.65,3.55-11.37,3.55c-2.25,0-4.61-0.23-7.09-0.69v-5.62
			c1.67,0.23,4.04,0.35,7.09,0.35c6,0,9-2.45,9-7.35c0-2.31-0.78-4.08-2.34-5.32c-1.56-1.24-3.78-1.86-6.66-1.86h-6.83v-4.58
			c0-4.9,1.53-9.14,4.58-12.72c3.06-3.57,7.27-5.36,12.63-5.36c6.4,0,10.87,2.13,13.41,6.4v-12.8h6.66v7.27h9.77v5.8h-9.77V502.52z"
			/>
		<path class="st2" d="M426.4,452.78h-61.42v-5.8h61.42V452.78z M418.87,475.44c0,3-0.43,5.87-1.3,8.61
			c-0.86,2.74-2.16,5.25-3.89,7.53c-1.73,2.28-4.1,4.1-7.09,5.45c-3,1.36-6.43,2.03-10.29,2.03c-7.73,0-13.65-2.75-17.78-8.26
			c-4.12-5.51-6.19-12.44-6.19-20.8c0-2.88,0.17-5.62,0.52-8.22h6.57c-0.35,2.13-0.52,4.87-0.52,8.22c0,6.69,1.48,12.23,4.45,16.61
			c2.97,4.38,7.28,6.57,12.93,6.57c5.13,0,9.05-1.64,11.76-4.93c2.71-3.29,4.07-7.55,4.07-12.8c0-3.17-0.59-5.8-1.77-7.87
			c-1.18-2.08-3.07-3.11-5.67-3.11c-2.13,0-3.78,0.74-4.93,2.21c-1.15,1.47-1.73,3.39-1.73,5.75c0,2.02,0.32,4.24,0.95,6.66h-6.23
			c-0.86-2.19-1.3-4.5-1.3-6.92c0-3.86,1.14-7.08,3.42-9.65c2.28-2.57,5.52-3.85,9.73-3.85c4.32,0,7.78,1.64,10.38,4.93
			C417.57,466.88,418.87,470.83,418.87,475.44z"/>
		<path class="st2" d="M449.15,452.78h-9.77v49.74h-6.66v-42.73c0-2.25-0.4-3.98-1.21-5.19c-0.81-1.21-2.25-1.82-4.33-1.82h-4.24
			v-5.8h4.5c2.77,0,4.79,1.24,6.06,3.72c-0.46-2.65-0.69-5.45-0.69-8.39v-2.6h6.57v7.27h9.77V452.78z"/>
		<path class="st2" d="M498.19,452.78h-9.77v49.74h-6.75l-29.15-14.71v-7.53l15.57-11.5l-15.48-10.99v-5.02h-6.92v-5.8h52.51V452.78
			z M464.11,502.21c0.92,0.89,1.38,1.97,1.38,3.24c0,1.27-0.45,2.34-1.34,3.2s-2,1.3-3.33,1.3c-1.33,0-2.41-0.43-3.24-1.3
			c-0.84-0.86-1.25-1.93-1.25-3.2c0-1.27,0.43-2.35,1.3-3.24c0.86-0.89,1.93-1.34,3.2-1.34
			C462.09,500.87,463.19,501.32,464.11,502.21z M473.8,465.23v6.92L459,483.57l22.66,11.85v-42.65h-24.65L473.8,465.23z"/>
		<path class="st2" d="M584.61,502.52h-6.66v-1.38c0-8.25-3.17-12.37-9.52-12.37h-5.02c-4.04,5.02-9.8,7.53-17.3,7.53
			c-7.5,0-13.31-2.35-17.43-7.05c-4.12-4.7-6.18-10.86-6.18-18.47c0-3,0.2-6.06,0.61-9.17h6.57c-0.4,3.35-0.6,6.43-0.6,9.26
			c0,6.11,1.5,10.9,4.5,14.36c3,3.46,7.15,5.19,12.46,5.19c4.9,0,8.71-1.51,11.42-4.54c2.71-3.03,4.07-7.02,4.07-11.98
			c0-3-0.59-5.44-1.77-7.31c-1.18-1.87-2.98-2.81-5.41-2.81c-2.08,0-3.69,0.75-4.84,2.25c-1.15,1.5-1.73,3.43-1.73,5.8
			c0,1.67,0.29,3.78,0.87,6.31h-6.06c-0.81-2.02-1.21-4.3-1.21-6.83c0-3.75,1.15-6.9,3.46-9.47c2.31-2.57,5.45-3.85,9.43-3.85
			c4.33,0,7.74,1.53,10.25,4.58c2.51,3.06,3.76,6.83,3.76,11.33c0,3.29-0.55,6.31-1.64,9.08h2.08c4.27,0,7.35,1.38,9.26,4.15v-34.34
			h-63.75v-5.8h80.19v5.8h-9.77V502.52z"/>
		<path class="st2" d="M596.97,459.35c0-3.63,1.27-6.7,3.81-9.21c2.54-2.51,5.8-3.76,9.77-3.76c3.86,0,7.06,1.25,9.6,3.76
			c2.54,2.51,3.81,5.58,3.81,9.21c0,3.75-1.25,6.86-3.76,9.34c-2.51,2.48-5.72,3.72-9.65,3.72c-3.98,0-7.24-1.24-9.77-3.72
			C598.24,466.22,596.97,463.1,596.97,459.35z M596.97,482.27v-7.27l29.32,20.5v7.18L596.97,482.27z M617.56,459.35
			c0-2.13-0.63-3.89-1.9-5.28c-1.27-1.38-2.97-2.08-5.1-2.08c-2.19,0-3.94,0.68-5.23,2.03c-1.3,1.36-1.95,3.13-1.95,5.32
			c0,2.25,0.65,4.07,1.95,5.45c1.3,1.38,3.04,2.08,5.23,2.08c2.13,0,3.83-0.69,5.1-2.08C616.93,463.42,617.56,461.6,617.56,459.35z"
			/>
		<path class="st2" d="M680.01,502.52h-6.66V464.8c0-3.52-0.84-6.54-2.51-9.08c-1.67-2.54-4.5-3.81-8.48-3.81
			c-2.94,0-5.28,0.89-7.01,2.68c-1.73,1.79-2.59,4.18-2.59,7.18c0,3.23,0.82,5.68,2.47,7.35c1.64,1.67,3.88,2.51,6.7,2.51
			c1.21,0,2.42-0.09,3.63-0.26v5.97c-1.33,0.23-2.71,0.35-4.15,0.35c-5.54,0-9.54-1.99-12.02-5.97c-2.42,3.98-6.37,5.97-11.85,5.97
			c-1.62,0-3.23-0.17-4.84-0.52v-5.88c1.33,0.23,2.74,0.35,4.24,0.35c2.94,0,5.2-0.84,6.79-2.51c1.59-1.67,2.38-4.12,2.38-7.35
			c0-2.94-0.89-5.16-2.68-6.66c-1.79-1.5-4.27-2.25-7.44-2.25l-8.82-0.09v-5.8h9.17c5.88,0,10.18,1.93,12.89,5.8
			c2.77-4.44,7.01-6.66,12.72-6.66c5.07,0,8.88,1.64,11.42,4.93v-11.33h6.66v7.27h9.77v5.8h-9.77V502.52z"/>
		<path class="st2" d="M90.78,556.58H81v49.74h-6.66v-49.74h-9.77v-5.8h9.77v-2.85c0-11.82,6.54-17.73,19.64-17.73
			c6.8,0,14.42,1.27,22.84,3.81v5.71c-7.73-2.48-15.25-3.72-22.58-3.72c-4.96,0-8.41,1.01-10.34,3.03c-1.93,2.02-2.9,4.99-2.9,8.91
			v2.85h9.77V556.58z"/>
		<path class="st2" d="M130.13,606.32h-6.66v-0.35c-1.85-18.11-7.01-27.16-15.48-27.16c-2.83,0-4.99,0.86-6.49,2.6
			c-1.5,1.73-2.25,4.1-2.25,7.09c0,1.5,0.09,2.83,0.26,3.98h-6.57c-0.29-1.85-0.43-3.29-0.43-4.33c0-4.44,1.35-8.13,4.07-11.07
			c2.71-2.94,6.34-4.41,10.9-4.41c7.5,0,12.83,4.12,16,12.37v-28.46H87.31v-5.8h52.42v5.8h-9.6V606.32z"/>
		<path class="st2" d="M162.14,606.92c-0.46,0.06-1.27,0.09-2.42,0.09c-5.54,0-9.57-2.16-12.11-6.49c-2.54-4.32-3.86-10-3.98-17.04
			c0-13.09,2.65-22.06,7.96-26.9h-15.31v-5.8h28.29v5.8h-1.3c-2.48,0-4.6,0.78-6.36,2.34c-1.76,1.56-3.11,3.68-4.07,6.36
			c-0.95,2.68-1.63,5.52-2.03,8.52c-0.4,3-0.61,6.23-0.61,9.69c0,11.71,3.43,17.56,10.29,17.56h1.64V606.92z"/>
		<path class="st2" d="M213.61,556.58h-9.77v49.74h-6.75l-29.15-14.71v-7.53l15.57-11.5l-15.48-10.99v-5.02h-6.92v-5.8h52.51V556.58
			z M179.52,606.02c0.92,0.89,1.38,1.97,1.38,3.24c0,1.27-0.45,2.34-1.34,3.2s-2,1.3-3.33,1.3c-1.33,0-2.41-0.43-3.24-1.3
			c-0.84-0.86-1.25-1.93-1.25-3.2c0-1.27,0.43-2.35,1.3-3.24c0.86-0.89,1.93-1.34,3.2-1.34C177.5,604.68,178.6,605.12,179.52,606.02
			z M189.21,569.04v6.92l-14.79,11.42l22.66,11.85v-42.65h-24.65L189.21,569.04z"/>
		<path class="st2" d="M255.82,556.58h-9.77v49.74h-6.66v-49.74h-9.77v-5.8h9.77v-2.85c0-11.82,6.54-17.73,19.64-17.73
			c6.8,0,14.42,1.27,22.84,3.81v5.71c-7.73-2.48-15.25-3.72-22.58-3.72c-4.96,0-8.41,1.01-10.34,3.03c-1.93,2.02-2.9,4.99-2.9,8.91
			v2.85h9.77V556.58z"/>
		<path class="st2" d="M295.17,606.32h-6.66v-0.35c-1.85-18.11-7.01-27.16-15.48-27.16c-2.83,0-4.99,0.86-6.49,2.6
			c-1.5,1.73-2.25,4.1-2.25,7.09c0,1.5,0.09,2.83,0.26,3.98h-6.57c-0.29-1.85-0.43-3.29-0.43-4.33c0-4.44,1.35-8.13,4.07-11.07
			c2.71-2.94,6.34-4.41,10.9-4.41c7.5,0,12.83,4.12,16,12.37v-28.46h-36.16v-5.8h52.42v5.8h-9.6V606.32z"/>
		<path class="st2" d="M327.18,606.92c-0.46,0.06-1.27,0.09-2.42,0.09c-5.54,0-9.57-2.16-12.11-6.49c-2.54-4.32-3.86-10-3.98-17.04
			c0-13.09,2.65-22.06,7.96-26.9h-15.31v-5.8h28.29v5.8h-1.3c-2.48,0-4.6,0.78-6.36,2.34c-1.76,1.56-3.11,3.68-4.07,6.36
			c-0.95,2.68-1.63,5.52-2.03,8.52c-0.4,3-0.61,6.23-0.61,9.69c0,11.71,3.43,17.56,10.29,17.56h1.64V606.92z"/>
		<path class="st2" d="M394.39,606.32h-6.57c-1.27-5.25-1.9-10.78-1.9-16.61c0-5.13,0.63-10.15,1.9-15.05
			c-5.42-1.27-10.32-3.37-14.71-6.32c-4.38-2.94-7.53-6.46-9.43-10.55c-5.36,3.98-8.04,8.48-8.04,13.49c0,4.67,2.74,7.01,8.22,7.01
			c4.04,0,8.07-0.89,12.11-2.68c1.09,2.37,1.64,5.22,1.64,8.56c0,6.29-1.85,11.46-5.54,15.53c-3.69,4.07-8.88,6.1-15.57,6.1
			c-7.38,0-13.21-2.65-17.47-7.96c-4.27-5.31-6.4-12.17-6.4-20.59c0-0.86,0.06-2.22,0.17-4.07h6.57c-0.06,0.81-0.09,1.99-0.09,3.55
			c0,6.92,1.5,12.51,4.5,16.78c3,4.27,7.24,6.4,12.72,6.4c4.84,0,8.52-1.43,11.03-4.28c2.51-2.85,3.76-6.67,3.76-11.46v-1.38
			c-2.71,0.92-5.71,1.38-9,1.38c-4.15,0-7.44-1.14-9.86-3.42c-2.42-2.28-3.63-5.38-3.63-9.3c0-5.71,2.36-10.67,7.09-14.88h-29.76
			v-5.8h75.34v5.8h-31.31c4.21,6.86,12.54,11.5,25,13.93c-1.85,6.17-2.77,12.57-2.77,19.2C392.4,594.27,393.06,599.8,394.39,606.32z
			"/>
		<path class="st2" d="M423.89,606.92c-0.46,0.06-1.27,0.09-2.42,0.09c-5.54,0-9.57-2.16-12.11-6.49c-2.54-4.32-3.86-10-3.98-17.04
			c0-13.09,2.65-22.06,7.96-26.9h-15.31v-5.8h28.29v5.8h-1.3c-2.48,0-4.6,0.78-6.36,2.34c-1.76,1.56-3.11,3.68-4.07,6.36
			c-0.95,2.68-1.63,5.52-2.03,8.52c-0.4,3-0.61,6.23-0.61,9.69c0,11.71,3.43,17.56,10.29,17.56h1.64V606.92z"/>
		<path class="st2" d="M485.39,582.27c0,5.08-1.38,9-4.15,11.76c-2.77,2.77-6.29,4.15-10.55,4.15c-0.75,0-1.3-0.03-1.64-0.09v-6.23
			h1.04c5.82,0,8.74-3.2,8.74-9.6c0-4.15-1.59-7.48-4.76-9.99c-3.17-2.51-7.21-3.76-12.11-3.76v37.8h-6.57l-27.07-20.67v-7.53
			c9.63-8.82,18.65-13.98,27.07-15.48v-6.05h-32.52v-5.8h67.9v5.8h-28.8v5.97c6.75,0.06,12.34,1.92,16.78,5.58
			C483.17,571.79,485.39,576.51,485.39,582.27z M455.37,598.62v-29.76c-6.52,1.62-13.64,5.97-21.37,13.06L455.37,598.62z"/>
		<path class="st2" d="M90.43,710.73c-0.46,0.06-1.24,0.09-2.34,0.09c-5.48,0-9.52-2.15-12.11-6.44c-2.6-4.3-3.95-9.99-4.07-17.08
			c0-4.04,0.3-7.84,0.91-11.42c0.61-3.58,1.6-7.03,2.98-10.38c1.38-3.34,3.42-6,6.1-7.96c2.68-1.96,5.9-2.94,9.65-2.94h1.3v5.8
			h-1.21c-2.48,0-4.63,0.79-6.44,2.38c-1.82,1.59-3.19,3.73-4.11,6.44c-0.92,2.71-1.59,5.55-1.99,8.52
			c-0.4,2.97-0.61,6.16-0.61,9.56c0,11.71,3.43,17.56,10.29,17.56h1.64V710.73z"/>
		<path class="st2" d="M127.28,703.55v-27.16l-30.36,13.67v-6.66l8.04-3.55c-2.08-3.23-4.84-5.51-8.3-6.83v-1.73
			c0-4.61,1.53-8.69,4.58-12.24c3.06-3.55,7.29-5.32,12.72-5.32c6.23,0,10.67,2.16,13.32,6.49v-12.89h6.66v7.27h9.77v5.8h-9.77
			v51.99h-6.66v-0.69c0-2.59-1.15-3.89-3.46-3.89c-0.92,0-2.9,0.39-5.93,1.17c-3.03,0.78-5.84,1.17-8.43,1.17
			c-3.81,0-6.82-1.12-9.04-3.37c-2.22-2.25-3.33-5.31-3.33-9.17c0-1.67,0.17-3.2,0.52-4.58h6.31c-0.29,1.44-0.43,2.85-0.43,4.24
			c0,4.56,2.16,6.83,6.49,6.83c1.79,0,4.02-0.36,6.7-1.08c2.68-0.72,4.83-1.08,6.44-1.08C124.8,701.9,126.18,702.45,127.28,703.55z
			 M103.32,669.81c3.06,1.67,5.45,4.21,7.18,7.61l16.52-7.35c-0.58-3.23-1.89-5.8-3.94-7.7c-2.05-1.9-4.8-2.85-8.26-2.85
			c-3.46,0-6.16,1.01-8.09,3.03C104.8,664.56,103.66,666.99,103.32,669.81z"/>
		<path class="st2" d="M166.12,710.73c-0.46,0.06-1.27,0.09-2.42,0.09c-5.54,0-9.57-2.16-12.11-6.49c-2.54-4.32-3.86-10-3.98-17.04
			c0-13.09,2.65-22.06,7.96-26.9h-15.31v-5.8h28.29v5.8h-1.3c-2.48,0-4.6,0.78-6.36,2.34c-1.76,1.56-3.11,3.68-4.07,6.36
			c-0.95,2.68-1.63,5.52-2.03,8.52c-0.4,3-0.61,6.23-0.61,9.69c0,11.71,3.43,17.56,10.29,17.56h1.64V710.73z"/>
		<path class="st2" d="M233.33,710.12h-6.57c-1.27-5.25-1.9-10.78-1.9-16.61c0-5.13,0.63-10.15,1.9-15.05
			c-5.42-1.27-10.32-3.37-14.71-6.32c-4.38-2.94-7.53-6.46-9.43-10.55c-5.36,3.98-8.04,8.48-8.04,13.49c0,4.67,2.74,7.01,8.22,7.01
			c4.04,0,8.07-0.89,12.11-2.68c1.09,2.37,1.64,5.22,1.64,8.56c0,6.29-1.85,11.46-5.54,15.53c-3.69,4.07-8.88,6.1-15.57,6.1
			c-7.38,0-13.21-2.65-17.47-7.96c-4.27-5.31-6.4-12.17-6.4-20.59c0-0.86,0.06-2.22,0.17-4.07h6.57c-0.06,0.81-0.09,1.99-0.09,3.55
			c0,6.92,1.5,12.51,4.5,16.78c3,4.27,7.24,6.4,12.72,6.4c4.84,0,8.52-1.43,11.03-4.28c2.51-2.85,3.76-6.67,3.76-11.46v-1.38
			c-2.71,0.92-5.71,1.38-9,1.38c-4.15,0-7.44-1.14-9.86-3.42c-2.42-2.28-3.63-5.38-3.63-9.3c0-5.71,2.36-10.67,7.09-14.88h-29.76
			v-5.8h75.34v5.8h-31.31c4.21,6.86,12.54,11.5,25,13.93c-1.85,6.17-2.77,12.57-2.77,19.2C231.34,698.07,232,703.6,233.33,710.12z"
			/>
		<path class="st2" d="M256.42,671.63c3.4,0,6.43,0.84,9.08,2.51c2.65,1.67,4.73,3.92,6.23,6.75v-20.5h-34.77v-5.8h61.5
			c0.29-1.44,0.43-2.88,0.43-4.33c0-3.92-1.82-5.88-5.45-5.88c-1.56,0-3.88,0.35-6.96,1.04c-3.09,0.69-5.7,1.04-7.83,1.04
			c-3.63,0-6.55-0.58-8.74-1.73v-5.36c2.48,0.86,5.3,1.3,8.48,1.3c1.73,0,4.24-0.36,7.53-1.08c3.29-0.72,5.85-1.08,7.7-1.08
			c3.92,0,6.82,1.04,8.69,3.11c1.87,2.08,2.81,4.73,2.81,7.96c0,1.5-0.14,3.17-0.43,5.02h7.7v5.8h-33.99v35.9
			c0,2.36,0.62,4.19,1.86,5.49c1.24,1.3,2.9,1.95,4.97,1.95c3.98,0,7.27-1.69,9.86-5.06c2.6-3.37,3.89-7.31,3.89-11.81
			c0-6.17-3.4-9.26-10.21-9.26c-1.15,0-2.34,0.09-3.55,0.26v-5.97c1.33-0.23,2.77-0.35,4.33-0.35c5.07,0,9.02,1.38,11.85,4.15
			c2.82,2.77,4.24,6.49,4.24,11.16c0,6.11-1.85,11.43-5.54,15.96c-3.69,4.53-8.65,6.79-14.88,6.79c-3.92,0-7.15-1.18-9.69-3.55
			c-2.54-2.36-3.81-5.62-3.81-9.77v-0.95l-0.09,0.17c0-4.9-1.41-9.08-4.24-12.54c-2.83-3.46-6.29-5.19-10.38-5.19
			c-5.42,0-8.13,3-8.13,9c0,1.5,0.09,2.83,0.26,3.98h-6.57c-0.29-1.84-0.43-3.29-0.43-4.33c0-4.44,1.24-8.01,3.72-10.73
			C248.35,672.98,251.87,671.63,256.42,671.63z"/>
	</g>
	<g>
		<path class="st3" d="M671.7,161.45c-5.41,1.16-11.03,1.74-16.79,1.66c-37.23-0.52-67.71-28.2-72.85-63.93l-0.14-20.4
			c4.8-37.1,36.76-65.51,75.07-64.97c5.04,0.07,9.96,0.64,14.71,1.66L659.67,35.1v108.07L671.7,161.45z"/>
		<path class="st4" d="M739.07,131.48c-11.92,0.8-23.36,5.05-32.93,12.24l-6.44,5.24l-70.73,58.67c-6.94,5.75-14.3,10.89-22,15.39
			l-18.83,9.45c-15.38,6.52-31.72,10.68-48.46,12.3l-6.41,4.13l0.89,10.75l9.54,5.69h195.62c2.15,0,3.89-1.74,3.89-3.89V135.37
			C743.2,133.12,741.31,131.33,739.07,131.48L739.07,131.48z"/>
		<circle class="st5" cx="532.58" cy="53.87" r="18.78"/>
		<path class="st6" d="M543.74,95.7l-21.35-10.75l-2.16,1.93c0.07,2.06-0.45-11.06,1.99,50.14l6,8.76h13.16l5.32-7.54l0.12-34.48
			L543.74,95.7z"/>
		<path class="st7" d="M598.74,216.51c-1.7-0.06-3.56-0.45-5.29-0.95c-1.36-0.4-2.4-1.5-2.67-2.9l-0.26-1.32l-4.74-5.23l-8.6,0.63
			l-4.29,6.71l1.82,9.36c0.52,2.66,2.23,4.94,4.63,6.18c0.97,0.5,9.76,4.91,18.79,5.22c4.89,0.17,8.99-3.66,9.15-8.55
			C607.45,220.78,603.62,216.68,598.74,216.51L598.74,216.51z"/>
		<path class="st8" d="M542,154.67l-14-6.92l-5.09,0.98l-2.01,28.62l4.32,7.45l5.57,3.94l8.01-3.94l4.98-23.69L542,154.67z"/>
		<path class="st9" d="M590.52,211.35l-9.61-49.31c-0.52-2.69-2.26-4.98-4.71-6.22l-27.52-14.3c-1.23-0.64-2-1.91-1.99-3.29
			c-14.39,2.44-24.48-1.22-24.48-1.22l0.39,9.88c0.17,3.06,1.98,5.98,4.86,7.43l34.94,14.55c1.22,0.51,2.11,1.59,2.36,2.89
			l8.12,41.7C580.28,213.92,587.41,212.23,590.52,211.35L590.52,211.35z"/>
		<path class="st10" d="M671.7,15.47c-34.08,7.32-59.4,37.84-58.9,74.03c0.49,35.26,25.45,64.77,58.9,71.95l0,0
			c10.27-2.21,19.77-6.53,28-12.5l6.44-5.24c14.77-13.42,24.16-32.69,24.45-54.22C731.1,53.32,705.77,22.79,671.7,15.47L671.7,15.47
			z"/>
		<g>
			<path class="st11" d="M656.26,111.36c-4.45,0-8.05-3.6-8.05-8.05V89.95c0-4.45,3.6-8.05,8.05-8.05c6.44,0,11.67-5.24,11.67-11.67
				c0-6.44-5.24-11.67-11.67-11.67c-6.44,0-11.67,5.24-11.67,11.67c0,4.45-3.6,8.05-8.05,8.05c-4.45,0-8.05-3.6-8.05-8.05
				c0-15.31,12.46-27.77,27.77-27.77c15.31,0,27.77,12.46,27.77,27.77c0,12.52-8.32,23.12-19.72,26.58v6.5
				C664.31,107.75,660.71,111.36,656.26,111.36L656.26,111.36z"/>
		</g>
		<g>
			<path class="st11" d="M656.26,134.47c-4.45,0-8.05-3.6-8.05-8.05c0-4.45,3.6-8.07,8.05-8.07c4.45,0,8.05,3.59,8.05,8.03v0.04
				C664.31,130.86,660.71,134.47,656.26,134.47L656.26,134.47z"/>
		</g>
		<path class="st12" d="M520.89,177.35l-0.57,8.07l-20.76,25.13v7.03l6.08,5.41l8.1-1.79l22.05-26.68c1.18-1.42,1.88-3.18,2.01-5.02
			l0.99-4.69L520.89,177.35z"/>
		<path class="st7" d="M512.09,223.2l1.65-2c-5.96-2.14-11.61-7.81-14.18-10.65l-5.87,7.1c-1.56,1.88-2.26,4.32-1.96,6.75
			c0.68,5.38,4.69,15.73,15.44,20.4c1.75,0.76,3.6,0.91,5.33,0.55c3.68-0.77,6.79-3.85,7.08-8.36c0.24-3.68-2.07-6.96-5.43-8.47
			c-0.63-0.28-1.18-0.62-1.66-1.01C511.18,226.45,511.02,224.5,512.09,223.2L512.09,223.2z"/>
		<path class="st13" d="M587.29,88.46l-3.92-6.86h-6.3l-13.86,8.04c-1.15,0.67-2.55,0.75-3.78,0.23l-26.9-11.44
			c-4.45-1.89-9.58,0.13-11.55,4.53c-2.03,4.53,0.26,9.92,4.83,11.86l32.71,13.91c2.6,1.1,5.53,0.89,7.91-0.49l19.59-11.36
			L587.29,88.46z"/>
		<path class="st5" d="M577.07,81.6l8.96,15.28l7.73-4.48c4.23-2.45,5.67-7.87,3.22-12.1c-2.45-4.23-7.88-5.67-12.11-3.22
			L577.07,81.6z"/>
		<g>
			<path class="st14" d="M538.78,251.12c0-2.21,0.32-4.34,0.89-6.36c-5.23,0.5-10.49,0.77-15.78,0.77h-28.34
				c-2.15,0-3.89,1.74-3.89,3.89v12.02c0,2.15,1.74,3.89,3.89,3.89h48.13C540.62,261.42,538.78,256.48,538.78,251.12z"/>
		</g>
	</g>
</g>
</svg>
