<?xml version="1.0" encoding="utf-8"?>
<!-- Generator: Adobe Illustrator 26.0.1, SVG Export Plug-In . SVG Version: 6.00 Build 0)  -->
<svg version="1.1" id="Layer_1" xmlns="http://www.w3.org/2000/svg" xmlns:xlink="http://www.w3.org/1999/xlink" x="0px" y="0px"
	 viewBox="0 0 1000 1000" style="enable-background:new 0 0 1000 1000;" xml:space="preserve">
<style type="text/css">
	.st0{fill:#EF3220;}
	.st1{opacity:0.5;fill:#C1211A;}
	.st2{fill:#FFFFFF;}
	.st3{fill:#464754;}
	.st4{fill:#FF6465;}
	.st5{fill:#E1E1E5;}
	.st6{fill:#363844;}
	.st7{fill:#EF525A;}
	.st8{fill:#C7C7C9;}
	.st9{fill:#B28A5D;}
	.st10{fill:#9E6E3F;}
</style>
<g>
	<polygon class="st0" points="324,998.48 426.31,821.27 221.68,821.27 	"/>
	<path class="st0" d="M900.29,130.81v686.11c0,20.54-16.65,37.16-37.16,37.16H136.87c-20.54,0-37.16-16.62-37.16-37.16V130.81
		c0-20.51,16.62-37.16,37.16-37.16h726.27C883.64,93.65,900.29,110.3,900.29,130.81z"/>
	<path class="st1" d="M900.29,583.37v233.55c0,20.54-16.65,37.16-37.16,37.16H136.87c-20.54,0-37.16-16.62-37.16-37.16V338.71
		C263.33,584.69,539.84,840.46,900.29,583.37z"/>
	<g>
		<path class="st2" d="M201.74,275.83v-27.95l-33.11,15.93v-12.1l7.74-3.56c-1.84-2.73-4.42-4.63-7.74-5.7v-1.51
			c0-5.22,1.65-9.78,4.94-13.66c3.29-3.89,8.15-5.83,14.55-5.83c6.29,0,10.83,2.29,13.62,6.85v-13.08h12.46v7.12h7.57v9.97h-7.57
			v57.59h-12.46v-1.78c0-2.14-1.07-3.2-3.21-3.2c-1.25,0-3.46,0.38-6.63,1.16c-3.18,0.77-5.98,1.16-8.41,1.16
			c-4.27,0-7.85-1.25-10.73-3.74c-2.88-2.49-4.32-6.17-4.32-11.04c0-2.14,0.18-4.06,0.53-5.79h12.11c-0.12,1.31-0.18,2.4-0.18,3.29
			c0,4.04,1.75,6.05,5.25,6.05c1.13,0,2.73-0.28,4.81-0.84c2.08-0.56,3.97-0.85,5.7-0.85C198.98,274.31,200.67,274.82,201.74,275.83
			z M180.38,238.09c2.37,1.13,4.36,2.94,5.96,5.43l13.89-6.32c-1.96-3.98-5.28-5.96-9.97-5.96c-2.43,0-4.56,0.62-6.37,1.87
			C182.08,234.35,180.91,236.01,180.38,238.09z"/>
		<path class="st2" d="M274.37,282.06h-12.02v-0.09l-0.09,0.09l-38.37-20.65v-9.97h8.46c4.03,0,7.15-1.1,9.35-3.29
			c2.19-2.19,3.29-5.43,3.29-9.7c0-2.08-0.44-3.78-1.33-5.12c-0.89-1.34-2.23-2-4.01-2c-1.6,0-2.83,0.54-3.69,1.6
			c-0.86,1.07-1.29,2.44-1.29,4.1c0,1.72,0.36,3.65,1.07,5.79h-11.3c-0.95-2.02-1.42-4.51-1.42-7.48c0-4.15,1.45-7.52,4.36-10.1
			c2.91-2.58,6.85-3.87,11.84-3.87c5.46,0,9.79,1.68,13,5.03c3.2,3.35,4.81,7.37,4.81,12.06c0,5.76-1.38,10.34-4.14,13.75
			c-2.76,3.41-6.48,5.68-11.17,6.81l20.65,11.4v-55.19h12.02v7.12h7.57v9.97h-7.57V282.06z"/>
		<path class="st2" d="M340.69,232.3h-10.24v49.76h-12.46v-7.57c0-4.33-1.11-7.8-3.34-10.41c-2.23-2.61-5.33-3.92-9.3-3.92
			c-2.49,0-4.44,0.52-5.83,1.56c-1.4,1.04-2.09,2.48-2.09,4.32c0,1.84,0.64,3.2,1.91,4.1c1.28,0.89,2.89,1.33,4.85,1.33
			c1.07,0,2.19-0.06,3.38-0.18v10.24c-1.66,0.36-3.65,0.53-5.96,0.53c-4.93,0-8.98-1.39-12.15-4.18c-3.18-2.79-4.76-6.77-4.76-11.93
			c0-3.92,1.02-7.2,3.07-9.84c2.05-2.64,4.82-4.52,8.32-5.65c-0.65-3.14-1.97-5.4-3.96-6.77c-1.99-1.36-4.76-2.05-8.32-2.05v-9.35
			h-5.43v-9.97h62.31V232.3z M317.99,256.33V232.3h-22.88c3.56,1.6,6.42,3.92,8.59,6.94c2.17,3.02,3.54,6.5,4.14,10.41
			C312.47,250.43,315.86,252.65,317.99,256.33z"/>
		<path class="st2" d="M191.24,372.73c-0.95,0.18-2.02,0.27-3.2,0.27c-6,0-10.62-2.27-13.89-6.81c-3.26-4.54-4.96-10.78-5.07-18.74
			c-0.06-4.15,0.1-7.91,0.49-11.26c0.39-3.35,1.08-6.54,2.09-9.57c1.01-3.03,2.34-5.56,4.01-7.61c1.66-2.05,3.83-3.66,6.5-4.85
			c2.67-1.19,5.76-1.78,9.26-1.78h2.94v9.97h-2.58c-1.96,0-3.62,0.5-4.99,1.51c-1.37,1.01-2.4,2.24-3.12,3.69
			c-0.71,1.46-1.28,3.4-1.69,5.83c-0.42,2.44-0.67,4.64-0.76,6.63c-0.09,1.99-0.13,4.47-0.13,7.43c0,9.73,2.7,14.6,8.1,14.6
			c0.95,0,1.63-0.03,2.05-0.09V372.73z"/>
		<path class="st2" d="M203.88,358.13c0-4.39,1.38-8.19,4.14-11.39s6.3-5.76,10.64-7.66c-1.54-1.25-2.67-2.7-3.38-4.36
			c-0.89,1.66-2.31,3.1-4.27,4.32c-1.96,1.22-4.39,1.82-7.3,1.82c-3.09,0-6.11-0.74-9.08-2.22v-10.33c3.14,1.25,5.96,1.87,8.46,1.87
			c2.55,0,4.36-0.61,5.43-1.82c1.07-1.22,1.6-3.22,1.6-6.01h-19.32v-9.97h42.64c0-0.3,0.01-0.74,0.04-1.34
			c0.03-0.59,0.04-0.95,0.04-1.07c0-1.84-0.31-3.2-0.93-4.1c-0.62-0.89-1.86-1.34-3.69-1.34c-1.31,0-3.89,0.28-7.74,0.85
			c-3.86,0.56-6.74,0.85-8.63,0.85c-3.98,0-7.06-0.65-9.26-1.96v-9.52c1.84,1.01,4.54,1.51,8.1,1.51c1.84,0,4.85-0.36,9.04-1.07
			c4.18-0.71,7.49-1.07,9.93-1.07c4.69,0,8.28,1.23,10.77,3.69c2.49,2.46,3.74,5.92,3.74,10.37c0,1.42-0.12,2.82-0.36,4.18h7.3v9.97
			h-7.21c0.41,1.66,0.62,3.71,0.62,6.14c0,5.52-2.37,9.47-7.12,11.84c-1.37,0.77-3.68,1.91-6.94,3.43c-3.26,1.51-5.8,2.78-7.61,3.78
			c-1.81,1.01-3.52,2.46-5.12,4.36c-1.6,1.9-2.4,3.98-2.4,6.23c0,4.87,3.44,7.3,10.33,7.3c5.87,0,8.81-1.25,8.81-3.74
			c0-2.26-2.05-3.38-6.14-3.38c-1.07,0-2.2,0.06-3.38,0.18v-9.7c1.36-0.18,2.85-0.27,4.45-0.27c4.86,0,8.78,1.19,11.75,3.56
			c2.97,2.38,4.45,5.58,4.45,9.62c0,4.27-1.9,7.67-5.7,10.19c-3.8,2.52-8.58,3.78-14.33,3.78c-6.83,0-12.26-1.51-16.29-4.54
			C205.89,368.1,203.88,363.77,203.88,358.13z M228.35,331.87c3.21,0,4.81-1.81,4.81-5.43c0-1.6-0.12-2.97-0.36-4.1h-10.77
			C222.15,328.7,224.26,331.87,228.35,331.87z"/>
		<path class="st2" d="M304.46,372.11H292V332.5c0-6.88-2.79-10.33-8.37-10.33c-2.31,0-4.13,0.74-5.43,2.22
			c-1.31,1.48-1.96,3.44-1.96,5.88c0,2.61,0.7,4.54,2.09,5.79c1.39,1.25,3.22,1.87,5.47,1.87c1.36,0,2.31-0.03,2.85-0.09v10.86
			c-1.25,0.24-2.7,0.36-4.36,0.36c-5.64,0-9.76-1.69-12.37-5.07c-2.79,3.38-6.74,5.07-11.84,5.07c-1.84,0-3.8-0.21-5.87-0.62v-10.86
			c1.42,0.24,2.88,0.36,4.36,0.36c5.04,0,7.57-2.55,7.57-7.66c0-2.43-0.73-4.36-2.18-5.79c-1.46-1.42-3.46-2.14-6.01-2.14h-7.74
			v-9.97h9.61c5.1,0,9.11,1.81,12.02,5.43c2.79-4.21,6.79-6.32,12.02-6.32c4.51,0,7.89,1.37,10.15,4.1v-10.33h12.46v7.12h7.57v9.97
			h-7.57V372.11z"/>
		<path class="st2" d="M357.69,372.11h-12.46c-0.36-2.49-0.86-5.01-1.51-7.57c-0.65-2.55-1.53-5.22-2.63-8.01
			c-1.1-2.79-2.51-5.06-4.23-6.81c-1.72-1.75-3.62-2.63-5.7-2.63c-2.02,0-3.53,0.65-4.54,1.96c-1.01,1.31-1.51,3.03-1.51,5.16
			c0,1.66,0.15,3.29,0.45,4.9h-12.11c-0.53-2.2-0.8-4.24-0.8-6.14c0-4.69,1.45-8.66,4.36-11.93c2.91-3.26,6.94-4.9,12.11-4.9
			c7.24,0,12.61,3.53,16.11,10.59v-24.39h-36.76v-9.97h55.99v9.97h-6.77V372.11z"/>
		<path class="st2" d="M380.97,329.24c1.51,1.51,2.27,3.37,2.27,5.56c0,2.2-0.76,4.05-2.27,5.56c-1.51,1.51-3.37,2.27-5.56,2.27
			c-2.2,0-4.05-0.76-5.56-2.27c-1.51-1.51-2.27-3.37-2.27-5.56c0-2.2,0.76-4.05,2.27-5.56c1.51-1.51,3.37-2.27,5.56-2.27
			C377.6,326.98,379.46,327.73,380.97,329.24z M380.97,358.71c1.51,1.51,2.27,3.37,2.27,5.56c0,2.2-0.76,4.05-2.27,5.56
			c-1.51,1.51-3.37,2.27-5.56,2.27c-2.2,0-4.05-0.76-5.56-2.27c-1.51-1.51-2.27-3.37-2.27-5.56c0-2.19,0.76-4.05,2.27-5.56
			c1.51-1.51,3.37-2.27,5.56-2.27C377.6,356.44,379.46,357.2,380.97,358.71z"/>
	</g>
	<g>
		<path class="st2" d="M208.42,525.88h-6.94v-19.14c0-2.32-0.5-4.23-1.51-5.74c-1.01-1.51-2.55-2.27-4.63-2.27
			c-1.42,0-2.75,0.5-3.96,1.51c-1.22,1.01-2.33,2.24-3.34,3.69c-1.01,1.46-2.08,2.92-3.2,4.41c-1.13,1.48-2.55,2.73-4.27,3.74
			c-1.72,1.01-3.68,1.51-5.88,1.51c-1.96,0-4.01-0.41-6.14-1.25v-6.05c1.96,0.59,3.68,0.89,5.16,0.89c1.66,0,3.09-0.47,4.27-1.42
			c1.19-0.95,2.52-2.49,4.01-4.63c1.48-2.14,2.55-3.59,3.2-4.36c-0.65-5.04-2.39-9.06-5.21-12.06c-2.82-3-6.48-4.5-10.99-4.5v-5.52
			h-5.7v-5.96h55.19v5.96h-10.06V525.88z M194.18,492.41c3.38,0,5.81,1.22,7.3,3.65V474.7h-25.46c4.04,1.31,7.33,3.6,9.88,6.9
			c2.55,3.29,4.21,7.05,4.98,11.26C191.95,492.56,193.05,492.41,194.18,492.41z"/>
		<path class="st2" d="M241.8,474.7h-10.06v51.18h-6.85v-43.97c0-2.32-0.42-4.1-1.25-5.34c-0.83-1.25-2.31-1.87-4.45-1.87h-4.36
			v-5.96h4.63c2.85,0,4.92,1.28,6.23,3.83c-0.48-2.73-0.71-5.61-0.71-8.64v-2.67h6.77v7.48h10.06V474.7z"/>
		<path class="st2" d="M291.65,511.46c0,5.52-1.75,10.15-5.25,13.89c-3.5,3.74-8.72,5.61-15.67,5.61s-12.33-2.06-16.16-6.19
			c-3.83-4.12-5.74-9.48-5.74-16.07h6.77c0,5.22,1.3,9.26,3.92,12.11c2.61,2.85,6.35,4.27,11.22,4.27c4.57,0,8.07-1.19,10.5-3.56
			c2.43-2.37,3.65-5.75,3.65-10.15c0-5.82-2.35-8.72-7.03-8.72c-2.02,0-3.58,0.62-4.67,1.87c-1.1,1.25-1.65,2.94-1.65,5.08
			c0,1.84,0.27,3.89,0.8,6.14h-6.14c-0.77-2.2-1.16-4.42-1.16-6.68c0-3.56,1.1-6.5,3.29-8.81c2.19-2.32,5.16-3.47,8.9-3.47v-7.74
			l-31.24,16.2v-7.39l7.74-3.92c-1.96-2.91-4.63-4.99-8.01-6.23v-1.78c0-4.75,1.57-8.94,4.72-12.6c3.15-3.65,7.51-5.47,13.09-5.47
			c6.41,0,10.98,2.22,13.71,6.68v-13.26h6.85v7.48h13.71v5.96h-13.71v23.41c2.37,1.13,4.23,2.86,5.56,5.21
			C290.98,505.66,291.65,508.38,291.65,511.46z M252.57,484.4c2.73,1.42,4.99,3.65,6.77,6.68l17-8.64
			c-1.66-5.76-5.64-8.63-11.93-8.63c-3.56,0-6.34,1.04-8.32,3.12C254.1,479,252.93,481.49,252.57,484.4z"/>
		<path class="st2" d="M321.2,474.7h-10.06v51.18h-6.85v-43.97c0-2.32-0.42-4.1-1.25-5.34c-0.83-1.25-2.31-1.87-4.45-1.87h-4.36
			v-5.96h4.63c2.85,0,4.92,1.28,6.23,3.83c-0.48-2.73-0.71-5.61-0.71-8.64v-2.67h6.77v7.48h10.06V474.7z"/>
		<path class="st2" d="M344.61,474.7h-10.06v51.18h-6.85V474.7h-10.06v-5.96h10.06v-2.94c0-12.16,6.73-18.25,20.21-18.25
			c7,0,14.84,1.31,23.5,3.92v5.88c-7.95-2.55-15.7-3.83-23.23-3.83c-5.1,0-8.65,1.04-10.64,3.12c-1.99,2.08-2.98,5.14-2.98,9.17
			v2.94h10.06V474.7z"/>
		<path class="st2" d="M385.03,474.7h-43.97v-5.96h43.97V474.7z M377.46,526.77h-9.61l-18.07-13v-5.96h7.74
			c4.27-0.06,7.52-1.14,9.75-3.25c2.23-2.1,3.34-5.03,3.34-8.77c0-2.91-0.73-5.15-2.18-6.72c-1.45-1.57-3.46-2.36-6.01-2.36
			c-2.37,0-4.26,0.73-5.65,2.18c-1.4,1.46-2.09,3.37-2.09,5.74c0,1.48,0.3,3.47,0.89,5.96h-6.5c-0.71-1.78-1.07-3.86-1.07-6.23
			c0-3.98,1.29-7.24,3.87-9.79c2.58-2.55,6.07-3.83,10.46-3.83c4.51,0,8.16,1.44,10.95,4.32c2.79,2.88,4.18,6.45,4.18,10.73
			c0,4.93-1.6,8.98-4.81,12.15c-3.21,3.18-7.63,4.91-13.26,5.21l18.07,12.91V526.77z"/>
		<path class="st2" d="M445.82,501.14c0,5.22-1.42,9.26-4.27,12.11c-2.85,2.85-6.47,4.27-10.86,4.27c-0.77,0-1.33-0.03-1.69-0.09
			v-6.41h1.07c5.99,0,8.99-3.3,8.99-9.88c0-4.27-1.63-7.7-4.9-10.28c-3.26-2.58-7.42-3.87-12.46-3.87v38.9h-6.77l-27.86-21.28v-7.74
			c9.91-9.08,19.2-14.39,27.86-15.93v-6.23h-33.47v-5.96h69.88v5.96H421.7v6.14c6.94,0.06,12.7,1.97,17.27,5.74
			C443.54,490.35,445.82,495.2,445.82,501.14z M414.93,517.96v-30.62c-6.71,1.66-14.04,6.14-21.99,13.44L414.93,517.96z"/>
		<path class="st2" d="M516.59,540.13h-6.77V526.6c0-5.28-1.84-7.92-5.52-7.92c-1.84,0-3.22,0.79-4.14,2.36
			c-0.92,1.57-1.38,3.64-1.38,6.19v1.96h-6.41v-2.05c0-5.52-2.17-8.28-6.5-8.28c-1.9,0-3.4,0.7-4.5,2.09
			c-1.1,1.4-1.65,3.31-1.65,5.74c0,2.55,0.71,4.46,2.14,5.74c1.42,1.28,3.32,1.92,5.7,1.92c1.6,0,3.03-0.09,4.27-0.27v5.61
			c-1.37,0.24-2.85,0.36-4.45,0.36c-4.21,0-7.61-1.19-10.19-3.56c-2.58-2.37-3.87-5.64-3.87-9.79c0-3.92,1.1-7.14,3.29-9.66
			c2.19-2.52,5.1-3.78,8.72-3.78c5.4,0,8.78,2.4,10.15,7.21c0.3-2.2,1.23-3.99,2.8-5.39c1.57-1.39,3.46-2.09,5.65-2.09
			c2.67,0,4.63,0.92,5.88,2.76v-5.52l-25.01-10.86v-7.66c7.66-7.06,15.99-11.36,25.01-12.91v-4.1H467.9v-5.96h78.33v5.96h-29.64
			v3.92c6.17,0.06,11.42,1.62,15.76,4.67c4.33,3.06,6.5,7.14,6.5,12.24c0,4.21-1.31,7.51-3.92,9.88c-2.61,2.37-6.02,3.56-10.24,3.56
			c-0.83,0-1.42-0.03-1.78-0.09v-6.23h1.16c2.49,0,4.44-0.61,5.83-1.82c1.39-1.22,2.09-2.98,2.09-5.3c0-3.5-1.53-6.17-4.58-8.01
			c-3.06-1.84-6.66-2.76-10.82-2.76V540.13z M509.82,503.54v-18.6c-6.29,1.3-12.58,4.66-18.87,10.06L509.82,503.54z"/>
		<path class="st2" d="M569.64,474.7h-10.06v51.18h-6.85v-43.97c0-2.32-0.42-4.1-1.25-5.34c-0.83-1.25-2.31-1.87-4.45-1.87h-4.36
			v-5.96h4.63c2.85,0,4.92,1.28,6.23,3.83c-0.48-2.73-0.71-5.61-0.71-8.64v-2.67h6.77v7.48h10.06V474.7z"/>
		<path class="st2" d="M611.21,525.88h-6.94v-19.14c0-2.32-0.5-4.23-1.51-5.74c-1.01-1.51-2.55-2.27-4.63-2.27
			c-1.42,0-2.75,0.5-3.96,1.51c-1.22,1.01-2.33,2.24-3.34,3.69c-1.01,1.46-2.08,2.92-3.2,4.41c-1.13,1.48-2.55,2.73-4.27,3.74
			c-1.72,1.01-3.68,1.51-5.88,1.51c-1.96,0-4.01-0.41-6.14-1.25v-6.05c1.96,0.59,3.68,0.89,5.16,0.89c1.66,0,3.09-0.47,4.27-1.42
			c1.19-0.95,2.52-2.49,4.01-4.63c1.48-2.14,2.55-3.59,3.2-4.36c-0.65-5.04-2.39-9.06-5.21-12.06c-2.82-3-6.48-4.5-10.99-4.5v-5.52
			h-5.7v-5.96h55.19v5.96h-10.06V525.88z M596.97,492.41c3.38,0,5.81,1.22,7.3,3.65V474.7h-25.46c4.04,1.31,7.33,3.6,9.88,6.9
			c2.55,3.29,4.21,7.05,4.98,11.26C594.74,492.56,595.84,492.41,596.97,492.41z"/>
		<path class="st2" d="M704.77,510.75c0,5.22-2.46,9.32-7.39,12.28c-4.93,2.97-11.54,4.45-19.85,4.45c-10.33,0-18.43-2.15-24.3-6.45
			c-5.88-4.3-9.05-9.98-9.53-17.05h7.21c0.24,5.52,2.73,9.82,7.48,12.91c4.75,3.09,11.16,4.63,19.23,4.63
			c13.35,0,20.06-3.68,20.12-11.04c0.06-2.91-0.99-5.07-3.16-6.5c-2.17-1.42-5.18-2.14-9.03-2.14h-2.58v-6.14h2.58
			c3.44,0,6.13-0.96,8.06-2.89c1.93-1.93,2.89-4.52,2.89-7.79c0-4.75-1.84-8.04-5.52-9.88l-5.43,12.11h-6.23v-2.58
			c0-7.24-2.88-10.86-8.64-10.86c-2.43,0-4.41,0.9-5.92,2.71c-1.51,1.81-2.27,4.26-2.27,7.34c0,3.32,0.83,5.82,2.49,7.48
			c1.66,1.66,3.95,2.49,6.85,2.49c1.19,0,2.4-0.09,3.65-0.27v5.88c-1.37,0.24-2.79,0.36-4.27,0.36c-5.28,0-9.23-1.9-11.84-5.7
			c-2.31,3.8-6.02,5.7-11.13,5.7c-1.84,0-3.38-0.15-4.63-0.44v-5.88c1.19,0.24,2.52,0.36,4.01,0.36c2.91,0,5.01-0.8,6.32-2.4
			c1.3-1.6,1.96-4.12,1.96-7.57c0-3.08-0.76-5.37-2.27-6.85c-1.51-1.48-3.84-2.23-6.99-2.23l-8.9-0.09v-5.96h9.26
			c5.52,0,9.58,1.93,12.19,5.79c2.61-4.15,6.38-6.29,11.31-6.41c6.88,0,11.16,3.32,12.82,9.97l4.45-10.24
			c4.57,0.48,8.31,2.3,11.22,5.47c2.91,3.18,4.36,7.05,4.36,11.62c0,7.18-3.12,11.75-9.35,13.71c3.2,0.48,5.8,1.72,7.79,3.74
			C703.77,504.4,704.77,507.19,704.77,510.75z"/>
		<path class="st2" d="M758.26,474.7H748.2v51.18h-6.77l-27.86-21.28v-7.74c3.92-3.62,8.34-6.85,13.26-9.7
			c4.93-2.85,9.79-4.86,14.6-6.05v-6.41h-33.47v-5.96h50.29V474.7z M721.41,519.87c0.95,0.92,1.42,2.03,1.42,3.34
			c0,1.3-0.46,2.4-1.38,3.29c-0.92,0.89-2.06,1.34-3.43,1.34c-1.37,0-2.48-0.45-3.34-1.34c-0.86-0.89-1.29-1.99-1.29-3.29
			c0-1.31,0.44-2.42,1.33-3.34c0.89-0.92,1.99-1.38,3.29-1.38C719.33,518.49,720.46,518.96,721.41,519.87z M741.44,517.87v-30.27
			c-7.54,2.44-14.84,6.8-21.9,13.09L741.44,517.87z"/>
		<path class="st2" d="M758.35,486.36c4.15,0,7.4,1.16,9.75,3.47c2.34,2.31,3.52,5.55,3.52,9.7c0,3.8-1.23,7-3.69,9.61
			c-2.46,2.61-5.89,3.92-10.28,3.92c-2.79,0-5.33-0.76-7.61-2.27c-2.28-1.51-3.81-3.66-4.58-6.45l2.76-5.7
			c0,2.49,0.86,4.54,2.58,6.14s3.89,2.4,6.5,2.4c2.49,0,4.41-0.71,5.74-2.14c1.34-1.42,2-3.29,2-5.61c0-2.37-0.64-4.17-1.91-5.38
			c-1.28-1.22-3.04-1.83-5.3-1.83c-1.31,0-2.25,0.06-2.85,0.18v-5.88C756.27,486.42,757.4,486.36,758.35,486.36z M778.38,474.7
			H754.7v-5.96h23.68V474.7z"/>
		<path class="st2" d="M189.91,633.33c-0.48,0.06-1.28,0.09-2.4,0.09c-5.64,0-9.79-2.21-12.46-6.63
			c-2.67-4.42-4.07-10.28-4.18-17.58c0-4.15,0.31-8.07,0.94-11.75c0.62-3.68,1.65-7.24,3.07-10.68c1.42-3.44,3.52-6.17,6.28-8.19
			c2.76-2.02,6.07-3.03,9.93-3.03h1.33v5.96h-1.25c-2.55,0-4.76,0.82-6.63,2.45c-1.87,1.63-3.28,3.84-4.23,6.63
			c-0.95,2.79-1.63,5.71-2.05,8.77c-0.42,3.06-0.62,6.34-0.62,9.84c0,12.05,3.53,18.07,10.59,18.07h1.69V633.33z"/>
		<path class="st2" d="M243.23,632.7h-6.85v-38.81c0-3.62-0.86-6.74-2.58-9.35c-1.72-2.61-4.63-3.92-8.72-3.92
			c-3.03,0-5.43,0.92-7.21,2.76c-1.78,1.84-2.67,4.3-2.67,7.39c0,3.32,0.85,5.84,2.54,7.56c1.69,1.72,3.99,2.58,6.9,2.58
			c1.25,0,2.49-0.09,3.74-0.27v6.14c-1.37,0.24-2.79,0.36-4.27,0.36c-5.7,0-9.82-2.05-12.37-6.14c-2.49,4.1-6.56,6.14-12.19,6.14
			c-1.66,0-3.32-0.18-4.99-0.53v-6.05c1.36,0.24,2.82,0.36,4.36,0.36c3.03,0,5.35-0.86,6.99-2.58c1.63-1.72,2.45-4.24,2.45-7.56
			c0-3.03-0.92-5.31-2.76-6.86c-1.84-1.54-4.39-2.31-7.66-2.31l-9.08-0.09v-5.96h9.44c6.05,0,10.47,1.99,13.26,5.96
			c2.85-4.57,7.21-6.86,13.09-6.86c5.22,0,9.14,1.69,11.75,5.07v-11.66h6.85v7.48h10.06v5.96h-10.06V632.7z"/>
		<path class="st2" d="M299.04,632.7h-6.77v-0.18l-0.09,0.18l-37.83-21.63v-6.41h6.59c4.75-0.06,8.49-1.45,11.22-4.18
			c2.73-2.73,4.09-6.32,4.09-10.77v-0.44c-2.26,4.45-5.91,6.68-10.95,6.68c-4.15,0-7.43-1.28-9.84-3.83
			c-2.4-2.55-3.61-5.81-3.61-9.79c0-2.49,0.41-4.75,1.25-6.76h6.68c-0.65,2.37-0.98,4.51-0.98,6.41c0,2.55,0.67,4.53,2,5.92
			c1.34,1.4,3.16,2.09,5.47,2.09c2.43,0,4.36-0.84,5.79-2.54c1.42-1.69,2.14-3.99,2.14-6.9c0-1.84-0.12-3.5-0.36-4.98h6.5
			c1.54,5.88,2.31,10.59,2.31,14.15c0,5.22-1.53,9.69-4.58,13.4c-3.06,3.71-7.23,5.98-12.51,6.81l26.71,15.4v-57.24h6.77v7.48h10.06
			v5.96h-10.06V632.7z"/>
		<path class="st2" d="M332.42,581.52h-10.06v51.18h-6.85v-43.97c0-2.31-0.42-4.09-1.25-5.34c-0.83-1.25-2.31-1.87-4.45-1.87h-4.36
			v-5.96h4.63c2.85,0,4.92,1.28,6.23,3.83c-0.48-2.73-0.71-5.61-0.71-8.63v-2.67h6.77v7.48h10.06V581.52z"/>
		<path class="st2" d="M392.95,581.52h-43.97v-5.96h43.97V581.52z M385.38,633.59h-9.61l-18.07-13v-5.96h7.74
			c4.27-0.06,7.52-1.14,9.75-3.25s3.34-5.03,3.34-8.77c0-2.91-0.73-5.15-2.18-6.72c-1.45-1.57-3.46-2.36-6.01-2.36
			c-2.37,0-4.26,0.73-5.65,2.18c-1.4,1.46-2.09,3.37-2.09,5.74c0,1.48,0.3,3.47,0.89,5.96h-6.5c-0.71-1.78-1.07-3.86-1.07-6.23
			c0-3.97,1.29-7.24,3.87-9.79c2.58-2.55,6.07-3.83,10.46-3.83c4.51,0,8.16,1.44,10.95,4.32c2.79,2.88,4.18,6.45,4.18,10.73
			c0,4.93-1.6,8.98-4.81,12.15c-3.21,3.18-7.63,4.91-13.26,5.21l18.07,12.91V633.59z"/>
		<path class="st2" d="M416,633.33c-0.48,0.06-1.31,0.09-2.49,0.09c-5.7,0-9.85-2.22-12.46-6.68c-2.61-4.45-3.98-10.3-4.1-17.54
			c0-13.47,2.73-22.7,8.19-27.68h-15.76v-5.96h29.11v5.96h-1.33c-2.55,0-4.73,0.8-6.54,2.4c-1.81,1.6-3.2,3.78-4.18,6.54
			c-0.98,2.76-1.68,5.68-2.09,8.77c-0.42,3.09-0.62,6.41-0.62,9.97c0,12.05,3.53,18.07,10.59,18.07H416V633.33z"/>
		<path class="st2" d="M465.23,581.52h-10.06v51.18h-6.77l-27.86-21.28v-7.74c3.92-3.62,8.34-6.85,13.26-9.7
			c4.93-2.85,9.79-4.87,14.6-6.05v-6.41h-33.47v-5.96h50.29V581.52z M448.4,624.69v-30.27c-7.54,2.43-14.84,6.8-21.9,13.08
			L448.4,624.69z"/>
		<path class="st2" d="M508.4,633.33c-0.48,0.06-1.28,0.09-2.4,0.09c-5.64,0-9.79-2.21-12.46-6.63c-2.67-4.42-4.07-10.28-4.18-17.58
			c0-4.15,0.31-8.07,0.94-11.75c0.62-3.68,1.65-7.24,3.07-10.68c1.42-3.44,3.52-6.17,6.28-8.19c2.76-2.02,6.07-3.03,9.93-3.03h1.33
			v5.96h-1.25c-2.55,0-4.76,0.82-6.63,2.45c-1.87,1.63-3.28,3.84-4.23,6.63c-0.95,2.79-1.63,5.71-2.05,8.77
			c-0.42,3.06-0.62,6.34-0.62,9.84c0,12.05,3.53,18.07,10.59,18.07h1.69V633.33z"/>
		<path class="st2" d="M556.64,632.7h-6.77v-0.18l-0.09,0.18l-37.83-21.63v-6.41h6.59c4.75-0.06,8.49-1.45,11.22-4.18
			c2.73-2.73,4.09-6.32,4.09-10.77v-0.44c-2.26,4.45-5.91,6.68-10.95,6.68c-4.15,0-7.43-1.28-9.84-3.83
			c-2.4-2.55-3.61-5.81-3.61-9.79c0-2.49,0.41-4.75,1.25-6.76h6.68c-0.65,2.37-0.98,4.51-0.98,6.41c0,2.55,0.67,4.53,2,5.92
			c1.34,1.4,3.16,2.09,5.47,2.09c2.43,0,4.36-0.84,5.79-2.54c1.42-1.69,2.14-3.99,2.14-6.9c0-1.84-0.12-3.5-0.36-4.98h6.5
			c1.54,5.88,2.31,10.59,2.31,14.15c0,5.22-1.53,9.69-4.58,13.4c-3.06,3.71-7.23,5.98-12.51,6.81l26.71,15.4v-57.24h6.77v7.48h10.06
			v5.96h-10.06V632.7z"/>
		<path class="st2" d="M620.91,632.7h-6.85v-27.24c0-2.25-0.55-4.3-1.65-6.14c-1.1-1.84-2.89-2.76-5.39-2.76
			c-5.05,0-7.57,3.68-7.57,11.04v1.51h-6.94v-1.78c0-7-2.73-10.5-8.19-10.5c-2.49,0-4.5,0.86-6.01,2.58
			c-1.51,1.72-2.27,4.07-2.27,7.03c0,3.32,0.92,5.86,2.76,7.61c1.84,1.75,4.24,2.62,7.21,2.62c2.14,0,4.21-0.21,6.23-0.62v6.05
			c-2.2,0.48-4.45,0.71-6.77,0.71c-4.87,0-8.81-1.45-11.84-4.36c-3.03-2.91-4.54-6.91-4.54-12.02c0-4.45,1.32-8.18,3.96-11.17
			c2.64-3,6.24-4.49,10.82-4.49c3.2,0,5.86,0.76,7.97,2.27c2.11,1.51,3.46,3.6,4.05,6.28c0.59-2.67,1.81-4.81,3.65-6.41
			c1.84-1.6,4.09-2.4,6.77-2.4c3.5,0,6.08,1.37,7.74,4.1v-13.08h-51.01v-5.96h67.92v5.96h-10.06V632.7z"/>
		<path class="st2" d="M654.38,581.52h-10.06v51.18h-6.85v-43.97c0-2.31-0.42-4.09-1.25-5.34c-0.83-1.25-2.31-1.87-4.45-1.87h-4.36
			v-5.96h4.63c2.85,0,4.92,1.28,6.23,3.83c-0.48-2.73-0.71-5.61-0.71-8.63v-2.67h6.77v7.48h10.06V581.52z"/>
		<path class="st2" d="M701.11,581.52h-10.06v51.18h-6.77l-27.86-21.28v-7.74c3.92-3.62,8.34-6.85,13.26-9.7
			c4.93-2.85,9.79-4.87,14.6-6.05v-6.41h-33.47v-5.96h50.29V581.52z M664.26,626.69c0.95,0.92,1.42,2.03,1.42,3.34
			c0,1.31-0.46,2.4-1.38,3.29c-0.92,0.89-2.06,1.34-3.43,1.34c-1.37,0-2.48-0.44-3.34-1.34c-0.86-0.89-1.29-1.99-1.29-3.29
			c0-1.3,0.44-2.42,1.33-3.34c0.89-0.92,1.99-1.38,3.29-1.38C662.18,625.31,663.31,625.77,664.26,626.69z M684.29,624.69v-30.27
			c-7.54,2.43-14.84,6.8-21.9,13.08L684.29,624.69z"/>
		<path class="st2" d="M209.49,742.28h-10.5l-25.01-12.91v-5.79c2.25,0.12,3.92,0.18,4.98,0.18c5.1,0,9.54-0.39,13.31-1.16
			c3.77-0.77,6.85-2.17,9.26-4.18c2.4-2.02,3.61-4.57,3.61-7.66c0-2.37-0.85-4.17-2.54-5.38c-1.69-1.22-4.11-2.21-7.26-2.98
			c0.24,0.77,0.36,1.66,0.36,2.67c0,3.38-1.37,6.46-4.1,9.21c-2.73,2.76-5.96,4.14-9.7,4.14c-3.03,0-5.47-0.84-7.34-2.54
			c-1.87-1.69-2.8-4.11-2.8-7.25v-20.3h-8.46v-5.96h54.92v5.96h-39.97v4l6.68,1.51c0.12,0.06,0.28,0.12,0.49,0.18
			c0.21,0.06,0.37,0.09,0.49,0.09l10.41,2.49c5.28,1.25,9.18,2.97,11.71,5.16c2.52,2.2,3.78,5.25,3.78,9.17
			c0,2.97-0.7,5.6-2.09,7.88c-1.4,2.29-3.34,4.13-5.83,5.52c-2.49,1.4-5.25,2.48-8.28,3.25c-3.03,0.77-6.35,1.28-9.97,1.51
			c4.39,1.9,8.01,3.62,10.86,5.16l13,6.86V742.28z M181.9,712.82c2.02,0,3.8-0.86,5.34-2.58c1.54-1.72,2.31-3.56,2.31-5.52
			c0-1.42-0.43-2.54-1.29-3.34c-0.86-0.8-2.33-1.44-4.41-1.91l-5.61-1.34v10.68C178.25,711.48,179.46,712.82,181.9,712.82z"/>
		<path class="st2" d="M241.27,740.14c-0.48,0.06-1.31,0.09-2.49,0.09c-5.7,0-9.85-2.22-12.46-6.68c-2.61-4.45-3.98-10.3-4.1-17.54
			c0-13.47,2.73-22.7,8.19-27.68h-15.76v-5.96h29.11v5.96h-1.33c-2.55,0-4.73,0.8-6.54,2.4c-1.81,1.6-3.2,3.78-4.18,6.54
			c-0.98,2.76-1.68,5.68-2.09,8.77c-0.42,3.09-0.62,6.41-0.62,9.97c0,12.05,3.53,18.07,10.59,18.07h1.69V740.14z"/>
		<path class="st2" d="M298.06,739.52h-6.85v-27.24c0-2.25-0.55-4.3-1.65-6.14c-1.1-1.84-2.89-2.76-5.39-2.76
			c-5.05,0-7.57,3.68-7.57,11.04v1.51h-6.94v-1.78c0-7-2.73-10.5-8.19-10.5c-2.49,0-4.5,0.86-6.01,2.58
			c-1.51,1.72-2.27,4.07-2.27,7.03c0,3.32,0.92,5.86,2.76,7.61c1.84,1.75,4.24,2.62,7.21,2.62c2.14,0,4.21-0.21,6.23-0.62v6.05
			c-2.2,0.48-4.45,0.71-6.77,0.71c-4.87,0-8.81-1.45-11.84-4.36c-3.03-2.91-4.54-6.91-4.54-12.02c0-4.45,1.32-8.18,3.96-11.17
			c2.64-3,6.24-4.49,10.82-4.49c3.2,0,5.86,0.76,7.97,2.27c2.11,1.51,3.46,3.6,4.05,6.28c0.59-2.67,1.81-4.81,3.65-6.41
			c1.84-1.6,4.09-2.4,6.77-2.4c3.5,0,6.08,1.37,7.74,4.1v-13.08H240.2v-5.96h67.92v5.96h-10.06V739.52z"/>
	</g>
	<g>
		<ellipse class="st3" cx="595.5" cy="216.76" rx="18.6" ry="18.69"/>
		<path class="st4" d="M610.7,235.45h-30.39c-5.9,0-10.73,4.85-10.73,10.78v11.06h51.85v-11.06
			C621.43,240.3,616.6,235.45,610.7,235.45z"/>
		<path class="st3" d="M847.22,180.57H565.48c-3.81,0-6.93-3.12-6.93-6.93V8.45c0-3.81,3.12-6.93,6.93-6.93h281.74
			c3.81,0,6.93,3.12,6.93,6.93v165.19C854.15,177.45,851.03,180.57,847.22,180.57z"/>
		<path class="st4" d="M832.98,18.92H801.9H610.21h-31.08c-1.55,0-2.82,1.27-2.82,2.82v138.62c0,1.55,1.27,2.82,2.82,2.82h31.08
			H801.9h31.08c1.55,0,2.82-1.27,2.82-2.82V21.73C835.8,20.19,834.53,18.92,832.98,18.92z"/>
		<circle class="st5" cx="706.06" cy="91.34" r="43.08"/>
		<path class="st4" d="M709.34,100.34l-13.33,7.51c-1.22,0.69-2.65-0.31-2.65-1.85V76.66c0-1.54,1.43-2.53,2.65-1.85l26.03,14.67
			c1.35,0.76,1.35,2.93,0,3.69L709.34,100.34z"/>
		<path class="st6" d="M576.31,173.43V8.66c0-3.93,3.21-7.14,7.14-7.14h-17.76c-3.93,0-7.14,3.21-7.14,7.14v164.77
			c0,3.93,3.21,7.14,7.14,7.14h17.76C579.52,180.57,576.31,177.36,576.31,173.43z"/>
		<path class="st7" d="M594.07,160.35V21.73c0-1.55,1.27-2.82,2.82-2.82h-17.76c-1.55,0-2.82,1.27-2.82,2.82v138.62
			c0,1.55,1.27,2.82,2.82,2.82h17.76C595.34,163.17,594.07,161.9,594.07,160.35z"/>
		<path class="st8" d="M680.73,91.34c0-20.75,14.67-38.07,34.2-42.16c-2.87-0.6-5.84-0.92-8.88-0.92
			c-23.79,0-43.08,19.29-43.08,43.08s19.29,43.08,43.08,43.08c3.04,0,6.01-0.32,8.88-0.92C695.4,129.41,680.73,112.09,680.73,91.34z
			"/>
		<path class="st7" d="M711.12,83.33l-15.11-8.52c-1.22-0.69-2.65,0.31-2.65,1.85v29.35c0,1.54,1.43,2.53,2.65,1.85l13.33-7.51
			l1.78-1L711.12,83.33L711.12,83.33z"/>
		<path class="st6" d="M588.8,216.76c0-8.23,5.3-15.21,12.65-17.71c-1.87-0.63-3.87-0.98-5.95-0.98c-10.27,0-18.6,8.37-18.6,18.69
			c0,10.32,8.33,18.69,18.6,18.69c2.08,0,4.08-0.35,5.95-0.98C594.1,231.97,588.8,224.99,588.8,216.76z"/>
		<path class="st7" d="M592.2,235.45h-11.9c-5.9,0-10.73,4.85-10.73,10.78v11.06h11.9v-11.06
			C581.47,240.3,586.3,235.45,592.2,235.45z"/>
		<path class="st9" d="M623.76,256.1h-56.51c-4.78,0-8.69,3.93-8.69,8.74v1.19v25.21v1.19c0,2.59,2.1,4.69,4.69,4.69h64.01
			c2.87,0,5.2-2.33,5.2-5.2v-7.96v-17.93v-1.19C632.45,260.03,628.54,256.1,623.76,256.1z"/>
		<path class="st10" d="M570.45,292.43v-1.19v-25.21v-1.19c0-4.81,3.91-8.74,8.69-8.74h-11.9c-4.78,0-8.69,3.93-8.69,8.74v1.19
			v25.21v1.19c0,2.59,2.1,4.69,4.69,4.69h11.9C572.55,297.12,570.45,295.02,570.45,292.43z"/>
		<ellipse class="st3" cx="669.4" cy="216.76" rx="18.6" ry="18.69"/>
		<path class="st4" d="M684.6,235.45h-30.4c-5.9,0-10.73,4.85-10.73,10.78v11.06h51.85v-11.06
			C695.33,240.3,690.5,235.45,684.6,235.45z"/>
		<path class="st6" d="M662.7,216.76c0-8.23,5.3-15.21,12.65-17.71c-1.87-0.63-3.87-0.98-5.95-0.98c-10.27,0-18.6,8.37-18.6,18.69
			c0,10.32,8.33,18.69,18.6,18.69c2.08,0,4.08-0.35,5.95-0.98C668,231.97,662.7,224.99,662.7,216.76z"/>
		<path class="st7" d="M666.1,235.45h-11.9c-5.9,0-10.73,4.85-10.73,10.78v11.06h11.9v-11.06
			C655.37,240.3,660.2,235.45,666.1,235.45z"/>
		<path class="st9" d="M697.66,256.1h-56.51c-4.78,0-8.69,3.93-8.69,8.74v1.19v25.21v1.19c0,2.59,2.1,4.69,4.69,4.69h64.36
			c2.68,0,4.85-2.17,4.85-4.85v-5.34v-20.9v-1.19C706.35,260.03,702.44,256.1,697.66,256.1z"/>
		<path class="st10" d="M644.35,292.43v-1.19v-25.21v-1.19c0-4.81,3.91-8.74,8.69-8.74h-11.9c-4.78,0-8.69,3.93-8.69,8.74v1.19
			v25.21v1.19c0,2.59,2.1,4.69,4.69,4.69h11.9C646.45,297.12,644.35,295.02,644.35,292.43z"/>
		<ellipse class="st3" cx="743.3" cy="216.76" rx="18.6" ry="18.69"/>
		<path class="st4" d="M758.5,235.45h-30.4c-5.9,0-10.73,4.85-10.73,10.78v11.06h51.85v-11.06
			C769.23,240.3,764.4,235.45,758.5,235.45z"/>
		<path class="st6" d="M736.6,216.76c0-8.23,5.3-15.21,12.65-17.71c-1.87-0.63-3.87-0.98-5.95-0.98c-10.27,0-18.6,8.37-18.6,18.69
			c0,10.32,8.33,18.69,18.6,18.69c2.08,0,4.08-0.35,5.95-0.98C741.9,231.97,736.6,224.99,736.6,216.76z"/>
		<path class="st7" d="M740,235.45h-11.9c-5.9,0-10.73,4.85-10.73,10.78v11.06h11.9v-11.06C729.27,240.3,734.1,235.45,740,235.45z"
			/>
		<path class="st9" d="M771.56,256.1h-56.51c-4.78,0-8.69,3.93-8.69,8.74v1.19v25.21v1.19c0,2.59,2.1,4.69,4.69,4.69h65.18
			c2.23,0,4.03-1.8,4.03-4.03v-4.52v-22.54v-1.19C780.25,260.03,776.34,256.1,771.56,256.1z"/>
		<path class="st10" d="M718.25,292.43v-1.19v-25.21v-1.19c0-4.81,3.91-8.74,8.69-8.74h-11.9c-4.78,0-8.69,3.93-8.69,8.74v1.19
			v25.21v1.19c0,2.59,2.1,4.69,4.69,4.69h11.9C720.35,297.12,718.25,295.02,718.25,292.43z"/>
		<ellipse class="st3" cx="817.2" cy="216.76" rx="18.6" ry="18.69"/>
		<path class="st4" d="M832.4,235.45H802c-5.9,0-10.73,4.85-10.73,10.78v11.06h51.85v-11.06C843.13,240.3,838.3,235.45,832.4,235.45
			z"/>
		<path class="st6" d="M810.5,216.76c0-8.23,5.3-15.21,12.65-17.71c-1.87-0.63-3.87-0.98-5.95-0.98c-10.27,0-18.6,8.37-18.6,18.69
			c0,10.32,8.33,18.69,18.6,18.69c2.08,0,4.08-0.35,5.95-0.98C815.8,231.97,810.5,224.99,810.5,216.76z"/>
		<path class="st7" d="M813.9,235.45H802c-5.9,0-10.73,4.85-10.73,10.78v11.06h11.9v-11.06C803.17,240.3,808,235.45,813.9,235.45z"
			/>
		<path class="st9" d="M845.46,256.1h-56.51c-4.78,0-8.69,3.93-8.69,8.74v1.19v25.21v1.19c0,2.59,2.1,4.69,4.69,4.69h63.03
			c3.41,0,6.18-2.77,6.18-6.18v-7.33v-17.58v-1.19C854.15,260.03,850.24,256.1,845.46,256.1z"/>
		<path class="st10" d="M792.15,292.43v-1.19v-25.21v-1.19c0-4.81,3.91-8.74,8.69-8.74h-11.9c-4.78,0-8.69,3.93-8.69,8.74v1.19
			v25.21v1.19c0,2.59,2.1,4.69,4.69,4.69h11.9C794.25,297.12,792.15,295.02,792.15,292.43z"/>
	</g>
</g>
</svg>
