<?xml version="1.0" encoding="utf-8"?>
<!-- Generator: Adobe Illustrator 26.0.1, SVG Export Plug-In . SVG Version: 6.00 Build 0)  -->
<svg version="1.1" id="Layer_1" xmlns="http://www.w3.org/2000/svg" xmlns:xlink="http://www.w3.org/1999/xlink" x="0px" y="0px"
	 viewBox="0 0 783.53 787" style="enable-background:new 0 0 783.53 787;" xml:space="preserve">
<style type="text/css">
	.st0{fill:#662D91;}
	.st1{fill:#54257C;}
	.st2{fill:#FFFFFF;}
	.st3{fill:#E93234;}
	.st4{fill:#F9F1EF;}
	.st5{fill:#B32425;}
	.st6{fill:#FFD039;}
	.st7{fill:#F4B008;}
	.st8{fill:#546F7A;}
	.st9{fill:#FFAE47;}
	.st10{fill:#00B76C;}
</style>
<g>
	<path class="st0" d="M777.88,83.72v661.82c0,19.81-16.06,35.84-35.84,35.84H41.49c-19.81,0-35.84-16.03-35.84-35.84V83.72
		c0-19.78,16.03-35.84,35.84-35.84h700.55C761.82,47.88,777.88,63.94,777.88,83.72z"/>
	<path class="st1" d="M777.88,520.26v225.28c0,19.81-16.06,35.84-35.84,35.84H41.49c-19.81,0-35.84-16.03-35.84-35.84V284.26
		C163.48,521.53,430.2,768.24,777.88,520.26z"/>
	<g>
		<path class="st2" d="M74.05,207.99l6.33-3.52c-2.14-3.47-4.83-5.71-8.09-6.73v-4.33c0-4.7,1.56-8.93,4.68-12.69
			s7.57-5.65,13.33-5.65c5.71,0,9.8,2.03,12.25,6.09v-11.69h11.21v6.41h6.81v8.97h-6.81v44.77h-11.21v-26.59l-28.51,16.5V207.99z
			 M83.1,193.49c2.46,1.18,4.48,3.2,6.09,6.09l12.81-7.21c-1.28-5.13-4.51-7.69-9.69-7.69c-2.67,0-4.87,0.84-6.61,2.52
			C83.97,188.89,83.1,190.98,83.1,193.49z"/>
		<path class="st2" d="M163.82,184.84h-6.81v44.77h-10.81v-0.08l-0.08,0.08l-24.18-16.74v-10.73c7.74-6.3,15.83-10.6,24.26-12.89
			v-4.4h-28.83v-8.97h46.45V184.84z M130.67,223.68c1.17,1.18,1.76,2.62,1.76,4.33c0,1.71-0.59,3.15-1.76,4.32
			c-1.17,1.17-2.62,1.76-4.32,1.76c-1.71,0-3.15-0.59-4.32-1.76c-1.18-1.17-1.76-2.62-1.76-4.32c0-1.71,0.59-3.15,1.76-4.33
			c1.17-1.17,2.61-1.76,4.32-1.76C128.05,221.92,129.5,222.51,130.67,223.68z M146.21,217.92V199.9c-5.5,2.19-10.22,4.78-14.17,7.77
			L146.21,217.92z"/>
		<path class="st2" d="M207.07,184.84h-6.81v44.77h-10.81v-0.08l-0.08,0.08l-24.18-16.74v-10.73c7.74-6.3,15.83-10.6,24.26-12.89
			v-4.4h-28.83v-8.97h46.45V184.84z M189.45,217.92V199.9c-5.5,2.19-10.22,4.78-14.17,7.77L189.45,217.92z"/>
		<path class="st2" d="M260.32,184.84h-56.46v-8.97h56.46V184.84z M256.16,204.79c0,6.83-2.19,12.32-6.57,16.46
			c-4.38,4.14-10.04,6.21-16.98,6.21c-7.47,0-13.55-2.31-18.22-6.93c-4.67-4.62-7.01-11.62-7.01-21.02c0-2.13,0.11-4.14,0.32-6.01
			h10.65c-0.16,1.82-0.24,3.79-0.24,5.93c0,5.61,1.25,10.08,3.76,13.41c2.51,3.34,6.09,5.01,10.73,5.01c3.95,0,6.99-1.2,9.13-3.6
			c2.13-2.4,3.2-5.55,3.2-9.45c0-2.35-0.39-4.23-1.16-5.65c-0.77-1.41-1.91-2.12-3.4-2.12c-1.28,0-2.28,0.48-3,1.44
			c-0.72,0.96-1.08,2.27-1.08,3.92c0,1.87,0.27,3.68,0.8,5.45h-10.41c-0.8-1.87-1.2-3.95-1.2-6.25c0-3.95,1.31-7.19,3.92-9.73
			c2.62-2.54,6.11-3.8,10.49-3.8c4.91,0,8.85,1.62,11.81,4.85C254.68,196.12,256.16,200.09,256.16,204.79z"/>
		<path class="st2" d="M281.95,184.84h-6.81v44.77h-11.21v-44.77h-6.73v-8.97h6.73v-2.16c0-4.59-1.71-8.26-5.12-11.01
			c-3.42-2.75-8.22-4.12-14.41-4.12c-5.34,0-8.01,1.15-8.01,3.44c0,1.33,0.8,2.24,2.4,2.72c1.6,0.48,3.98,0.72,7.13,0.72
			c2.56,0,5.1-0.19,7.61-0.56v6.97c-2.24,0.69-5.63,1.04-10.17,1.04c-11.58,0-17.38-3.63-17.38-10.89c0-3.58,1.71-6.43,5.12-8.57
			c3.42-2.13,7.85-3.2,13.29-3.2c9.02,0,16.4,2.34,22.14,7.01c5.74,4.67,8.61,10.18,8.61,16.54v2.08h6.81V184.84z"/>
		<path class="st2" d="M253.52,171.87h-11.05v-0.32l21.54-22.66h10.97v0.32L253.52,171.87z"/>
		<path class="st2" d="M344.89,229.61h-11.21v-32.75c0-4-0.76-7.03-2.28-9.09c-1.52-2.06-4.02-3.08-7.49-3.08
			c-5.18,0-8.2,2.27-9.05,6.81c4.27,0.21,7.73,1.46,10.37,3.72c2.64,2.27,3.99,5.54,4.04,9.81c-0.05,4.86-1.78,8.53-5.17,11.01
			c-3.39,2.48-7.94,3.72-13.65,3.72c-2.24,0-4.54-0.24-6.89-0.72v-9.21c1.92,0.21,4.22,0.32,6.89,0.32c5.07,0,7.61-1.68,7.61-5.04
			c0-3.36-2.54-5.05-7.61-5.05h-6.65v-5.45c0-5.55,1.64-10.2,4.93-13.93c3.28-3.74,7.73-5.61,13.33-5.61
			c5.45,0,9.32,1.74,11.61,5.21v-10.81h11.21v6.41h6.81v8.97h-6.81V229.61z"/>
		<path class="st2" d="M397.5,216.08c0,5.71-1.94,10.16-5.81,13.33c-3.87,3.18-8.96,4.77-15.26,4.77c-6.94,0-12.45-2.1-16.54-6.29
			c-4.08-4.19-6.13-10-6.13-17.42l10.57-0.08c0,10.04,4.03,15.06,12.09,15.06c3.36,0,5.94-0.85,7.73-2.56
			c1.79-1.71,2.68-4.06,2.68-7.05c0-3.58-1.39-5.37-4.16-5.37c-2.46,0-3.68,1.44-3.68,4.32c0,1.23,0.27,2.7,0.8,4.4h-9.13
			c-0.8-1.76-1.2-3.71-1.2-5.85c0-3.04,0.83-5.51,2.48-7.41c1.65-1.9,3.92-3.14,6.81-3.72c-1.66-0.43-3.78-1.33-6.37-2.72
			c-2.59-1.39-4.5-2.08-5.73-2.08c-1.92,0-2.88,1.18-2.88,3.52c0,0.91,0.11,1.76,0.32,2.56h-10.17c-0.43-1.44-0.64-3.1-0.64-4.96
			c0-2.94,0.89-5.42,2.68-7.45c1.79-2.03,4.42-3.04,7.89-3.04c2.51,0,5.51,0.89,9.01,2.68c3.5,1.79,5.89,2.68,7.17,2.68
			c2.88,0,4.33-1.63,4.33-4.88c0-1.44-0.11-2.67-0.32-3.68h-35.56v-8.97h54.06v8.97h-7.93c0.37,1.5,0.56,3.34,0.56,5.53
			c0,2.88-0.77,5.41-2.32,7.57c-1.55,2.16-3.71,3.59-6.49,4.29c3.52,0.69,6.26,2.26,8.21,4.68
			C396.53,209.34,397.5,212.39,397.5,216.08z"/>
		<path class="st2" d="M445.79,184.84h-6.81v44.77h-10.81v-0.08l-0.08,0.08l-24.18-16.74v-10.73c7.74-6.3,15.83-10.6,24.26-12.89
			v-4.4h-28.83v-8.97h46.45V184.84z M428.17,217.92V199.9c-5.5,2.19-10.22,4.78-14.17,7.77L428.17,217.92z"/>
		<path class="st2" d="M468.29,184.84h-25.71v-8.97h25.71V184.84z M459,229.61h-11.85c3.36-4.86,5.04-9.21,5.04-13.05
			c0-1.97-0.85-5.29-2.56-9.93c-1.71-4.64-2.56-8.11-2.56-10.41c0-2.35,0.59-4.52,1.76-6.53c1.17-2,2.64-3.62,4.4-4.84h11.77
			c-1.87,0.91-3.47,2.32-4.8,4.24c-1.34,1.92-2,4.22-2,6.89c0,2.24,0.85,5.73,2.56,10.45c1.71,4.73,2.56,8.1,2.56,10.13
			C463.33,220.99,461.89,225.34,459,229.61z"/>
		<path class="st2" d="M91.91,280.99H85.1v44.77H73.89v-44.77h-6.81v-8.97h6.81v-3.36c0-5.66,1.83-9.88,5.49-12.65
			c3.66-2.78,8.66-4.16,15.02-4.16c3.79,0,7.73,0.44,11.81,1.32c4.08,0.88,7.22,1.8,9.41,2.76v8.49c-2.35-0.85-5.49-1.67-9.41-2.44
			c-3.92-0.77-7.57-1.16-10.93-1.16c-6.73,0-10.09,2.59-10.09,7.77v3.44h6.73V280.99z"/>
		<path class="st2" d="M132.99,325.76h-11.21c-0.32-2.24-0.77-4.51-1.36-6.81c-0.59-2.29-1.37-4.7-2.36-7.21
			c-0.99-2.51-2.26-4.55-3.8-6.13c-1.55-1.57-3.26-2.36-5.12-2.36c-1.82,0-3.18,0.59-4.08,1.76c-0.91,1.17-1.36,2.72-1.36,4.64
			c0,1.5,0.13,2.96,0.4,4.4H93.19c-0.48-1.98-0.72-3.82-0.72-5.53c0-4.22,1.31-7.79,3.92-10.73c2.62-2.94,6.25-4.4,10.89-4.4
			c6.51,0,11.34,3.18,14.49,9.53v-21.94H88.71v-8.97h50.37v8.97h-6.09V325.76z"/>
		<path class="st2" d="M186.89,280.99h-6.81v44.77h-11.21l-27.07-12.57l0.08-0.08v-9.77c2.88-1.87,6.17-3.76,9.85-5.69
			c-3.2-0.64-5.85-1.99-7.93-4.04c-2.08-2.05-3.12-4.74-3.12-8.05c0-4.27,1.47-7.73,4.4-10.37c2.94-2.64,6.94-3.96,12.01-3.96
			c1.76,0,3.31,0.11,4.64,0.32v8.97c-0.54-0.05-1.5-0.08-2.88-0.08c-1.92,0-3.5,0.51-4.72,1.52c-1.23,1.01-1.84,2.43-1.84,4.24
			c0,1.82,0.61,3.22,1.84,4.2c1.23,0.99,2.88,1.48,4.96,1.48c2.29,0,4.3-0.4,6.01-1.2c0.91-0.48,2.16-1.12,3.76-1.92v-16.74h18.02
			V280.99z M168.87,315.51v-16.18l-15.54,8.57L168.87,315.51z"/>
		<path class="st2" d="M169.99,268.5l13.69-13.45h10.97v0.32l-13.61,13.45h-11.05V268.5z"/>
		<path class="st2" d="M208.51,280.99h-6.81v44.77h-11.21v-39.8c0-2.08-0.28-3.43-0.84-4.04c-0.56-0.61-1.7-0.92-3.4-0.92h-2.56
			v-8.97h4c1.76,0,3.1,0.91,4,2.72c-0.53-2.88-0.8-5.45-0.8-7.69v-1.44h10.81v6.41h6.81V280.99z"/>
		<path class="st2" d="M251.75,280.99h-6.81v44.77h-10.81v-0.08l-0.08,0.08l-24.18-16.74v-10.73c7.74-6.3,15.83-10.6,24.26-12.89
			v-4.4H205.3v-8.97h46.45V280.99z M218.6,319.83c1.17,1.18,1.76,2.62,1.76,4.33c0,1.71-0.59,3.15-1.76,4.32
			c-1.17,1.17-2.62,1.76-4.32,1.76c-1.71,0-3.15-0.59-4.32-1.76c-1.18-1.17-1.76-2.62-1.76-4.32c0-1.71,0.59-3.15,1.76-4.33
			c1.17-1.17,2.61-1.76,4.32-1.76C215.98,318.07,217.42,318.66,218.6,319.83z M234.13,314.06v-18.02
			c-5.5,2.19-10.22,4.78-14.17,7.77L234.13,314.06z"/>
		<path class="st2" d="M292.84,325.76h-11.21c-0.32-2.24-0.77-4.51-1.36-6.81c-0.59-2.29-1.37-4.7-2.36-7.21
			c-0.99-2.51-2.26-4.55-3.8-6.13c-1.55-1.57-3.26-2.36-5.12-2.36c-1.82,0-3.18,0.59-4.08,1.76c-0.91,1.17-1.36,2.72-1.36,4.64
			c0,1.5,0.13,2.96,0.4,4.4h-10.89c-0.48-1.98-0.72-3.82-0.72-5.53c0-4.22,1.31-7.79,3.92-10.73c2.62-2.94,6.25-4.4,10.89-4.4
			c6.51,0,11.34,3.18,14.49,9.53v-21.94h-33.07v-8.97h50.37v8.97h-6.09V325.76z"/>
		<path class="st2" d="M304.41,293.32c-2.59-2.4-3.88-5.5-3.88-9.29c0-3.79,1.29-6.87,3.88-9.25c2.59-2.37,5.94-3.56,10.05-3.56
			c4.11,0,7.45,1.19,10.01,3.56c2.56,2.38,3.84,5.46,3.84,9.25c0,3.79-1.28,6.89-3.84,9.29c-2.56,2.4-5.9,3.6-10.01,3.6
			C310.34,296.93,307,295.73,304.41,293.32z M304.41,322.95c-2.59-2.4-3.88-5.5-3.88-9.29c0-3.79,1.29-6.87,3.88-9.25
			c2.59-2.38,5.94-3.56,10.05-3.56c4.11,0,7.45,1.19,10.01,3.56c2.56,2.38,3.84,5.46,3.84,9.25c0,3.79-1.28,6.89-3.84,9.29
			c-2.56,2.4-5.9,3.6-10.01,3.6C310.34,326.56,307,325.36,304.41,322.95z M317.9,287.8c0.8-0.96,1.2-2.21,1.2-3.76
			c0-1.55-0.4-2.82-1.2-3.8c-0.8-0.99-1.95-1.48-3.44-1.48c-1.5,0-2.66,0.49-3.48,1.48c-0.83,0.99-1.24,2.26-1.24,3.8
			c0,1.55,0.41,2.8,1.24,3.76c0.83,0.96,1.99,1.44,3.48,1.44C315.95,289.24,317.1,288.76,317.9,287.8z M317.9,317.43
			c0.8-0.96,1.2-2.21,1.2-3.76c0-1.55-0.4-2.82-1.2-3.8c-0.8-0.99-1.95-1.48-3.44-1.48c-1.5,0-2.66,0.49-3.48,1.48
			c-0.83,0.99-1.24,2.26-1.24,3.8c0,1.55,0.41,2.8,1.24,3.76c0.83,0.96,1.99,1.44,3.48,1.44
			C315.95,318.87,317.1,318.39,317.9,317.43z"/>
	</g>
	<g>
		<path class="st2" d="M73.59,443.68l8.93-5.41c-1.72-3.66-4.92-6.38-9.62-8.16v-3.61c0-4.64,1.53-8.74,4.59-12.32
			c3.06-3.58,7.28-5.37,12.66-5.37c6.18,0,10.59,2.15,13.22,6.44v-12.79h6.7v7.21h9.62v5.75h-9.62v49.37h-6.7v-32.11l-29.79,18.29
			V443.68z M79.43,426.6c3.72,1.83,6.44,4.69,8.16,8.59l15.54-9.53c-0.51-3.32-1.79-5.97-3.82-7.94c-2.03-1.98-4.79-2.96-8.29-2.96
			c-3.66,0-6.51,1.1-8.54,3.31C80.44,420.26,79.43,423.1,79.43,426.6z"/>
		<path class="st2" d="M164.78,415.43h-9.7v49.37h-6.53l-26.88-20.52v-7.47c3.78-3.49,8.04-6.61,12.79-9.36
			c4.75-2.75,9.45-4.69,14.08-5.84v-6.18h-32.28v-5.75h48.51V415.43z M129.23,459.01c0.92,0.89,1.37,1.96,1.37,3.22
			s-0.44,2.32-1.33,3.18c-0.89,0.86-1.99,1.29-3.31,1.29c-1.32,0-2.39-0.43-3.22-1.29c-0.83-0.86-1.24-1.92-1.24-3.18
			s0.43-2.33,1.29-3.22c0.86-0.89,1.92-1.33,3.18-1.33C127.22,457.68,128.31,458.12,129.23,459.01z M148.55,457.08v-29.19
			c-7.27,2.35-14.31,6.56-21.12,12.62L148.55,457.08z"/>
		<path class="st2" d="M209.85,415.43h-9.7v49.37h-6.53l-26.88-20.52v-7.47c3.78-3.49,8.04-6.61,12.79-9.36
			c4.75-2.75,9.45-4.69,14.08-5.84v-6.18h-32.28v-5.75h48.51V415.43z M193.63,457.08v-29.19c-7.27,2.35-14.31,6.56-21.12,12.62
			L193.63,457.08z"/>
		<path class="st2" d="M267.38,415.43h-60.96v-5.75h60.96V415.43z M259.91,437.93c0,2.98-0.43,5.82-1.29,8.54
			c-0.86,2.72-2.15,5.21-3.86,7.47c-1.72,2.26-4.07,4.07-7.04,5.41c-2.98,1.35-6.38,2.02-10.22,2.02c-7.67,0-13.55-2.73-17.64-8.2
			c-4.09-5.47-6.14-12.35-6.14-20.65c0-2.86,0.17-5.58,0.52-8.16h6.53c-0.34,2.12-0.52,4.84-0.52,8.16c0,6.64,1.47,12.14,4.42,16.49
			c2.95,4.35,7.23,6.53,12.84,6.53c5.09,0,8.99-1.63,11.68-4.89c2.69-3.26,4.04-7.5,4.04-12.71c0-3.15-0.59-5.75-1.76-7.81
			c-1.17-2.06-3.05-3.09-5.62-3.09c-2.12,0-3.75,0.73-4.89,2.19c-1.15,1.46-1.72,3.36-1.72,5.71c0,2,0.31,4.21,0.94,6.61h-6.18
			c-0.86-2.17-1.29-4.46-1.29-6.87c0-3.83,1.13-7.03,3.39-9.57c2.26-2.55,5.48-3.82,9.66-3.82c4.29,0,7.73,1.63,10.3,4.89
			C258.62,429.43,259.91,433.35,259.91,437.93z"/>
		<path class="st2" d="M289.96,415.43h-9.7v49.37h-6.61v-49.37h-9.7v-5.75h9.7v-2.15c0-5.61-2.31-9.96-6.91-13.05
			c-4.61-3.09-10.46-4.64-17.56-4.64c-6.98,0-10.48,1.58-10.48,4.72c0,3.09,3.61,4.64,10.82,4.64c2.86,0,5.58-0.14,8.16-0.43v5.07
			c-2.4,0.46-5.38,0.69-8.93,0.69c-5.04,0-9.04-0.82-12.02-2.45c-2.98-1.63-4.46-4.13-4.46-7.51c0-3.26,1.55-5.8,4.64-7.6
			c3.09-1.8,7.18-2.7,12.28-2.7c8.64,0,15.99,2.2,22.02,6.61c6.04,4.41,9.06,9.99,9.06,16.74v2.06h9.7V415.43z"/>
		<path class="st2" d="M257.68,403.84h-6.53v-0.34l18.29-19.83h6.27v0.34L257.68,403.84z"/>
		<path class="st2" d="M358.22,415.43h-9.7v49.37h-6.7l-28.76-14.17v-7.21c2.8-1.95,6.81-4.49,12.02-7.64
			c-3.72-0.29-6.87-1.57-9.44-3.86c-2.58-2.29-3.86-5.32-3.86-9.1c0-4.24,1.42-7.61,4.25-10.13c2.83-2.52,6.65-3.78,11.46-3.78
			c1.77,0,3.46,0.17,5.07,0.52v5.67c-1.03-0.23-2.69-0.34-4.98-0.34c-2.75,0-4.94,0.72-6.57,2.15c-1.63,1.43-2.45,3.43-2.45,6.01
			c0,2.63,0.83,4.64,2.49,6.01c1.66,1.37,3.86,2.06,6.61,2.06c3.38,0,6.41-0.74,9.1-2.23c0.69-0.4,1.6-0.93,2.75-1.59
			c1.14-0.66,1.92-1.1,2.32-1.33v-16.14h16.4V415.43z M341.82,458.02v-25.33l-22.07,14.08L341.82,458.02z"/>
		<path class="st2" d="M380.81,415.43h-9.7v49.37h-6.61v-42.42c0-2.23-0.4-3.95-1.2-5.15c-0.8-1.2-2.23-1.8-4.29-1.8h-4.21v-5.75
			h4.46c2.75,0,4.75,1.23,6.01,3.69c-0.46-2.63-0.69-5.41-0.69-8.33v-2.58h6.53v7.21h9.7V415.43z"/>
		<path class="st2" d="M403.04,465.41c-0.46,0.06-1.26,0.09-2.4,0.09c-5.49,0-9.5-2.15-12.02-6.44c-2.52-4.29-3.84-9.93-3.95-16.91
			c0-12.99,2.63-21.9,7.9-26.7h-15.2v-5.75h28.08v5.75h-1.29c-2.46,0-4.57,0.77-6.31,2.32c-1.75,1.55-3.09,3.65-4.04,6.31
			c-0.94,2.66-1.62,5.48-2.02,8.46c-0.4,2.98-0.6,6.18-0.6,9.62c0,11.62,3.41,17.43,10.22,17.43h1.63V465.41z"/>
		<path class="st2" d="M408.62,443.68l8.93-5.41c-1.72-3.66-4.92-6.38-9.62-8.16v-3.61c0-4.64,1.53-8.74,4.59-12.32
			c3.06-3.58,7.28-5.37,12.66-5.37c6.18,0,10.59,2.15,13.22,6.44v-12.79h6.7v7.21h9.62v5.75h-9.62v49.37h-6.7v-32.11l-29.79,18.29
			V443.68z M414.46,426.6c3.72,1.83,6.44,4.69,8.16,8.59l15.54-9.53c-0.51-3.32-1.79-5.97-3.82-7.94c-2.03-1.98-4.79-2.96-8.29-2.96
			c-3.66,0-6.51,1.1-8.54,3.31C415.48,420.26,414.46,423.1,414.46,426.6z"/>
		<path class="st2" d="M522.82,415.43h-9.7v49.37h-6.7l-28.94-14.6v-7.47l15.46-11.42l-15.37-10.91v-4.98h-6.87v-5.75h52.12V415.43z
			 M498.61,427.8v6.87L483.92,446l22.5,11.76v-42.33h-24.47L498.61,427.8z"/>
		<path class="st2" d="M545.32,415.43h-9.7v49.37H529v-42.42c0-2.23-0.4-3.95-1.2-5.15c-0.8-1.2-2.23-1.8-4.29-1.8h-4.21v-5.75h4.46
			c2.75,0,4.75,1.23,6.01,3.69c-0.46-2.63-0.69-5.41-0.69-8.33v-2.58h6.53v7.21h9.7V415.43z"/>
		<path class="st2" d="M591.51,448.15c0,4.46-1.63,8.09-4.89,10.86c-3.26,2.78-7.7,4.16-13.31,4.16c-7.33,0-13.18-2.55-17.56-7.64
			c-4.38-5.09-6.57-11.91-6.57-20.44c0-1.55,0.14-3.26,0.43-5.15h6.35c-0.17,1.72-0.26,3.35-0.26,4.89c0,7.38,1.59,12.99,4.77,16.83
			c3.18,3.84,7.46,5.75,12.84,5.75c3.55,0,6.34-0.86,8.37-2.58c2.03-1.72,3.08-4.09,3.13-7.13c0-5.78-4.21-8.67-12.62-8.67h-2.49
			v-5.92h2.49c3.49,0,6.08-0.97,7.77-2.92c1.69-1.95,2.53-4.41,2.53-7.38c0-2.46-0.66-4.45-1.97-5.97
			c-1.32-1.52-3.24-2.28-5.75-2.28c-2.4,0-4.25,0.7-5.54,2.1c-1.29,1.4-1.93,3.31-1.93,5.71c0,1.6,0.17,3.32,0.52,5.15h-6.27
			c-0.52-1.66-0.77-3.49-0.77-5.49c0-3.78,1.22-6.93,3.65-9.45c2.43-2.52,5.85-3.78,10.26-3.78c4.46,0,8.01,1.33,10.65,3.99
			c2.63,2.66,3.95,5.97,3.95,9.92c0,3.26-0.83,6.08-2.49,8.46c-1.66,2.38-3.81,3.96-6.44,4.77c3.09,0.29,5.72,1.46,7.9,3.52
			C590.42,441.54,591.51,444.43,591.51,448.15z"/>
		<path class="st2" d="M646.29,415.43h-9.7v49.37h-6.7l-28.94-14.6v-7.47l15.46-11.42l-15.37-10.91v-4.98h-6.87v-5.75h52.12V415.43z
			 M612.46,464.5c0.92,0.89,1.37,1.96,1.37,3.22c0,1.26-0.44,2.32-1.33,3.18s-1.99,1.29-3.31,1.29c-1.32,0-2.39-0.43-3.22-1.29
			c-0.83-0.86-1.25-1.92-1.25-3.18c0-1.26,0.43-2.33,1.29-3.22c0.86-0.89,1.92-1.33,3.18-1.33
			C610.46,463.17,611.54,463.62,612.46,464.5z M622.08,427.8v6.87L607.39,446l22.5,11.76v-42.33h-24.47L622.08,427.8z"/>
		<path class="st2" d="M668.79,415.43h-9.7v49.37h-6.61v-42.42c0-2.23-0.4-3.95-1.2-5.15c-0.8-1.2-2.23-1.8-4.29-1.8h-4.21v-5.75
			h4.46c2.75,0,4.75,1.23,6.01,3.69c-0.46-2.63-0.69-5.41-0.69-8.33v-2.58h6.53v7.21h9.7V415.43z"/>
		<path class="st2" d="M136.87,567.84h-6.61v-1.37c0-8.19-3.15-12.28-9.45-12.28h-4.98c-4.01,4.98-9.73,7.47-17.17,7.47
			c-7.44,0-13.21-2.33-17.3-7c-4.09-4.66-6.14-10.78-6.14-18.33c0-2.98,0.2-6.01,0.6-9.1h6.52c-0.4,3.32-0.6,6.38-0.6,9.19
			c0,6.07,1.49,10.82,4.46,14.25c2.98,3.43,7.1,5.15,12.36,5.15c4.86,0,8.64-1.5,11.33-4.51c2.69-3.01,4.04-6.97,4.04-11.89
			c0-2.98-0.59-5.4-1.76-7.26c-1.17-1.86-2.96-2.79-5.37-2.79c-2.06,0-3.66,0.74-4.81,2.23c-1.15,1.49-1.72,3.41-1.72,5.75
			c0,1.66,0.29,3.75,0.86,6.27h-6.01c-0.8-2-1.2-4.26-1.2-6.78c0-3.72,1.14-6.85,3.43-9.4c2.29-2.55,5.41-3.82,9.36-3.82
			c4.29,0,7.68,1.52,10.18,4.55c2.49,3.03,3.74,6.78,3.74,11.25c0,3.26-0.55,6.27-1.63,9.02h2.06c4.24,0,7.3,1.37,9.19,4.12v-34.09
			H66.98v-5.75h79.6v5.75h-9.7V567.84z"/>
		<path class="st2" d="M191.91,567.84h-6.61l-35.55-21.55v-6.18h7.3c8.76-0.17,13.14-4.61,13.14-13.31c0-2.86-0.67-5.11-2.02-6.74
			c-1.35-1.63-3.28-2.45-5.8-2.45c-2.23,0-4.02,0.72-5.37,2.15c-1.35,1.43-2.02,3.29-2.02,5.58c0,1.72,0.34,3.75,1.03,6.1h-6.35
			c-0.74-1.95-1.12-4.09-1.12-6.44c0-3.78,1.23-6.91,3.69-9.4c2.46-2.49,5.81-3.74,10.05-3.74c4.35,0,7.86,1.45,10.52,4.34
			c2.66,2.89,3.99,6.43,3.99,10.6c0,5.27-1.5,9.53-4.51,12.79c-3.01,3.26-7.11,5.12-12.32,5.58l25.33,15.71V505.5h6.61v7.21h9.62
			v5.75h-9.62V567.84z"/>
		<path class="st2" d="M246.6,518.47h-9.7v49.37h-6.53l-26.88-20.52v-7.47c3.78-3.49,8.04-6.61,12.79-9.36
			c4.75-2.75,9.45-4.69,14.08-5.84v-6.18h-32.28v-5.75h48.51V518.47z M230.38,560.11v-29.19c-7.27,2.35-14.31,6.56-21.12,12.62
			L230.38,560.11z"/>
		<path class="st2" d="M269.19,518.47h-9.7v49.37h-6.61v-42.42c0-2.23-0.4-3.95-1.2-5.15c-0.8-1.2-2.23-1.8-4.29-1.8h-4.21v-5.75
			h4.46c2.75,0,4.75,1.23,6.01,3.69c-0.46-2.63-0.69-5.41-0.69-8.33v-2.58h6.53v7.21h9.7V518.47z"/>
		<path class="st2" d="M327.66,567.84h-6.61v-0.34c-1.83-17.97-6.95-26.96-15.37-26.96c-2.8,0-4.95,0.86-6.44,2.58
			c-1.49,1.72-2.23,4.07-2.23,7.04c0,1.49,0.09,2.81,0.26,3.95h-6.53c-0.29-1.83-0.43-3.26-0.43-4.29c0-4.41,1.34-8.07,4.04-10.99
			c2.69-2.92,6.3-4.38,10.82-4.38c7.44,0,12.74,4.09,15.88,12.28v-28.25h-35.89v-5.75h52.03v5.75h-9.53V567.84z"/>
		<path class="st2" d="M394.72,518.47h-60.96v-5.75h60.96V518.47z M387.25,540.97c0,2.98-0.43,5.82-1.29,8.54
			c-0.86,2.72-2.15,5.21-3.86,7.47c-1.72,2.26-4.07,4.07-7.04,5.41c-2.98,1.35-6.38,2.02-10.22,2.02c-7.67,0-13.55-2.73-17.64-8.2
			c-4.09-5.47-6.14-12.35-6.14-20.65c0-2.86,0.17-5.58,0.52-8.16h6.53c-0.34,2.12-0.52,4.84-0.52,8.16c0,6.64,1.47,12.14,4.42,16.49
			c2.95,4.35,7.23,6.53,12.84,6.53c5.09,0,8.99-1.63,11.68-4.89c2.69-3.26,4.04-7.5,4.04-12.71c0-3.15-0.59-5.75-1.76-7.81
			c-1.17-2.06-3.05-3.09-5.62-3.09c-2.12,0-3.75,0.73-4.89,2.19c-1.15,1.46-1.72,3.36-1.72,5.71c0,2,0.31,4.21,0.94,6.61h-6.18
			c-0.86-2.17-1.29-4.46-1.29-6.87c0-3.83,1.13-7.03,3.39-9.57c2.26-2.55,5.48-3.82,9.66-3.82c4.29,0,7.73,1.63,10.3,4.89
			C385.96,532.47,387.25,536.39,387.25,540.97z"/>
		<path class="st2" d="M389.13,586.82c-3.66-4.41-7.21-7.81-10.65-10.22c-0.74,3.38-2.16,6.11-4.25,8.2
			c-2.09,2.09-4.71,3.13-7.86,3.13c-3.32,0-6.08-0.96-8.29-2.88c-2.2-1.92-3.31-4.39-3.31-7.43c0-3.26,1.15-5.82,3.43-7.68
			c2.29-1.86,5.3-2.79,9.02-2.79c4.24,0,8.24,1.22,12.02,3.65c3.78,2.43,7.07,5.34,9.87,8.72V586.82z M366.38,582.95
			c2.18,0,3.86-0.87,5.07-2.62c1.2-1.75,1.95-3.91,2.23-6.48c-2.35-1.03-4.52-1.55-6.53-1.55c-1.95,0-3.52,0.46-4.72,1.37
			c-1.2,0.91-1.8,2.23-1.8,3.95c0,1.6,0.51,2.89,1.55,3.86C363.2,582.47,364.61,582.95,366.38,582.95z"/>
		<path class="st2" d="M433.79,567.84h-6.61v-0.34c-1.83-17.97-6.95-26.96-15.37-26.96c-2.8,0-4.95,0.86-6.44,2.58
			c-1.49,1.72-2.23,4.07-2.23,7.04c0,1.49,0.09,2.81,0.26,3.95h-6.53c-0.29-1.83-0.43-3.26-0.43-4.29c0-4.41,1.34-8.07,4.04-10.99
			c2.69-2.92,6.3-4.38,10.82-4.38c7.44,0,12.74,4.09,15.88,12.28v-28.25h-35.89v-5.75h52.03v5.75h-9.53V567.84z"/>
		<path class="st2" d="M81.06,635.24c0-5.44,1.92-10.19,5.75-14.25c3.83-4.06,8.53-6.1,14.08-6.1c8.64,0,12.97,4.69,12.97,14.08
			v41.9h-6.7v-0.77c0-2.58-1.12-3.86-3.35-3.86c-0.92,0-3.32,0.56-7.21,1.67c-3.89,1.12-7.13,1.67-9.7,1.67
			c-4.24,0-7.64-1.29-10.22-3.86c-2.58-2.58-3.86-6.18-3.86-10.82c0-1.32,0.11-2.78,0.34-4.38h6.53c-0.17,1.09-0.26,2.43-0.26,4.04
			c0,2.86,0.67,5.08,2.02,6.65c1.34,1.58,3.31,2.36,5.88,2.36c1.89,0,4.64-0.53,8.24-1.59c3.61-1.06,6.18-1.59,7.73-1.59
			c1.6,0,2.89,0.54,3.86,1.63v-33.06c0-2.86-0.5-4.94-1.5-6.23c-1-1.29-2.59-1.93-4.77-1.93c-3.32,0-6.34,1.45-9.06,4.34
			c-2.72,2.89-4.08,6.25-4.08,10.09c0,2.81,0.71,4.74,2.15,5.8c1.43,1.06,3.55,1.59,6.35,1.59c1.55,0,2.92-0.09,4.12-0.26v5.84
			c-2.12,0.29-3.75,0.43-4.89,0.43c-4.58,0-8.13-1.13-10.65-3.39C82.32,642.99,81.06,639.65,81.06,635.24z"/>
		<path class="st2" d="M172.5,646.49c0,6.7-1.95,12.21-5.84,16.53c-3.89,4.32-9.3,6.48-16.23,6.48c-7.5,0-13.39-2.58-17.69-7.73
			c-4.29-5.15-6.44-11.96-6.44-20.44c0-2.29,0.17-4.69,0.52-7.21h6.52c-0.23,2.06-0.34,4.41-0.34,7.04c0,6.81,1.5,12.27,4.51,16.36
			c3.01,4.09,7.31,6.14,12.92,6.14c5.04,0,8.92-1.6,11.63-4.81c2.72-3.21,4.08-7.47,4.08-12.79c0-0.8-0.06-1.89-0.17-3.26
			c-3.72,2.29-7.38,3.43-10.99,3.43c-3.38,0-6.1-1.03-8.16-3.09c-2.06-2.06-3.09-4.89-3.09-8.5v-13.14h-24.3v-5.75h59.42v5.75
			h-28.42v13.14c0,3.78,1.72,5.67,5.15,5.67c1.6,0,3.31-0.31,5.11-0.94c1.8-0.63,3.33-1.3,4.59-2.02c1.26-0.71,3.01-1.76,5.24-3.13
			C171.84,637.71,172.5,641.8,172.5,646.49z"/>
		<path class="st2" d="M201.1,671.48c-0.46,0.06-1.26,0.09-2.4,0.09c-5.49,0-9.5-2.15-12.02-6.44c-2.52-4.29-3.84-9.93-3.95-16.91
			c0-12.99,2.63-21.9,7.9-26.7h-15.2v-5.75h28.08v5.75h-1.29c-2.46,0-4.57,0.77-6.31,2.32c-1.75,1.55-3.09,3.65-4.04,6.31
			c-0.94,2.66-1.62,5.48-2.02,8.46c-0.4,2.98-0.6,6.18-0.6,9.62c0,11.62,3.41,17.43,10.22,17.43h1.63V671.48z"/>
		<path class="st2" d="M258.8,621.51h-58.73v-5.75h58.73V621.51z M252.27,648.9c0,6.01-1.89,10.98-5.67,14.9
			c-3.78,3.92-9.05,5.88-15.8,5.88c-7.38,0-13.31-2.62-17.77-7.86c-4.46-5.24-6.7-11.86-6.7-19.88c0-1.77,0.09-3.41,0.26-4.89h6.44
			c-0.12,1.95-0.17,3.55-0.17,4.81c0,6.7,1.57,12.04,4.72,16.01c3.15,3.98,7.56,5.97,13.22,5.97c4.98,0,8.77-1.36,11.38-4.08
			c2.6-2.72,3.91-6.34,3.91-10.86v-0.43c-3.09,1.49-6.53,2.23-10.3,2.23c-4.12,0-7.41-1.09-9.88-3.26
			c-2.46-2.18-3.69-5.12-3.69-8.84c0.06-3.72,1.39-6.67,3.99-8.84c2.6-2.17,5.85-3.26,9.75-3.26c1.83,0,3.72,0.23,5.67,0.69v5.5
			c-1.72-0.23-3.35-0.34-4.89-0.34c-2.35,0-4.24,0.53-5.67,1.59c-1.43,1.06-2.15,2.62-2.15,4.68c0,2.12,0.72,3.71,2.15,4.77
			c1.43,1.06,3.35,1.59,5.75,1.59c4.41,0,9.04-1.52,13.91-4.55C251.75,643.14,252.27,645.98,252.27,648.9z"/>
		<path class="st2" d="M320.1,653.79c0,3.49-1.23,6.38-3.69,8.67c-2.46,2.29-5.7,3.43-9.7,3.43c-4.69,0-8.39-1.69-11.08-5.07v10.05
			h-6.7l-25.33-12.19v-7.3c2.98-2.92,6.67-5.65,11.08-8.2c4.41-2.55,8.84-4.45,13.31-5.71c-0.86-3.43-2.25-6.2-4.16-8.29
			c-1.92-2.09-4.34-3.13-7.26-3.13c-2.63,0-4.58,0.83-5.84,2.49c-1.26,1.66-1.89,3.81-1.89,6.44c0,1.32,0.09,2.49,0.26,3.52h-6.53
			c-0.23-1.32-0.34-2.6-0.34-3.86c0-4.24,1.22-7.74,3.65-10.52c2.43-2.78,5.82-4.16,10.17-4.16c5.95,0,10.25,2.72,12.88,8.16v-12.36
			h6.7v9.36c2.69-3.43,6.32-5.15,10.9-5.15c4.06,0,7.34,1.16,9.83,3.48c2.49,2.32,3.74,5.19,3.74,8.63c0,2.8-0.8,5.15-2.4,7.04
			c-1.6,1.89-3.52,3.18-5.75,3.86c2.23,0.69,4.15,1.96,5.75,3.82C319.3,648.65,320.1,650.99,320.1,653.79z M288.93,645.89
			c0-1.09-0.03-1.92-0.09-2.49c-3.26,1.03-6.63,2.53-10.09,4.51c-3.46,1.98-6.54,4.19-9.23,6.65l19.41,9.53V645.89z M306.28,660.15
			c2.23,0,4.02-0.66,5.37-1.98c1.34-1.32,2.02-3.01,2.02-5.07c0-2.23-0.76-3.98-2.28-5.24c-1.52-1.26-3.76-1.89-6.74-1.89h-2.92
			v-6.01h2.92c3.03,0,5.29-0.66,6.78-1.97c1.49-1.32,2.23-3.09,2.23-5.32c0-2.12-0.72-3.79-2.15-5.02
			c-1.43-1.23-3.29-1.85-5.58-1.85c-3.09,0-5.58,1.07-7.47,3.22c-1.89,2.15-2.83,4.94-2.83,8.37v11.16c0,3.49,0.99,6.3,2.96,8.41
			C300.57,659.09,303.13,660.15,306.28,660.15z"/>
		<path class="st2" d="M349.9,621.51h-9.7v49.37h-6.61v-42.42c0-2.23-0.4-3.95-1.2-5.15c-0.8-1.2-2.23-1.8-4.29-1.8h-4.21v-5.75
			h4.46c2.75,0,4.75,1.23,6.01,3.69c-0.46-2.63-0.69-5.41-0.69-8.33v-2.58h6.53v7.21h9.7V621.51z"/>
		<path class="st2" d="M394.97,621.51h-9.7v49.37h-6.53l-26.88-20.52v-7.47c3.78-3.49,8.04-6.61,12.79-9.36
			c4.75-2.75,9.45-4.69,14.08-5.84v-6.18h-32.28v-5.75h48.51V621.51z M359.42,665.08c0.92,0.89,1.37,1.96,1.37,3.22
			c0,1.26-0.44,2.32-1.33,3.18c-0.89,0.86-1.99,1.29-3.31,1.29c-1.32,0-2.39-0.43-3.22-1.29c-0.83-0.86-1.24-1.92-1.24-3.18
			c0-1.26,0.43-2.33,1.29-3.22c0.86-0.89,1.92-1.33,3.18-1.33C357.42,663.75,358.51,664.2,359.42,665.08z M378.74,663.15v-29.19
			c-7.27,2.35-14.31,6.56-21.12,12.62L378.74,663.15z"/>
		<path class="st2" d="M475.6,656.28c0,5.04-2.38,8.99-7.13,11.85c-4.75,2.86-11.13,4.29-19.15,4.29c-9.96,0-17.77-2.07-23.44-6.22
			c-5.67-4.15-8.73-9.63-9.19-16.44h6.96c0.23,5.32,2.63,9.47,7.21,12.45c4.58,2.98,10.76,4.46,18.55,4.46
			c12.88,0,19.35-3.55,19.41-10.65c0.06-2.8-0.96-4.89-3.05-6.27c-2.09-1.37-4.99-2.06-8.71-2.06h-2.49v-5.92h2.49
			c3.32,0,5.91-0.93,7.77-2.79c1.86-1.86,2.79-4.36,2.79-7.51c0-4.58-1.77-7.76-5.32-9.53l-5.24,11.68h-6.01v-2.49
			c0-6.98-2.78-10.48-8.33-10.48c-2.35,0-4.25,0.87-5.71,2.62c-1.46,1.75-2.19,4.11-2.19,7.08c0,3.21,0.8,5.61,2.4,7.21
			c1.6,1.6,3.81,2.4,6.61,2.4c1.14,0,2.32-0.09,3.52-0.26v5.67c-1.32,0.23-2.69,0.34-4.12,0.34c-5.1,0-8.9-1.83-11.42-5.49
			c-2.23,3.66-5.81,5.49-10.73,5.49c-1.77,0-3.26-0.14-4.46-0.43v-5.67c1.14,0.23,2.43,0.34,3.86,0.34c2.8,0,4.84-0.77,6.1-2.32
			c1.26-1.55,1.89-3.98,1.89-7.3c0-2.98-0.73-5.18-2.19-6.61s-3.71-2.15-6.74-2.15l-8.59-0.09v-5.75h8.93
			c5.32,0,9.24,1.86,11.76,5.58c2.52-4.01,6.15-6.07,10.91-6.18c6.64,0,10.76,3.21,12.36,9.62l4.29-9.87
			c4.41,0.46,8.01,2.22,10.82,5.28c2.8,3.06,4.21,6.8,4.21,11.21c0,6.93-3.01,11.33-9.02,13.22c3.09,0.46,5.59,1.66,7.51,3.61
			C474.64,650.16,475.6,652.85,475.6,656.28z"/>
		<path class="st2" d="M527.2,621.51h-9.7v49.37h-6.53l-26.88-20.52v-7.47c3.78-3.49,8.04-6.61,12.79-9.36
			c4.75-2.75,9.45-4.69,14.08-5.84v-6.18h-32.28v-5.75h48.51V621.51z M491.65,665.08c0.92,0.89,1.37,1.96,1.37,3.22
			c0,1.26-0.44,2.32-1.33,3.18c-0.89,0.86-1.99,1.29-3.31,1.29c-1.32,0-2.39-0.43-3.22-1.29c-0.83-0.86-1.24-1.92-1.24-3.18
			c0-1.26,0.43-2.33,1.29-3.22c0.86-0.89,1.92-1.33,3.18-1.33C489.65,663.75,490.74,664.2,491.65,665.08z M510.97,663.15v-29.19
			c-7.27,2.35-14.31,6.56-21.12,12.62L510.97,663.15z"/>
		<path class="st2" d="M527.29,632.75c4.01,0,7.14,1.12,9.4,3.35c2.26,2.23,3.39,5.35,3.39,9.36c0,3.66-1.19,6.76-3.56,9.27
			c-2.38,2.52-5.68,3.78-9.92,3.78c-2.69,0-5.14-0.73-7.34-2.19s-3.68-3.53-4.42-6.22l2.66-5.49c0,2.4,0.83,4.38,2.49,5.92
			s3.75,2.32,6.27,2.32c2.4,0,4.25-0.69,5.54-2.06c1.29-1.37,1.93-3.18,1.93-5.41c0-2.29-0.62-4.02-1.85-5.19
			c-1.23-1.17-2.93-1.76-5.11-1.76c-1.26,0-2.17,0.06-2.75,0.17v-5.67C525.28,632.81,526.37,632.75,527.29,632.75z M546.61,621.51
			h-22.84v-5.75h22.84V621.51z"/>
		<path class="st2" d="M624.66,647.01c0,5.04-1.37,8.93-4.12,11.68c-2.75,2.75-6.24,4.12-10.48,4.12c-0.74,0-1.29-0.03-1.63-0.09
			v-6.18h1.03c5.78,0,8.67-3.18,8.67-9.53c0-4.12-1.57-7.43-4.72-9.92c-3.15-2.49-7.16-3.74-12.02-3.74v37.52h-6.53l-26.88-20.52
			v-7.47c9.56-8.76,18.52-13.88,26.88-15.37v-6.01h-32.28v-5.75h67.4v5.75h-28.59v5.92c6.7,0.06,12.25,1.9,16.66,5.54
			C622.45,636.61,624.66,641.28,624.66,647.01z M594.86,663.24V633.7c-6.47,1.6-13.54,5.92-21.21,12.97L594.86,663.24z"/>
		<path class="st2" d="M675.06,621.51h-9.7v49.37h-6.53l-26.88-20.52v-7.47c3.78-3.49,8.04-6.61,12.79-9.36
			c4.75-2.75,9.45-4.69,14.08-5.84v-6.18h-32.28v-5.75h48.51V621.51z M639.51,665.08c0.92,0.89,1.37,1.96,1.37,3.22
			c0,1.26-0.44,2.32-1.33,3.18c-0.89,0.86-1.99,1.29-3.31,1.29c-1.32,0-2.39-0.43-3.22-1.29c-0.83-0.86-1.24-1.92-1.24-3.18
			c0-1.26,0.43-2.33,1.29-3.22c0.86-0.89,1.92-1.33,3.18-1.33C637.51,663.75,638.59,664.2,639.51,665.08z M658.83,663.15v-29.19
			c-7.27,2.35-14.31,6.56-21.12,12.62L658.83,663.15z"/>
		<path class="st2" d="M697.64,621.51h-9.7v49.37h-6.61v-42.42c0-2.23-0.4-3.95-1.2-5.15c-0.8-1.2-2.23-1.8-4.29-1.8h-4.21v-5.75
			h4.46c2.75,0,4.75,1.23,6.01,3.69c-0.46-2.63-0.69-5.41-0.69-8.33v-2.58h6.53v7.21h9.7V621.51z"/>
	</g>
	<g>
		<path class="st3" d="M694.19,59.67c-0.53-0.87-1.44-1.44-2.45-1.56c-1.01-0.12-2.02,0.23-2.74,0.95l-10.55,10.55l-18.52-4
			c-1.11-0.24-2.26,0.1-3.06,0.9l-46.3,46.3c-0.34,0.34-0.78,0.52-1.26,0.52c-0.48,0-0.92-0.19-1.26-0.52l-0.68-0.68
			c-0.34-0.34-0.52-0.78-0.52-1.26c0-0.48,0.19-0.92,0.52-1.26l46.3-46.3c0.8-0.8,1.14-1.95,0.9-3.06l-4-18.53l10.69-10.69
			c0.72-0.72,1.07-1.72,0.95-2.73c-0.11-1.01-0.68-1.91-1.54-2.45C644.03,15.41,624.8,9.88,605.06,9.88
			c-27.95,0-54.23,10.89-74,30.65c-19.77,19.77-30.65,46.05-30.65,74s10.89,54.23,30.65,74c19.77,19.77,46.05,30.65,74,30.65
			c10.72,0,21.29-1.62,31.44-4.81c1.06-0.33,1.88-1.17,2.19-2.23c0.31-1.06,0.08-2.21-0.63-3.07c-6.91-8.35-10.72-18.93-10.72-29.79
			c0-25.78,20.97-46.75,46.75-46.75c9.93,0,19.41,3.07,27.42,8.89c0.9,0.65,2.06,0.81,3.1,0.43c1.04-0.38,1.82-1.26,2.09-2.33
			c2-8.15,3.01-16.56,3.01-24.98C709.71,95.11,704.34,76.14,694.19,59.67z"/>
		<path class="st4" d="M670.47,68.8c-0.48-0.69-1.2-1.17-2.03-1.34l-8.52-1.84c-1.11-0.24-2.26,0.1-3.06,0.9l-46.3,46.3
			c-0.34,0.34-0.78,0.52-1.26,0.52c-0.48,0-0.92-0.19-1.26-0.52l-0.68-0.68c-0.34-0.34-0.52-0.78-0.52-1.26
			c0-0.48,0.19-0.92,0.52-1.26l46.3-46.3c0.8-0.8,1.14-1.95,0.9-3.06l-1.88-8.72c-0.18-0.81-0.65-1.53-1.32-2.01
			c-13.57-9.69-29.59-14.81-46.3-14.81c-44.01,0-79.81,35.8-79.81,79.81c0,44.01,35.8,79.81,79.81,79.81
			c6.99,0,13.93-0.91,20.64-2.7c1.68-0.45,2.73-2.11,2.42-3.82c-0.52-2.81-0.78-5.68-0.78-8.54c0-25.78,20.97-46.75,46.75-46.75
			c1.84,0,3.72,0.11,5.58,0.33c1.73,0.2,3.32-0.95,3.66-2.66c1.02-5.14,1.54-10.41,1.54-15.67
			C684.87,98.07,679.89,82.25,670.47,68.8z"/>
		<path class="st3" d="M648.44,80.19c-0.59-0.74-1.47-1.2-2.42-1.26c-0.95-0.05-1.87,0.3-2.55,0.97l-32.9,32.9
			c-0.34,0.34-0.78,0.52-1.26,0.52c-0.48,0-0.92-0.19-1.26-0.52l-0.68-0.68c-0.34-0.34-0.52-0.78-0.52-1.26
			c0-0.48,0.19-0.92,0.52-1.26l32.97-32.97c0.66-0.66,1.02-1.58,0.97-2.52c-0.05-0.94-0.49-1.82-1.22-2.41
			c-9.85-8.06-22.29-12.51-35.03-12.51c-30.51,0-55.33,24.82-55.33,55.33s24.82,55.33,55.33,55.33c8.25,0,16.18-1.77,23.6-5.27
			c0.78-0.37,1.39-1.03,1.69-1.83c4.34-11.49,13.26-20.99,24.45-26.07c0.79-0.36,1.4-1.01,1.72-1.81
			c2.56-6.48,3.86-13.32,3.86-20.34C660.39,101.93,656.25,90.06,648.44,80.19z"/>
		<path class="st4" d="M630.15,99.02c-0.54-0.86-1.44-1.44-2.45-1.55c-1.01-0.12-2.02,0.23-2.74,0.95l-14.39,14.39
			c-0.34,0.34-0.78,0.52-1.26,0.52c-0.48,0-0.92-0.19-1.26-0.52l-0.68-0.68c-0.34-0.34-0.52-0.78-0.52-1.26
			c0-0.48,0.19-0.92,0.52-1.26l14.52-14.52c0.71-0.71,1.06-1.69,0.96-2.68c-0.1-0.99-0.64-1.89-1.47-2.44
			c-4.85-3.22-10.49-4.93-16.32-4.93c-16.27,0-29.5,13.23-29.5,29.5s13.23,29.5,29.5,29.5c16.27,0,29.5-13.23,29.5-29.5
			C634.56,109.04,633.03,103.68,630.15,99.02z"/>
		<g>
			<path class="st5" d="M638.05,209.06c-11.92,5.68-25.09,9.17-38.98,9.96c1.99,0.11,3.99,0.17,6,0.17
				c10.72,0,21.29-1.62,31.44-4.81c1.06-0.33,1.88-1.17,2.19-2.23c0.31-1.06,0.08-2.21-0.63-3.07
				C638.06,209.07,638.05,209.06,638.05,209.06z"/>
			<path class="st5" d="M659.02,33.28l2.23-2.23c0.72-0.72,1.07-1.72,0.95-2.73c-0.11-1.01-0.68-1.91-1.54-2.45
				C644.03,15.41,624.8,9.88,605.06,9.88c-2.01,0-4,0.06-5.99,0.17C621.74,11.34,642.47,19.83,659.02,33.28z"/>
			<path class="st5" d="M694.19,59.67c-0.53-0.87-1.44-1.44-2.45-1.56c-1.01-0.12-2.02,0.23-2.74,0.95l-4.5,4.5
				c8.43,15.08,13.24,32.46,13.24,50.97c0,7.91-0.88,15.61-2.55,23.02c2.19,1.11,4.3,2.4,6.32,3.87c0.9,0.65,2.06,0.81,3.1,0.43
				c1.04-0.38,1.82-1.26,2.09-2.33c2-8.15,3.01-16.56,3.01-24.98C709.71,95.11,704.34,76.14,694.19,59.67z"/>
		</g>
		<g>
			<path class="st6" d="M686.28,28.55l-4.38-20.3c-0.26-1.19-1.15-2.15-2.32-2.49c-1.17-0.34-2.43-0.02-3.3,0.84l-31.71,31.71
				c-0.8,0.8-1.14,1.95-0.9,3.06l4.38,20.3c0.26,1.19,1.15,2.15,2.32,2.49c0.31,0.09,0.63,0.14,0.94,0.14
				c0.87,0,1.72-0.34,2.36-0.98l31.71-31.71C686.18,30.81,686.52,29.65,686.28,28.55z"/>
			<path class="st6" d="M714.42,40.6c-0.34-1.17-1.3-2.06-2.49-2.31l-20.3-4.38c-1.11-0.24-2.26,0.1-3.06,0.9l-31.71,31.71
				c-0.86,0.86-1.18,2.13-0.84,3.3c0.34,1.17,1.3,2.06,2.49,2.31l20.3,4.38c0.23,0.05,0.47,0.07,0.7,0.07
				c0.87,0,1.72-0.34,2.36-0.98l31.71-31.71C714.45,43.03,714.77,41.77,714.42,40.6z"/>
		</g>
		<path class="st7" d="M668.12,74.2l10.7,2.31c0.23,0.05,0.47,0.07,0.7,0.07c0.87,0,1.72-0.34,2.36-0.98l31.71-31.71
			c0.86-0.86,1.18-2.13,0.84-3.3s-1.3-2.06-2.49-2.31l-6.5-1.4L668.12,74.2z"/>
		<path class="st8" d="M693.27,34.82l-7.91-7.91c-0.62-0.62-1.47-0.98-2.36-0.98c-0.88,0-1.73,0.35-2.36,0.98l-77.99,77.99
			c-1.6,1.59-2.47,3.72-2.47,5.97c0,2.26,0.88,4.38,2.47,5.97l0.68,0.68c1.59,1.59,3.72,2.47,5.97,2.47s4.38-0.88,5.97-2.47
			l77.99-77.99C694.57,38.23,694.57,36.12,693.27,34.82z"/>
		<path class="st6" d="M674.09,125.87c-29.45,0-53.41,23.96-53.41,53.41s23.96,53.41,53.41,53.41c29.45,0,53.41-23.96,53.41-53.41
			C727.5,149.83,703.54,125.87,674.09,125.87z"/>
		<path class="st9" d="M674.09,125.87c-2.32,0-4.61,0.15-6.85,0.44c26.23,3.37,46.56,25.84,46.56,52.97
			c0,27.13-20.33,49.6-46.56,52.97c2.24,0.29,4.53,0.44,6.85,0.44c29.45,0,53.41-23.96,53.41-53.41
			C727.5,149.83,703.54,125.87,674.09,125.87z"/>
		<path class="st10" d="M666.16,203.36c-1.85,0-3.62-0.73-4.93-2.04l-15.85-15.85c-2.72-2.72-2.72-7.14,0-9.86
			c2.72-2.72,7.13-2.72,9.86,0l10.92,10.92l26.78-26.78c2.72-2.72,7.13-2.72,9.86,0c2.72,2.72,2.72,7.14,0,9.86l-31.71,31.71
			C669.78,202.63,668.01,203.36,666.16,203.36z"/>
	</g>
</g>
</svg>
