<?xml version="1.0" encoding="utf-8"?>
<!-- Generator: Adobe Illustrator 26.0.1, SVG Export Plug-In . SVG Version: 6.00 Build 0)  -->
<svg version="1.1" id="Layer_1" xmlns="http://www.w3.org/2000/svg" xmlns:xlink="http://www.w3.org/1999/xlink" x="0px" y="0px"
	 viewBox="0 0 1000 1000" style="enable-background:new 0 0 1000 1000;" xml:space="preserve">
<style type="text/css">
	.st0{fill:#FF9039;}
	.st1{opacity:0.6;fill:#DD7026;}
	.st2{fill:#FFFFFF;}
	.st3{fill:#FF4FB9;}
	.st4{fill:#FFE02F;}
	.st5{fill:#FFB1A0;}
	.st6{fill:#00C2FB;}
	.st7{fill:#7B6C79;}
	.st8{fill:#2F4DCA;}
	.st9{fill:#6B7ED9;}
	.st10{fill:#FF72C7;}
	.st11{fill:#DBEDFF;}
	.st12{fill:#4D66D2;}
	.st13{fill:#62DDFC;}
	.st14{fill:#FBC700;}
</style>
<g>
	<polygon class="st0" points="11.2,553.5 190.3,450.1 190.3,656.9 	"/>
	<path class="st0" d="M988.8,189v693.4c0,20.8-16.8,37.5-37.5,37.5H217.3c-20.8,0-37.5-16.8-37.5-37.5V189
		c0-20.7,16.8-37.5,37.5-37.5h733.9C972,151.5,988.8,168.3,988.8,189z"/>
	<path class="st1" d="M988.8,646.4v236c0,20.8-16.8,37.5-37.5,37.5H217.3c-20.8,0-37.5-16.8-37.5-37.5V399.1
		C345.1,647.7,624.6,906.2,988.8,646.4z"/>
	<g>
		<path class="st2" d="M283.6,341.9L270.5,318h-3.7v23.8h-15.4v-63.1h25.8c5,0,9.2,0.9,12.7,2.6c3.5,1.7,6.1,4.1,7.9,7.2
			c1.7,3,2.6,6.4,2.6,10.1c0,4.2-1.2,7.9-3.6,11.2c-2.4,3.3-5.9,5.6-10.5,7l14.6,25H283.6z M266.8,307.2h9.5c2.8,0,4.9-0.7,6.3-2.1
			c1.4-1.4,2.1-3.3,2.1-5.8c0-2.4-0.7-4.3-2.1-5.7c-1.4-1.4-3.5-2.1-6.3-2.1h-9.5V307.2z"/>
		<path class="st2" d="M357.1,320.5h-34.8c0.2,3.1,1.2,5.5,3,7.2c1.8,1.6,3.9,2.5,6.5,2.5c3.8,0,6.5-1.6,8-4.9h16.4
			c-0.8,3.3-2.4,6.3-4.5,8.9c-2.2,2.6-4.9,4.7-8.2,6.2c-3.3,1.5-7,2.2-11.1,2.2c-4.9,0-9.3-1-13.1-3.1c-3.8-2.1-6.8-5.1-9-9
			c-2.2-3.9-3.2-8.5-3.2-13.7s1.1-9.8,3.2-13.7c2.1-3.9,5.1-6.9,9-9c3.8-2.1,8.2-3.1,13.2-3.1c4.9,0,9.2,1,13,3.1
			c3.8,2,6.7,4.9,8.9,8.7c2.1,3.8,3.2,8.2,3.2,13.2C357.4,317.4,357.3,318.9,357.1,320.5z M341.6,311.9c0-2.6-0.9-4.7-2.7-6.3
			s-4-2.3-6.7-2.3c-2.6,0-4.8,0.8-6.5,2.2c-1.8,1.5-2.9,3.6-3.3,6.4H341.6z"/>
		<path class="st2" d="M365.3,303.1c1.9-3.9,4.6-6.9,8-9c3.4-2.1,7.1-3.1,11.2-3.1c3.5,0,6.6,0.7,9.3,2.2c2.7,1.4,4.7,3.3,6.2,5.7
			v-7.1h15.4v50.2H400v-7.1c-1.5,2.3-3.6,4.2-6.3,5.7c-2.7,1.4-5.8,2.2-9.3,2.2c-4.1,0-7.8-1.1-11.2-3.2c-3.4-2.1-6-5.2-8-9.1
			c-1.9-3.9-2.9-8.5-2.9-13.6C362.4,311.5,363.4,307,365.3,303.1z M396.8,307.7c-2.1-2.2-4.7-3.3-7.8-3.3s-5.7,1.1-7.8,3.3
			c-2.1,2.2-3.2,5.2-3.2,9s1.1,6.9,3.2,9.1c2.1,2.2,4.7,3.4,7.8,3.4s5.7-1.1,7.8-3.3c2.1-2.2,3.2-5.2,3.2-9.1
			C400,312.9,399,309.9,396.8,307.7z"/>
		<path class="st2" d="M426.7,303.1c2.1-3.9,5.1-6.9,8.9-9c3.8-2.1,8.2-3.1,13.1-3.1c6.3,0,11.6,1.6,15.8,4.9
			c4.2,3.3,7,7.9,8.3,13.9h-16.4c-1.4-3.8-4-5.8-8-5.8c-2.8,0-5.1,1.1-6.7,3.3c-1.7,2.2-2.5,5.3-2.5,9.4c0,4.1,0.8,7.2,2.5,9.4
			c1.7,2.2,3.9,3.3,6.7,3.3c4,0,6.6-1.9,8-5.8h16.4c-1.3,5.9-4.1,10.5-8.4,13.9c-4.3,3.4-9.5,5-15.7,5c-4.9,0-9.3-1-13.1-3.1
			c-3.8-2.1-6.8-5.1-8.9-9c-2.1-3.9-3.2-8.5-3.2-13.7S424.6,307,426.7,303.1z"/>
		<path class="st2" d="M525.7,296.9c3.5,3.8,5.2,9,5.2,15.7v29.3h-15.3v-27.3c0-3.4-0.9-6-2.6-7.8c-1.7-1.9-4.1-2.8-7-2.8
			c-2.9,0-5.3,0.9-7,2.8c-1.7,1.9-2.6,4.5-2.6,7.8v27.3H481v-66.6h15.4v23.1c1.6-2.2,3.7-4,6.4-5.3c2.7-1.3,5.7-2,9.1-2
			C517.6,291.1,522.2,293.1,525.7,296.9z"/>
		<path class="st2" d="M322.9,386.7v63.1h-15.4V412l-14.1,37.9H281l-14.2-38v38h-15.4v-63.1h18.2l17.7,43.7l17.5-43.7H322.9z"/>
		<path class="st2" d="M335.1,392c-1.7-1.6-2.6-3.6-2.6-5.9c0-2.4,0.9-4.4,2.6-6c1.7-1.6,3.9-2.4,6.6-2.4c2.6,0,4.8,0.8,6.5,2.4
			c1.7,1.6,2.6,3.6,2.6,6c0,2.3-0.9,4.3-2.6,5.9c-1.7,1.6-3.9,2.4-6.5,2.4C339,394.4,336.8,393.6,335.1,392z M349.4,399.6v50.2H334
			v-50.2H349.4z"/>
		<path class="st2" d="M375.9,383.3v66.6h-15.4v-66.6H375.9z"/>
		<path class="st2" d="M434.1,428.4h-34.8c0.2,3.1,1.2,5.5,3,7.2c1.8,1.6,3.9,2.5,6.5,2.5c3.8,0,6.5-1.6,8-4.9h16.4
			c-0.8,3.3-2.4,6.3-4.5,8.9c-2.2,2.6-4.9,4.7-8.2,6.2c-3.3,1.5-7,2.2-11.1,2.2c-4.9,0-9.3-1-13.1-3.1c-3.8-2.1-6.8-5.1-9-9
			c-2.2-3.9-3.2-8.5-3.2-13.7s1.1-9.8,3.2-13.7c2.1-3.9,5.1-6.9,9-9c3.8-2.1,8.2-3.1,13.2-3.1c4.9,0,9.2,1,13,3.1
			c3.8,2,6.7,4.9,8.9,8.7c2.1,3.8,3.2,8.2,3.2,13.2C434.4,425.4,434.3,426.9,434.1,428.4z M418.6,419.9c0-2.6-0.9-4.7-2.7-6.3
			s-4-2.3-6.7-2.3c-2.6,0-4.8,0.8-6.5,2.2c-1.8,1.5-2.9,3.6-3.3,6.4H418.6z"/>
		<path class="st2" d="M451.2,448.3c-3.4-1.5-6.1-3.6-8.1-6.2c-2-2.6-3.1-5.5-3.3-8.8H455c0.2,1.7,1,3.1,2.4,4.2
			c1.4,1.1,3.2,1.6,5.3,1.6c1.9,0,3.4-0.4,4.5-1.1c1-0.7,1.6-1.7,1.6-2.9c0-1.4-0.8-2.5-2.2-3.2c-1.5-0.7-3.9-1.5-7.3-2.3
			c-3.6-0.8-6.6-1.7-9-2.7c-2.4-0.9-4.5-2.4-6.2-4.4c-1.7-2-2.6-4.7-2.6-8.1c0-2.9,0.8-5.5,2.4-7.9c1.6-2.4,3.9-4.2,7-5.6
			c3.1-1.4,6.8-2.1,11-2.1c6.3,0,11.3,1.6,14.9,4.7c3.6,3.1,5.7,7.3,6.3,12.4h-14.2c-0.2-1.7-1-3.1-2.3-4.1c-1.3-1-3-1.5-5.1-1.5
			c-1.8,0-3.2,0.3-4.1,1c-1,0.7-1.4,1.6-1.4,2.8c0,1.4,0.8,2.5,2.3,3.2c1.5,0.7,3.9,1.4,7.2,2.2c3.7,1,6.7,1.9,9.1,2.8
			c2.3,0.9,4.4,2.4,6.2,4.5c1.8,2.1,2.7,4.8,2.7,8.3c0,2.9-0.8,5.6-2.5,7.9c-1.7,2.3-4,4.1-7.1,5.4c-3.1,1.3-6.7,2-10.8,2
			C458.5,450.6,454.6,449.8,451.2,448.3z"/>
		<path class="st2" d="M520.7,436.8v13h-7.8c-5.6,0-9.9-1.4-13-4.1c-3.1-2.7-4.7-7.2-4.7-13.4v-20H489v-12.8h6.1v-12.2h15.4v12.2
			h10.1v12.8h-10.1v20.2c0,1.5,0.4,2.6,1.1,3.2c0.7,0.7,1.9,1,3.6,1H520.7z"/>
		<path class="st2" d="M538.8,447.4c-3.9-2.1-7-5.1-9.3-9c-2.2-3.9-3.4-8.5-3.4-13.7c0-5.2,1.1-9.7,3.4-13.6c2.3-3.9,5.4-6.9,9.4-9
			c4-2.1,8.4-3.1,13.3-3.1c4.9,0,9.4,1,13.3,3.1c4,2.1,7.1,5.1,9.4,9c2.3,3.9,3.4,8.5,3.4,13.6c0,5.2-1.2,9.7-3.5,13.6
			c-2.3,3.9-5.5,6.9-9.4,9c-4,2.1-8.4,3.1-13.4,3.1C547.1,450.6,542.7,449.5,538.8,447.4z M559.6,434c2.1-2.2,3.1-5.2,3.1-9.3
			c0-4-1-7.1-3-9.3c-2-2.2-4.5-3.2-7.4-3.2c-3,0-5.5,1.1-7.5,3.2c-2,2.1-3,5.2-3,9.3c0,4,1,7.1,2.9,9.3c1.9,2.2,4.4,3.2,7.3,3.2
			S557.5,436.2,559.6,434z"/>
		<path class="st2" d="M631.2,404.8c3.5,3.8,5.3,9,5.3,15.7v29.3h-15.3v-27.3c0-3.4-0.9-6-2.6-7.8c-1.7-1.9-4.1-2.8-7-2.8
			c-2.9,0-5.3,0.9-7,2.8c-1.7,1.9-2.6,4.5-2.6,7.8v27.3h-15.4v-50.2h15.4v6.7c1.6-2.2,3.7-4,6.3-5.3c2.6-1.3,5.6-1.9,8.9-1.9
			C623,399.1,627.7,401,631.2,404.8z"/>
		<path class="st2" d="M694.2,428.4h-34.8c0.2,3.1,1.2,5.5,3,7.2c1.8,1.6,3.9,2.5,6.5,2.5c3.8,0,6.5-1.6,8-4.9h16.4
			c-0.8,3.3-2.4,6.3-4.5,8.9c-2.2,2.6-4.9,4.7-8.2,6.2c-3.3,1.5-7,2.2-11.1,2.2c-4.9,0-9.3-1-13.1-3.1c-3.8-2.1-6.8-5.1-9-9
			c-2.2-3.9-3.2-8.5-3.2-13.7s1.1-9.8,3.2-13.7c2.1-3.9,5.1-6.9,9-9c3.8-2.1,8.2-3.1,13.2-3.1c4.9,0,9.2,1,13,3.1
			c3.8,2,6.7,4.9,8.9,8.7c2.1,3.8,3.2,8.2,3.2,13.2C694.4,425.4,694.4,426.9,694.2,428.4z M678.7,419.9c0-2.6-0.9-4.7-2.7-6.3
			s-4-2.3-6.7-2.3c-2.6,0-4.8,0.8-6.5,2.2c-1.8,1.5-2.9,3.6-3.3,6.4H678.7z"/>
		<path class="st2" d="M711.3,448.3c-3.4-1.5-6.1-3.6-8.1-6.2c-2-2.6-3.1-5.5-3.3-8.8H715c0.2,1.7,1,3.1,2.4,4.2
			c1.4,1.1,3.2,1.6,5.3,1.6c1.9,0,3.4-0.4,4.5-1.1c1-0.7,1.6-1.7,1.6-2.9c0-1.4-0.8-2.5-2.2-3.2c-1.5-0.7-3.9-1.5-7.3-2.3
			c-3.6-0.8-6.6-1.7-9-2.7c-2.4-0.9-4.5-2.4-6.2-4.4c-1.7-2-2.6-4.7-2.6-8.1c0-2.9,0.8-5.5,2.4-7.9c1.6-2.4,3.9-4.2,7-5.6
			c3.1-1.4,6.8-2.1,11-2.1c6.3,0,11.3,1.6,14.9,4.7c3.6,3.1,5.7,7.3,6.3,12.4h-14.2c-0.2-1.7-1-3.1-2.3-4.1c-1.3-1-3-1.5-5.1-1.5
			c-1.8,0-3.2,0.3-4.1,1c-1,0.7-1.4,1.6-1.4,2.8c0,1.4,0.8,2.5,2.3,3.2c1.5,0.7,3.9,1.4,7.2,2.2c3.7,1,6.7,1.9,9.1,2.8
			c2.3,0.9,4.4,2.4,6.2,4.5c1.8,2.1,2.7,4.8,2.7,8.3c0,2.9-0.8,5.6-2.5,7.9c-1.7,2.3-4,4.1-7.1,5.4c-3.1,1.3-6.7,2-10.8,2
			C718.6,450.6,714.7,449.8,711.3,448.3z"/>
	</g>
	<g>
		<path class="st2" d="M284.5,556c-3.2,3.1-8,4.6-14.5,4.6h-10.7v23.3H252v-55.7h18c6.3,0,11.1,1.5,14.4,4.6c3.3,3,4.9,7,4.9,11.8
			C289.3,549.1,287.7,552.9,284.5,556z M278.9,552c1.9-1.8,2.9-4.3,2.9-7.5c0-6.9-3.9-10.3-11.8-10.3h-10.7v20.5H270
			C274,554.6,277,553.7,278.9,552z"/>
		<path class="st2" d="M298.3,550c1.8-3.4,4.3-6,7.5-7.9c3.2-1.9,6.7-2.8,10.6-2.8c3.8,0,7.2,0.8,10,2.5c2.8,1.7,4.9,3.7,6.3,6.2v-8
			h7.4v43.8h-7.4v-8.2c-1.4,2.6-3.6,4.7-6.4,6.4c-2.9,1.7-6.2,2.5-10,2.5c-3.9,0-7.4-1-10.6-2.9c-3.1-1.9-5.6-4.6-7.4-8.1
			c-1.8-3.5-2.7-7.4-2.7-11.8C295.6,557.3,296.5,553.4,298.3,550z M330.7,553.2c-1.3-2.5-3.1-4.3-5.4-5.6c-2.3-1.3-4.8-2-7.5-2
			s-5.2,0.6-7.4,1.9c-2.2,1.3-4,3.1-5.4,5.6c-1.3,2.5-2,5.3-2,8.6c0,3.4,0.7,6.3,2,8.8c1.3,2.5,3.1,4.4,5.4,5.7c2.2,1.3,4.7,2,7.4,2
			s5.2-0.7,7.5-2c2.3-1.3,4.1-3.2,5.4-5.7c1.3-2.5,2-5.4,2-8.7C332.7,558.6,332,555.7,330.7,553.2z"/>
		<path class="st2" d="M365.1,541.3c2.4-1.4,5.3-2.1,8.7-2.1v7.5h-1.9c-8.2,0-12.2,4.4-12.2,13.3v23.8h-7.3V540h7.3v7.1
			C360.9,544.6,362.7,542.7,365.1,541.3z"/>
		<path class="st2" d="M391.1,546v25.8c0,2.1,0.5,3.6,1.4,4.5c0.9,0.9,2.5,1.3,4.7,1.3h5.4v6.2h-6.6c-4.1,0-7.1-0.9-9.1-2.8
			c-2-1.9-3-4.9-3-9.2V546h-5.7v-6h5.7v-11h7.3v11h11.4v6H391.1z"/>
		<path class="st2" d="M411.5,531.5c-1-1-1.4-2.1-1.4-3.5c0-1.4,0.5-2.6,1.4-3.5c1-1,2.1-1.4,3.5-1.4c1.3,0,2.5,0.5,3.4,1.4
			c0.9,1,1.4,2.1,1.4,3.5c0,1.4-0.5,2.6-1.4,3.5c-0.9,1-2.1,1.4-3.4,1.4C413.7,532.9,412.5,532.4,411.5,531.5z M418.6,540v43.8h-7.3
			V540H418.6z"/>
		<path class="st2" d="M430.9,550c1.8-3.4,4.3-6,7.6-7.9c3.2-1.9,6.9-2.8,11.1-2.8c5.4,0,9.8,1.3,13.3,3.9c3.5,2.6,5.8,6.2,6.9,10.9
			H462c-0.7-2.7-2.2-4.8-4.4-6.3c-2.2-1.5-4.8-2.3-8-2.3c-4.2,0-7.5,1.4-10.1,4.3c-2.6,2.9-3.8,6.9-3.8,12.1c0,5.3,1.3,9.4,3.8,12.2
			c2.6,2.9,5.9,4.3,10.1,4.3c3.2,0,5.9-0.7,8-2.2c2.1-1.5,3.6-3.6,4.4-6.4h7.8c-1.2,4.5-3.5,8.1-7,10.8c-3.5,2.7-7.9,4-13.2,4
			c-4.2,0-7.8-0.9-11.1-2.8c-3.2-1.9-5.7-4.5-7.6-7.9c-1.8-3.4-2.7-7.4-2.7-12C428.2,557.3,429.1,553.4,430.9,550z"/>
		<path class="st2" d="M479.7,531.5c-1-1-1.4-2.1-1.4-3.5c0-1.4,0.5-2.6,1.4-3.5c1-1,2.1-1.4,3.5-1.4c1.3,0,2.5,0.5,3.4,1.4
			c0.9,1,1.4,2.1,1.4,3.5c0,1.4-0.5,2.6-1.4,3.5c-0.9,1-2.1,1.4-3.4,1.4C481.9,532.9,480.7,532.4,479.7,531.5z M486.8,540v43.8h-7.3
			V540H486.8z"/>
		<path class="st2" d="M512.9,541.8c2.9-1.7,6.2-2.5,10-2.5c3.9,0,7.4,0.9,10.6,2.8c3.2,1.9,5.7,4.5,7.5,7.9
			c1.8,3.4,2.7,7.3,2.7,11.8c0,4.4-0.9,8.4-2.7,11.8c-1.8,3.5-4.3,6.2-7.5,8.1s-6.7,2.9-10.6,2.9c-3.7,0-7-0.8-9.9-2.5
			c-2.9-1.7-5-3.8-6.5-6.3v28.9h-7.3V540h7.3v8.1C507.9,545.6,510,543.5,512.9,541.8z M534.2,553.2c-1.3-2.5-3.1-4.3-5.4-5.6
			s-4.8-1.9-7.5-1.9c-2.7,0-5.1,0.7-7.4,2c-2.3,1.3-4.1,3.2-5.4,5.7c-1.4,2.5-2,5.3-2,8.6c0,3.3,0.7,6.2,2,8.7s3.2,4.4,5.4,5.7
			c2.3,1.3,4.7,2,7.4,2c2.7,0,5.2-0.7,7.5-2c2.3-1.3,4.1-3.2,5.4-5.7c1.3-2.5,2-5.4,2-8.8C536.2,558.5,535.5,555.6,534.2,553.2z"/>
		<path class="st2" d="M553.2,550c1.8-3.4,4.3-6,7.5-7.9c3.2-1.9,6.7-2.8,10.6-2.8c3.8,0,7.2,0.8,10,2.5c2.8,1.7,4.9,3.7,6.3,6.2v-8
			h7.4v43.8h-7.4v-8.2c-1.4,2.6-3.6,4.7-6.4,6.4c-2.9,1.7-6.2,2.5-10,2.5c-3.9,0-7.4-1-10.6-2.9c-3.1-1.9-5.6-4.6-7.4-8.1
			c-1.8-3.5-2.7-7.4-2.7-11.8C550.5,557.3,551.4,553.4,553.2,550z M585.6,553.2c-1.3-2.5-3.1-4.3-5.4-5.6c-2.3-1.3-4.8-2-7.5-2
			s-5.2,0.6-7.4,1.9c-2.2,1.3-4,3.1-5.4,5.6c-1.3,2.5-2,5.3-2,8.6c0,3.4,0.7,6.3,2,8.8c1.3,2.5,3.1,4.4,5.4,5.7c2.2,1.3,4.7,2,7.4,2
			s5.2-0.7,7.5-2c2.3-1.3,4.1-3.2,5.4-5.7c1.3-2.5,2-5.4,2-8.7C587.6,558.6,586.9,555.7,585.6,553.2z"/>
		<path class="st2" d="M616.1,546v25.8c0,2.1,0.5,3.6,1.4,4.5c0.9,0.9,2.5,1.3,4.7,1.3h5.4v6.2H621c-4.1,0-7.1-0.9-9.1-2.8
			c-2-1.9-3-4.9-3-9.2V546h-5.7v-6h5.7v-11h7.3v11h11.4v6H616.1z"/>
		<path class="st2" d="M676.1,564.7h-35c0.3,4.3,1.7,7.7,4.4,10.1c2.7,2.4,6,3.6,9.8,3.6c3.1,0,5.8-0.7,7.9-2.2
			c2.1-1.5,3.6-3.4,4.4-5.9h7.8c-1.2,4.2-3.5,7.6-7,10.3s-7.9,4-13.1,4c-4.2,0-7.9-0.9-11.2-2.8c-3.3-1.9-5.9-4.5-7.7-8
			c-1.9-3.4-2.8-7.4-2.8-12c0-4.5,0.9-8.5,2.7-11.9c1.8-3.4,4.4-6,7.6-7.9c3.3-1.8,7-2.8,11.3-2.8c4.2,0,7.8,0.9,11,2.7
			s5.7,4.3,7.4,7.5c1.7,3.2,2.6,6.8,2.6,10.8C676.3,561.7,676.3,563.1,676.1,564.7z M667,551.6c-1.2-2-2.9-3.5-5-4.6
			c-2.1-1-4.4-1.6-7-1.6c-3.7,0-6.8,1.2-9.4,3.5c-2.6,2.3-4.1,5.6-4.4,9.8h27.7C668.8,556,668.2,553.6,667,551.6z"/>
		<path class="st2" d="M707.5,531.5c-1-1-1.4-2.1-1.4-3.5c0-1.4,0.5-2.6,1.4-3.5c1-1,2.1-1.4,3.5-1.4c1.3,0,2.5,0.5,3.4,1.4
			c0.9,1,1.4,2.1,1.4,3.5c0,1.4-0.5,2.6-1.4,3.5c-0.9,1-2.1,1.4-3.4,1.4C709.7,532.9,708.5,532.4,707.5,531.5z M714.6,540v43.8h-7.3
			V540H714.6z"/>
		<path class="st2" d="M761.3,544.1c3.3,3.2,5,7.9,5,14v25.8H759v-24.8c0-4.4-1.1-7.7-3.3-10c-2.2-2.3-5.2-3.5-9-3.5
			c-3.8,0-6.9,1.2-9.2,3.6c-2.3,2.4-3.4,5.9-3.4,10.5v24.2H727V540h7.3v6.2c1.4-2.2,3.4-4,5.9-5.2c2.5-1.2,5.2-1.8,8.2-1.8
			C753.6,539.2,758,540.9,761.3,544.1z"/>
		<path class="st2" d="M799.5,550c1.8-3.4,4.3-6,7.5-7.9c3.2-1.9,6.7-2.8,10.6-2.8c3.8,0,7.2,0.8,10,2.5c2.8,1.7,4.9,3.7,6.3,6.2v-8
			h7.4v43.8h-7.4v-8.2c-1.4,2.6-3.6,4.7-6.4,6.4c-2.9,1.7-6.2,2.5-10,2.5c-3.9,0-7.4-1-10.6-2.9c-3.1-1.9-5.6-4.6-7.4-8.1
			c-1.8-3.5-2.7-7.4-2.7-11.8C796.8,557.3,797.7,553.4,799.5,550z M831.9,553.2c-1.3-2.5-3.1-4.3-5.4-5.6c-2.3-1.3-4.8-2-7.5-2
			s-5.2,0.6-7.4,1.9c-2.2,1.3-4,3.1-5.4,5.6c-1.3,2.5-2,5.3-2,8.6c0,3.4,0.7,6.3,2,8.8c1.3,2.5,3.1,4.4,5.4,5.7c2.2,1.3,4.7,2,7.4,2
			s5.2-0.7,7.5-2c2.3-1.3,4.1-3.2,5.4-5.7c1.3-2.5,2-5.4,2-8.7C833.9,558.6,833.2,555.7,831.9,553.2z"/>
		<path class="st2" d="M258.5,678.8c-2.7-1.1-4.8-2.7-6.3-4.8c-1.5-2.1-2.4-4.4-2.6-7.1h7.5c0.2,2.2,1.2,4,3.1,5.4
			c1.8,1.4,4.2,2.1,7.2,2.1c2.8,0,5-0.6,6.6-1.8c1.6-1.2,2.4-2.8,2.4-4.6c0-1.9-0.9-3.3-2.6-4.3c-1.7-0.9-4.3-1.9-7.9-2.8
			c-3.3-0.9-5.9-1.7-8-2.6c-2.1-0.9-3.8-2.2-5.3-3.9c-1.5-1.7-2.2-4-2.2-6.8c0-2.2,0.7-4.3,2-6.2c1.3-1.9,3.2-3.3,5.7-4.4
			c2.5-1.1,5.2-1.6,8.4-1.6c4.9,0,8.8,1.2,11.8,3.7c3,2.5,4.6,5.8,4.8,10.1h-7.3c-0.2-2.3-1.1-4.1-2.8-5.5c-1.7-1.4-3.9-2.1-6.8-2.1
			c-2.6,0-4.7,0.6-6.2,1.7c-1.5,1.1-2.3,2.6-2.3,4.4c0,1.4,0.5,2.6,1.4,3.6c0.9,0.9,2.1,1.7,3.5,2.2c1.4,0.6,3.4,1.2,5.9,1.9
			c3.1,0.9,5.7,1.7,7.7,2.5c2,0.8,3.7,2.1,5.1,3.7c1.4,1.7,2.1,3.8,2.2,6.5c0,2.4-0.7,4.6-2,6.5c-1.3,1.9-3.2,3.4-5.6,4.5
			c-2.4,1.1-5.2,1.6-8.4,1.6C264.2,680.5,261.1,680,258.5,678.8z"/>
		<path class="st2" d="M324.4,637.3c2.7,1.4,4.8,3.5,6.3,6.4c1.5,2.8,2.3,6.3,2.3,10.3v25.8h-7.2V655c0-4.4-1.1-7.7-3.3-10
			c-2.2-2.3-5.2-3.5-9-3.5c-3.8,0-6.9,1.2-9.2,3.6c-2.3,2.4-3.4,5.9-3.4,10.5v24.2h-7.3v-59.2h7.3v21.6c1.4-2.2,3.4-4,6-5.2
			c2.5-1.2,5.4-1.8,8.5-1.8C318.8,635.2,321.8,635.9,324.4,637.3z"/>
		<path class="st2" d="M352.9,677.7c-3.3-1.9-5.9-4.5-7.8-8c-1.9-3.4-2.8-7.4-2.8-12c0-4.5,1-8.4,2.9-11.9c1.9-3.4,4.6-6.1,8-7.9
			c3.4-1.8,7.1-2.8,11.3-2.8c4.2,0,7.9,0.9,11.3,2.8c3.4,1.8,6,4.5,8,7.9c1.9,3.4,2.9,7.4,2.9,11.9c0,4.5-1,8.5-3,12s-4.7,6.1-8.1,8
			c-3.4,1.9-7.2,2.8-11.4,2.8C359.9,680.5,356.2,679.6,352.9,677.7z M371.4,672.3c2.3-1.2,4.1-3.1,5.6-5.5c1.4-2.5,2.1-5.4,2.1-9
			s-0.7-6.5-2.1-9c-1.4-2.5-3.2-4.3-5.4-5.5c-2.2-1.2-4.7-1.8-7.3-1.8c-2.7,0-5.1,0.6-7.3,1.8c-2.2,1.2-4,3-5.3,5.5
			c-1.3,2.5-2,5.4-2,9c0,3.6,0.7,6.6,2,9c1.3,2.5,3.1,4.3,5.2,5.5c2.2,1.2,4.6,1.8,7.2,1.8C366.6,674.1,369.1,673.5,371.4,672.3z"/>
		<path class="st2" d="M454.5,636l-13.7,43.8h-7.5L422.7,645l-10.6,34.8h-7.5L390.9,636h7.4l10.1,36.8l10.9-36.8h7.4l10.6,36.9
			l9.9-36.9H454.5z"/>
		<path class="st2" d="M461.7,645.9c1.8-3.4,4.3-6,7.6-7.9c3.2-1.9,6.9-2.8,11.1-2.8c5.4,0,9.8,1.3,13.3,3.9
			c3.5,2.6,5.8,6.2,6.9,10.9h-7.8c-0.7-2.7-2.2-4.8-4.4-6.3c-2.2-1.5-4.8-2.3-8-2.3c-4.2,0-7.5,1.4-10.1,4.3
			c-2.6,2.9-3.8,6.9-3.8,12.1c0,5.3,1.3,9.4,3.8,12.2c2.6,2.9,5.9,4.3,10.1,4.3c3.2,0,5.9-0.7,8-2.2c2.1-1.5,3.6-3.6,4.4-6.4h7.8
			c-1.2,4.5-3.5,8.1-7,10.8c-3.5,2.7-7.9,4-13.2,4c-4.2,0-7.8-0.9-11.1-2.8c-3.2-1.9-5.7-4.5-7.6-7.9c-1.8-3.4-2.7-7.4-2.7-12
			C458.9,653.3,459.8,649.3,461.7,645.9z"/>
		<path class="st2" d="M510.2,645.9c1.8-3.4,4.3-6,7.5-7.9c3.2-1.9,6.7-2.8,10.6-2.8c3.8,0,7.2,0.8,10,2.5c2.8,1.7,4.9,3.7,6.3,6.2
			v-8h7.4v43.8h-7.4v-8.2c-1.4,2.6-3.6,4.7-6.4,6.4c-2.9,1.7-6.2,2.5-10,2.5c-3.9,0-7.4-1-10.6-2.9c-3.1-1.9-5.6-4.6-7.4-8.1
			c-1.8-3.5-2.7-7.4-2.7-11.8C507.5,653.3,508.4,649.3,510.2,645.9z M542.6,649.2c-1.3-2.5-3.1-4.3-5.4-5.6c-2.3-1.3-4.8-2-7.5-2
			s-5.2,0.6-7.4,1.9c-2.2,1.3-4,3.1-5.4,5.6c-1.3,2.5-2,5.3-2,8.6c0,3.4,0.7,6.3,2,8.8c1.3,2.5,3.1,4.4,5.4,5.7c2.2,1.3,4.7,2,7.4,2
			s5.2-0.7,7.5-2c2.3-1.3,4.1-3.2,5.4-5.7c1.3-2.5,2-5.4,2-8.7C544.6,654.5,543.9,651.6,542.6,649.2z"/>
		<path class="st2" d="M570.7,678.8c-2.7-1.1-4.8-2.7-6.3-4.8c-1.5-2.1-2.4-4.4-2.6-7.1h7.5c0.2,2.2,1.2,4,3.1,5.4
			c1.8,1.4,4.2,2.1,7.2,2.1c2.8,0,5-0.6,6.6-1.8c1.6-1.2,2.4-2.8,2.4-4.6c0-1.9-0.9-3.3-2.6-4.3c-1.7-0.9-4.3-1.9-7.9-2.8
			c-3.3-0.9-5.9-1.7-8-2.6c-2.1-0.9-3.8-2.2-5.3-3.9c-1.5-1.7-2.2-4-2.2-6.8c0-2.2,0.7-4.3,2-6.2c1.3-1.9,3.2-3.3,5.7-4.4
			c2.5-1.1,5.2-1.6,8.4-1.6c4.9,0,8.8,1.2,11.8,3.7c3,2.5,4.6,5.8,4.8,10.1h-7.3c-0.2-2.3-1.1-4.1-2.8-5.5c-1.7-1.4-3.9-2.1-6.8-2.1
			c-2.6,0-4.7,0.6-6.2,1.7c-1.5,1.1-2.3,2.6-2.3,4.4c0,1.4,0.5,2.6,1.4,3.6c0.9,0.9,2.1,1.7,3.5,2.2c1.4,0.6,3.4,1.2,5.9,1.9
			c3.1,0.9,5.7,1.7,7.7,2.5c2,0.8,3.7,2.1,5.1,3.7c1.4,1.7,2.1,3.8,2.2,6.5c0,2.4-0.7,4.6-2,6.5c-1.3,1.9-3.2,3.4-5.6,4.5
			c-2.4,1.1-5.2,1.6-8.4,1.6C576.4,680.5,573.4,680,570.7,678.8z"/>
		<path class="st2" d="M645.7,660.6h-35c0.3,4.3,1.7,7.7,4.4,10.1c2.7,2.4,6,3.6,9.8,3.6c3.1,0,5.8-0.7,7.9-2.2
			c2.1-1.5,3.6-3.4,4.4-5.9h7.8c-1.2,4.2-3.5,7.6-7,10.3s-7.9,4-13.1,4c-4.2,0-7.9-0.9-11.2-2.8c-3.3-1.9-5.9-4.5-7.7-8
			c-1.9-3.4-2.8-7.4-2.8-12c0-4.5,0.9-8.5,2.7-11.9c1.8-3.4,4.4-6,7.6-7.9c3.3-1.8,7-2.8,11.3-2.8c4.2,0,7.8,0.9,11,2.7
			s5.7,4.3,7.4,7.5c1.7,3.2,2.6,6.8,2.6,10.8C646,657.6,645.9,659.1,645.7,660.6z M636.6,647.5c-1.2-2-2.9-3.5-5-4.6
			c-2.1-1-4.4-1.6-7-1.6c-3.7,0-6.8,1.2-9.4,3.5c-2.6,2.3-4.1,5.6-4.4,9.8h27.7C638.4,651.9,637.8,649.5,636.6,647.5z"/>
		<path class="st2" d="M684.9,677.7c-3.3-1.9-5.9-4.5-7.8-8c-1.9-3.4-2.8-7.4-2.8-12c0-4.5,1-8.4,2.9-11.9c1.9-3.4,4.6-6.1,8-7.9
			c3.4-1.8,7.1-2.8,11.3-2.8c4.2,0,7.9,0.9,11.3,2.8c3.4,1.8,6,4.5,8,7.9c1.9,3.4,2.9,7.4,2.9,11.9c0,4.5-1,8.5-3,12s-4.7,6.1-8.1,8
			c-3.4,1.9-7.2,2.8-11.4,2.8C691.9,680.5,688.2,679.6,684.9,677.7z M703.4,672.3c2.3-1.2,4.1-3.1,5.6-5.5c1.4-2.5,2.1-5.4,2.1-9
			s-0.7-6.5-2.1-9c-1.4-2.5-3.2-4.3-5.4-5.5c-2.2-1.2-4.7-1.8-7.3-1.8c-2.7,0-5.1,0.6-7.3,1.8c-2.2,1.2-4,3-5.3,5.5
			c-1.3,2.5-2,5.4-2,9c0,3.6,0.7,6.6,2,9c1.3,2.5,3.1,4.3,5.2,5.5c2.2,1.2,4.6,1.8,7.2,1.8C698.6,674.1,701.1,673.5,703.4,672.3z"/>
		<path class="st2" d="M740.8,637.3c2.4-1.4,5.3-2.1,8.7-2.1v7.5h-1.9c-8.2,0-12.2,4.4-12.2,13.3v23.8h-7.3V636h7.3v7.1
			C736.6,640.6,738.5,638.7,740.8,637.3z"/>
		<path class="st2" d="M252,741.9c1.8-3.4,4.3-6,7.6-7.9c3.2-1.9,6.9-2.8,11.1-2.8c5.4,0,9.8,1.3,13.3,3.9c3.5,2.6,5.8,6.2,6.9,10.9
			H283c-0.7-2.7-2.2-4.8-4.4-6.3c-2.2-1.5-4.8-2.3-8-2.3c-4.2,0-7.5,1.4-10.1,4.3c-2.6,2.9-3.8,6.9-3.8,12.1c0,5.3,1.3,9.4,3.8,12.2
			c2.6,2.9,5.9,4.3,10.1,4.3c3.2,0,5.9-0.7,8-2.2c2.1-1.5,3.6-3.6,4.4-6.4h7.8c-1.2,4.5-3.5,8.1-7,10.8c-3.5,2.7-7.9,4-13.2,4
			c-4.2,0-7.8-0.9-11.1-2.8c-3.2-1.9-5.7-4.5-7.6-7.9c-1.8-3.4-2.7-7.4-2.7-12C249.3,749.2,250.2,745.3,252,741.9z"/>
		<path class="st2" d="M331.2,733.3c2.7,1.4,4.8,3.5,6.3,6.4c1.5,2.8,2.3,6.3,2.3,10.3v25.8h-7.2V751c0-4.4-1.1-7.7-3.3-10
			c-2.2-2.3-5.2-3.5-9-3.5c-3.8,0-6.9,1.2-9.2,3.6c-2.3,2.4-3.4,5.9-3.4,10.5v24.2h-7.3v-59.2h7.3v21.6c1.4-2.2,3.4-4,6-5.2
			c2.5-1.2,5.4-1.8,8.5-1.8C325.6,731.1,328.6,731.9,331.2,733.3z"/>
		<path class="st2" d="M351.7,741.9c1.8-3.4,4.3-6,7.5-7.9c3.2-1.9,6.7-2.8,10.6-2.8c3.8,0,7.2,0.8,10,2.5c2.8,1.7,4.9,3.7,6.3,6.2
			v-8h7.4v43.8h-7.4v-8.2c-1.4,2.6-3.6,4.7-6.4,6.4c-2.9,1.7-6.2,2.5-10,2.5c-3.9,0-7.4-1-10.6-2.9c-3.1-1.9-5.6-4.6-7.4-8.1
			c-1.8-3.5-2.7-7.4-2.7-11.8C349,749.2,349.9,745.3,351.7,741.9z M384.1,745.1c-1.3-2.5-3.1-4.3-5.4-5.6c-2.3-1.3-4.8-2-7.5-2
			s-5.2,0.6-7.4,1.9c-2.2,1.3-4,3.1-5.4,5.6c-1.3,2.5-2,5.3-2,8.6c0,3.4,0.7,6.3,2,8.8c1.3,2.5,3.1,4.4,5.4,5.7c2.2,1.3,4.7,2,7.4,2
			s5.2-0.7,7.5-2c2.3-1.3,4.1-3.2,5.4-5.7c1.3-2.5,2-5.4,2-8.7C386.1,750.5,385.4,747.6,384.1,745.1z"/>
		<path class="st2" d="M413,716.6v59.2h-7.3v-59.2H413z"/>
		<path class="st2" d="M432.7,716.6v59.2h-7.3v-59.2H432.7z"/>
		<path class="st2" d="M484.8,756.6h-35c0.3,4.3,1.7,7.7,4.4,10.1c2.7,2.4,6,3.6,9.8,3.6c3.1,0,5.8-0.7,7.9-2.2
			c2.1-1.5,3.6-3.4,4.4-5.9h7.8c-1.2,4.2-3.5,7.6-7,10.3s-7.9,4-13.1,4c-4.2,0-7.9-0.9-11.2-2.8c-3.3-1.9-5.9-4.5-7.7-8
			c-1.9-3.4-2.8-7.4-2.8-12c0-4.5,0.9-8.5,2.7-11.9c1.8-3.4,4.4-6,7.6-7.9c3.3-1.8,7-2.8,11.3-2.8c4.2,0,7.8,0.9,11,2.7
			s5.7,4.3,7.4,7.5c1.7,3.2,2.6,6.8,2.6,10.8C485.1,753.6,485,755,484.8,756.6z M475.7,743.5c-1.2-2-2.9-3.5-5-4.6
			c-2.1-1-4.4-1.6-7-1.6c-3.7,0-6.8,1.2-9.4,3.5c-2.6,2.3-4.1,5.6-4.4,9.8h27.7C477.6,747.9,477,745.5,475.7,743.5z"/>
		<path class="st2" d="M529,736c3.3,3.2,5,7.9,5,14v25.8h-7.2V751c0-4.4-1.1-7.7-3.3-10c-2.2-2.3-5.2-3.5-9-3.5
			c-3.8,0-6.9,1.2-9.2,3.6c-2.3,2.4-3.4,5.9-3.4,10.5v24.2h-7.3v-43.8h7.3v6.2c1.4-2.2,3.4-4,5.9-5.2c2.5-1.2,5.2-1.8,8.2-1.8
			C521.4,731.1,525.7,732.8,529,736z"/>
		<path class="st2" d="M573.9,733.7c2.9,1.7,5,3.7,6.4,6.2v-8h7.4v44.8c0,4-0.9,7.6-2.6,10.7c-1.7,3.1-4.1,5.6-7.3,7.3
			c-3.2,1.8-6.9,2.6-11.1,2.6c-5.8,0-10.6-1.4-14.4-4.1s-6.1-6.4-6.8-11.1h7.2c0.8,2.7,2.5,4.8,5,6.4c2.5,1.6,5.5,2.4,9,2.4
			c4,0,7.3-1.3,9.8-3.8c2.5-2.5,3.8-6,3.8-10.6v-9.2c-1.4,2.6-3.6,4.7-6.4,6.4c-2.8,1.7-6.1,2.6-9.9,2.6c-3.9,0-7.4-1-10.6-2.9
			c-3.2-1.9-5.7-4.6-7.5-8.1c-1.8-3.5-2.7-7.4-2.7-11.8c0-4.5,0.9-8.4,2.7-11.8c1.8-3.4,4.3-6,7.5-7.9c3.2-1.9,6.7-2.8,10.6-2.8
			C567.7,731.2,571,732.1,573.9,733.7z M578.2,745.1c-1.3-2.5-3.1-4.3-5.4-5.6c-2.3-1.3-4.8-2-7.5-2s-5.2,0.6-7.4,1.9
			c-2.2,1.3-4,3.1-5.4,5.6c-1.3,2.5-2,5.3-2,8.6c0,3.4,0.7,6.3,2,8.8c1.3,2.5,3.1,4.4,5.4,5.7c2.2,1.3,4.7,2,7.4,2s5.2-0.7,7.5-2
			c2.3-1.3,4.1-3.2,5.4-5.7c1.3-2.5,2-5.4,2-8.7C580.2,750.5,579.6,747.6,578.2,745.1z"/>
		<path class="st2" d="M639.6,756.6h-35c0.3,4.3,1.7,7.7,4.4,10.1c2.7,2.4,6,3.6,9.8,3.6c3.1,0,5.8-0.7,7.9-2.2
			c2.1-1.5,3.6-3.4,4.4-5.9h7.8c-1.2,4.2-3.5,7.6-7,10.3s-7.9,4-13.1,4c-4.2,0-7.9-0.9-11.2-2.8c-3.3-1.9-5.9-4.5-7.7-8
			c-1.9-3.4-2.8-7.4-2.8-12c0-4.5,0.9-8.5,2.7-11.9c1.8-3.4,4.4-6,7.6-7.9c3.3-1.8,7-2.8,11.3-2.8c4.2,0,7.8,0.9,11,2.7
			s5.7,4.3,7.4,7.5c1.7,3.2,2.6,6.8,2.6,10.8C639.9,753.6,639.8,755,639.6,756.6z M630.5,743.5c-1.2-2-2.9-3.5-5-4.6
			c-2.1-1-4.4-1.6-7-1.6c-3.7,0-6.8,1.2-9.4,3.5c-2.6,2.3-4.1,5.6-4.4,9.8h27.7C632.4,747.9,631.8,745.5,630.5,743.5z"/>
	</g>
	<g>
		<path class="st3" d="M857.8,233.6c-5.6,1.2-11.5,1.8-17.5,1.7c-38.7-0.5-70.4-29.3-75.8-66.5l-0.1-21.2
			c5-38.6,38.2-68.1,78.1-67.6c5.2,0.1,10.4,0.7,15.3,1.7l-12.5,20.4v112.4L857.8,233.6z"/>
		<path class="st4" d="M927.8,202.4c-12.4,0.8-24.3,5.3-34.2,12.7l-6.7,5.4l-73.6,61c-7.2,6-14.9,11.3-22.9,16l-19.6,9.8
			c-16,6.8-33,11.1-50.4,12.8l-6.7,4.3l0.9,11.2l9.9,5.9h203.4c2.2,0,4-1.8,4-4V206.5C932.1,204.1,930.2,202.3,927.8,202.4
			L927.8,202.4z"/>
		<circle class="st5" cx="713.1" cy="121.7" r="19.5"/>
		<path class="st6" d="M724.7,165.2L702.5,154l-2.2,2c0.1,2.1-0.5-11.5,2.1,52.1l6.2,9.1h13.7l5.5-7.8l0.1-35.9L724.7,165.2z"/>
		<path class="st7" d="M781.9,290.9c-1.8-0.1-3.7-0.5-5.5-1c-1.4-0.4-2.5-1.6-2.8-3l-0.3-1.4l-4.9-5.4l-8.9,0.7l-4.5,7l1.9,9.7
			c0.5,2.8,2.3,5.1,4.8,6.4c1,0.5,10.1,5.1,19.5,5.4c5.1,0.2,9.3-3.8,9.5-8.9C791,295.3,787,291,781.9,290.9L781.9,290.9z"/>
		<path class="st8" d="M722.9,226.5l-14.6-7.2l-5.3,1l-2.1,29.8l4.5,7.7l5.8,4.1l8.3-4.1l5.2-24.6L722.9,226.5z"/>
		<path class="st9" d="M773.4,285.5l-10-51.3c-0.5-2.8-2.4-5.2-4.9-6.5l-28.6-14.9c-1.3-0.7-2.1-2-2.1-3.4
			c-15,2.5-25.5-1.3-25.5-1.3l0.4,10.3c0.2,3.2,2.1,6.2,5.1,7.7l36.3,15.1c1.3,0.5,2.2,1.7,2.5,3l8.4,43.4
			C762.7,288.2,770.1,286.4,773.4,285.5L773.4,285.5z"/>
		<path class="st10" d="M857.8,81.8c-35.4,7.6-61.8,39.4-61.3,77c0.5,36.7,26.5,67.4,61.3,74.8l0,0c10.7-2.3,20.6-6.8,29.1-13
			l6.7-5.4c15.4-14,25.1-34,25.4-56.4C919.6,121.1,893.2,89.4,857.8,81.8L857.8,81.8z"/>
		<g>
			<path class="st11" d="M841.7,181.5c-4.6,0-8.4-3.7-8.4-8.4v-13.9c0-4.6,3.7-8.4,8.4-8.4c6.7,0,12.1-5.4,12.1-12.1
				c0-6.7-5.4-12.1-12.1-12.1c-6.7,0-12.1,5.4-12.1,12.1c0,4.6-3.7,8.4-8.4,8.4c-4.6,0-8.4-3.7-8.4-8.4c0-15.9,13-28.9,28.9-28.9
				s28.9,13,28.9,28.9c0,13-8.7,24-20.5,27.6v6.8C850.1,177.8,846.3,181.5,841.7,181.5L841.7,181.5z"/>
		</g>
		<g>
			<path class="st11" d="M841.7,205.5c-4.6,0-8.4-3.7-8.4-8.4c0-4.6,3.7-8.4,8.4-8.4c4.6,0,8.4,3.7,8.4,8.4v0
				C850.1,201.8,846.3,205.5,841.7,205.5L841.7,205.5z"/>
		</g>
		<path class="st12" d="M701,250.1l-0.6,8.4l-21.6,26.1v7.3l6.3,5.6l8.4-1.9l22.9-27.8c1.2-1.5,2-3.3,2.1-5.2l1-4.9L701,250.1z"/>
		<path class="st7" d="M691.8,297.8l1.7-2.1c-6.2-2.2-12.1-8.1-14.7-11.1l-6.1,7.4c-1.6,2-2.4,4.5-2,7c0.7,5.6,4.9,16.4,16.1,21.2
			c1.8,0.8,3.7,0.9,5.5,0.6c3.8-0.8,7.1-4,7.4-8.7c0.2-3.8-2.2-7.2-5.7-8.8c-0.7-0.3-1.2-0.6-1.7-1
			C690.9,301.2,690.7,299.2,691.8,297.8L691.8,297.8z"/>
		<path class="st13" d="M770,157.7l-4.1-7.1h-6.6l-14.4,8.4c-1.2,0.7-2.7,0.8-3.9,0.2l-28-11.9c-4.6-2-10,0.1-12,4.7
			c-2.1,4.7,0.3,10.3,5,12.3l34,14.5c2.7,1.1,5.7,0.9,8.2-0.5l20.4-11.8L770,157.7z"/>
		<path class="st5" d="M759.4,150.6l9.3,15.9l8-4.7c4.4-2.6,5.9-8.2,3.3-12.6c-2.6-4.4-8.2-5.9-12.6-3.3L759.4,150.6z"/>
		<g>
			<path class="st14" d="M719.6,326.8c0-2.3,0.3-4.5,0.9-6.6c-5.4,0.5-10.9,0.8-16.4,0.8h-29.5c-2.2,0-4,1.8-4,4v12.5
				c0,2.2,1.8,4,4,4h50.1C721.5,337.6,719.6,332.4,719.6,326.8z"/>
		</g>
	</g>
</g>
</svg>
