<?xml version="1.0" encoding="utf-8"?>
<!-- Generator: Adobe Illustrator 26.0.1, SVG Export Plug-In . SVG Version: 6.00 Build 0)  -->
<svg version="1.1" id="Layer_1" xmlns="http://www.w3.org/2000/svg" xmlns:xlink="http://www.w3.org/1999/xlink" x="0px" y="0px"
	 viewBox="0 0 826.2 830.35" style="enable-background:new 0 0 826.2 830.35;" xml:space="preserve">
<style type="text/css">
	.st0{fill:#662D91;}
	.st1{fill:#54257C;}
	.st2{fill:#FFFFFF;}
	.st3{fill:#E93234;}
	.st4{fill:#F9F1EF;}
	.st5{fill:#B32425;}
	.st6{fill:#FFD039;}
	.st7{fill:#F4B008;}
	.st8{fill:#546F7A;}
	.st9{fill:#FFAE47;}
	.st10{fill:#00B76C;}
</style>
<g>
	<path class="st0" d="M817.6,84.21v693.4c0,20.8-16.8,37.5-37.5,37.5h-734c-20.8,0-37.5-16.8-37.5-37.5V84.21
		c0-20.7,16.8-37.5,37.5-37.5H780C800.8,46.61,817.6,63.41,817.6,84.21z"/>
	<path class="st1" d="M817.6,541.51v236c0,20.8-16.8,37.5-37.5,37.5h-734c-20.8,0-37.5-16.8-37.5-37.5v-483.2
		C173.9,542.81,453.4,801.31,817.6,541.51z"/>
	<g>
		<path class="st2" d="M136.7,237.01h-15.4l-25.7-39v39H80.2v-63.1h15.4l25.7,39.1v-39.1h15.4V237.01z"/>
		<path class="st2" d="M194.9,215.61h-34.8c0.2,3.1,1.2,5.5,3,7.2c1.8,1.6,3.9,2.5,6.5,2.5c3.8,0,6.5-1.6,8-4.9H194
			c-0.8,3.3-2.4,6.3-4.5,8.9c-2.2,2.6-4.9,4.7-8.2,6.2c-3.3,1.5-7,2.2-11.1,2.2c-4.9,0-9.3-1-13.1-3.1s-6.8-5.1-9-9
			s-3.2-8.5-3.2-13.7s1.1-9.8,3.2-13.7c2.1-3.9,5.1-6.9,9-9c3.8-2.1,8.2-3.1,13.2-3.1c4.9,0,9.2,1,13,3.1c3.8,2,6.7,4.9,8.9,8.7
			c2.1,3.8,3.2,8.2,3.2,13.2C195.2,212.51,195.1,214.01,194.9,215.61z M179.4,207.11c0-2.6-0.9-4.7-2.7-6.3s-4-2.3-6.7-2.3
			c-2.6,0-4.8,0.8-6.5,2.2c-1.8,1.5-2.9,3.6-3.3,6.4L179.4,207.11L179.4,207.11z"/>
		<path class="st2" d="M232.9,237.01l-9.6-13.9l-8.1,13.9h-16.6l16.6-25.6l-17-24.6h17.3l9.6,13.9l8.1-13.9h16.6l-16.8,25.3
			l17.3,24.9H232.9z"/>
		<path class="st2" d="M284.1,224.01v13h-7.8c-5.6,0-9.9-1.4-13-4.1c-3.1-2.7-4.7-7.2-4.7-13.4v-20h-6.1v-12.8h6.1v-12.2H274v12.2
			h10v12.8h-10v20.2c0,1.5,0.4,2.6,1.1,3.2c0.7,0.7,1.9,1,3.6,1h5.4V224.01z"/>
		<path class="st2" d="M121.3,285.81c5,2.6,8.8,6.3,11.6,11.1c2.7,4.8,4.1,10.3,4.1,16.5s-1.4,11.7-4.1,16.5
			c-2.7,4.8-6.6,8.5-11.6,11.2c-5,2.6-10.8,4-17.4,4H80.2v-63.1h23.7C110.5,281.81,116.3,283.11,121.3,285.81z M116.4,326.91
			c3.2-3.2,4.9-7.7,4.9-13.5s-1.6-10.3-4.9-13.6c-3.2-3.2-7.8-4.9-13.6-4.9h-7.3v36.7h7.3C108.7,331.61,113.2,330.11,116.4,326.91z"
			/>
		<path class="st2" d="M192.6,323.51h-34.8c0.2,3.1,1.2,5.5,3,7.2c1.8,1.6,3.9,2.5,6.5,2.5c3.8,0,6.5-1.6,8-4.9h16.4
			c-0.8,3.3-2.4,6.3-4.5,8.9c-2.2,2.6-4.9,4.7-8.2,6.2s-7,2.2-11.1,2.2c-4.9,0-9.3-1-13.1-3.1s-6.8-5.1-9-9s-3.2-8.5-3.2-13.7
			s1.1-9.8,3.2-13.7c2.1-3.9,5.1-6.9,9-9c3.8-2.1,8.2-3.1,13.2-3.1c4.9,0,9.2,1,13,3.1c3.8,2,6.7,4.9,8.9,8.7
			c2.1,3.8,3.2,8.2,3.2,13.2C192.9,320.51,192.8,322.01,192.6,323.51z M177.2,315.01c0-2.6-0.9-4.7-2.7-6.3s-4-2.3-6.7-2.3
			c-2.6,0-4.8,0.8-6.5,2.2c-1.8,1.5-2.9,3.6-3.3,6.4L177.2,315.01L177.2,315.01z"/>
		<path class="st2" d="M209.7,343.41c-3.4-1.5-6.1-3.6-8.1-6.2s-3.1-5.5-3.3-8.8h15.2c0.2,1.7,1,3.1,2.4,4.2s3.2,1.6,5.3,1.6
			c1.9,0,3.4-0.4,4.5-1.1c1-0.7,1.6-1.7,1.6-2.9c0-1.4-0.8-2.5-2.2-3.2c-1.5-0.7-3.9-1.5-7.3-2.3c-3.6-0.8-6.6-1.7-9-2.7
			c-2.4-0.9-4.5-2.4-6.2-4.4s-2.6-4.7-2.6-8.1c0-2.9,0.8-5.5,2.4-7.9c1.6-2.4,3.9-4.2,7-5.6s6.8-2.1,11-2.1c6.3,0,11.3,1.6,14.9,4.7
			c3.6,3.1,5.7,7.3,6.3,12.4h-14.2c-0.2-1.7-1-3.1-2.3-4.1s-3-1.5-5.1-1.5c-1.8,0-3.2,0.3-4.1,1c-1,0.7-1.4,1.6-1.4,2.8
			c0,1.4,0.8,2.5,2.3,3.2s3.9,1.4,7.2,2.2c3.7,1,6.7,1.9,9.1,2.8c2.3,0.9,4.4,2.4,6.2,4.5s2.7,4.8,2.7,8.3c0,2.9-0.8,5.6-2.5,7.9
			s-4,4.1-7.1,5.4s-6.7,2-10.8,2C217,345.71,213.1,344.91,209.7,343.41z"/>
		<path class="st2" d="M279.2,331.91v13h-7.8c-5.6,0-9.9-1.4-13-4.1c-3.1-2.7-4.7-7.2-4.7-13.4v-20h-6.1v-12.8h6.1v-12.2H269v12.2
			h10.1v12.8H269v20.2c0,1.5,0.4,2.6,1.1,3.2c0.7,0.7,1.9,1,3.6,1h5.5V331.91z"/>
		<path class="st2" d="M288.8,287.21c-1.7-1.6-2.6-3.6-2.6-5.9c0-2.4,0.9-4.4,2.6-6s3.9-2.4,6.6-2.4c2.6,0,4.8,0.8,6.5,2.4
			s2.6,3.6,2.6,6c0,2.3-0.9,4.3-2.6,5.9s-3.9,2.4-6.5,2.4C292.8,289.51,290.6,288.71,288.8,287.21z M303.1,294.81v50.2h-15.4v-50.2
			H303.1z"/>
		<path class="st2" d="M358.9,299.91c3.5,3.8,5.3,9,5.3,15.7v29.3h-15.3v-27.3c0-3.4-0.9-6-2.6-7.8c-1.7-1.9-4.1-2.8-7-2.8
			s-5.3,0.9-7,2.8s-2.6,4.5-2.6,7.8v27.3h-15.4v-50.2h15.4v6.7c1.6-2.2,3.7-4,6.3-5.3c2.6-1.3,5.6-1.9,8.9-1.9
			C350.7,294.21,355.4,296.11,358.9,299.91z"/>
		<path class="st2" d="M374.7,306.21c1.9-3.9,4.6-6.9,8-9s7.1-3.1,11.2-3.1c3.5,0,6.6,0.7,9.3,2.2c2.7,1.4,4.7,3.3,6.2,5.7v-7.1
			h15.4v50.2h-15.4v-7.1c-1.5,2.3-3.6,4.2-6.3,5.7c-2.7,1.4-5.8,2.2-9.3,2.2c-4.1,0-7.8-1.1-11.2-3.2c-3.4-2.1-6-5.2-8-9.1
			c-1.9-3.9-2.9-8.5-2.9-13.6C371.8,314.61,372.8,310.11,374.7,306.21z M406.2,310.81c-2.1-2.2-4.7-3.3-7.8-3.3s-5.7,1.1-7.8,3.3
			c-2.1,2.2-3.2,5.2-3.2,9s1.1,6.9,3.2,9.1s4.7,3.4,7.8,3.4s5.7-1.1,7.8-3.3c2.1-2.2,3.2-5.2,3.2-9.1
			C409.4,316.01,408.4,313.01,406.2,310.81z"/>
		<path class="st2" d="M463.9,331.91v13h-7.8c-5.6,0-9.9-1.4-13-4.1s-4.7-7.2-4.7-13.4v-20h-6.1v-12.8h6.1v-12.2h15.4v12.2h10.1
			v12.8h-10.1v20.2c0,1.5,0.4,2.6,1.1,3.2c0.7,0.7,1.9,1,3.6,1h5.4V331.91z"/>
		<path class="st2" d="M473.6,287.21c-1.7-1.6-2.6-3.6-2.6-5.9c0-2.4,0.9-4.4,2.6-6s3.9-2.4,6.6-2.4c2.6,0,4.8,0.8,6.5,2.4
			s2.6,3.6,2.6,6c0,2.3-0.9,4.3-2.6,5.9s-3.9,2.4-6.5,2.4C477.5,289.51,475.3,288.71,473.6,287.21z M487.9,294.81v50.2h-15.4v-50.2
			H487.9z"/>
		<path class="st2" d="M508.6,342.51c-3.9-2.1-7-5.1-9.3-9c-2.2-3.9-3.4-8.5-3.4-13.7s1.1-9.7,3.4-13.6s5.4-6.9,9.4-9
			c4-2.1,8.4-3.1,13.3-3.1c4.9,0,9.4,1,13.3,3.1c4,2.1,7.1,5.1,9.4,9c2.3,3.9,3.4,8.5,3.4,13.6c0,5.2-1.2,9.7-3.5,13.6
			s-5.5,6.9-9.4,9c-4,2.1-8.4,3.1-13.4,3.1C517,345.71,512.5,344.61,508.6,342.51z M529.4,329.11c2.1-2.2,3.1-5.2,3.1-9.3
			c0-4-1-7.1-3-9.3c-2-2.2-4.5-3.2-7.4-3.2c-3,0-5.5,1.1-7.5,3.2s-3,5.2-3,9.3c0,4,1,7.1,2.9,9.3c1.9,2.2,4.4,3.2,7.3,3.2
			S527.3,331.31,529.4,329.11z"/>
		<path class="st2" d="M601,299.91c3.5,3.8,5.3,9,5.3,15.7v29.3H591v-27.3c0-3.4-0.9-6-2.6-7.8c-1.7-1.9-4.1-2.8-7-2.8
			s-5.3,0.9-7,2.8s-2.6,4.5-2.6,7.8v27.3h-15.4v-50.2h15.4v6.7c1.6-2.2,3.7-4,6.3-5.3s5.6-1.9,8.9-1.9
			C592.8,294.21,597.5,296.11,601,299.91z"/>
	</g>
	<g>
		<path class="st2" d="M137.3,423.61v55.3H130v-41.3l-18.4,41.3h-5.1L88,437.61v41.3h-7.3v-55.3h7.8l20.5,45.7l20.5-45.7H137.3z"/>
		<path class="st2" d="M157.6,476.91c-3.3-1.9-5.9-4.5-7.8-8c-1.9-3.4-2.8-7.4-2.8-12c0-4.5,1-8.4,2.9-11.9c1.9-3.4,4.6-6.1,8-7.9
			s7.1-2.8,11.3-2.8s7.9,0.9,11.3,2.8c3.4,1.8,6,4.5,8,7.9c1.9,3.4,2.9,7.4,2.9,11.9s-1,8.5-3,12s-4.7,6.1-8.1,8
			c-3.4,1.9-7.2,2.8-11.4,2.8C164.6,479.71,160.9,478.81,157.6,476.91z M176.1,471.51c2.3-1.2,4.1-3.1,5.6-5.5
			c1.4-2.5,2.1-5.4,2.1-9s-0.7-6.5-2.1-9c-1.4-2.5-3.2-4.3-5.4-5.5s-4.7-1.8-7.3-1.8c-2.7,0-5.1,0.6-7.3,1.8c-2.2,1.2-4,3-5.3,5.5
			s-2,5.4-2,9s0.7,6.6,2,9c1.3,2.5,3.1,4.3,5.2,5.5c2.2,1.2,4.6,1.8,7.2,1.8C171.3,473.31,173.8,472.71,176.1,471.51z"/>
		<path class="st2" d="M217.1,472.31l13.6-37.1h7.8l-17.2,43.8h-8.5l-17.2-43.8h7.8L217.1,472.31z"/>
		<path class="st2" d="M285.4,459.81h-35c0.3,4.3,1.7,7.7,4.4,10.1c2.7,2.4,6,3.6,9.8,3.6c3.1,0,5.8-0.7,7.9-2.2s3.6-3.4,4.4-5.9
			h7.8c-1.2,4.2-3.5,7.6-7,10.3s-7.9,4-13.1,4c-4.2,0-7.9-0.9-11.2-2.8c-3.3-1.9-5.9-4.5-7.7-8c-1.9-3.4-2.8-7.4-2.8-12
			c0-4.5,0.9-8.5,2.7-11.9s4.4-6,7.6-7.9c3.3-1.8,7-2.8,11.3-2.8c4.2,0,7.8,0.9,11,2.7s5.7,4.3,7.4,7.5c1.7,3.2,2.6,6.8,2.6,10.8
			C285.6,456.81,285.6,458.21,285.4,459.81z M276.3,446.71c-1.2-2-2.9-3.5-5-4.6c-2.1-1-4.4-1.6-7-1.6c-3.7,0-6.8,1.2-9.4,3.5
			c-2.6,2.3-4.1,5.6-4.4,9.8h27.7C278.1,451.11,277.5,448.71,276.3,446.71z"/>
		<path class="st2" d="M355.4,435.21v43.8h-7.3v-6.5c-1.4,2.2-3.3,4-5.8,5.2s-5.2,1.9-8.2,1.9c-3.4,0-6.5-0.7-9.2-2.1
			s-4.9-3.5-6.4-6.4c-1.6-2.8-2.4-6.3-2.4-10.3v-25.7h7.2v24.7c0,4.3,1.1,7.6,3.3,10c2.2,2.3,5.2,3.5,9,3.5c3.9,0,7-1.2,9.2-3.6
			s3.4-5.9,3.4-10.5v-24.1h7.2V435.21z"/>
		<path class="st2" d="M381.5,437.01c2.9-1.7,6.2-2.5,10-2.5c3.9,0,7.4,0.9,10.6,2.8s5.7,4.5,7.5,7.9s2.7,7.3,2.7,11.8
			c0,4.4-0.9,8.4-2.7,11.8c-1.8,3.5-4.3,6.2-7.5,8.1s-6.7,2.9-10.6,2.9c-3.7,0-7-0.8-9.9-2.5s-5-3.8-6.5-6.3v28.9h-7.3v-64.6h7.3
			v8.1C376.5,440.71,378.6,438.61,381.5,437.01z M402.8,448.31c-1.3-2.5-3.1-4.3-5.4-5.6s-4.8-1.9-7.5-1.9s-5.1,0.7-7.4,2
			s-4.1,3.2-5.4,5.7c-1.4,2.5-2,5.3-2,8.6c0,3.3,0.7,6.2,2,8.7s3.2,4.4,5.4,5.7c2.3,1.3,4.7,2,7.4,2c2.7,0,5.2-0.7,7.5-2
			s4.1-3.2,5.4-5.7s2-5.4,2-8.8C404.8,453.61,404.1,450.71,402.8,448.31z"/>
		<path class="st2" d="M443.2,445.11c1.8-3.4,4.3-6,7.5-7.9s6.7-2.8,10.6-2.8c3.8,0,7.2,0.8,10,2.5s4.9,3.7,6.3,6.2v-8h7.4v43.8
			h-7.4v-8.2c-1.4,2.6-3.6,4.7-6.4,6.4c-2.9,1.7-6.2,2.5-10,2.5c-3.9,0-7.4-1-10.6-2.9c-3.1-1.9-5.6-4.6-7.4-8.1s-2.7-7.4-2.7-11.8
			C440.4,452.41,441.3,448.51,443.2,445.11z M475.5,448.41c-1.3-2.5-3.1-4.3-5.4-5.6c-2.3-1.3-4.8-2-7.5-2s-5.2,0.6-7.4,1.9
			c-2.2,1.3-4,3.1-5.4,5.6c-1.3,2.5-2,5.3-2,8.6c0,3.4,0.7,6.3,2,8.8s3.1,4.4,5.4,5.7c2.2,1.3,4.7,2,7.4,2s5.2-0.7,7.5-2
			s4.1-3.2,5.4-5.7s2-5.4,2-8.7C477.5,453.71,476.9,450.81,475.5,448.41z"/>
		<path class="st2" d="M525.8,419.81v59.2h-7.3v-59.2H525.8z"/>
		<path class="st2" d="M578,459.81h-35c0.3,4.3,1.7,7.7,4.4,10.1s6,3.6,9.8,3.6c3.1,0,5.8-0.7,7.9-2.2c2.1-1.5,3.6-3.4,4.4-5.9h7.8
			c-1.2,4.2-3.5,7.6-7,10.3s-7.9,4-13.1,4c-4.2,0-7.9-0.9-11.2-2.8s-5.9-4.5-7.7-8c-1.9-3.4-2.8-7.4-2.8-12c0-4.5,0.9-8.5,2.7-11.9
			s4.4-6,7.6-7.9c3.3-1.8,7-2.8,11.3-2.8c4.2,0,7.8,0.9,11,2.7s5.7,4.3,7.4,7.5s2.6,6.8,2.6,10.8
			C578.2,456.81,578.1,458.21,578,459.81z M568.9,446.71c-1.2-2-2.9-3.5-5-4.6c-2.1-1-4.4-1.6-7-1.6c-3.7,0-6.8,1.2-9.4,3.5
			c-2.6,2.3-4.1,5.6-4.4,9.8h27.7C570.7,451.11,570.1,448.71,568.9,446.71z"/>
		<path class="st2" d="M604.1,472.31l13.6-37.1h7.8l-17.2,43.8h-8.5l-17.2-43.8h7.8L604.1,472.31z"/>
		<path class="st2" d="M672.4,459.81h-35c0.3,4.3,1.7,7.7,4.4,10.1s6,3.6,9.8,3.6c3.1,0,5.8-0.7,7.9-2.2c2.1-1.5,3.6-3.4,4.4-5.9
			h7.8c-1.2,4.2-3.5,7.6-7,10.3s-7.9,4-13.1,4c-4.2,0-7.9-0.9-11.2-2.8s-5.9-4.5-7.7-8c-1.9-3.4-2.8-7.4-2.8-12
			c0-4.5,0.9-8.5,2.7-11.9s4.4-6,7.6-7.9c3.3-1.8,7-2.8,11.3-2.8c4.2,0,7.8,0.9,11,2.7s5.7,4.3,7.4,7.5s2.6,6.8,2.6,10.8
			C672.6,456.81,672.6,458.21,672.4,459.81z M663.3,446.71c-1.2-2-2.9-3.5-5-4.6c-2.1-1-4.4-1.6-7-1.6c-3.7,0-6.8,1.2-9.4,3.5
			c-2.6,2.3-4.1,5.6-4.4,9.8h27.7C665.1,451.11,664.5,448.71,663.3,446.71z"/>
		<path class="st2" d="M689.5,419.81v59.2h-7.3v-59.2H689.5z"/>
		<path class="st2" d="M88.7,572.91c-3.3-1.9-5.9-4.5-7.8-8c-1.9-3.4-2.8-7.4-2.8-12c0-4.5,1-8.4,2.9-11.9c1.9-3.4,4.6-6.1,8-7.9
			c3.4-1.8,7.1-2.8,11.3-2.8c4.2,0,7.9,0.9,11.3,2.8c3.4,1.8,6,4.5,8,7.9c1.9,3.4,2.9,7.4,2.9,11.9s-1,8.5-3,12s-4.7,6.1-8.1,8
			c-3.4,1.9-7.2,2.8-11.4,2.8C95.8,575.71,92.1,574.71,88.7,572.91z M107.2,567.41c2.3-1.2,4.1-3.1,5.6-5.5c1.4-2.5,2.1-5.4,2.1-9
			s-0.7-6.5-2.1-9c-1.4-2.5-3.2-4.3-5.4-5.5c-2.2-1.2-4.7-1.8-7.3-1.8c-2.7,0-5.1,0.6-7.3,1.8c-2.2,1.2-4,3-5.3,5.5s-2,5.4-2,9
			s0.7,6.6,2,9c1.3,2.5,3.1,4.3,5.2,5.5c2.2,1.2,4.6,1.8,7.2,1.8C102.5,569.31,105,568.61,107.2,567.41z"/>
		<path class="st2" d="M144.7,532.41c2.4-1.4,5.3-2.1,8.7-2.1v7.5h-1.9c-8.2,0-12.2,4.4-12.2,13.3v23.8H132v-43.8h7.3v7.1
			C140.5,535.71,142.3,533.81,144.7,532.41z"/>
		<path class="st2" d="M189.6,573.91c-2.7-1.1-4.8-2.7-6.3-4.8s-2.4-4.4-2.6-7.1h7.5c0.2,2.2,1.2,4,3.1,5.4c1.8,1.4,4.2,2.1,7.2,2.1
			c2.8,0,5-0.6,6.6-1.8s2.4-2.8,2.4-4.6c0-1.9-0.9-3.3-2.6-4.3c-1.7-0.9-4.3-1.9-7.9-2.8c-3.3-0.9-5.9-1.7-8-2.6
			c-2.1-0.9-3.8-2.2-5.3-3.9s-2.2-4-2.2-6.8c0-2.2,0.7-4.3,2-6.2s3.2-3.3,5.7-4.4c2.5-1.1,5.2-1.6,8.4-1.6c4.9,0,8.8,1.2,11.8,3.7
			s4.6,5.8,4.8,10.1H207c-0.2-2.3-1.1-4.1-2.8-5.5s-3.9-2.1-6.8-2.1c-2.6,0-4.7,0.6-6.2,1.7c-1.5,1.1-2.3,2.6-2.3,4.4
			c0,1.4,0.5,2.6,1.4,3.6c0.9,0.9,2.1,1.7,3.5,2.2c1.4,0.6,3.4,1.2,5.9,1.9c3.1,0.9,5.7,1.7,7.7,2.5s3.7,2.1,5.1,3.7
			c1.4,1.7,2.1,3.8,2.2,6.5c0,2.4-0.7,4.6-2,6.5s-3.2,3.4-5.6,4.5c-2.4,1.1-5.2,1.6-8.4,1.6C195.3,575.71,192.3,575.11,189.6,573.91
			z"/>
		<path class="st2" d="M233.7,537.11v25.8c0,2.1,0.5,3.6,1.4,4.5s2.5,1.3,4.7,1.3h5.4v6.2h-6.6c-4.1,0-7.1-0.9-9.1-2.8
			c-2-1.9-3-4.9-3-9.2v-25.8h-5.7v-6h5.7v-11h7.3v11h11.4v6H233.7z"/>
		<path class="st2" d="M254,541.11c1.8-3.4,4.3-6,7.5-7.9s6.7-2.8,10.6-2.8c3.8,0,7.2,0.8,10,2.5s4.9,3.7,6.3,6.2v-8h7.4v43.8h-7.4
			v-8.2c-1.4,2.6-3.6,4.7-6.4,6.4c-2.9,1.7-6.2,2.5-10,2.5c-3.9,0-7.4-1-10.6-2.9c-3.1-1.9-5.6-4.6-7.4-8.1
			c-1.8-3.5-2.7-7.4-2.7-11.8C251.3,548.41,252.2,544.51,254,541.11z M286.4,544.31c-1.3-2.5-3.1-4.3-5.4-5.6s-4.8-2-7.5-2
			s-5.2,0.6-7.4,1.9c-2.2,1.3-4,3.1-5.4,5.6c-1.3,2.5-2,5.3-2,8.6c0,3.4,0.7,6.3,2,8.8s3.1,4.4,5.4,5.7c2.2,1.3,4.7,2,7.4,2
			s5.2-0.7,7.5-2s4.1-3.2,5.4-5.7s2-5.4,2-8.7S287.7,546.81,286.4,544.31z"/>
		<path class="st2" d="M320.8,532.41c2.4-1.4,5.3-2.1,8.7-2.1v7.5h-1.9c-8.2,0-12.2,4.4-12.2,13.3v23.8H308v-43.8h7.3v7.1
			C316.6,535.71,318.4,533.81,320.8,532.41z"/>
		<path class="st2" d="M346.7,537.11v25.8c0,2.1,0.5,3.6,1.4,4.5s2.5,1.3,4.7,1.3h5.4v6.2h-6.6c-4.1,0-7.1-0.9-9.1-2.8
			c-2-1.9-3-4.9-3-9.2v-25.8h-5.7v-6h5.7v-11h7.3v11h11.4v6H346.7z"/>
		<path class="st2" d="M388.3,541.11c1.8-3.4,4.3-6,7.5-7.9s6.7-2.8,10.6-2.8c3.8,0,7.2,0.8,10,2.5s4.9,3.7,6.3,6.2v-8h7.4v43.8
			h-7.4v-8.2c-1.4,2.6-3.6,4.7-6.4,6.4c-2.9,1.7-6.2,2.5-10,2.5c-3.9,0-7.4-1-10.6-2.9c-3.1-1.9-5.6-4.6-7.4-8.1s-2.7-7.4-2.7-11.8
			C385.6,548.41,386.5,544.51,388.3,541.11z M420.7,544.31c-1.3-2.5-3.1-4.3-5.4-5.6s-4.8-2-7.5-2s-5.2,0.6-7.4,1.9
			c-2.2,1.3-4,3.1-5.4,5.6c-1.3,2.5-2,5.3-2,8.6c0,3.4,0.7,6.3,2,8.8s3.1,4.4,5.4,5.7c2.2,1.3,4.7,2,7.4,2s5.2-0.7,7.5-2
			s4.1-3.2,5.4-5.7s2-5.4,2-8.7S422,546.81,420.7,544.31z"/>
		<path class="st2" d="M498,535.21c3.3,3.2,5,7.9,5,14v25.8h-7.2v-24.8c0-4.4-1.1-7.7-3.3-10c-2.2-2.3-5.2-3.5-9-3.5
			s-6.9,1.2-9.2,3.6c-2.3,2.4-3.4,5.9-3.4,10.5v24.2h-7.3v-43.8h7.3v6.2c1.4-2.2,3.4-4,5.9-5.2s5.2-1.8,8.2-1.8
			C490.4,530.31,494.7,531.91,498,535.21z"/>
		<path class="st2" d="M554.6,555.71h-35c0.3,4.3,1.7,7.7,4.4,10.1c2.7,2.4,6,3.6,9.8,3.6c3.1,0,5.8-0.7,7.9-2.2
			c2.1-1.5,3.6-3.4,4.4-5.9h7.8c-1.2,4.2-3.5,7.6-7,10.3s-7.9,4-13.1,4c-4.2,0-7.9-0.9-11.2-2.8c-3.3-1.9-5.9-4.5-7.7-8
			c-1.9-3.4-2.8-7.4-2.8-12c0-4.5,0.9-8.5,2.7-11.9s4.4-6,7.6-7.9c3.3-1.8,7-2.8,11.3-2.8c4.2,0,7.8,0.9,11,2.7s5.7,4.3,7.4,7.5
			s2.6,6.8,2.6,10.8C554.9,552.71,554.8,554.21,554.6,555.71z M545.5,542.71c-1.2-2-2.9-3.5-5-4.6c-2.1-1-4.4-1.6-7-1.6
			c-3.7,0-6.8,1.2-9.4,3.5c-2.6,2.3-4.1,5.6-4.4,9.8h27.7C547.3,547.11,546.7,544.71,545.5,542.71z"/>
		<path class="st2" d="M622.8,531.11l-13.7,43.8h-7.5l-10.6-34.8l-10.6,34.8H573l-13.8-43.8h7.4l10.1,36.8l10.9-36.8h7.4l10.6,36.9
			l9.9-36.9H622.8z"/>
		<path class="st2" d="M80.8,637.01c1.8-3.4,4.3-6,7.5-7.9s6.7-2.8,10.6-2.8c3.8,0,7.2,0.8,10,2.5s4.9,3.7,6.3,6.2v-8h7.4v43.8h-7.4
			v-8.2c-1.4,2.6-3.6,4.7-6.4,6.4c-2.9,1.7-6.2,2.5-10,2.5c-3.9,0-7.4-1-10.6-2.9c-3.1-1.9-5.6-4.6-7.4-8.1s-2.7-7.4-2.7-11.8
			S79,640.41,80.8,637.01z M113.2,640.31c-1.3-2.5-3.1-4.3-5.4-5.6s-4.8-2-7.5-2s-5.2,0.6-7.4,1.9c-2.2,1.3-4,3.1-5.4,5.6
			c-1.3,2.5-2,5.3-2,8.6c0,3.4,0.7,6.3,2,8.8s3.1,4.4,5.4,5.7c2.2,1.3,4.7,2,7.4,2c2.7,0,5.2-0.7,7.5-2s4.1-3.2,5.4-5.7s2-5.4,2-8.7
			S114.5,642.71,113.2,640.31z"/>
		<path class="st2" d="M134.8,637.01c1.8-3.4,4.3-6,7.5-7.9s6.7-2.8,10.7-2.8c3.4,0,6.6,0.8,9.5,2.4c2.9,1.6,5.2,3.6,6.7,6.2v-23.2
			h7.4v59.2h-7.4v-8.2c-1.4,2.6-3.6,4.8-6.4,6.4c-2.8,1.7-6.1,2.5-9.9,2.5c-3.9,0-7.4-1-10.6-2.9c-3.2-1.9-5.7-4.6-7.5-8.1
			s-2.7-7.4-2.7-11.8C132.1,644.31,133,640.41,134.8,637.01z M167.2,640.31c-1.3-2.5-3.1-4.3-5.4-5.6c-2.3-1.3-4.8-2-7.5-2
			s-5.2,0.6-7.4,1.9c-2.2,1.3-4,3.1-5.4,5.6c-1.3,2.5-2,5.3-2,8.6c0,3.4,0.7,6.3,2,8.8s3.1,4.4,5.4,5.7c2.2,1.3,4.7,2,7.4,2
			s5.2-0.7,7.5-2s4.1-3.2,5.4-5.7c1.3-2.5,2-5.4,2-8.7S168.5,642.71,167.2,640.31z"/>
		<path class="st2" d="M205.2,664.21l13.6-37.1h7.8l-17.2,43.8h-8.5l-17.2-43.8h7.8L205.2,664.21z"/>
		<path class="st2" d="M273.5,651.71h-35c0.3,4.3,1.7,7.7,4.4,10.1c2.7,2.4,6,3.6,9.8,3.6c3.1,0,5.8-0.7,7.9-2.2s3.6-3.4,4.4-5.9
			h7.8c-1.2,4.2-3.5,7.6-7,10.3s-7.9,4-13.1,4c-4.2,0-7.9-0.9-11.2-2.8c-3.3-1.9-5.9-4.5-7.7-8c-1.9-3.4-2.8-7.4-2.8-12
			c0-4.5,0.9-8.5,2.7-11.9s4.4-6,7.6-7.9c3.3-1.8,7-2.8,11.3-2.8c4.2,0,7.8,0.9,11,2.7s5.7,4.3,7.4,7.5c1.7,3.2,2.6,6.8,2.6,10.8
			C273.7,648.71,273.6,650.21,273.5,651.71z M264.4,638.61c-1.2-2-2.9-3.5-5-4.6c-2.1-1-4.4-1.6-7-1.6c-3.7,0-6.8,1.2-9.4,3.5
			c-2.6,2.3-4.1,5.6-4.4,9.8h27.7C266.2,643.01,265.6,640.61,264.4,638.61z"/>
		<path class="st2" d="M317.6,631.11c3.3,3.2,5,7.9,5,14v25.8h-7.2v-24.8c0-4.4-1.1-7.7-3.3-10c-2.2-2.3-5.2-3.5-9-3.5
			s-6.9,1.2-9.2,3.6c-2.3,2.4-3.4,5.9-3.4,10.5v24.2h-7.3v-43.8h7.3v6.2c1.4-2.2,3.4-4,5.9-5.2s5.2-1.8,8.2-1.8
			C310,626.31,314.3,627.91,317.6,631.11z"/>
		<path class="st2" d="M343.4,633.11v25.8c0,2.1,0.5,3.6,1.4,4.5s2.5,1.3,4.7,1.3h5.4v6.2h-6.6c-4.1,0-7.1-0.9-9.1-2.8
			c-2-1.9-3-4.9-3-9.2v-25.8h-5.7v-6h5.7v-11h7.3v11h11.4v6H343.4z"/>
		<path class="st2" d="M402.5,627.11v43.8h-7.3v-6.5c-1.4,2.2-3.3,4-5.8,5.2s-5.2,1.9-8.2,1.9c-3.4,0-6.5-0.7-9.2-2.1
			c-2.7-1.4-4.9-3.5-6.4-6.4c-1.6-2.8-2.4-6.3-2.4-10.3v-25.7h7.2v24.7c0,4.3,1.1,7.6,3.3,10c2.2,2.3,5.2,3.5,9,3.5
			c3.9,0,7-1.2,9.2-3.6c2.2-2.4,3.4-5.9,3.4-10.5v-24.1h7.2V627.11z"/>
		<path class="st2" d="M427.5,628.31c2.4-1.4,5.3-2.1,8.7-2.1v7.5h-1.9c-8.2,0-12.2,4.4-12.2,13.3v23.8h-7.3v-43.8h7.3v7.1
			C423.3,631.71,425.2,629.71,427.5,628.31z"/>
		<path class="st2" d="M484.3,651.71h-35c0.3,4.3,1.7,7.7,4.4,10.1c2.7,2.4,6,3.6,9.8,3.6c3.1,0,5.8-0.7,7.9-2.2s3.6-3.4,4.4-5.9
			h7.8c-1.2,4.2-3.5,7.6-7,10.3s-7.9,4-13.1,4c-4.2,0-7.9-0.9-11.2-2.8c-3.3-1.9-5.9-4.5-7.7-8c-1.9-3.4-2.8-7.4-2.8-12
			c0-4.5,0.9-8.5,2.7-11.9c1.8-3.4,4.4-6,7.6-7.9c3.3-1.8,7-2.8,11.3-2.8c4.2,0,7.8,0.9,11,2.7s5.7,4.3,7.4,7.5
			c1.7,3.2,2.6,6.8,2.6,10.8C484.6,648.71,484.5,650.21,484.3,651.71z M475.2,638.61c-1.2-2-2.9-3.5-5-4.6c-2.1-1-4.4-1.6-7-1.6
			c-3.7,0-6.8,1.2-9.4,3.5s-4.1,5.6-4.4,9.8h27.7C477.1,643.01,476.4,640.61,475.2,638.61z"/>
	</g>
	<g>
		<path class="st3" d="M729.9,59.01c-0.6-0.9-1.5-1.5-2.6-1.6s-2.1,0.2-2.9,1l-11,11l-19.4-4.2c-1.2-0.3-2.4,0.1-3.2,0.9l-48.5,48.5
			c-0.4,0.4-0.8,0.5-1.3,0.5s-1-0.2-1.3-0.5l-0.7-0.7c-0.4-0.4-0.5-0.8-0.5-1.3s0.2-1,0.5-1.3l48.5-48.5c0.8-0.8,1.2-2,0.9-3.2
			l-4.2-19.4l11.2-11.2c0.8-0.8,1.1-1.8,1-2.9c-0.1-1.1-0.7-2-1.6-2.6c-17.4-11-37.6-16.8-58.3-16.8c-29.3,0-56.8,11.4-77.5,32.1
			s-32.1,48.2-32.1,77.5s11.4,56.8,32.1,77.5s48.2,32.1,77.5,32.1c11.2,0,22.3-1.7,32.9-5c1.1-0.3,2-1.2,2.3-2.3s0.1-2.3-0.7-3.2
			c-7.2-8.7-11.2-19.8-11.2-31.2c0-27,22-49,49-49c10.4,0,20.3,3.2,28.7,9.3c0.9,0.7,2.2,0.9,3.2,0.5c1.1-0.4,1.9-1.3,2.2-2.4
			c2.1-8.5,3.2-17.3,3.2-26.2C746.2,96.11,740.6,76.21,729.9,59.01z"/>
		<path class="st4" d="M705.1,68.51c-0.5-0.7-1.3-1.2-2.1-1.4l-8.9-1.9c-1.2-0.3-2.4,0.1-3.2,0.9l-48.5,48.5
			c-0.4,0.4-0.8,0.5-1.3,0.5s-1-0.2-1.3-0.5l-0.7-0.7c-0.4-0.4-0.5-0.8-0.5-1.3s0.2-1,0.5-1.3l48.5-48.5c0.8-0.8,1.2-2,0.9-3.2
			l-2-9.1c-0.2-0.8-0.7-1.6-1.4-2.1c-14.2-10.1-31-15.5-48.5-15.5c-46.1,0-83.6,37.5-83.6,83.6s37.5,83.6,83.6,83.6
			c7.3,0,14.6-1,21.6-2.8c1.8-0.5,2.9-2.2,2.5-4c-0.5-2.9-0.8-5.9-0.8-8.9c0-27,22-49,49-49c1.9,0,3.9,0.1,5.8,0.3
			c1.8,0.2,3.5-1,3.8-2.8c1.1-5.4,1.6-10.9,1.6-16.4C720.2,99.21,714.9,82.61,705.1,68.51z"/>
		<path class="st3" d="M682,80.51c-0.6-0.8-1.5-1.3-2.5-1.3c-1-0.1-2,0.3-2.7,1l-34.5,34.5c-0.4,0.4-0.8,0.5-1.3,0.5s-1-0.2-1.3-0.5
			l-0.7-0.7c-0.4-0.4-0.5-0.8-0.5-1.3s0.2-1,0.5-1.3l34.5-34.5c0.7-0.7,1.1-1.7,1-2.6c0-1-0.5-1.9-1.3-2.5
			c-10.3-8.4-23.3-13.1-36.7-13.1c-32,0-58,26-58,58s26,58,58,58c8.6,0,17-1.9,24.7-5.5c0.8-0.4,1.5-1.1,1.8-1.9
			c4.6-12,13.9-22,25.6-27.3c0.8-0.4,1.5-1.1,1.8-1.9c2.7-6.8,4-14,4-21.3C694.5,103.21,690.2,90.81,682,80.51z"/>
		<path class="st4" d="M662.8,100.21c-0.6-0.9-1.5-1.5-2.6-1.6s-2.1,0.2-2.9,1l-15.1,15.1c-0.4,0.4-0.8,0.5-1.3,0.5s-1-0.2-1.3-0.5
			l-0.7-0.7c-0.4-0.4-0.5-0.8-0.5-1.3s0.2-1,0.5-1.3l15.2-15.2c0.7-0.7,1.1-1.8,1-2.8s-0.7-2-1.5-2.6c-5.1-3.4-11-5.2-17.1-5.2
			c-17,0-30.9,13.9-30.9,30.9s13.9,30.9,30.9,30.9s30.9-13.9,30.9-30.9C667.5,110.71,665.9,105.11,662.8,100.21z"/>
		<g>
			<path class="st5" d="M671.1,215.51c-12.5,6-26.3,9.6-40.8,10.4c2.1,0.1,4.2,0.2,6.3,0.2c11.2,0,22.3-1.7,32.9-5
				c1.1-0.3,2-1.2,2.3-2.3C672.1,217.61,671.9,216.41,671.1,215.51L671.1,215.51z"/>
			<path class="st5" d="M693.1,31.31l2.3-2.3c0.8-0.8,1.1-1.8,1-2.9c-0.1-1.1-0.7-2-1.6-2.6c-17.4-11-37.6-16.8-58.3-16.8
				c-2.1,0-4.2,0.1-6.3,0.2C654,8.31,675.7,17.21,693.1,31.31z"/>
			<path class="st5" d="M729.9,59.01c-0.6-0.9-1.5-1.5-2.6-1.6s-2.1,0.2-2.9,1l-4.7,4.7c8.8,15.8,13.9,34,13.9,53.4
				c0,8.3-0.9,16.4-2.7,24.1c2.3,1.2,4.5,2.5,6.6,4.1c0.9,0.7,2.2,0.9,3.2,0.5c1.1-0.4,1.9-1.3,2.2-2.4c2.1-8.5,3.2-17.3,3.2-26.2
				C746.2,96.11,740.6,76.21,729.9,59.01z"/>
		</g>
		<g>
			<path class="st6" d="M721.6,26.41L717,5.11c-0.3-1.2-1.2-2.3-2.4-2.6c-1.2-0.4-2.5,0-3.5,0.9l-33.2,33.2c-0.8,0.8-1.2,2-0.9,3.2
				l4.6,21.3c0.3,1.2,1.2,2.2,2.4,2.6c0.3,0.1,0.7,0.1,1,0.1c0.9,0,1.8-0.4,2.5-1l33.2-33.2C721.5,28.71,721.9,27.51,721.6,26.41z"
				/>
			<path class="st6" d="M751.1,39.01c-0.4-1.2-1.4-2.2-2.6-2.4l-21.3-4.6c-1.2-0.3-2.4,0.1-3.2,0.9l-33.2,33.2
				c-0.9,0.9-1.2,2.2-0.9,3.5c0.4,1.2,1.4,2.2,2.6,2.4l21.3,4.6c0.2,0.1,0.5,0.1,0.7,0.1c0.9,0,1.8-0.4,2.5-1l33.2-33.3
				C751.2,41.51,751.5,40.21,751.1,39.01z"/>
		</g>
		<path class="st7" d="M702.6,74.21l11.2,2.4c0.2,0.1,0.5,0.1,0.7,0.1c0.9,0,1.8-0.4,2.5-1l33.2-33.3c0.9-0.9,1.2-2.2,0.9-3.5
			c-0.4-1.2-1.4-2.2-2.6-2.4l-6.8-1.5L702.6,74.21z"/>
		<path class="st8" d="M729,32.91l-8.3-8.3c-0.7-0.7-1.5-1-2.5-1c-0.9,0-1.8,0.4-2.5,1l-81.7,81.8c-1.7,1.7-2.6,3.9-2.6,6.3
			c0,2.4,0.9,4.6,2.6,6.3l0.7,0.7c1.7,1.7,3.9,2.6,6.3,2.6c2.4,0,4.6-0.9,6.3-2.6l81.7-81.8C730.3,36.51,730.3,34.31,729,32.91z"/>
		<path class="st6" d="M708.9,128.31c-30.9,0-56,25.1-56,56s25.1,56,56,56s56-25.1,56-56C764.8,153.41,739.7,128.31,708.9,128.31z"
			/>
		<path class="st9" d="M708.9,128.31c-2.4,0-4.8,0.2-7.2,0.5c27.5,3.5,48.8,27.1,48.8,55.5s-21.3,52-48.8,55.5
			c2.4,0.3,4.7,0.5,7.2,0.5c30.9,0,56-25.1,56-56C764.8,153.41,739.7,128.31,708.9,128.31z"/>
		<path class="st10" d="M700.6,209.51c-1.9,0-3.8-0.8-5.2-2.1l-16.6-16.6c-2.9-2.9-2.9-7.5,0-10.3c2.9-2.9,7.5-2.9,10.3,0l11.4,11.4
			l28.1-28.1c2.9-2.9,7.5-2.9,10.3,0c2.9,2.9,2.9,7.5,0,10.3l-33.2,33.3C704.4,208.71,702.5,209.51,700.6,209.51z"/>
	</g>
</g>
</svg>
