<?xml version="1.0" encoding="utf-8"?>
<!-- Generator: Adobe Illustrator 26.0.1, SVG Export Plug-In . SVG Version: 6.00 Build 0)  -->
<svg version="1.1" id="Layer_1" xmlns="http://www.w3.org/2000/svg" xmlns:xlink="http://www.w3.org/1999/xlink" x="0px" y="0px"
	 viewBox="0 0 826.2 1015.7" style="enable-background:new 0 0 826.2 1015.7;" xml:space="preserve">
<style type="text/css">
	.st0{fill:#FC7186;}
	.st1{opacity:0.7;fill:#E55A75;}
	.st2{fill:#FFFFFF;}
	.st3{fill:#6289CC;}
	.st4{fill:#4A6BB2;}
	.st5{fill:#EBF0F4;}
	.st6{fill:#3C58A0;}
	.st7{fill:#4ABA9F;}
	.st8{fill:#3FAF9A;}
	.st9{fill:#58CCB0;}
	.st10{fill:#FFE077;}
	.st11{fill:#D8E3EA;}
</style>
<g>
	<polygon class="st0" points="406.3,988.2 509.7,809.1 302.9,809.1 	"/>
	<path class="st0" d="M817.6,122.1v693.4c0,20.8-16.8,37.5-37.5,37.5H46.1c-20.8,0-37.5-16.8-37.5-37.5V122.1
		c0-20.7,16.8-37.5,37.5-37.5h733.9C800.8,84.6,817.6,101.4,817.6,122.1z"/>
	<path class="st1" d="M817.6,579.5v236c0,20.8-16.8,37.5-37.5,37.5H46.1c-20.8,0-37.5-16.8-37.5-37.5V332.2
		C173.9,580.8,453.4,839.3,817.6,579.5z"/>
	<g>
		<path class="st2" d="M95.6,224.2v12.8h20.6v11.9H95.6v13.9h23.3V275H80.2v-63.1h38.7v12.3H95.6z"/>
		<path class="st2" d="M128.7,236.2c1.9-3.9,4.6-6.9,8-9c3.4-2.1,7.1-3.1,11.2-3.1c3.5,0,6.6,0.7,9.3,2.2c2.7,1.4,4.7,3.3,6.2,5.7
			v-7.1h15.4V275h-15.4v-7.1c-1.5,2.3-3.6,4.2-6.3,5.7c-2.7,1.4-5.8,2.2-9.3,2.2c-4.1,0-7.8-1.1-11.2-3.2c-3.4-2.1-6-5.2-8-9.1
			c-1.9-3.9-2.9-8.5-2.9-13.6C125.8,244.6,126.8,240.1,128.7,236.2z M160.2,240.8c-2.1-2.2-4.7-3.3-7.8-3.3s-5.7,1.1-7.8,3.3
			c-2.1,2.2-3.2,5.2-3.2,9s1.1,6.9,3.2,9.1c2.1,2.2,4.7,3.4,7.8,3.4s5.7-1.1,7.8-3.3c2.1-2.2,3.2-5.2,3.2-9.1
			C163.4,246.1,162.3,243,160.2,240.8z"/>
		<path class="st2" d="M212.1,226.6c2.7-1.6,5.7-2.4,9-2.4v16.3h-4.2c-3.8,0-6.7,0.8-8.6,2.5c-1.9,1.7-2.9,4.5-2.9,8.7V275h-15.4
			v-50.2h15.4v8.4C207.1,230.4,209.4,228.2,212.1,226.6z"/>
		<path class="st2" d="M273.1,230c3.5,3.8,5.3,9,5.3,15.7V275h-15.3v-27.3c0-3.4-0.9-6-2.6-7.8c-1.7-1.9-4.1-2.8-7-2.8
			c-2.9,0-5.3,0.9-7,2.8c-1.7,1.9-2.6,4.5-2.6,7.8V275h-15.4v-50.2h15.4v6.7c1.6-2.2,3.7-4,6.3-5.3c2.6-1.3,5.6-1.9,8.9-1.9
			C264.9,224.3,269.6,226.2,273.1,230z"/>
		<path class="st2" d="M81.6,334.6c2.7-4.9,6.5-8.7,11.3-11.4c4.8-2.7,10.3-4.1,16.4-4.1c7.5,0,13.9,2,19.2,5.9
			c5.3,4,8.9,9.4,10.7,16.2h-16.9c-1.3-2.6-3-4.6-5.4-6c-2.3-1.4-4.9-2.1-7.9-2.1c-4.7,0-8.6,1.7-11.5,4.9
			c-2.9,3.3-4.4,7.7-4.4,13.2c0,5.5,1.5,9.9,4.4,13.2c2.9,3.3,6.8,4.9,11.5,4.9c2.9,0,5.6-0.7,7.9-2.1c2.3-1.4,4.1-3.4,5.4-6h16.9
			c-1.8,6.8-5.4,12.2-10.7,16.1c-5.3,3.9-11.8,5.9-19.2,5.9c-6.1,0-11.6-1.4-16.4-4.1c-4.8-2.7-8.6-6.5-11.3-11.4s-4-10.4-4-16.6
			C77.6,345,78.9,339.5,81.6,334.6z"/>
		<path class="st2" d="M195.8,361.5H161c0.2,3.1,1.2,5.5,3,7.2c1.8,1.6,3.9,2.5,6.5,2.5c3.8,0,6.5-1.6,8-4.9h16.4
			c-0.8,3.3-2.4,6.3-4.5,8.9c-2.2,2.6-4.9,4.7-8.2,6.2c-3.3,1.5-7,2.2-11.1,2.2c-4.9,0-9.3-1-13.1-3.1c-3.8-2.1-6.8-5.1-9-9
			c-2.2-3.9-3.2-8.5-3.2-13.7s1.1-9.8,3.2-13.7c2.1-3.9,5.1-6.9,9-9c3.8-2.1,8.2-3.1,13.2-3.1c4.9,0,9.2,1,13,3.1
			c3.8,2,6.7,4.9,8.9,8.7c2.1,3.8,3.2,8.2,3.2,13.2C196.1,358.5,196,360,195.8,361.5z M180.3,353c0-2.6-0.9-4.7-2.7-6.3
			s-4-2.3-6.7-2.3c-2.6,0-4.8,0.8-6.5,2.2c-1.8,1.5-2.9,3.6-3.3,6.4H180.3z"/>
		<path class="st2" d="M226.3,334.6c2.7-1.6,5.7-2.4,9-2.4v16.3H231c-3.8,0-6.7,0.8-8.6,2.5c-1.9,1.7-2.9,4.5-2.9,8.7v23.3h-15.4
			v-50.2h15.4v8.4C221.3,338.3,223.6,336.2,226.3,334.6z"/>
		<path class="st2" d="M270.6,369.9v13h-7.8c-5.6,0-9.9-1.4-13-4.1c-3.1-2.7-4.7-7.2-4.7-13.4v-20H239v-12.8h6.1v-12.2h15.4v12.2
			h10.1v12.8h-10.1v20.2c0,1.5,0.4,2.6,1.1,3.2c0.7,0.7,1.9,1,3.6,1H270.6z"/>
		<path class="st2" d="M280.3,325.1c-1.7-1.6-2.6-3.6-2.6-5.9c0-2.4,0.9-4.4,2.6-6c1.7-1.6,3.9-2.4,6.6-2.4c2.6,0,4.8,0.8,6.5,2.4
			c1.7,1.6,2.6,3.6,2.6,6c0,2.3-0.9,4.3-2.6,5.9c-1.7,1.6-3.9,2.4-6.5,2.4C284.2,327.5,282,326.7,280.3,325.1z M294.6,332.7v50.2
			h-15.4v-50.2H294.6z"/>
		<path class="st2" d="M322.6,332.7h29.9v50.2h-15.4v-37.4h-14.5v37.4h-15.4v-37.4h-5.6v-12.8h5.6v-1.4c0-6.2,1.7-10.9,5.2-14.1
			c3.4-3.2,8.5-4.8,15.1-4.8c1.1,0,1.9,0,2.4,0.1v13c-2.7-0.2-4.6,0.2-5.7,1.3c-1.1,1-1.6,2.8-1.6,5.5V332.7z M338.3,326.2
			c-1.7-1.5-2.5-3.4-2.5-5.8s0.8-4.3,2.5-5.8c1.7-1.5,3.9-2.3,6.6-2.3c2.7,0,4.9,0.8,6.6,2.3s2.6,3.5,2.6,5.8s-0.8,4.3-2.5,5.8
			c-1.7,1.5-3.9,2.2-6.7,2.2C342.1,328.4,340,327.7,338.3,326.2z"/>
		<path class="st2" d="M364.9,344.2c2.1-3.9,5.1-6.9,8.9-9c3.8-2.1,8.2-3.1,13.1-3.1c6.3,0,11.6,1.6,15.8,4.9
			c4.2,3.3,7,7.9,8.3,13.9h-16.4c-1.4-3.8-4-5.8-8-5.8c-2.8,0-5.1,1.1-6.7,3.3c-1.7,2.2-2.5,5.3-2.5,9.4c0,4.1,0.8,7.2,2.5,9.4
			c1.7,2.2,3.9,3.3,6.7,3.3c4,0,6.6-1.9,8-5.8H411c-1.3,5.9-4.1,10.5-8.4,13.9c-4.3,3.4-9.5,5-15.7,5c-4.9,0-9.3-1-13.1-3.1
			c-3.8-2.1-6.8-5.1-8.9-9c-2.1-3.9-3.2-8.5-3.2-13.7S362.8,348.1,364.9,344.2z"/>
		<path class="st2" d="M419.1,344.2c1.9-3.9,4.6-6.9,8-9c3.4-2.1,7.1-3.1,11.2-3.1c3.5,0,6.6,0.7,9.3,2.2c2.7,1.4,4.7,3.3,6.2,5.7
			v-7.1h15.4v50.2h-15.4v-7.1c-1.5,2.3-3.6,4.2-6.3,5.7c-2.7,1.4-5.8,2.2-9.3,2.2c-4.1,0-7.8-1.1-11.2-3.2c-3.4-2.1-6-5.2-8-9.1
			c-1.9-3.9-2.9-8.5-2.9-13.6C416.2,352.6,417.2,348.1,419.1,344.2z M450.6,348.8c-2.1-2.2-4.7-3.3-7.8-3.3s-5.7,1.1-7.8,3.3
			c-2.1,2.2-3.2,5.2-3.2,9s1.1,6.9,3.2,9.1c2.1,2.2,4.7,3.4,7.8,3.4s5.7-1.1,7.8-3.3c2.1-2.2,3.2-5.2,3.2-9.1
			C453.8,354,452.7,351,450.6,348.8z"/>
		<path class="st2" d="M508.3,369.9v13h-7.8c-5.6,0-9.9-1.4-13-4.1c-3.1-2.7-4.7-7.2-4.7-13.4v-20h-6.1v-12.8h6.1v-12.2h15.4v12.2
			h10.1v12.8h-10.1v20.2c0,1.5,0.4,2.6,1.1,3.2c0.7,0.7,1.9,1,3.6,1H508.3z"/>
		<path class="st2" d="M518,325.1c-1.7-1.6-2.6-3.6-2.6-5.9c0-2.4,0.9-4.4,2.6-6c1.7-1.6,3.9-2.4,6.6-2.4c2.6,0,4.8,0.8,6.5,2.4
			c1.7,1.6,2.6,3.6,2.6,6c0,2.3-0.9,4.3-2.6,5.9c-1.7,1.6-3.9,2.4-6.5,2.4C521.9,327.5,519.7,326.7,518,325.1z M532.2,332.7v50.2
			h-15.4v-50.2H532.2z"/>
		<path class="st2" d="M553,380.5c-3.9-2.1-7-5.1-9.3-9c-2.2-3.9-3.4-8.5-3.4-13.7c0-5.2,1.1-9.7,3.4-13.6c2.3-3.9,5.4-6.9,9.4-9
			c4-2.1,8.4-3.1,13.3-3.1c4.9,0,9.4,1,13.3,3.1c4,2.1,7.1,5.1,9.4,9c2.3,3.9,3.4,8.5,3.4,13.6c0,5.2-1.2,9.7-3.5,13.6
			c-2.3,3.9-5.5,6.9-9.4,9c-4,2.1-8.4,3.1-13.4,3.1C561.3,383.7,556.9,382.6,553,380.5z M573.7,367.1c2.1-2.2,3.1-5.2,3.1-9.3
			c0-4-1-7.1-3-9.3c-2-2.2-4.5-3.2-7.4-3.2c-3,0-5.5,1.1-7.5,3.2c-2,2.1-3,5.2-3,9.3c0,4,1,7.1,2.9,9.3c1.9,2.2,4.4,3.2,7.3,3.2
			S571.7,369.3,573.7,367.1z"/>
		<path class="st2" d="M645.3,337.9c3.5,3.8,5.3,9,5.3,15.7v29.3h-15.3v-27.3c0-3.4-0.9-6-2.6-7.8c-1.7-1.9-4.1-2.8-7-2.8
			c-2.9,0-5.3,0.9-7,2.8c-1.7,1.9-2.6,4.5-2.6,7.8v27.3h-15.4v-50.2h15.4v6.7c1.6-2.2,3.7-4,6.3-5.3c2.6-1.3,5.6-1.9,8.9-1.9
			C637.1,332.2,641.8,334.1,645.3,337.9z"/>
	</g>
	<g>
		<path class="st2" d="M81.7,474.4c2.5-4.3,5.8-7.7,10-10.2c4.2-2.5,8.9-3.7,14.1-3.7c6.1,0,11.4,1.5,15.9,4.4
			c4.5,2.9,7.8,7.1,9.9,12.5H123c-1.5-3.4-3.8-5.9-6.7-7.8c-2.9-1.8-6.4-2.7-10.4-2.7c-3.9,0-7.4,0.9-10.5,2.7
			c-3.1,1.8-5.5,4.4-7.3,7.7c-1.8,3.3-2.6,7.2-2.6,11.7c0,4.4,0.9,8.3,2.6,11.6c1.8,3.3,4.2,5.9,7.3,7.7c3.1,1.8,6.6,2.7,10.5,2.7
			c4.1,0,7.5-0.9,10.4-2.7c2.9-1.8,5.1-4.4,6.7-7.7h8.7c-2.1,5.3-5.4,9.4-9.9,12.4c-4.5,2.9-9.8,4.4-15.9,4.4
			c-5.2,0-9.9-1.2-14.1-3.6c-4.2-2.4-7.6-5.8-10-10.1c-2.5-4.3-3.7-9.2-3.7-14.6S79.3,478.7,81.7,474.4z"/>
		<path class="st2" d="M182.2,497.8h-35c0.3,4.3,1.7,7.7,4.4,10.1c2.7,2.4,6,3.6,9.8,3.6c3.1,0,5.8-0.7,7.9-2.2
			c2.1-1.5,3.6-3.4,4.4-5.9h7.8c-1.2,4.2-3.5,7.6-7,10.3s-7.9,4-13.1,4c-4.2,0-7.9-0.9-11.2-2.8c-3.3-1.9-5.9-4.5-7.7-8
			c-1.9-3.4-2.8-7.4-2.8-12c0-4.5,0.9-8.5,2.7-11.9c1.8-3.4,4.4-6,7.6-7.9c3.3-1.8,7-2.8,11.3-2.8c4.2,0,7.8,0.9,11,2.7
			s5.7,4.3,7.4,7.5c1.7,3.2,2.6,6.8,2.6,10.8C182.5,494.8,182.4,496.2,182.2,497.8z M173.1,484.7c-1.2-2-2.9-3.5-5-4.6
			c-2.1-1-4.4-1.6-7-1.6c-3.7,0-6.8,1.2-9.4,3.5c-2.6,2.3-4.1,5.6-4.4,9.8H175C175,489.1,174.4,486.7,173.1,484.7z"/>
		<path class="st2" d="M199.4,457.8V517h-7.3v-59.2H199.4z"/>
		<path class="st2" d="M251.5,497.8h-35c0.3,4.3,1.7,7.7,4.4,10.1c2.7,2.4,6,3.6,9.8,3.6c3.1,0,5.8-0.7,7.9-2.2
			c2.1-1.5,3.6-3.4,4.4-5.9h7.8c-1.2,4.2-3.5,7.6-7,10.3s-7.9,4-13.1,4c-4.2,0-7.9-0.9-11.2-2.8c-3.3-1.9-5.9-4.5-7.7-8
			c-1.9-3.4-2.8-7.4-2.8-12c0-4.5,0.9-8.5,2.7-11.9c1.8-3.4,4.4-6,7.6-7.9c3.3-1.8,7-2.8,11.3-2.8c4.2,0,7.8,0.9,11,2.7
			s5.7,4.3,7.4,7.5c1.7,3.2,2.6,6.8,2.6,10.8C251.7,494.8,251.7,496.2,251.5,497.8z M242.4,484.7c-1.2-2-2.9-3.5-5-4.6
			c-2.1-1-4.4-1.6-7-1.6c-3.7,0-6.8,1.2-9.4,3.5c-2.6,2.3-4.1,5.6-4.4,9.8h27.7C244.2,489.1,243.6,486.7,242.4,484.7z"/>
		<path class="st2" d="M275.2,474.9c2.9-1.7,6.2-2.5,9.8-2.5c3.9,0,7.5,0.9,10.6,2.8c3.1,1.9,5.6,4.5,7.4,7.9
			c1.8,3.4,2.7,7.3,2.7,11.8c0,4.4-0.9,8.4-2.7,11.8c-1.8,3.5-4.3,6.2-7.5,8.1s-6.7,2.9-10.6,2.9c-3.8,0-7.1-0.8-10-2.5
			c-2.9-1.7-5-3.8-6.4-6.3v8.1h-7.3v-59.2h7.3v23.5C270.1,478.7,272.3,476.6,275.2,474.9z M296.3,486.3c-1.3-2.5-3.1-4.3-5.4-5.6
			s-4.8-1.9-7.5-1.9c-2.7,0-5.1,0.7-7.4,2c-2.3,1.3-4.1,3.2-5.4,5.7c-1.4,2.5-2,5.3-2,8.6c0,3.3,0.7,6.2,2,8.7s3.2,4.4,5.4,5.7
			c2.3,1.3,4.7,2,7.4,2c2.7,0,5.2-0.7,7.5-2c2.3-1.3,4.1-3.2,5.4-5.7c1.3-2.5,2-5.4,2-8.8C298.3,491.6,297.7,488.7,296.3,486.3z"/>
		<path class="st2" d="M328.1,474.4c2.4-1.4,5.3-2.1,8.7-2.1v7.5h-1.9c-8.2,0-12.2,4.4-12.2,13.3V517h-7.3v-43.8h7.3v7.1
			C323.9,477.8,325.8,475.8,328.1,474.4z"/>
		<path class="st2" d="M345.2,483.1c1.8-3.4,4.3-6,7.5-7.9c3.2-1.9,6.7-2.8,10.6-2.8c3.8,0,7.2,0.8,10,2.5c2.8,1.7,4.9,3.7,6.3,6.2
			v-8h7.4V517h-7.4v-8.2c-1.4,2.6-3.6,4.7-6.4,6.4c-2.9,1.7-6.2,2.5-10,2.5c-3.9,0-7.4-1-10.6-2.9c-3.1-1.9-5.6-4.6-7.4-8.1
			c-1.8-3.5-2.7-7.4-2.7-11.8C342.5,490.4,343.4,486.5,345.2,483.1z M377.6,486.3c-1.3-2.5-3.1-4.3-5.4-5.6c-2.3-1.3-4.8-2-7.5-2
			s-5.2,0.6-7.4,1.9c-2.2,1.3-4,3.1-5.4,5.6c-1.3,2.5-2,5.3-2,8.6c0,3.4,0.7,6.3,2,8.8c1.3,2.5,3.1,4.4,5.4,5.7c2.2,1.3,4.7,2,7.4,2
			s5.2-0.7,7.5-2c2.3-1.3,4.1-3.2,5.4-5.7c1.3-2.5,2-5.4,2-8.7C379.6,491.7,378.9,488.8,377.6,486.3z"/>
		<path class="st2" d="M408.1,479.1V505c0,2.1,0.5,3.6,1.4,4.5c0.9,0.9,2.5,1.3,4.7,1.3h5.4v6.2H413c-4.1,0-7.1-0.9-9.1-2.8
			c-2-1.9-3-4.9-3-9.2v-25.8h-5.7v-6h5.7v-11h7.3v11h11.4v6H408.1z"/>
		<path class="st2" d="M468.1,497.8h-35c0.3,4.3,1.7,7.7,4.4,10.1c2.7,2.4,6,3.6,9.8,3.6c3.1,0,5.8-0.7,7.9-2.2
			c2.1-1.5,3.6-3.4,4.4-5.9h7.8c-1.2,4.2-3.5,7.6-7,10.3s-7.9,4-13.1,4c-4.2,0-7.9-0.9-11.2-2.8c-3.3-1.9-5.9-4.5-7.7-8
			c-1.9-3.4-2.8-7.4-2.8-12c0-4.5,0.9-8.5,2.7-11.9c1.8-3.4,4.4-6,7.6-7.9c3.3-1.8,7-2.8,11.3-2.8c4.2,0,7.8,0.9,11,2.7
			s5.7,4.3,7.4,7.5c1.7,3.2,2.6,6.8,2.6,10.8C468.3,494.8,468.3,496.2,468.1,497.8z M459,484.7c-1.2-2-2.9-3.5-5-4.6
			c-2.1-1-4.4-1.6-7-1.6c-3.7,0-6.8,1.2-9.4,3.5c-2.6,2.3-4.1,5.6-4.4,9.8h27.7C460.8,489.1,460.2,486.7,459,484.7z"/>
		<path class="st2" d="M88.1,553.7v59.2h-7.3v-59.2H88.1z"/>
		<path class="st2" d="M140.2,593.7h-35c0.3,4.3,1.7,7.7,4.4,10.1c2.7,2.4,6,3.6,9.8,3.6c3.1,0,5.8-0.7,7.9-2.2
			c2.1-1.5,3.6-3.4,4.4-5.9h7.8c-1.2,4.2-3.5,7.6-7,10.3s-7.9,4-13.1,4c-4.2,0-7.9-0.9-11.2-2.8c-3.3-1.9-5.9-4.5-7.7-8
			c-1.9-3.4-2.8-7.4-2.8-12c0-4.5,0.9-8.5,2.7-11.9c1.8-3.4,4.4-6,7.6-7.9c3.3-1.8,7-2.8,11.3-2.8c4.2,0,7.8,0.9,11,2.7
			s5.7,4.3,7.4,7.5c1.7,3.2,2.6,6.8,2.6,10.8C140.4,590.7,140.3,592.2,140.2,593.7z M131.1,580.7c-1.2-2-2.9-3.5-5-4.6
			c-2.1-1-4.4-1.6-7-1.6c-3.7,0-6.8,1.2-9.4,3.5c-2.6,2.3-4.1,5.6-4.4,9.8h27.7C132.9,585,132.3,582.7,131.1,580.7z"/>
		<path class="st2" d="M150,579.1c1.8-3.4,4.3-6,7.5-7.9c3.2-1.9,6.7-2.8,10.6-2.8c3.8,0,7.2,0.8,10,2.5c2.8,1.7,4.9,3.7,6.3,6.2v-8
			h7.4v43.8h-7.4v-8.2c-1.4,2.6-3.6,4.7-6.4,6.4c-2.9,1.7-6.2,2.5-10,2.5c-3.9,0-7.4-1-10.6-2.9c-3.1-1.9-5.6-4.6-7.4-8.1
			c-1.8-3.5-2.7-7.4-2.7-11.8C147.3,586.4,148.2,582.4,150,579.1z M182.4,582.3c-1.3-2.5-3.1-4.3-5.4-5.6c-2.3-1.3-4.8-2-7.5-2
			s-5.2,0.6-7.4,1.9c-2.2,1.3-4,3.1-5.4,5.6c-1.3,2.5-2,5.3-2,8.6c0,3.4,0.7,6.3,2,8.8c1.3,2.5,3.1,4.4,5.4,5.7c2.2,1.3,4.7,2,7.4,2
			s5.2-0.7,7.5-2c2.3-1.3,4.1-3.2,5.4-5.7c1.3-2.5,2-5.4,2-8.7C184.4,587.6,183.7,584.7,182.4,582.3z"/>
		<path class="st2" d="M216.8,570.4c2.4-1.4,5.3-2.1,8.7-2.1v7.5h-1.9c-8.2,0-12.2,4.4-12.2,13.3v23.8h-7.3v-43.8h7.3v7.1
			C212.6,573.7,214.5,571.8,216.8,570.4z"/>
		<path class="st2" d="M268.2,573.1c3.3,3.2,5,7.9,5,14v25.8H266v-24.8c0-4.4-1.1-7.7-3.3-10c-2.2-2.3-5.2-3.5-9-3.5
			c-3.8,0-6.9,1.2-9.2,3.6c-2.3,2.4-3.4,5.9-3.4,10.5v24.2h-7.3v-43.8h7.3v6.2c1.4-2.2,3.4-4,5.9-5.2c2.5-1.2,5.2-1.8,8.2-1.8
			C260.6,568.3,264.9,569.9,268.2,573.1z"/>
		<path class="st2" d="M285.3,560.5c-1-1-1.4-2.1-1.4-3.5c0-1.4,0.5-2.6,1.4-3.5c1-1,2.1-1.4,3.5-1.4c1.3,0,2.5,0.5,3.4,1.4
			c0.9,1,1.4,2.1,1.4,3.5c0,1.4-0.5,2.6-1.4,3.5c-0.9,1-2.1,1.4-3.4,1.4C287.4,562,286.3,561.5,285.3,560.5z M292.4,569.1v43.8h-7.3
			v-43.8H292.4z"/>
		<path class="st2" d="M339,573.1c3.3,3.2,5,7.9,5,14v25.8h-7.2v-24.8c0-4.4-1.1-7.7-3.3-10c-2.2-2.3-5.2-3.5-9-3.5
			c-3.8,0-6.9,1.2-9.2,3.6c-2.3,2.4-3.4,5.9-3.4,10.5v24.2h-7.3v-43.8h7.3v6.2c1.4-2.2,3.4-4,5.9-5.2c2.5-1.2,5.2-1.8,8.2-1.8
			C331.4,568.3,335.7,569.9,339,573.1z"/>
		<path class="st2" d="M383.9,570.9c2.9,1.7,5,3.7,6.4,6.2v-8h7.4v44.8c0,4-0.9,7.6-2.6,10.7c-1.7,3.1-4.1,5.6-7.3,7.3
			c-3.2,1.8-6.9,2.6-11.1,2.6c-5.8,0-10.6-1.4-14.4-4.1s-6.1-6.4-6.8-11.1h7.2c0.8,2.7,2.5,4.8,5,6.4c2.5,1.6,5.5,2.4,9,2.4
			c4,0,7.3-1.3,9.8-3.8c2.5-2.5,3.8-6,3.8-10.6v-9.2c-1.4,2.6-3.6,4.7-6.4,6.4c-2.8,1.7-6.1,2.6-9.9,2.6c-3.9,0-7.4-1-10.6-2.9
			c-3.2-1.9-5.7-4.6-7.5-8.1c-1.8-3.5-2.7-7.4-2.7-11.8c0-4.5,0.9-8.4,2.7-11.8c1.8-3.4,4.3-6,7.5-7.9c3.2-1.9,6.7-2.8,10.6-2.8
			C377.8,568.4,381.1,569.2,383.9,570.9z M388.3,582.3c-1.3-2.5-3.1-4.3-5.4-5.6c-2.3-1.3-4.8-2-7.5-2s-5.2,0.6-7.4,1.9
			c-2.2,1.3-4,3.1-5.4,5.6c-1.3,2.5-2,5.3-2,8.6c0,3.4,0.7,6.3,2,8.8c1.3,2.5,3.1,4.4,5.4,5.7c2.2,1.3,4.7,2,7.4,2s5.2-0.7,7.5-2
			c2.3-1.3,4.1-3.2,5.4-5.7c1.3-2.5,2-5.4,2-8.7C390.3,587.6,389.6,584.7,388.3,582.3z"/>
		<path class="st2" d="M489.7,569.1L476,612.9h-7.5L458,578.1l-10.6,34.8h-7.5l-13.8-43.8h7.4l10.1,36.8l10.9-36.8h7.4l10.6,36.9
			l9.9-36.9H489.7z"/>
		<path class="st2" d="M497.1,560.5c-1-1-1.4-2.1-1.4-3.5c0-1.4,0.5-2.6,1.4-3.5c1-1,2.1-1.4,3.5-1.4c1.3,0,2.5,0.5,3.4,1.4
			c0.9,1,1.4,2.1,1.4,3.5c0,1.4-0.5,2.6-1.4,3.5c-0.9,1-2.1,1.4-3.4,1.4C499.3,562,498.1,561.5,497.1,560.5z M504.2,569.1v43.8h-7.3
			v-43.8H504.2z"/>
		<path class="st2" d="M525.4,575.1v25.8c0,2.1,0.5,3.6,1.4,4.5c0.9,0.9,2.5,1.3,4.7,1.3h5.4v6.2h-6.6c-4.1,0-7.1-0.9-9.1-2.8
			c-2-1.9-3-4.9-3-9.2v-25.8h-5.7v-6h5.7v-11h7.3v11h11.4v6H525.4z"/>
		<path class="st2" d="M576.4,570.4c2.7,1.4,4.8,3.5,6.3,6.4c1.5,2.8,2.3,6.3,2.3,10.3v25.8h-7.2v-24.8c0-4.4-1.1-7.7-3.3-10
			c-2.2-2.3-5.2-3.5-9-3.5c-3.8,0-6.9,1.2-9.2,3.6c-2.3,2.4-3.4,5.9-3.4,10.5v24.2h-7.3v-59.2h7.3v21.6c1.4-2.2,3.4-4,6-5.2
			c2.5-1.2,5.4-1.8,8.5-1.8C570.7,568.3,573.7,569,576.4,570.4z"/>
		<path class="st2" d="M618.2,579.1c1.8-3.4,4.3-6,7.5-7.9c3.2-1.9,6.7-2.8,10.6-2.8c3.8,0,7.2,0.8,10,2.5c2.8,1.7,4.9,3.7,6.3,6.2
			v-8h7.4v43.8h-7.4v-8.2c-1.4,2.6-3.6,4.7-6.4,6.4c-2.9,1.7-6.2,2.5-10,2.5c-3.9,0-7.4-1-10.6-2.9c-3.1-1.9-5.6-4.6-7.4-8.1
			c-1.8-3.5-2.7-7.4-2.7-11.8C615.5,586.4,616.4,582.4,618.2,579.1z M650.6,582.3c-1.3-2.5-3.1-4.3-5.4-5.6c-2.3-1.3-4.8-2-7.5-2
			s-5.2,0.6-7.4,1.9c-2.2,1.3-4,3.1-5.4,5.6c-1.3,2.5-2,5.3-2,8.6c0,3.4,0.7,6.3,2,8.8c1.3,2.5,3.1,4.4,5.4,5.7c2.2,1.3,4.7,2,7.4,2
			s5.2-0.7,7.5-2c2.3-1.3,4.1-3.2,5.4-5.7c1.3-2.5,2-5.4,2-8.7C652.6,587.6,651.9,584.7,650.6,582.3z"/>
		<path class="st2" d="M80.8,675c1.8-3.4,4.3-6,7.6-7.9c3.2-1.9,6.9-2.8,11.1-2.8c5.4,0,9.8,1.3,13.3,3.9c3.5,2.6,5.8,6.2,6.9,10.9
			h-7.8c-0.7-2.7-2.2-4.8-4.4-6.3c-2.2-1.5-4.8-2.3-8-2.3c-4.2,0-7.5,1.4-10.1,4.3c-2.6,2.9-3.8,6.9-3.8,12.1
			c0,5.3,1.3,9.4,3.8,12.2c2.6,2.9,5.9,4.3,10.1,4.3c3.2,0,5.9-0.7,8-2.2c2.1-1.5,3.6-3.6,4.4-6.4h7.8c-1.2,4.5-3.5,8.1-7,10.8
			c-3.5,2.7-7.9,4-13.2,4c-4.2,0-7.8-0.9-11.1-2.8c-3.2-1.9-5.7-4.5-7.6-7.9c-1.8-3.4-2.7-7.4-2.7-12C78.1,682.4,79,678.4,80.8,675z
			"/>
		<path class="st2" d="M169.1,689.7h-35c0.3,4.3,1.7,7.7,4.4,10.1c2.7,2.4,6,3.6,9.8,3.6c3.1,0,5.8-0.7,7.9-2.2
			c2.1-1.5,3.6-3.4,4.4-5.9h7.8c-1.2,4.2-3.5,7.6-7,10.3s-7.9,4-13.1,4c-4.2,0-7.9-0.9-11.2-2.8c-3.3-1.9-5.9-4.5-7.7-8
			c-1.9-3.4-2.8-7.4-2.8-12c0-4.5,0.9-8.5,2.7-11.9c1.8-3.4,4.4-6,7.6-7.9c3.3-1.8,7-2.8,11.3-2.8c4.2,0,7.8,0.9,11,2.7
			s5.7,4.3,7.4,7.5c1.7,3.2,2.6,6.8,2.6,10.8C169.3,686.7,169.2,688.1,169.1,689.7z M159.9,676.6c-1.2-2-2.9-3.5-5-4.6
			c-2.1-1-4.4-1.6-7-1.6c-3.7,0-6.8,1.2-9.4,3.5c-2.6,2.3-4.1,5.6-4.4,9.8h27.7C161.8,681,161.2,678.6,159.9,676.6z"/>
		<path class="st2" d="M191.6,666.3c2.4-1.4,5.3-2.1,8.7-2.1v7.5h-1.9c-8.2,0-12.2,4.4-12.2,13.3v23.8h-7.3v-43.8h7.3v7.1
			C187.4,669.7,189.3,667.7,191.6,666.3z"/>
		<path class="st2" d="M217.6,671.1v25.8c0,2.1,0.5,3.6,1.4,4.5c0.9,0.9,2.5,1.3,4.7,1.3h5.4v6.2h-6.6c-4.1,0-7.1-0.9-9.1-2.8
			c-2-1.9-3-4.9-3-9.2v-25.8h-5.7v-6h5.7v-11h7.3v11H229v6H217.6z"/>
		<path class="st2" d="M238.1,656.5c-1-1-1.4-2.1-1.4-3.5c0-1.4,0.5-2.6,1.4-3.5c1-1,2.1-1.4,3.5-1.4c1.3,0,2.5,0.5,3.4,1.4
			c0.9,1,1.4,2.1,1.4,3.5c0,1.4-0.5,2.6-1.4,3.5c-0.9,1-2.1,1.4-3.4,1.4C240.2,657.9,239,657.5,238.1,656.5z M245.1,665.1v43.8h-7.3
			v-43.8H245.1z"/>
		<path class="st2" d="M266.1,665.1H291v43.8h-7.3v-37.8h-17.6v37.8h-7.3v-37.8h-5.6v-6h5.6v-3.1c0-4.9,1.3-8.5,3.8-10.8
			c2.5-2.3,6.6-3.4,12.2-3.4v6.1c-3.2,0-5.5,0.6-6.8,1.9c-1.3,1.3-2,3.3-2,6.2V665.1z M283.9,656.5c-0.9-1-1.4-2.1-1.4-3.5
			c0-1.4,0.5-2.6,1.4-3.5c0.9-1,2.1-1.4,3.5-1.4c1.4,0,2.5,0.5,3.5,1.4c0.9,1,1.4,2.1,1.4,3.5c0,1.4-0.5,2.6-1.4,3.5
			c-0.9,1-2.1,1.4-3.5,1.4C286,657.9,284.8,657.5,283.9,656.5z"/>
		<path class="st2" d="M303.1,675c1.8-3.4,4.3-6,7.6-7.9c3.2-1.9,6.9-2.8,11.1-2.8c5.4,0,9.8,1.3,13.3,3.9c3.5,2.6,5.8,6.2,6.9,10.9
			h-7.8c-0.7-2.7-2.2-4.8-4.4-6.3c-2.2-1.5-4.8-2.3-8-2.3c-4.2,0-7.5,1.4-10.1,4.3c-2.6,2.9-3.8,6.9-3.8,12.1
			c0,5.3,1.3,9.4,3.8,12.2c2.6,2.9,5.9,4.3,10.1,4.3c3.2,0,5.9-0.7,8-2.2c2.1-1.5,3.6-3.6,4.4-6.4h7.8c-1.2,4.5-3.5,8.1-7,10.8
			c-3.5,2.7-7.9,4-13.2,4c-4.2,0-7.8-0.9-11.1-2.8c-3.2-1.9-5.7-4.5-7.6-7.9c-1.8-3.4-2.7-7.4-2.7-12
			C300.4,682.4,301.3,678.4,303.1,675z"/>
		<path class="st2" d="M351.7,675c1.8-3.4,4.3-6,7.5-7.9c3.2-1.9,6.7-2.8,10.6-2.8c3.8,0,7.2,0.8,10,2.5c2.8,1.7,4.9,3.7,6.3,6.2v-8
			h7.4v43.8h-7.4v-8.2c-1.4,2.6-3.6,4.7-6.4,6.4c-2.9,1.7-6.2,2.5-10,2.5c-3.9,0-7.4-1-10.6-2.9c-3.1-1.9-5.6-4.6-7.4-8.1
			c-1.8-3.5-2.7-7.4-2.7-11.8C349,682.3,349.9,678.4,351.7,675z M384.1,678.2c-1.3-2.5-3.1-4.3-5.4-5.6c-2.3-1.3-4.8-2-7.5-2
			s-5.2,0.6-7.4,1.9c-2.2,1.3-4,3.1-5.4,5.6c-1.3,2.5-2,5.3-2,8.6c0,3.4,0.7,6.3,2,8.8c1.3,2.5,3.1,4.4,5.4,5.7c2.2,1.3,4.7,2,7.4,2
			s5.2-0.7,7.5-2c2.3-1.3,4.1-3.2,5.4-5.7c1.3-2.5,2-5.4,2-8.7C386.1,683.6,385.4,680.7,384.1,678.2z"/>
		<path class="st2" d="M414.6,671.1v25.8c0,2.1,0.5,3.6,1.4,4.5c0.9,0.9,2.5,1.3,4.7,1.3h5.4v6.2h-6.6c-4.1,0-7.1-0.9-9.1-2.8
			c-2-1.9-3-4.9-3-9.2v-25.8h-5.7v-6h5.7v-11h7.3v11H426v6H414.6z"/>
		<path class="st2" d="M474.6,689.7h-35c0.3,4.3,1.7,7.7,4.4,10.1c2.7,2.4,6,3.6,9.8,3.6c3.1,0,5.8-0.7,7.9-2.2
			c2.1-1.5,3.6-3.4,4.4-5.9h7.8c-1.2,4.2-3.5,7.6-7,10.3s-7.9,4-13.1,4c-4.2,0-7.9-0.9-11.2-2.8c-3.3-1.9-5.9-4.5-7.7-8
			c-1.9-3.4-2.8-7.4-2.8-12c0-4.5,0.9-8.5,2.7-11.9c1.8-3.4,4.4-6,7.6-7.9c3.3-1.8,7-2.8,11.3-2.8c4.2,0,7.8,0.9,11,2.7
			s5.7,4.3,7.4,7.5c1.7,3.2,2.6,6.8,2.6,10.8C474.8,686.7,474.7,688.1,474.6,689.7z M465.5,676.6c-1.2-2-2.9-3.5-5-4.6
			c-2.1-1-4.4-1.6-7-1.6c-3.7,0-6.8,1.2-9.4,3.5c-2.6,2.3-4.1,5.6-4.4,9.8h27.7C467.3,681,466.7,678.6,465.5,676.6z"/>
	</g>
	<g>
		<path class="st3" d="M434,34.7v231.1c0,4,3.3,7.2,7.2,7.2h308.4l12-4.5c4,0,7.2-3.3,7.2-7.2l-2.1-221.8c0-4-3.3-7.2-7.2-7.2
			l-9.9-4.8H441.3C437.3,27.5,434,30.7,434,34.7L434,34.7z"/>
		<path class="st4" d="M771.3,34.7v231.1c0,4-3.3,7.2-7.2,7.2h-14.4v-44.7l-12.8-79.7l12.8-76.6V27.5h14.4
			C768.1,27.5,771.3,30.7,771.3,34.7L771.3,34.7z"/>
		<path class="st5" d="M455.7,228.4V72.1c0-0.7,0.6-1.3,1.3-1.3c5-0.3,9.5-2.3,13-5.3c4.2-3.7,7-9,7.3-15c0-0.7,0.6-1.3,1.3-1.3h248
			c0.7,0,1.3,0.6,1.3,1.3c0.3,5.5,2.7,10.4,6.3,14.1c3.6,3.6,8.6,6,14.1,6.3c0.7,0,1.3,0.6,1.3,1.3v156.3c0,0.7-0.6,1.3-1.3,1.3
			c-5.5,0.3-10.4,2.7-14.1,6.3s-6,8.6-6.3,14.1c0,0.7-0.6,1.3-1.3,1.3h-32.3l-22-13.4l-19,13.4H478.7c-0.7,0-1.3-0.6-1.3-1.3
			c-0.3-5.5-2.7-10.4-6.3-14.1c-3.6-3.6-8.6-6-14.1-6.3C456.3,229.7,455.7,229.1,455.7,228.4L455.7,228.4z"/>
		<g>
			<circle class="st4" cx="749.6" cy="251.4" r="5.1"/>
			<circle class="st4" cx="749.6" cy="49.2" r="5.1"/>
			
				<ellipse transform="matrix(1.612271e-02 -0.9999 0.9999 1.612271e-02 196.9964 702.9739)" class="st4" cx="455.7" cy="251.4" rx="5.1" ry="5.1"/>
			<circle class="st4" cx="455.7" cy="49.2" r="5.1"/>
		</g>
		<g>
			<path class="st6" d="M754.7,251.4c0,2.8-2.3,5.1-5.1,5.1v-10.2C752.5,246.3,754.7,248.6,754.7,251.4z"/>
			<path class="st6" d="M754.7,49.2c0,2.8-2.3,5.1-5.1,5.1V44.1C752.5,44.1,754.7,46.4,754.7,49.2z"/>
		</g>
		<g>
			<g>
				<path class="st7" d="M662.2,226.2l5.8,3.3l5.8,3.3l-8.5,16.8l0.3,11.6l-15.9,54.4c-0.3,1.1-1.9,1.3-2.5,0.3l-11.6-19.7l-1.5-6.9
					c-0.2-0.4-0.7-0.7-1.2-0.7l-6.1,2.2l-23.3-0.2c-1.2,0-1.8-1.4-1-2.3l37.3-39l11.9-8.9L662.2,226.2z"/>
				<path class="st8" d="M639.9,249.6l11.8,0.9c0.6,0,1.1,0.3,1.5,0.6l10.1,8.6c0.7,0.6,1.4,1.1,2.2,1.5l8.3-28.4l-5.8-3.3l-5.8-3.3
					L639.9,249.6z"/>
				<g>
					<path class="st8" d="M626.9,291l4.8,0c0.5,0,0.9,0.3,1.2,0.7l2.7,4.6l12.4-21.4c1.4-2.4,0.6-5.6-1.9-7
						c-2.4-1.4-5.5-0.6-6.9,1.9L626.9,291z"/>
				</g>
			</g>
			<g>
				<path class="st7" d="M685.4,226.2l-5.8,3.3l-5.8,3.3l8.5,16.8l-0.3,11.6l15.9,54.4c0.3,1.1,1.9,1.3,2.5,0.3l11.6-19.7l1.5-6.9
					c0.2-0.4,0.7-0.7,1.2-0.7l6.1,2.2l23.3-0.2c1.2,0,1.8-1.4,1-2.3l-37.3-39l-11.9-8.9L685.4,226.2z"/>
				<path class="st8" d="M707.7,249.6l-11.8,0.9c-0.6,0-1.1,0.3-1.5,0.6l-10.1,8.6c-0.7,0.6-1.4,1.1-2.2,1.5l-8.3-28.4l5.8-3.3
					l5.8-3.3L707.7,249.6z"/>
				<g>
					<path class="st8" d="M720.7,291l-4.8,0c-0.5,0-0.9,0.3-1.2,0.7l-2.7,4.6l-12.4-21.4c-1.4-2.4-0.6-5.6,1.9-7
						c2.4-1.4,5.5-0.6,6.9,1.9L720.7,291z"/>
				</g>
			</g>
			<path class="st9" d="M675.9,149.4l13.2,11.3c0.5,0.4,1.1,0.7,1.7,0.7l12,1l3.9,1.6c1.5,0.1,2.6,1.3,2.8,2.8l1.1,16.4
				c0.1,0.6,0.3,1.2,0.7,1.7l9.8,12.9c1,1.1,1,2.8,0,3.9l-11,12.3c-0.4,0.5-0.7,1.1-0.7,1.7l-0.2,15.8c-0.1,1.5-1.3,2.6-2.8,2.8
				l-16.2,2.2c-0.6,0.1-1.2,0.3-1.7,0.7l-12.2,8.9c-1.1,1-2.8,1-3.9,0l-12.7-9.4c-0.5-0.4-1.1-0.7-1.7-0.7l-17.2-0.9
				c-1.5-0.1-2.6-1.3-2.8-2.8l-1.4-3.4l-1-12.3c-0.1-0.6-0.3-1.2-0.7-1.7l-11.3-13.2c-1-1.1-1-2.8,0-3.9l11.3-13.2
				c0.4-0.5,0.7-1.1,0.7-1.7l1.4-17.3c0.1-1.5,1.3-2.6,2.8-2.8l17.3-1.4c0.6-0.1,1.2-0.3,1.7-0.7l13.2-11.3
				C673.1,148.5,674.8,148.5,675.9,149.4L675.9,149.4z"/>
			<path class="st7" d="M724.2,201.6l-11.3,13.2c-0.4,0.5-0.7,1.1-0.7,1.7l-1.4,17.3c-0.1,1.5-1.3,2.6-2.7,2.7l-17.3,1.4
				c-0.6,0.1-1.2,0.3-1.7,0.7l-13.2,11.3c-1.1,1-2.8,1-3.9,0l-13.2-11.3c-0.5-0.4-1.1-0.7-1.7-0.7l-17.3-1.4
				c-1.5-0.1-2.6-1.3-2.7-2.7l-0.4-5c6.1,2.7,12.9,4.1,20,4.1c27.8,0,50.4-22.6,50.4-50.4c0-7.2-1.5-14.1-4.3-20.3l5.3,0.4
				c1.5,0.1,2.6,1.3,2.7,2.8l1.4,17.3c0,0.6,0.3,1.2,0.7,1.7l11.3,13.2C725.1,198.9,725.1,200.5,724.2,201.6z"/>
			<circle class="st5" cx="673.8" cy="199.8" r="20.2"/>
		</g>
		<path class="st10" d="M493.3,114.8V88.1c0-0.7,0.6-1.4,1.4-1.4h109.7c0.7,0,1.4,0.6,1.4,1.4v26.8c0,0.7-0.6,1.4-1.4,1.4H494.6
			C493.9,116.2,493.3,115.6,493.3,114.8z"/>
		<g>
			<g>
				<path class="st11" d="M502.5,229.1c-1.9,0-3.9-0.4-5.7-1.1c-3.8-1.6-6.7-4.7-8-8.7c-1.2-4-0.6-8.2,1.7-11.7
					c4.8-7.2,11.8-12.5,20-15.1c-0.1-0.5-0.3-1-0.4-1.6c-0.7-2.5-2.6-4.3-5.1-5c-2.5-0.7-5-0.2-7,1.5l-1.3,1.1
					c-2.1,1.8-5.3,1.6-7.2-0.5c-1.8-2.1-1.6-5.3,0.5-7.2l1.3-1.1c4.5-3.9,10.7-5.3,16.5-3.6c5.8,1.7,10.2,6.1,12,11.9
					c0.2,0.6,0.4,1.3,0.5,1.9l9.4-2.4c3.6-0.9,7.5,0.7,9.3,3.9l4,6.8l7.8-13c1.3-2.2,3.6-3.6,6.2-3.6c2.6,0,4.9,1.2,6.3,3.4l5.2,8
					c1.9,3,4.9,5,8.5,5.7c3.5,0.7,7-0.2,9.9-2.3l2.5-1.8c2.3-1.7,5.5-1.2,7.1,1.1s1.2,5.5-1.1,7.1l-2.5,1.8
					c-5.2,3.8-11.5,5.2-17.8,4.1c-6.3-1.2-11.7-4.8-15.2-10.1l-2.7-4.2l-6.2,10.4c-1.7,2.9-4.7,4.6-8,4.6c0,0,0,0,0,0
					c-3.3,0-6.3-1.7-8-4.6l-4-6.9l-9.3,2.4c0,7.6-2.1,15.2-6.2,21.8C512.5,226.5,507.6,229.1,502.5,229.1L502.5,229.1z M511.3,203.1
					c-5,2.1-9.2,5.7-12.3,10.2c-0.8,1.2-0.6,2.4-0.4,3c0.2,0.6,0.7,1.7,2.1,2.2c2.3,0.9,4.9,0.1,6.1-2
					C509.3,212.4,510.8,207.8,511.3,203.1L511.3,203.1z"/>
			</g>
			<g>
				<path class="st11" d="M679,91.8h-53c-2.8,0-5.1-2.3-5.1-5.1c0-2.8,2.3-5.1,5.1-5.1h53c2.8,0,5.1,2.3,5.1,5.1
					C684,89.5,681.8,91.8,679,91.8z"/>
			</g>
			<g>
				<path class="st11" d="M711.1,121.5H626c-2.8,0-5.1-2.3-5.1-5.1c0-2.8,2.3-5.1,5.1-5.1h85.1c2.8,0,5.1,2.3,5.1,5.1
					C716.2,119.2,713.9,121.5,711.1,121.5z"/>
			</g>
			<g>
				<path class="st11" d="M605.7,151.1H493.3c-2.8,0-5.1-2.3-5.1-5.1c0-2.8,2.3-5.1,5.1-5.1h112.5c2.8,0,5.1,2.3,5.1,5.1
					C610.8,148.8,608.5,151.1,605.7,151.1z"/>
			</g>
		</g>
	</g>
</g>
</svg>
