<?xml version="1.0" encoding="utf-8"?>
<!-- Generator: Adobe Illustrator 26.0.1, SVG Export Plug-In . SVG Version: 6.00 Build 0)  -->
<svg version="1.1" id="Layer_1" xmlns="http://www.w3.org/2000/svg" xmlns:xlink="http://www.w3.org/1999/xlink" x="0px" y="0px"
	 viewBox="0 0 826.2 1015.7" style="enable-background:new 0 0 826.2 1015.7;" xml:space="preserve">
<style type="text/css">
	.st0{fill:#51B59F;}
	.st1{opacity:0.7;fill:#349B82;}
	.st2{fill:#FFFFFF;}
	.st3{fill:#CBC4CC;}
	.st4{fill:#FFDFCF;}
	.st5{fill:#FE646F;}
	.st6{fill:#2740B0;}
	.st7{fill:#1F3596;}
	.st8{fill:#EB9C8D;}
	.st9{fill:#FFB09E;}
	.st10{fill:#FD4755;}
	.st11{fill:#BB5D4C;}
	.st12{fill:#A44F3E;}
	.st13{fill:#883F2E;}
	.st14{fill:#FFCEBF;}
	.st15{fill:#FFE177;}
	.st16{fill:#97DA7B;}
	.st17{fill:#314DC9;}
	.st18{fill:#FB2B3A;}
</style>
<g>
	<polygon class="st0" points="409.7,1005.9 506.8,837.7 312.6,837.7 	"/>
	<path class="st0" d="M789.7,185.4v651.2c0,19.5-15.8,35.3-35.3,35.3H65.1c-19.5,0-35.3-15.8-35.3-35.3V185.4
		c0-19.5,15.8-35.3,35.3-35.3h689.3C773.9,150.2,789.7,166,789.7,185.4z"/>
	<path class="st1" d="M789.7,614.9v221.7c0,19.5-15.8,35.3-35.3,35.3H65.1c-19.5,0-35.3-15.8-35.3-35.3V382.7
		C185.1,616.2,447.6,859,789.7,614.9z"/>
	<g>
		<path class="st2" d="M98.4,283.6c2.5-4.6,6.1-8.2,10.6-10.7c4.5-2.6,9.7-3.8,15.4-3.8c7,0,13.1,1.9,18.1,5.6
			c5,3.7,8.4,8.8,10.1,15.2h-15.9c-1.2-2.5-2.9-4.4-5-5.7c-2.2-1.3-4.6-1.9-7.4-1.9c-4.4,0-8.1,1.5-10.8,4.6
			c-2.8,3.1-4.1,7.2-4.1,12.4c0,5.2,1.4,9.3,4.1,12.4c2.8,3.1,6.4,4.6,10.8,4.6c2.8,0,5.2-0.6,7.4-1.9c2.2-1.3,3.8-3.2,5-5.7h15.9
			c-1.7,6.4-5,11.5-10.1,15.2c-5,3.7-11,5.5-18.1,5.5c-5.7,0-10.9-1.3-15.4-3.8c-4.5-2.6-8.1-6.1-10.6-10.7
			c-2.5-4.6-3.8-9.8-3.8-15.6C94.6,293.4,95.9,288.2,98.4,283.6z"/>
		<path class="st2" d="M170.5,326.7c-3.7-2-6.6-4.8-8.7-8.4c-2.1-3.7-3.2-7.9-3.2-12.8c0-4.8,1.1-9.1,3.2-12.8
			c2.1-3.7,5.1-6.5,8.8-8.5c3.7-2,7.9-3,12.5-3c4.6,0,8.8,1,12.5,3c3.7,2,6.6,4.8,8.8,8.5c2.1,3.7,3.2,8,3.2,12.8
			c0,4.8-1.1,9.1-3.3,12.8c-2.2,3.7-5.1,6.5-8.9,8.5c-3.7,2-7.9,3-12.5,3C178.3,329.6,174.2,328.7,170.5,326.7z M190,314.1
			c1.9-2,2.9-4.9,2.9-8.7c0-3.8-0.9-6.7-2.8-8.7c-1.9-2-4.2-3-7-3c-2.8,0-5.2,1-7,3c-1.9,2-2.8,4.9-2.8,8.7c0,3.8,0.9,6.7,2.7,8.7
			c1.8,2,4.1,3,6.9,3C185.7,317.1,188,316.1,190,314.1z"/>
		<path class="st2" d="M229.7,266.5V329h-14.4v-62.5H229.7z"/>
		<path class="st2" d="M254.7,266.5V329h-14.4v-62.5H254.7z"/>
		<path class="st2" d="M309.3,308.9h-32.7c0.2,2.9,1.2,5.2,2.8,6.7c1.7,1.6,3.7,2.3,6.1,2.3c3.6,0,6.1-1.5,7.5-4.6h15.4
			c-0.8,3.1-2.2,5.9-4.3,8.4c-2.1,2.5-4.6,4.4-7.7,5.8c-3.1,1.4-6.6,2.1-10.4,2.1c-4.6,0-8.7-1-12.3-3c-3.6-2-6.4-4.8-8.4-8.4
			c-2-3.7-3-7.9-3-12.8c0-4.9,1-9.2,3-12.8c2-3.7,4.8-6.5,8.4-8.4c3.6-2,7.7-3,12.4-3c4.6,0,8.6,1,12.2,2.9c3.5,1.9,6.3,4.6,8.3,8.2
			c2,3.5,3,7.7,3,12.4C309.6,306,309.5,307.4,309.3,308.9z M294.8,300.8c0-2.5-0.8-4.4-2.5-5.9c-1.7-1.5-3.8-2.2-6.3-2.2
			c-2.4,0-4.5,0.7-6.1,2.1c-1.7,1.4-2.7,3.4-3.1,6H294.8z"/>
		<path class="st2" d="M317.3,292.6c2-3.7,4.8-6.5,8.4-8.4c3.6-2,7.7-3,12.3-3c5.9,0,10.9,1.6,14.8,4.6c4,3.1,6.6,7.5,7.8,13.1
			h-15.4c-1.3-3.6-3.8-5.4-7.5-5.4c-2.6,0-4.8,1-6.3,3.1c-1.6,2.1-2.4,5-2.4,8.8c0,3.8,0.8,6.8,2.4,8.8c1.6,2.1,3.7,3.1,6.3,3.1
			c3.7,0,6.2-1.8,7.5-5.4h15.4c-1.2,5.5-3.9,9.9-7.9,13c-4,3.2-8.9,4.7-14.8,4.7c-4.6,0-8.7-1-12.3-3c-3.6-2-6.4-4.8-8.4-8.4
			c-2-3.7-3-7.9-3-12.8C314.3,300.5,315.3,296.2,317.3,292.6z"/>
		<path class="st2" d="M394.6,316.7V329h-7.4c-5.2,0-9.3-1.3-12.3-3.8c-2.9-2.6-4.4-6.7-4.4-12.5v-18.8h-5.7v-12h5.7v-11.5H385v11.5
			h9.5v12H385v18.9c0,1.4,0.3,2.4,1,3c0.7,0.6,1.8,0.9,3.4,0.9H394.6z"/>
		<path class="st2" d="M111.5,382.6v12h19.3v11.2h-19.3v13h21.9v11.6H97.1V371h36.3v11.6H111.5z"/>
		<path class="st2" d="M170.7,430.4l-9-13.1l-7.6,13.1h-15.6l15.5-24.1l-16-23.1h16.2l9,13l7.6-13h15.6L170.7,407l16.2,23.4H170.7z"
			/>
		<path class="st2" d="M212.7,384.6c2.5-1.4,5.4-2,8.7-2c3.9,0,7.4,1,10.6,3c3.2,2,5.6,4.8,7.5,8.4c1.8,3.7,2.7,7.9,2.7,12.8
			c0,4.8-0.9,9.1-2.7,12.8c-1.8,3.7-4.3,6.5-7.5,8.5c-3.2,2-6.7,3-10.6,3c-3.3,0-6.2-0.7-8.7-2c-2.5-1.4-4.5-3.1-5.9-5.2v29.1h-14.4
			v-69.6h14.4v6.7C208.3,387.7,210.3,385.9,212.7,384.6z M224.5,398.2c-2-2.1-4.5-3.1-7.4-3.1c-2.9,0-5.3,1-7.3,3.1
			c-2,2.1-3,4.9-3,8.5c0,3.6,1,6.5,3,8.5c2,2.1,4.4,3.1,7.3,3.1c2.9,0,5.3-1.1,7.4-3.2c2-2.1,3-5,3-8.6
			C227.5,403.1,226.5,400.3,224.5,398.2z"/>
		<path class="st2" d="M294,410.2h-32.7c0.2,2.9,1.2,5.2,2.8,6.7c1.7,1.6,3.7,2.3,6.1,2.3c3.6,0,6.1-1.5,7.5-4.6h15.4
			c-0.8,3.1-2.2,5.9-4.3,8.4c-2.1,2.5-4.6,4.4-7.7,5.8c-3.1,1.4-6.6,2.1-10.4,2.1c-4.6,0-8.7-1-12.3-3c-3.6-2-6.4-4.8-8.4-8.4
			c-2-3.7-3-7.9-3-12.8s1-9.2,3-12.8c2-3.7,4.8-6.5,8.4-8.4c3.6-2,7.7-3,12.4-3c4.6,0,8.6,1,12.2,2.9c3.5,1.9,6.3,4.6,8.3,8.2
			c2,3.5,3,7.7,3,12.4C294.3,407.4,294.2,408.8,294,410.2z M279.5,402.2c0-2.5-0.8-4.4-2.5-5.9c-1.7-1.5-3.8-2.2-6.3-2.2
			c-2.4,0-4.5,0.7-6.1,2.1c-1.7,1.4-2.7,3.4-3.1,6H279.5z"/>
		<path class="st2" d="M322.7,384.9c2.5-1.5,5.4-2.2,8.4-2.2V398h-4c-3.6,0-6.3,0.8-8.1,2.3c-1.8,1.6-2.7,4.3-2.7,8.2v21.9h-14.4
			v-47.1h14.4v7.9C318,388.5,320.1,386.4,322.7,384.9z"/>
		<path class="st2" d="M339.1,376.1c-1.6-1.5-2.4-3.3-2.4-5.5c0-2.3,0.8-4.1,2.4-5.6c1.6-1.5,3.7-2.2,6.2-2.2c2.5,0,4.5,0.7,6.1,2.2
			c1.6,1.5,2.4,3.4,2.4,5.6c0,2.2-0.8,4-2.4,5.5c-1.6,1.5-3.6,2.2-6.1,2.2C342.8,378.3,340.7,377.6,339.1,376.1z M352.5,383.2v47.1
			H338v-47.1H352.5z"/>
		<path class="st2" d="M407.1,410.2h-32.7c0.2,2.9,1.2,5.2,2.8,6.7c1.7,1.6,3.7,2.3,6.1,2.3c3.6,0,6.1-1.5,7.5-4.6h15.4
			c-0.8,3.1-2.2,5.9-4.3,8.4c-2.1,2.5-4.6,4.4-7.7,5.8c-3.1,1.4-6.6,2.1-10.4,2.1c-4.6,0-8.7-1-12.3-3c-3.6-2-6.4-4.8-8.4-8.4
			c-2-3.7-3-7.9-3-12.8s1-9.2,3-12.8c2-3.7,4.8-6.5,8.4-8.4c3.6-2,7.7-3,12.4-3c4.6,0,8.6,1,12.2,2.9c3.5,1.9,6.3,4.6,8.3,8.2
			c2,3.5,3,7.7,3,12.4C407.4,407.4,407.3,408.8,407.1,410.2z M392.6,402.2c0-2.5-0.8-4.4-2.5-5.9c-1.7-1.5-3.8-2.2-6.3-2.2
			c-2.4,0-4.5,0.7-6.1,2.1c-1.7,1.4-2.7,3.4-3.1,6H392.6z"/>
		<path class="st2" d="M457,388.1c3.3,3.6,4.9,8.5,4.9,14.7v27.5h-14.4v-25.6c0-3.2-0.8-5.6-2.5-7.4c-1.6-1.7-3.8-2.6-6.6-2.6
			c-2.8,0-5,0.9-6.6,2.6c-1.6,1.7-2.5,4.2-2.5,7.4v25.6H415v-47.1h14.4v6.3c1.5-2.1,3.4-3.7,5.9-4.9c2.5-1.2,5.3-1.8,8.4-1.8
			C449.3,382.7,453.7,384.5,457,388.1z"/>
		<path class="st2" d="M472.1,393.9c2-3.7,4.8-6.5,8.4-8.4c3.6-2,7.7-3,12.3-3c5.9,0,10.9,1.6,14.8,4.6c4,3.1,6.6,7.5,7.8,13.1H500
			c-1.3-3.6-3.8-5.4-7.5-5.4c-2.6,0-4.8,1-6.3,3.1c-1.6,2.1-2.4,5-2.4,8.8c0,3.8,0.8,6.8,2.4,8.8c1.6,2.1,3.7,3.1,6.3,3.1
			c3.7,0,6.2-1.8,7.5-5.4h15.4c-1.2,5.5-3.9,9.9-7.9,13c-4,3.2-8.9,4.7-14.8,4.7c-4.6,0-8.7-1-12.3-3c-3.6-2-6.4-4.8-8.4-8.4
			c-2-3.7-3-7.9-3-12.8S470.1,397.6,472.1,393.9z"/>
		<path class="st2" d="M567.2,410.2h-32.7c0.2,2.9,1.2,5.2,2.8,6.7c1.7,1.6,3.7,2.3,6.1,2.3c3.6,0,6.1-1.5,7.5-4.6h15.4
			c-0.8,3.1-2.2,5.9-4.3,8.4c-2.1,2.5-4.6,4.4-7.7,5.8c-3.1,1.4-6.6,2.1-10.4,2.1c-4.6,0-8.7-1-12.3-3c-3.6-2-6.4-4.8-8.4-8.4
			c-2-3.7-3-7.9-3-12.8s1-9.2,3-12.8c2-3.7,4.8-6.5,8.4-8.4c3.6-2,7.7-3,12.4-3c4.6,0,8.6,1,12.2,2.9c3.5,1.9,6.3,4.6,8.3,8.2
			c2,3.5,3,7.7,3,12.4C567.5,407.4,567.4,408.8,567.2,410.2z M552.7,402.2c0-2.5-0.8-4.4-2.5-5.9c-1.7-1.5-3.8-2.2-6.3-2.2
			c-2.4,0-4.5,0.7-6.1,2.1c-1.7,1.4-2.7,3.4-3.1,6H552.7z"/>
		<path class="st2" d="M583.3,428.9c-3.2-1.4-5.7-3.3-7.6-5.8c-1.9-2.5-2.9-5.2-3.1-8.2h14.3c0.2,1.6,0.9,3,2.3,4c1.4,1,3,1.5,5,1.5
			c1.8,0,3.2-0.4,4.2-1.1c1-0.7,1.5-1.6,1.5-2.7c0-1.4-0.7-2.4-2.1-3c-1.4-0.6-3.7-1.4-6.8-2.2c-3.4-0.8-6.2-1.6-8.4-2.5
			c-2.3-0.9-4.2-2.3-5.8-4.1c-1.6-1.9-2.5-4.4-2.5-7.6c0-2.7,0.7-5.2,2.2-7.4c1.5-2.2,3.7-4,6.6-5.3c2.9-1.3,6.3-1.9,10.3-1.9
			c5.9,0,10.6,1.5,14,4.4c3.4,2.9,5.4,6.8,5.9,11.7h-13.3c-0.2-1.6-0.9-2.9-2.2-3.9c-1.2-1-2.8-1.4-4.8-1.4c-1.7,0-3,0.3-3.9,1
			c-0.9,0.6-1.4,1.5-1.4,2.7c0,1.4,0.7,2.4,2.2,3c1.4,0.7,3.7,1.4,6.7,2c3.5,0.9,6.3,1.8,8.5,2.7c2.2,0.9,4.1,2.3,5.8,4.2
			c1.7,1.9,2.5,4.5,2.6,7.8c0,2.8-0.8,5.2-2.3,7.4c-1.5,2.2-3.8,3.9-6.7,5.1c-2.9,1.2-6.3,1.9-10.1,1.9
			C590.2,431,586.5,430.3,583.3,428.9z"/>
	</g>
	<g>
		<path class="st2" d="M126,556.2l-21.6-23.9v23.9h-6.8v-52.3h6.8v24.3l21.6-24.3h8.6L111,530.1l24,26.1H126z"/>
		<path class="st2" d="M142.8,507c-0.9-0.9-1.4-2-1.4-3.3c0-1.3,0.5-2.4,1.4-3.3c0.9-0.9,2-1.4,3.3-1.4c1.3,0,2.3,0.5,3.2,1.4
			c0.9,0.9,1.3,2,1.3,3.3c0,1.3-0.4,2.4-1.3,3.3c-0.9,0.9-1.9,1.4-3.2,1.4C144.8,508.4,143.7,507.9,142.8,507z M149.5,515.1v41.2
			h-6.8v-41.2H149.5z"/>
		<path class="st2" d="M161.1,524.4c1.7-3.2,4-5.6,7-7.4c3-1.8,6.3-2.6,10-2.6c3.2,0,6.2,0.7,8.9,2.2c2.8,1.5,4.9,3.4,6.3,5.8v-21.8
			h6.9v55.6h-6.9v-7.7c-1.4,2.5-3.4,4.5-6,6c-2.7,1.6-5.8,2.4-9.3,2.4c-3.7,0-7-0.9-10-2.7c-3-1.8-5.3-4.3-7-7.6
			c-1.7-3.3-2.6-7-2.6-11.1C158.5,531.3,159.4,527.6,161.1,524.4z M191.5,527.5c-1.3-2.3-2.9-4.1-5.1-5.3c-2.1-1.2-4.5-1.8-7-1.8
			c-2.6,0-4.9,0.6-7,1.8c-2.1,1.2-3.8,3-5,5.3c-1.3,2.3-1.9,5-1.9,8.1c0,3.2,0.6,5.9,1.9,8.2c1.3,2.3,2.9,4.1,5,5.3
			c2.1,1.2,4.4,1.8,7,1.8c2.6,0,4.9-0.6,7-1.8c2.1-1.2,3.8-3,5.1-5.3c1.3-2.3,1.9-5,1.9-8.1C193.4,532.5,192.8,529.8,191.5,527.5z"
			/>
		<path class="st2" d="M217.9,555.3c-2.5-1.1-4.5-2.6-5.9-4.5c-1.5-1.9-2.3-4.1-2.4-6.6h7.1c0.2,2.1,1.2,3.7,2.9,5
			c1.7,1.3,4,2,6.8,2c2.6,0,4.7-0.6,6.2-1.7c1.5-1.2,2.3-2.6,2.3-4.4c0-1.8-0.8-3.1-2.4-4c-1.6-0.9-4.1-1.7-7.4-2.6
			c-3.1-0.8-5.5-1.6-7.5-2.4c-1.9-0.8-3.6-2.1-5-3.7c-1.4-1.6-2.1-3.8-2.1-6.4c0-2.1,0.6-4,1.9-5.8c1.3-1.8,3-3.1,5.3-4.2
			c2.3-1,4.9-1.5,7.9-1.5c4.6,0,8.2,1.2,11,3.5c2.8,2.3,4.3,5.5,4.5,9.5h-6.8c-0.2-2.2-1-3.9-2.6-5.2c-1.6-1.3-3.7-2-6.3-2
			c-2.5,0-4.4,0.5-5.9,1.6c-1.5,1.1-2.2,2.4-2.2,4.1c0,1.4,0.4,2.5,1.3,3.3c0.9,0.9,2,1.6,3.3,2.1c1.3,0.5,3.2,1.1,5.5,1.8
			c3,0.8,5.4,1.6,7.2,2.4c1.9,0.8,3.4,1.9,4.8,3.5c1.3,1.6,2,3.6,2.1,6.1c0,2.3-0.6,4.3-1.9,6.1c-1.3,1.8-3,3.2-5.3,4.2
			c-2.3,1-4.9,1.5-7.8,1.5C223.3,556.9,220.4,556.4,217.9,555.3z"/>
		<path class="st2" d="M284.1,516.7c2.7-1.6,5.8-2.3,9.2-2.3c3.7,0,7,0.9,10,2.6c3,1.8,5.3,4.2,7,7.4c1.7,3.2,2.6,6.9,2.6,11.1
			c0,4.2-0.9,7.9-2.6,11.1c-1.7,3.3-4,5.8-7,7.6c-3,1.8-6.3,2.7-10,2.7c-3.6,0-6.7-0.8-9.3-2.3c-2.7-1.6-4.7-3.5-6-5.9v7.6h-6.8
			v-55.6h6.8v22.1C279.3,520.3,281.4,518.3,284.1,516.7z M304,527.4c-1.3-2.3-2.9-4.1-5.1-5.3c-2.1-1.2-4.5-1.8-7-1.8
			c-2.5,0-4.8,0.6-6.9,1.8c-2.1,1.2-3.8,3-5.1,5.3c-1.3,2.3-1.9,5-1.9,8.1c0,3.1,0.6,5.8,1.9,8.1c1.3,2.3,3,4.1,5.1,5.3
			c2.1,1.2,4.4,1.8,6.9,1.8c2.6,0,4.9-0.6,7-1.8c2.1-1.2,3.8-3,5.1-5.3c1.3-2.3,1.9-5.1,1.9-8.2C305.9,532.4,305.3,529.7,304,527.4z
			"/>
		<path class="st2" d="M358.4,515.1v41.2h-6.8v-6.1c-1.3,2.1-3.1,3.7-5.4,4.9c-2.3,1.2-4.9,1.8-7.7,1.8c-3.2,0-6.1-0.7-8.6-2
			c-2.6-1.3-4.6-3.3-6-6c-1.5-2.7-2.2-5.9-2.2-9.7v-24.1h6.8v23.2c0,4.1,1,7.2,3.1,9.3c2.1,2.2,4.9,3.3,8.4,3.3
			c3.7,0,6.5-1.1,8.6-3.4c2.1-2.3,3.2-5.5,3.2-9.8v-22.6H358.4z"/>
		<path class="st2" d="M370.2,507c-0.9-0.9-1.4-2-1.4-3.3c0-1.3,0.5-2.4,1.4-3.3c0.9-0.9,2-1.4,3.3-1.4c1.3,0,2.3,0.5,3.2,1.4
			c0.9,0.9,1.3,2,1.3,3.3c0,1.3-0.4,2.4-1.3,3.3c-0.9,0.9-1.9,1.4-3.2,1.4C372.2,508.4,371.1,507.9,370.2,507z M376.8,515.1v41.2
			h-6.8v-41.2H376.8z"/>
		<path class="st2" d="M395.2,500.7v55.6h-6.8v-55.6H395.2z"/>
		<path class="st2" d="M406.9,524.4c1.7-3.2,4-5.6,7-7.4c3-1.8,6.3-2.6,10-2.6c3.2,0,6.2,0.7,8.9,2.2c2.8,1.5,4.9,3.4,6.3,5.8v-21.8
			h6.9v55.6h-6.9v-7.7c-1.4,2.5-3.4,4.5-6,6c-2.7,1.6-5.8,2.4-9.3,2.4c-3.7,0-7-0.9-10-2.7c-3-1.8-5.3-4.3-7-7.6
			c-1.7-3.3-2.6-7-2.6-11.1C404.3,531.3,405.2,527.6,406.9,524.4z M437.3,527.5c-1.3-2.3-2.9-4.1-5.1-5.3c-2.1-1.2-4.5-1.8-7-1.8
			c-2.6,0-4.9,0.6-7,1.8c-2.1,1.2-3.8,3-5,5.3c-1.3,2.3-1.9,5-1.9,8.1c0,3.2,0.6,5.9,1.9,8.2c1.3,2.3,2.9,4.1,5,5.3
			c2.1,1.2,4.4,1.8,7,1.8c2.6,0,4.9-0.6,7-1.8c2.1-1.2,3.8-3,5.1-5.3c1.3-2.3,1.9-5,1.9-8.1C439.2,532.5,438.6,529.8,437.3,527.5z"
			/>
		<path class="st2" d="M483.8,555.3c-2.5-1.1-4.5-2.6-5.9-4.5c-1.5-1.9-2.3-4.1-2.4-6.6h7.1c0.2,2.1,1.2,3.7,2.9,5
			c1.7,1.3,4,2,6.8,2c2.6,0,4.7-0.6,6.2-1.7c1.5-1.2,2.3-2.6,2.3-4.4c0-1.8-0.8-3.1-2.4-4c-1.6-0.9-4.1-1.7-7.4-2.6
			c-3.1-0.8-5.5-1.6-7.5-2.4c-1.9-0.8-3.6-2.1-5-3.7c-1.4-1.6-2.1-3.8-2.1-6.4c0-2.1,0.6-4,1.9-5.8c1.3-1.8,3-3.1,5.3-4.2
			c2.3-1,4.9-1.5,7.9-1.5c4.6,0,8.2,1.2,11,3.5c2.8,2.3,4.3,5.5,4.5,9.5h-6.8c-0.2-2.2-1-3.9-2.6-5.2c-1.6-1.3-3.7-2-6.3-2
			c-2.5,0-4.4,0.5-5.9,1.6c-1.5,1.1-2.2,2.4-2.2,4.1c0,1.4,0.4,2.5,1.3,3.3c0.9,0.9,2,1.6,3.3,2.1c1.3,0.5,3.2,1.1,5.5,1.8
			c3,0.8,5.4,1.6,7.2,2.4c1.9,0.8,3.4,1.9,4.8,3.5c1.3,1.6,2,3.6,2.1,6.1c0,2.3-0.6,4.3-1.9,6.1c-1.3,1.8-3,3.2-5.3,4.2
			c-2.3,1-4.9,1.5-7.8,1.5C489.1,556.9,486.3,556.4,483.8,555.3z"/>
		<path class="st2" d="M539.9,556.2l-16.1-18.2v18.2h-6.8v-55.6h6.8v32.7l15.8-18.2h9.5l-19.4,20.5l19.5,20.7H539.9z"/>
		<path class="st2" d="M555.8,507c-0.9-0.9-1.4-2-1.4-3.3c0-1.3,0.5-2.4,1.4-3.3c0.9-0.9,2-1.4,3.3-1.4c1.3,0,2.3,0.5,3.2,1.4
			c0.9,0.9,1.3,2,1.3,3.3c0,1.3-0.4,2.4-1.3,3.3c-0.9,0.9-1.9,1.4-3.2,1.4C557.8,508.4,556.7,507.9,555.8,507z M562.4,515.1v41.2
			h-6.8v-41.2H562.4z"/>
		<path class="st2" d="M580.9,500.7v55.6h-6.8v-55.6H580.9z"/>
		<path class="st2" d="M599.4,500.7v55.6h-6.8v-55.6H599.4z"/>
		<path class="st2" d="M617.1,555.3c-2.5-1.1-4.5-2.6-5.9-4.5c-1.5-1.9-2.3-4.1-2.4-6.6h7.1c0.2,2.1,1.2,3.7,2.9,5
			c1.7,1.3,4,2,6.8,2c2.6,0,4.7-0.6,6.2-1.7c1.5-1.2,2.3-2.6,2.3-4.4c0-1.8-0.8-3.1-2.4-4c-1.6-0.9-4.1-1.7-7.4-2.6
			c-3.1-0.8-5.5-1.6-7.5-2.4c-1.9-0.8-3.6-2.1-5-3.7c-1.4-1.6-2.1-3.8-2.1-6.4c0-2.1,0.6-4,1.9-5.8c1.3-1.8,3-3.1,5.3-4.2
			c2.3-1,4.9-1.5,7.9-1.5c4.6,0,8.2,1.2,11,3.5c2.8,2.3,4.3,5.5,4.5,9.5h-6.8c-0.2-2.2-1-3.9-2.6-5.2c-1.6-1.3-3.7-2-6.3-2
			c-2.5,0-4.4,0.5-5.9,1.6c-1.5,1.1-2.2,2.4-2.2,4.1c0,1.4,0.4,2.5,1.3,3.3c0.9,0.9,2,1.6,3.3,2.1c1.3,0.5,3.2,1.1,5.5,1.8
			c3,0.8,5.4,1.6,7.2,2.4c1.9,0.8,3.4,1.9,4.8,3.5c1.3,1.6,2,3.6,2.1,6.1c0,2.3-0.6,4.3-1.9,6.1c-1.3,1.8-3,3.2-5.3,4.2
			c-2.3,1-4.9,1.5-7.8,1.5C622.4,556.9,619.6,556.4,617.1,555.3z"/>
		<path class="st2" d="M670.5,507c-0.9-0.9-1.4-2-1.4-3.3c0-1.3,0.5-2.4,1.4-3.3c0.9-0.9,2-1.4,3.3-1.4c1.3,0,2.3,0.5,3.2,1.4
			c0.9,0.9,1.3,2,1.3,3.3c0,1.3-0.4,2.4-1.3,3.3c-0.9,0.9-1.9,1.4-3.2,1.4C672.5,508.4,671.4,507.9,670.5,507z M677.1,515.1v41.2
			h-6.8v-41.2H677.1z"/>
		<path class="st2" d="M720.9,518.9c3.1,3,4.7,7.4,4.7,13.1v24.3h-6.8v-23.3c0-4.1-1-7.2-3.1-9.4c-2.1-2.2-4.9-3.3-8.4-3.3
			c-3.6,0-6.5,1.1-8.6,3.4c-2.1,2.3-3.2,5.5-3.2,9.8v22.8h-6.8v-41.2h6.8v5.9c1.4-2.1,3.2-3.7,5.5-4.9c2.3-1.2,4.9-1.7,7.7-1.7
			C713.8,514.3,717.8,515.8,720.9,518.9z"/>
		<path class="st2" d="M97.6,614.5c1.7-3.2,4-5.6,7-7.4c3-1.8,6.3-2.6,10-2.6c3.6,0,6.7,0.8,9.4,2.3c2.7,1.6,4.6,3.5,5.9,5.9v-7.5
			h6.9v41.2h-6.9v-7.7c-1.4,2.4-3.4,4.4-6,6c-2.7,1.6-5.8,2.4-9.3,2.4c-3.7,0-7-0.9-9.9-2.7c-3-1.8-5.3-4.3-7-7.6
			c-1.7-3.3-2.6-7-2.6-11.1C95.1,621.4,95.9,617.7,97.6,614.5z M128.1,617.6c-1.3-2.3-2.9-4.1-5.1-5.3c-2.1-1.2-4.5-1.8-7-1.8
			c-2.6,0-4.9,0.6-7,1.8c-2.1,1.2-3.8,3-5,5.3c-1.3,2.3-1.9,5-1.9,8.1c0,3.2,0.6,5.9,1.9,8.2c1.3,2.3,2.9,4.1,5,5.3
			c2.1,1.2,4.4,1.8,7,1.8c2.6,0,4.9-0.6,7-1.8c2.1-1.2,3.8-3,5.1-5.3c1.3-2.3,1.9-5,1.9-8.1C129.9,622.6,129.3,619.9,128.1,617.6z"
			/>
		<path class="st2" d="M185.2,610.8h-8.6v35.5h-6.8v-35.5h-5.3v-5.6h5.3v-2.9c0-4.6,1.2-8,3.6-10.1c2.4-2.1,6.2-3.2,11.5-3.2v5.7
			c-3,0-5.1,0.6-6.3,1.8c-1.2,1.2-1.8,3.1-1.8,5.8v2.9h8.6V610.8z"/>
		<path class="st2" d="M229.7,605.2v41.2h-6.8v-6.1c-1.3,2.1-3.1,3.7-5.4,4.9c-2.3,1.2-4.9,1.8-7.7,1.8c-3.2,0-6.1-0.7-8.6-2
			c-2.6-1.3-4.6-3.3-6-6c-1.5-2.7-2.2-5.9-2.2-9.7v-24.1h6.8v23.2c0,4.1,1,7.2,3.1,9.3c2.1,2.2,4.9,3.3,8.4,3.3
			c3.7,0,6.5-1.1,8.6-3.4c2.1-2.3,3.2-5.5,3.2-9.8v-22.6H229.7z"/>
		<path class="st2" d="M273.4,609c3.1,3,4.7,7.4,4.7,13.1v24.3h-6.8v-23.3c0-4.1-1-7.2-3.1-9.4c-2.1-2.2-4.9-3.3-8.4-3.3
			c-3.6,0-6.5,1.1-8.6,3.4c-2.1,2.3-3.2,5.5-3.2,9.8v22.8h-6.8v-41.2h6.8v5.9c1.4-2.1,3.2-3.7,5.5-4.9c2.3-1.2,4.9-1.7,7.7-1.7
			C266.3,604.4,270.3,606,273.4,609z"/>
		<path class="st2" d="M309.3,614.5c1.7-3.2,4-5.6,7-7.4c3-1.8,6.3-2.6,10-2.6c3.6,0,6.7,0.8,9.4,2.3c2.7,1.6,4.6,3.5,5.9,5.9v-7.5
			h6.9v41.2h-6.9v-7.7c-1.4,2.4-3.4,4.4-6,6c-2.7,1.6-5.8,2.4-9.3,2.4c-3.7,0-7-0.9-9.9-2.7c-3-1.8-5.3-4.3-7-7.6
			c-1.7-3.3-2.6-7-2.6-11.1C306.8,621.4,307.6,617.7,309.3,614.5z M339.8,617.6c-1.3-2.3-2.9-4.1-5.1-5.3c-2.1-1.2-4.5-1.8-7-1.8
			c-2.6,0-4.9,0.6-7,1.8c-2.1,1.2-3.8,3-5,5.3c-1.3,2.3-1.9,5-1.9,8.1c0,3.2,0.6,5.9,1.9,8.2c1.3,2.3,2.9,4.1,5,5.3
			c2.1,1.2,4.4,1.8,7,1.8c2.6,0,4.9-0.6,7-1.8c2.1-1.2,3.8-3,5.1-5.3c1.3-2.3,1.9-5,1.9-8.1C341.6,622.6,341,619.9,339.8,617.6z"/>
		<path class="st2" d="M392.3,609c3.1,3,4.7,7.4,4.7,13.1v24.3h-6.8v-23.3c0-4.1-1-7.2-3.1-9.4c-2.1-2.2-4.9-3.3-8.4-3.3
			c-3.6,0-6.5,1.1-8.6,3.4c-2.1,2.3-3.2,5.5-3.2,9.8v22.8h-6.8v-41.2h6.8v5.9c1.4-2.1,3.2-3.7,5.5-4.9c2.3-1.2,4.9-1.7,7.7-1.7
			C385.2,604.4,389.2,606,392.3,609z"/>
		<path class="st2" d="M408.2,614.5c1.7-3.2,4-5.6,7-7.4c3-1.8,6.3-2.6,10-2.6c3.2,0,6.2,0.7,8.9,2.2c2.8,1.5,4.9,3.4,6.3,5.8v-21.8
			h6.9v55.6h-6.9v-7.7c-1.4,2.5-3.4,4.5-6,6c-2.7,1.6-5.8,2.4-9.3,2.4c-3.7,0-7-0.9-10-2.7c-3-1.8-5.3-4.3-7-7.6
			c-1.7-3.3-2.6-7-2.6-11.1C405.6,621.4,406.5,617.7,408.2,614.5z M438.6,617.6c-1.3-2.3-2.9-4.1-5.1-5.3c-2.1-1.2-4.5-1.8-7-1.8
			c-2.6,0-4.9,0.6-7,1.8c-2.1,1.2-3.8,3-5,5.3c-1.3,2.3-1.9,5-1.9,8.1c0,3.2,0.6,5.9,1.9,8.2c1.3,2.3,2.9,4.1,5,5.3
			c2.1,1.2,4.4,1.8,7,1.8c2.6,0,4.9-0.6,7-1.8c2.1-1.2,3.8-3,5.1-5.3c1.3-2.3,1.9-5,1.9-8.1C440.5,622.6,439.8,619.9,438.6,617.6z"
			/>
		<path class="st2" d="M485.1,645.4c-2.5-1.1-4.5-2.6-5.9-4.5c-1.5-1.9-2.3-4.1-2.4-6.6h7.1c0.2,2.1,1.2,3.7,2.9,5
			c1.7,1.3,4,2,6.8,2c2.6,0,4.7-0.6,6.2-1.7c1.5-1.2,2.3-2.6,2.3-4.4c0-1.8-0.8-3.1-2.4-4c-1.6-0.9-4.1-1.7-7.4-2.6
			c-3.1-0.8-5.5-1.6-7.5-2.4c-1.9-0.8-3.6-2.1-5-3.7c-1.4-1.6-2.1-3.8-2.1-6.4c0-2.1,0.6-4,1.9-5.8c1.3-1.8,3-3.1,5.3-4.2
			c2.3-1,4.9-1.5,7.9-1.5c4.6,0,8.2,1.2,11,3.5c2.8,2.3,4.3,5.5,4.5,9.5h-6.8c-0.2-2.2-1-3.9-2.6-5.2c-1.6-1.3-3.7-2-6.3-2
			c-2.5,0-4.4,0.5-5.9,1.6c-1.5,1.1-2.2,2.4-2.2,4.1c0,1.4,0.4,2.5,1.3,3.3c0.9,0.9,2,1.6,3.3,2.1c1.3,0.5,3.2,1.1,5.5,1.8
			c3,0.8,5.4,1.6,7.2,2.4c1.9,0.8,3.4,1.9,4.8,3.5c1.3,1.6,2,3.6,2.1,6.1c0,2.3-0.6,4.3-1.9,6.1c-1.3,1.8-3,3.2-5.3,4.2
			c-2.3,1-4.9,1.5-7.8,1.5C490.4,647,487.6,646.5,485.1,645.4z"/>
		<path class="st2" d="M518.2,614.5c1.7-3.2,4-5.6,7-7.4c3-1.8,6.3-2.6,10-2.6c3.6,0,6.7,0.8,9.4,2.3c2.7,1.6,4.6,3.5,5.9,5.9v-7.5
			h6.9v41.2h-6.9v-7.7c-1.4,2.4-3.4,4.4-6,6c-2.7,1.6-5.8,2.4-9.3,2.4c-3.7,0-7-0.9-9.9-2.7c-3-1.8-5.3-4.3-7-7.6
			c-1.7-3.3-2.6-7-2.6-11.1C515.6,621.4,516.5,617.7,518.2,614.5z M548.6,617.6c-1.3-2.3-2.9-4.1-5.1-5.3c-2.1-1.2-4.5-1.8-7-1.8
			c-2.6,0-4.9,0.6-7,1.8c-2.1,1.2-3.8,3-5,5.3c-1.3,2.3-1.9,5-1.9,8.1c0,3.2,0.6,5.9,1.9,8.2c1.3,2.3,2.9,4.1,5,5.3
			c2.1,1.2,4.4,1.8,7,1.8c2.6,0,4.9-0.6,7-1.8c2.1-1.2,3.8-3,5.1-5.3c1.3-2.3,1.9-5,1.9-8.1C550.5,622.6,549.9,619.9,548.6,617.6z"
			/>
		<path class="st2" d="M585.7,610.8h-8.6v35.5h-6.8v-35.5h-5.3v-5.6h5.3v-2.9c0-4.6,1.2-8,3.6-10.1c2.4-2.1,6.2-3.2,11.5-3.2v5.7
			c-3,0-5.1,0.6-6.3,1.8c-1.2,1.2-1.8,3.1-1.8,5.8v2.9h8.6V610.8z"/>
		<path class="st2" d="M631,628.3h-32.9c0.2,4.1,1.6,7.2,4.2,9.5c2.5,2.3,5.6,3.4,9.2,3.4c3,0,5.4-0.7,7.4-2.1
			c2-1.4,3.4-3.2,4.2-5.5h7.4c-1.1,4-3.3,7.2-6.6,9.7c-3.3,2.5-7.4,3.7-12.3,3.7c-3.9,0-7.4-0.9-10.5-2.6s-5.5-4.2-7.2-7.5
			c-1.8-3.2-2.6-7-2.6-11.2c0-4.3,0.9-8,2.6-11.2c1.7-3.2,4.1-5.7,7.2-7.4c3.1-1.7,6.6-2.6,10.6-2.6c3.9,0,7.4,0.9,10.4,2.6
			c3,1.7,5.3,4,6.9,7c1.6,3,2.4,6.3,2.4,10.1C631.2,625.5,631.1,626.9,631,628.3z M622.4,616c-1.2-1.9-2.7-3.3-4.7-4.3
			c-2-1-4.2-1.5-6.6-1.5c-3.5,0-6.4,1.1-8.8,3.3c-2.4,2.2-3.8,5.3-4.2,9.2h26C624.2,620.2,623.6,617.9,622.4,616z"/>
		<path class="st2" d="M103.7,735.5c-2.5-1.1-4.5-2.6-5.9-4.5c-1.5-1.9-2.3-4.1-2.4-6.6h7.1c0.2,2.1,1.2,3.7,2.9,5
			c1.7,1.3,4,2,6.8,2c2.6,0,4.7-0.6,6.2-1.7c1.5-1.2,2.3-2.6,2.3-4.4c0-1.8-0.8-3.1-2.4-4c-1.6-0.9-4.1-1.7-7.4-2.6
			c-3.1-0.8-5.5-1.6-7.5-2.4c-1.9-0.8-3.6-2.1-5-3.7c-1.4-1.6-2.1-3.8-2.1-6.4c0-2.1,0.6-4,1.9-5.8c1.3-1.8,3-3.1,5.3-4.2
			c2.3-1,4.9-1.5,7.9-1.5c4.6,0,8.2,1.2,11,3.5c2.8,2.3,4.3,5.5,4.5,9.5H120c-0.2-2.2-1-3.9-2.6-5.2c-1.6-1.3-3.7-2-6.3-2
			c-2.5,0-4.4,0.5-5.9,1.6c-1.5,1.1-2.2,2.4-2.2,4.1c0,1.4,0.4,2.5,1.3,3.3c0.9,0.9,2,1.6,3.3,2.1c1.3,0.5,3.2,1.1,5.5,1.8
			c3,0.8,5.4,1.6,7.2,2.4c1.9,0.8,3.4,1.9,4.8,3.5c1.3,1.6,2,3.6,2.1,6.1c0,2.3-0.6,4.3-1.9,6.1c-1.3,1.8-3,3.2-5.3,4.2
			c-2.3,1-4.9,1.5-7.8,1.5C109.1,737.1,106.2,736.6,103.7,735.5z"/>
		<path class="st2" d="M149.7,697c2.7-1.6,5.8-2.4,9.3-2.4c3.7,0,7,0.9,10,2.6c3,1.8,5.3,4.2,7,7.4c1.7,3.2,2.6,6.9,2.6,11.1
			c0,4.2-0.9,7.9-2.6,11.1c-1.7,3.3-4,5.8-7,7.6c-3,1.8-6.3,2.7-10,2.7c-3.5,0-6.6-0.8-9.3-2.4c-2.7-1.6-4.7-3.5-6.1-5.9V756h-6.8
			v-60.7h6.8v7.6C145,700.5,147,698.6,149.7,697z M169.7,707.6c-1.3-2.3-2.9-4.1-5.1-5.3c-2.1-1.2-4.5-1.8-7-1.8
			c-2.5,0-4.8,0.6-6.9,1.8c-2.1,1.2-3.8,3-5.1,5.3c-1.3,2.3-1.9,5-1.9,8.1c0,3.1,0.6,5.8,1.9,8.1c1.3,2.3,3,4.1,5.1,5.3
			c2.1,1.2,4.4,1.8,6.9,1.8c2.6,0,4.9-0.6,7-1.8c2.1-1.2,3.8-3,5.1-5.3c1.3-2.3,1.9-5.1,1.9-8.2C171.6,712.6,171,709.9,169.7,707.6z
			"/>
		<path class="st2" d="M187.6,704.7c1.7-3.2,4-5.6,7-7.4c3-1.8,6.3-2.6,10-2.6c3.6,0,6.7,0.8,9.4,2.3c2.7,1.6,4.6,3.5,5.9,5.9v-7.5
			h6.9v41.2h-6.9v-7.7c-1.4,2.4-3.4,4.4-6,6c-2.7,1.6-5.8,2.4-9.3,2.4c-3.7,0-7-0.9-9.9-2.7c-3-1.8-5.3-4.3-7-7.6
			c-1.7-3.3-2.6-7-2.6-11.1C185.1,711.5,185.9,707.8,187.6,704.7z M218,707.7c-1.3-2.3-2.9-4.1-5.1-5.3c-2.1-1.2-4.5-1.8-7-1.8
			c-2.6,0-4.9,0.6-7,1.8c-2.1,1.2-3.8,3-5,5.3c-1.3,2.3-1.9,5-1.9,8.1c0,3.2,0.6,5.9,1.9,8.2c1.3,2.3,2.9,4.1,5,5.3
			c2.1,1.2,4.4,1.8,7,1.8c2.6,0,4.9-0.6,7-1.8c2.1-1.2,3.8-3,5.1-5.3c1.3-2.3,1.9-5,1.9-8.1C219.9,712.7,219.3,710,218,707.7z"/>
		<path class="st2" d="M238.4,704.7c1.7-3.2,4.1-5.6,7.1-7.4c3-1.8,6.5-2.6,10.4-2.6c5.1,0,9.2,1.2,12.5,3.7
			c3.3,2.5,5.4,5.9,6.5,10.2h-7.4c-0.7-2.5-2.1-4.5-4.1-5.9c-2-1.5-4.5-2.2-7.5-2.2c-3.9,0-7.1,1.3-9.5,4c-2.4,2.7-3.6,6.5-3.6,11.4
			c0,5,1.2,8.8,3.6,11.5c2.4,2.7,5.6,4.1,9.5,4.1c3,0,5.5-0.7,7.5-2.1c2-1.4,3.4-3.4,4.1-6h7.4c-1.1,4.2-3.3,7.6-6.6,10.1
			c-3.3,2.5-7.4,3.8-12.4,3.8c-3.9,0-7.4-0.9-10.4-2.6c-3-1.8-5.4-4.2-7.1-7.4c-1.7-3.2-2.6-7-2.6-11.3
			C235.8,711.6,236.7,707.8,238.4,704.7z"/>
		<path class="st2" d="M321.3,718.4h-32.9c0.2,4.1,1.6,7.2,4.2,9.5c2.5,2.3,5.6,3.4,9.2,3.4c3,0,5.4-0.7,7.4-2.1
			c2-1.4,3.4-3.2,4.2-5.5h7.4c-1.1,4-3.3,7.2-6.6,9.7c-3.3,2.5-7.4,3.7-12.3,3.7c-3.9,0-7.4-0.9-10.5-2.6c-3.1-1.8-5.5-4.2-7.2-7.5
			c-1.8-3.2-2.6-7-2.6-11.2c0-4.3,0.9-8,2.6-11.2c1.7-3.2,4.1-5.7,7.2-7.4c3.1-1.7,6.6-2.6,10.6-2.6c3.9,0,7.4,0.9,10.4,2.6
			c3,1.7,5.3,4,6.9,7c1.6,3,2.4,6.3,2.4,10.1C321.5,715.6,321.4,717,321.3,718.4z M312.7,706.2c-1.2-1.9-2.7-3.3-4.7-4.3
			c-2-1-4.2-1.5-6.6-1.5c-3.5,0-6.4,1.1-8.8,3.3c-2.4,2.2-3.8,5.3-4.2,9.2h26C314.4,710.3,313.9,708,312.7,706.2z"/>
	</g>
	<g>
		<g>
			<path class="st3" d="M410.7,145.1v36.8c2-1.1,4.2-1.6,6.5-1.6c1.7,0,3.4,0.3,5,0.9v-36.1L410.7,145.1z"/>
		</g>
		<g>
			<g>
				<path class="st4" d="M482.9,223.7h-15.2l-39.9-39.9c-5.7-5.7-15.2-5.9-20.8-0.1c-5.4,5.6-5.3,14.6,0.2,20.1l42.5,42.5
					c3.8,3.8,9.1,6,14.5,6h18.6L482.9,223.7L482.9,223.7z"/>
			</g>
		</g>
		<g>
			<path class="st5" d="M481.4,145.8h-70.7V96.9c0-2.2,1.8-4,4-4h66.7c2.2,0,4,1.8,4,4v44.9C485.4,144.1,483.6,145.8,481.4,145.8z"
				/>
		</g>
		<path class="st3" d="M777.3,104.9c1.6-0.6,3.2-0.9,4.9-0.9c2.3,0,4.6,0.6,6.6,1.8v-37h-11.5V104.9z"/>
		<g>
			<g>
				<g>
					<g>
						<g>
							<path class="st4" d="M482.9,223.7h-15.2l-39.9-39.9c-5.7-5.7-15.2-5.9-20.8-0.1c-5.4,5.6-5.3,14.6,0.2,20.1l42.5,42.5
								c3.8,3.8,9.1,6,14.5,6h18.6L482.9,223.7L482.9,223.7z"/>
						</g>
					</g>
					<g>
						<path class="st6" d="M623.5,243c0-3.7-1-7.4-2.9-10.6l-5-8.7H482.1v28.7h31.2c2.2,0,4,1.8,4,4v89.9c0,4.4,3.5,7.9,7.9,7.9
							h98.3L623.5,243z"/>
					</g>
					<g>
						<g>
							<path class="st7" d="M620.6,232.4l-5-8.7h-15.4l0,99.1c0,4.4-3.5,7.9-7.9,7.9h-75.1v15.6c0,4.4,3.5,7.9,7.9,7.9h98.3l0-111.2
								C623.5,239.3,622.5,235.6,620.6,232.4z"/>
						</g>
					</g>
					<g>
						<g>
							<g>
								<path class="st8" d="M789.4,105.3c-6.9-4.2-16-1.5-20,5.4l-38.7,67l0.7,1.4l22.5,13l1.7,0l38.9-67.3
									C798.4,117.9,796.1,109.3,789.4,105.3L789.4,105.3z"/>
							</g>
							<g>
								<path class="st9" d="M620.5,179.1l0.8-1.4l-38.7-67c-4-7-13.1-9.6-20-5.4c-6.7,4-8.9,12.7-5,19.5l38.9,67.3l1.5,0.1
									L620.5,179.1z"/>
							</g>
						</g>
						<g>
							<g>
								<path class="st5" d="M730.7,177.7l-12.5,21.6c-3.6,6.2-8.5,11.5-14.2,15.5c-6.1,8.9-16.4,14.8-28,14.8
									c-11.6,0-21.9-5.9-28-14.8c-5.7-4-10.6-9.3-14.2-15.5l-12.5-21.6l-24.9,14.4l23.5,40.7c1.8,3.1,2.7,6.7,2.7,10.3v111.2h98.7
									c4.4,0,7.9-3.5,7.9-7.9V243c0-3.6,0.9-7.1,2.7-10.3l23.5-40.7L730.7,177.7z"/>
							</g>
							<g>
								<g>
									<path class="st10" d="M730.7,177.7l-12.5,21.6c-3,5.2-6.9,9.7-11.4,13.4c-0.8,2.2-1.2,4.5-1.2,6.9v103.3
										c0,4.4-3.5,7.9-7.9,7.9h-75v23.4h98.7c4.4,0,7.9-3.5,7.9-7.9V243c0-3.6,0.9-7.1,2.7-10.3l23.5-40.7L730.7,177.7z"/>
								</g>
							</g>
							<g>
								<g>
									<path class="st11" d="M676,161.5c7.3,0,14,2.3,19.5,6.2c1.1-2.6,1.7-5.4,1.7-8.3c0-11.7-9.5-21.2-21.2-21.2
										c-11.7,0-21.2,9.5-21.2,21.2c0,3,0.6,5.8,1.7,8.3C662,163.7,668.8,161.5,676,161.5z"/>
								</g>
								<g>
									<circle class="st9" cx="676" cy="195.6" r="34.8"/>
								</g>
								<g>
									<path class="st8" d="M684.8,161.9c5.1,6.1,8.2,13.9,8.2,22.5c0,19.2-15.6,34.8-34.8,34.8c-3,0-6-0.4-8.8-1.1
										c6.4,7.5,15.9,12.3,26.6,12.3c19.2,0,34.8-15.6,34.8-34.8C710.8,179.4,699.8,165.8,684.8,161.9L684.8,161.9z"/>
								</g>
								<g>
									<path class="st12" d="M676,160.7c-14.9,0-27.6,9.3-32.6,22.5h65.1C703.6,170.1,690.9,160.7,676,160.7z"/>
								</g>
								<g>
									<path class="st13" d="M693,183.2h15.5c-4-10.4-12.8-18.5-23.7-21.3C689.7,167.7,692.8,175.1,693,183.2z"/>
								</g>
							</g>
						</g>
					</g>
					<g>
						<g>
							<circle class="st4" cx="570.5" cy="199.7" r="34.8"/>
						</g>
					</g>
					<g>
						<path class="st14" d="M579.9,166.2c5,6,8,13.7,8,22.2c0,19.2-15.6,34.8-34.8,34.8c-3.2,0-6.3-0.4-9.3-1.3
							c6.4,7.7,16,12.7,26.9,12.7c19.2,0,34.8-15.6,34.8-34.8C605.4,183.7,594.6,170.2,579.9,166.2L579.9,166.2z"/>
					</g>
				</g>
				<g>
					<path class="st15" d="M540.9,50.6l-28.3,7.6c-1.8,0.5-2.4,2.7-1.1,4l20.7,20.7c1.3,1.3,3.5,0.7,4-1.1l7.6-28.3
						C544.3,51.7,542.7,50.1,540.9,50.6L540.9,50.6z"/>
				</g>
				<g>
					<path class="st16" d="M627.2,115.7l28.3-7.6c1.8-0.5,2.4-2.7,1.1-4l-20.7-20.7c-1.3-1.3-3.5-0.7-4,1.1l-7.6,28.3
						C623.8,114.6,625.5,116.2,627.2,115.7L627.2,115.7z"/>
				</g>
				<g>
					<path class="st10" d="M627,29.8l-16,16c-0.9,0.9-2.4,0.9-3.4,0l-16-16c-0.9-0.9-0.9-2.4,0-3.4l16-16c0.9-0.9,2.4-0.9,3.4,0
						l16,16C627.9,27.4,627.9,28.9,627,29.8z"/>
				</g>
			</g>
		</g>
		<g>
			<g>
				<g>
					<path class="st5" d="M481.4,145.8h-70.7V96.9c0-2.2,1.8-4,4-4h66.7c2.2,0,4,1.8,4,4v44.9C485.4,144.1,483.6,145.8,481.4,145.8z
						"/>
				</g>
				<g>
					<path class="st10" d="M481.4,93H466v31.2c0,2.2-1.8,4-4,4h-51.3v17.7h70.7c2.2,0,4-1.8,4-4V96.9C485.4,94.8,483.6,93,481.4,93z
						"/>
				</g>
			</g>
			<g>
				<path class="st10" d="M440.3,32.5c-1.5,0-2.9-0.6-4.1-1.7c-2.3-2.3-2.3-5.9,0-8.1l5.9-5.9c2.3-2.3,5.9-2.3,8.1,0
					c2.3,2.3,2.3,5.9,0,8.1l-5.9,5.9C443.2,31.9,441.8,32.5,440.3,32.5z"/>
			</g>
			<g>
				<path class="st17" d="M678.4,75.7c-1.5,0-2.9-0.6-4.1-1.7l-5.9-5.9c-2.3-2.3-2.3-5.9,0-8.1c2.3-2.3,5.9-2.3,8.1,0l5.9,5.9
					c2.3,2.3,2.3,5.9,0,8.1C681.3,75.1,679.8,75.7,678.4,75.7L678.4,75.7z"/>
			</g>
			<g>
				<path class="st16" d="M473.9,66.2c-1.5,0-2.9-0.6-4.1-1.7l-5.9-5.9c-2.3-2.3-2.3-5.9,0-8.1c2.3-2.3,5.9-2.3,8.1,0l5.9,5.9
					c2.3,2.3,2.3,5.9,0,8.1C476.8,65.6,475.3,66.2,473.9,66.2z"/>
			</g>
		</g>
		<g>
			<g>
				<g>
					<path class="st10" d="M718.2,69.6h70.7V20.7c0-2.2-1.8-4-4-4h-66.7c-2.2,0-4,1.8-4,4v44.9C714.2,67.8,716,69.6,718.2,69.6z"/>
				</g>
				<g>
					<path class="st18" d="M784.9,16.7h-13.8v31.3c0,2.2-1.8,4-4,4h-53v13.6c0,2.2,1.8,4,4,4h70.7V20.7
						C788.9,18.5,787.1,16.7,784.9,16.7z"/>
				</g>
			</g>
		</g>
	</g>
</g>
</svg>
