<?xml version="1.0" encoding="utf-8"?>
<!-- Generator: Adobe Illustrator 26.0.1, SVG Export Plug-In . SVG Version: 6.00 Build 0)  -->
<svg version="1.1" id="Layer_1" xmlns="http://www.w3.org/2000/svg" xmlns:xlink="http://www.w3.org/1999/xlink" x="0px" y="0px"
	 viewBox="0 0 826.2 1015.7" style="enable-background:new 0 0 826.2 1015.7;" xml:space="preserve">
<style type="text/css">
	.st0{fill:#3A5DC4;}
	.st1{opacity:0.51;fill:#1F4799;}
	.st2{fill:#E3F4FF;}
	.st3{fill:#BDDFF4;}
	.st4{fill:#43A3F9;}
	.st5{fill:#1685FB;}
	.st6{fill:#618BAA;}
	.st7{fill:#3FEFEF;}
	.st8{fill:#4E7693;}
	.st9{fill:#FC3E81;}
	.st10{fill:#9BE058;}
	.st11{fill:#FFDF46;}
	.st12{fill:#4A5BE5;}
	.st13{fill:#FFFFFF;}
</style>
<g>
	<polygon class="st0" points="413.1,1005 516.5,826 309.7,826 	"/>
	<path class="st0" d="M817.6,95v693.4c0,20.8-16.8,37.5-37.5,37.5H46.1c-20.8,0-37.5-16.8-37.5-37.5V95c0-20.7,16.8-37.5,37.5-37.5
		h733.9C800.8,57.5,817.6,74.3,817.6,95z"/>
	<path class="st1" d="M817.6,552.4v236c0,20.8-16.8,37.5-37.5,37.5H46.1c-20.8,0-37.5-16.8-37.5-37.5V305.1
		C173.9,553.7,453.4,812.2,817.6,552.4z"/>
	<g>
		<path class="st2" d="M760.2,22.8v205.6c0,0.9-0.2,1.8-0.6,2.5c-1,2-3,3.4-5.4,3.4H493.6c-3.3,0-6-2.7-6-6V22.8
			c0-6.7,5.4-12.1,12.1-12.1h248.3C754.8,10.7,760.2,16.1,760.2,22.8z"/>
		<path class="st3" d="M760.2,221.3v7c0,3.3-2.7,6-6,6h-55.5l-14.1-14.1c-4.1-4.1-4.8-10.4-2-15.2l-16.3-16.3
			c-15.1,10.4-32.9,15.9-51.7,15.9c-24.5,0-47.5-9.5-64.8-26.8c-35.7-35.7-35.7-93.8,0-129.5c17.3-17.3,40.3-26.8,64.8-26.8
			c24.5,0,47.5,9.5,64.7,26.8c17.3,17.3,26.8,40.3,26.8,64.8c0,18.7-5.6,36.6-15.9,51.7l16.3,16.3c1.9-1.1,4.1-1.7,6.3-1.7
			c3.4,0,6.5,1.3,8.9,3.7L760.2,221.3z"/>
		<path class="st3" d="M760.2,22.8v205.6c0,0.9-0.2,1.8-0.6,2.5c-1,2-3,3.4-5.4,3.4h-13c1.8,0,3.3-0.8,4.4-2c1-1,1.6-2.4,1.6-4V22.8
			c0-6.7-5.4-12.1-12.1-12.1h13C754.8,10.7,760.2,16.1,760.2,22.8z"/>
		<path class="st4" d="M760.2,22.8v20.8H487.7V22.8c0-6.7,5.4-12.1,12.1-12.1h248.3C754.8,10.7,760.2,16.1,760.2,22.8z"/>
		<path class="st5" d="M674.4,43.6H555c16.6-14.3,37.5-22.1,59.7-22.1C636.8,21.5,657.8,29.3,674.4,43.6z"/>
		<path class="st5" d="M760.2,22.8v20.8h-13V22.8c0-6.7-5.4-12.1-12.1-12.1h13C754.8,10.7,760.2,16.1,760.2,22.8z"/>
		<path class="st4" d="M661.5,173.7l13.9-13.9l38.2,38.2l-13.9,13.9L661.5,173.7z"/>
		<path class="st6" d="M699.1,113c0,46.6-37.8,84.4-84.4,84.4c-46.6,0-84.4-37.8-84.4-84.4s37.8-84.4,84.4-84.4
			C661.3,28.6,699.1,66.4,699.1,113z"/>
		<path class="st7" d="M683.9,113c0,38.2-31,69.1-69.1,69.1s-69.1-31-69.1-69.1c0-38.2,31-69.1,69.1-69.1S683.9,74.9,683.9,113z"/>
		<path class="st6" d="M782.1,261.1l-19.3,19.3c-2.1,2.1-5.6,2.1-7.8,0l-65.3-65.3c-2.1-2.1-2.1-5.6,0-7.8l19.3-19.3
			c2.1-2.1,5.6-2.1,7.8,0l65.3,65.3C784.3,255.5,784.3,259,782.1,261.1z"/>
		<path class="st8" d="M716.8,188.1l65.3,65.3c2.1,2.1,2.1,5.6,0,7.8l-7.7,7.7c2.1-2.1,2.1-5.6,0-7.8l-65.3-65.3
			c-2.1-2.1-5.6-2.1-7.8,0l7.7-7.7C711.2,185.9,714.7,185.9,716.8,188.1z"/>
		<path class="st4" d="M749.9,277.7c-1.1,0-2.3-0.4-3.2-1.3c-1.7-1.7-1.7-4.6,0-6.3l24.3-24.3c1.7-1.7,4.6-1.7,6.3,0
			c1.7,1.7,1.7,4.6,0,6.3l-24.3,24.3C752.2,277.3,751.1,277.7,749.9,277.7z"/>
		<path class="st9" d="M515.3,31.9c-2.5,0-4.5-2-4.5-4.4c0-2.5,2-4.5,4.4-4.5h0c2.5,0,4.5,2,4.5,4.4v0
			C519.8,29.9,517.8,31.9,515.3,31.9C515.4,31.9,515.4,31.9,515.3,31.9z"/>
		<path class="st10" d="M526.9,31.9c-2.5,0-4.5-2-4.5-4.4c0-2.5,2-4.5,4.4-4.5h0c2.5,0,4.5,2,4.5,4.4v0
			C531.4,29.9,529.4,31.9,526.9,31.9C527,31.9,527,31.9,526.9,31.9z"/>
		<path class="st11" d="M538.6,31.9c-2.5,0-4.5-2-4.5-4.4c0-2.5,2-4.5,4.4-4.5h0c2.5,0,4.5,2,4.5,4.4l0,0
			C543,29.9,541,31.9,538.6,31.9C538.6,31.9,538.6,31.9,538.6,31.9z"/>
		<g>
			<path class="st2" d="M578.3,131.3c-2.5,0-4.5-2-4.5-4.5s2-4.5,4.5-4.5c2.5,0,4.5,2,4.5,4.4v0
				C582.7,129.3,580.7,131.3,578.3,131.3z"/>
			<path class="st2" d="M578.3,146.2c-2.5,0-4.5-2-4.5-4.5c0-2.5,2-4.5,4.5-4.5c2.5,0,4.5,2,4.5,4.4v0.1
				C582.7,144.2,580.7,146.2,578.3,146.2z"/>
			<path class="st2" d="M591,131.3c-2.5,0-4.5-2-4.5-4.5s2-4.5,4.5-4.5c2.5,0,4.5,2,4.5,4.4v0C595.5,129.3,593.5,131.3,591,131.3z"
				/>
			<path class="st2" d="M591,146.2c-2.5,0-4.5-2-4.5-4.5c0-2.5,2-4.5,4.5-4.5c2.5,0,4.5,2,4.5,4.4v0.1
				C595.5,144.2,593.5,146.2,591,146.2z"/>
		</g>
		<path class="st4" d="M629.4,73.6l-47.9,11.6c-3.5,0.9-4.7,5.3-2.1,7.8l37.9,36.6c2.6,2.5,7,1.2,7.7-2.4L635,79
			C635.7,75.7,632.7,72.8,629.4,73.6z"/>
		<path class="st9" d="M601.4,102.1l10.8,48.1c0.8,3.5,5.2,4.8,7.7,2.2l37.3-37.3c2.6-2.6,1.3-6.9-2.2-7.7l-48.1-10.8
			C603.6,95.9,600.7,98.9,601.4,102.1z"/>
		<path class="st12" d="M630.3,101.9l-5.2,25.4c-0.7,3.5-5.1,4.9-7.7,2.4l-12.4-12l-3.5-15.5c-0.7-3.3,2.2-6.2,5.5-5.5L630.3,101.9z
			"/>
		<path class="st6" d="M517,192.1h-2.4c-2.5,0-4.5-2-4.5-4.5c0-2.5,2-4.5,4.5-4.5h2.4c2.5,0,4.5,2,4.5,4.5
			C521.4,190.1,519.4,192.1,517,192.1z"/>
		<path class="st6" d="M542.8,192.1h-15.2c-2.5,0-4.5-2-4.5-4.5c0-2.5,2-4.5,4.5-4.5h15.2c2.5,0,4.5,2,4.5,4.5
			C547.3,190.1,545.3,192.1,542.8,192.1z"/>
		<path class="st6" d="M542.8,203.9h-28.3c-2.5,0-4.5-2-4.5-4.5c0-2.5,2-4.5,4.5-4.5h28.3c2.5,0,4.5,2,4.5,4.5
			C547.3,201.9,545.3,203.9,542.8,203.9z"/>
		<path class="st6" d="M542.8,215.7h-28.3c-2.5,0-4.5-2-4.5-4.5s2-4.5,4.5-4.5h28.3c2.5,0,4.5,2,4.5,4.5S545.3,215.7,542.8,215.7z"
			/>
		<path class="st4" d="M736.1,159.1c-2.5,0-4.5-2-4.5-4.5V62.5c0-2.5,2-4.5,4.5-4.5c2.5,0,4.5,2,4.5,4.5v92.1
			C740.6,157.1,738.6,159.1,736.1,159.1z"/>
	</g>
	<g>
		<path class="st13" d="M127.2,221c2.2,2.8,3.3,6.1,3.3,9.8c0,5.3-1.8,9.5-5.5,12.5c-3.7,3.1-8.8,4.6-15.4,4.6H80.2v-63.1h28.4
			c6.4,0,11.4,1.5,15.1,4.4c3.6,2.9,5.4,6.9,5.4,12c0,3.7-1,6.8-2.9,9.3c-1.9,2.5-4.5,4.2-7.8,5.1C122.1,216.3,125,218.1,127.2,221z
			 M95.6,210.3h10.1c2.5,0,4.5-0.6,5.8-1.7c1.3-1.1,2-2.7,2-4.9c0-2.2-0.7-3.8-2-4.9c-1.3-1.1-3.3-1.7-5.8-1.7H95.6V210.3z
			 M112.9,233.7c1.4-1.2,2.1-2.9,2.1-5.1c0-2.2-0.7-4-2.2-5.2c-1.5-1.3-3.5-1.9-6.1-1.9H95.6v13.9h11.3
			C109.5,235.5,111.5,234.9,112.9,233.7z"/>
		<path class="st13" d="M149.1,245.5c-3.9-2.1-7-5.1-9.3-9c-2.2-3.9-3.4-8.5-3.4-13.7c0-5.2,1.1-9.7,3.4-13.6c2.3-3.9,5.4-6.9,9.4-9
			c4-2.1,8.4-3.1,13.3-3.1c4.9,0,9.4,1,13.3,3.1c4,2.1,7.1,5.1,9.4,9c2.3,3.9,3.4,8.5,3.4,13.6c0,5.2-1.2,9.7-3.5,13.6
			c-2.3,3.9-5.5,6.9-9.4,9c-4,2.1-8.4,3.1-13.4,3.1C157.4,248.6,153,247.6,149.1,245.5z M169.8,232.1c2.1-2.2,3.1-5.2,3.1-9.3
			c0-4-1-7.1-3-9.3c-2-2.2-4.5-3.2-7.4-3.2c-3,0-5.5,1.1-7.5,3.2c-2,2.1-3,5.2-3,9.3c0,4,1,7.1,2.9,9.3c1.9,2.2,4.4,3.2,7.3,3.2
			S167.8,234.2,169.8,232.1z"/>
		<path class="st13" d="M196.6,209.1c1.9-3.9,4.6-6.9,8-9c3.4-2.1,7.1-3.1,11.2-3.1c3.5,0,6.6,0.7,9.3,2.2c2.7,1.4,4.7,3.3,6.2,5.7
			v-7.1h15.4v50.2h-15.4v-7.1c-1.5,2.3-3.6,4.2-6.3,5.7c-2.7,1.4-5.8,2.2-9.3,2.2c-4.1,0-7.8-1.1-11.2-3.2c-3.4-2.1-6-5.2-8-9.1
			c-1.9-3.9-2.9-8.5-2.9-13.6C193.7,217.5,194.7,213,196.6,209.1z M228.1,213.7c-2.1-2.2-4.7-3.3-7.8-3.3s-5.7,1.1-7.8,3.3
			c-2.1,2.2-3.2,5.2-3.2,9s1.1,6.9,3.2,9.1c2.1,2.2,4.7,3.4,7.8,3.4s5.7-1.1,7.8-3.3c2.1-2.2,3.2-5.2,3.2-9.1
			C231.3,219,230.3,215.9,228.1,213.7z"/>
		<path class="st13" d="M280,199.5c2.7-1.6,5.7-2.4,9-2.4v16.3h-4.2c-3.8,0-6.7,0.8-8.6,2.5c-1.9,1.7-2.9,4.5-2.9,8.7v23.3h-15.4
			v-50.2h15.4v8.4C275,203.3,277.3,201.1,280,199.5z"/>
		<path class="st13" d="M296.2,209.1c1.9-3.9,4.6-6.9,8-9c3.4-2.1,7.1-3.1,11.2-3.1c3.3,0,6.3,0.7,9,2.1c2.7,1.4,4.9,3.2,6.4,5.6
			v-23.3h15.4v66.6h-15.4v-7.2c-1.4,2.4-3.5,4.3-6.2,5.8c-2.7,1.4-5.8,2.2-9.3,2.2c-4.1,0-7.9-1.1-11.2-3.2c-3.4-2.1-6-5.2-8-9.1
			c-1.9-3.9-2.9-8.5-2.9-13.6C293.3,217.5,294.3,213,296.2,209.1z M327.7,213.7c-2.1-2.2-4.7-3.3-7.8-3.3s-5.7,1.1-7.8,3.3
			c-2.1,2.2-3.2,5.2-3.2,9s1.1,6.9,3.2,9.1c2.1,2.2,4.7,3.4,7.8,3.4s5.7-1.1,7.8-3.3c2.1-2.2,3.2-5.2,3.2-9.1
			C330.9,219,329.8,215.9,327.7,213.7z"/>
		<path class="st13" d="M108.2,342.8v13h-7.8c-5.6,0-9.9-1.4-13-4.1c-3.1-2.7-4.7-7.2-4.7-13.4v-20h-6.1v-12.8h6.1v-12.2H98v12.2
			h10.1v12.8H98v20.2c0,1.5,0.4,2.6,1.1,3.2c0.7,0.7,1.9,1,3.6,1H108.2z"/>
		<path class="st13" d="M161.4,310.8c3.5,3.8,5.2,9,5.2,15.7v29.3h-15.3v-27.3c0-3.4-0.9-6-2.6-7.8c-1.7-1.9-4.1-2.8-7-2.8
			c-2.9,0-5.3,0.9-7,2.8c-1.7,1.9-2.6,4.5-2.6,7.8v27.3h-15.4v-66.6h15.4v23.1c1.6-2.2,3.7-4,6.4-5.3c2.7-1.3,5.7-2,9.1-2
			C153.3,305.1,157.9,307,161.4,310.8z"/>
		<path class="st13" d="M224.4,334.4h-34.8c0.2,3.1,1.2,5.5,3,7.2c1.8,1.6,3.9,2.5,6.5,2.5c3.8,0,6.5-1.6,8-4.9h16.4
			c-0.8,3.3-2.4,6.3-4.5,8.9c-2.2,2.6-4.9,4.7-8.2,6.2c-3.3,1.5-7,2.2-11.1,2.2c-4.9,0-9.3-1-13.1-3.1c-3.8-2.1-6.8-5.1-9-9
			c-2.2-3.9-3.2-8.5-3.2-13.7s1.1-9.8,3.2-13.7c2.1-3.9,5.1-6.9,9-9c3.8-2.1,8.2-3.1,13.2-3.1c4.9,0,9.2,1,13,3.1
			c3.8,2,6.7,4.9,8.9,8.7c2.1,3.8,3.2,8.2,3.2,13.2C224.7,331.4,224.6,332.9,224.4,334.4z M208.9,325.9c0-2.6-0.9-4.7-2.7-6.3
			s-4-2.3-6.7-2.3c-2.6,0-4.8,0.8-6.5,2.2c-1.8,1.5-2.9,3.6-3.3,6.4H208.9z"/>
		<path class="st13" d="M297.3,292.7V305h-16.7v50.8h-15.4V305h-16.7v-12.3H297.3z"/>
		<path class="st13" d="M327.1,307.5c2.7-1.6,5.7-2.4,9-2.4v16.3h-4.2c-3.8,0-6.7,0.8-8.6,2.5c-1.9,1.7-2.9,4.5-2.9,8.7v23.3H305
			v-50.2h15.4v8.4C322.2,311.3,324.4,309.1,327.1,307.5z"/>
		<path class="st13" d="M343.4,317.1c1.9-3.9,4.6-6.9,8-9c3.4-2.1,7.1-3.1,11.2-3.1c3.5,0,6.6,0.7,9.3,2.2c2.7,1.4,4.7,3.3,6.2,5.7
			v-7.1h15.4v50.2H378v-7.1c-1.5,2.3-3.6,4.2-6.3,5.7c-2.7,1.4-5.8,2.2-9.3,2.2c-4.1,0-7.8-1.1-11.2-3.2c-3.4-2.1-6-5.2-8-9.1
			c-1.9-3.9-2.9-8.5-2.9-13.6C340.4,325.5,341.4,321,343.4,317.1z M374.8,321.7c-2.1-2.2-4.7-3.3-7.8-3.3s-5.7,1.1-7.8,3.3
			c-2.1,2.2-3.2,5.2-3.2,9s1.1,6.9,3.2,9.1c2.1,2.2,4.7,3.4,7.8,3.4s5.7-1.1,7.8-3.3c2.1-2.2,3.2-5.2,3.2-9.1
			C378,326.9,377,323.9,374.8,321.7z"/>
		<path class="st13" d="M405.7,298c-1.7-1.6-2.6-3.6-2.6-5.9c0-2.4,0.9-4.4,2.6-6c1.7-1.6,3.9-2.4,6.6-2.4c2.6,0,4.8,0.8,6.5,2.4
			c1.7,1.6,2.6,3.6,2.6,6c0,2.3-0.9,4.3-2.6,5.9c-1.7,1.6-3.9,2.4-6.5,2.4C409.6,300.4,407.4,299.6,405.7,298z M420,305.6v50.2
			h-15.4v-50.2H420z"/>
		<path class="st13" d="M475.8,310.8c3.5,3.8,5.3,9,5.3,15.7v29.3h-15.3v-27.3c0-3.4-0.9-6-2.6-7.8c-1.7-1.9-4.1-2.8-7-2.8
			c-2.9,0-5.3,0.9-7,2.8c-1.7,1.9-2.6,4.5-2.6,7.8v27.3h-15.4v-50.2h15.4v6.7c1.6-2.2,3.7-4,6.3-5.3c2.6-1.3,5.6-1.9,8.9-1.9
			C467.6,305.1,472.3,307,475.8,310.8z"/>
	</g>
	<g>
		<path class="st13" d="M81.7,447.3c2.5-4.3,5.8-7.7,10-10.2c4.2-2.5,8.9-3.7,14.1-3.7c6.1,0,11.4,1.5,15.9,4.4
			c4.5,2.9,7.8,7.1,9.9,12.5H123c-1.5-3.4-3.8-5.9-6.7-7.8c-2.9-1.8-6.4-2.7-10.4-2.7c-3.9,0-7.4,0.9-10.5,2.7
			c-3.1,1.8-5.5,4.4-7.3,7.7c-1.8,3.3-2.6,7.2-2.6,11.7c0,4.4,0.9,8.3,2.6,11.6c1.8,3.3,4.2,5.9,7.3,7.7c3.1,1.8,6.6,2.7,10.5,2.7
			c4.1,0,7.5-0.9,10.4-2.7c2.9-1.8,5.1-4.4,6.7-7.7h8.7c-2.1,5.3-5.4,9.4-9.9,12.4c-4.5,2.9-9.8,4.4-15.9,4.4
			c-5.2,0-9.9-1.2-14.1-3.6c-4.2-2.4-7.6-5.8-10-10.1c-2.5-4.3-3.7-9.2-3.7-14.6S79.3,451.6,81.7,447.3z"/>
		<path class="st13" d="M173.2,447.4c2.7,1.4,4.8,3.5,6.3,6.4c1.5,2.8,2.3,6.3,2.3,10.3v25.8h-7.2v-24.8c0-4.4-1.1-7.7-3.3-10
			c-2.2-2.3-5.2-3.5-9-3.5c-3.8,0-6.9,1.2-9.2,3.6c-2.3,2.4-3.4,5.9-3.4,10.5v24.2h-7.3v-59.2h7.3v21.6c1.4-2.2,3.4-4,6-5.2
			c2.5-1.2,5.4-1.8,8.5-1.8C167.6,445.3,170.5,446,173.2,447.4z"/>
		<path class="st13" d="M201.6,487.8c-3.3-1.9-5.9-4.5-7.8-8c-1.9-3.4-2.8-7.4-2.8-12c0-4.5,1-8.4,2.9-11.9c1.9-3.4,4.6-6.1,8-7.9
			c3.4-1.8,7.1-2.8,11.3-2.8c4.2,0,7.9,0.9,11.3,2.8c3.4,1.8,6,4.5,8,7.9c1.9,3.4,2.9,7.4,2.9,11.9c0,4.5-1,8.5-3,12s-4.7,6.1-8.1,8
			c-3.4,1.9-7.2,2.8-11.4,2.8C208.7,490.6,205,489.7,201.6,487.8z M220.1,482.4c2.3-1.2,4.1-3.1,5.6-5.5c1.4-2.5,2.1-5.4,2.1-9
			s-0.7-6.5-2.1-9c-1.4-2.5-3.2-4.3-5.4-5.5c-2.2-1.2-4.7-1.8-7.3-1.8c-2.7,0-5.1,0.6-7.3,1.8c-2.2,1.2-4,3-5.3,5.5
			c-1.3,2.5-2,5.4-2,9c0,3.6,0.7,6.6,2,9c1.3,2.5,3.1,4.3,5.2,5.5c2.2,1.2,4.6,1.8,7.2,1.8C215.4,484.2,217.9,483.6,220.1,482.4z"/>
		<path class="st13" d="M252.8,487.8c-3.3-1.9-5.9-4.5-7.8-8c-1.9-3.4-2.8-7.4-2.8-12c0-4.5,1-8.4,2.9-11.9c1.9-3.4,4.6-6.1,8-7.9
			c3.4-1.8,7.1-2.8,11.3-2.8c4.2,0,7.9,0.9,11.3,2.8c3.4,1.8,6,4.5,8,7.9c1.9,3.4,2.9,7.4,2.9,11.9c0,4.5-1,8.5-3,12s-4.7,6.1-8.1,8
			c-3.4,1.9-7.2,2.8-11.4,2.8C259.9,490.6,256.1,489.7,252.8,487.8z M271.3,482.4c2.3-1.2,4.1-3.1,5.6-5.5c1.4-2.5,2.1-5.4,2.1-9
			s-0.7-6.5-2.1-9c-1.4-2.5-3.2-4.3-5.4-5.5c-2.2-1.2-4.7-1.8-7.3-1.8c-2.7,0-5.1,0.6-7.3,1.8c-2.2,1.2-4,3-5.3,5.5
			c-1.3,2.5-2,5.4-2,9c0,3.6,0.7,6.6,2,9c1.3,2.5,3.1,4.3,5.2,5.5c2.2,1.2,4.6,1.8,7.2,1.8C266.6,484.2,269,483.6,271.3,482.4z"/>
		<path class="st13" d="M302.5,488.9c-2.7-1.1-4.8-2.7-6.3-4.8c-1.5-2.1-2.4-4.4-2.6-7.1h7.5c0.2,2.2,1.2,4,3.1,5.4
			c1.8,1.4,4.2,2.1,7.2,2.1c2.8,0,5-0.6,6.6-1.8c1.6-1.2,2.4-2.8,2.4-4.6c0-1.9-0.9-3.3-2.6-4.3c-1.7-0.9-4.3-1.9-7.9-2.8
			c-3.3-0.9-5.9-1.7-8-2.6c-2.1-0.9-3.8-2.2-5.3-3.9c-1.5-1.7-2.2-4-2.2-6.8c0-2.2,0.7-4.3,2-6.2c1.3-1.9,3.2-3.3,5.7-4.4
			c2.5-1.1,5.2-1.6,8.4-1.6c4.9,0,8.8,1.2,11.8,3.7c3,2.5,4.6,5.8,4.8,10.1h-7.3c-0.2-2.3-1.1-4.1-2.8-5.5c-1.7-1.4-3.9-2.1-6.8-2.1
			c-2.6,0-4.7,0.6-6.2,1.7c-1.5,1.1-2.3,2.6-2.3,4.4c0,1.4,0.5,2.6,1.4,3.6c0.9,0.9,2.1,1.7,3.5,2.2c1.4,0.6,3.4,1.2,5.9,1.9
			c3.1,0.9,5.7,1.7,7.7,2.5c2,0.8,3.7,2.1,5.1,3.7c1.4,1.7,2.1,3.8,2.2,6.5c0,2.4-0.7,4.6-2,6.5c-1.3,1.9-3.2,3.4-5.6,4.5
			c-2.4,1.1-5.2,1.6-8.4,1.6C308.2,490.6,305.2,490,302.5,488.9z"/>
		<path class="st13" d="M377.5,470.7h-35c0.3,4.3,1.7,7.7,4.4,10.1c2.7,2.4,6,3.6,9.8,3.6c3.1,0,5.8-0.7,7.9-2.2
			c2.1-1.5,3.6-3.4,4.4-5.9h7.8c-1.2,4.2-3.5,7.6-7,10.3s-7.9,4-13.1,4c-4.2,0-7.9-0.9-11.2-2.8c-3.3-1.9-5.9-4.5-7.7-8
			c-1.9-3.4-2.8-7.4-2.8-12c0-4.5,0.9-8.5,2.7-11.9c1.8-3.4,4.4-6,7.6-7.9c3.3-1.8,7-2.8,11.3-2.8c4.2,0,7.8,0.9,11,2.7
			s5.7,4.3,7.4,7.5c1.7,3.2,2.6,6.8,2.6,10.8C377.8,467.7,377.7,469.1,377.5,470.7z M368.4,457.6c-1.2-2-2.9-3.5-5-4.6
			c-2.1-1-4.4-1.6-7-1.6c-3.7,0-6.8,1.2-9.4,3.5c-2.6,2.3-4.1,5.6-4.4,9.8h27.7C370.2,462,369.6,459.6,368.4,457.6z"/>
		<path class="st13" d="M408.7,456c1.8-3.4,4.3-6,7.5-7.9c3.2-1.9,6.7-2.8,10.6-2.8c3.8,0,7.2,0.8,10,2.5c2.8,1.7,4.9,3.7,6.3,6.2
			v-8h7.4v43.8h-7.4v-8.2c-1.4,2.6-3.6,4.7-6.4,6.4c-2.9,1.7-6.2,2.5-10,2.5c-3.9,0-7.4-1-10.6-2.9c-3.1-1.9-5.6-4.6-7.4-8.1
			c-1.8-3.5-2.7-7.4-2.7-11.8C406,463.3,406.9,459.4,408.7,456z M441.1,459.2c-1.3-2.5-3.1-4.3-5.4-5.6c-2.3-1.3-4.8-2-7.5-2
			s-5.2,0.6-7.4,1.9c-2.2,1.3-4,3.1-5.4,5.6c-1.3,2.5-2,5.3-2,8.6c0,3.4,0.7,6.3,2,8.8c1.3,2.5,3.1,4.4,5.4,5.7c2.2,1.3,4.7,2,7.4,2
			s5.2-0.7,7.5-2c2.3-1.3,4.1-3.2,5.4-5.7c1.3-2.5,2-5.4,2-8.7C443.1,464.6,442.4,461.7,441.1,459.2z"/>
		<path class="st13" d="M94.5,543.8c2.9-1.7,6.2-2.5,10-2.5c3.9,0,7.4,0.9,10.6,2.8c3.2,1.9,5.7,4.5,7.5,7.9
			c1.8,3.4,2.7,7.3,2.7,11.8c0,4.4-0.9,8.4-2.7,11.8c-1.8,3.5-4.3,6.2-7.5,8.1s-6.7,2.9-10.6,2.9c-3.7,0-7-0.8-9.9-2.5
			c-2.9-1.7-5-3.8-6.5-6.3v28.9h-7.3V542h7.3v8.1C89.5,547.6,91.6,545.5,94.5,543.8z M115.8,555.1c-1.3-2.5-3.1-4.3-5.4-5.6
			s-4.8-1.9-7.5-1.9c-2.7,0-5.1,0.7-7.4,2c-2.3,1.3-4.1,3.2-5.4,5.7c-1.4,2.5-2,5.3-2,8.6c0,3.3,0.7,6.2,2,8.7s3.2,4.4,5.4,5.7
			c2.3,1.3,4.7,2,7.4,2c2.7,0,5.2-0.7,7.5-2c2.3-1.3,4.1-3.2,5.4-5.7c1.3-2.5,2-5.4,2-8.8C117.8,560.5,117.1,557.6,115.8,555.1z"/>
		<path class="st13" d="M147.6,543.3c2.4-1.4,5.3-2.1,8.7-2.1v7.5h-1.9c-8.2,0-12.2,4.4-12.2,13.3v23.8h-7.3V542h7.3v7.1
			C143.4,546.6,145.2,544.7,147.6,543.3z"/>
		<path class="st13" d="M172.6,583.7c-3.3-1.9-5.9-4.5-7.8-8c-1.9-3.4-2.8-7.4-2.8-12c0-4.5,1-8.4,2.9-11.9c1.9-3.4,4.6-6.1,8-7.9
			c3.4-1.8,7.1-2.8,11.3-2.8c4.2,0,7.9,0.9,11.3,2.8c3.4,1.8,6,4.5,8,7.9c1.9,3.4,2.9,7.4,2.9,11.9c0,4.5-1,8.5-3,12s-4.7,6.1-8.1,8
			c-3.4,1.9-7.2,2.8-11.4,2.8C179.7,586.5,175.9,585.6,172.6,583.7z M191.1,578.3c2.3-1.2,4.1-3.1,5.6-5.5c1.4-2.5,2.1-5.4,2.1-9
			s-0.7-6.5-2.1-9c-1.4-2.5-3.2-4.3-5.4-5.5c-2.2-1.2-4.7-1.8-7.3-1.8c-2.7,0-5.1,0.6-7.3,1.8c-2.2,1.2-4,3-5.3,5.5
			c-1.3,2.5-2,5.4-2,9c0,3.6,0.7,6.6,2,9c1.3,2.5,3.1,4.3,5.2,5.5c2.2,1.2,4.6,1.8,7.2,1.8C186.4,580.1,188.8,579.5,191.1,578.3z"/>
		<path class="st13" d="M243.9,543.8c2.9,1.7,5,3.7,6.4,6.2v-8h7.4v44.8c0,4-0.9,7.6-2.6,10.7c-1.7,3.1-4.1,5.6-7.3,7.3
			c-3.2,1.8-6.9,2.6-11.1,2.6c-5.8,0-10.6-1.4-14.4-4.1s-6.1-6.4-6.8-11.1h7.2c0.8,2.7,2.5,4.8,5,6.4c2.5,1.6,5.5,2.4,9,2.4
			c4,0,7.3-1.3,9.8-3.8c2.5-2.5,3.8-6,3.8-10.6v-9.2c-1.4,2.6-3.6,4.7-6.4,6.4c-2.8,1.7-6.1,2.6-9.9,2.6c-3.9,0-7.4-1-10.6-2.9
			c-3.2-1.9-5.7-4.6-7.5-8.1c-1.8-3.5-2.7-7.4-2.7-11.8c0-4.5,0.9-8.4,2.7-11.8c1.8-3.4,4.3-6,7.5-7.9c3.2-1.9,6.7-2.8,10.6-2.8
			C237.7,541.3,241,542.1,243.9,543.8z M248.2,555.2c-1.3-2.5-3.1-4.3-5.4-5.6c-2.3-1.3-4.8-2-7.5-2s-5.2,0.6-7.4,1.9
			c-2.2,1.3-4,3.1-5.4,5.6c-1.3,2.5-2,5.3-2,8.6c0,3.4,0.7,6.3,2,8.8c1.3,2.5,3.1,4.4,5.4,5.7c2.2,1.3,4.7,2,7.4,2s5.2-0.7,7.5-2
			c2.3-1.3,4.1-3.2,5.4-5.7c1.3-2.5,2-5.4,2-8.7C250.2,560.5,249.5,557.7,248.2,555.2z"/>
		<path class="st13" d="M282.6,543.3c2.4-1.4,5.3-2.1,8.7-2.1v7.5h-1.9c-8.2,0-12.2,4.4-12.2,13.3v23.8h-7.3V542h7.3v7.1
			C278.4,546.6,280.3,544.7,282.6,543.3z"/>
		<path class="st13" d="M299.7,552c1.8-3.4,4.3-6,7.5-7.9c3.2-1.9,6.7-2.8,10.6-2.8c3.8,0,7.2,0.8,10,2.5c2.8,1.7,4.9,3.7,6.3,6.2
			v-8h7.4v43.8h-7.4v-8.2c-1.4,2.6-3.6,4.7-6.4,6.4c-2.9,1.7-6.2,2.5-10,2.5c-3.9,0-7.4-1-10.6-2.9c-3.1-1.9-5.6-4.6-7.4-8.1
			c-1.8-3.5-2.7-7.4-2.7-11.8C297,559.3,297.9,555.3,299.7,552z M332.1,555.2c-1.3-2.5-3.1-4.3-5.4-5.6c-2.3-1.3-4.8-2-7.5-2
			s-5.2,0.6-7.4,1.9c-2.2,1.3-4,3.1-5.4,5.6c-1.3,2.5-2,5.3-2,8.6c0,3.4,0.7,6.3,2,8.8c1.3,2.5,3.1,4.4,5.4,5.7c2.2,1.3,4.7,2,7.4,2
			s5.2-0.7,7.5-2c2.3-1.3,4.1-3.2,5.4-5.7c1.3-2.5,2-5.4,2-8.7C334.1,560.5,333.4,557.7,332.1,555.2z"/>
		<path class="st13" d="M415.6,543.3c2.7,1.4,4.8,3.5,6.3,6.4c1.5,2.8,2.3,6.3,2.3,10.3v25.8H417V561c0-4.4-1.1-7.7-3.2-10
			c-2.2-2.3-5.1-3.5-8.8-3.5c-3.8,0-6.8,1.2-9,3.6c-2.2,2.4-3.4,5.9-3.4,10.5v24.1h-7.2V561c0-4.4-1.1-7.7-3.2-10
			c-2.2-2.3-5.1-3.5-8.8-3.5c-3.8,0-6.8,1.2-9,3.6c-2.2,2.4-3.4,5.9-3.4,10.5v24.1h-7.3V542h7.3v6.3c1.4-2.3,3.4-4.1,5.8-5.3
			c2.4-1.2,5.1-1.8,8-1.8c3.7,0,6.9,0.8,9.8,2.5c2.8,1.7,4.9,4.1,6.3,7.3c1.2-3.1,3.3-5.5,6.1-7.2c2.8-1.7,6-2.6,9.4-2.6
			C409.9,541.2,412.9,541.9,415.6,543.3z"/>
		<path class="st13" d="M466.3,548v25.8c0,2.1,0.5,3.6,1.4,4.5c0.9,0.9,2.5,1.3,4.7,1.3h5.4v6.2h-6.6c-4.1,0-7.1-0.9-9.1-2.8
			c-2-1.9-3-4.9-3-9.2V548h-5.7v-6h5.7v-11h7.3v11h11.4v6H466.3z"/>
		<path class="st13" d="M517.3,543.3c2.7,1.4,4.8,3.5,6.3,6.4c1.5,2.8,2.3,6.3,2.3,10.3v25.8h-7.2V561c0-4.4-1.1-7.7-3.3-10
			c-2.2-2.3-5.2-3.5-9-3.5c-3.8,0-6.9,1.2-9.2,3.6c-2.3,2.4-3.4,5.9-3.4,10.5v24.2h-7.3v-59.2h7.3v21.6c1.4-2.2,3.4-4,6-5.2
			c2.5-1.2,5.4-1.8,8.5-1.8C511.6,541.2,514.6,541.9,517.3,543.3z"/>
		<path class="st13" d="M537.8,552c1.8-3.4,4.3-6,7.5-7.9c3.2-1.9,6.7-2.8,10.6-2.8c3.8,0,7.2,0.8,10,2.5c2.8,1.7,4.9,3.7,6.3,6.2
			v-8h7.4v43.8h-7.4v-8.2c-1.4,2.6-3.6,4.7-6.4,6.4c-2.9,1.7-6.2,2.5-10,2.5c-3.9,0-7.4-1-10.6-2.9c-3.1-1.9-5.6-4.6-7.4-8.1
			c-1.8-3.5-2.7-7.4-2.7-11.8C535,559.3,535.9,555.3,537.8,552z M570.1,555.2c-1.3-2.5-3.1-4.3-5.4-5.6c-2.3-1.3-4.8-2-7.5-2
			s-5.2,0.6-7.4,1.9c-2.2,1.3-4,3.1-5.4,5.6c-1.3,2.5-2,5.3-2,8.6c0,3.4,0.7,6.3,2,8.8c1.3,2.5,3.1,4.4,5.4,5.7c2.2,1.3,4.7,2,7.4,2
			s5.2-0.7,7.5-2c2.3-1.3,4.1-3.2,5.4-5.7c1.3-2.5,2-5.4,2-8.7C572.1,560.5,571.5,557.7,570.1,555.2z"/>
		<path class="st13" d="M600.7,548v25.8c0,2.1,0.5,3.6,1.4,4.5c0.9,0.9,2.5,1.3,4.7,1.3h5.4v6.2h-6.6c-4.1,0-7.1-0.9-9.1-2.8
			c-2-1.9-3-4.9-3-9.2V548h-5.7v-6h5.7v-11h7.3v11h11.4v6H600.7z"/>
		<path class="st13" d="M120.5,662.6h-35c0.3,4.3,1.7,7.7,4.4,10.1c2.7,2.4,6,3.6,9.8,3.6c3.1,0,5.8-0.7,7.9-2.2
			c2.1-1.5,3.6-3.4,4.4-5.9h7.8c-1.2,4.2-3.5,7.6-7,10.3s-7.9,4-13.1,4c-4.2,0-7.9-0.9-11.2-2.8c-3.3-1.9-5.9-4.5-7.7-8
			c-1.9-3.4-2.8-7.4-2.8-12c0-4.5,0.9-8.5,2.7-11.9c1.8-3.4,4.4-6,7.6-7.9c3.3-1.8,7-2.8,11.3-2.8c4.2,0,7.8,0.9,11,2.7
			s5.7,4.3,7.4,7.5c1.7,3.2,2.6,6.8,2.6,10.8C120.8,659.6,120.7,661,120.5,662.6z M111.4,649.5c-1.2-2-2.9-3.5-5-4.6
			c-2.1-1-4.4-1.6-7-1.6c-3.7,0-6.8,1.2-9.4,3.5c-2.6,2.3-4.1,5.6-4.4,9.8h27.7C113.2,653.9,112.6,651.5,111.4,649.5z"/>
		<path class="st13" d="M153.2,681.8l-10.4-16.3l-10,16.3h-7.6l14.2-21.7L125.2,638h8.2l10.4,16.2l9.9-16.2h7.6l-14.1,21.7
			l14.2,22.1H153.2z"/>
		<path class="st13" d="M168.7,647.9c1.8-3.4,4.3-6,7.6-7.9c3.2-1.9,6.9-2.8,11.1-2.8c5.4,0,9.8,1.3,13.3,3.9
			c3.5,2.6,5.8,6.2,6.9,10.9h-7.8c-0.7-2.7-2.2-4.8-4.4-6.3c-2.2-1.5-4.8-2.3-8-2.3c-4.2,0-7.5,1.4-10.1,4.3
			c-2.6,2.9-3.8,6.9-3.8,12.1c0,5.3,1.3,9.4,3.8,12.2c2.6,2.9,5.9,4.3,10.1,4.3c3.2,0,5.9-0.7,8-2.2c2.1-1.5,3.6-3.6,4.4-6.4h7.8
			c-1.2,4.5-3.5,8.1-7,10.8c-3.5,2.7-7.9,4-13.2,4c-4.2,0-7.8-0.9-11.1-2.8c-3.2-1.9-5.7-4.5-7.6-7.9c-1.8-3.4-2.7-7.4-2.7-12
			C165.9,655.3,166.8,651.3,168.7,647.9z"/>
		<path class="st13" d="M217.4,629.4c-1-1-1.4-2.1-1.4-3.5c0-1.4,0.5-2.6,1.4-3.5c1-1,2.1-1.4,3.5-1.4c1.3,0,2.5,0.5,3.4,1.4
			c0.9,1,1.4,2.1,1.4,3.5c0,1.4-0.5,2.6-1.4,3.5c-0.9,1-2.1,1.4-3.4,1.4C219.6,630.8,218.4,630.4,217.4,629.4z M224.5,638v43.8h-7.3
			V638H224.5z"/>
		<path class="st13" d="M245.7,644v25.8c0,2.1,0.5,3.6,1.4,4.5c0.9,0.9,2.5,1.3,4.7,1.3h5.4v6.2h-6.6c-4.1,0-7.1-0.9-9.1-2.8
			c-2-1.9-3-4.9-3-9.2V644h-5.7v-6h5.7v-11h7.3v11h11.4v6H245.7z"/>
		<path class="st13" d="M305.7,662.6h-35c0.3,4.3,1.7,7.7,4.4,10.1c2.7,2.4,6,3.6,9.8,3.6c3.1,0,5.8-0.7,7.9-2.2
			c2.1-1.5,3.6-3.4,4.4-5.9h7.8c-1.2,4.2-3.5,7.6-7,10.3s-7.9,4-13.1,4c-4.2,0-7.9-0.9-11.2-2.8c-3.3-1.9-5.9-4.5-7.7-8
			c-1.9-3.4-2.8-7.4-2.8-12c0-4.5,0.9-8.5,2.7-11.9c1.8-3.4,4.4-6,7.6-7.9c3.3-1.8,7-2.8,11.3-2.8c4.2,0,7.8,0.9,11,2.7
			s5.7,4.3,7.4,7.5c1.7,3.2,2.6,6.8,2.6,10.8C305.9,659.6,305.9,661,305.7,662.6z M296.6,649.5c-1.2-2-2.9-3.5-5-4.6
			c-2.1-1-4.4-1.6-7-1.6c-3.7,0-6.8,1.2-9.4,3.5c-2.6,2.3-4.1,5.6-4.4,9.8h27.7C298.4,653.9,297.8,651.5,296.6,649.5z"/>
		<path class="st13" d="M322,680.8c-2.7-1.1-4.8-2.7-6.3-4.8c-1.5-2.1-2.4-4.4-2.6-7.1h7.5c0.2,2.2,1.2,4,3.1,5.4
			c1.8,1.4,4.2,2.1,7.2,2.1c2.8,0,5-0.6,6.6-1.8c1.6-1.2,2.4-2.8,2.4-4.6c0-1.9-0.9-3.3-2.6-4.3c-1.7-0.9-4.3-1.9-7.9-2.8
			c-3.3-0.9-5.9-1.7-8-2.6c-2.1-0.9-3.8-2.2-5.3-3.9c-1.5-1.7-2.2-4-2.2-6.8c0-2.2,0.7-4.3,2-6.2c1.3-1.9,3.2-3.3,5.7-4.4
			c2.5-1.1,5.2-1.6,8.4-1.6c4.9,0,8.8,1.2,11.8,3.7c3,2.5,4.6,5.8,4.8,10.1h-7.3c-0.2-2.3-1.1-4.1-2.8-5.5c-1.7-1.4-3.9-2.1-6.8-2.1
			c-2.6,0-4.7,0.6-6.2,1.7c-1.5,1.1-2.3,2.6-2.3,4.4c0,1.4,0.5,2.6,1.4,3.6c0.9,0.9,2.1,1.7,3.5,2.2c1.4,0.6,3.4,1.2,5.9,1.9
			c3.1,0.9,5.7,1.7,7.7,2.5c2,0.8,3.7,2.1,5.1,3.7c1.4,1.7,2.1,3.8,2.2,6.5c0,2.4-0.7,4.6-2,6.5c-1.3,1.9-3.2,3.4-5.6,4.5
			c-2.4,1.1-5.2,1.6-8.4,1.6C327.7,682.5,324.7,681.9,322,680.8z"/>
		<path class="st13" d="M416.4,638L390,702.4h-7.5l8.6-21.1L373.4,638h8.1l13.8,35.5l13.6-35.5H416.4z"/>
		<path class="st13" d="M431.6,679.7c-3.3-1.9-5.9-4.5-7.8-8c-1.9-3.4-2.8-7.4-2.8-12c0-4.5,1-8.4,2.9-11.9c1.9-3.4,4.6-6.1,8-7.9
			c3.4-1.8,7.1-2.8,11.3-2.8c4.2,0,7.9,0.9,11.3,2.8c3.4,1.8,6,4.5,8,7.9c1.9,3.4,2.9,7.4,2.9,11.9c0,4.5-1,8.5-3,12s-4.7,6.1-8.1,8
			c-3.4,1.9-7.2,2.8-11.4,2.8C438.7,682.5,434.9,681.6,431.6,679.7z M450.1,674.3c2.3-1.2,4.1-3.1,5.6-5.5c1.4-2.5,2.1-5.4,2.1-9
			s-0.7-6.5-2.1-9c-1.4-2.5-3.2-4.3-5.4-5.5c-2.2-1.2-4.7-1.8-7.3-1.8c-2.7,0-5.1,0.6-7.3,1.8c-2.2,1.2-4,3-5.3,5.5
			c-1.3,2.5-2,5.4-2,9c0,3.6,0.7,6.6,2,9c1.3,2.5,3.1,4.3,5.2,5.5c2.2,1.2,4.6,1.8,7.2,1.8C445.4,676.1,447.8,675.5,450.1,674.3z"/>
		<path class="st13" d="M513.7,638v43.8h-7.3v-6.5c-1.4,2.2-3.3,4-5.8,5.2s-5.2,1.9-8.2,1.9c-3.4,0-6.5-0.7-9.2-2.1
			c-2.7-1.4-4.9-3.5-6.4-6.4c-1.6-2.8-2.4-6.3-2.4-10.3V638h7.2v24.7c0,4.3,1.1,7.6,3.3,10c2.2,2.3,5.2,3.5,9,3.5
			c3.9,0,7-1.2,9.2-3.6c2.2-2.4,3.4-5.9,3.4-10.5V638H513.7z"/>
		<path class="st13" d="M538.7,639.2c2.4-1.4,5.3-2.1,8.7-2.1v7.5h-1.9c-8.2,0-12.2,4.4-12.2,13.3v23.8H526V638h7.3v7.1
			C534.6,642.6,536.4,640.6,538.7,639.2z"/>
		<path class="st13" d="M577.2,647.9c1.8-3.4,4.3-6,7.6-7.9c3.2-1.9,6.9-2.8,11.1-2.8c5.4,0,9.8,1.3,13.3,3.9
			c3.5,2.6,5.8,6.2,6.9,10.9h-7.8c-0.7-2.7-2.2-4.8-4.4-6.3c-2.2-1.5-4.8-2.3-8-2.3c-4.2,0-7.5,1.4-10.1,4.3
			c-2.6,2.9-3.8,6.9-3.8,12.1c0,5.3,1.3,9.4,3.8,12.2c2.6,2.9,5.9,4.3,10.1,4.3c3.2,0,5.9-0.7,8-2.2c2.1-1.5,3.6-3.6,4.4-6.4h7.8
			c-1.2,4.5-3.5,8.1-7,10.8c-3.5,2.7-7.9,4-13.2,4c-4.2,0-7.8-0.9-11.1-2.8c-3.2-1.9-5.7-4.5-7.6-7.9c-1.8-3.4-2.7-7.4-2.7-12
			C574.5,655.3,575.4,651.3,577.2,647.9z"/>
		<path class="st13" d="M656.4,639.3c2.7,1.4,4.8,3.5,6.3,6.4c1.5,2.8,2.3,6.3,2.3,10.3v25.8h-7.2V657c0-4.4-1.1-7.7-3.3-10
			c-2.2-2.3-5.2-3.5-9-3.5c-3.8,0-6.9,1.2-9.2,3.6c-2.3,2.4-3.4,5.9-3.4,10.5v24.2h-7.3v-59.2h7.3v21.6c1.4-2.2,3.4-4,6-5.2
			c2.5-1.2,5.4-1.8,8.5-1.8C650.8,637.2,653.7,637.9,656.4,639.3z"/>
		<path class="st13" d="M677.1,629.4c-1-1-1.4-2.1-1.4-3.5c0-1.4,0.5-2.6,1.4-3.5c1-1,2.1-1.4,3.5-1.4c1.3,0,2.5,0.5,3.4,1.4
			c0.9,1,1.4,2.1,1.4,3.5c0,1.4-0.5,2.6-1.4,3.5c-0.9,1-2.1,1.4-3.4,1.4C679.3,630.8,678.1,630.4,677.1,629.4z M684.2,638v43.8h-7.3
			V638H684.2z"/>
		<path class="st13" d="M703.8,622.6v59.2h-7.3v-59.2H703.8z"/>
		<path class="st13" d="M716.2,647.9c1.8-3.4,4.3-6,7.5-7.9c3.2-1.9,6.7-2.8,10.7-2.8c3.4,0,6.6,0.8,9.5,2.4
			c2.9,1.6,5.2,3.6,6.7,6.2v-23.2h7.4v59.2h-7.4v-8.2c-1.4,2.6-3.6,4.8-6.4,6.4c-2.8,1.7-6.1,2.5-9.9,2.5c-3.9,0-7.4-1-10.6-2.9
			c-3.2-1.9-5.7-4.6-7.5-8.1c-1.8-3.5-2.7-7.4-2.7-11.8C713.5,655.2,714.4,651.3,716.2,647.9z M748.6,651.2
			c-1.3-2.5-3.1-4.3-5.4-5.6c-2.3-1.3-4.8-2-7.5-2s-5.2,0.6-7.4,1.9c-2.2,1.3-4,3.1-5.4,5.6c-1.3,2.5-2,5.3-2,8.6
			c0,3.4,0.7,6.3,2,8.8c1.3,2.5,3.1,4.4,5.4,5.7c2.2,1.3,4.7,2,7.4,2s5.2-0.7,7.5-2c2.3-1.3,4.1-3.2,5.4-5.7c1.3-2.5,2-5.4,2-8.7
			C750.6,656.5,749.9,653.6,748.6,651.2z"/>
	</g>
</g>
</svg>
