<?xml version="1.0" encoding="utf-8"?>
<!-- Generator: Adobe Illustrator 26.0.1, SVG Export Plug-In . SVG Version: 6.00 Build 0)  -->
<svg version="1.1" id="Layer_1" xmlns="http://www.w3.org/2000/svg" xmlns:xlink="http://www.w3.org/1999/xlink" x="0px" y="0px"
	 viewBox="0 0 1000 1000" style="enable-background:new 0 0 1000 1000;" xml:space="preserve">
<style type="text/css">
	.st0{fill:#FF9039;}
	.st1{opacity:0.6;fill:#DD7026;}
	.st2{fill:#FFFFFF;}
	.st3{fill:#FF4FB9;}
	.st4{fill:#FFE02F;}
	.st5{fill:#FFB1A0;}
	.st6{fill:#00C2FB;}
	.st7{fill:#7B6C79;}
	.st8{fill:#2F4DCA;}
	.st9{fill:#6B7ED9;}
	.st10{fill:#FF72C7;}
	.st11{fill:#DBEDFF;}
	.st12{fill:#4D66D2;}
	.st13{fill:#62DDFC;}
	.st14{fill:#FBC700;}
</style>
<g>
	<polygon class="st0" points="11.17,553.47 190.25,450.07 190.25,656.86 	"/>
	<path class="st0" d="M988.83,189.03V882.4c0,20.76-16.83,37.55-37.55,37.55H217.34c-20.76,0-37.55-16.79-37.55-37.55V189.03
		c0-20.72,16.79-37.55,37.55-37.55h733.94C972.01,151.49,988.83,168.31,988.83,189.03z"/>
	<path class="st1" d="M988.83,646.38V882.4c0,20.76-16.83,37.55-37.55,37.55H217.34c-20.76,0-37.55-16.79-37.55-37.55V399.13
		C345.14,647.71,624.58,906.19,988.83,646.38z"/>
	<g>
		<path class="st2" d="M307.01,291.6h-10.34v50.29h-12.59v-7.65c0-4.38-1.12-7.88-3.37-10.52c-2.25-2.64-5.38-3.96-9.4-3.96
			c-2.52,0-4.48,0.53-5.89,1.57c-1.41,1.05-2.11,2.5-2.11,4.36c0,1.86,0.64,3.24,1.93,4.14c1.29,0.9,2.92,1.35,4.9,1.35
			c1.08,0,2.22-0.06,3.42-0.18v10.34c-1.68,0.36-3.69,0.54-6.03,0.54c-4.98,0-9.07-1.41-12.28-4.23c-3.21-2.82-4.81-6.84-4.81-12.05
			c0-3.96,1.03-7.27,3.1-9.94c2.07-2.67,4.87-4.57,8.41-5.71c-0.66-3.18-2-5.46-4-6.84c-2.01-1.38-4.81-2.07-8.41-2.07v-9.45h-5.49
			v-10.08h62.97V291.6z M284.07,315.89V291.6h-23.12c3.6,1.62,6.49,3.96,8.68,7.02c2.19,3.06,3.58,6.57,4.18,10.52
			C278.49,309.92,281.91,312.17,284.07,315.89z"/>
		<path class="st2" d="M329.5,291.6h-7.65v50.29h-12.59v-44.71c0-2.34-0.31-3.85-0.94-4.54c-0.63-0.69-1.9-1.03-3.82-1.03h-2.88
			v-10.08h4.5c1.98,0,3.48,1.02,4.5,3.06c-0.6-3.24-0.9-6.12-0.9-8.64v-1.62h12.14v7.2h7.65V291.6z"/>
		<path class="st2" d="M370.87,291.6H325.9v-10.08h27.8c0-0.3,0.01-0.75,0.04-1.35c0.03-0.6,0.04-0.96,0.04-1.08
			c0-1.86-0.31-3.24-0.94-4.14s-1.88-1.35-3.73-1.35c-1.02,0-2.88,0.29-5.58,0.86c-2.7,0.57-4.86,0.85-6.48,0.85
			c-3,0-5.61-0.66-7.83-1.98v-9.62c1.86,1.02,4.08,1.53,6.66,1.53c1.56,0,3.85-0.36,6.88-1.08s5.62-1.08,7.78-1.08
			c4.74,0,8.37,1.25,10.88,3.73c2.52,2.49,3.78,5.98,3.78,10.48c0,1.44-0.12,2.85-0.36,4.23h6.03V291.6z M365.39,342.69h-16.46
			l-16.46-11.24v-9.9h9c4.08,0,7.17-0.88,9.27-2.65c2.1-1.77,3.15-4.18,3.15-7.24c0-1.98-0.53-3.54-1.57-4.68
			c-1.05-1.14-2.44-1.71-4.18-1.71c-1.68,0-3.03,0.53-4.05,1.57c-1.02,1.05-1.53,2.38-1.53,4c0,1.56,0.15,2.88,0.45,3.96h-11.42
			c-0.54-1.74-0.81-3.57-0.81-5.49c0-4.2,1.54-7.6,4.63-10.21c3.09-2.61,7.18-3.91,12.28-3.91c5.52,0,9.95,1.59,13.31,4.77
			c3.36,3.18,5.04,7.08,5.04,11.69c0,5.04-1.63,9.07-4.9,12.1c-3.27,3.03-7.6,4.96-13,5.8l17.27,11.78V342.69z"/>
		<path class="st2" d="M431.59,341.89H419v-26c0-4.44-1.65-6.66-4.95-6.66c-3.42,0-5.13,2.61-5.13,7.83v2.16h-12.86v-2.79
			c0-4.8-1.8-7.2-5.4-7.2c-1.8,0-3.16,0.65-4.09,1.93c-0.93,1.29-1.39,2.92-1.39,4.9c0,4.74,2.28,7.11,6.84,7.11
			c1.02,0,2.22-0.09,3.6-0.27v10.52c-1.62,0.24-3.3,0.36-5.04,0.36c-5.52,0-9.9-1.62-13.13-4.86c-3.24-3.24-4.86-7.59-4.86-13.04
			c0-5.1,1.48-9.24,4.45-12.41s7.12-4.77,12.46-4.77c3.6,0,6.52,0.76,8.77,2.29c2.25,1.53,3.64,3.43,4.18,5.71
			c0.6-2.28,1.74-4.2,3.42-5.76c1.68-1.56,3.9-2.34,6.66-2.34c2.76,0,4.92,0.87,6.48,2.61v-9.62h-51.72v-10.08h71.96v10.08h-7.65
			V341.89z"/>
		<path class="st2" d="M508.87,316.07c0,5.64-1.52,10.05-4.54,13.22c-3.03,3.18-7.21,4.77-12.55,4.77c-0.84,0-1.47-0.03-1.89-0.09
			v-11.33h0.9c3.96,0,5.94-2.19,5.94-6.57c0-5.46-4.08-8.19-12.23-8.19v34h-12.59l-31.3-12.77l0.09-0.09v-11.88l12.95-8.73
			l-12.68-7.47v-9.36h-5.31v-10.08h78.08v10.08h-65.67l17.54,11.51v10.71l-11.78,8.19l18.08,7.83V297h12.59
			c6.72,0,12.46,1.63,17.23,4.9C506.48,305.17,508.87,309.89,508.87,316.07z"/>
		<path class="st2" d="M574.44,341.89h-12.59v-26c0-4.44-1.65-6.66-4.95-6.66c-3.42,0-5.13,2.61-5.13,7.83v2.16h-12.86v-2.79
			c0-4.8-1.8-7.2-5.4-7.2c-1.8,0-3.16,0.65-4.09,1.93c-0.93,1.29-1.39,2.92-1.39,4.9c0,4.74,2.28,7.11,6.84,7.11
			c1.02,0,2.22-0.09,3.6-0.27v10.52c-1.62,0.24-3.3,0.36-5.04,0.36c-5.52,0-9.9-1.62-13.13-4.86c-3.24-3.24-4.86-7.59-4.86-13.04
			c0-5.1,1.48-9.24,4.45-12.41s7.12-4.77,12.46-4.77c3.6,0,6.52,0.76,8.77,2.29c2.25,1.53,3.64,3.43,4.18,5.71
			c0.6-2.28,1.74-4.2,3.42-5.76c1.68-1.56,3.9-2.34,6.66-2.34c2.76,0,4.92,0.87,6.48,2.61v-9.62h-51.72v-10.08h71.96v10.08h-7.65
			V341.89z"/>
		<path class="st2" d="M606.74,342.52c-0.96,0.18-2.1,0.27-3.42,0.27c-3.3,0-6.18-0.71-8.64-2.11c-2.46-1.41-4.42-3.34-5.89-5.8
			c-1.47-2.46-2.56-5.19-3.28-8.19s-1.11-6.24-1.17-9.72c0-12.53,1.8-20.99,5.4-25.37h-11.24v-10.08h31.39v10.08h-2.97
			c-2.22,0-4.06,0.66-5.53,1.98c-1.47,1.32-2.53,3.27-3.19,5.85c-0.66,2.58-1.11,5.19-1.35,7.83c-0.24,2.64-0.36,5.88-0.36,9.71
			c0,9.84,2.73,14.75,8.19,14.75c0.96,0,1.65-0.03,2.07-0.09V342.52z"/>
		<path class="st2" d="M675.19,317.87c0,5.64-1.52,10.05-4.54,13.22c-3.03,3.18-7.21,4.77-12.55,4.77c-0.84,0-1.47-0.03-1.89-0.09
			v-11.33h0.9c3.96,0,5.94-2.19,5.94-6.57c0-2.94-1.07-5.37-3.19-7.29c-2.13-1.92-5.14-3-9.04-3.24v34.54h-12.14v-0.09l-0.09,0.09
			l-27.17-18.8v-12.05c4.92-3.96,9.45-7.15,13.58-9.58c4.14-2.43,8.69-4.12,13.67-5.08v-4.77h-32.38v-10.08h73.76v10.08h-29.24v4.77
			c6.42,0.18,12.08,2.2,17,6.07C672.73,306.31,675.19,311.45,675.19,317.87z M638.67,328.75V307.7c-5.22,1.74-10.58,4.89-16.1,9.45
			L638.67,328.75z"/>
		<path class="st2" d="M272.28,450.52c-0.96,0.18-2.04,0.27-3.24,0.27c-6.06,0-10.74-2.29-14.03-6.88
			c-3.3-4.59-5.01-10.9-5.13-18.94c-0.06-4.2,0.1-7.99,0.5-11.38c0.39-3.39,1.09-6.61,2.11-9.67c1.02-3.06,2.37-5.62,4.05-7.69
			c1.68-2.07,3.87-3.7,6.57-4.9c2.7-1.2,5.82-1.8,9.36-1.8h2.97v10.08h-2.61c-1.98,0-3.66,0.51-5.04,1.53
			c-1.38,1.02-2.43,2.26-3.15,3.73c-0.72,1.47-1.29,3.43-1.71,5.89c-0.42,2.46-0.67,4.69-0.76,6.7c-0.09,2.01-0.13,4.51-0.13,7.51
			c0,9.84,2.73,14.75,8.19,14.75c0.96,0,1.65-0.03,2.07-0.09V450.52z"/>
		<path class="st2" d="M279.66,425.6l7.11-3.96c-2.4-3.9-5.43-6.42-9.09-7.56v-4.86c0-5.28,1.75-10.03,5.26-14.26
			c3.51-4.23,8.5-6.34,14.98-6.34c6.42,0,11,2.28,13.76,6.84v-13.13h12.59v7.2h7.65v10.08h-7.65v50.29h-12.59v-29.87l-32.02,18.53
			V425.6z M289.82,409.31c2.76,1.32,5.04,3.6,6.84,6.84l14.39-8.1c-1.44-5.76-5.07-8.64-10.88-8.64c-3,0-5.47,0.94-7.42,2.83
			C290.8,404.14,289.82,406.5,289.82,409.31z"/>
		<path class="st2" d="M356.21,399.6h-7.65v50.29h-12.59V399.6h-7.65v-10.08h8.91c0.18-2.52,0.27-4.41,0.27-5.67
			c0-1.86-0.31-3.24-0.94-4.14s-1.88-1.35-3.73-1.35c-1.02,0-2.88,0.21-5.58,0.63c-2.7,0.42-4.86,0.63-6.48,0.63
			c-3.06,0-5.67-0.63-7.83-1.89v-9.54c2.22,0.9,4.44,1.35,6.66,1.35c1.56,0,3.85-0.28,6.88-0.85c3.03-0.57,5.62-0.85,7.78-0.85
			c4.74,0,8.37,1.25,10.88,3.73c2.52,2.49,3.78,5.98,3.78,10.48c0,2.58-0.21,5.07-0.63,7.47h7.92V399.6z"/>
		<path class="st2" d="M361.52,369.01c0,4.38-1.54,8.13-4.63,11.25c-3.09,3.12-7.63,4.68-13.63,4.68c-5.94,0-10.48-1.56-13.63-4.68
			c-3.15-3.12-4.72-6.87-4.72-11.25h9.63c0,2.16,0.69,4,2.07,5.53c1.38,1.53,3.6,2.29,6.66,2.29c5.82,0,8.73-2.61,8.73-7.83H361.52z
			 M348.92,366.95c0,1.56-0.54,2.86-1.62,3.91c-1.08,1.05-2.43,1.57-4.05,1.57c-1.56,0-2.86-0.52-3.91-1.57
			c-1.05-1.05-1.57-2.35-1.57-3.91s0.53-2.88,1.57-3.96c1.05-1.08,2.35-1.62,3.91-1.62c1.62-0.06,2.98,0.45,4.09,1.53
			C348.46,363.98,348.98,365.33,348.92,366.95z"/>
		<path class="st2" d="M404.97,454.38h-17.45l-23.75-12.23v-8.55c2.52,0.12,4.44,0.18,5.76,0.18c3.54,0,6.81-0.21,9.81-0.63
			c3-0.42,5.76-1.09,8.28-2.02c2.52-0.93,4.5-2.25,5.94-3.96s2.16-3.73,2.16-6.07c0-1.68-0.56-2.97-1.66-3.87
			c-1.11-0.9-2.8-1.62-5.08-2.16c0.06,0.24,0.09,0.63,0.09,1.17c0,3.42-1.53,6.52-4.59,9.31c-3.06,2.79-6.6,4.18-10.62,4.18
			c-4.08,0-7.24-1.03-9.49-3.1c-2.25-2.07-3.37-5.02-3.37-8.86V399.6h-8.37v-10.08h61.35v10.08h-42.28v2.97l3.78,0.72
			c0.12,0,0.21,0.03,0.27,0.09l13.76,2.61c6,1.2,10.42,3,13.27,5.4c2.85,2.4,4.27,5.7,4.27,9.89c0,5.64-2.37,10.21-7.11,13.72
			c-4.74,3.51-10.88,5.8-18.44,6.88c4.8,2.04,7.97,3.45,9.54,4.23l13.94,7.11V454.38z M373.93,421.28c1.32,0,2.49-0.63,3.51-1.89
			c1.02-1.26,1.53-2.61,1.53-4.05c0-1.02-0.27-1.74-0.81-2.16c-0.54-0.42-1.5-0.78-2.88-1.08l-3.6-0.72v7.29
			C371.68,420.41,372.43,421.28,373.93,421.28z"/>
		<path class="st2" d="M438.25,399.6h-7.65v50.29h-12.59v-44.71c0-2.34-0.31-3.85-0.94-4.54c-0.63-0.69-1.9-1.03-3.82-1.03h-2.88
			v-10.08h4.5c1.98,0,3.48,1.02,4.5,3.06c-0.6-3.24-0.9-6.12-0.9-8.64v-1.62h12.14v7.2h7.65V399.6z"/>
		<path class="st2" d="M462.9,450.52c-0.96,0.18-2.1,0.27-3.42,0.27c-3.3,0-6.18-0.71-8.64-2.11c-2.46-1.41-4.42-3.34-5.89-5.8
			c-1.47-2.46-2.56-5.19-3.28-8.19s-1.11-6.24-1.17-9.72c0-12.53,1.8-20.99,5.4-25.37h-11.24v-10.08h31.39v10.08h-2.97
			c-2.22,0-4.06,0.66-5.53,1.98c-1.47,1.32-2.53,3.27-3.19,5.85c-0.66,2.58-1.11,5.19-1.35,7.83c-0.24,2.64-0.36,5.88-0.36,9.71
			c0,9.84,2.73,14.75,8.19,14.75c0.96,0,1.65-0.03,2.07-0.09V450.52z"/>
		<path class="st2" d="M512.19,449.89H499.6c-0.36-2.52-0.87-5.07-1.53-7.65c-0.66-2.58-1.54-5.28-2.65-8.1
			c-1.11-2.82-2.53-5.11-4.27-6.88c-1.74-1.77-3.66-2.65-5.76-2.65c-2.04,0-3.57,0.66-4.59,1.98c-1.02,1.32-1.53,3.06-1.53,5.22
			c0,1.68,0.15,3.33,0.45,4.95h-12.23c-0.54-2.22-0.81-4.29-0.81-6.21c0-4.74,1.47-8.75,4.41-12.05c2.94-3.3,7.02-4.95,12.23-4.95
			c7.32,0,12.74,3.57,16.28,10.71V399.6h-37.15v-10.08h56.58v10.08h-6.84V449.89z"/>
		<path class="st2" d="M543.32,399.6h-7.65v50.29h-12.59v-44.71c0-2.34-0.31-3.85-0.94-4.54c-0.63-0.69-1.9-1.03-3.82-1.03h-2.88
			v-10.08h4.5c1.98,0,3.48,1.02,4.5,3.06c-0.6-3.24-0.9-6.12-0.9-8.64v-1.62h12.14v7.2h7.65V399.6z"/>
		<path class="st2" d="M549.48,413.45c-2.91-2.7-4.36-6.18-4.36-10.43c0-4.26,1.45-7.72,4.36-10.39c2.91-2.67,6.67-4,11.29-4
			c4.62,0,8.37,1.34,11.24,4c2.88,2.67,4.32,6.13,4.32,10.39c0,4.26-1.44,7.74-4.32,10.43c-2.88,2.7-6.63,4.05-11.24,4.05
			C556.15,417.5,552.39,416.15,549.48,413.45z M549.48,446.74c-2.91-2.7-4.36-6.18-4.36-10.43c0-4.26,1.45-7.72,4.36-10.39
			c2.91-2.67,6.67-4,11.29-4c4.62,0,8.37,1.33,11.24,4c2.88,2.67,4.32,6.13,4.32,10.39c0,4.26-1.44,7.74-4.32,10.43
			s-6.63,4.05-11.24,4.05C556.15,450.78,552.39,449.43,549.48,446.74z M564.64,407.25c0.9-1.08,1.35-2.49,1.35-4.23
			c0-1.74-0.45-3.16-1.35-4.27c-0.9-1.11-2.19-1.66-3.87-1.66c-1.68,0-2.98,0.56-3.91,1.66c-0.93,1.11-1.39,2.53-1.39,4.27
			c0,1.74,0.46,3.15,1.39,4.23c0.93,1.08,2.23,1.62,3.91,1.62C562.44,408.86,563.73,408.33,564.64,407.25z M564.64,440.53
			c0.9-1.08,1.35-2.49,1.35-4.23s-0.45-3.16-1.35-4.27c-0.9-1.11-2.19-1.66-3.87-1.66c-1.68,0-2.98,0.55-3.91,1.66
			c-0.93,1.11-1.39,2.53-1.39,4.27s0.46,3.15,1.39,4.23c0.93,1.08,2.23,1.62,3.91,1.62C562.44,442.15,563.73,441.61,564.64,440.53z"
			/>
	</g>
	<g>
		<path class="st2" d="M283.44,581.45V553.2l-31.57,14.21v-6.93l8.37-3.69c-2.16-3.36-5.04-5.73-8.64-7.11v-1.8
			c0-4.8,1.59-9.04,4.77-12.73s7.59-5.53,13.22-5.53c6.48,0,11.09,2.25,13.85,6.75v-13.4h6.93v7.56h10.17v6.03h-10.17v54.06h-6.93
			v-0.72c0-2.7-1.2-4.05-3.6-4.05c-0.96,0-3.01,0.4-6.16,1.21s-6.07,1.21-8.77,1.21c-3.96,0-7.09-1.17-9.4-3.51
			s-3.46-5.52-3.46-9.54c0-1.74,0.18-3.33,0.54-4.77h6.57c-0.3,1.5-0.45,2.97-0.45,4.41c0,4.74,2.25,7.11,6.75,7.11
			c1.86,0,4.18-0.37,6.97-1.12c2.79-0.75,5.02-1.12,6.7-1.12C280.87,579.74,282.31,580.31,283.44,581.45z M258.53,546.36
			c3.18,1.74,5.67,4.38,7.47,7.92l17.18-7.65c-0.6-3.36-1.96-6.03-4.09-8.01c-2.13-1.98-4.99-2.97-8.59-2.97
			c-3.6,0-6.4,1.05-8.41,3.15C260.07,540.91,258.89,543.43,258.53,546.36z"/>
		<path class="st2" d="M324.2,536.56h-10.17v51.72h-6.93v-51.72h-10.17v-6.03h10.17v-2.97c0-12.29,6.81-18.44,20.42-18.44
			c7.08,0,14.99,1.32,23.75,3.96v5.94c-8.04-2.58-15.86-3.87-23.48-3.87c-5.16,0-8.74,1.05-10.75,3.15
			c-2.01,2.1-3.01,5.19-3.01,9.27v2.97h10.17V536.56z"/>
		<path class="st2" d="M384.47,536.56H320.6v-6.03h63.87V536.56z M376.64,560.13c0,3.12-0.45,6.1-1.35,8.95
			c-0.9,2.85-2.25,5.46-4.05,7.83c-1.8,2.37-4.26,4.26-7.38,5.67c-3.12,1.41-6.69,2.11-10.71,2.11c-8.04,0-14.2-2.86-18.49-8.59
			c-4.29-5.73-6.43-12.94-6.43-21.63c0-3,0.18-5.85,0.54-8.55h6.84c-0.36,2.22-0.54,5.07-0.54,8.55c0,6.96,1.54,12.71,4.63,17.27
			c3.09,4.56,7.57,6.84,13.45,6.84c5.34,0,9.42-1.71,12.23-5.13c2.82-3.42,4.23-7.86,4.23-13.31c0-3.3-0.62-6.03-1.84-8.19
			c-1.23-2.16-3.19-3.24-5.89-3.24c-2.22,0-3.93,0.76-5.13,2.29c-1.2,1.53-1.8,3.52-1.8,5.98c0,2.1,0.33,4.41,0.99,6.93h-6.48
			c-0.9-2.28-1.35-4.68-1.35-7.2c0-4.02,1.18-7.36,3.55-10.03c2.37-2.67,5.74-4,10.12-4c4.5,0,8.1,1.71,10.79,5.13
			C375.29,551.22,376.64,555.33,376.64,560.13z"/>
		<path class="st2" d="M407.76,588.91c-0.48,0.06-1.32,0.09-2.52,0.09c-5.76,0-9.96-2.25-12.59-6.75c-2.64-4.5-4.02-10.4-4.14-17.72
			c0-13.61,2.76-22.94,8.28-27.98h-15.92v-6.03h29.42v6.03h-1.35c-2.58,0-4.78,0.81-6.61,2.43c-1.83,1.62-3.24,3.82-4.23,6.61
			c-0.99,2.79-1.7,5.74-2.11,8.86c-0.42,3.12-0.63,6.48-0.63,10.08c0,12.17,3.57,18.26,10.71,18.26h1.71V588.91z"/>
		<path class="st2" d="M461.29,536.56h-10.17v51.72h-7.02l-30.32-15.29v-7.83l16.19-11.96l-16.1-11.42v-5.22h-7.2v-6.03h54.6V536.56
			z M435.92,549.51v7.2l-15.38,11.87l23.57,12.32v-44.35h-25.64L435.92,549.51z"/>
		<path class="st2" d="M484.85,536.56h-10.17v51.72h-6.93v-44.44c0-2.34-0.42-4.14-1.26-5.4c-0.84-1.26-2.34-1.89-4.5-1.89h-4.41
			v-6.03h4.68c2.88,0,4.98,1.29,6.3,3.87c-0.48-2.76-0.72-5.67-0.72-8.73v-2.7h6.84v7.56h10.17V536.56z"/>
		<path class="st2" d="M508.51,536.56h-10.17v51.72h-6.93v-51.72h-10.17v-6.03h10.17v-2.97c0-12.29,6.81-18.44,20.42-18.44
			c7.08,0,14.99,1.32,23.75,3.96v5.94c-8.04-2.58-15.86-3.87-23.48-3.87c-5.16,0-8.74,1.05-10.75,3.15
			c-2.01,2.1-3.01,5.19-3.01,9.27v2.97h10.17V536.56z"/>
		<path class="st2" d="M549.89,588.28h-6.93v-37.6c0-4.5-1.06-8.1-3.19-10.79c-2.13-2.7-5.29-4.05-9.49-4.05
			c-3.84,0-6.79,1.03-8.86,3.1c-2.07,2.07-3.22,4.84-3.46,8.32h1.08c4.68,0,8.42,1.2,11.24,3.6c2.82,2.4,4.26,5.67,4.32,9.81
			c-0.06,4.32-1.57,7.71-4.54,10.17s-6.91,3.69-11.83,3.69c-2.34,0-4.8-0.24-7.38-0.72v-5.85c1.74,0.24,4.2,0.36,7.38,0.36
			c6.24,0,9.36-2.55,9.36-7.65c0-2.4-0.81-4.24-2.43-5.53c-1.62-1.29-3.93-1.93-6.93-1.93h-7.11v-4.77c0-5.1,1.59-9.5,4.77-13.22
			c3.18-3.72,7.56-5.58,13.13-5.58c6.66,0,11.3,2.22,13.94,6.66v-13.31h6.93v7.56h10.17v6.03h-10.17V588.28z"/>
		<path class="st2" d="M620.33,536.56h-63.87v-6.03h63.87V536.56z M612.5,560.13c0,3.12-0.45,6.1-1.35,8.95
			c-0.9,2.85-2.25,5.46-4.05,7.83c-1.8,2.37-4.26,4.26-7.38,5.67c-3.12,1.41-6.69,2.11-10.71,2.11c-8.04,0-14.2-2.86-18.49-8.59
			c-4.29-5.73-6.43-12.94-6.43-21.63c0-3,0.18-5.85,0.54-8.55h6.84c-0.36,2.22-0.54,5.07-0.54,8.55c0,6.96,1.54,12.71,4.63,17.27
			c3.09,4.56,7.57,6.84,13.45,6.84c5.34,0,9.42-1.71,12.23-5.13c2.82-3.42,4.23-7.86,4.23-13.31c0-3.3-0.62-6.03-1.84-8.19
			c-1.23-2.16-3.19-3.24-5.89-3.24c-2.22,0-3.93,0.76-5.13,2.29c-1.2,1.53-1.8,3.52-1.8,5.98c0,2.1,0.33,4.41,0.99,6.93h-6.48
			c-0.9-2.28-1.35-4.68-1.35-7.2c0-4.02,1.18-7.36,3.55-10.03c2.37-2.67,5.74-4,10.12-4c4.5,0,8.1,1.71,10.79,5.13
			C611.15,551.22,612.5,555.33,612.5,560.13z"/>
		<path class="st2" d="M643.98,536.56h-10.17v51.72h-6.93v-44.44c0-2.34-0.42-4.14-1.26-5.4c-0.84-1.26-2.34-1.89-4.5-1.89h-4.41
			v-6.03h4.68c2.88,0,4.98,1.29,6.3,3.87c-0.48-2.76-0.72-5.67-0.72-8.73v-2.7h6.84v7.56h10.17V536.56z"/>
		<path class="st2" d="M694.99,536.56h-10.17v51.72h-7.02l-30.32-15.29v-7.83l16.19-11.96l-16.1-11.42v-5.22h-7.2v-6.03h54.6V536.56
			z M659.54,587.97c0.96,0.93,1.44,2.05,1.44,3.37c0,1.32-0.46,2.43-1.39,3.33s-2.08,1.35-3.46,1.35c-1.38,0-2.5-0.45-3.37-1.35
			c-0.87-0.9-1.3-2.01-1.3-3.33c0-1.32,0.45-2.44,1.35-3.37c0.9-0.93,2.01-1.39,3.33-1.39
			C657.44,586.57,658.58,587.04,659.54,587.97z M669.62,549.51v7.2l-15.38,11.87l23.57,12.32v-44.35h-25.64L669.62,549.51z"/>
		<path class="st2" d="M784.85,588.28h-6.93v-1.44c0-8.58-3.3-12.86-9.9-12.86h-5.22c-4.2,5.22-10.2,7.83-17.99,7.83
			c-7.8,0-13.84-2.44-18.13-7.33c-4.29-4.89-6.43-11.29-6.43-19.21c0-3.12,0.21-6.3,0.63-9.54h6.84c-0.42,3.48-0.63,6.69-0.63,9.63
			c0,6.36,1.56,11.33,4.68,14.93c3.12,3.6,7.43,5.4,12.95,5.4c5.1,0,9.05-1.57,11.87-4.72c2.82-3.15,4.23-7.3,4.23-12.46
			c0-3.12-0.62-5.65-1.84-7.6c-1.23-1.95-3.1-2.92-5.62-2.92c-2.16,0-3.84,0.78-5.04,2.34c-1.2,1.56-1.8,3.57-1.8,6.03
			c0,1.74,0.3,3.93,0.9,6.57h-6.3c-0.84-2.1-1.26-4.47-1.26-7.11c0-3.9,1.2-7.18,3.6-9.85c2.4-2.67,5.67-4,9.8-4
			c4.5,0,8.05,1.59,10.66,4.77c2.61,3.18,3.91,7.11,3.91,11.78c0,3.42-0.57,6.57-1.71,9.45h2.16c4.44,0,7.65,1.44,9.63,4.32v-35.71
			h-66.3v-6.03h83.39v6.03h-10.17V588.28z"/>
		<path class="st2" d="M797.72,543.39c0-3.78,1.32-6.97,3.96-9.58c2.64-2.61,6.03-3.91,10.17-3.91c4.02,0,7.35,1.3,9.99,3.91
			c2.64,2.61,3.96,5.8,3.96,9.58c0,3.9-1.3,7.14-3.91,9.72c-2.61,2.58-5.95,3.87-10.03,3.87c-4.14,0-7.53-1.29-10.17-3.87
			C799.04,550.53,797.72,547.29,797.72,543.39z M797.72,567.23v-7.56l30.5,21.32v7.47L797.72,567.23z M819.13,543.39
			c0-2.22-0.66-4.05-1.98-5.49c-1.32-1.44-3.09-2.16-5.31-2.16c-2.28,0-4.09,0.71-5.44,2.11c-1.35,1.41-2.02,3.25-2.02,5.53
			c0,2.34,0.67,4.23,2.02,5.67s3.16,2.16,5.44,2.16c2.22,0,3.99-0.72,5.31-2.16C818.47,547.62,819.13,545.73,819.13,543.39z"/>
		<path class="st2" d="M884.07,588.28h-6.93v-39.22c0-3.66-0.87-6.81-2.61-9.45c-1.74-2.64-4.68-3.96-8.82-3.96
			c-3.06,0-5.49,0.93-7.29,2.79c-1.8,1.86-2.7,4.35-2.7,7.47c0,3.36,0.85,5.91,2.56,7.65c1.71,1.74,4.03,2.61,6.97,2.61
			c1.26,0,2.52-0.09,3.78-0.27v6.21c-1.38,0.24-2.82,0.36-4.32,0.36c-5.76,0-9.93-2.07-12.5-6.21c-2.52,4.14-6.63,6.21-12.32,6.21
			c-1.68,0-3.36-0.18-5.04-0.54v-6.12c1.38,0.24,2.85,0.36,4.41,0.36c3.06,0,5.41-0.87,7.06-2.61c1.65-1.74,2.47-4.29,2.47-7.65
			c0-3.06-0.93-5.37-2.79-6.93c-1.86-1.56-4.44-2.34-7.74-2.34l-9.17-0.09v-6.03h9.54c6.12,0,10.58,2.01,13.4,6.03
			c2.88-4.62,7.29-6.93,13.22-6.93c5.28,0,9.23,1.71,11.87,5.13v-11.78h6.93v7.56h10.17v6.03h-10.17V588.28z"/>
		<path class="st2" d="M271.3,644.51h-10.17v51.72h-6.93v-51.72h-10.17v-6.03h10.17v-2.97c0-12.29,6.81-18.44,20.42-18.44
			c7.08,0,14.99,1.32,23.75,3.96v5.94c-8.04-2.58-15.86-3.87-23.48-3.87c-5.16,0-8.74,1.05-10.75,3.15
			c-2.01,2.1-3.01,5.19-3.01,9.27v2.97h10.17V644.51z"/>
		<path class="st2" d="M312.23,696.23h-6.93v-0.36c-1.92-18.83-7.29-28.25-16.1-28.25c-2.94,0-5.19,0.9-6.75,2.7
			c-1.56,1.8-2.34,4.26-2.34,7.38c0,1.56,0.09,2.94,0.27,4.14h-6.84c-0.3-1.92-0.45-3.42-0.45-4.5c0-4.62,1.41-8.46,4.23-11.51
			c2.82-3.06,6.6-4.59,11.33-4.59c7.79,0,13.34,4.29,16.64,12.86v-29.6h-37.6v-6.03h54.51v6.03h-9.99V696.23z"/>
		<path class="st2" d="M345.51,696.86c-0.48,0.06-1.32,0.09-2.52,0.09c-5.76,0-9.96-2.25-12.59-6.75c-2.64-4.5-4.02-10.4-4.14-17.72
			c0-13.61,2.76-22.94,8.28-27.98h-15.92v-6.03h29.42v6.03h-1.35c-2.58,0-4.78,0.81-6.61,2.43c-1.83,1.62-3.24,3.82-4.23,6.61
			c-0.99,2.79-1.7,5.74-2.11,8.86c-0.42,3.12-0.63,6.48-0.63,10.08c0,12.17,3.57,18.26,10.71,18.26h1.71V696.86z"/>
		<path class="st2" d="M399.04,644.51h-10.17v51.72h-7.02l-30.32-15.29v-7.83l16.19-11.96l-16.1-11.42v-5.22h-7.2v-6.03h54.6V644.51
			z M363.59,695.92c0.96,0.93,1.44,2.05,1.44,3.37c0,1.32-0.46,2.43-1.39,3.33s-2.08,1.35-3.46,1.35c-1.38,0-2.5-0.45-3.37-1.35
			c-0.87-0.9-1.3-2.01-1.3-3.33c0-1.32,0.45-2.44,1.35-3.37c0.9-0.93,2.01-1.39,3.33-1.39
			C361.49,694.52,362.63,694.99,363.59,695.92z M373.67,657.46v7.2l-15.38,11.87l23.57,12.32v-44.35h-25.64L373.67,657.46z"/>
		<path class="st2" d="M442.93,644.51h-10.17v51.72h-6.93v-51.72h-10.17v-6.03h10.17v-2.97c0-12.29,6.81-18.44,20.42-18.44
			c7.08,0,14.99,1.32,23.75,3.96v5.94c-8.04-2.58-15.86-3.87-23.48-3.87c-5.16,0-8.74,1.05-10.75,3.15
			c-2.01,2.1-3.01,5.19-3.01,9.27v2.97h10.17V644.51z"/>
		<path class="st2" d="M483.86,696.23h-6.93v-0.36c-1.92-18.83-7.29-28.25-16.1-28.25c-2.94,0-5.19,0.9-6.75,2.7
			c-1.56,1.8-2.34,4.26-2.34,7.38c0,1.56,0.09,2.94,0.27,4.14h-6.84c-0.3-1.92-0.45-3.42-0.45-4.5c0-4.62,1.41-8.46,4.23-11.51
			c2.82-3.06,6.6-4.59,11.33-4.59c7.79,0,13.34,4.29,16.64,12.86v-29.6h-37.6v-6.03h54.51v6.03h-9.99V696.23z"/>
		<path class="st2" d="M517.15,696.86c-0.48,0.06-1.32,0.09-2.52,0.09c-5.76,0-9.96-2.25-12.59-6.75c-2.64-4.5-4.02-10.4-4.14-17.72
			c0-13.61,2.76-22.94,8.28-27.98h-15.92v-6.03h29.42v6.03h-1.35c-2.58,0-4.78,0.81-6.61,2.43c-1.83,1.62-3.24,3.82-4.23,6.61
			c-0.99,2.79-1.7,5.74-2.11,8.86c-0.42,3.12-0.63,6.48-0.63,10.08c0,12.17,3.57,18.26,10.71,18.26h1.71V696.86z"/>
		<path class="st2" d="M587.04,696.23h-6.84c-1.32-5.46-1.98-11.21-1.98-17.27c0-5.34,0.66-10.55,1.98-15.65
			c-5.64-1.32-10.74-3.51-15.29-6.57s-7.83-6.72-9.8-10.97c-5.58,4.14-8.37,8.82-8.37,14.03c0,4.86,2.85,7.29,8.55,7.29
			c4.2,0,8.4-0.93,12.59-2.79c1.14,2.46,1.71,5.43,1.71,8.91c0,6.54-1.92,11.92-5.76,16.15c-3.84,4.23-9.24,6.34-16.19,6.34
			c-7.68,0-13.73-2.76-18.17-8.28c-4.44-5.52-6.66-12.65-6.66-21.41c0-0.9,0.06-2.31,0.18-4.23h6.84c-0.06,0.84-0.09,2.07-0.09,3.69
			c0,7.2,1.56,13.01,4.68,17.45c3.12,4.44,7.53,6.66,13.22,6.66c5.04,0,8.86-1.48,11.47-4.45s3.91-6.94,3.91-11.92v-1.44
			c-2.82,0.96-5.94,1.44-9.36,1.44c-4.32,0-7.74-1.18-10.25-3.55c-2.52-2.37-3.78-5.59-3.78-9.67c0-5.94,2.46-11.09,7.38-15.47
			h-30.94v-6.03h78.35v6.03h-32.56c4.38,7.14,13.04,11.96,26,14.48c-1.92,6.42-2.88,13.08-2.88,19.97
			C584.97,683.7,585.66,689.46,587.04,696.23z"/>
		<path class="st2" d="M617.72,696.86c-0.48,0.06-1.32,0.09-2.52,0.09c-5.76,0-9.96-2.25-12.59-6.75c-2.64-4.5-4.02-10.4-4.14-17.72
			c0-13.61,2.76-22.94,8.28-27.98h-15.92v-6.03h29.42v6.03h-1.35c-2.58,0-4.78,0.81-6.61,2.43c-1.83,1.62-3.24,3.82-4.23,6.61
			c-0.99,2.79-1.7,5.74-2.11,8.86c-0.42,3.12-0.63,6.48-0.63,10.08c0,12.17,3.57,18.26,10.71,18.26h1.71V696.86z"/>
		<path class="st2" d="M681.67,671.22c0,5.28-1.44,9.36-4.32,12.23c-2.88,2.88-6.54,4.32-10.98,4.32c-0.78,0-1.35-0.03-1.71-0.09
			v-6.48h1.08c6.06,0,9.08-3.33,9.08-9.99c0-4.32-1.65-7.78-4.95-10.39c-3.3-2.61-7.5-3.91-12.59-3.91v39.31h-6.84l-28.16-21.5
			v-7.83c10.01-9.17,19.4-14.54,28.16-16.1v-6.3h-33.82v-6.03h70.62v6.03H657.3v6.21c7.02,0.06,12.83,1.99,17.45,5.8
			C679.36,660.33,681.67,665.23,681.67,671.22z M650.46,688.23v-30.95c-6.78,1.68-14.18,6.21-22.22,13.58L650.46,688.23z"/>
		<path class="st2" d="M270.94,804.81c-0.48,0.06-1.29,0.09-2.43,0.09c-5.7,0-9.9-2.23-12.59-6.7c-2.7-4.47-4.11-10.39-4.23-17.77
			c0-4.2,0.32-8.16,0.95-11.88c0.63-3.72,1.66-7.32,3.1-10.79c1.44-3.48,3.55-6.24,6.34-8.28c2.79-2.04,6.13-3.06,10.03-3.06h1.35
			v6.03h-1.26c-2.58,0-4.81,0.83-6.7,2.47c-1.89,1.65-3.31,3.88-4.27,6.7c-0.96,2.82-1.65,5.77-2.07,8.86
			c-0.42,3.09-0.63,6.4-0.63,9.94c0,12.17,3.57,18.26,10.71,18.26h1.71V804.81z"/>
		<path class="st2" d="M309.26,797.34V769.1l-31.57,14.21v-6.93l8.37-3.69c-2.16-3.36-5.04-5.73-8.64-7.11v-1.8
			c0-4.8,1.59-9.04,4.77-12.73s7.59-5.53,13.22-5.53c6.48,0,11.09,2.25,13.85,6.75v-13.4h6.93v7.56h10.17v6.03h-10.17v54.06h-6.93
			v-0.72c0-2.7-1.2-4.05-3.6-4.05c-0.96,0-3.01,0.4-6.16,1.21s-6.07,1.21-8.77,1.21c-3.96,0-7.09-1.17-9.4-3.51
			s-3.46-5.52-3.46-9.54c0-1.74,0.18-3.33,0.54-4.77h6.57c-0.3,1.5-0.45,2.97-0.45,4.41c0,4.74,2.25,7.11,6.75,7.11
			c1.86,0,4.18-0.37,6.97-1.12c2.79-0.75,5.02-1.12,6.7-1.12C306.68,795.63,308.12,796.2,309.26,797.34z M284.34,762.26
			c3.18,1.74,5.67,4.38,7.47,7.92l17.18-7.65c-0.6-3.36-1.96-6.03-4.09-8.01c-2.13-1.98-4.99-2.97-8.59-2.97
			c-3.6,0-6.4,1.05-8.41,3.15C285.89,756.8,284.7,759.32,284.34,762.26z"/>
		<path class="st2" d="M349.65,804.81c-0.48,0.06-1.32,0.09-2.52,0.09c-5.76,0-9.96-2.25-12.59-6.75c-2.64-4.5-4.02-10.4-4.14-17.72
			c0-13.61,2.76-22.94,8.28-27.98h-15.92v-6.03h29.42v6.03h-1.35c-2.58,0-4.78,0.81-6.61,2.43c-1.83,1.62-3.24,3.82-4.23,6.61
			c-0.99,2.79-1.7,5.74-2.11,8.86c-0.42,3.12-0.63,6.48-0.63,10.08c0,12.17,3.57,18.26,10.71,18.26h1.71V804.81z"/>
		<path class="st2" d="M419.55,804.18h-6.84c-1.32-5.46-1.98-11.21-1.98-17.27c0-5.34,0.66-10.55,1.98-15.65
			c-5.64-1.32-10.74-3.51-15.29-6.57s-7.83-6.72-9.8-10.97c-5.58,4.14-8.37,8.82-8.37,14.03c0,4.86,2.85,7.29,8.55,7.29
			c4.2,0,8.4-0.93,12.59-2.79c1.14,2.46,1.71,5.43,1.71,8.91c0,6.54-1.92,11.92-5.76,16.15c-3.84,4.23-9.24,6.34-16.19,6.34
			c-7.68,0-13.73-2.76-18.17-8.28c-4.44-5.52-6.66-12.65-6.66-21.41c0-0.9,0.06-2.31,0.18-4.23h6.84c-0.06,0.84-0.09,2.07-0.09,3.69
			c0,7.2,1.56,13.01,4.68,17.45c3.12,4.44,7.53,6.66,13.22,6.66c5.04,0,8.86-1.48,11.47-4.45s3.91-6.94,3.91-11.92v-1.44
			c-2.82,0.96-5.94,1.44-9.36,1.44c-4.32,0-7.74-1.18-10.25-3.55c-2.52-2.37-3.78-5.59-3.78-9.67c0-5.94,2.46-11.09,7.38-15.47
			h-30.94v-6.03h78.35v6.03h-32.56c4.38,7.14,13.04,11.96,26,14.48c-1.92,6.42-2.88,13.08-2.88,19.97
			C417.48,791.65,418.17,797.4,419.55,804.18z"/>
		<path class="st2" d="M443.56,764.15c3.54,0,6.69,0.87,9.45,2.61c2.76,1.74,4.92,4.08,6.48,7.02v-21.32h-36.16v-6.03h63.96
			c0.3-1.5,0.45-3,0.45-4.5c0-4.08-1.89-6.12-5.67-6.12c-1.62,0-4.03,0.36-7.24,1.08c-3.21,0.72-5.92,1.08-8.14,1.08
			c-3.78,0-6.81-0.6-9.08-1.8v-5.58c2.58,0.9,5.52,1.35,8.82,1.35c1.8,0,4.41-0.37,7.83-1.12c3.42-0.75,6.09-1.12,8.01-1.12
			c4.08,0,7.09,1.08,9.04,3.24c1.95,2.16,2.92,4.92,2.92,8.28c0,1.56-0.15,3.3-0.45,5.22h8.01v6.03h-35.35v37.33
			c0,2.46,0.64,4.36,1.93,5.71c1.29,1.35,3.01,2.02,5.17,2.02c4.14,0,7.56-1.75,10.25-5.26c2.7-3.51,4.05-7.6,4.05-12.28
			c0-6.42-3.54-9.62-10.61-9.62c-1.2,0-2.43,0.09-3.69,0.27v-6.21c1.38-0.24,2.88-0.36,4.5-0.36c5.28,0,9.38,1.44,12.32,4.32
			c2.94,2.88,4.41,6.75,4.41,11.6c0,6.36-1.92,11.89-5.76,16.6c-3.84,4.71-9,7.06-15.47,7.06c-4.08,0-7.44-1.23-10.08-3.69
			c-2.64-2.46-3.96-5.85-3.96-10.17v-0.99l-0.09,0.18c0-5.1-1.47-9.45-4.41-13.04c-2.94-3.6-6.54-5.4-10.79-5.4
			c-5.64,0-8.46,3.12-8.46,9.36c0,1.56,0.09,2.94,0.27,4.14h-6.84c-0.3-1.92-0.45-3.42-0.45-4.5c0-4.62,1.29-8.33,3.87-11.15
			C435.17,765.56,438.83,764.15,443.56,764.15z"/>
	</g>
	<g>
		<path class="st3" d="M875.42,233.6c-5.62,1.21-11.47,1.81-17.46,1.72c-38.72-0.54-70.41-29.33-75.76-66.48l-0.14-21.21
			c4.99-38.58,38.23-68.12,78.06-67.57c5.24,0.07,10.36,0.67,15.3,1.73l-12.51,20.41v112.39L875.42,233.6z"/>
		<path class="st4" d="M945.48,202.43c-12.4,0.83-24.29,5.25-34.24,12.73l-6.7,5.45l-73.55,61.01
			c-7.21,5.98-14.87,11.32-22.88,16.01l-19.59,9.83c-15.99,6.78-32.98,11.11-50.4,12.79l-6.67,4.29l0.92,11.18l9.92,5.92h203.43
			c2.24,0,4.05-1.81,4.05-4.05V206.47C949.78,204.14,947.81,202.27,945.48,202.43L945.48,202.43z"/>
		<circle class="st5" cx="730.75" cy="121.72" r="19.53"/>
		<path class="st6" d="M742.35,165.22l-22.2-11.18l-2.25,2c0.07,2.14-0.46-11.5,2.07,52.14l6.23,9.11h13.68l5.54-7.85l0.12-35.85
			L742.35,165.22z"/>
		<path class="st7" d="M799.55,290.86c-1.77-0.06-3.7-0.47-5.5-0.99c-1.42-0.41-2.49-1.56-2.77-3.01l-0.27-1.37l-4.93-5.44
			l-8.95,0.66l-4.46,6.97l1.9,9.74c0.54,2.77,2.31,5.13,4.82,6.42c1.01,0.52,10.15,5.1,19.54,5.42c5.08,0.17,9.35-3.8,9.52-8.89
			C808.61,295.29,804.63,291.03,799.55,290.86L799.55,290.86z"/>
		<path class="st8" d="M740.54,226.54l-14.56-7.19l-5.29,1.02l-2.09,29.76l4.49,7.75l5.79,4.1l8.33-4.1l5.17-24.64L740.54,226.54z"
			/>
		<path class="st9" d="M791,285.49l-9.99-51.28c-0.54-2.8-2.35-5.18-4.9-6.46l-28.62-14.88c-1.28-0.66-2.08-1.98-2.07-3.42
			c-14.96,2.54-25.45-1.27-25.45-1.27l0.41,10.28c0.17,3.18,2.06,6.22,5.05,7.73l36.33,15.13c1.27,0.53,2.19,1.66,2.45,3.01
			l8.45,43.36C780.36,288.16,787.77,286.4,791,285.49L791,285.49z"/>
		<path class="st10" d="M875.42,81.79c-35.44,7.61-61.77,39.35-61.25,76.98c0.51,36.67,26.47,67.35,61.25,74.83l0,0
			c10.68-2.29,20.56-6.79,29.12-13l6.7-5.45c15.36-13.96,25.12-34,25.43-56.38C937.2,121.14,910.86,89.4,875.42,81.79L875.42,81.79z
			"/>
		<g>
			<path class="st11" d="M859.37,181.5c-4.62,0-8.37-3.75-8.37-8.37v-13.89c0-4.62,3.75-8.37,8.37-8.37
				c6.69,0,12.14-5.45,12.14-12.14c0-6.69-5.45-12.14-12.14-12.14c-6.69,0-12.14,5.45-12.14,12.14c0,4.62-3.75,8.37-8.37,8.37
				c-4.62,0-8.37-3.75-8.37-8.37c0-15.93,12.96-28.88,28.88-28.88c15.93,0,28.88,12.96,28.88,28.88c0,13.02-8.66,24.05-20.51,27.65
				v6.75C867.74,177.75,864,181.5,859.37,181.5L859.37,181.5z"/>
		</g>
		<g>
			<path class="st11" d="M859.37,205.53c-4.62,0-8.37-3.75-8.37-8.37c0-4.62,3.75-8.39,8.37-8.39c4.62,0,8.37,3.73,8.37,8.35v0.04
				C867.74,201.79,864,205.53,859.37,205.53L859.37,205.53z"/>
		</g>
		<path class="st12" d="M718.6,250.13l-0.59,8.39l-21.59,26.14v7.31l6.32,5.63l8.43-1.87l22.93-27.75c1.22-1.48,1.95-3.3,2.09-5.22
			l1.02-4.88L718.6,250.13z"/>
		<path class="st7" d="M709.45,297.81l1.72-2.08c-6.19-2.23-12.08-8.12-14.75-11.07l-6.1,7.38c-1.62,1.96-2.35,4.5-2.04,7.02
			c0.7,5.59,4.88,16.36,16.06,21.21c1.82,0.79,3.75,0.95,5.55,0.57c3.82-0.8,7.06-4.01,7.36-8.7c0.25-3.82-2.15-7.24-5.65-8.8
			c-0.65-0.29-1.22-0.65-1.72-1.05C708.5,301.2,708.33,299.16,709.45,297.81L709.45,297.81z"/>
		<path class="st13" d="M787.65,157.69l-4.08-7.13h-6.55l-14.41,8.36c-1.2,0.69-2.65,0.78-3.93,0.24l-27.98-11.9
			c-4.63-1.97-9.96,0.14-12.01,4.71c-2.11,4.71,0.27,10.32,5.02,12.34l34.02,14.47c2.7,1.15,5.75,0.93,8.23-0.51l20.37-11.82
			L787.65,157.69z"/>
		<path class="st5" d="M777.01,150.56l9.32,15.89l8.04-4.66c4.4-2.55,5.9-8.19,3.35-12.59c-2.55-4.4-8.19-5.9-12.59-3.35
			L777.01,150.56z"/>
		<g>
			<path class="st14" d="M737.2,326.84c0-2.29,0.33-4.51,0.93-6.61c-5.43,0.52-10.91,0.8-16.41,0.8h-29.47
				c-2.24,0-4.05,1.81-4.05,4.05v12.5c0,2.23,1.81,4.05,4.05,4.05h50.05C739.11,337.55,737.2,332.42,737.2,326.84z"/>
		</g>
	</g>
</g>
</svg>
