<?xml version="1.0" encoding="utf-8"?>
<!-- Generator: Adobe Illustrator 26.0.1, SVG Export Plug-In . SVG Version: 6.00 Build 0)  -->
<svg version="1.1" id="Layer_1" xmlns="http://www.w3.org/2000/svg" xmlns:xlink="http://www.w3.org/1999/xlink" x="0px" y="0px"
	 viewBox="0 0 1000 1000" style="enable-background:new 0 0 1000 1000;" xml:space="preserve">
<style type="text/css">
	.st0{fill:#51B59F;}
	.st1{opacity:0.7;fill:#349B82;}
	.st2{fill:#FFFFFF;}
	.st3{fill:#CBC4CC;}
	.st4{fill:#FFDFCF;}
	.st5{fill:#FE646F;}
	.st6{fill:#2740B0;}
	.st7{fill:#1F3596;}
	.st8{fill:#EB9C8D;}
	.st9{fill:#FFB09E;}
	.st10{fill:#FD4755;}
	.st11{fill:#BB5D4C;}
	.st12{fill:#A44F3E;}
	.st13{fill:#883F2E;}
	.st14{fill:#FFCEBF;}
	.st15{fill:#FFE177;}
	.st16{fill:#97DA7B;}
	.st17{fill:#314DC9;}
	.st18{fill:#FB2B3A;}
</style>
<g>
	<polygon class="st0" points="496.69,992.35 592.68,826.09 400.7,826.09 	"/>
	<path class="st0" d="M872.24,181.27v643.71c0,19.27-15.62,34.86-34.86,34.86H156c-19.27,0-34.86-15.59-34.86-34.86V181.27
		c0-19.24,15.59-34.86,34.86-34.86h681.39C856.62,146.41,872.24,162.03,872.24,181.27z"/>
	<path class="st1" d="M872.24,605.86v219.12c0,19.27-15.62,34.86-34.86,34.86H156c-19.27,0-34.86-15.59-34.86-34.86V376.32
		C274.65,607.1,534.07,847.07,872.24,605.86z"/>
	<g>
		<path class="st2" d="M243.63,272.89h-10.34v50.29h-12.59v-7.65c0-4.38-1.12-7.88-3.37-10.52c-2.25-2.64-5.38-3.96-9.4-3.96
			c-2.52,0-4.48,0.53-5.89,1.57c-1.41,1.05-2.11,2.5-2.11,4.36c0,1.86,0.64,3.24,1.93,4.14c1.29,0.9,2.92,1.35,4.9,1.35
			c1.08,0,2.22-0.06,3.42-0.18v10.34c-1.68,0.36-3.69,0.54-6.03,0.54c-4.98,0-9.07-1.41-12.28-4.23c-3.21-2.82-4.81-6.84-4.81-12.05
			c0-3.96,1.03-7.27,3.1-9.94c2.07-2.67,4.87-4.57,8.41-5.71c-0.66-3.18-2-5.46-4-6.84c-2.01-1.38-4.81-2.07-8.41-2.07v-9.45h-5.49
			v-10.08h62.97V272.89z M220.69,297.18v-24.29h-23.12c3.6,1.62,6.49,3.96,8.68,7.02c2.19,3.06,3.58,6.57,4.18,10.52
			C215.11,291.21,218.53,293.46,220.69,297.18z"/>
		<path class="st2" d="M295.17,300.78c0,6.6-2.1,12.13-6.3,16.6c-4.2,4.47-9.99,6.7-17.36,6.7c-8.4,0-15.14-2.89-20.24-8.68
			c-5.1-5.79-7.65-13.72-7.65-23.79c0-1.68,0.03-3,0.09-3.96h12.41c-0.06,0.84-0.09,1.98-0.09,3.42c0,7.08,1.36,12.55,4.09,16.42
			c2.73,3.87,6.52,5.8,11.38,5.8c3.54,0,6.34-0.9,8.41-2.7c2.07-1.8,3.25-4.38,3.55-7.74c-1.62,0.36-3.27,0.54-4.95,0.54
			c-4.98,0-9-1.45-12.05-4.36c-3.06-2.91-4.59-6.79-4.59-11.65c0-5.76,1.86-10.58,5.58-14.48h-29.24v-10.08h83.39v10.08h-28.7
			c3.9,5.28,11.54,9.45,22.94,12.5c-3.06,7.5-4.59,15.68-4.59,24.56c0,4.38,0.57,8.79,1.71,13.22h-12.14
			c-1.08-4.32-1.62-8.67-1.62-13.04c0-7.08,0.99-13.25,2.97-18.53c-10.92-3.96-17.99-9.54-21.23-16.73
			c-4.02,3.42-6.03,7.26-6.03,11.51c0,4.5,2.64,6.75,7.92,6.75c3.6,0,7.17-0.81,10.71-2.43
			C294.63,293.82,295.17,297.18,295.17,300.78z"/>
		<path class="st2" d="M345.91,272.89h-7.65v50.29h-12.59v-44.71c0-2.34-0.31-3.85-0.94-4.54c-0.63-0.69-1.9-1.03-3.82-1.03h-2.88
			v-10.08h4.5c1.98,0,3.48,1.02,4.5,3.06c-0.6-3.24-0.9-6.12-0.9-8.64v-1.62h12.14v7.2h7.65V272.89z"/>
		<path class="st2" d="M394.48,272.89h-7.65v50.29h-12.14v-0.09l-0.09,0.09l-27.17-18.8v-12.05c8.7-7.08,17.78-11.9,27.26-14.48
			v-4.95h-32.38v-10.08h52.17V272.89z M357.24,316.52c1.32,1.32,1.98,2.94,1.98,4.86c0,1.92-0.66,3.54-1.98,4.86
			c-1.32,1.32-2.94,1.98-4.86,1.98c-1.92,0-3.54-0.66-4.86-1.98c-1.32-1.32-1.98-2.94-1.98-4.86c0-1.92,0.66-3.54,1.98-4.86
			c1.32-1.32,2.94-1.98,4.86-1.98C354.3,314.54,355.92,315.2,357.24,316.52z M374.69,310.04V289.8c-6.18,2.46-11.48,5.37-15.92,8.73
			L374.69,310.04z"/>
		<path class="st2" d="M258.47,431.18h-12.59c0-7.62-3.66-11.42-10.97-11.42h-3.78c-4.74,4.26-10.65,6.39-17.72,6.39
			c-8.16,0-14.8-2.4-19.93-7.2c-5.13-4.8-7.69-11.99-7.69-21.59c0-2.52,0.18-5.16,0.54-7.92h12.14c-0.42,2.76-0.63,5.46-0.63,8.1
			c0,5.94,1.39,10.39,4.18,13.36c2.79,2.97,6.46,4.45,11.02,4.45c4.26,0,7.48-1.24,9.67-3.73c2.19-2.49,3.28-5.59,3.28-9.31
			c0-2.28-0.42-4.14-1.26-5.58c-0.84-1.44-2.1-2.16-3.78-2.16c-1.44,0-2.56,0.53-3.37,1.57c-0.81,1.05-1.21,2.42-1.21,4.09
			c0,1.62,0.33,3.36,0.99,5.22h-10.79c-0.96-2.04-1.44-4.35-1.44-6.93c0-4.32,1.39-7.74,4.18-10.25c2.79-2.52,6.49-3.78,11.11-3.78
			c5.46,0,9.85,1.71,13.18,5.13c3.33,3.42,4.99,7.74,4.99,12.95c0,2.58-0.36,4.95-1.08,7.11c3.78,0.24,6.57,1.68,8.37,4.32v-33.1
			h-65.22v-10.08h85.46v10.08h-7.65V431.18z"/>
		<path class="st2" d="M290.4,380.89h-7.65v50.29h-12.59v-50.29h-7.65v-10.08h7.65v-3.78c0-6.36,2.05-11.09,6.16-14.21
			c4.11-3.12,9.73-4.68,16.87-4.68c4.26,0,8.68,0.49,13.27,1.48c4.59,0.99,8.11,2.02,10.57,3.1v9.54
			c-2.64-0.96-6.16-1.87-10.57-2.74c-4.41-0.87-8.5-1.3-12.28-1.3c-7.56,0-11.33,2.91-11.33,8.73v3.87h7.56V380.89z"/>
		<path class="st2" d="M352.29,380.89H286.8v-10.08h65.49V380.89z M346.72,409.68c0,6.72-2.26,12.13-6.79,16.24
			c-4.53,4.11-10.54,6.16-18.04,6.16c-8.64,0-15.71-2.86-21.23-8.59c-5.52-5.73-8.28-13.24-8.28-22.53c0-2.22,0.06-4.02,0.18-5.4
			h12.05c-0.12,1.32-0.18,3.03-0.18,5.13c0,6.6,1.54,11.73,4.63,15.38c3.09,3.66,7.36,5.49,12.82,5.49c7.74,0,12.2-3,13.4-9
			c-2.52,0.78-5.25,1.17-8.19,1.17c-4.62,0-8.44-1.3-11.47-3.91c-3.03-2.61-4.54-6.16-4.54-10.66s1.5-8.08,4.5-10.75
			c3-2.67,7.05-4,12.14-4c2.4,0,5.16,0.3,8.28,0.9v9.99c-1.92-0.24-3.78-0.36-5.58-0.36c-4.5,0-6.75,1.41-6.75,4.23
			c0,3,2.19,4.5,6.57,4.5c2.1,0,4.57-0.43,7.42-1.3c2.85-0.87,5.35-1.96,7.51-3.28C346.2,402.36,346.72,405.9,346.72,409.68z"/>
		<path class="st2" d="M436.13,416.78c0,3.6-1.38,6.51-4.14,8.73c-2.76,2.22-6.42,3.33-10.98,3.33c-5.94,0-10.61-2.22-14.03-6.66
			c-4.56,6.6-11.69,9.9-21.41,9.9c-9.06,0-16.57-2.94-22.53-8.82c-5.97-5.88-8.95-13.76-8.95-23.66c0-1.68,0.03-3,0.09-3.96h12.41
			c-0.06,0.84-0.09,1.98-0.09,3.42c0,6.84,1.84,12.25,5.53,16.24c3.69,3.99,8.2,5.98,13.54,5.98c3.9,0,6.97-0.93,9.22-2.79
			c2.25-1.86,3.64-4.41,4.18-7.65c-2.7,0.96-5.91,1.44-9.62,1.44c-5.34,0-9.66-1.59-12.95-4.77c-3.3-3.18-4.95-7.23-4.95-12.14
			c0-5.76,1.86-10.58,5.58-14.48h-28.34v-10.08h93.28v10.08h-41.2c0.24,6.18,1.83,10.67,4.77,13.49c1.44-2.64,3.57-4.78,6.39-6.43
			c2.82-1.65,5.94-2.47,9.36-2.47c4.44,0,8.02,1.19,10.75,3.55c2.73,2.37,4.09,5.23,4.09,8.59c0,4.5-2.25,7.71-6.75,9.62
			c1.92,0.72,3.52,1.89,4.81,3.51C435.48,412.37,436.13,414.38,436.13,416.78z M393.22,402.03c2.64,0,5.22-0.36,7.74-1.08
			c-6.06-2.94-9.24-9.21-9.54-18.8c-4.62,3.48-6.93,7.56-6.93,12.23c0,2.52,0.76,4.42,2.29,5.71
			C388.32,401.39,390.46,402.03,393.22,402.03z M411.39,407.07c0,2.34-0.21,4.47-0.63,6.39c0.72,1.8,1.9,3.31,3.55,4.54
			c1.65,1.23,3.46,1.84,5.44,1.84c3.3,0,4.95-1.35,4.95-4.05c0-1.38-0.45-2.35-1.35-2.92c-0.9-0.57-2.34-0.86-4.32-0.86h-2.43v-9.71
			h2.43c3.78,0,5.67-1.32,5.67-3.96c0-2.46-1.8-3.69-5.4-3.69c-1.92,0-3.64,0.57-5.17,1.71c-1.53,1.14-2.65,2.58-3.37,4.32
			C411.18,402.6,411.39,404.73,411.39,407.07z"/>
		<path class="st2" d="M501.8,380.89h-63.42v-10.08h63.42V380.89z M497.12,403.29c0,7.68-2.46,13.84-7.38,18.49
			c-4.92,4.65-11.28,6.97-19.07,6.97c-8.4,0-15.22-2.59-20.46-7.78c-5.25-5.19-7.87-13.06-7.87-23.61c0-2.4,0.12-4.65,0.36-6.75
			h11.96c-0.18,2.04-0.27,4.26-0.27,6.66c0,6.3,1.41,11.32,4.23,15.07c2.82,3.75,6.84,5.62,12.05,5.62c4.44,0,7.86-1.35,10.25-4.05
			c2.4-2.7,3.6-6.24,3.6-10.62c0-2.64-0.44-4.75-1.3-6.34c-0.87-1.59-2.14-2.38-3.82-2.38c-1.44,0-2.56,0.54-3.37,1.62
			c-0.81,1.08-1.21,2.55-1.21,4.41c0,2.1,0.3,4.14,0.9,6.12h-11.69c-0.9-2.1-1.35-4.44-1.35-7.02c0-4.44,1.47-8.08,4.41-10.93
			c2.94-2.85,6.87-4.27,11.79-4.27c5.52,0,9.94,1.81,13.27,5.44C495.46,393.56,497.12,398.01,497.12,403.29z"/>
		<path class="st2" d="M526.09,380.89h-7.65v50.29h-12.59v-44.71c0-2.34-0.31-3.85-0.94-4.54c-0.63-0.69-1.9-1.03-3.82-1.03h-2.88
			v-10.08h4.5c1.98,0,3.48,1.02,4.5,3.06c-0.6-3.24-0.9-6.12-0.9-8.64v-1.62h12.14v7.2h7.65V380.89z"/>
		<path class="st2" d="M622.79,431.18h-12.59c0-7.62-3.66-11.42-10.97-11.42h-3.78c-4.74,4.26-10.65,6.39-17.72,6.39
			c-8.16,0-14.8-2.4-19.93-7.2c-5.13-4.8-7.69-11.99-7.69-21.59c0-2.52,0.18-5.16,0.54-7.92h12.14c-0.42,2.76-0.63,5.46-0.63,8.1
			c0,5.94,1.39,10.39,4.18,13.36c2.79,2.97,6.46,4.45,11.02,4.45c4.26,0,7.48-1.24,9.67-3.73c2.19-2.49,3.28-5.59,3.28-9.31
			c0-2.28-0.42-4.14-1.26-5.58c-0.84-1.44-2.1-2.16-3.78-2.16c-1.44,0-2.56,0.53-3.37,1.57c-0.81,1.05-1.21,2.42-1.21,4.09
			c0,1.62,0.33,3.36,0.99,5.22h-10.79c-0.96-2.04-1.44-4.35-1.44-6.93c0-4.32,1.39-7.74,4.18-10.25c2.79-2.52,6.49-3.78,11.11-3.78
			c5.46,0,9.85,1.71,13.18,5.13c3.33,3.42,4.99,7.74,4.99,12.95c0,2.58-0.36,4.95-1.08,7.11c3.78,0.24,6.57,1.68,8.37,4.32v-33.1
			h-65.22v-10.08h85.46v10.08h-7.65V431.18z"/>
		<path class="st2" d="M683.78,408.78c0,6.6-2.1,12.13-6.3,16.6c-4.2,4.47-9.99,6.7-17.36,6.7c-8.4,0-15.14-2.89-20.24-8.68
			c-5.1-5.79-7.65-13.72-7.65-23.79c0-1.68,0.03-3,0.09-3.96h12.41c-0.06,0.84-0.09,1.98-0.09,3.42c0,7.08,1.36,12.55,4.09,16.42
			c2.73,3.87,6.52,5.8,11.38,5.8c3.54,0,6.34-0.9,8.41-2.7c2.07-1.8,3.25-4.38,3.55-7.74c-1.62,0.36-3.27,0.54-4.95,0.54
			c-4.98,0-9-1.45-12.05-4.36c-3.06-2.91-4.59-6.79-4.59-11.65c0-5.76,1.86-10.58,5.58-14.48h-29.24v-10.08h83.39v10.08h-28.7
			c3.9,5.28,11.54,9.45,22.94,12.5c-3.06,7.5-4.59,15.68-4.59,24.56c0,4.38,0.57,8.79,1.71,13.22h-12.14
			c-1.08-4.32-1.62-8.67-1.62-13.04c0-7.08,0.99-13.25,2.97-18.53c-10.92-3.96-17.99-9.54-21.23-16.73
			c-4.02,3.42-6.03,7.26-6.03,11.51c0,4.5,2.64,6.75,7.92,6.75c3.6,0,7.17-0.81,10.71-2.43
			C683.24,401.82,683.78,405.18,683.78,408.78z"/>
		<path class="st2" d="M662.01,366.86l15.38-15.11h12.32v0.36l-15.29,15.11h-12.41V366.86z"/>
		<path class="st2" d="M756.37,431.18h-12.59c-0.36-2.52-0.87-5.07-1.53-7.65c-0.66-2.58-1.54-5.28-2.65-8.1
			c-1.11-2.82-2.53-5.11-4.27-6.88c-1.74-1.77-3.66-2.65-5.76-2.65c-2.04,0-3.57,0.66-4.59,1.98c-1.02,1.32-1.53,3.06-1.53,5.22
			c0,1.68,0.15,3.33,0.45,4.95h-12.23c-0.54-2.22-0.81-4.29-0.81-6.21c0-4.74,1.47-8.75,4.41-12.05c2.94-3.3,7.02-4.95,12.23-4.95
			c7.32,0,12.74,3.57,16.28,10.71v-24.65h-37.15v-10.08h56.58v10.08h-6.84V431.18z"/>
		<path class="st2" d="M769.37,394.74c-2.91-2.7-4.36-6.18-4.36-10.43c0-4.26,1.45-7.72,4.36-10.39c2.91-2.67,6.67-4,11.29-4
			c4.62,0,8.37,1.34,11.24,4c2.88,2.67,4.32,6.13,4.32,10.39c0,4.26-1.44,7.74-4.32,10.43c-2.88,2.7-6.63,4.05-11.24,4.05
			C776.04,398.79,772.28,397.44,769.37,394.74z M769.37,428.03c-2.91-2.7-4.36-6.18-4.36-10.43c0-4.26,1.45-7.72,4.36-10.39
			c2.91-2.67,6.67-4,11.29-4c4.62,0,8.37,1.33,11.24,4c2.88,2.67,4.32,6.13,4.32,10.39c0,4.26-1.44,7.74-4.32,10.43
			s-6.63,4.05-11.24,4.05C776.04,432.07,772.28,430.72,769.37,428.03z M784.53,388.54c0.9-1.08,1.35-2.49,1.35-4.23
			c0-1.74-0.45-3.16-1.35-4.27c-0.9-1.11-2.19-1.66-3.87-1.66c-1.68,0-2.98,0.56-3.91,1.66c-0.93,1.11-1.39,2.53-1.39,4.27
			c0,1.74,0.46,3.15,1.39,4.23c0.93,1.08,2.23,1.62,3.91,1.62C782.34,390.15,783.63,389.62,784.53,388.54z M784.53,421.82
			c0.9-1.08,1.35-2.49,1.35-4.23s-0.45-3.16-1.35-4.27c-0.9-1.11-2.19-1.66-3.87-1.66c-1.68,0-2.98,0.55-3.91,1.66
			c-0.93,1.11-1.39,2.53-1.39,4.27s0.46,3.15,1.39,4.23c0.93,1.08,2.23,1.62,3.91,1.62C782.34,423.44,783.63,422.9,784.53,421.82z"
			/>
	</g>
	<g>
		<path class="st2" d="M220.06,549.64V521.4l-31.57,14.21v-6.93l8.37-3.69c-2.16-3.36-5.04-5.73-8.64-7.11v-1.8
			c0-4.8,1.59-9.04,4.77-12.73s7.59-5.53,13.22-5.53c6.48,0,11.09,2.25,13.85,6.75v-13.4h6.93v7.56h10.17v6.03h-10.17v54.06h-6.93
			v-0.72c0-2.7-1.2-4.05-3.6-4.05c-0.96,0-3.01,0.4-6.16,1.21s-6.07,1.21-8.77,1.21c-3.96,0-7.09-1.17-9.4-3.51
			s-3.46-5.52-3.46-9.54c0-1.74,0.18-3.33,0.54-4.77h6.57c-0.3,1.5-0.45,2.97-0.45,4.41c0,4.74,2.25,7.11,6.75,7.11
			c1.86,0,4.18-0.37,6.97-1.12c2.79-0.75,5.02-1.12,6.7-1.12C217.48,547.94,218.92,548.51,220.06,549.64z M195.14,514.56
			c3.18,1.74,5.67,4.38,7.47,7.92l17.18-7.65c-0.6-3.36-1.96-6.03-4.09-8.01c-2.13-1.98-4.99-2.97-8.59-2.97
			c-3.6,0-6.4,1.05-8.41,3.15C196.69,509.11,195.5,511.62,195.14,514.56z"/>
		<path class="st2" d="M260.81,504.76h-10.17v51.72h-6.93v-51.72h-10.17v-6.03h10.17v-2.97c0-12.29,6.81-18.44,20.42-18.44
			c7.08,0,14.99,1.32,23.75,3.96v5.94c-8.04-2.58-15.86-3.87-23.48-3.87c-5.16,0-8.74,1.05-10.75,3.15
			c-2.01,2.1-3.01,5.19-3.01,9.27v2.97h10.17V504.76z"/>
		<path class="st2" d="M321.08,504.76h-63.87v-6.03h63.87V504.76z M313.26,528.33c0,3.12-0.45,6.1-1.35,8.95
			c-0.9,2.85-2.25,5.46-4.05,7.83c-1.8,2.37-4.26,4.26-7.38,5.67c-3.12,1.41-6.69,2.11-10.71,2.11c-8.04,0-14.2-2.86-18.49-8.59
			c-4.29-5.73-6.43-12.94-6.43-21.63c0-3,0.18-5.85,0.54-8.55h6.84c-0.36,2.22-0.54,5.07-0.54,8.55c0,6.96,1.54,12.71,4.63,17.27
			c3.09,4.56,7.57,6.84,13.45,6.84c5.34,0,9.42-1.71,12.23-5.13c2.82-3.42,4.23-7.86,4.23-13.31c0-3.3-0.62-6.03-1.84-8.19
			c-1.23-2.16-3.19-3.24-5.89-3.24c-2.22,0-3.93,0.76-5.13,2.29c-1.2,1.53-1.8,3.52-1.8,5.98c0,2.1,0.33,4.41,0.99,6.93h-6.48
			c-0.9-2.28-1.35-4.68-1.35-7.2c0-4.02,1.18-7.36,3.55-10.03c2.37-2.67,5.74-4,10.12-4c4.5,0,8.1,1.71,10.79,5.13
			C311.91,519.42,313.26,523.53,313.26,528.33z"/>
		<path class="st2" d="M344.38,557.11c-0.48,0.06-1.32,0.09-2.52,0.09c-5.76,0-9.96-2.25-12.59-6.75c-2.64-4.5-4.02-10.4-4.14-17.72
			c0-13.61,2.76-22.94,8.28-27.98h-15.92v-6.03h29.42v6.03h-1.35c-2.58,0-4.78,0.81-6.61,2.43c-1.83,1.62-3.24,3.82-4.23,6.61
			c-0.99,2.79-1.7,5.74-2.11,8.86c-0.42,3.12-0.63,6.48-0.63,10.08c0,12.17,3.57,18.26,10.71,18.26h1.71V557.11z"/>
		<path class="st2" d="M397.9,504.76h-10.17v51.72h-7.02l-30.32-15.29v-7.83l16.19-11.96l-16.1-11.42v-5.22h-7.2v-6.03h54.6V504.76z
			 M372.53,517.71v7.2l-15.38,11.87l23.57,12.32v-44.35h-25.64L372.53,517.71z"/>
		<path class="st2" d="M421.47,504.76H411.3v51.72h-6.93v-44.44c0-2.34-0.42-4.14-1.26-5.4c-0.84-1.26-2.34-1.89-4.5-1.89h-4.41
			v-6.03h4.68c2.88,0,4.98,1.29,6.3,3.87c-0.48-2.76-0.72-5.67-0.72-8.73v-2.7h6.84v7.56h10.17V504.76z"/>
		<path class="st2" d="M445.13,504.76h-10.17v51.72h-6.93v-51.72h-10.17v-6.03h10.17v-2.97c0-12.29,6.81-18.44,20.42-18.44
			c7.08,0,14.99,1.32,23.75,3.96v5.94c-8.04-2.58-15.86-3.87-23.48-3.87c-5.16,0-8.74,1.05-10.75,3.15
			c-2.01,2.1-3.01,5.19-3.01,9.27v2.97h10.17V504.76z"/>
		<path class="st2" d="M486.51,556.48h-6.93v-37.6c0-4.5-1.06-8.1-3.19-10.79c-2.13-2.7-5.29-4.05-9.49-4.05
			c-3.84,0-6.79,1.03-8.86,3.1c-2.07,2.07-3.22,4.84-3.46,8.32h1.08c4.68,0,8.42,1.2,11.24,3.6c2.82,2.4,4.26,5.67,4.32,9.81
			c-0.06,4.32-1.57,7.71-4.54,10.17s-6.91,3.69-11.83,3.69c-2.34,0-4.8-0.24-7.38-0.72v-5.85c1.74,0.24,4.2,0.36,7.38,0.36
			c6.24,0,9.36-2.55,9.36-7.65c0-2.4-0.81-4.24-2.43-5.53c-1.62-1.29-3.93-1.93-6.93-1.93h-7.11v-4.77c0-5.1,1.59-9.5,4.77-13.22
			c3.18-3.72,7.56-5.58,13.13-5.58c6.66,0,11.3,2.22,13.94,6.66v-13.31h6.93v7.56h10.17v6.03h-10.17V556.48z"/>
		<path class="st2" d="M556.94,504.76h-63.87v-6.03h63.87V504.76z M549.12,528.33c0,3.12-0.45,6.1-1.35,8.95
			c-0.9,2.85-2.25,5.46-4.05,7.83c-1.8,2.37-4.26,4.26-7.38,5.67c-3.12,1.41-6.69,2.11-10.71,2.11c-8.04,0-14.2-2.86-18.49-8.59
			c-4.29-5.73-6.43-12.94-6.43-21.63c0-3,0.18-5.85,0.54-8.55h6.84c-0.36,2.22-0.54,5.07-0.54,8.55c0,6.96,1.54,12.71,4.63,17.27
			c3.09,4.56,7.57,6.84,13.45,6.84c5.34,0,9.42-1.71,12.23-5.13c2.82-3.42,4.23-7.86,4.23-13.31c0-3.3-0.62-6.03-1.84-8.19
			c-1.23-2.16-3.19-3.24-5.89-3.24c-2.22,0-3.93,0.76-5.13,2.29c-1.2,1.53-1.8,3.52-1.8,5.98c0,2.1,0.33,4.41,0.99,6.93h-6.48
			c-0.9-2.28-1.35-4.68-1.35-7.2c0-4.02,1.18-7.36,3.55-10.03c2.37-2.67,5.74-4,10.12-4c4.5,0,8.1,1.71,10.79,5.13
			C547.77,519.42,549.12,523.53,549.12,528.33z"/>
		<path class="st2" d="M580.6,504.76h-10.17v51.72h-6.93v-44.44c0-2.34-0.42-4.14-1.26-5.4c-0.84-1.26-2.34-1.89-4.5-1.89h-4.41
			v-6.03h4.68c2.88,0,4.98,1.29,6.3,3.87c-0.48-2.76-0.72-5.67-0.72-8.73v-2.7h6.84v7.56h10.17V504.76z"/>
		<path class="st2" d="M631.6,504.76h-10.17v51.72h-7.02l-30.32-15.29v-7.83l16.19-11.96l-16.1-11.42v-5.22H577v-6.03h54.6V504.76z
			 M596.16,556.17c0.96,0.93,1.44,2.05,1.44,3.37c0,1.32-0.46,2.43-1.39,3.33s-2.08,1.35-3.46,1.35c-1.38,0-2.5-0.45-3.37-1.35
			c-0.87-0.9-1.3-2.01-1.3-3.33c0-1.32,0.45-2.44,1.35-3.37c0.9-0.93,2.01-1.39,3.33-1.39C594.06,554.77,595.2,555.24,596.16,556.17
			z M606.24,517.71v7.2l-15.38,11.87l23.57,12.32v-44.35h-25.64L606.24,517.71z"/>
		<path class="st2" d="M721.47,556.48h-6.93v-1.44c0-8.58-3.3-12.86-9.9-12.86h-5.22c-4.2,5.22-10.2,7.83-17.99,7.83
			c-7.8,0-13.84-2.44-18.13-7.33c-4.29-4.89-6.43-11.29-6.43-19.21c0-3.12,0.21-6.3,0.63-9.54h6.84c-0.42,3.48-0.63,6.69-0.63,9.63
			c0,6.36,1.56,11.33,4.68,14.93c3.12,3.6,7.43,5.4,12.95,5.4c5.1,0,9.05-1.57,11.87-4.72c2.82-3.15,4.23-7.3,4.23-12.46
			c0-3.12-0.62-5.65-1.84-7.6c-1.23-1.95-3.1-2.92-5.62-2.92c-2.16,0-3.84,0.78-5.04,2.34c-1.2,1.56-1.8,3.57-1.8,6.03
			c0,1.74,0.3,3.93,0.9,6.57h-6.3c-0.84-2.1-1.26-4.47-1.26-7.11c0-3.9,1.2-7.18,3.6-9.85c2.4-2.67,5.67-4,9.8-4
			c4.5,0,8.05,1.59,10.66,4.77c2.61,3.18,3.91,7.11,3.91,11.78c0,3.42-0.57,6.57-1.71,9.45h2.16c4.44,0,7.65,1.44,9.63,4.32v-35.71
			h-66.3v-6.03h83.39v6.03h-10.17V556.48z"/>
		<path class="st2" d="M734.33,511.59c0-3.78,1.32-6.97,3.96-9.58c2.64-2.61,6.03-3.91,10.17-3.91c4.02,0,7.35,1.3,9.99,3.91
			c2.64,2.61,3.96,5.8,3.96,9.58c0,3.9-1.3,7.14-3.91,9.72c-2.61,2.58-5.95,3.87-10.03,3.87c-4.14,0-7.53-1.29-10.17-3.87
			C735.65,518.73,734.33,515.49,734.33,511.59z M734.33,535.43v-7.56l30.5,21.32v7.47L734.33,535.43z M755.74,511.59
			c0-2.22-0.66-4.05-1.98-5.49c-1.32-1.44-3.09-2.16-5.31-2.16c-2.28,0-4.09,0.71-5.44,2.11c-1.35,1.41-2.02,3.25-2.02,5.53
			c0,2.34,0.67,4.23,2.02,5.67s3.16,2.16,5.44,2.16c2.22,0,3.99-0.72,5.31-2.16C755.08,515.82,755.74,513.93,755.74,511.59z"/>
		<path class="st2" d="M820.69,556.48h-6.93v-39.22c0-3.66-0.87-6.81-2.61-9.45c-1.74-2.64-4.68-3.96-8.82-3.96
			c-3.06,0-5.49,0.93-7.29,2.79c-1.8,1.86-2.7,4.35-2.7,7.47c0,3.36,0.85,5.91,2.56,7.65c1.71,1.74,4.03,2.61,6.97,2.61
			c1.26,0,2.52-0.09,3.78-0.27v6.21c-1.38,0.24-2.82,0.36-4.32,0.36c-5.76,0-9.93-2.07-12.5-6.21c-2.52,4.14-6.63,6.21-12.32,6.21
			c-1.68,0-3.36-0.18-5.04-0.54v-6.12c1.38,0.24,2.85,0.36,4.41,0.36c3.06,0,5.41-0.87,7.06-2.61c1.65-1.74,2.47-4.29,2.47-7.65
			c0-3.06-0.93-5.37-2.79-6.93c-1.86-1.56-4.44-2.34-7.74-2.34l-9.17-0.09v-6.03h9.54c6.12,0,10.58,2.01,13.4,6.03
			c2.88-4.62,7.29-6.93,13.22-6.93c5.28,0,9.23,1.71,11.87,5.13v-11.78h6.93v7.56h10.17v6.03h-10.17V556.48z"/>
		<path class="st2" d="M207.92,612.71h-10.17v51.72h-6.93v-51.72h-10.17v-6.03h10.17v-2.97c0-12.29,6.81-18.44,20.42-18.44
			c7.08,0,14.99,1.32,23.75,3.96v5.94c-8.04-2.58-15.86-3.87-23.48-3.87c-5.16,0-8.74,1.05-10.75,3.15
			c-2.01,2.1-3.01,5.19-3.01,9.27v2.97h10.17V612.71z"/>
		<path class="st2" d="M248.85,664.43h-6.93v-0.36c-1.92-18.83-7.29-28.25-16.1-28.25c-2.94,0-5.19,0.9-6.75,2.7
			c-1.56,1.8-2.34,4.26-2.34,7.38c0,1.56,0.09,2.94,0.27,4.14h-6.84c-0.3-1.92-0.45-3.42-0.45-4.5c0-4.62,1.41-8.46,4.23-11.51
			c2.82-3.06,6.6-4.59,11.33-4.59c7.79,0,13.34,4.29,16.64,12.86v-29.6h-37.6v-6.03h54.51v6.03h-9.99V664.43z"/>
		<path class="st2" d="M282.13,665.06c-0.48,0.06-1.32,0.09-2.52,0.09c-5.76,0-9.96-2.25-12.59-6.75c-2.64-4.5-4.02-10.4-4.14-17.72
			c0-13.61,2.76-22.94,8.28-27.98h-15.92v-6.03h29.42v6.03h-1.35c-2.58,0-4.78,0.81-6.61,2.43c-1.83,1.62-3.24,3.82-4.23,6.61
			c-0.99,2.79-1.7,5.74-2.11,8.86c-0.42,3.12-0.63,6.48-0.63,10.08c0,12.17,3.57,18.26,10.71,18.26h1.71V665.06z"/>
		<path class="st2" d="M335.65,612.71h-10.17v51.72h-7.02l-30.32-15.29v-7.83l16.19-11.96l-16.1-11.42v-5.22h-7.2v-6.03h54.6V612.71
			z M300.21,664.12c0.96,0.93,1.44,2.05,1.44,3.37c0,1.32-0.46,2.43-1.39,3.33s-2.08,1.35-3.46,1.35c-1.38,0-2.5-0.45-3.37-1.35
			c-0.87-0.9-1.3-2.01-1.3-3.33c0-1.32,0.45-2.44,1.35-3.37c0.9-0.93,2.01-1.39,3.33-1.39
			C298.11,662.72,299.25,663.19,300.21,664.12z M310.28,625.66v7.2l-15.38,11.87l23.57,12.32v-44.35h-25.64L310.28,625.66z"/>
		<path class="st2" d="M379.55,612.71h-10.17v51.72h-6.93v-51.72h-10.17v-6.03h10.17v-2.97c0-12.29,6.81-18.44,20.42-18.44
			c7.08,0,14.99,1.32,23.75,3.96v5.94c-8.04-2.58-15.86-3.87-23.48-3.87c-5.16,0-8.74,1.05-10.75,3.15
			c-2.01,2.1-3.01,5.19-3.01,9.27v2.97h10.17V612.71z"/>
		<path class="st2" d="M420.48,664.43h-6.93v-0.36c-1.92-18.83-7.29-28.25-16.1-28.25c-2.94,0-5.19,0.9-6.75,2.7
			c-1.56,1.8-2.34,4.26-2.34,7.38c0,1.56,0.09,2.94,0.27,4.14h-6.84c-0.3-1.92-0.45-3.42-0.45-4.5c0-4.62,1.41-8.46,4.23-11.51
			c2.82-3.06,6.6-4.59,11.33-4.59c7.79,0,13.34,4.29,16.64,12.86v-29.6h-37.6v-6.03h54.51v6.03h-9.99V664.43z"/>
		<path class="st2" d="M453.76,665.06c-0.48,0.06-1.32,0.09-2.52,0.09c-5.76,0-9.96-2.25-12.59-6.75c-2.64-4.5-4.02-10.4-4.14-17.72
			c0-13.61,2.76-22.94,8.28-27.98h-15.92v-6.03h29.42v6.03h-1.35c-2.58,0-4.78,0.81-6.61,2.43c-1.83,1.62-3.24,3.82-4.23,6.61
			c-0.99,2.79-1.7,5.74-2.11,8.86c-0.42,3.12-0.63,6.48-0.63,10.08c0,12.17,3.57,18.26,10.71,18.26h1.71V665.06z"/>
		<path class="st2" d="M523.66,664.43h-6.84c-1.32-5.46-1.98-11.21-1.98-17.27c0-5.34,0.66-10.55,1.98-15.65
			c-5.64-1.32-10.74-3.51-15.29-6.57s-7.83-6.72-9.8-10.97c-5.58,4.14-8.37,8.82-8.37,14.03c0,4.86,2.85,7.29,8.55,7.29
			c4.2,0,8.4-0.93,12.59-2.79c1.14,2.46,1.71,5.43,1.71,8.91c0,6.54-1.92,11.92-5.76,16.15c-3.84,4.23-9.24,6.34-16.19,6.34
			c-7.68,0-13.73-2.76-18.17-8.28c-4.44-5.52-6.66-12.65-6.66-21.41c0-0.9,0.06-2.31,0.18-4.23h6.84c-0.06,0.84-0.09,2.07-0.09,3.69
			c0,7.2,1.56,13.01,4.68,17.45c3.12,4.44,7.53,6.66,13.22,6.66c5.04,0,8.86-1.48,11.47-4.45s3.91-6.94,3.91-11.92v-1.44
			c-2.82,0.96-5.94,1.44-9.36,1.44c-4.32,0-7.74-1.18-10.25-3.55c-2.52-2.37-3.78-5.59-3.78-9.67c0-5.94,2.46-11.09,7.38-15.47
			h-30.94v-6.03h78.35v6.03h-32.56c4.38,7.14,13.04,11.96,26,14.48c-1.92,6.42-2.88,13.08-2.88,19.97
			C521.59,651.9,522.28,657.65,523.66,664.43z"/>
		<path class="st2" d="M554.33,665.06c-0.48,0.06-1.32,0.09-2.52,0.09c-5.76,0-9.96-2.25-12.59-6.75c-2.64-4.5-4.02-10.4-4.14-17.72
			c0-13.61,2.76-22.94,8.28-27.98h-15.92v-6.03h29.42v6.03h-1.35c-2.58,0-4.78,0.81-6.61,2.43c-1.83,1.62-3.24,3.82-4.23,6.61
			c-0.99,2.79-1.7,5.74-2.11,8.86c-0.42,3.12-0.63,6.48-0.63,10.08c0,12.17,3.57,18.26,10.71,18.26h1.71V665.06z"/>
		<path class="st2" d="M618.29,639.42c0,5.28-1.44,9.36-4.32,12.23c-2.88,2.88-6.54,4.32-10.98,4.32c-0.78,0-1.35-0.03-1.71-0.09
			v-6.48h1.08c6.06,0,9.08-3.33,9.08-9.99c0-4.32-1.65-7.78-4.95-10.39c-3.3-2.61-7.5-3.91-12.59-3.91v39.31h-6.84l-28.16-21.5
			v-7.83c10.01-9.17,19.4-14.54,28.16-16.1v-6.3h-33.82v-6.03h70.62v6.03h-29.96v6.21c7.02,0.06,12.83,1.99,17.45,5.8
			C615.98,628.52,618.29,633.43,618.29,639.42z M587.07,656.42v-30.95c-6.78,1.68-14.18,6.21-22.22,13.58L587.07,656.42z"/>
		<path class="st2" d="M207.56,773.01c-0.48,0.06-1.29,0.09-2.43,0.09c-5.7,0-9.9-2.23-12.59-6.7c-2.7-4.47-4.11-10.39-4.23-17.77
			c0-4.2,0.32-8.16,0.95-11.88c0.63-3.72,1.66-7.32,3.1-10.79c1.44-3.48,3.55-6.24,6.34-8.28c2.79-2.04,6.13-3.06,10.03-3.06h1.35
			v6.03h-1.26c-2.58,0-4.81,0.83-6.7,2.47c-1.89,1.65-3.31,3.88-4.27,6.7c-0.96,2.82-1.65,5.77-2.07,8.86
			c-0.42,3.09-0.63,6.4-0.63,9.94c0,12.17,3.57,18.26,10.71,18.26h1.71V773.01z"/>
		<path class="st2" d="M245.88,765.54v-28.25l-31.57,14.21v-6.93l8.37-3.69c-2.16-3.36-5.04-5.73-8.64-7.11v-1.8
			c0-4.8,1.59-9.04,4.77-12.73s7.59-5.53,13.22-5.53c6.48,0,11.09,2.25,13.85,6.75v-13.4h6.93v7.56h10.17v6.03H252.8v54.06h-6.93
			V774c0-2.7-1.2-4.05-3.6-4.05c-0.96,0-3.01,0.4-6.16,1.21s-6.07,1.21-8.77,1.21c-3.96,0-7.09-1.17-9.4-3.51s-3.46-5.52-3.46-9.54
			c0-1.74,0.18-3.33,0.54-4.77h6.57c-0.3,1.5-0.45,2.97-0.45,4.41c0,4.74,2.25,7.11,6.75,7.11c1.86,0,4.18-0.37,6.97-1.12
			c2.79-0.75,5.02-1.12,6.7-1.12C243.3,763.83,244.74,764.4,245.88,765.54z M220.96,730.46c3.18,1.74,5.67,4.38,7.47,7.92
			l17.18-7.65c-0.6-3.36-1.96-6.03-4.09-8.01c-2.13-1.98-4.99-2.97-8.59-2.97c-3.6,0-6.4,1.05-8.41,3.15
			C222.5,725,221.32,727.52,220.96,730.46z"/>
		<path class="st2" d="M286.27,773.01c-0.48,0.06-1.32,0.09-2.52,0.09c-5.76,0-9.96-2.25-12.59-6.75c-2.64-4.5-4.02-10.4-4.14-17.72
			c0-13.61,2.76-22.94,8.28-27.98h-15.92v-6.03h29.42v6.03h-1.35c-2.58,0-4.78,0.81-6.61,2.43c-1.83,1.62-3.24,3.82-4.23,6.61
			c-0.99,2.79-1.7,5.74-2.11,8.86c-0.42,3.12-0.63,6.48-0.63,10.08c0,12.17,3.57,18.26,10.71,18.26h1.71V773.01z"/>
		<path class="st2" d="M356.16,772.38h-6.84c-1.32-5.46-1.98-11.21-1.98-17.27c0-5.34,0.66-10.55,1.98-15.65
			c-5.64-1.32-10.74-3.51-15.29-6.57s-7.83-6.72-9.8-10.97c-5.58,4.14-8.37,8.82-8.37,14.03c0,4.86,2.85,7.29,8.55,7.29
			c4.2,0,8.4-0.93,12.59-2.79c1.14,2.46,1.71,5.43,1.71,8.91c0,6.54-1.92,11.92-5.76,16.15c-3.84,4.23-9.24,6.34-16.19,6.34
			c-7.68,0-13.73-2.76-18.17-8.28c-4.44-5.52-6.66-12.65-6.66-21.41c0-0.9,0.06-2.31,0.18-4.23h6.84c-0.06,0.84-0.09,2.07-0.09,3.69
			c0,7.2,1.56,13.01,4.68,17.45c3.12,4.44,7.53,6.66,13.22,6.66c5.04,0,8.86-1.48,11.47-4.45s3.91-6.94,3.91-11.92v-1.44
			c-2.82,0.96-5.94,1.44-9.36,1.44c-4.32,0-7.74-1.18-10.25-3.55c-2.52-2.37-3.78-5.59-3.78-9.67c0-5.94,2.46-11.09,7.38-15.47
			h-30.94v-6.03h78.35v6.03h-32.56c4.38,7.14,13.04,11.96,26,14.48c-1.92,6.42-2.88,13.08-2.88,19.97
			C354.09,759.84,354.78,765.6,356.16,772.38z"/>
		<path class="st2" d="M380.18,732.35c3.54,0,6.69,0.87,9.45,2.61c2.76,1.74,4.92,4.08,6.48,7.02v-21.32h-36.16v-6.03h63.96
			c0.3-1.5,0.45-3,0.45-4.5c0-4.08-1.89-6.12-5.67-6.12c-1.62,0-4.03,0.36-7.24,1.08c-3.21,0.72-5.92,1.08-8.14,1.08
			c-3.78,0-6.81-0.6-9.08-1.8v-5.58c2.58,0.9,5.52,1.35,8.82,1.35c1.8,0,4.41-0.37,7.83-1.12c3.42-0.75,6.09-1.12,8.01-1.12
			c4.08,0,7.09,1.08,9.04,3.24c1.95,2.16,2.92,4.92,2.92,8.28c0,1.56-0.15,3.3-0.45,5.22h8.01v6.03h-35.35v37.33
			c0,2.46,0.64,4.36,1.93,5.71c1.29,1.35,3.01,2.02,5.17,2.02c4.14,0,7.56-1.75,10.25-5.26c2.7-3.51,4.05-7.6,4.05-12.28
			c0-6.42-3.54-9.62-10.61-9.62c-1.2,0-2.43,0.09-3.69,0.27v-6.21c1.38-0.24,2.88-0.36,4.5-0.36c5.28,0,9.38,1.44,12.32,4.32
			c2.94,2.88,4.41,6.75,4.41,11.6c0,6.36-1.92,11.89-5.76,16.6c-3.84,4.71-9,7.06-15.47,7.06c-4.08,0-7.44-1.23-10.08-3.69
			c-2.64-2.46-3.96-5.85-3.96-10.17v-0.99l-0.09,0.18c0-5.1-1.47-9.45-4.41-13.04c-2.94-3.6-6.54-5.4-10.79-5.4
			c-5.64,0-8.46,3.12-8.46,9.36c0,1.56,0.09,2.94,0.27,4.14h-6.84c-0.3-1.92-0.45-3.42-0.45-4.5c0-4.62,1.29-8.33,3.87-11.15
			C371.78,733.76,375.44,732.35,380.18,732.35z"/>
	</g>
	<g>
		<g>
			<path class="st3" d="M497.65,141.39v36.41c1.94-1.06,4.14-1.63,6.46-1.63c1.69,0,3.36,0.33,4.93,0.91v-35.69L497.65,141.39z"/>
		</g>
		<g>
			<g>
				<path class="st4" d="M568.99,219.11h-15.04l-39.42-39.42c-5.62-5.62-15-5.8-20.51-0.07c-5.35,5.55-5.29,14.39,0.19,19.87
					l42.05,42.05c3.8,3.8,8.95,5.94,14.33,5.94h18.39L568.99,219.11L568.99,219.11z"/>
			</g>
		</g>
		<g>
			<path class="st5" d="M567.54,142.15h-69.88V93.82c0-2.16,1.75-3.91,3.91-3.91h65.97c2.16,0,3.91,1.75,3.91,3.91v44.42
				C571.45,140.4,569.7,142.15,567.54,142.15z"/>
		</g>
		<path class="st3" d="M860.05,101.73c1.53-0.57,3.17-0.89,4.85-0.89c2.31,0,4.57,0.61,6.54,1.76V66h-11.39V101.73z"/>
		<g>
			<g>
				<g>
					<g>
						<g>
							<path class="st4" d="M568.99,219.11h-15.04l-39.42-39.42c-5.62-5.62-15-5.8-20.51-0.07c-5.35,5.55-5.29,14.39,0.19,19.87
								l42.05,42.05c3.8,3.8,8.95,5.94,14.33,5.94h18.39L568.99,219.11L568.99,219.11z"/>
						</g>
					</g>
					<g>
						<path class="st6" d="M707.99,238.2c0-3.69-0.98-7.33-2.82-10.52l-4.95-8.57H568.2v28.37h30.85c2.16,0,3.91,1.75,3.91,3.91
							v88.9c0,4.32,3.5,7.82,7.82,7.82h97.21V238.2z"/>
					</g>
					<g>
						<g>
							<path class="st7" d="M705.17,227.68l-4.95-8.57H685l0,97.95c0,4.32-3.5,7.82-7.82,7.82h-74.21v15.41
								c0,4.32,3.5,7.82,7.82,7.82h97.21l0-109.92C707.99,234.51,707.02,230.88,705.17,227.68z"/>
						</g>
					</g>
					<g>
						<g>
							<g>
								<path class="st8" d="M872,102.04c-6.81-4.1-15.82-1.51-19.8,5.38l-38.25,66.24l0.71,1.35l22.2,12.82l1.66,0.02l38.43-66.57
									C880.83,114.57,878.61,106.02,872,102.04L872,102.04z"/>
							</g>
							<g>
								<path class="st9" d="M705.03,175.06l0.81-1.4l-38.25-66.24c-3.98-6.89-12.99-9.48-19.8-5.38
									c-6.6,3.98-8.83,12.53-4.96,19.24l38.43,66.57l1.52,0.06L705.03,175.06z"/>
							</g>
						</g>
						<g>
							<g>
								<path class="st5" d="M813.96,173.66l-12.34,21.37c-3.56,6.17-8.38,11.36-14.02,15.32c-6.07,8.81-16.22,14.59-27.71,14.59
									c-11.48,0-21.64-5.79-27.71-14.59c-5.64-3.96-10.45-9.15-14.02-15.32l-12.34-21.37l-24.57,14.19l23.23,40.23
									c1.78,3.08,2.71,6.58,2.71,10.13v109.92h97.55c4.32,0,7.82-3.5,7.82-7.82V238.2c0-3.56,0.94-7.05,2.71-10.13l23.23-40.23
									L813.96,173.66z"/>
							</g>
							<g>
								<g>
									<path class="st10" d="M813.96,173.66l-12.34,21.37c-2.97,5.14-6.82,9.59-11.28,13.23c-0.77,2.17-1.18,4.47-1.18,6.79
										v102.09c0,4.32-3.5,7.82-7.82,7.82h-74.13v23.16h97.55c4.32,0,7.82-3.5,7.82-7.82V238.2c0-3.56,0.94-7.05,2.71-10.13
										l23.23-40.23L813.96,173.66z"/>
								</g>
							</g>
							<g>
								<g>
									<path class="st11" d="M759.9,157.59c7.17,0,13.82,2.26,19.29,6.09c1.09-2.53,1.69-5.32,1.69-8.25
										c0-11.58-9.39-20.97-20.97-20.97c-11.58,0-20.97,9.39-20.97,20.97c0,2.93,0.6,5.72,1.69,8.25
										C746.08,159.84,752.73,157.59,759.9,157.59z"/>
								</g>
								<g>
									<circle class="st9" cx="759.9" cy="191.3" r="34.42"/>
								</g>
								<g>
									<path class="st8" d="M768.62,158c5.08,6,8.15,13.75,8.15,22.23c0,19.01-15.41,34.42-34.42,34.42
										c-3.01,0-5.93-0.39-8.72-1.12c6.31,7.45,15.74,12.19,26.27,12.19c19.01,0,34.42-15.41,34.42-34.42
										C794.32,175.3,783.41,161.86,768.62,158L768.62,158z"/>
								</g>
								<g>
									<path class="st12" d="M759.9,156.88c-14.7,0-27.25,9.23-32.18,22.2h64.36C787.15,166.1,774.61,156.88,759.9,156.88z"/>
								</g>
								<g>
									<path class="st13" d="M776.74,179.08h15.34c-3.92-10.31-12.65-18.25-23.46-21.08
										C773.47,163.73,776.48,171.06,776.74,179.08z"/>
								</g>
							</g>
						</g>
					</g>
					<g>
						<g>
							<circle class="st4" cx="655.65" cy="195.4" r="34.42"/>
						</g>
					</g>
					<g>
						<path class="st14" d="M664.86,162.24c4.91,5.95,7.87,13.58,7.87,21.9c0,19.01-15.41,34.42-34.42,34.42
							c-3.19,0-6.28-0.44-9.21-1.26c6.31,7.65,15.86,12.52,26.55,12.52c19.01,0,34.42-15.41,34.42-34.42
							C690.07,179.58,679.39,166.27,664.86,162.24L664.86,162.24z"/>
					</g>
				</g>
				<g>
					<path class="st15" d="M626.38,47.98l-27.99,7.5c-1.75,0.47-2.33,2.65-1.05,3.93l20.49,20.49c1.28,1.28,3.46,0.69,3.93-1.05
						l7.5-27.99C629.73,49.11,628.13,47.51,626.38,47.98L626.38,47.98z"/>
				</g>
				<g>
					<path class="st16" d="M711.67,112.39l27.99-7.5c1.75-0.47,2.33-2.65,1.05-3.93l-20.49-20.49c-1.28-1.28-3.46-0.69-3.93,1.05
						l-7.5,27.99C708.32,111.26,709.92,112.86,711.67,112.39L711.67,112.39z"/>
				</g>
				<g>
					<path class="st10" d="M711.41,27.43L695.63,43.2c-0.92,0.92-2.4,0.92-3.32,0l-15.78-15.78c-0.92-0.92-0.92-2.4,0-3.32
						l15.78-15.78c0.92-0.92,2.4-0.92,3.32,0l15.78,15.78C712.33,25.03,712.33,26.51,711.41,27.43z"/>
				</g>
			</g>
		</g>
		<g>
			<g>
				<g>
					<path class="st5" d="M567.54,142.15h-69.88V93.82c0-2.16,1.75-3.91,3.91-3.91h65.97c2.16,0,3.91,1.75,3.91,3.91v44.42
						C571.45,140.4,569.7,142.15,567.54,142.15z"/>
				</g>
				<g>
					<path class="st10" d="M567.54,89.9h-15.25v30.87c0,2.16-1.75,3.91-3.91,3.91h-50.72v17.46h69.88c2.16,0,3.91-1.75,3.91-3.91
						V93.82C571.45,91.66,569.7,89.9,567.54,89.9z"/>
				</g>
			</g>
			<g>
				<path class="st10" d="M526.9,30.09c-1.46,0-2.92-0.56-4.03-1.67c-2.22-2.22-2.22-5.83,0-8.05l5.79-5.79
					c2.22-2.22,5.83-2.22,8.05,0c2.22,2.22,2.22,5.83,0,8.05l-5.79,5.79C529.81,29.53,528.35,30.09,526.9,30.09z"/>
			</g>
			<g>
				<path class="st17" d="M762.22,72.8c-1.46,0-2.92-0.56-4.03-1.67l-5.79-5.79c-2.22-2.22-2.22-5.83,0-8.05
					c2.23-2.22,5.83-2.22,8.05,0l5.79,5.79c2.23,2.22,2.23,5.83,0,8.05C765.14,72.24,763.68,72.8,762.22,72.8L762.22,72.8z"/>
			</g>
			<g>
				<path class="st16" d="M560.07,63.41c-1.46,0-2.92-0.56-4.03-1.67l-5.79-5.79c-2.22-2.22-2.22-5.83,0-8.05
					c2.22-2.22,5.83-2.22,8.05,0l5.79,5.79c2.22,2.22,2.22,5.83,0,8.05C562.99,62.85,561.53,63.41,560.07,63.41z"/>
			</g>
		</g>
		<g>
			<g>
				<g>
					<path class="st10" d="M801.56,66.76h69.88V18.43c0-2.16-1.75-3.91-3.91-3.91h-65.97c-2.16,0-3.91,1.75-3.91,3.91v44.42
						C797.65,65.01,799.4,66.76,801.56,66.76z"/>
				</g>
				<g>
					<path class="st18" d="M867.53,14.52h-13.61V45.5c0,2.16-1.75,3.91-3.91,3.91h-52.36v13.44c0,2.16,1.75,3.91,3.91,3.91h69.88
						V18.43C871.44,16.27,869.69,14.52,867.53,14.52z"/>
				</g>
			</g>
		</g>
	</g>
</g>
</svg>
