<?xml version="1.0" encoding="utf-8"?>
<!-- Generator: Adobe Illustrator 26.0.1, SVG Export Plug-In . SVG Version: 6.00 Build 0)  -->
<svg version="1.1" id="Layer_1" xmlns="http://www.w3.org/2000/svg" xmlns:xlink="http://www.w3.org/1999/xlink" x="0px" y="0px"
	 viewBox="0 0 1000 1000" style="enable-background:new 0 0 1000 1000;" xml:space="preserve">
<style type="text/css">
	.st0{fill:#FC7186;}
	.st1{opacity:0.7;fill:#E55A75;}
	.st2{fill:#FFFFFF;}
	.st3{fill:#6289CC;}
	.st4{fill:#4A6BB2;}
	.st5{fill:#EBF0F4;}
	.st6{fill:#3C58A0;}
	.st7{fill:#4ABA9F;}
	.st8{fill:#3FAF9A;}
	.st9{fill:#58CCB0;}
	.st10{fill:#FFE077;}
	.st11{fill:#D8E3EA;}
</style>
<g>
	<polygon class="st0" points="493.3,980.4 596.6,801.3 389.9,801.3 	"/>
	<path class="st0" d="M904.5,114.3v693.4c0,20.8-16.8,37.5-37.5,37.5H133c-20.8,0-37.5-16.8-37.5-37.5V114.3
		c0-20.7,16.8-37.5,37.5-37.5H867C887.7,76.7,904.5,93.6,904.5,114.3z"/>
	<path class="st1" d="M904.5,571.6v236c0,20.8-16.8,37.5-37.5,37.5H133c-20.8,0-37.5-16.8-37.5-37.5V324.4
		C260.8,573,540.3,831.4,904.5,571.6z"/>
	<g>
		<path class="st2" d="M182.5,216.3v12.8h20.6V241h-20.6v13.9h23.3v12.3h-38.7V204h38.7v12.3H182.5z"/>
		<path class="st2" d="M215.6,228.4c1.9-3.9,4.6-6.9,8-9c3.4-2.1,7.1-3.1,11.2-3.1c3.5,0,6.6,0.7,9.3,2.2c2.7,1.4,4.7,3.3,6.2,5.7
			v-7.1h15.4v50.2h-15.4V260c-1.5,2.3-3.6,4.2-6.3,5.7c-2.7,1.4-5.8,2.2-9.3,2.2c-4.1,0-7.8-1.1-11.2-3.2c-3.4-2.1-6-5.2-8-9.1
			c-1.9-3.9-2.9-8.5-2.9-13.6C212.7,236.8,213.7,232.3,215.6,228.4z M247.1,233c-2.1-2.2-4.7-3.3-7.8-3.3s-5.7,1.1-7.8,3.3
			c-2.1,2.2-3.2,5.2-3.2,9s1.1,6.9,3.2,9.1c2.1,2.2,4.7,3.4,7.8,3.4s5.7-1.1,7.8-3.3c2.1-2.2,3.2-5.2,3.2-9.1
			C250.3,238.2,249.2,235.2,247.1,233z"/>
		<path class="st2" d="M299,218.8c2.7-1.6,5.7-2.4,9-2.4v16.3h-4.2c-3.8,0-6.7,0.8-8.6,2.5c-1.9,1.7-2.9,4.5-2.9,8.7v23.3h-15.4
			v-50.2h15.4v8.4C294,222.5,296.3,220.4,299,218.8z"/>
		<path class="st2" d="M360,222.1c3.5,3.8,5.3,9,5.3,15.7v29.3H350v-27.3c0-3.4-0.9-6-2.6-7.8c-1.7-1.9-4.1-2.8-7-2.8
			c-2.9,0-5.3,0.9-7,2.8c-1.7,1.9-2.6,4.5-2.6,7.8v27.3h-15.4v-50.2h15.4v6.7c1.6-2.2,3.7-4,6.3-5.3c2.6-1.3,5.6-1.9,8.9-1.9
			C351.8,216.4,356.5,218.3,360,222.1z"/>
		<path class="st2" d="M168.5,326.7c2.7-4.9,6.5-8.7,11.3-11.4c4.8-2.7,10.3-4.1,16.4-4.1c7.5,0,13.9,2,19.2,5.9
			c5.3,4,8.9,9.4,10.7,16.2h-16.9c-1.3-2.6-3-4.6-5.4-6c-2.3-1.4-4.9-2.1-7.9-2.1c-4.7,0-8.6,1.7-11.5,4.9
			c-2.9,3.3-4.4,7.7-4.4,13.2c0,5.5,1.5,9.9,4.4,13.2c2.9,3.3,6.8,4.9,11.5,4.9c2.9,0,5.6-0.7,7.9-2.1c2.3-1.4,4.1-3.4,5.4-6h16.9
			c-1.8,6.8-5.4,12.2-10.7,16.1c-5.3,3.9-11.8,5.9-19.2,5.9c-6.1,0-11.6-1.4-16.4-4.1c-4.8-2.7-8.6-6.5-11.3-11.4s-4-10.4-4-16.6
			C164.5,337.2,165.8,331.6,168.5,326.7z"/>
		<path class="st2" d="M282.7,353.7h-34.8c0.2,3.1,1.2,5.5,3,7.2c1.8,1.6,3.9,2.5,6.5,2.5c3.8,0,6.5-1.6,8-4.9h16.4
			c-0.8,3.3-2.4,6.3-4.5,8.9c-2.2,2.6-4.9,4.7-8.2,6.2c-3.3,1.5-7,2.2-11.1,2.2c-4.9,0-9.3-1-13.1-3.1c-3.8-2.1-6.8-5.1-9-9
			c-2.2-3.9-3.2-8.5-3.2-13.7s1.1-9.8,3.2-13.7c2.1-3.9,5.1-6.9,9-9c3.8-2.1,8.2-3.1,13.2-3.1c4.9,0,9.2,1,13,3.1
			c3.8,2,6.7,4.9,8.9,8.7c2.1,3.8,3.2,8.2,3.2,13.2C283,350.6,282.9,352.1,282.7,353.7z M267.2,345.1c0-2.6-0.9-4.7-2.7-6.3
			s-4-2.3-6.7-2.3c-2.6,0-4.8,0.8-6.5,2.2c-1.8,1.5-2.9,3.6-3.3,6.4H267.2z"/>
		<path class="st2" d="M313.2,326.7c2.7-1.6,5.7-2.4,9-2.4v16.3H318c-3.8,0-6.7,0.8-8.6,2.5c-1.9,1.7-2.9,4.5-2.9,8.7v23.3h-15.4
			v-50.2h15.4v8.4C308.2,330.5,310.5,328.3,313.2,326.7z"/>
		<path class="st2" d="M357.5,362v13h-7.8c-5.6,0-9.9-1.4-13-4.1c-3.1-2.7-4.7-7.2-4.7-13.4v-20h-6.1v-12.8h6.1v-12.2h15.4v12.2
			h10.1v12.8h-10.1v20.2c0,1.5,0.4,2.6,1.1,3.2c0.7,0.7,1.9,1,3.6,1H357.5z"/>
		<path class="st2" d="M367.2,317.3c-1.7-1.6-2.6-3.6-2.6-5.9c0-2.4,0.9-4.4,2.6-6c1.7-1.6,3.9-2.4,6.6-2.4c2.6,0,4.8,0.8,6.5,2.4
			c1.7,1.6,2.6,3.6,2.6,6c0,2.3-0.9,4.3-2.6,5.9c-1.7,1.6-3.9,2.4-6.5,2.4C371.1,319.7,368.9,318.9,367.2,317.3z M381.5,324.9v50.2
			h-15.4v-50.2H381.5z"/>
		<path class="st2" d="M409.5,324.9h29.9v50.2H424v-37.4h-14.5v37.4h-15.4v-37.4h-5.6v-12.8h5.6v-1.4c0-6.2,1.7-10.9,5.2-14.1
			c3.4-3.2,8.5-4.8,15.1-4.8c1.1,0,1.9,0,2.4,0.1v13c-2.7-0.2-4.6,0.2-5.7,1.3c-1.1,1-1.6,2.8-1.6,5.5V324.9z M425.2,318.3
			c-1.7-1.5-2.5-3.4-2.5-5.8s0.8-4.3,2.5-5.8c1.7-1.5,3.9-2.3,6.6-2.3c2.7,0,4.9,0.8,6.6,2.3s2.6,3.5,2.6,5.8s-0.8,4.3-2.5,5.8
			c-1.7,1.5-3.9,2.2-6.7,2.2C429.1,320.6,426.9,319.8,425.2,318.3z"/>
		<path class="st2" d="M451.9,336.3c2.1-3.9,5.1-6.9,8.9-9c3.8-2.1,8.2-3.1,13.1-3.1c6.3,0,11.6,1.6,15.8,4.9
			c4.2,3.3,7,7.9,8.3,13.9h-16.4c-1.4-3.8-4-5.8-8-5.8c-2.8,0-5.1,1.1-6.7,3.3c-1.7,2.2-2.5,5.3-2.5,9.4c0,4.1,0.8,7.2,2.5,9.4
			c1.7,2.2,3.9,3.3,6.7,3.3c4,0,6.6-1.9,8-5.8H498c-1.3,5.9-4.1,10.5-8.4,13.9c-4.3,3.4-9.5,5-15.7,5c-4.9,0-9.3-1-13.1-3.1
			c-3.8-2.1-6.8-5.1-8.9-9c-2.1-3.9-3.2-8.5-3.2-13.7S449.7,340.2,451.9,336.3z"/>
		<path class="st2" d="M506,336.3c1.9-3.9,4.6-6.9,8-9c3.4-2.1,7.1-3.1,11.2-3.1c3.5,0,6.6,0.7,9.3,2.2c2.7,1.4,4.7,3.3,6.2,5.7
			v-7.1h15.4v50.2h-15.4V368c-1.5,2.3-3.6,4.2-6.3,5.7c-2.7,1.4-5.8,2.2-9.3,2.2c-4.1,0-7.8-1.1-11.2-3.2c-3.4-2.1-6-5.2-8-9.1
			c-1.9-3.9-2.9-8.5-2.9-13.6C503.1,344.7,504.1,340.2,506,336.3z M537.5,340.9c-2.1-2.2-4.7-3.3-7.8-3.3s-5.7,1.1-7.8,3.3
			c-2.1,2.2-3.2,5.2-3.2,9s1.1,6.9,3.2,9.1c2.1,2.2,4.7,3.4,7.8,3.4s5.7-1.1,7.8-3.3c2.1-2.2,3.2-5.2,3.2-9.1
			C540.7,346.1,539.6,343.1,537.5,340.9z"/>
		<path class="st2" d="M595.2,362v13h-7.8c-5.6,0-9.9-1.4-13-4.1c-3.1-2.7-4.7-7.2-4.7-13.4v-20h-6.1v-12.8h6.1v-12.2H585v12.2h10.1
			v12.8H585v20.2c0,1.5,0.4,2.6,1.1,3.2c0.7,0.7,1.9,1,3.6,1H595.2z"/>
		<path class="st2" d="M604.9,317.3c-1.7-1.6-2.6-3.6-2.6-5.9c0-2.4,0.9-4.4,2.6-6c1.7-1.6,3.9-2.4,6.6-2.4c2.6,0,4.8,0.8,6.5,2.4
			c1.7,1.6,2.6,3.6,2.6,6c0,2.3-0.9,4.3-2.6,5.9c-1.7,1.6-3.9,2.4-6.5,2.4C608.8,319.7,606.6,318.9,604.9,317.3z M619.1,324.9v50.2
			h-15.4v-50.2H619.1z"/>
		<path class="st2" d="M639.9,372.7c-3.9-2.1-7-5.1-9.3-9c-2.2-3.9-3.4-8.5-3.4-13.7c0-5.2,1.1-9.7,3.4-13.6c2.3-3.9,5.4-6.9,9.4-9
			c4-2.1,8.4-3.1,13.3-3.1c4.9,0,9.4,1,13.3,3.1c4,2.1,7.1,5.1,9.4,9c2.3,3.9,3.4,8.5,3.4,13.6c0,5.2-1.2,9.7-3.5,13.6
			c-2.3,3.9-5.5,6.9-9.4,9c-4,2.1-8.4,3.1-13.4,3.1C648.2,375.8,643.8,374.8,639.9,372.7z M660.6,359.3c2.1-2.2,3.1-5.2,3.1-9.3
			c0-4-1-7.1-3-9.3c-2-2.2-4.5-3.2-7.4-3.2c-3,0-5.5,1.1-7.5,3.2c-2,2.1-3,5.2-3,9.3c0,4,1,7.1,2.9,9.3c1.9,2.2,4.4,3.2,7.3,3.2
			S658.6,361.4,660.6,359.3z"/>
		<path class="st2" d="M732.2,330.1c3.5,3.8,5.3,9,5.3,15.7v29.3h-15.3v-27.3c0-3.4-0.9-6-2.6-7.8c-1.7-1.9-4.1-2.8-7-2.8
			c-2.9,0-5.3,0.9-7,2.8c-1.7,1.9-2.6,4.5-2.6,7.8v27.3h-15.4v-50.2H703v6.7c1.6-2.2,3.7-4,6.3-5.3c2.6-1.3,5.6-1.9,8.9-1.9
			C724,324.3,728.7,326.3,732.2,330.1z"/>
	</g>
	<g>
		<path class="st2" d="M168.6,466.5c2.5-4.3,5.8-7.7,10-10.2c4.2-2.5,8.9-3.7,14.1-3.7c6.1,0,11.4,1.5,15.9,4.4
			c4.5,2.9,7.8,7.1,9.9,12.5h-8.7c-1.5-3.4-3.8-5.9-6.7-7.8c-2.9-1.8-6.4-2.7-10.4-2.7c-3.9,0-7.4,0.9-10.5,2.7
			c-3.1,1.8-5.5,4.4-7.3,7.7c-1.8,3.3-2.6,7.2-2.6,11.7c0,4.4,0.9,8.3,2.6,11.6c1.8,3.3,4.2,5.9,7.3,7.7c3.1,1.8,6.6,2.7,10.5,2.7
			c4.1,0,7.5-0.9,10.4-2.7c2.9-1.8,5.1-4.4,6.7-7.7h8.7c-2.1,5.3-5.4,9.4-9.9,12.4c-4.5,2.9-9.8,4.4-15.9,4.4
			c-5.2,0-9.9-1.2-14.1-3.6c-4.2-2.4-7.6-5.8-10-10.1c-2.5-4.3-3.7-9.2-3.7-14.6S166.2,470.9,168.6,466.5z"/>
		<path class="st2" d="M269.2,489.9h-35c0.3,4.3,1.7,7.7,4.4,10.1c2.7,2.4,6,3.6,9.8,3.6c3.1,0,5.8-0.7,7.9-2.2
			c2.1-1.5,3.6-3.4,4.4-5.9h7.8c-1.2,4.2-3.5,7.6-7,10.3s-7.9,4-13.1,4c-4.2,0-7.9-0.9-11.2-2.8c-3.3-1.9-5.9-4.5-7.7-8
			c-1.9-3.4-2.8-7.4-2.8-12c0-4.5,0.9-8.5,2.7-11.9c1.8-3.4,4.4-6,7.6-7.9c3.3-1.8,7-2.8,11.3-2.8c4.2,0,7.8,0.9,11,2.7
			s5.7,4.3,7.4,7.5c1.7,3.2,2.6,6.8,2.6,10.8C269.4,486.9,269.3,488.4,269.2,489.9z M260,476.8c-1.2-2-2.9-3.5-5-4.6
			c-2.1-1-4.4-1.6-7-1.6c-3.7,0-6.8,1.2-9.4,3.5c-2.6,2.3-4.1,5.6-4.4,9.8h27.7C261.9,481.2,261.3,478.8,260,476.8z"/>
		<path class="st2" d="M286.3,449.9v59.2H279v-59.2H286.3z"/>
		<path class="st2" d="M338.4,489.9h-35c0.3,4.3,1.7,7.7,4.4,10.1c2.7,2.4,6,3.6,9.8,3.6c3.1,0,5.8-0.7,7.9-2.2
			c2.1-1.5,3.6-3.4,4.4-5.9h7.8c-1.2,4.2-3.5,7.6-7,10.3s-7.9,4-13.1,4c-4.2,0-7.9-0.9-11.2-2.8c-3.3-1.9-5.9-4.5-7.7-8
			c-1.9-3.4-2.8-7.4-2.8-12c0-4.5,0.9-8.5,2.7-11.9c1.8-3.4,4.4-6,7.6-7.9c3.3-1.8,7-2.8,11.3-2.8c4.2,0,7.8,0.9,11,2.7
			s5.7,4.3,7.4,7.5c1.7,3.2,2.6,6.8,2.6,10.8C338.6,486.9,338.6,488.4,338.4,489.9z M329.3,476.8c-1.2-2-2.9-3.5-5-4.6
			c-2.1-1-4.4-1.6-7-1.6c-3.7,0-6.8,1.2-9.4,3.5c-2.6,2.3-4.1,5.6-4.4,9.8h27.7C331.1,481.2,330.5,478.8,329.3,476.8z"/>
		<path class="st2" d="M362.1,467.1c2.9-1.7,6.2-2.5,9.8-2.5c3.9,0,7.5,0.9,10.6,2.8c3.1,1.9,5.6,4.5,7.4,7.9
			c1.8,3.4,2.7,7.3,2.7,11.8c0,4.4-0.9,8.4-2.7,11.8c-1.8,3.5-4.3,6.2-7.5,8.1s-6.7,2.9-10.6,2.9c-3.8,0-7.1-0.8-10-2.5
			c-2.9-1.7-5-3.8-6.4-6.3v8.1h-7.3v-59.2h7.3v23.5C357,470.8,359.2,468.7,362.1,467.1z M383.3,478.4c-1.3-2.5-3.1-4.3-5.4-5.6
			s-4.8-1.9-7.5-1.9c-2.7,0-5.1,0.7-7.4,2c-2.3,1.3-4.1,3.2-5.4,5.7c-1.4,2.5-2,5.3-2,8.6c0,3.3,0.7,6.2,2,8.7s3.2,4.4,5.4,5.7
			c2.3,1.3,4.7,2,7.4,2c2.7,0,5.2-0.7,7.5-2c2.3-1.3,4.1-3.2,5.4-5.7c1.3-2.5,2-5.4,2-8.8C385.3,483.7,384.6,480.9,383.3,478.4z"/>
		<path class="st2" d="M415,466.6c2.4-1.4,5.3-2.1,8.7-2.1v7.5h-1.9c-8.2,0-12.2,4.4-12.2,13.3v23.8h-7.3v-43.8h7.3v7.1
			C410.8,469.9,412.7,468,415,466.6z"/>
		<path class="st2" d="M432.1,475.2c1.8-3.4,4.3-6,7.5-7.9c3.2-1.9,6.7-2.8,10.6-2.8c3.8,0,7.2,0.8,10,2.5c2.8,1.7,4.9,3.7,6.3,6.2
			v-8h7.4v43.8h-7.4V501c-1.4,2.6-3.6,4.7-6.4,6.4c-2.9,1.7-6.2,2.5-10,2.5c-3.9,0-7.4-1-10.6-2.9c-3.1-1.9-5.6-4.6-7.4-8.1
			c-1.8-3.5-2.7-7.4-2.7-11.8C429.4,482.6,430.3,478.6,432.1,475.2z M464.5,478.5c-1.3-2.5-3.1-4.3-5.4-5.6c-2.3-1.3-4.8-2-7.5-2
			s-5.2,0.6-7.4,1.9c-2.2,1.3-4,3.1-5.4,5.6c-1.3,2.5-2,5.3-2,8.6c0,3.4,0.7,6.3,2,8.8c1.3,2.5,3.1,4.4,5.4,5.7c2.2,1.3,4.7,2,7.4,2
			s5.2-0.7,7.5-2c2.3-1.3,4.1-3.2,5.4-5.7c1.3-2.5,2-5.4,2-8.7C466.5,483.8,465.8,480.9,464.5,478.5z"/>
		<path class="st2" d="M495,471.3v25.8c0,2.1,0.5,3.6,1.4,4.5c0.9,0.9,2.5,1.3,4.7,1.3h5.4v6.2h-6.6c-4.1,0-7.1-0.9-9.1-2.8
			c-2-1.9-3-4.9-3-9.2v-25.8h-5.7v-6h5.7v-11h7.3v11h11.4v6H495z"/>
		<path class="st2" d="M555,489.9h-35c0.3,4.3,1.7,7.7,4.4,10.1c2.7,2.4,6,3.6,9.8,3.6c3.1,0,5.8-0.7,7.9-2.2
			c2.1-1.5,3.6-3.4,4.4-5.9h7.8c-1.2,4.2-3.5,7.6-7,10.3s-7.9,4-13.1,4c-4.2,0-7.9-0.9-11.2-2.8c-3.3-1.9-5.9-4.5-7.7-8
			c-1.9-3.4-2.8-7.4-2.8-12c0-4.5,0.9-8.5,2.7-11.9c1.8-3.4,4.4-6,7.6-7.9c3.3-1.8,7-2.8,11.3-2.8c4.2,0,7.8,0.9,11,2.7
			s5.7,4.3,7.4,7.5c1.7,3.2,2.6,6.8,2.6,10.8C555.3,486.9,555.2,488.4,555,489.9z M545.9,476.8c-1.2-2-2.9-3.5-5-4.6
			c-2.1-1-4.4-1.6-7-1.6c-3.7,0-6.8,1.2-9.4,3.5c-2.6,2.3-4.1,5.6-4.4,9.8h27.7C547.7,481.2,547.1,478.8,545.9,476.8z"/>
		<path class="st2" d="M175,545.9v59.2h-7.3v-59.2H175z"/>
		<path class="st2" d="M227.1,585.9h-35c0.3,4.3,1.7,7.7,4.4,10.1c2.7,2.4,6,3.6,9.8,3.6c3.1,0,5.8-0.7,7.9-2.2
			c2.1-1.5,3.6-3.4,4.4-5.9h7.8c-1.2,4.2-3.5,7.6-7,10.3s-7.9,4-13.1,4c-4.2,0-7.9-0.9-11.2-2.8c-3.3-1.9-5.9-4.5-7.7-8
			c-1.9-3.4-2.8-7.4-2.8-12c0-4.5,0.9-8.5,2.7-11.9c1.8-3.4,4.4-6,7.6-7.9c3.3-1.8,7-2.8,11.3-2.8c4.2,0,7.8,0.9,11,2.7
			s5.7,4.3,7.4,7.5c1.7,3.2,2.6,6.8,2.6,10.8C227.3,582.9,227.3,584.3,227.1,585.9z M218,572.8c-1.2-2-2.9-3.5-5-4.6
			c-2.1-1-4.4-1.6-7-1.6c-3.7,0-6.8,1.2-9.4,3.5c-2.6,2.3-4.1,5.6-4.4,9.8h27.7C219.8,577.2,219.2,574.8,218,572.8z"/>
		<path class="st2" d="M236.9,571.2c1.8-3.4,4.3-6,7.5-7.9c3.2-1.9,6.7-2.8,10.6-2.8c3.8,0,7.2,0.8,10,2.5c2.8,1.7,4.9,3.7,6.3,6.2
			v-8h7.4v43.8h-7.4v-8.2c-1.4,2.6-3.6,4.7-6.4,6.4c-2.9,1.7-6.2,2.5-10,2.5c-3.9,0-7.4-1-10.6-2.9c-3.1-1.9-5.6-4.6-7.4-8.1
			c-1.8-3.5-2.7-7.4-2.7-11.8C234.2,578.5,235.1,574.6,236.9,571.2z M269.3,574.4c-1.3-2.5-3.1-4.3-5.4-5.6c-2.3-1.3-4.8-2-7.5-2
			s-5.2,0.6-7.4,1.9c-2.2,1.3-4,3.1-5.4,5.6c-1.3,2.5-2,5.3-2,8.6c0,3.4,0.7,6.3,2,8.8c1.3,2.5,3.1,4.4,5.4,5.7c2.2,1.3,4.7,2,7.4,2
			s5.2-0.7,7.5-2c2.3-1.3,4.1-3.2,5.4-5.7c1.3-2.5,2-5.4,2-8.7C271.3,579.8,270.6,576.9,269.3,574.4z"/>
		<path class="st2" d="M303.7,562.5c2.4-1.4,5.3-2.1,8.7-2.1v7.5h-1.9c-8.2,0-12.2,4.4-12.2,13.3v23.8H291v-43.8h7.3v7.1
			C299.5,565.9,301.4,563.9,303.7,562.5z"/>
		<path class="st2" d="M355.1,565.3c3.3,3.2,5,7.9,5,14v25.8h-7.2v-24.8c0-4.4-1.1-7.7-3.3-10c-2.2-2.3-5.2-3.5-9-3.5
			c-3.8,0-6.9,1.2-9.2,3.6c-2.3,2.4-3.4,5.9-3.4,10.5v24.2h-7.3v-43.8h7.3v6.2c1.4-2.2,3.4-4,5.9-5.2c2.5-1.2,5.2-1.8,8.2-1.8
			C347.5,560.4,351.8,562.1,355.1,565.3z"/>
		<path class="st2" d="M372.2,552.7c-1-1-1.4-2.1-1.4-3.5c0-1.4,0.5-2.6,1.4-3.5c1-1,2.1-1.4,3.5-1.4c1.3,0,2.5,0.5,3.4,1.4
			c0.9,1,1.4,2.1,1.4,3.5c0,1.4-0.5,2.6-1.4,3.5c-0.9,1-2.1,1.4-3.4,1.4C374.4,554.1,373.2,553.7,372.2,552.7z M379.3,561.2v43.8
			H372v-43.8H379.3z"/>
		<path class="st2" d="M426,565.3c3.3,3.2,5,7.9,5,14v25.8h-7.2v-24.8c0-4.4-1.1-7.7-3.3-10c-2.2-2.3-5.2-3.5-9-3.5
			c-3.8,0-6.9,1.2-9.2,3.6c-2.3,2.4-3.4,5.9-3.4,10.5v24.2h-7.3v-43.8h7.3v6.2c1.4-2.2,3.4-4,5.9-5.2c2.5-1.2,5.2-1.8,8.2-1.8
			C418.3,560.4,422.7,562.1,426,565.3z"/>
		<path class="st2" d="M470.9,563c2.9,1.7,5,3.7,6.4,6.2v-8h7.4V606c0,4-0.9,7.6-2.6,10.7c-1.7,3.1-4.1,5.6-7.3,7.3
			c-3.2,1.8-6.9,2.6-11.1,2.6c-5.8,0-10.6-1.4-14.4-4.1s-6.1-6.4-6.8-11.1h7.2c0.8,2.7,2.5,4.8,5,6.4c2.5,1.6,5.5,2.4,9,2.4
			c4,0,7.3-1.3,9.8-3.8c2.5-2.5,3.8-6,3.8-10.6v-9.2c-1.4,2.6-3.6,4.7-6.4,6.4c-2.8,1.7-6.1,2.6-9.9,2.6c-3.9,0-7.4-1-10.6-2.9
			c-3.2-1.9-5.7-4.6-7.5-8.1c-1.8-3.5-2.7-7.4-2.7-11.8c0-4.5,0.9-8.4,2.7-11.8c1.8-3.4,4.3-6,7.5-7.9c3.2-1.9,6.7-2.8,10.6-2.8
			C464.7,560.5,468,561.4,470.9,563z M475.2,574.4c-1.3-2.5-3.1-4.3-5.4-5.6c-2.3-1.3-4.8-2-7.5-2s-5.2,0.6-7.4,1.9
			c-2.2,1.3-4,3.1-5.4,5.6c-1.3,2.5-2,5.3-2,8.6c0,3.4,0.7,6.3,2,8.8c1.3,2.5,3.1,4.4,5.4,5.7c2.2,1.3,4.7,2,7.4,2s5.2-0.7,7.5-2
			c2.3-1.3,4.1-3.2,5.4-5.7c1.3-2.5,2-5.4,2-8.7C477.2,579.8,476.5,576.9,475.2,574.4z"/>
		<path class="st2" d="M576.6,561.2l-13.7,43.8h-7.5l-10.6-34.8l-10.6,34.8h-7.5L513,561.2h7.4l10.1,36.8l10.9-36.8h7.4l10.6,36.9
			l9.9-36.9H576.6z"/>
		<path class="st2" d="M584,552.7c-1-1-1.4-2.1-1.4-3.5c0-1.4,0.5-2.6,1.4-3.5c1-1,2.1-1.4,3.5-1.4c1.3,0,2.5,0.5,3.4,1.4
			c0.9,1,1.4,2.1,1.4,3.5c0,1.4-0.5,2.6-1.4,3.5c-0.9,1-2.1,1.4-3.4,1.4C586.2,554.1,585,553.7,584,552.7z M591.1,561.2v43.8h-7.3
			v-43.8H591.1z"/>
		<path class="st2" d="M612.3,567.2v25.8c0,2.1,0.5,3.6,1.4,4.5c0.9,0.9,2.5,1.3,4.7,1.3h5.4v6.2h-6.6c-4.1,0-7.1-0.9-9.1-2.8
			c-2-1.9-3-4.9-3-9.2v-25.8h-5.7v-6h5.7v-11h7.3v11h11.4v6H612.3z"/>
		<path class="st2" d="M663.3,562.6c2.7,1.4,4.8,3.5,6.3,6.4c1.5,2.8,2.3,6.3,2.3,10.3v25.8h-7.2v-24.8c0-4.4-1.1-7.7-3.3-10
			c-2.2-2.3-5.2-3.5-9-3.5c-3.8,0-6.9,1.2-9.2,3.6c-2.3,2.4-3.4,5.9-3.4,10.5v24.2h-7.3v-59.2h7.3v21.6c1.4-2.2,3.4-4,6-5.2
			c2.5-1.2,5.4-1.8,8.5-1.8C657.6,560.4,660.6,561.2,663.3,562.6z"/>
		<path class="st2" d="M705.1,571.2c1.8-3.4,4.3-6,7.5-7.9c3.2-1.9,6.7-2.8,10.6-2.8c3.8,0,7.2,0.8,10,2.5c2.8,1.7,4.9,3.7,6.3,6.2
			v-8h7.4v43.8h-7.4v-8.2c-1.4,2.6-3.6,4.7-6.4,6.4c-2.9,1.7-6.2,2.5-10,2.5c-3.9,0-7.4-1-10.6-2.9c-3.1-1.9-5.6-4.6-7.4-8.1
			c-1.8-3.5-2.7-7.4-2.7-11.8C702.4,578.5,703.3,574.6,705.1,571.2z M737.5,574.4c-1.3-2.5-3.1-4.3-5.4-5.6c-2.3-1.3-4.8-2-7.5-2
			s-5.2,0.6-7.4,1.9c-2.2,1.3-4,3.1-5.4,5.6c-1.3,2.5-2,5.3-2,8.6c0,3.4,0.7,6.3,2,8.8c1.3,2.5,3.1,4.4,5.4,5.7c2.2,1.3,4.7,2,7.4,2
			s5.2-0.7,7.5-2c2.3-1.3,4.1-3.2,5.4-5.7c1.3-2.5,2-5.4,2-8.7C739.5,579.8,738.8,576.9,737.5,574.4z"/>
		<path class="st2" d="M167.7,667.2c1.8-3.4,4.3-6,7.6-7.9c3.2-1.9,6.9-2.8,11.1-2.8c5.4,0,9.8,1.3,13.3,3.9
			c3.5,2.6,5.8,6.2,6.9,10.9h-7.8c-0.7-2.7-2.2-4.8-4.4-6.3c-2.2-1.5-4.8-2.3-8-2.3c-4.2,0-7.5,1.4-10.1,4.3
			c-2.6,2.9-3.8,6.9-3.8,12.1c0,5.3,1.3,9.4,3.8,12.2c2.6,2.9,5.9,4.3,10.1,4.3c3.2,0,5.9-0.7,8-2.2c2.1-1.5,3.6-3.6,4.4-6.4h7.8
			c-1.2,4.5-3.5,8.1-7,10.8c-3.5,2.7-7.9,4-13.2,4c-4.2,0-7.8-0.9-11.1-2.8c-3.2-1.9-5.7-4.5-7.6-7.9c-1.8-3.4-2.7-7.4-2.7-12
			C165,674.5,165.9,670.5,167.7,667.2z"/>
		<path class="st2" d="M256,681.8h-35c0.3,4.3,1.7,7.7,4.4,10.1c2.7,2.4,6,3.6,9.8,3.6c3.1,0,5.8-0.7,7.9-2.2
			c2.1-1.5,3.6-3.4,4.4-5.9h7.8c-1.2,4.2-3.5,7.6-7,10.3s-7.9,4-13.1,4c-4.2,0-7.9-0.9-11.2-2.8c-3.3-1.9-5.9-4.5-7.7-8
			c-1.9-3.4-2.8-7.4-2.8-12c0-4.5,0.9-8.5,2.7-11.9c1.8-3.4,4.4-6,7.6-7.9c3.3-1.8,7-2.8,11.3-2.8c4.2,0,7.8,0.9,11,2.7
			s5.7,4.3,7.4,7.5c1.7,3.2,2.6,6.8,2.6,10.8C256.2,678.8,256.1,680.3,256,681.8z M246.9,668.8c-1.2-2-2.9-3.5-5-4.6
			c-2.1-1-4.4-1.6-7-1.6c-3.7,0-6.8,1.2-9.4,3.5c-2.6,2.3-4.1,5.6-4.4,9.8h27.7C248.7,673.1,248.1,670.8,246.9,668.8z"/>
		<path class="st2" d="M278.6,658.5c2.4-1.4,5.3-2.1,8.7-2.1v7.5h-1.9c-8.2,0-12.2,4.4-12.2,13.3V701h-7.3v-43.8h7.3v7.1
			C274.4,661.8,276.2,659.9,278.6,658.5z"/>
		<path class="st2" d="M304.5,663.2V689c0,2.1,0.5,3.6,1.4,4.5c0.9,0.9,2.5,1.3,4.7,1.3h5.4v6.2h-6.6c-4.1,0-7.1-0.9-9.1-2.8
			c-2-1.9-3-4.9-3-9.2v-25.8h-5.7v-6h5.7v-11h7.3v11h11.4v6H304.5z"/>
		<path class="st2" d="M325,648.6c-1-1-1.4-2.1-1.4-3.5c0-1.4,0.5-2.6,1.4-3.5c1-1,2.1-1.4,3.5-1.4c1.3,0,2.5,0.5,3.4,1.4
			c0.9,1,1.4,2.1,1.4,3.5c0,1.4-0.5,2.6-1.4,3.5c-0.9,1-2.1,1.4-3.4,1.4C327.1,650.1,325.9,649.6,325,648.6z M332,657.2V701h-7.3
			v-43.8H332z"/>
		<path class="st2" d="M353,657.2h24.9V701h-7.3v-37.8H353V701h-7.3v-37.8h-5.6v-6h5.6v-3.1c0-4.9,1.3-8.5,3.8-10.8
			c2.5-2.3,6.6-3.4,12.2-3.4v6.1c-3.2,0-5.5,0.6-6.8,1.9c-1.3,1.3-2,3.3-2,6.2V657.2z M370.8,648.6c-0.9-1-1.4-2.1-1.4-3.5
			c0-1.4,0.5-2.6,1.4-3.5c0.9-1,2.1-1.4,3.5-1.4c1.4,0,2.5,0.5,3.5,1.4c0.9,1,1.4,2.1,1.4,3.5c0,1.4-0.5,2.6-1.4,3.5
			c-0.9,1-2.1,1.4-3.5,1.4C372.9,650.1,371.8,649.6,370.8,648.6z"/>
		<path class="st2" d="M390.1,667.2c1.8-3.4,4.3-6,7.6-7.9c3.2-1.9,6.9-2.8,11.1-2.8c5.4,0,9.8,1.3,13.3,3.9
			c3.5,2.6,5.8,6.2,6.9,10.9h-7.8c-0.7-2.7-2.2-4.8-4.4-6.3c-2.2-1.5-4.8-2.3-8-2.3c-4.2,0-7.5,1.4-10.1,4.3
			c-2.6,2.9-3.8,6.9-3.8,12.1c0,5.3,1.3,9.4,3.8,12.2c2.6,2.9,5.9,4.3,10.1,4.3c3.2,0,5.9-0.7,8-2.2c2.1-1.5,3.6-3.6,4.4-6.4h7.8
			c-1.2,4.5-3.5,8.1-7,10.8c-3.5,2.7-7.9,4-13.2,4c-4.2,0-7.8-0.9-11.1-2.8c-3.2-1.9-5.7-4.5-7.6-7.9c-1.8-3.4-2.7-7.4-2.7-12
			C387.3,674.5,388.2,670.5,390.1,667.2z"/>
		<path class="st2" d="M438.6,667.2c1.8-3.4,4.3-6,7.5-7.9c3.2-1.9,6.7-2.8,10.6-2.8c3.8,0,7.2,0.8,10,2.5c2.8,1.7,4.9,3.7,6.3,6.2
			v-8h7.4V701H473v-8.2c-1.4,2.6-3.6,4.7-6.4,6.4c-2.9,1.7-6.2,2.5-10,2.5c-3.9,0-7.4-1-10.6-2.9c-3.1-1.9-5.6-4.6-7.4-8.1
			c-1.8-3.5-2.7-7.4-2.7-11.8C435.9,674.5,436.8,670.5,438.6,667.2z M471,670.4c-1.3-2.5-3.1-4.3-5.4-5.6c-2.3-1.3-4.8-2-7.5-2
			s-5.2,0.6-7.4,1.9c-2.2,1.3-4,3.1-5.4,5.6c-1.3,2.5-2,5.3-2,8.6c0,3.4,0.7,6.3,2,8.8c1.3,2.5,3.1,4.4,5.4,5.7c2.2,1.3,4.7,2,7.4,2
			s5.2-0.7,7.5-2c2.3-1.3,4.1-3.2,5.4-5.7c1.3-2.5,2-5.4,2-8.7C473,675.7,472.3,672.8,471,670.4z"/>
		<path class="st2" d="M501.5,663.2V689c0,2.1,0.5,3.6,1.4,4.5c0.9,0.9,2.5,1.3,4.7,1.3h5.4v6.2h-6.6c-4.1,0-7.1-0.9-9.1-2.8
			c-2-1.9-3-4.9-3-9.2v-25.8h-5.7v-6h5.7v-11h7.3v11H513v6H501.5z"/>
		<path class="st2" d="M561.5,681.8h-35c0.3,4.3,1.7,7.7,4.4,10.1c2.7,2.4,6,3.6,9.8,3.6c3.1,0,5.8-0.7,7.9-2.2
			c2.1-1.5,3.6-3.4,4.4-5.9h7.8c-1.2,4.2-3.5,7.6-7,10.3s-7.9,4-13.1,4c-4.2,0-7.9-0.9-11.2-2.8c-3.3-1.9-5.9-4.5-7.7-8
			c-1.9-3.4-2.8-7.4-2.8-12c0-4.5,0.9-8.5,2.7-11.9c1.8-3.4,4.4-6,7.6-7.9c3.3-1.8,7-2.8,11.3-2.8c4.2,0,7.8,0.9,11,2.7
			s5.7,4.3,7.4,7.5c1.7,3.2,2.6,6.8,2.6,10.8C561.7,678.8,561.7,680.3,561.5,681.8z M552.4,668.8c-1.2-2-2.9-3.5-5-4.6
			c-2.1-1-4.4-1.6-7-1.6c-3.7,0-6.8,1.2-9.4,3.5c-2.6,2.3-4.1,5.6-4.4,9.8h27.7C554.2,673.1,553.6,670.8,552.4,668.8z"/>
	</g>
	<g>
		<path class="st3" d="M520.9,26.9V258c0,4,3.3,7.2,7.2,7.2h308.4l12-4.5c4,0,7.2-3.3,7.2-7.2l-2.1-221.8c0-4-3.3-7.2-7.2-7.2
			l-9.9-4.8H528.2C524.2,19.6,520.9,22.9,520.9,26.9L520.9,26.9z"/>
		<path class="st4" d="M858.2,26.9V258c0,4-3.3,7.2-7.2,7.2h-14.4v-44.7l-12.8-79.7l12.8-76.6V19.6H851
			C855,19.6,858.2,22.9,858.2,26.9L858.2,26.9z"/>
		<path class="st5" d="M542.6,220.6V64.3c0-0.7,0.6-1.3,1.3-1.3c5-0.3,9.5-2.3,13-5.3c4.2-3.7,7-9,7.3-15c0-0.7,0.6-1.3,1.3-1.3h248
			c0.7,0,1.3,0.6,1.3,1.3c0.3,5.5,2.7,10.4,6.3,14.1c3.6,3.6,8.6,6,14.1,6.3c0.7,0,1.3,0.6,1.3,1.3v156.3c0,0.7-0.6,1.3-1.3,1.3
			c-5.5,0.3-10.4,2.7-14.1,6.3c-3.6,3.6-6,8.6-6.3,14.1c0,0.7-0.6,1.3-1.3,1.3h-32.3l-22-13.4l-19,13.4H565.6
			c-0.7,0-1.3-0.6-1.3-1.3c-0.3-5.5-2.7-10.4-6.3-14.1c-3.6-3.6-8.6-6-14.1-6.3C543.2,221.9,542.6,221.3,542.6,220.6L542.6,220.6z"
			/>
		<g>
			<circle class="st4" cx="836.6" cy="243.5" r="5.1"/>
			<circle class="st4" cx="836.6" cy="41.3" r="5.1"/>
			
				<ellipse transform="matrix(1.612271e-02 -0.9999 0.9999 1.612271e-02 290.3588 782.148)" class="st4" cx="542.6" cy="243.5" rx="5.1" ry="5.1"/>
			<circle class="st4" cx="542.6" cy="41.3" r="5.1"/>
		</g>
		<g>
			<path class="st6" d="M841.6,243.5c0,2.8-2.3,5.1-5.1,5.1v-10.2C839.4,238.4,841.6,240.7,841.6,243.5z"/>
			<path class="st6" d="M841.6,41.3c0,2.8-2.3,5.1-5.1,5.1V36.2C839.4,36.2,841.6,38.5,841.6,41.3z"/>
		</g>
		<g>
			<g>
				<path class="st7" d="M749.2,218.4l5.8,3.3l5.8,3.3l-8.5,16.8l0.3,11.6l-15.9,54.4c-0.3,1.1-1.9,1.3-2.5,0.3l-11.6-19.7l-1.5-6.9
					c-0.2-0.4-0.7-0.7-1.2-0.7l-6.1,2.2l-23.3-0.2c-1.2,0-1.8-1.4-1-2.3l37.3-39l11.9-8.9L749.2,218.4z"/>
				<path class="st8" d="M726.9,241.7l11.8,0.9c0.6,0,1.1,0.3,1.5,0.6l10.1,8.6c0.7,0.6,1.4,1.1,2.2,1.5l8.3-28.4l-5.8-3.3l-5.8-3.3
					L726.9,241.7z"/>
				<g>
					<path class="st8" d="M713.8,283.2l4.8,0c0.5,0,0.9,0.3,1.2,0.7l2.7,4.6l12.4-21.4c1.4-2.4,0.6-5.6-1.9-7
						c-2.4-1.4-5.5-0.6-6.9,1.9L713.8,283.2z"/>
				</g>
			</g>
			<g>
				<path class="st7" d="M772.3,218.4l-5.8,3.3l-5.8,3.3l8.5,16.8l-0.3,11.6l15.9,54.4c0.3,1.1,1.9,1.3,2.5,0.3l11.6-19.7l1.5-6.9
					c0.2-0.4,0.7-0.7,1.2-0.7l6.1,2.2L831,283c1.2,0,1.8-1.4,1-2.3l-37.3-39l-11.9-8.9L772.3,218.4z"/>
				<path class="st8" d="M794.6,241.7l-11.8,0.9c-0.6,0-1.1,0.3-1.5,0.6l-10.1,8.6c-0.7,0.6-1.4,1.1-2.2,1.5l-8.3-28.4l5.8-3.3
					l5.8-3.3L794.6,241.7z"/>
				<g>
					<path class="st8" d="M807.6,283.2l-4.8,0c-0.5,0-0.9,0.3-1.2,0.7l-2.7,4.6l-12.4-21.4c-1.4-2.4-0.6-5.6,1.9-7
						c2.4-1.4,5.5-0.6,6.9,1.9L807.6,283.2z"/>
				</g>
			</g>
			<path class="st9" d="M762.8,141.6l13.2,11.3c0.5,0.4,1.1,0.7,1.7,0.7l12,1l3.9,1.6c1.5,0.1,2.6,1.3,2.8,2.8l1.1,16.4
				c0.1,0.6,0.3,1.2,0.7,1.7l9.8,12.9c1,1.1,1,2.8,0,3.9l-11,12.3c-0.4,0.5-0.7,1.1-0.7,1.7l-0.2,15.8c-0.1,1.5-1.3,2.6-2.8,2.8
				l-16.2,2.2c-0.6,0.1-1.2,0.3-1.7,0.7l-12.2,8.9c-1.1,1-2.8,1-3.9,0l-12.7-9.4c-0.5-0.4-1.1-0.7-1.7-0.7l-17.2-0.9
				c-1.5-0.1-2.6-1.3-2.8-2.8l-1.4-3.4l-1-12.3c-0.1-0.6-0.3-1.2-0.7-1.7l-11.3-13.2c-1-1.1-1-2.8,0-3.9l11.3-13.2
				c0.4-0.5,0.7-1.1,0.7-1.7l1.4-17.3c0.1-1.5,1.3-2.6,2.8-2.8l17.3-1.4c0.6-0.1,1.2-0.3,1.7-0.7l13.2-11.3
				C760,140.6,761.7,140.6,762.8,141.6L762.8,141.6z"/>
			<path class="st7" d="M811.1,193.8L799.8,207c-0.4,0.5-0.7,1.1-0.7,1.7l-1.4,17.3c-0.1,1.5-1.3,2.6-2.7,2.7l-17.3,1.4
				c-0.6,0.1-1.2,0.3-1.7,0.7l-13.2,11.3c-1.1,1-2.8,1-3.9,0l-13.2-11.3c-0.5-0.4-1.1-0.7-1.7-0.7l-17.3-1.4
				c-1.5-0.1-2.6-1.3-2.7-2.7l-0.4-5c6.1,2.7,12.9,4.1,20,4.1c27.8,0,50.4-22.6,50.4-50.4c0-7.2-1.5-14.1-4.3-20.3l5.3,0.4
				c1.5,0.1,2.6,1.3,2.7,2.8l1.4,17.3c0,0.6,0.3,1.2,0.7,1.7l11.3,13.2C812,191,812,192.7,811.1,193.8z"/>
			<circle class="st5" cx="760.7" cy="192" r="20.2"/>
		</g>
		<path class="st10" d="M580.2,107V80.2c0-0.7,0.6-1.4,1.4-1.4h109.7c0.7,0,1.4,0.6,1.4,1.4V107c0,0.7-0.6,1.4-1.4,1.4H581.5
			C580.8,108.3,580.2,107.7,580.2,107z"/>
		<g>
			<g>
				<path class="st11" d="M589.4,221.3c-1.9,0-3.9-0.4-5.7-1.1c-3.8-1.6-6.7-4.7-8-8.7c-1.2-4-0.6-8.2,1.7-11.7
					c4.8-7.2,11.8-12.5,20-15.1c-0.1-0.5-0.3-1-0.4-1.6c-0.7-2.5-2.6-4.3-5.1-5c-2.5-0.7-5-0.2-7,1.5l-1.3,1.1
					c-2.1,1.8-5.3,1.6-7.2-0.5c-1.8-2.1-1.6-5.3,0.5-7.2l1.3-1.1c4.5-3.9,10.7-5.3,16.5-3.6c5.8,1.7,10.2,6.1,12,11.9
					c0.2,0.6,0.4,1.3,0.5,1.9l9.4-2.4c3.6-0.9,7.5,0.7,9.3,3.9l4,6.8l7.8-13c1.3-2.2,3.6-3.6,6.2-3.6c2.6,0,4.9,1.2,6.3,3.4l5.2,8
					c1.9,3,4.9,5,8.5,5.7c3.5,0.7,7-0.2,9.9-2.3l2.5-1.8c2.3-1.7,5.5-1.2,7.1,1.1s1.2,5.5-1.1,7.1l-2.5,1.8
					c-5.2,3.8-11.5,5.2-17.8,4.1c-6.3-1.2-11.7-4.8-15.2-10.1l-2.7-4.2l-6.2,10.4c-1.7,2.9-4.7,4.6-8,4.6c0,0,0,0,0,0
					c-3.3,0-6.3-1.7-8-4.6l-4-6.9l-9.3,2.4c0,7.6-2.1,15.2-6.2,21.8C599.4,218.7,594.5,221.3,589.4,221.3L589.4,221.3z M598.2,195.2
					c-5,2.1-9.2,5.7-12.3,10.2c-0.8,1.2-0.6,2.4-0.4,3c0.2,0.6,0.7,1.7,2.1,2.2c2.3,0.9,4.9,0.1,6.1-2
					C596.2,204.6,597.7,200,598.2,195.2L598.2,195.2z"/>
			</g>
			<g>
				<path class="st11" d="M765.9,84h-53c-2.8,0-5.1-2.3-5.1-5.1c0-2.8,2.3-5.1,5.1-5.1h53c2.8,0,5.1,2.3,5.1,5.1
					C771,81.7,768.7,84,765.9,84z"/>
			</g>
			<g>
				<path class="st11" d="M798,113.6h-85.1c-2.8,0-5.1-2.3-5.1-5.1c0-2.8,2.3-5.1,5.1-5.1H798c2.8,0,5.1,2.3,5.1,5.1
					C803.1,111.3,800.8,113.6,798,113.6z"/>
			</g>
			<g>
				<path class="st11" d="M692.6,143.3H580.2c-2.8,0-5.1-2.3-5.1-5.1s2.3-5.1,5.1-5.1h112.5c2.8,0,5.1,2.3,5.1,5.1
					S695.4,143.3,692.6,143.3z"/>
			</g>
		</g>
	</g>
</g>
</svg>
