<?xml version="1.0" encoding="utf-8"?>
<!-- Generator: Adobe Illustrator 26.0.1, SVG Export Plug-In . SVG Version: 6.00 Build 0)  -->
<svg version="1.1" id="Layer_1" xmlns="http://www.w3.org/2000/svg" xmlns:xlink="http://www.w3.org/1999/xlink" x="0px" y="0px"
	 viewBox="0 0 783.53 898.18" style="enable-background:new 0 0 783.53 898.18;" xml:space="preserve">
<style type="text/css">
	.st0{fill:#FC7186;}
	.st1{opacity:0.7;fill:#E55A75;}
	.st2{fill:#FFFFFF;}
	.st3{fill:#6289CC;}
	.st4{fill:#4A6BB2;}
	.st5{fill:#EBF0F4;}
	.st6{fill:#3C58A0;}
	.st7{fill:#4ABA9F;}
	.st8{fill:#3FAF9A;}
	.st9{fill:#58CCB0;}
	.st10{fill:#FFE077;}
	.st11{fill:#D8E3EA;}
</style>
<g>
	<polygon class="st0" points="385.37,889.89 483.34,720.2 287.4,720.2 	"/>
	<path class="st0" d="M775.06,69.26v656.98c0,19.67-15.94,35.58-35.58,35.58H44.05c-19.67,0-35.58-15.91-35.58-35.58V69.26
		c0-19.64,15.91-35.58,35.58-35.58h695.43C759.12,33.69,775.06,49.63,775.06,69.26z"/>
	<path class="st1" d="M775.06,502.61v223.63c0,19.67-15.94,35.58-35.58,35.58H44.05c-19.67,0-35.58-15.91-35.58-35.58V268.34
		C165.15,503.87,429.92,748.79,775.06,502.61z"/>
	<g>
		<path class="st2" d="M114.66,211.54h-11.13V198.1c0-5.19-1.62-7.79-4.85-7.79c-1.06,0-2.06,0.45-2.98,1.35
			c-0.93,0.9-1.8,2-2.62,3.3c-0.82,1.3-1.75,2.61-2.78,3.94c-1.03,1.33-2.45,2.44-4.25,3.34c-1.8,0.9-3.92,1.35-6.36,1.35
			c-2.17,0-4.24-0.32-6.2-0.95v-9.14c1.43,0.42,2.97,0.63,4.61,0.63c1.01,0,1.97-0.28,2.9-0.83c0.93-0.56,1.62-1.1,2.07-1.63
			c0.45-0.53,1.13-1.47,2.03-2.82c0.9-1.35,1.51-2.24,1.83-2.66c-0.64-3.55-2.08-6.23-4.33-8.03c-2.25-1.8-5.13-2.7-8.62-2.7v-8.35
			h-4.61v-8.9h52.15v8.9h-6.84V211.54z M96.22,180.93c3.39,0,5.83,1.03,7.31,3.1V167.1H84.21c6.15,2.65,10.04,7.26,11.69,13.83
			H96.22z"/>
		<path class="st2" d="M142.88,167.1h-6.76v44.44h-11.13v-39.51c0-2.07-0.28-3.4-0.83-4.01c-0.56-0.61-1.68-0.91-3.38-0.91h-2.54
			v-8.9h3.97c1.75,0,3.07,0.9,3.98,2.7c-0.53-2.86-0.79-5.41-0.79-7.63v-1.43h10.73v6.36h6.76V167.1z"/>
		<path class="st2" d="M205.05,190.71c0,5.62-1.97,10.63-5.92,15.03c-3.95,4.4-9.13,6.6-15.54,6.6c-4.29,0-7.98-1.24-11.05-3.74
			c-3.07-2.49-4.61-5.83-4.61-10.02V167.1h-10.33v44.44h-11.13V167.1h-6.76v-8.9h6.76v-9.7c0-5.62,1.82-9.8,5.45-12.56
			c3.63-2.76,8.6-4.13,14.91-4.13c7.05,0,14.81,1.09,23.29,3.26v8.11c-6.36-1.7-13.3-2.62-20.83-2.78c0.42,1.86,1.19,3.25,2.31,4.17
			c1.11,0.93,2.78,1.39,5.01,1.39c1.11,0,3.26-0.11,6.44-0.32c3.18-0.21,5.7-0.32,7.55-0.32c4.03,0,7.05,1.01,9.06,3.02
			c2.01,2.02,3.02,4.51,3.02,7.47c0,0.53-0.05,1.33-0.16,2.38h6.76v8.9h-30.21v31.48c0,1.33,0.42,2.36,1.27,3.1
			c0.85,0.74,1.93,1.11,3.26,1.11c3.13,0,5.63-1.26,7.51-3.78c1.88-2.52,2.82-5.29,2.82-8.31c0-4.29-2.25-6.44-6.76-6.44
			c-1.17,0-2.28,0.11-3.34,0.32v-9.7c1.64-0.37,3.31-0.56,5.01-0.56c5.14,0,9.13,1.48,11.96,4.45
			C203.63,181.76,205.05,185.73,205.05,190.71z M157.67,148.42v9.78h35.06c0.05-0.37,0.08-0.82,0.08-1.35
			c0-2.12-1.49-3.18-4.45-3.18c-1.64,0-3.85,0.11-6.64,0.32c-2.78,0.21-4.97,0.32-6.56,0.32c-4.51-0.05-7.92-1.2-10.26-3.46
			c-2.33-2.25-3.76-5.18-4.29-8.78C158.65,143.33,157.67,145.45,157.67,148.42z"/>
		<path class="st2" d="M175.55,149.93l13.59-13.36h10.89v0.32l-13.51,13.36h-10.97V149.93z"/>
		<path class="st2" d="M230.72,167.1h-6.76v44.44h-11.13V167.1h-6.76v-8.9h6.76v-3.34c0-5.62,1.82-9.8,5.45-12.56
			c3.63-2.76,8.6-4.13,14.91-4.13c3.76,0,7.67,0.44,11.73,1.31c4.05,0.87,7.17,1.79,9.34,2.74v8.43c-2.33-0.85-5.45-1.66-9.34-2.43
			c-3.9-0.77-7.51-1.15-10.85-1.15c-6.68,0-10.02,2.57-10.02,7.71v3.42h6.68V167.1z"/>
		<path class="st2" d="M292.25,188.72c0,4.98-1.34,8.88-4.01,11.69c-2.68,2.81-6.37,4.21-11.09,4.21c-0.74,0-1.3-0.03-1.67-0.08
			v-10.02h0.79c3.5,0,5.25-1.93,5.25-5.8c0-4.82-3.61-7.23-10.81-7.23v30.05h-11.13l-27.67-11.29l0.08-0.08v-10.49l11.45-7.71
			l-11.21-6.6v-8.27h-4.69v-8.9h69v8.9h-58.03l15.5,10.18v9.46l-10.41,7.23l15.98,6.92v-29.02h11.13c5.93,0,11.01,1.45,15.22,4.33
			C290.15,179.09,292.25,183.27,292.25,188.72z"/>
		<path class="st2" d="M318.33,212.09c-0.85,0.16-1.86,0.24-3.02,0.24c-2.92,0-5.46-0.62-7.63-1.87c-2.17-1.25-3.91-2.95-5.21-5.13
			c-1.3-2.17-2.27-4.58-2.9-7.23c-0.64-2.65-0.98-5.51-1.03-8.59c0-11.08,1.59-18.55,4.77-22.42h-9.94v-8.9h27.74v8.9h-2.62
			c-1.96,0-3.59,0.58-4.89,1.75c-1.3,1.17-2.24,2.89-2.82,5.17c-0.58,2.28-0.98,4.59-1.19,6.92c-0.21,2.33-0.32,5.19-0.32,8.59
			c0,8.69,2.41,13.04,7.23,13.04c0.85,0,1.46-0.03,1.83-0.08V212.09z"/>
		<path class="st2" d="M378.82,190.31c0,4.98-1.34,8.88-4.01,11.69c-2.68,2.81-6.37,4.21-11.09,4.21c-0.74,0-1.3-0.03-1.67-0.08
			v-10.02h0.8c3.5,0,5.25-1.93,5.25-5.8c0-2.59-0.94-4.74-2.82-6.44c-1.88-1.7-4.55-2.65-7.99-2.86v30.53h-10.73v-0.08l-0.08,0.08
			l-24.01-16.62v-10.65c4.34-3.5,8.35-6.32,12-8.47c3.66-2.15,7.68-3.64,12.08-4.49v-4.21h-28.62v-8.9h65.19v8.9h-25.84v4.21
			c5.67,0.16,10.68,1.95,15.02,5.36C376.65,180.1,378.82,184.64,378.82,190.31z M346.55,199.93v-18.6
			c-4.61,1.54-9.35,4.32-14.23,8.35L346.55,199.93z"/>
		<path class="st2" d="M423.82,190.71c0,5.62-1.98,10.63-5.92,15.03c-3.95,4.4-9.13,6.6-15.54,6.6c-4.29,0-7.98-1.24-11.05-3.74
			c-3.07-2.49-4.61-5.83-4.61-10.02V167.1h-6.76v-8.9h31.72c0-0.26,0.01-0.66,0.04-1.19c0.03-0.53,0.04-0.85,0.04-0.95
			c0-1.64-0.28-2.86-0.83-3.66c-0.56-0.79-1.66-1.19-3.3-1.19c-1.17,0-3.47,0.25-6.92,0.76c-3.45,0.5-6.02,0.76-7.71,0.76
			c-3.55,0-6.31-0.58-8.27-1.75v-8.51c1.64,0.9,4.05,1.35,7.23,1.35c1.64,0,4.33-0.32,8.07-0.95c3.74-0.64,6.69-0.95,8.86-0.95
			c4.19,0,7.39,1.1,9.62,3.3c2.23,2.2,3.34,5.29,3.34,9.26c0,1.27-0.11,2.52-0.32,3.74h6.52v8.9h-30.21v31.48
			c0,1.33,0.42,2.36,1.27,3.1c0.85,0.74,1.93,1.11,3.26,1.11c3.13,0,5.63-1.26,7.51-3.78c1.88-2.52,2.82-5.29,2.82-8.31
			c0-4.29-2.25-6.44-6.76-6.44c-1.17,0-2.28,0.11-3.34,0.32v-9.7c1.64-0.37,3.31-0.56,5.01-0.56c5.14,0,9.13,1.48,11.96,4.45
			C422.4,181.76,423.82,185.73,423.82,190.71z"/>
		<path class="st2" d="M138.11,306.98h-11.13c0-6.73-3.23-10.1-9.7-10.1h-3.34c-4.19,3.76-9.41,5.64-15.66,5.64
			c-7.21,0-13.08-2.12-17.61-6.36c-4.53-4.24-6.8-10.6-6.8-19.08c0-2.23,0.16-4.56,0.48-7h10.73c-0.37,2.44-0.56,4.82-0.56,7.16
			c0,5.25,1.23,9.18,3.7,11.81c2.46,2.62,5.71,3.93,9.74,3.93c3.76,0,6.61-1.1,8.55-3.3c1.93-2.2,2.9-4.94,2.9-8.23
			c0-2.01-0.37-3.66-1.11-4.93c-0.74-1.27-1.86-1.91-3.34-1.91c-1.27,0-2.27,0.46-2.98,1.39c-0.72,0.93-1.07,2.13-1.07,3.62
			c0,1.43,0.29,2.97,0.87,4.61h-9.54c-0.85-1.8-1.27-3.84-1.27-6.12c0-3.82,1.23-6.84,3.7-9.06c2.46-2.23,5.74-3.34,9.82-3.34
			c4.82,0,8.71,1.51,11.65,4.53c2.94,3.02,4.41,6.84,4.41,11.45c0,2.28-0.32,4.37-0.95,6.28c3.34,0.21,5.8,1.48,7.39,3.82v-29.25
			H69.35v-8.91h75.52v8.91h-6.76V306.98z"/>
		<path class="st2" d="M192.01,287.19c0,5.83-1.86,10.72-5.56,14.67c-3.71,3.95-8.82,5.92-15.34,5.92c-7.42,0-13.38-2.56-17.89-7.67
			c-4.51-5.12-6.76-12.12-6.76-21.03c0-1.48,0.03-2.65,0.08-3.5h10.97c-0.05,0.74-0.08,1.75-0.08,3.02c0,6.25,1.21,11.09,3.62,14.51
			c2.41,3.42,5.76,5.13,10.06,5.13c3.13,0,5.6-0.8,7.43-2.39c1.83-1.59,2.87-3.87,3.14-6.84c-1.43,0.32-2.89,0.48-4.37,0.48
			c-4.4,0-7.95-1.28-10.65-3.86c-2.7-2.57-4.05-6-4.05-10.29c0-5.09,1.64-9.35,4.93-12.8h-25.84v-8.91h73.69v8.91h-25.36
			c3.44,4.66,10.2,8.35,20.27,11.05c-2.7,6.63-4.05,13.86-4.05,21.7c0,3.87,0.5,7.76,1.51,11.68h-10.73
			c-0.95-3.82-1.43-7.66-1.43-11.53c0-6.25,0.87-11.71,2.62-16.38c-9.65-3.5-15.9-8.43-18.76-14.79c-3.55,3.02-5.33,6.41-5.33,10.17
			c0,3.98,2.33,5.96,7,5.96c3.18,0,6.33-0.72,9.46-2.15C191.53,281.04,192.01,284.01,192.01,287.19z"/>
		<path class="st2" d="M172.77,250.14l13.59-13.35h10.89v0.32l-13.51,13.35h-10.97V250.14z"/>
		<path class="st2" d="M256.16,306.98h-11.13c-0.32-2.23-0.77-4.48-1.35-6.76c-0.58-2.28-1.36-4.66-2.34-7.15
			c-0.98-2.49-2.24-4.52-3.78-6.08c-1.54-1.56-3.23-2.35-5.09-2.35c-1.8,0-3.15,0.58-4.05,1.75c-0.9,1.17-1.35,2.7-1.35,4.61
			c0,1.48,0.13,2.94,0.4,4.37h-10.81c-0.48-1.96-0.72-3.79-0.72-5.49c0-4.19,1.3-7.74,3.89-10.65c2.6-2.91,6.2-4.37,10.81-4.37
			c6.47,0,11.26,3.15,14.39,9.46v-21.78H212.2v-8.91h50v8.91h-6.04V306.98z"/>
		<path class="st2" d="M267.65,274.78c-2.57-2.39-3.85-5.46-3.85-9.22c0-3.76,1.28-6.82,3.85-9.18c2.57-2.36,5.9-3.54,9.98-3.54
			c4.08,0,7.39,1.18,9.94,3.54c2.54,2.36,3.82,5.42,3.82,9.18c0,3.76-1.27,6.84-3.82,9.22c-2.54,2.39-5.86,3.58-9.94,3.58
			C273.55,278.36,270.22,277.17,267.65,274.78z M267.65,304.2c-2.57-2.39-3.85-5.46-3.85-9.22c0-3.76,1.28-6.82,3.85-9.18
			c2.57-2.36,5.9-3.54,9.98-3.54c4.08,0,7.39,1.18,9.94,3.54c2.54,2.36,3.82,5.42,3.82,9.18c0,3.76-1.27,6.84-3.82,9.22
			c-2.54,2.38-5.86,3.58-9.94,3.58C273.55,307.78,270.22,306.58,267.65,304.2z M281.05,269.3c0.79-0.95,1.19-2.2,1.19-3.74
			c0-1.54-0.4-2.79-1.19-3.78c-0.8-0.98-1.94-1.47-3.42-1.47c-1.48,0-2.64,0.49-3.46,1.47c-0.82,0.98-1.23,2.24-1.23,3.78
			c0,1.54,0.41,2.78,1.23,3.74c0.82,0.95,1.97,1.43,3.46,1.43C279.11,270.73,280.25,270.25,281.05,269.3z M281.05,298.71
			c0.79-0.95,1.19-2.2,1.19-3.74c0-1.54-0.4-2.79-1.19-3.78c-0.8-0.98-1.94-1.47-3.42-1.47c-1.48,0-2.64,0.49-3.46,1.47
			c-0.82,0.98-1.23,2.24-1.23,3.78c0,1.54,0.41,2.78,1.23,3.74c0.82,0.95,1.97,1.43,3.46,1.43
			C279.11,300.14,280.25,299.67,281.05,298.71z"/>
	</g>
	<g>
		<path class="st2" d="M94.84,448.16c-0.46,0.06-1.22,0.09-2.3,0.09c-5.4,0-9.38-2.12-11.93-6.35c-2.56-4.23-3.89-9.84-4.01-16.83
			c0-3.98,0.3-7.73,0.9-11.25c0.6-3.52,1.58-6.93,2.94-10.23c1.36-3.29,3.37-5.91,6.01-7.84c2.64-1.93,5.81-2.9,9.5-2.9h1.28v5.71
			h-1.19c-2.44,0-4.56,0.78-6.35,2.34c-1.79,1.56-3.14,3.68-4.05,6.35c-0.91,2.67-1.56,5.47-1.96,8.4c-0.4,2.93-0.6,6.07-0.6,9.42
			c0,11.54,3.38,17.3,10.14,17.3h1.62V448.16z"/>
		<path class="st2" d="M145.89,447.56h-6.56V410.4c0-3.47-0.82-6.45-2.47-8.95c-1.65-2.5-4.43-3.75-8.35-3.75
			c-2.9,0-5.2,0.88-6.9,2.64c-1.7,1.76-2.56,4.12-2.56,7.08c0,3.18,0.81,5.6,2.43,7.24c1.62,1.65,3.82,2.47,6.61,2.47
			c1.19,0,2.39-0.09,3.58-0.26v5.88c-1.31,0.23-2.67,0.34-4.09,0.34c-5.45,0-9.4-1.96-11.85-5.88c-2.39,3.92-6.28,5.88-11.68,5.88
			c-1.59,0-3.18-0.17-4.77-0.51v-5.8c1.31,0.23,2.7,0.34,4.18,0.34c2.9,0,5.13-0.82,6.69-2.47c1.56-1.65,2.34-4.06,2.34-7.24
			c0-2.9-0.88-5.09-2.64-6.56c-1.76-1.48-4.21-2.22-7.33-2.22l-8.69-0.09v-5.71h9.03c5.8,0,10.03,1.9,12.7,5.71
			c2.73-4.37,6.9-6.56,12.53-6.56c5,0,8.75,1.62,11.25,4.86v-11.17h6.56v7.16h9.63v5.71h-9.63V447.56z"/>
		<path class="st2" d="M199.34,447.56h-6.48v-0.17l-0.09,0.17l-36.23-20.71v-6.14h6.31c4.55-0.06,8.13-1.39,10.74-4.01
			c2.61-2.61,3.92-6.05,3.92-10.31v-0.43c-2.16,4.26-5.65,6.39-10.48,6.39c-3.98,0-7.12-1.22-9.42-3.67
			c-2.3-2.44-3.45-5.57-3.45-9.38c0-2.39,0.4-4.55,1.19-6.48h6.39c-0.63,2.27-0.94,4.32-0.94,6.14c0,2.44,0.64,4.33,1.92,5.67
			c1.28,1.34,3.03,2,5.24,2c2.33,0,4.18-0.81,5.54-2.43c1.36-1.62,2.04-3.82,2.04-6.61c0-1.76-0.11-3.35-0.34-4.77h6.22
			c1.48,5.63,2.22,10.14,2.22,13.55c0,5-1.46,9.28-4.39,12.83c-2.93,3.55-6.92,5.72-11.98,6.52l25.57,14.75v-54.81h6.48v7.16h9.63
			v5.71h-9.63V447.56z"/>
		<path class="st2" d="M231.3,398.55h-9.63v49.01h-6.56v-42.11c0-2.22-0.4-3.92-1.19-5.11c-0.8-1.19-2.22-1.79-4.26-1.79h-4.18
			v-5.71h4.43c2.73,0,4.72,1.22,5.97,3.67c-0.46-2.61-0.68-5.37-0.68-8.27v-2.56h6.48v7.16h9.63V398.55z"/>
		<path class="st2" d="M276.05,398.55h-9.63v49.01h-6.48l-26.68-20.37v-7.42c3.75-3.47,7.98-6.56,12.7-9.29
			c4.72-2.73,9.38-4.66,13.98-5.8v-6.14h-32.05v-5.71h48.16V398.55z M240.76,441.81c0.91,0.88,1.36,1.95,1.36,3.2
			c0,1.25-0.44,2.3-1.32,3.15c-0.88,0.85-1.97,1.28-3.28,1.28c-1.31,0-2.37-0.43-3.2-1.28c-0.82-0.85-1.24-1.9-1.24-3.15
			c0-1.25,0.43-2.32,1.28-3.2c0.85-0.88,1.9-1.32,3.15-1.32C238.77,440.49,239.85,440.93,240.76,441.81z M259.94,439.89v-28.98
			c-7.22,2.33-14.21,6.51-20.97,12.53L259.94,439.89z"/>
		<path class="st2" d="M343.64,398.55h-9.63v49.01h-6.65l-28.72-14.49v-7.42l15.34-11.34l-15.26-10.83v-4.94h-6.82v-5.71h51.74
			V398.55z M319.6,410.83v6.82l-14.58,11.25l22.33,11.68v-42.02h-24.29L319.6,410.83z"/>
		<path class="st2" d="M365.97,398.55h-9.63v49.01h-6.56v-42.11c0-2.22-0.4-3.92-1.19-5.11c-0.8-1.19-2.22-1.79-4.26-1.79h-4.18
			v-5.71h4.43c2.73,0,4.72,1.22,5.97,3.67c-0.46-2.61-0.68-5.37-0.68-8.27v-2.56h6.48v7.16h9.63V398.55z"/>
		<path class="st2" d="M362.56,392.84h53.95v5.71h-53.95V392.84z M376.62,420.54c0-4.6,1.6-8.42,4.82-11.46
			c3.21-3.04,7.46-4.56,12.74-4.56c8.58,0,12.87,4.21,12.87,12.61v32.99h-6.65v-0.77c0-2.61-1.11-3.92-3.32-3.92
			c-0.97,0-3.11,0.46-6.43,1.36c-3.32,0.91-6.27,1.36-8.82,1.36c-3.87,0-6.99-1.09-9.38-3.28c-2.39-2.19-3.58-5.3-3.58-9.33
			c0-1.71,0.17-3.24,0.51-4.6h6.05c-0.28,1.42-0.43,2.9-0.43,4.43c0,4.6,2.41,6.9,7.24,6.9c1.82,0,4.26-0.41,7.33-1.24
			c3.07-0.82,5.37-1.24,6.9-1.24s2.84,0.54,3.92,1.62v-24.29c0-4.55-2.1-6.82-6.31-6.82c-3.13,0-5.72,0.95-7.8,2.85
			c-2.08,1.91-3.11,4.36-3.11,7.37c0,4.66,2.33,6.99,6.99,6.99c1.19,0,2.36-0.06,3.49-0.17v5.54c-1.59,0.23-3.01,0.34-4.26,0.34
			c-3.92,0-7.03-1.15-9.33-3.45C377.77,427.49,376.62,424.41,376.62,420.54z"/>
		<path class="st2" d="M439.02,398.55h-9.63v49.01h-6.56v-42.11c0-2.22-0.4-3.92-1.19-5.11c-0.8-1.19-2.22-1.79-4.26-1.79h-4.18
			v-5.71h4.43c2.73,0,4.72,1.22,5.97,3.67c-0.46-2.61-0.68-5.37-0.68-8.27v-2.56h6.48v7.16h9.63V398.55z"/>
		<path class="st2" d="M112.57,549.85h-6.65v-18.33c0-2.22-0.48-4.05-1.45-5.5c-0.97-1.45-2.44-2.17-4.43-2.17
			c-1.36,0-2.63,0.48-3.79,1.45c-1.16,0.97-2.23,2.14-3.2,3.54c-0.97,1.39-1.99,2.8-3.07,4.22c-1.08,1.42-2.44,2.61-4.09,3.58
			c-1.65,0.97-3.52,1.45-5.63,1.45c-1.87,0-3.84-0.4-5.88-1.19v-5.8c1.88,0.57,3.52,0.85,4.94,0.85c1.59,0,2.95-0.45,4.09-1.36
			c1.14-0.91,2.41-2.39,3.84-4.43c1.42-2.05,2.44-3.44,3.07-4.18c-0.63-4.83-2.29-8.68-4.99-11.55c-2.7-2.87-6.21-4.3-10.53-4.3
			v-5.28h-5.45v-5.71h52.85v5.71h-9.63V549.85z M98.93,517.8c3.24,0,5.57,1.16,6.99,3.49v-20.46H81.54
			c3.86,1.25,7.02,3.45,9.46,6.61c2.44,3.15,4.03,6.75,4.77,10.78C96.8,517.94,97.85,517.8,98.93,517.8z"/>
		<path class="st2" d="M144.53,500.84h-9.63v49.01h-6.56v-42.11c0-2.22-0.4-3.92-1.19-5.11c-0.8-1.19-2.22-1.79-4.26-1.79h-4.18
			v-5.71h4.43c2.73,0,4.72,1.22,5.97,3.67c-0.46-2.61-0.68-5.37-0.68-8.27v-2.56h6.48v7.16h9.63V500.84z"/>
		<path class="st2" d="M157.32,549.85h-6.56v-49.01h-9.63v-5.71h9.63v-6.9c0-5.63,1.5-9.94,4.52-12.96
			c3.01-3.01,7.95-4.52,14.83-4.52c7.05,0,14.38,1.02,21.99,3.07v5.54c-6.88-1.99-14.12-2.98-21.74-2.98c-0.8,0-1.39,0.03-1.79,0.09
			c0.74,4.77,3.58,7.16,8.52,7.16c1.59,0,4.52-0.26,8.78-0.77c4.26-0.51,7.27-0.77,9.03-0.77c3.75,0,6.53,1.01,8.35,3.03
			c1.82,2.02,2.73,4.47,2.73,7.37c0,0.51-0.06,1.39-0.17,2.64h7.42v5.71h-33.5v35.37c0,2.33,0.61,4.13,1.83,5.41
			c1.22,1.28,2.86,1.92,4.9,1.92c3.92,0,7.16-1.66,9.72-4.99c2.56-3.32,3.84-7.2,3.84-11.64c0-6.08-3.35-9.12-10.06-9.12
			c-1.14,0-2.3,0.09-3.49,0.26v-5.88c1.31-0.23,2.73-0.34,4.26-0.34c5,0,8.89,1.36,11.68,4.09c2.78,2.73,4.18,6.39,4.18,11
			c0,6.02-1.82,11.27-5.45,15.73c-3.64,4.46-8.52,6.69-14.66,6.69c-3.87,0-7.05-1.16-9.55-3.49c-2.5-2.33-3.75-5.54-3.75-9.63
			v-35.37h-15.85V549.85z M157.32,488.22v6.9h42.45c0.06-0.51,0.09-1.19,0.09-2.05c0-3.64-1.82-5.45-5.45-5.45
			c-1.59,0-4.4,0.27-8.44,0.81c-4.04,0.54-7.07,0.81-9.12,0.81c-4.43-0.06-7.79-1.18-10.06-3.37c-2.27-2.19-3.61-4.93-4.01-8.23
			C159.13,479.3,157.32,482.82,157.32,488.22z"/>
		<path class="st2" d="M180.33,484.9l12.02-12.79h6.31v0.34l-11.85,12.79h-6.48V484.9z"/>
		<path class="st2" d="M235.65,500.84h-9.63v49.01h-6.56v-49.01h-9.63v-5.71h9.63v-2.81c0-11.65,6.45-17.47,19.35-17.47
			c6.7,0,14.21,1.25,22.5,3.75v5.63c-7.62-2.44-15.03-3.67-22.25-3.67c-4.89,0-8.28,0.99-10.19,2.98c-1.9,1.99-2.85,4.92-2.85,8.78
			v2.81h9.63V500.84z"/>
		<path class="st2" d="M297.44,525.81c0,5-1.38,8.86-4.13,11.59c-2.76,2.73-6.21,4.09-10.36,4.09c-0.74,0-1.31-0.03-1.7-0.09v-6.14
			h1.11c5.68,0,8.52-3.15,8.52-9.46c0-4.03-1.55-7.23-4.65-9.59c-3.1-2.36-7.06-3.54-11.89-3.54v37.16h-6.65l-28.72-14.49v-7.42
			l15.34-11.34l-15.26-10.83v-4.94h-6.82v-5.71h70.49v5.71H243.4l16.54,12.27v6.82l-14.58,11.25l22.33,11.68V506.8h6.65
			c6.7,0,12.23,1.76,16.58,5.28C295.27,515.61,297.44,520.19,297.44,525.81z"/>
		<path class="st2" d="M324.8,550.44c-0.46,0.06-1.25,0.09-2.39,0.09c-5.45,0-9.43-2.13-11.93-6.39c-2.5-4.26-3.81-9.86-3.92-16.79
			c0-12.9,2.61-21.74,7.84-26.51h-15.09v-5.71h27.87v5.71h-1.28c-2.44,0-4.53,0.77-6.27,2.3c-1.73,1.53-3.07,3.62-4.01,6.26
			c-0.94,2.64-1.61,5.44-2,8.4c-0.4,2.95-0.6,6.14-0.6,9.55c0,11.54,3.38,17.3,10.14,17.3h1.62V550.44z"/>
		<path class="st2" d="M385.4,526.15c0,5-1.36,8.86-4.09,11.59c-2.73,2.73-6.2,4.09-10.4,4.09c-0.74,0-1.28-0.03-1.62-0.09v-6.14
			h1.02c5.74,0,8.61-3.15,8.61-9.46c0-4.09-1.56-7.37-4.69-9.84c-3.13-2.47-7.1-3.71-11.93-3.71v37.25h-6.48l-26.68-20.37v-7.42
			c9.49-8.69,18.38-13.78,26.68-15.26v-5.97h-32.05v-5.71h66.91v5.71H362.3v5.88c6.65,0.06,12.16,1.89,16.54,5.5
			C383.22,515.83,385.4,520.47,385.4,526.15z M355.83,542.26v-29.32c-6.42,1.59-13.44,5.88-21.05,12.87L355.83,542.26z"/>
		<path class="st2" d="M430.32,526.92c0,6.02-1.82,11.27-5.45,15.73c-3.64,4.46-8.52,6.69-14.66,6.69c-3.87,0-7.05-1.16-9.55-3.49
			c-2.5-2.33-3.75-5.54-3.75-9.63v-35.37h-9.63v-5.71h35.97c0.28-1.42,0.43-2.84,0.43-4.26c0-3.86-1.79-5.8-5.37-5.8
			c-1.53,0-3.82,0.34-6.86,1.02c-3.04,0.68-5.61,1.02-7.71,1.02c-3.58,0-6.45-0.57-8.61-1.7v-5.28c2.44,0.85,5.23,1.28,8.35,1.28
			c1.7,0,4.18-0.35,7.42-1.07c3.24-0.71,5.77-1.07,7.59-1.07c3.86,0,6.72,1.02,8.57,3.07c1.85,2.04,2.77,4.66,2.77,7.84
			c0,1.48-0.14,3.13-0.43,4.94h7.59v5.71h-33.5v35.37c0,2.33,0.61,4.13,1.83,5.41c1.22,1.28,2.86,1.92,4.9,1.92
			c3.92,0,7.16-1.66,9.72-4.99c2.56-3.32,3.84-7.2,3.84-11.64c0-6.08-3.35-9.12-10.06-9.12c-1.14,0-2.3,0.09-3.49,0.26v-5.88
			c1.31-0.23,2.73-0.34,4.26-0.34c5,0,8.89,1.36,11.68,4.09C428.93,518.65,430.32,522.32,430.32,526.92z"/>
		<path class="st2" d="M522.21,549.85h-6.56v-1.36c0-8.13-3.13-12.19-9.38-12.19h-4.94c-3.98,4.94-9.66,7.42-17.05,7.42
			c-7.39,0-13.11-2.32-17.17-6.95c-4.06-4.63-6.09-10.7-6.09-18.2c0-2.95,0.2-5.97,0.6-9.04h6.48c-0.4,3.3-0.6,6.34-0.6,9.12
			c0,6.02,1.48,10.74,4.43,14.15c2.95,3.41,7.04,5.11,12.27,5.11c4.83,0,8.58-1.49,11.25-4.47c2.67-2.98,4.01-6.92,4.01-11.81
			c0-2.95-0.58-5.36-1.75-7.2c-1.16-1.85-2.94-2.77-5.33-2.77c-2.05,0-3.64,0.74-4.77,2.22c-1.14,1.48-1.71,3.38-1.71,5.71
			c0,1.65,0.28,3.72,0.85,6.22h-5.97c-0.8-1.99-1.19-4.23-1.19-6.73c0-3.69,1.14-6.8,3.41-9.33c2.27-2.53,5.37-3.79,9.29-3.79
			c4.26,0,7.63,1.51,10.1,4.52c2.47,3.01,3.71,6.73,3.71,11.17c0,3.24-0.54,6.22-1.62,8.95h2.04c4.2,0,7.25,1.36,9.12,4.09v-33.84
			h-62.82v-5.71h79.01v5.71h-9.63V549.85z"/>
		<path class="st2" d="M595.68,549.85h-6.48c-1.25-5.17-1.88-10.63-1.88-16.37c0-5.06,0.62-10,1.88-14.83
			c-5.34-1.25-10.17-3.32-14.49-6.22c-4.32-2.9-7.42-6.36-9.29-10.4c-5.28,3.92-7.93,8.35-7.93,13.3c0,4.6,2.7,6.9,8.1,6.9
			c3.98,0,7.95-0.88,11.93-2.64c1.08,2.33,1.62,5.14,1.62,8.44c0,6.2-1.82,11.29-5.45,15.3c-3.64,4.01-8.75,6.01-15.34,6.01
			c-7.27,0-13.01-2.61-17.22-7.84c-4.21-5.23-6.31-11.99-6.31-20.29c0-0.85,0.06-2.19,0.17-4.01h6.48c-0.06,0.8-0.09,1.96-0.09,3.49
			c0,6.82,1.48,12.33,4.43,16.54c2.95,4.21,7.13,6.31,12.53,6.31c4.77,0,8.4-1.41,10.87-4.22c2.47-2.81,3.71-6.58,3.71-11.29v-1.36
			c-2.67,0.91-5.63,1.36-8.86,1.36c-4.09,0-7.33-1.12-9.72-3.37c-2.39-2.24-3.58-5.3-3.58-9.16c0-5.63,2.33-10.51,6.99-14.66h-29.32
			v-5.71h74.24v5.71h-30.86c4.15,6.76,12.36,11.34,24.63,13.72c-1.82,6.08-2.73,12.39-2.73,18.92
			C593.72,537.97,594.37,543.43,595.68,549.85z"/>
		<path class="st2" d="M561.16,490.69l12.02-12.79h6.31v0.34l-11.85,12.79h-6.48V490.69z"/>
		<path class="st2" d="M641.45,549.85h-6.56v-0.34c-1.82-17.84-6.9-26.76-15.26-26.76c-2.78,0-4.92,0.85-6.39,2.56
			c-1.48,1.7-2.22,4.04-2.22,6.99c0,1.48,0.09,2.79,0.26,3.92h-6.48c-0.28-1.82-0.43-3.24-0.43-4.26c0-4.37,1.33-8.01,4.01-10.91
			c2.67-2.9,6.25-4.35,10.74-4.35c7.39,0,12.64,4.06,15.77,12.19v-28.04h-35.63v-5.71h51.65v5.71h-9.46V549.85z"/>
		<path class="st2" d="M130.98,628.44c0,5-1.36,8.86-4.09,11.59c-2.73,2.73-6.2,4.09-10.4,4.09c-0.74,0-1.28-0.03-1.62-0.09v-6.14
			h1.02c5.74,0,8.61-3.15,8.61-9.46c0-4.09-1.56-7.37-4.69-9.84c-3.13-2.47-7.1-3.71-11.93-3.71v37.25h-6.48l-26.68-20.37v-7.42
			c9.49-8.69,18.38-13.78,26.68-15.26v-5.97H69.35v-5.71h66.91v5.71h-28.38V609c6.65,0.06,12.16,1.89,16.54,5.5
			C128.79,618.11,130.98,622.75,130.98,628.44z M101.4,644.54v-29.32c-6.42,1.59-13.44,5.88-21.05,12.87L101.4,644.54z"/>
		<path class="st2" d="M158.34,652.73c-0.46,0.06-1.25,0.09-2.39,0.09c-5.45,0-9.43-2.13-11.93-6.39c-2.5-4.26-3.81-9.86-3.92-16.79
			c0-12.9,2.61-21.74,7.84-26.51h-15.09v-5.71h27.87v5.71h-1.28c-2.44,0-4.53,0.77-6.27,2.3c-1.73,1.53-3.07,3.62-4.01,6.26
			c-0.94,2.64-1.61,5.44-2,8.4c-0.4,2.95-0.6,6.14-0.6,9.55c0,11.54,3.38,17.3,10.14,17.3h1.62V652.73z"/>
		<path class="st2" d="M205.47,603.12h-9.63v49.01h-6.48l-26.68-20.37v-7.42c3.75-3.47,7.98-6.56,12.7-9.29
			c4.72-2.73,9.38-4.66,13.98-5.8v-6.14h-32.05v-5.71h48.16V603.12z M170.19,646.38c0.91,0.88,1.36,1.95,1.36,3.2
			s-0.44,2.3-1.32,3.15c-0.88,0.85-1.97,1.28-3.28,1.28c-1.31,0-2.37-0.43-3.2-1.28c-0.82-0.85-1.24-1.9-1.24-3.15
			s0.43-2.32,1.28-3.2c0.85-0.88,1.9-1.32,3.15-1.32C168.2,645.06,169.28,645.5,170.19,646.38z M189.36,644.46v-28.98
			c-7.22,2.33-14.21,6.51-20.97,12.53L189.36,644.46z"/>
		<path class="st2" d="M274,627.92c0,6.65-1.93,12.12-5.8,16.41c-3.87,4.29-9.23,6.44-16.11,6.44c-7.44,0-13.3-2.56-17.56-7.67
			c-4.26-5.11-6.39-11.88-6.39-20.29c0-2.27,0.17-4.66,0.51-7.16h6.48c-0.23,2.04-0.34,4.38-0.34,6.99c0,6.76,1.49,12.18,4.47,16.24
			c2.98,4.06,7.26,6.09,12.83,6.09c5,0,8.85-1.59,11.55-4.77c2.7-3.18,4.05-7.42,4.05-12.7c0-0.8-0.06-1.88-0.17-3.24
			c-3.69,2.27-7.33,3.41-10.91,3.41c-3.35,0-6.05-1.02-8.1-3.07c-2.04-2.05-3.07-4.86-3.07-8.44v-13.04h-24.12v-5.71h44.07
			c0.28-1.42,0.43-2.87,0.43-4.35c0-3.81-2.08-5.71-6.22-5.71c-1.42,0-4.29,0.34-8.61,1.02c-4.32,0.68-7.81,1.02-10.48,1.02
			c-3.81,0-7.05-0.57-9.72-1.7v-5.28c2.84,0.85,5.94,1.28,9.29,1.28c2.05,0,5.37-0.35,9.97-1.07c4.6-0.71,7.87-1.07,9.8-1.07
			c3.98,0,7,0.98,9.08,2.94c2.07,1.96,3.11,4.59,3.11,7.88c0,1.82-0.2,3.49-0.6,5.03h8.86v5.71H252.1v13.04
			c0,3.75,1.71,5.63,5.11,5.63c1.59,0,3.28-0.31,5.07-0.94c1.79-0.62,3.31-1.29,4.56-2c1.25-0.71,2.98-1.75,5.2-3.11
			C273.35,619.2,274,623.27,274,627.92z"/>
		<path class="st2" d="M291.39,638.83h-6.56v-35.71h-7.93v-5.71h48.5v5.71h-34.01v26.34c2.67-3.18,5.9-6.33,9.67-9.46
			c3.78-3.12,6.8-5.23,9.08-6.31h6.48v38.44h-6.48v-31.37c-2.9,1.99-6.14,4.7-9.72,8.14C296.85,632.34,293.83,635.65,291.39,638.83z
			"/>
		<path class="st2" d="M373.73,603.12h-9.63v49.01h-6.65l-28.72-14.49v-7.42l15.34-11.34l-15.26-10.83v-4.94h-6.82v-5.71h51.74
			V603.12z M349.69,615.39v6.82l-14.58,11.25l22.33,11.68v-42.02h-24.29L349.69,615.39z"/>
		<path class="st2" d="M396.06,603.12h-9.63v49.01h-6.56v-42.11c0-2.22-0.4-3.92-1.19-5.11c-0.8-1.19-2.22-1.79-4.26-1.79h-4.18
			v-5.71h4.43c2.73,0,4.72,1.22,5.97,3.67c-0.46-2.61-0.68-5.37-0.68-8.27v-2.56h6.48v7.16h9.63V603.12z"/>
		<path class="st2" d="M399.21,631.16l8.86-5.37c-1.71-3.64-4.89-6.33-9.55-8.1v-3.58c0-4.6,1.52-8.68,4.56-12.23
			c3.04-3.55,7.23-5.33,12.57-5.33c6.14,0,10.51,2.13,13.13,6.39v-12.7h6.65v7.16h9.55v5.71h-9.55v49.01h-6.65v-31.88l-29.58,18.15
			V631.16z M405.01,614.2c3.69,1.82,6.39,4.66,8.1,8.52l15.43-9.46c-0.51-3.29-1.78-5.92-3.79-7.88c-2.02-1.96-4.76-2.94-8.23-2.94
			c-3.64,0-6.46,1.09-8.48,3.28C406.02,607.91,405.01,610.74,405.01,614.2z"/>
		<path class="st2" d="M483.76,652.13h-6.56v-0.34c-1.82-17.84-6.9-26.76-15.26-26.76c-2.78,0-4.92,0.85-6.39,2.56
			c-1.48,1.7-2.22,4.04-2.22,6.99c0,1.48,0.09,2.79,0.26,3.92h-6.48c-0.29-1.82-0.43-3.24-0.43-4.26c0-4.37,1.33-8.01,4.01-10.91
			c2.67-2.9,6.25-4.35,10.74-4.35c7.39,0,12.64,4.06,15.77,12.19v-28.04h-35.63v-5.71h51.65v5.71h-9.46V652.13z"/>
		<path class="st2" d="M570.7,628.44c0,5-1.36,8.86-4.09,11.59c-2.73,2.73-6.2,4.09-10.4,4.09c-0.74,0-1.28-0.03-1.62-0.09v-6.14
			h1.02c5.74,0,8.61-3.15,8.61-9.46c0-4.09-1.56-7.37-4.69-9.84c-3.13-2.47-7.1-3.71-11.93-3.71v37.25h-6.48l-26.68-20.37v-7.42
			c9.49-8.69,18.38-13.78,26.68-15.26v-5.97h-32.05v-5.71h66.91v5.71h-28.38V609c6.65,0.06,12.16,1.89,16.54,5.5
			C568.52,618.11,570.7,622.75,570.7,628.44z M541.13,644.54v-29.32c-6.42,1.59-13.44,5.88-21.05,12.87L541.13,644.54z"/>
		<path class="st2" d="M620.74,603.12h-9.63v49.01h-6.48l-26.68-20.37v-7.42c3.75-3.47,7.98-6.56,12.7-9.29
			c4.72-2.73,9.38-4.66,13.98-5.8v-6.14h-32.05v-5.71h48.16V603.12z M585.45,646.38c0.91,0.88,1.36,1.95,1.36,3.2
			s-0.44,2.3-1.32,3.15c-0.88,0.85-1.97,1.28-3.28,1.28c-1.31,0-2.37-0.43-3.2-1.28c-0.82-0.85-1.24-1.9-1.24-3.15
			s0.43-2.32,1.28-3.2c0.85-0.88,1.9-1.32,3.15-1.32C583.46,645.06,584.54,645.5,585.45,646.38z M604.63,644.46v-28.98
			c-7.22,2.33-14.21,6.51-20.97,12.53L604.63,644.46z"/>
		<path class="st2" d="M643.15,603.12h-9.63v49.01h-6.56v-42.11c0-2.22-0.4-3.92-1.19-5.11c-0.8-1.19-2.22-1.79-4.26-1.79h-4.18
			v-5.71h4.43c2.73,0,4.72,1.22,5.97,3.67c-0.46-2.61-0.68-5.37-0.68-8.27v-2.56h6.48v7.16h9.63V603.12z"/>
	</g>
	<g>
		<path class="st3" d="M445.09,14.42v196.05c0,3.37,2.76,6.13,6.13,6.13h261.6l10.17-3.85c3.37,0,6.13-2.76,6.13-6.13l-1.79-188.15
			c0-3.37-2.76-6.13-6.13-6.13l-8.39-4.04h-261.6C447.84,8.29,445.09,11.05,445.09,14.42L445.09,14.42z"/>
		<path class="st4" d="M731.2,14.42v196.04c0,3.37-2.76,6.13-6.13,6.13h-12.25v-37.88l-10.84-67.59l10.84-64.97V8.29h12.25
			C728.44,8.29,731.2,11.04,731.2,14.42L731.2,14.42z"/>
		<path class="st5" d="M463.47,178.72V46.16c0-0.6,0.47-1.11,1.07-1.14c4.22-0.24,8.06-1.91,11.04-4.53
			c3.59-3.15,5.94-7.67,6.23-12.75c0.04-0.61,0.54-1.08,1.14-1.08h210.36c0.61,0,1.11,0.47,1.15,1.07
			c0.27,4.65,2.26,8.83,5.35,11.92s7.27,5.08,11.92,5.35c0.6,0.03,1.07,0.54,1.07,1.14v132.56c0,0.61-0.47,1.11-1.07,1.15
			c-4.65,0.27-8.83,2.26-11.92,5.35c-3.09,3.09-5.08,7.27-5.35,11.92c-0.03,0.6-0.54,1.07-1.15,1.07H665.9l-18.67-11.35
			l-16.16,11.35H482.96c-0.61,0-1.11-0.47-1.15-1.07c-0.27-4.65-2.26-8.83-5.35-11.92c-3.09-3.09-7.27-5.08-11.92-5.35
			C463.94,179.83,463.47,179.32,463.47,178.72L463.47,178.72z"/>
		<g>
			<circle class="st4" cx="712.82" cy="198.21" r="4.32"/>
			<circle class="st4" cx="712.82" cy="26.67" r="4.32"/>
			
				<ellipse transform="matrix(0.0161 -0.9999 0.9999 0.0161 257.8092 658.4219)" class="st4" cx="463.47" cy="198.21" rx="4.32" ry="4.32"/>
			<circle class="st4" cx="463.47" cy="26.67" r="4.32"/>
		</g>
		<g>
			<path class="st6" d="M717.13,198.21c0,2.38-1.93,4.32-4.32,4.32v-8.64C715.2,193.89,717.13,195.83,717.13,198.21z"/>
			<path class="st6" d="M717.13,26.67c0,2.38-1.93,4.32-4.32,4.32v-8.63C715.2,22.35,717.13,24.28,717.13,26.67z"/>
		</g>
		<g>
			<g>
				<path class="st7" d="M638.67,176.89l4.9,2.83l4.9,2.83l-7.25,14.25l0.23,9.82l-13.48,46.19c-0.28,0.97-1.59,1.13-2.1,0.26
					l-9.81-16.72l-1.25-5.81c-0.21-0.35-0.58-0.57-0.99-0.57l-5.14,1.89l-19.8-0.14c-1.01-0.01-1.52-1.22-0.82-1.95l31.67-33.09
					l10.11-7.59L638.67,176.89z"/>
				<path class="st8" d="M619.75,196.66l10,0.8c0.48,0.04,0.94,0.23,1.31,0.54l8.56,7.3c0.58,0.49,1.19,0.93,1.84,1.31l7.02-24.06
					l-4.9-2.83l-4.9-2.83L619.75,196.66z"/>
				<g>
					<path class="st8" d="M608.71,231.84l4.11,0.03c0.4,0.01,0.78,0.22,0.98,0.57l2.29,3.9l10.48-18.16c1.2-2.07,0.49-4.71-1.58-5.9
						c-2.07-1.19-4.7-0.48-5.89,1.58L608.71,231.84z"/>
				</g>
			</g>
			<g>
				<path class="st7" d="M658.29,176.89l-4.9,2.83l-4.9,2.83l7.25,14.25l-0.23,9.82l13.48,46.19c0.28,0.97,1.59,1.13,2.1,0.26
					l9.81-16.72l1.25-5.81c0.21-0.35,0.58-0.57,0.99-0.57l5.14,1.89l19.8-0.14c1.01-0.01,1.52-1.22,0.82-1.95l-31.67-33.09
					l-10.11-7.59L658.29,176.89z"/>
				<path class="st8" d="M677.22,196.66l-10,0.8c-0.48,0.04-0.94,0.23-1.31,0.54l-8.56,7.3c-0.58,0.49-1.19,0.93-1.84,1.31
					l-7.02-24.06l4.9-2.83l4.9-2.83L677.22,196.66z"/>
				<g>
					<path class="st8" d="M688.26,231.84l-4.11,0.03c-0.4,0.01-0.78,0.22-0.98,0.57l-2.29,3.9l-10.48-18.16
						c-1.2-2.07-0.49-4.71,1.58-5.9c2.07-1.19,4.7-0.48,5.89,1.58L688.26,231.84z"/>
				</g>
			</g>
			<path class="st9" d="M650.24,111.74l11.2,9.55c0.41,0.35,0.91,0.56,1.45,0.6l10.14,0.81l3.31,1.39c1.24,0.1,2.23,1.09,2.33,2.33
				l0.92,13.89c0.04,0.53,0.25,1.04,0.6,1.45l8.29,10.96c0.81,0.95,0.81,2.35,0,3.3l-9.34,10.41c-0.35,0.41-0.56,0.91-0.6,1.45
				l-0.16,13.43c-0.1,1.25-1.09,2.23-2.33,2.33l-13.75,1.84c-0.53,0.04-1.04,0.25-1.45,0.6l-10.32,7.59c-0.95,0.81-2.35,0.81-3.3,0
				l-10.77-7.96c-0.41-0.35-0.91-0.56-1.45-0.6l-14.55-0.76c-1.25-0.1-2.23-1.09-2.33-2.33l-1.17-2.88l-0.84-10.46
				c-0.04-0.53-0.25-1.04-0.6-1.45l-9.55-11.2c-0.81-0.95-0.81-2.35,0-3.3l9.55-11.2c0.35-0.41,0.56-0.91,0.6-1.45l1.17-14.67
				c0.1-1.25,1.09-2.23,2.33-2.33l14.67-1.17c0.53-0.04,1.04-0.25,1.45-0.6l11.2-9.55C647.89,110.93,649.29,110.93,650.24,111.74
				L650.24,111.74z"/>
			<path class="st7" d="M691.21,156.01l-9.54,11.2c-0.35,0.4-0.56,0.91-0.6,1.45l-1.17,14.67c-0.1,1.24-1.08,2.23-2.33,2.33
				l-14.67,1.17c-0.54,0.05-1.04,0.25-1.45,0.6l-11.2,9.54c-0.95,0.81-2.35,0.81-3.3,0l-11.2-9.54c-0.41-0.35-0.92-0.56-1.45-0.6
				l-14.67-1.17c-1.24-0.1-2.23-1.09-2.33-2.33l-0.33-4.21c5.2,2.26,10.94,3.51,16.96,3.51c23.6,0,42.73-19.13,42.73-42.73
				c0-6.13-1.29-11.95-3.62-17.21l4.53,0.36c1.25,0.1,2.23,1.09,2.33,2.34l1.17,14.67c0.04,0.54,0.25,1.04,0.6,1.45l9.54,11.2
				C692.02,153.66,692.02,155.06,691.21,156.01z"/>
			<circle class="st5" cx="648.48" cy="154.46" r="17.17"/>
		</g>
		<path class="st10" d="M495.32,82.37V59.68c0-0.64,0.52-1.15,1.15-1.15h93.09c0.64,0,1.15,0.52,1.15,1.15v22.69
			c0,0.64-0.52,1.15-1.15,1.15h-93.09C495.84,83.52,495.32,83.01,495.32,82.37z"/>
		<g>
			<g>
				<path class="st11" d="M503.14,179.35c-1.62,0-3.27-0.31-4.86-0.95c-3.26-1.32-5.72-4.01-6.75-7.38
					c-1.03-3.36-0.5-6.97,1.46-9.89c4.08-6.09,10.05-10.59,16.97-12.85c-0.11-0.44-0.23-0.88-0.36-1.32
					c-0.63-2.1-2.19-3.65-4.29-4.26c-2.1-0.61-4.25-0.15-5.91,1.28l-1.09,0.94c-1.81,1.56-4.53,1.35-6.09-0.45
					c-1.56-1.81-1.35-4.53,0.45-6.09l1.09-0.94c3.86-3.32,9.08-4.46,13.97-3.03c4.89,1.43,8.68,5.19,10.14,10.07
					c0.16,0.53,0.31,1.07,0.44,1.61l7.95-2.01c3.07-0.77,6.32,0.59,7.91,3.32l3.38,5.8l6.58-11.06c1.12-1.88,3.09-3.02,5.27-3.06
					c2.2-0.02,4.19,1.03,5.38,2.86l4.39,6.79c1.64,2.55,4.19,4.25,7.17,4.8c2.98,0.55,5.97-0.13,8.42-1.92l2.11-1.54
					c1.93-1.41,4.63-0.99,6.03,0.94c1.41,1.93,0.99,4.63-0.94,6.03l-2.11,1.54c-4.39,3.2-9.74,4.42-15.08,3.44
					c-5.34-0.99-9.91-4.05-12.85-8.61l-2.31-3.57l-5.24,8.81c-1.44,2.43-3.99,3.87-6.81,3.87c-0.01,0-0.02,0-0.03,0
					c-2.84-0.01-5.38-1.48-6.81-3.93l-3.42-5.87l-7.93,2.01c-0.02,6.47-1.81,12.88-5.27,18.5
					C511.67,177.13,507.49,179.35,503.14,179.35L503.14,179.35z M510.59,157.25c-4.22,1.81-7.85,4.81-10.44,8.68
					c-0.69,1.03-0.53,2.05-0.38,2.56c0.16,0.51,0.59,1.44,1.75,1.91c1.93,0.78,4.12,0.07,5.21-1.71
					C508.9,165.18,510.2,161.26,510.59,157.25L510.59,157.25z"/>
			</g>
			<g>
				<path class="st11" d="M652.85,62.84h-44.95c-2.38,0-4.32-1.93-4.32-4.32c0-2.38,1.93-4.32,4.32-4.32h44.95
					c2.38,0,4.32,1.93,4.32,4.32C657.17,60.91,655.23,62.84,652.85,62.84z"/>
			</g>
			<g>
				<path class="st11" d="M680.1,87.99h-72.21c-2.38,0-4.32-1.93-4.32-4.32c0-2.38,1.93-4.32,4.32-4.32h72.21
					c2.38,0,4.32,1.93,4.32,4.32C684.42,86.06,682.49,87.99,680.1,87.99z"/>
			</g>
			<g>
				<path class="st11" d="M590.72,113.15h-95.39c-2.38,0-4.32-1.93-4.32-4.32s1.93-4.32,4.32-4.32h95.39c2.38,0,4.32,1.93,4.32,4.32
					S593.1,113.15,590.72,113.15z"/>
			</g>
		</g>
	</g>
</g>
</svg>
