<?xml version="1.0" encoding="utf-8"?>
<!-- Generator: Adobe Illustrator 26.0.1, SVG Export Plug-In . SVG Version: 6.00 Build 0)  -->
<svg version="1.1" id="Layer_1" xmlns="http://www.w3.org/2000/svg" xmlns:xlink="http://www.w3.org/1999/xlink" x="0px" y="0px"
	 viewBox="0 0 1000 1012.4" style="enable-background:new 0 0 1000 1012.4;" xml:space="preserve">
<style type="text/css">
	.st0{fill:#EF3220;}
	.st1{opacity:0.5;fill:#C1211A;}
	.st2{fill:#FFFFFF;}
	.st3{fill:#464754;}
	.st4{fill:#FF6465;}
	.st5{fill:#E1E1E5;}
	.st6{fill:#363844;}
	.st7{fill:#EF525A;}
	.st8{fill:#C7C7C9;}
	.st9{fill:#B28A5D;}
	.st10{fill:#9E6E3F;}
</style>
<g>
	<polygon class="st0" points="322.1,1010 425.5,830.9 218.7,830.9 	"/>
	<path class="st0" d="M904.5,133.1v693.4c0,20.8-16.8,37.5-37.5,37.5H133c-20.8,0-37.5-16.8-37.5-37.5V133.1
		c0-20.7,16.8-37.5,37.5-37.5H867C887.7,95.6,904.5,112.4,904.5,133.1z"/>
	<path class="st1" d="M904.5,590.5v236c0,20.8-16.8,37.5-37.5,37.5H133c-20.8,0-37.5-16.8-37.5-37.5V343.2
		C260.8,591.8,540.3,850.3,904.5,590.5z"/>
	<g>
		<path class="st2" d="M238.6,222.8V286h-15.4v-37.9L209.1,286h-12.4l-14.2-38v38h-15.4v-63.1h18.2l17.7,43.7l17.5-43.7H238.6z"/>
		<path class="st2" d="M249.5,247.2c1.9-3.9,4.6-6.9,8-9c3.4-2.1,7.1-3.1,11.2-3.1c3.5,0,6.6,0.7,9.3,2.2c2.7,1.4,4.7,3.3,6.2,5.7
			v-7.1h15.4V286h-15.4v-7.1c-1.5,2.3-3.6,4.2-6.3,5.7c-2.7,1.4-5.8,2.2-9.3,2.2c-4.1,0-7.8-1.1-11.2-3.2c-3.4-2.1-6-5.2-8-9.1
			c-1.9-3.9-2.9-8.5-2.9-13.6C246.6,255.6,247.6,251.1,249.5,247.2z M281,251.8c-2.1-2.2-4.7-3.3-7.8-3.3s-5.7,1.1-7.8,3.3
			c-2.1,2.2-3.2,5.2-3.2,9s1.1,6.9,3.2,9.1c2.1,2.2,4.7,3.4,7.8,3.4s5.7-1.1,7.8-3.3c2.1-2.2,3.2-5.2,3.2-9.1
			C284.2,257,283.2,254,281,251.8z"/>
		<path class="st2" d="M341.4,286l-15.3-21v21h-15.4v-66.6h15.4v36.8l15.2-20.4h19L339.5,261l21,25H341.4z"/>
		<path class="st2" d="M413.4,264.6h-34.8c0.2,3.1,1.2,5.5,3,7.2c1.8,1.6,3.9,2.5,6.5,2.5c3.8,0,6.5-1.6,8-4.9h16.4
			c-0.8,3.3-2.4,6.3-4.5,8.9c-2.2,2.6-4.9,4.7-8.2,6.2c-3.3,1.5-7,2.2-11.1,2.2c-4.9,0-9.3-1-13.1-3.1c-3.8-2.1-6.8-5.1-9-9
			c-2.2-3.9-3.2-8.5-3.2-13.7c0-5.2,1.1-9.8,3.2-13.7c2.1-3.9,5.1-6.9,9-9c3.8-2.1,8.2-3.1,13.2-3.1c4.9,0,9.2,1,13,3.1
			c3.8,2,6.7,4.9,8.9,8.7c2.1,3.8,3.2,8.2,3.2,13.2C413.7,261.5,413.6,263,413.4,264.6z M397.9,256c0-2.6-0.9-4.7-2.7-6.3
			s-4-2.3-6.7-2.3c-2.6,0-4.8,0.8-6.5,2.2c-1.8,1.5-2.9,3.6-3.3,6.4H397.9z"/>
		<path class="st2" d="M208.2,330.8v12.3h-25.7v13.3h19.3v12h-19.3v25.5h-15.4v-63.1H208.2z"/>
		<path class="st2" d="M217.4,336.1c-1.7-1.6-2.6-3.6-2.6-5.9c0-2.4,0.9-4.4,2.6-6c1.7-1.6,3.9-2.4,6.6-2.4c2.6,0,4.8,0.8,6.5,2.4
			c1.7,1.6,2.6,3.6,2.6,6c0,2.3-0.9,4.3-2.6,5.9c-1.7,1.6-3.9,2.4-6.5,2.4C221.3,338.5,219.1,337.7,217.4,336.1z M231.7,343.7v50.2
			h-15.4v-50.2H231.7z"/>
		<path class="st2" d="M265,345.6c2.7-1.6,5.7-2.4,9-2.4v16.3h-4.2c-3.8,0-6.7,0.8-8.6,2.5c-1.9,1.7-2.9,4.5-2.9,8.7v23.3h-15.4
			v-50.2h15.4v8.4C260,349.3,262.3,347.1,265,345.6z"/>
		<path class="st2" d="M290.1,392.4c-3.4-1.5-6.1-3.6-8.1-6.2c-2-2.6-3.1-5.5-3.3-8.8h15.2c0.2,1.7,1,3.1,2.4,4.2
			c1.4,1.1,3.2,1.6,5.3,1.6c1.9,0,3.4-0.4,4.5-1.1c1-0.7,1.6-1.7,1.6-2.9c0-1.4-0.8-2.5-2.2-3.2c-1.5-0.7-3.9-1.5-7.3-2.3
			c-3.6-0.8-6.6-1.7-9-2.7c-2.4-0.9-4.5-2.4-6.2-4.4c-1.7-2-2.6-4.7-2.6-8.1c0-2.9,0.8-5.5,2.4-7.9c1.6-2.4,3.9-4.2,7-5.6
			c3.1-1.4,6.8-2.1,11-2.1c6.3,0,11.3,1.6,14.9,4.7c3.6,3.1,5.7,7.3,6.3,12.4h-14.2c-0.2-1.7-1-3.1-2.3-4.1c-1.3-1-3-1.5-5.1-1.5
			c-1.8,0-3.2,0.3-4.1,1c-1,0.7-1.4,1.6-1.4,2.8c0,1.4,0.8,2.5,2.3,3.2c1.5,0.7,3.9,1.4,7.2,2.2c3.7,1,6.7,1.9,9.1,2.8
			c2.3,0.9,4.4,2.4,6.2,4.5c1.8,2.1,2.7,4.8,2.7,8.3c0,2.9-0.8,5.6-2.5,7.9c-1.7,2.3-4,4.1-7.1,5.4c-3.1,1.3-6.7,2-10.8,2
			C297.4,394.6,293.5,393.9,290.1,392.4z"/>
		<path class="st2" d="M359.5,380.9v13h-7.8c-5.6,0-9.9-1.4-13-4.1c-3.1-2.7-4.7-7.2-4.7-13.4v-20h-6.1v-12.8h6.1v-12.2h15.4v12.2
			h10.1v12.8h-10.1v20.2c0,1.5,0.4,2.6,1.1,3.2c0.7,0.7,1.9,1,3.6,1H359.5z"/>
		<path class="st2" d="M397.6,392.3c-3.7-1.5-6.6-3.7-8.8-6.7c-2.2-2.9-3.3-6.5-3.5-10.6h16.4c0.2,2.3,1,4.1,2.4,5.4
			c1.4,1.2,3.2,1.8,5.4,1.8c2.3,0,4.1-0.5,5.4-1.6c1.3-1,2-2.5,2-4.4c0-1.6-0.5-2.8-1.6-3.9c-1-1-2.3-1.9-3.9-2.5
			c-1.5-0.7-3.7-1.4-6.5-2.2c-4.1-1.3-7.4-2.5-10-3.8c-2.6-1.3-4.8-3.1-6.7-5.6c-1.9-2.5-2.8-5.7-2.8-9.6c0-5.9,2.1-10.5,6.4-13.8
			c4.3-3.3,9.8-5,16.6-5c7,0,12.6,1.7,16.8,5c4.3,3.3,6.5,8,6.8,13.9h-16.6c-0.1-2-0.9-3.6-2.2-4.8c-1.4-1.2-3.1-1.8-5.3-1.8
			c-1.9,0-3.4,0.5-4.5,1.5c-1.1,1-1.7,2.4-1.7,4.3c0,2,1,3.6,2.9,4.8c1.9,1.1,4.9,2.4,9,3.7c4.1,1.4,7.4,2.7,9.9,4
			c2.5,1.3,4.8,3.1,6.6,5.5c1.9,2.4,2.8,5.5,2.8,9.3c0,3.6-0.9,6.9-2.7,9.8c-1.8,2.9-4.5,5.3-8,7c-3.5,1.7-7.6,2.6-12.3,2.6
			C405.4,394.5,401.2,393.8,397.6,392.3z"/>
		<path class="st2" d="M470.4,380.9v13h-7.8c-5.6,0-9.9-1.4-13-4.1c-3.1-2.7-4.7-7.2-4.7-13.4v-20h-6.1v-12.8h6.1v-12.2h15.4v12.2
			h10.1v12.8h-10.1v20.2c0,1.5,0.4,2.6,1.1,3.2c0.7,0.7,1.9,1,3.6,1H470.4z"/>
		<path class="st2" d="M488.6,391.5c-3.9-2.1-7-5.1-9.3-9c-2.2-3.9-3.4-8.5-3.4-13.7c0-5.2,1.1-9.7,3.4-13.6c2.3-3.9,5.4-6.9,9.4-9
			c4-2.1,8.4-3.1,13.3-3.1c4.9,0,9.4,1,13.3,3.1c4,2.1,7.1,5.1,9.4,9c2.3,3.9,3.4,8.5,3.4,13.6c0,5.2-1.2,9.7-3.5,13.6
			c-2.3,3.9-5.5,6.9-9.4,9c-4,2.1-8.4,3.1-13.4,3.1C496.9,394.6,492.5,393.6,488.6,391.5z M509.3,378.1c2.1-2.2,3.1-5.2,3.1-9.3
			c0-4-1-7.1-3-9.3c-2-2.2-4.5-3.2-7.4-3.2c-3,0-5.5,1.1-7.5,3.2c-2,2.1-3,5.2-3,9.3c0,4,1,7.1,2.9,9.3c1.9,2.2,4.4,3.2,7.3,3.2
			S507.3,380.2,509.3,378.1z"/>
		<path class="st2" d="M557.9,345.2c2.6-1.4,5.7-2.2,9.3-2.2c4.1,0,7.9,1,11.2,3.1c3.4,2.1,6,5.1,8,9c1.9,3.9,2.9,8.4,2.9,13.6
			c0,5.2-1,9.7-2.9,13.6c-1.9,3.9-4.6,7-8,9.1c-3.4,2.1-7.1,3.2-11.2,3.2c-3.5,0-6.6-0.7-9.2-2.2c-2.7-1.4-4.8-3.3-6.3-5.6v30.9
			h-15.4v-74.1h15.4v7.1C553.2,348.5,555.2,346.6,557.9,345.2z M570.4,359.7c-2.1-2.2-4.8-3.3-7.9-3.3c-3.1,0-5.7,1.1-7.8,3.3
			c-2.1,2.2-3.2,5.2-3.2,9.1c0,3.8,1.1,6.9,3.2,9.1c2.1,2.2,4.7,3.3,7.8,3.3s5.7-1.1,7.8-3.4c2.2-2.2,3.2-5.3,3.2-9.1
			S572.5,361.9,570.4,359.7z"/>
		<path class="st2" d="M606.1,392.4c-3.4-1.5-6.1-3.6-8.1-6.2c-2-2.6-3.1-5.5-3.3-8.8h15.2c0.2,1.7,1,3.1,2.4,4.2
			c1.4,1.1,3.2,1.6,5.3,1.6c1.9,0,3.4-0.4,4.5-1.1c1-0.7,1.6-1.7,1.6-2.9c0-1.4-0.8-2.5-2.2-3.2c-1.5-0.7-3.9-1.5-7.3-2.3
			c-3.6-0.8-6.6-1.7-9-2.7c-2.4-0.9-4.5-2.4-6.2-4.4c-1.7-2-2.6-4.7-2.6-8.1c0-2.9,0.8-5.5,2.4-7.9c1.6-2.4,3.9-4.2,7-5.6
			c3.1-1.4,6.8-2.1,11-2.1c6.3,0,11.3,1.6,14.9,4.7c3.6,3.1,5.7,7.3,6.3,12.4h-14.2c-0.2-1.7-1-3.1-2.3-4.1c-1.3-1-3-1.5-5.1-1.5
			c-1.8,0-3.2,0.3-4.1,1c-1,0.7-1.4,1.6-1.4,2.8c0,1.4,0.8,2.5,2.3,3.2c1.5,0.7,3.9,1.4,7.2,2.2c3.7,1,6.7,1.9,9.1,2.8
			c2.3,0.9,4.4,2.4,6.2,4.5c1.8,2.1,2.7,4.8,2.7,8.3c0,2.9-0.8,5.6-2.5,7.9c-1.7,2.3-4,4.1-7.1,5.4c-3.1,1.3-6.7,2-10.8,2
			C613.4,394.6,609.5,393.9,606.1,392.4z"/>
	</g>
	<g>
		<path class="st2" d="M237.7,472.2l-16.2,55.7h-8.2l-13-44.9L187,527.9L179,528l-15.6-55.8h7.8l12.2,47.3l13.4-47.3h8.2l12.8,47.1
			l12.2-47.1H237.7z"/>
		<path class="st2" d="M285.5,508.7h-35c0.3,4.3,1.7,7.7,4.4,10.1c2.7,2.4,6,3.6,9.8,3.6c3.1,0,5.8-0.7,7.9-2.2
			c2.1-1.5,3.6-3.4,4.4-5.9h7.8c-1.2,4.2-3.5,7.6-7,10.3s-7.9,4-13.1,4c-4.2,0-7.9-0.9-11.2-2.8c-3.3-1.9-5.9-4.5-7.7-8
			c-1.9-3.4-2.8-7.4-2.8-12c0-4.5,0.9-8.5,2.7-11.9c1.8-3.4,4.4-6,7.6-7.9c3.3-1.8,7-2.8,11.3-2.8c4.2,0,7.8,0.9,11,2.7
			s5.7,4.3,7.4,7.5c1.7,3.2,2.6,6.8,2.6,10.8C285.7,505.7,285.6,507.2,285.5,508.7z M276.4,495.7c-1.2-2-2.9-3.5-5-4.6
			c-2.1-1-4.4-1.6-7-1.6c-3.7,0-6.8,1.2-9.4,3.5c-2.6,2.3-4.1,5.6-4.4,9.8h27.7C278.2,500.1,277.6,497.7,276.4,495.7z"/>
		<path class="st2" d="M335,508.7h-35c0.3,4.3,1.7,7.7,4.4,10.1c2.7,2.4,6,3.6,9.8,3.6c3.1,0,5.8-0.7,7.9-2.2
			c2.1-1.5,3.6-3.4,4.4-5.9h7.8c-1.2,4.2-3.5,7.6-7,10.3s-7.9,4-13.1,4c-4.2,0-7.9-0.9-11.2-2.8c-3.3-1.9-5.9-4.5-7.7-8
			c-1.9-3.4-2.8-7.4-2.8-12c0-4.5,0.9-8.5,2.7-11.9c1.8-3.4,4.4-6,7.6-7.9c3.3-1.8,7-2.8,11.3-2.8c4.2,0,7.8,0.9,11,2.7
			s5.7,4.3,7.4,7.5c1.7,3.2,2.6,6.8,2.6,10.8C335.3,505.7,335.2,507.2,335,508.7z M325.9,495.7c-1.2-2-2.9-3.5-5-4.6
			c-2.1-1-4.4-1.6-7-1.6c-3.7,0-6.8,1.2-9.4,3.5c-2.6,2.3-4.1,5.6-4.4,9.8h27.7C327.8,500.1,327.2,497.7,325.9,495.7z"/>
		<path class="st2" d="M369.3,527.9l-17.2-19.4v19.4h-7.3v-59.2h7.3v34.8l16.9-19.4h10.2l-20.6,21.8l20.7,22H369.3z"/>
		<path class="st2" d="M393.3,468.8v59.2h-7.3v-59.2H393.3z"/>
		<path class="st2" d="M443.5,484.1l-26.4,64.4h-7.5l8.6-21.1l-17.7-43.3h8.1l13.8,35.5l13.6-35.5H443.5z"/>
		<path class="st2" d="M167.9,571.5c-1-1-1.4-2.1-1.4-3.5c0-1.4,0.5-2.6,1.4-3.5c1-1,2.1-1.4,3.5-1.4c1.3,0,2.5,0.5,3.4,1.4
			c0.9,1,1.4,2.1,1.4,3.5c0,1.4-0.5,2.6-1.4,3.5c-0.9,1-2.1,1.4-3.4,1.4C170.1,573,168.9,572.5,167.9,571.5z M175,580.1v43.8h-7.3
			v-43.8H175z"/>
		<path class="st2" d="M221.7,584.1c3.3,3.2,5,7.9,5,14v25.8h-7.2v-24.8c0-4.4-1.1-7.7-3.3-10c-2.2-2.3-5.2-3.5-9-3.5
			c-3.8,0-6.9,1.2-9.2,3.6c-2.3,2.4-3.4,5.9-3.4,10.5v24.2h-7.3v-43.8h7.3v6.2c1.4-2.2,3.4-4,5.9-5.2c2.5-1.2,5.2-1.8,8.2-1.8
			C214,579.3,218.4,580.9,221.7,584.1z"/>
		<path class="st2" d="M247.4,586.1v25.8c0,2.1,0.5,3.6,1.4,4.5c0.9,0.9,2.5,1.3,4.7,1.3h5.4v6.2h-6.6c-4.1,0-7.1-0.9-9.1-2.8
			c-2-1.9-3-4.9-3-9.2v-25.8h-5.7v-6h5.7v-11h7.3v11h11.4v6H247.4z"/>
		<path class="st2" d="M307.4,604.7h-35c0.3,4.3,1.7,7.7,4.4,10.1c2.7,2.4,6,3.6,9.8,3.6c3.1,0,5.8-0.7,7.9-2.2
			c2.1-1.5,3.6-3.4,4.4-5.9h7.8c-1.2,4.2-3.5,7.6-7,10.3s-7.9,4-13.1,4c-4.2,0-7.9-0.9-11.2-2.8c-3.3-1.9-5.9-4.5-7.7-8
			c-1.9-3.4-2.8-7.4-2.8-12c0-4.5,0.9-8.5,2.7-11.9c1.8-3.4,4.4-6,7.6-7.9c3.3-1.8,7-2.8,11.3-2.8c4.2,0,7.8,0.9,11,2.7
			s5.7,4.3,7.4,7.5c1.7,3.2,2.6,6.8,2.6,10.8C307.6,601.7,307.5,603.2,307.4,604.7z M298.3,591.6c-1.2-2-2.9-3.5-5-4.6
			c-2.1-1-4.4-1.6-7-1.6c-3.7,0-6.8,1.2-9.4,3.5c-2.6,2.3-4.1,5.6-4.4,9.8h27.7C300.1,596,299.5,593.6,298.3,591.6z"/>
		<path class="st2" d="M330,581.3c2.4-1.4,5.3-2.1,8.7-2.1v7.5h-1.9c-8.2,0-12.2,4.4-12.2,13.3v23.8h-7.3v-43.8h7.3v7.1
			C325.8,584.7,327.6,582.7,330,581.3z"/>
		<path class="st2" d="M347,590c1.8-3.4,4.3-6,7.5-7.9c3.2-1.9,6.7-2.8,10.6-2.8c3.8,0,7.2,0.8,10,2.5c2.8,1.7,4.9,3.7,6.3,6.2v-8
			h7.4v43.8h-7.4v-8.2c-1.4,2.6-3.6,4.7-6.4,6.4c-2.9,1.7-6.2,2.5-10,2.5c-3.9,0-7.4-1-10.6-2.9c-3.1-1.9-5.6-4.6-7.4-8.1
			c-1.8-3.5-2.7-7.4-2.7-11.8C344.3,597.3,345.2,593.4,347,590z M379.4,593.3c-1.3-2.5-3.1-4.3-5.4-5.6c-2.3-1.3-4.8-2-7.5-2
			s-5.2,0.6-7.4,1.9c-2.2,1.3-4,3.1-5.4,5.6c-1.3,2.5-2,5.3-2,8.6c0,3.4,0.7,6.3,2,8.8c1.3,2.5,3.1,4.4,5.4,5.7c2.2,1.3,4.7,2,7.4,2
			s5.2-0.7,7.5-2c2.3-1.3,4.1-3.2,5.4-5.7c1.3-2.5,2-5.4,2-8.7C381.4,598.6,380.8,595.7,379.4,593.3z"/>
		<path class="st2" d="M401.1,590c1.8-3.4,4.3-6,7.6-7.9c3.2-1.9,6.9-2.8,11.1-2.8c5.4,0,9.8,1.3,13.3,3.9c3.5,2.6,5.8,6.2,6.9,10.9
			h-7.8c-0.7-2.7-2.2-4.8-4.4-6.3c-2.2-1.5-4.8-2.3-8-2.3c-4.2,0-7.5,1.4-10.1,4.3c-2.6,2.9-3.8,6.9-3.8,12.1
			c0,5.3,1.3,9.4,3.8,12.2c2.6,2.9,5.9,4.3,10.1,4.3c3.2,0,5.9-0.7,8-2.2c2.1-1.5,3.6-3.6,4.4-6.4h7.8c-1.2,4.5-3.5,8.1-7,10.8
			c-3.5,2.7-7.9,4-13.2,4c-4.2,0-7.8-0.9-11.1-2.8c-3.2-1.9-5.7-4.5-7.6-7.9c-1.8-3.4-2.7-7.4-2.7-12
			C398.4,597.4,399.3,593.4,401.1,590z"/>
		<path class="st2" d="M458.5,586.1v25.8c0,2.1,0.5,3.6,1.4,4.5c0.9,0.9,2.5,1.3,4.7,1.3h5.4v6.2h-6.6c-4.1,0-7.1-0.9-9.1-2.8
			c-2-1.9-3-4.9-3-9.2v-25.8h-5.7v-6h5.7v-11h7.3v11h11.4v6H458.5z"/>
		<path class="st2" d="M479,571.5c-1-1-1.4-2.1-1.4-3.5c0-1.4,0.5-2.6,1.4-3.5c1-1,2.1-1.4,3.5-1.4c1.3,0,2.5,0.5,3.4,1.4
			c0.9,1,1.4,2.1,1.4,3.5c0,1.4-0.5,2.6-1.4,3.5c-0.9,1-2.1,1.4-3.4,1.4C481.1,573,479.9,572.5,479,571.5z M486,580.1v43.8h-7.3
			v-43.8H486z"/>
		<path class="st2" d="M514.7,617.2l13.6-37.1h7.8l-17.2,43.8h-8.5l-17.2-43.8h7.8L514.7,617.2z"/>
		<path class="st2" d="M583,604.7h-35c0.3,4.3,1.7,7.7,4.4,10.1c2.7,2.4,6,3.6,9.8,3.6c3.1,0,5.8-0.7,7.9-2.2
			c2.1-1.5,3.6-3.4,4.4-5.9h7.8c-1.2,4.2-3.5,7.6-7,10.3s-7.9,4-13.1,4c-4.2,0-7.9-0.9-11.2-2.8c-3.3-1.9-5.9-4.5-7.7-8
			c-1.9-3.4-2.8-7.4-2.8-12c0-4.5,0.9-8.5,2.7-11.9c1.8-3.4,4.4-6,7.6-7.9c3.3-1.8,7-2.8,11.3-2.8c4.2,0,7.8,0.9,11,2.7
			s5.7,4.3,7.4,7.5c1.7,3.2,2.6,6.8,2.6,10.8C583.2,601.7,583.2,603.2,583,604.7z M573.9,591.6c-1.2-2-2.9-3.5-5-4.6
			c-2.1-1-4.4-1.6-7-1.6c-3.7,0-6.8,1.2-9.4,3.5c-2.6,2.3-4.1,5.6-4.4,9.8h27.7C575.7,596,575.1,593.6,573.9,591.6z"/>
		<path class="st2" d="M167.7,686c1.8-3.4,4.3-6,7.6-7.9c3.2-1.9,6.9-2.8,11.1-2.8c5.4,0,9.8,1.3,13.3,3.9c3.5,2.6,5.8,6.2,6.9,10.9
			h-7.8c-0.7-2.7-2.2-4.8-4.4-6.3c-2.2-1.5-4.8-2.3-8-2.3c-4.2,0-7.5,1.4-10.1,4.3c-2.6,2.9-3.8,6.9-3.8,12.1
			c0,5.3,1.3,9.4,3.8,12.2c2.6,2.9,5.9,4.3,10.1,4.3c3.2,0,5.9-0.7,8-2.2c2.1-1.5,3.6-3.6,4.4-6.4h7.8c-1.2,4.5-3.5,8.1-7,10.8
			c-3.5,2.7-7.9,4-13.2,4c-4.2,0-7.8-0.9-11.1-2.8c-3.2-1.9-5.7-4.5-7.6-7.9c-1.8-3.4-2.7-7.4-2.7-12
			C165,693.3,165.9,689.4,167.7,686z"/>
		<path class="st2" d="M223.5,660.7v59.2h-7.3v-59.2H223.5z"/>
		<path class="st2" d="M235.9,686c1.8-3.4,4.3-6,7.5-7.9c3.2-1.9,6.7-2.8,10.6-2.8c3.8,0,7.2,0.8,10,2.5c2.8,1.7,4.9,3.7,6.3,6.2v-8
			h7.4v43.8h-7.4v-8.2c-1.4,2.6-3.6,4.7-6.4,6.4c-2.9,1.7-6.2,2.5-10,2.5c-3.9,0-7.4-1-10.6-2.9c-3.1-1.9-5.6-4.6-7.4-8.1
			c-1.8-3.5-2.7-7.4-2.7-11.8C233.2,693.3,234.1,689.4,235.9,686z M268.3,689.2c-1.3-2.5-3.1-4.3-5.4-5.6c-2.3-1.3-4.8-2-7.5-2
			s-5.2,0.6-7.4,1.9c-2.2,1.3-4,3.1-5.4,5.6c-1.3,2.5-2,5.3-2,8.6c0,3.4,0.7,6.3,2,8.8c1.3,2.5,3.1,4.4,5.4,5.7c2.2,1.3,4.7,2,7.4,2
			s5.2-0.7,7.5-2c2.3-1.3,4.1-3.2,5.4-5.7c1.3-2.5,2-5.4,2-8.7C270.3,694.5,269.6,691.7,268.3,689.2z"/>
		<path class="st2" d="M296.4,718.8c-2.7-1.1-4.8-2.7-6.3-4.8c-1.5-2.1-2.4-4.4-2.6-7.1h7.5c0.2,2.2,1.2,4,3.1,5.4
			c1.8,1.4,4.2,2.1,7.2,2.1c2.8,0,5-0.6,6.6-1.8c1.6-1.2,2.4-2.8,2.4-4.6c0-1.9-0.9-3.3-2.6-4.3c-1.7-0.9-4.3-1.9-7.9-2.8
			c-3.3-0.9-5.9-1.7-8-2.6c-2.1-0.9-3.8-2.2-5.3-3.9c-1.5-1.7-2.2-4-2.2-6.8c0-2.2,0.7-4.3,2-6.2c1.3-1.9,3.2-3.3,5.7-4.4
			c2.5-1.1,5.2-1.6,8.4-1.6c4.9,0,8.8,1.2,11.8,3.7c3,2.5,4.6,5.8,4.8,10.1h-7.3c-0.2-2.3-1.1-4.1-2.8-5.5c-1.7-1.4-3.9-2.1-6.8-2.1
			c-2.6,0-4.7,0.6-6.2,1.7c-1.5,1.1-2.3,2.6-2.3,4.4c0,1.4,0.5,2.6,1.4,3.6c0.9,0.9,2.1,1.7,3.5,2.2c1.4,0.6,3.4,1.2,5.9,1.9
			c3.1,0.9,5.7,1.7,7.7,2.5c2,0.8,3.7,2.1,5.1,3.7c1.4,1.7,2.1,3.8,2.2,6.5c0,2.4-0.7,4.6-2,6.5c-1.3,1.9-3.2,3.4-5.6,4.5
			c-2.4,1.1-5.2,1.6-8.4,1.6C302.1,720.6,299.1,720,296.4,718.8z"/>
		<path class="st2" d="M338.2,718.8c-2.7-1.1-4.8-2.7-6.3-4.8c-1.5-2.1-2.4-4.4-2.6-7.1h7.5c0.2,2.2,1.2,4,3.1,5.4
			c1.8,1.4,4.2,2.1,7.2,2.1c2.8,0,5-0.6,6.6-1.8c1.6-1.2,2.4-2.8,2.4-4.6c0-1.9-0.9-3.3-2.6-4.3c-1.7-0.9-4.3-1.9-7.9-2.8
			c-3.3-0.9-5.9-1.7-8-2.6c-2.1-0.9-3.8-2.2-5.3-3.9c-1.5-1.7-2.2-4-2.2-6.8c0-2.2,0.7-4.3,2-6.2c1.3-1.9,3.2-3.3,5.7-4.4
			c2.5-1.1,5.2-1.6,8.4-1.6c4.9,0,8.8,1.2,11.8,3.7c3,2.5,4.6,5.8,4.8,10.1h-7.3c-0.2-2.3-1.1-4.1-2.8-5.5c-1.7-1.4-3.9-2.1-6.8-2.1
			c-2.6,0-4.7,0.6-6.2,1.7c-1.5,1.1-2.3,2.6-2.3,4.4c0,1.4,0.5,2.6,1.4,3.6c0.9,0.9,2.1,1.7,3.5,2.2c1.4,0.6,3.4,1.2,5.9,1.9
			c3.1,0.9,5.7,1.7,7.7,2.5c2,0.8,3.7,2.1,5.1,3.7c1.4,1.7,2.1,3.8,2.2,6.5c0,2.4-0.7,4.6-2,6.5c-1.3,1.9-3.2,3.4-5.6,4.5
			c-2.4,1.1-5.2,1.6-8.4,1.6C343.8,720.6,340.8,720,338.2,718.8z"/>
		<path class="st2" d="M413.2,700.7h-35c0.3,4.3,1.7,7.7,4.4,10.1c2.7,2.4,6,3.6,9.8,3.6c3.1,0,5.8-0.7,7.9-2.2
			c2.1-1.5,3.6-3.4,4.4-5.9h7.8c-1.2,4.2-3.5,7.6-7,10.3s-7.9,4-13.1,4c-4.2,0-7.9-0.9-11.2-2.8c-3.3-1.9-5.9-4.5-7.7-8
			c-1.9-3.4-2.8-7.4-2.8-12c0-4.5,0.9-8.5,2.7-11.9c1.8-3.4,4.4-6,7.6-7.9c3.3-1.8,7-2.8,11.3-2.8c4.2,0,7.8,0.9,11,2.7
			s5.7,4.3,7.4,7.5c1.7,3.2,2.6,6.8,2.6,10.8C413.4,697.6,413.3,699.1,413.2,700.7z M404,687.6c-1.2-2-2.9-3.5-5-4.6
			c-2.1-1-4.4-1.6-7-1.6c-3.7,0-6.8,1.2-9.4,3.5c-2.6,2.3-4.1,5.6-4.4,9.8h27.7C405.9,692,405.3,689.6,404,687.6z"/>
		<path class="st2" d="M429.5,718.8c-2.7-1.1-4.8-2.7-6.3-4.8c-1.5-2.1-2.4-4.4-2.6-7.1h7.5c0.2,2.2,1.2,4,3.1,5.4
			c1.8,1.4,4.2,2.1,7.2,2.1c2.8,0,5-0.6,6.6-1.8c1.6-1.2,2.4-2.8,2.4-4.6c0-1.9-0.9-3.3-2.6-4.3c-1.7-0.9-4.3-1.9-7.9-2.8
			c-3.3-0.9-5.9-1.7-8-2.6c-2.1-0.9-3.8-2.2-5.3-3.9c-1.5-1.7-2.2-4-2.2-6.8c0-2.2,0.7-4.3,2-6.2c1.3-1.9,3.2-3.3,5.7-4.4
			c2.5-1.1,5.2-1.6,8.4-1.6c4.9,0,8.8,1.2,11.8,3.7c3,2.5,4.6,5.8,4.8,10.1h-7.3c-0.2-2.3-1.1-4.1-2.8-5.5c-1.7-1.4-3.9-2.1-6.8-2.1
			c-2.6,0-4.7,0.6-6.2,1.7c-1.5,1.1-2.3,2.6-2.3,4.4c0,1.4,0.5,2.6,1.4,3.6c0.9,0.9,2.1,1.7,3.5,2.2c1.4,0.6,3.4,1.2,5.9,1.9
			c3.1,0.9,5.7,1.7,7.7,2.5c2,0.8,3.7,2.1,5.1,3.7c1.4,1.7,2.1,3.8,2.2,6.5c0,2.4-0.7,4.6-2,6.5c-1.3,1.9-3.2,3.4-5.6,4.5
			c-2.4,1.1-5.2,1.6-8.4,1.6C435.2,720.6,432.1,720,429.5,718.8z"/>
		<path class="st2" d="M499.9,677.8c2.9-1.7,6.2-2.5,9.8-2.5c3.9,0,7.5,0.9,10.6,2.8c3.1,1.9,5.6,4.5,7.4,7.9
			c1.8,3.4,2.7,7.3,2.7,11.8c0,4.4-0.9,8.4-2.7,11.8c-1.8,3.5-4.3,6.2-7.5,8.1s-6.7,2.9-10.6,2.9c-3.8,0-7.1-0.8-10-2.5
			c-2.9-1.7-5-3.8-6.4-6.3v8.1h-7.3v-59.2h7.3v23.5C494.9,681.6,497,679.4,499.9,677.8z M521.1,689.1c-1.3-2.5-3.1-4.3-5.4-5.6
			s-4.8-1.9-7.5-1.9c-2.7,0-5.1,0.7-7.4,2c-2.3,1.3-4.1,3.2-5.4,5.7c-1.4,2.5-2,5.3-2,8.6c0,3.3,0.7,6.2,2,8.7s3.2,4.4,5.4,5.7
			c2.3,1.3,4.7,2,7.4,2c2.7,0,5.2-0.7,7.5-2c2.3-1.3,4.1-3.2,5.4-5.7c1.3-2.5,2-5.4,2-8.8C523.1,694.5,522.4,691.6,521.1,689.1z"/>
		<path class="st2" d="M579.9,700.7h-35c0.3,4.3,1.7,7.7,4.4,10.1c2.7,2.4,6,3.6,9.8,3.6c3.1,0,5.8-0.7,7.9-2.2
			c2.1-1.5,3.6-3.4,4.4-5.9h7.8c-1.2,4.2-3.5,7.6-7,10.3s-7.9,4-13.1,4c-4.2,0-7.9-0.9-11.2-2.8c-3.3-1.9-5.9-4.5-7.7-8
			c-1.9-3.4-2.8-7.4-2.8-12c0-4.5,0.9-8.5,2.7-11.9c1.8-3.4,4.4-6,7.6-7.9c3.3-1.8,7-2.8,11.3-2.8c4.2,0,7.8,0.9,11,2.7
			s5.7,4.3,7.4,7.5c1.7,3.2,2.6,6.8,2.6,10.8C580.1,697.6,580,699.1,579.9,700.7z M570.8,687.6c-1.2-2-2.9-3.5-5-4.6
			c-2.1-1-4.4-1.6-7-1.6c-3.7,0-6.8,1.2-9.4,3.5c-2.6,2.3-4.1,5.6-4.4,9.8h27.7C572.6,692,572,689.6,570.8,687.6z"/>
		<path class="st2" d="M617.7,677.8c2.9,1.7,5,3.7,6.4,6.2v-8h7.4v44.8c0,4-0.9,7.6-2.6,10.7c-1.7,3.1-4.1,5.6-7.3,7.3
			c-3.2,1.8-6.9,2.6-11.1,2.6c-5.8,0-10.6-1.4-14.4-4.1s-6.1-6.4-6.8-11.1h7.2c0.8,2.7,2.5,4.8,5,6.4c2.5,1.6,5.5,2.4,9,2.4
			c4,0,7.3-1.3,9.8-3.8c2.5-2.5,3.8-6,3.8-10.6v-9.2c-1.4,2.6-3.6,4.7-6.4,6.4c-2.8,1.7-6.1,2.6-9.9,2.6c-3.9,0-7.4-1-10.6-2.9
			c-3.2-1.9-5.7-4.6-7.5-8.1c-1.8-3.5-2.7-7.4-2.7-11.8c0-4.5,0.9-8.4,2.7-11.8c1.8-3.4,4.3-6,7.5-7.9c3.2-1.9,6.7-2.8,10.6-2.8
			C611.6,675.3,614.9,676.1,617.7,677.8z M622.1,689.2c-1.3-2.5-3.1-4.3-5.4-5.6c-2.3-1.3-4.8-2-7.5-2s-5.2,0.6-7.4,1.9
			c-2.2,1.3-4,3.1-5.4,5.6c-1.3,2.5-2,5.3-2,8.6c0,3.4,0.7,6.3,2,8.8c1.3,2.5,3.1,4.4,5.4,5.7c2.2,1.3,4.7,2,7.4,2s5.2-0.7,7.5-2
			c2.3-1.3,4.1-3.2,5.4-5.7c1.3-2.5,2-5.4,2-8.7C624.1,694.5,623.4,691.7,622.1,689.2z"/>
		<path class="st2" d="M644,667.5c-1-1-1.4-2.1-1.4-3.5c0-1.4,0.5-2.6,1.4-3.5c1-1,2.1-1.4,3.5-1.4c1.3,0,2.5,0.5,3.4,1.4
			c0.9,1,1.4,2.1,1.4,3.5c0,1.4-0.5,2.6-1.4,3.5c-0.9,1-2.1,1.4-3.4,1.4C646.1,668.9,645,668.4,644,667.5z M651,676v43.8h-7.3V676
			H651z"/>
		<path class="st2" d="M697.7,680.1c3.3,3.2,5,7.9,5,14v25.8h-7.2v-24.8c0-4.4-1.1-7.7-3.3-10c-2.2-2.3-5.2-3.5-9-3.5
			c-3.8,0-6.9,1.2-9.2,3.6c-2.3,2.4-3.4,5.9-3.4,10.5v24.2h-7.3V676h7.3v6.2c1.4-2.2,3.4-4,5.9-5.2c2.5-1.2,5.2-1.8,8.2-1.8
			C690.1,675.2,694.4,676.8,697.7,680.1z"/>
	</g>
	<g>
		<ellipse class="st3" cx="596.5" cy="220" rx="18.8" ry="18.9"/>
		<path class="st4" d="M611.9,238.9h-30.7c-6,0-10.8,4.9-10.8,10.9v11.2h52.4v-11.2C622.7,243.8,617.8,238.9,611.9,238.9z"/>
		<path class="st3" d="M850.9,183.4H566.2c-3.9,0-7-3.2-7-7V9.5c0-3.9,3.2-7,7-7h284.7c3.9,0,7,3.2,7,7v166.9
			C857.9,180.2,854.7,183.4,850.9,183.4z"/>
		<path class="st4" d="M836.5,20h-31.4H611.4H580c-1.6,0-2.8,1.3-2.8,2.8V163c0,1.6,1.3,2.8,2.8,2.8h31.4h193.7h31.4
			c1.6,0,2.8-1.3,2.8-2.8V22.9C839.3,21.3,838.1,20,836.5,20z"/>
		<circle class="st5" cx="708.2" cy="93.2" r="43.5"/>
		<path class="st4" d="M711.6,102.3l-13.5,7.6c-1.2,0.7-2.7-0.3-2.7-1.9V78.4c0-1.6,1.4-2.6,2.7-1.9l26.3,14.8c1.4,0.8,1.4,3,0,3.7
			L711.6,102.3z"/>
		<path class="st6" d="M577.1,176.2V9.7c0-4,3.2-7.2,7.2-7.2h-17.9c-4,0-7.2,3.2-7.2,7.2v166.5c0,4,3.2,7.2,7.2,7.2h17.9
			C580.4,183.4,577.1,180.2,577.1,176.2z"/>
		<path class="st7" d="M595.1,163V22.9c0-1.6,1.3-2.8,2.8-2.8H580c-1.6,0-2.8,1.3-2.8,2.8V163c0,1.6,1.3,2.8,2.8,2.8h17.9
			C596.3,165.8,595.1,164.5,595.1,163z"/>
		<path class="st8" d="M682.6,93.2c0-21,14.8-38.5,34.6-42.6c-2.9-0.6-5.9-0.9-9-0.9c-24,0-43.5,19.5-43.5,43.5s19.5,43.5,43.5,43.5
			c3.1,0,6.1-0.3,9-0.9C697.5,131.7,682.6,114.2,682.6,93.2z"/>
		<path class="st7" d="M713.3,85.1l-15.3-8.6c-1.2-0.7-2.7,0.3-2.7,1.9v29.7c0,1.6,1.4,2.6,2.7,1.9l13.5-7.6l1.8-1L713.3,85.1
			L713.3,85.1z"/>
		<path class="st6" d="M589.7,220c0-8.3,5.4-15.4,12.8-17.9c-1.9-0.6-3.9-1-6-1c-10.4,0-18.8,8.5-18.8,18.9
			c0,10.4,8.4,18.9,18.8,18.9c2.1,0,4.1-0.4,6-1C595.1,235.3,589.7,228.3,589.7,220z"/>
		<path class="st7" d="M593.2,238.9h-12c-6,0-10.8,4.9-10.8,10.9v11.2h12v-11.2C582.3,243.8,587.2,238.9,593.2,238.9z"/>
		<path class="st9" d="M625.1,259.7H568c-4.8,0-8.8,4-8.8,8.8v1.2v25.5v1.2c0,2.6,2.1,4.7,4.7,4.7h64.7c2.9,0,5.3-2.4,5.3-5.3v-8
			v-18.1v-1.2C633.9,263.7,629.9,259.7,625.1,259.7z"/>
		<path class="st10" d="M571.2,296.4v-1.2v-25.5v-1.2c0-4.9,4-8.8,8.8-8.8h-12c-4.8,0-8.8,4-8.8,8.8v1.2v25.5v1.2
			c0,2.6,2.1,4.7,4.7,4.7h12C573.3,301.2,571.2,299.1,571.2,296.4z"/>
		<ellipse class="st3" cx="671.2" cy="220" rx="18.8" ry="18.9"/>
		<path class="st4" d="M686.6,238.9h-30.7c-6,0-10.8,4.9-10.8,10.9v11.2h52.4v-11.2C697.4,243.8,692.5,238.9,686.6,238.9z"/>
		<path class="st6" d="M664.4,220c0-8.3,5.4-15.4,12.8-17.9c-1.9-0.6-3.9-1-6-1c-10.4,0-18.8,8.5-18.8,18.9
			c0,10.4,8.4,18.9,18.8,18.9c2.1,0,4.1-0.4,6-1C669.8,235.3,664.4,228.3,664.4,220z"/>
		<path class="st7" d="M667.9,238.9h-12c-6,0-10.8,4.9-10.8,10.9v11.2h12v-11.2C657,243.8,661.9,238.9,667.9,238.9z"/>
		<path class="st9" d="M699.7,259.7h-57.1c-4.8,0-8.8,4-8.8,8.8v1.2v25.5v1.2c0,2.6,2.1,4.7,4.7,4.7h65c2.7,0,4.9-2.2,4.9-4.9v-5.4
			v-21.1v-1.2C708.5,263.7,704.6,259.7,699.7,259.7z"/>
		<path class="st10" d="M645.9,296.4v-1.2v-25.5v-1.2c0-4.9,4-8.8,8.8-8.8h-12c-4.8,0-8.8,4-8.8,8.8v1.2v25.5v1.2
			c0,2.6,2.1,4.7,4.7,4.7h12C648,301.2,645.9,299.1,645.9,296.4z"/>
		<ellipse class="st3" cx="745.9" cy="220" rx="18.8" ry="18.9"/>
		<path class="st4" d="M761.2,238.9h-30.7c-6,0-10.8,4.9-10.8,10.9v11.2h52.4v-11.2C772.1,243.8,767.2,238.9,761.2,238.9z"/>
		<path class="st6" d="M739.1,220c0-8.3,5.4-15.4,12.8-17.9c-1.9-0.6-3.9-1-6-1c-10.4,0-18.8,8.5-18.8,18.9
			c0,10.4,8.4,18.9,18.8,18.9c2.1,0,4.1-0.4,6-1C744.5,235.3,739.1,228.3,739.1,220z"/>
		<path class="st7" d="M742.5,238.9h-12c-6,0-10.8,4.9-10.8,10.9v11.2h12v-11.2C731.7,243.8,736.6,238.9,742.5,238.9z"/>
		<path class="st9" d="M774.4,259.7h-57.1c-4.8,0-8.8,4-8.8,8.8v1.2v25.5v1.2c0,2.6,2.1,4.7,4.7,4.7h65.9c2.2,0,4.1-1.8,4.1-4.1
			v-4.6v-22.8v-1.2C783.2,263.7,779.3,259.7,774.4,259.7z"/>
		<path class="st10" d="M720.6,296.4v-1.2v-25.5v-1.2c0-4.9,4-8.8,8.8-8.8h-12c-4.8,0-8.8,4-8.8,8.8v1.2v25.5v1.2
			c0,2.6,2.1,4.7,4.7,4.7h12C722.7,301.2,720.6,299.1,720.6,296.4z"/>
		<ellipse class="st3" cx="820.6" cy="220" rx="18.8" ry="18.9"/>
		<path class="st4" d="M835.9,238.9h-30.7c-6,0-10.8,4.9-10.8,10.9v11.2h52.4v-11.2C846.8,243.8,841.9,238.9,835.9,238.9z"/>
		<path class="st6" d="M813.8,220c0-8.3,5.4-15.4,12.8-17.9c-1.9-0.6-3.9-1-6-1c-10.4,0-18.8,8.5-18.8,18.9
			c0,10.4,8.4,18.9,18.8,18.9c2.1,0,4.1-0.4,6-1C819.1,235.3,813.8,228.3,813.8,220z"/>
		<path class="st7" d="M817.2,238.9h-12c-6,0-10.8,4.9-10.8,10.9v11.2h12v-11.2C806.4,243.8,811.3,238.9,817.2,238.9z"/>
		<path class="st9" d="M849.1,259.7H792c-4.8,0-8.8,4-8.8,8.8v1.2v25.5v1.2c0,2.6,2.1,4.7,4.7,4.7h63.7c3.5,0,6.2-2.8,6.2-6.2v-7.4
			v-17.8v-1.2C857.9,263.7,853.9,259.7,849.1,259.7z"/>
		<path class="st10" d="M795.2,296.4v-1.2v-25.5v-1.2c0-4.9,4-8.8,8.8-8.8h-12c-4.8,0-8.8,4-8.8,8.8v1.2v25.5v1.2
			c0,2.6,2.1,4.7,4.7,4.7h12C797.4,301.2,795.2,299.1,795.2,296.4z"/>
	</g>
</g>
</svg>
