<?xml version="1.0" encoding="utf-8"?>
<!-- Generator: Adobe Illustrator 26.0.1, SVG Export Plug-In . SVG Version: 6.00 Build 0)  -->
<svg version="1.1" id="Layer_1" xmlns="http://www.w3.org/2000/svg" xmlns:xlink="http://www.w3.org/1999/xlink" x="0px" y="0px"
	 viewBox="0 0 826.2 1015.7" style="enable-background:new 0 0 826.2 1015.7;" xml:space="preserve">
<style type="text/css">
	.st0{fill:#FF9039;}
	.st1{opacity:0.6;fill:#DD7026;}
	.st2{fill:#FFFFFF;}
	.st3{fill:#FF4FB9;}
	.st4{fill:#FFE02F;}
	.st5{fill:#FFB1A0;}
	.st6{fill:#00C2FB;}
	.st7{fill:#7B6C79;}
	.st8{fill:#2F4DCA;}
	.st9{fill:#6B7ED9;}
	.st10{fill:#FF72C7;}
	.st11{fill:#DBEDFF;}
	.st12{fill:#4D66D2;}
	.st13{fill:#62DDFC;}
	.st14{fill:#FBC700;}
</style>
<g>
	<polygon class="st0" points="413.1,1005.4 309.7,826.3 516.5,826.3 	"/>
	<path class="st0" d="M817.6,119.3v693.4c0,20.8-16.8,37.5-37.5,37.5H46.1c-20.8,0-37.5-16.8-37.5-37.5V119.3
		c0-20.7,16.8-37.5,37.5-37.5h733.9C800.8,81.7,817.6,98.5,817.6,119.3z"/>
	<path class="st1" d="M817.6,576.6v236c0,20.8-16.8,37.5-37.5,37.5H46.1c-20.8,0-37.5-16.8-37.5-37.5V329.4
		C173.9,577.9,453.4,836.4,817.6,576.6z"/>
	<g>
		<path class="st2" d="M112.4,272.1l-13.1-23.8h-3.7v23.8H80.2V209H106c5,0,9.2,0.9,12.7,2.6c3.5,1.7,6.1,4.1,7.9,7.2
			c1.7,3,2.6,6.4,2.6,10.1c0,4.2-1.2,7.9-3.6,11.2c-2.4,3.3-5.9,5.6-10.5,7l14.6,25H112.4z M95.6,237.4h9.5c2.8,0,4.9-0.7,6.3-2.1
			c1.4-1.4,2.1-3.3,2.1-5.8c0-2.4-0.7-4.3-2.1-5.7c-1.4-1.4-3.5-2.1-6.3-2.1h-9.5V237.4z"/>
		<path class="st2" d="M185.9,250.7h-34.8c0.2,3.1,1.2,5.5,3,7.2c1.8,1.6,3.9,2.5,6.5,2.5c3.8,0,6.5-1.6,8-4.9H185
			c-0.8,3.3-2.4,6.3-4.5,8.9c-2.2,2.6-4.9,4.7-8.2,6.2c-3.3,1.5-7,2.2-11.1,2.2c-4.9,0-9.3-1-13.1-3.1c-3.8-2.1-6.8-5.1-9-9
			c-2.2-3.9-3.2-8.5-3.2-13.7s1.1-9.8,3.2-13.7c2.1-3.9,5.1-6.9,9-9c3.8-2.1,8.2-3.1,13.2-3.1c4.9,0,9.2,1,13,3.1
			c3.8,2,6.7,4.9,8.9,8.7c2.1,3.8,3.2,8.2,3.2,13.2C186.2,247.6,186.1,249.1,185.9,250.7z M170.4,242.2c0-2.6-0.9-4.7-2.7-6.3
			s-4-2.3-6.7-2.3c-2.6,0-4.8,0.8-6.5,2.2c-1.8,1.5-2.9,3.6-3.3,6.4H170.4z"/>
		<path class="st2" d="M194.1,233.3c1.9-3.9,4.6-6.9,8-9c3.4-2.1,7.1-3.1,11.2-3.1c3.5,0,6.6,0.7,9.3,2.2c2.7,1.4,4.7,3.3,6.2,5.7
			v-7.1h15.4v50.2h-15.4V265c-1.5,2.3-3.6,4.2-6.3,5.7c-2.7,1.4-5.8,2.2-9.3,2.2c-4.1,0-7.8-1.1-11.2-3.2c-3.4-2.1-6-5.2-8-9.1
			c-1.9-3.9-2.9-8.5-2.9-13.6C191.2,241.8,192.2,237.2,194.1,233.3z M225.6,237.9c-2.1-2.2-4.7-3.3-7.8-3.3s-5.7,1.1-7.8,3.3
			c-2.1,2.2-3.2,5.2-3.2,9s1.1,6.9,3.2,9.1c2.1,2.2,4.7,3.4,7.8,3.4s5.7-1.1,7.8-3.3c2.1-2.2,3.2-5.2,3.2-9.1
			C228.8,243.2,227.7,240.1,225.6,237.9z"/>
		<path class="st2" d="M255.5,233.3c2.1-3.9,5.1-6.9,8.9-9c3.8-2.1,8.2-3.1,13.1-3.1c6.3,0,11.6,1.6,15.8,4.9
			c4.2,3.3,7,7.9,8.3,13.9h-16.4c-1.4-3.8-4-5.8-8-5.8c-2.8,0-5.1,1.1-6.7,3.3c-1.7,2.2-2.5,5.3-2.5,9.4c0,4.1,0.8,7.2,2.5,9.4
			c1.7,2.2,3.9,3.3,6.7,3.3c4,0,6.6-1.9,8-5.8h16.4c-1.3,5.9-4.1,10.5-8.4,13.9c-4.3,3.4-9.5,5-15.7,5c-4.9,0-9.3-1-13.1-3.1
			c-3.8-2.1-6.8-5.1-8.9-9c-2.1-3.9-3.2-8.5-3.2-13.7S253.3,237.2,255.5,233.3z"/>
		<path class="st2" d="M354.5,227.1c3.5,3.8,5.2,9,5.2,15.7v29.3h-15.3v-27.3c0-3.4-0.9-6-2.6-7.8c-1.7-1.9-4.1-2.8-7-2.8
			c-2.9,0-5.3,0.9-7,2.8c-1.7,1.9-2.6,4.5-2.6,7.8v27.3h-15.4v-66.6h15.4v23.1c1.6-2.2,3.7-4,6.4-5.3c2.7-1.3,5.7-2,9.1-2
			C346.4,221.4,351,223.3,354.5,227.1z"/>
		<path class="st2" d="M151.7,316.9v63.1h-15.4v-37.9l-14.1,37.9h-12.4l-14.2-38v38H80.2v-63.1h18.2l17.7,43.7l17.5-43.7H151.7z"/>
		<path class="st2" d="M163.9,322.3c-1.7-1.6-2.6-3.6-2.6-5.9c0-2.4,0.9-4.4,2.6-6c1.7-1.6,3.9-2.4,6.6-2.4c2.6,0,4.8,0.8,6.5,2.4
			c1.7,1.6,2.6,3.6,2.6,6c0,2.3-0.9,4.3-2.6,5.9c-1.7,1.6-3.9,2.4-6.5,2.4C167.8,324.6,165.6,323.8,163.9,322.3z M178.2,329.9v50.2
			h-15.4v-50.2H178.2z"/>
		<path class="st2" d="M204.7,313.5v66.6h-15.4v-66.6H204.7z"/>
		<path class="st2" d="M262.9,358.6h-34.8c0.2,3.1,1.2,5.5,3,7.2c1.8,1.6,3.9,2.5,6.5,2.5c3.8,0,6.5-1.6,8-4.9H262
			c-0.8,3.3-2.4,6.3-4.5,8.9c-2.2,2.6-4.9,4.7-8.2,6.2c-3.3,1.5-7,2.2-11.1,2.2c-4.9,0-9.3-1-13.1-3.1c-3.8-2.1-6.8-5.1-9-9
			c-2.2-3.9-3.2-8.5-3.2-13.7s1.1-9.8,3.2-13.7c2.1-3.9,5.1-6.9,9-9c3.8-2.1,8.2-3.1,13.2-3.1c4.9,0,9.2,1,13,3.1
			c3.8,2,6.7,4.9,8.9,8.7c2.1,3.8,3.2,8.2,3.2,13.2C263.2,355.6,263.1,357.1,262.9,358.6z M247.4,350.1c0-2.6-0.9-4.7-2.7-6.3
			s-4-2.3-6.7-2.3c-2.6,0-4.8,0.8-6.5,2.2c-1.8,1.5-2.9,3.6-3.3,6.4H247.4z"/>
		<path class="st2" d="M280,378.5c-3.4-1.5-6.1-3.6-8.1-6.2c-2-2.6-3.1-5.5-3.3-8.8h15.2c0.2,1.7,1,3.1,2.4,4.2
			c1.4,1.1,3.2,1.6,5.3,1.6c1.9,0,3.4-0.4,4.5-1.1c1-0.7,1.6-1.7,1.6-2.9c0-1.4-0.8-2.5-2.2-3.2c-1.5-0.7-3.9-1.5-7.3-2.3
			c-3.6-0.8-6.6-1.7-9-2.7c-2.4-0.9-4.5-2.4-6.2-4.4c-1.7-2-2.6-4.7-2.6-8.1c0-2.9,0.8-5.5,2.4-7.9c1.6-2.4,3.9-4.2,7-5.6
			c3.1-1.4,6.8-2.1,11-2.1c6.3,0,11.3,1.6,14.9,4.7c3.6,3.1,5.7,7.3,6.3,12.4h-14.2c-0.2-1.7-1-3.1-2.3-4.1c-1.3-1-3-1.5-5.1-1.5
			c-1.8,0-3.2,0.3-4.1,1c-1,0.7-1.4,1.6-1.4,2.8c0,1.4,0.8,2.5,2.3,3.2c1.5,0.7,3.9,1.4,7.2,2.2c3.7,1,6.7,1.9,9.1,2.8
			c2.3,0.9,4.4,2.4,6.2,4.5c1.8,2.1,2.7,4.8,2.7,8.3c0,2.9-0.8,5.6-2.5,7.9c-1.7,2.3-4,4.1-7.1,5.4c-3.1,1.3-6.7,2-10.8,2
			C287.3,380.8,283.4,380,280,378.5z"/>
		<path class="st2" d="M349.4,367v13h-7.8c-5.6,0-9.9-1.4-13-4.1c-3.1-2.7-4.7-7.2-4.7-13.4v-20h-6.1v-12.8h6.1v-12.2h15.4v12.2
			h10.1v12.8h-10.1v20.2c0,1.5,0.4,2.6,1.1,3.2c0.7,0.7,1.9,1,3.6,1H349.4z"/>
		<path class="st2" d="M367.6,377.6c-3.9-2.1-7-5.1-9.3-9c-2.2-3.9-3.4-8.5-3.4-13.7c0-5.2,1.1-9.7,3.4-13.6c2.3-3.9,5.4-6.9,9.4-9
			c4-2.1,8.4-3.1,13.3-3.1c4.9,0,9.4,1,13.3,3.1c4,2.1,7.1,5.1,9.4,9c2.3,3.9,3.4,8.5,3.4,13.6c0,5.2-1.2,9.7-3.5,13.6
			c-2.3,3.9-5.5,6.9-9.4,9c-4,2.1-8.4,3.1-13.4,3.1C375.9,380.8,371.5,379.7,367.6,377.6z M388.3,364.2c2.1-2.2,3.1-5.2,3.1-9.3
			c0-4-1-7.1-3-9.3c-2-2.2-4.5-3.2-7.4-3.2c-3,0-5.5,1.1-7.5,3.2c-2,2.1-3,5.2-3,9.3c0,4,1,7.1,2.9,9.3c1.9,2.2,4.4,3.2,7.3,3.2
			S386.3,366.4,388.3,364.2z"/>
		<path class="st2" d="M459.9,335c3.5,3.8,5.3,9,5.3,15.7v29.3h-15.3v-27.3c0-3.4-0.9-6-2.6-7.8c-1.7-1.9-4.1-2.8-7-2.8
			c-2.9,0-5.3,0.9-7,2.8c-1.7,1.9-2.6,4.5-2.6,7.8v27.3h-15.4v-50.2h15.4v6.7c1.6-2.2,3.7-4,6.3-5.3c2.6-1.3,5.6-1.9,8.9-1.9
			C451.7,329.3,456.4,331.2,459.9,335z"/>
		<path class="st2" d="M523,358.6h-34.8c0.2,3.1,1.2,5.5,3,7.2c1.8,1.6,3.9,2.5,6.5,2.5c3.8,0,6.5-1.6,8-4.9h16.4
			c-0.8,3.3-2.4,6.3-4.5,8.9c-2.2,2.6-4.9,4.7-8.2,6.2c-3.3,1.5-7,2.2-11.1,2.2c-4.9,0-9.3-1-13.1-3.1c-3.8-2.1-6.8-5.1-9-9
			c-2.2-3.9-3.2-8.5-3.2-13.7s1.1-9.8,3.2-13.7c2.1-3.9,5.1-6.9,9-9c3.8-2.1,8.2-3.1,13.2-3.1c4.9,0,9.2,1,13,3.1
			c3.8,2,6.7,4.9,8.9,8.7c2.1,3.8,3.2,8.2,3.2,13.2C523.2,355.6,523.1,357.1,523,358.6z M507.5,350.1c0-2.6-0.9-4.7-2.7-6.3
			s-4-2.3-6.7-2.3c-2.6,0-4.8,0.8-6.5,2.2c-1.8,1.5-2.9,3.6-3.3,6.4H507.5z"/>
		<path class="st2" d="M540,378.5c-3.4-1.5-6.1-3.6-8.1-6.2c-2-2.6-3.1-5.5-3.3-8.8h15.2c0.2,1.7,1,3.1,2.4,4.2
			c1.4,1.1,3.2,1.6,5.3,1.6c1.9,0,3.4-0.4,4.5-1.1c1-0.7,1.6-1.7,1.6-2.9c0-1.4-0.8-2.5-2.2-3.2c-1.5-0.7-3.9-1.5-7.3-2.3
			c-3.6-0.8-6.6-1.7-9-2.7c-2.4-0.9-4.5-2.4-6.2-4.4c-1.7-2-2.6-4.7-2.6-8.1c0-2.9,0.8-5.5,2.4-7.9c1.6-2.4,3.9-4.2,7-5.6
			c3.1-1.4,6.8-2.1,11-2.1c6.3,0,11.3,1.6,14.9,4.7c3.6,3.1,5.7,7.3,6.3,12.4h-14.2c-0.2-1.7-1-3.1-2.3-4.1c-1.3-1-3-1.5-5.1-1.5
			c-1.8,0-3.2,0.3-4.1,1c-1,0.7-1.4,1.6-1.4,2.8c0,1.4,0.8,2.5,2.3,3.2c1.5,0.7,3.9,1.4,7.2,2.2c3.7,1,6.7,1.9,9.1,2.8
			c2.3,0.9,4.4,2.4,6.2,4.5c1.8,2.1,2.7,4.8,2.7,8.3c0,2.9-0.8,5.6-2.5,7.9c-1.7,2.3-4,4.1-7.1,5.4c-3.1,1.3-6.7,2-10.8,2
			C547.4,380.8,543.5,380,540,378.5z"/>
	</g>
	<g>
		<path class="st2" d="M113.3,486.2c-3.2,3.1-8,4.6-14.5,4.6H88.1v23.3h-7.3v-55.7h18c6.3,0,11.1,1.5,14.4,4.6c3.3,3,4.9,7,4.9,11.8
			C118,479.3,116.5,483.1,113.3,486.2z M107.7,482.2c1.9-1.8,2.9-4.3,2.9-7.5c0-6.9-3.9-10.3-11.8-10.3H88.1v20.5h10.7
			C102.8,484.8,105.8,483.9,107.7,482.2z"/>
		<path class="st2" d="M127.1,480.2c1.8-3.4,4.3-6,7.5-7.9c3.2-1.9,6.7-2.8,10.6-2.8c3.8,0,7.2,0.8,10,2.5c2.8,1.7,4.9,3.7,6.3,6.2
			v-8h7.4v43.8h-7.4v-8.2c-1.4,2.6-3.6,4.7-6.4,6.4c-2.9,1.7-6.2,2.5-10,2.5c-3.9,0-7.4-1-10.6-2.9c-3.1-1.9-5.6-4.6-7.4-8.1
			c-1.8-3.5-2.7-7.4-2.7-11.8C124.4,487.5,125.3,483.6,127.1,480.2z M159.5,483.5c-1.3-2.5-3.1-4.3-5.4-5.6c-2.3-1.3-4.8-2-7.5-2
			s-5.2,0.6-7.4,1.9c-2.2,1.3-4,3.1-5.4,5.6c-1.3,2.5-2,5.3-2,8.6c0,3.4,0.7,6.3,2,8.8c1.3,2.5,3.1,4.4,5.4,5.7c2.2,1.3,4.7,2,7.4,2
			s5.2-0.7,7.5-2c2.3-1.3,4.1-3.2,5.4-5.7c1.3-2.5,2-5.4,2-8.7C161.5,488.8,160.8,485.9,159.5,483.5z"/>
		<path class="st2" d="M193.9,471.5c2.4-1.4,5.3-2.1,8.7-2.1v7.5h-1.9c-8.2,0-12.2,4.4-12.2,13.3v23.8h-7.3v-43.8h7.3v7.1
			C189.7,474.9,191.5,472.9,193.9,471.5z"/>
		<path class="st2" d="M219.8,476.3v25.8c0,2.1,0.5,3.6,1.4,4.5c0.9,0.9,2.5,1.3,4.7,1.3h5.4v6.2h-6.6c-4.1,0-7.1-0.9-9.1-2.8
			c-2-1.9-3-4.9-3-9.2v-25.8h-5.7v-6h5.7v-11h7.3v11h11.4v6H219.8z"/>
		<path class="st2" d="M240.3,461.7c-1-1-1.4-2.1-1.4-3.5c0-1.4,0.5-2.6,1.4-3.5c1-1,2.1-1.4,3.5-1.4c1.3,0,2.5,0.5,3.4,1.4
			c0.9,1,1.4,2.1,1.4,3.5c0,1.4-0.5,2.6-1.4,3.5c-0.9,1-2.1,1.4-3.4,1.4C242.4,463.1,241.3,462.7,240.3,461.7z M247.3,470.3v43.8
			h-7.3v-43.8H247.3z"/>
		<path class="st2" d="M259.7,480.2c1.8-3.4,4.3-6,7.6-7.9c3.2-1.9,6.9-2.8,11.1-2.8c5.4,0,9.8,1.3,13.3,3.9
			c3.5,2.6,5.8,6.2,6.9,10.9h-7.8c-0.7-2.7-2.2-4.8-4.4-6.3c-2.2-1.5-4.8-2.3-8-2.3c-4.2,0-7.5,1.4-10.1,4.3
			c-2.6,2.9-3.8,6.9-3.8,12.1c0,5.3,1.3,9.4,3.8,12.2c2.6,2.9,5.9,4.3,10.1,4.3c3.2,0,5.9-0.7,8-2.2c2.1-1.5,3.6-3.6,4.4-6.4h7.8
			c-1.2,4.5-3.5,8.1-7,10.8c-3.5,2.7-7.9,4-13.2,4c-4.2,0-7.8-0.9-11.1-2.8c-3.2-1.9-5.7-4.5-7.6-7.9c-1.8-3.4-2.7-7.4-2.7-12
			C257,487.6,257.9,483.6,259.7,480.2z"/>
		<path class="st2" d="M308.5,461.7c-1-1-1.4-2.1-1.4-3.5c0-1.4,0.5-2.6,1.4-3.5c1-1,2.1-1.4,3.5-1.4c1.3,0,2.5,0.5,3.4,1.4
			c0.9,1,1.4,2.1,1.4,3.5c0,1.4-0.5,2.6-1.4,3.5c-0.9,1-2.1,1.4-3.4,1.4C310.6,463.1,309.5,462.7,308.5,461.7z M315.5,470.3v43.8
			h-7.3v-43.8H315.5z"/>
		<path class="st2" d="M341.6,472.1c2.9-1.7,6.2-2.5,10-2.5c3.9,0,7.4,0.9,10.6,2.8c3.2,1.9,5.7,4.5,7.5,7.9
			c1.8,3.4,2.7,7.3,2.7,11.8c0,4.4-0.9,8.4-2.7,11.8c-1.8,3.5-4.3,6.2-7.5,8.1s-6.7,2.9-10.6,2.9c-3.7,0-7-0.8-9.9-2.5
			c-2.9-1.7-5-3.8-6.5-6.3v28.9h-7.3v-64.6h7.3v8.1C336.6,475.8,338.8,473.7,341.6,472.1z M363,483.4c-1.3-2.5-3.1-4.3-5.4-5.6
			s-4.8-1.9-7.5-1.9c-2.7,0-5.1,0.7-7.4,2c-2.3,1.3-4.1,3.2-5.4,5.7c-1.4,2.5-2,5.3-2,8.6c0,3.3,0.7,6.2,2,8.7s3.2,4.4,5.4,5.7
			c2.3,1.3,4.7,2,7.4,2c2.7,0,5.2-0.7,7.5-2c2.3-1.3,4.1-3.2,5.4-5.7c1.3-2.5,2-5.4,2-8.8C365,488.7,364.3,485.8,363,483.4z"/>
		<path class="st2" d="M382,480.2c1.8-3.4,4.3-6,7.5-7.9c3.2-1.9,6.7-2.8,10.6-2.8c3.8,0,7.2,0.8,10,2.5c2.8,1.7,4.9,3.7,6.3,6.2v-8
			h7.4v43.8h-7.4v-8.2c-1.4,2.6-3.6,4.7-6.4,6.4c-2.9,1.7-6.2,2.5-10,2.5c-3.9,0-7.4-1-10.6-2.9c-3.1-1.9-5.6-4.6-7.4-8.1
			c-1.8-3.5-2.7-7.4-2.7-11.8C379.3,487.5,380.2,483.6,382,480.2z M414.4,483.5c-1.3-2.5-3.1-4.3-5.4-5.6c-2.3-1.3-4.8-2-7.5-2
			s-5.2,0.6-7.4,1.9c-2.2,1.3-4,3.1-5.4,5.6c-1.3,2.5-2,5.3-2,8.6c0,3.4,0.7,6.3,2,8.8c1.3,2.5,3.1,4.4,5.4,5.7c2.2,1.3,4.7,2,7.4,2
			s5.2-0.7,7.5-2c2.3-1.3,4.1-3.2,5.4-5.7c1.3-2.5,2-5.4,2-8.7C416.4,488.8,415.7,485.9,414.4,483.5z"/>
		<path class="st2" d="M444.9,476.3v25.8c0,2.1,0.5,3.6,1.4,4.5c0.9,0.9,2.5,1.3,4.7,1.3h5.4v6.2h-6.6c-4.1,0-7.1-0.9-9.1-2.8
			c-2-1.9-3-4.9-3-9.2v-25.8H432v-6h5.7v-11h7.3v11h11.4v6H444.9z"/>
		<path class="st2" d="M504.9,494.9h-35c0.3,4.3,1.7,7.7,4.4,10.1c2.7,2.4,6,3.6,9.8,3.6c3.1,0,5.8-0.7,7.9-2.2
			c2.1-1.5,3.6-3.4,4.4-5.9h7.8c-1.2,4.2-3.5,7.6-7,10.3s-7.9,4-13.1,4c-4.2,0-7.9-0.9-11.2-2.8c-3.3-1.9-5.9-4.5-7.7-8
			c-1.9-3.4-2.8-7.4-2.8-12c0-4.5,0.9-8.5,2.7-11.9c1.8-3.4,4.4-6,7.6-7.9c3.3-1.8,7-2.8,11.3-2.8c4.2,0,7.8,0.9,11,2.7
			s5.7,4.3,7.4,7.5c1.7,3.2,2.6,6.8,2.6,10.8C505.1,491.9,505,493.3,504.9,494.9z M495.8,481.8c-1.2-2-2.9-3.5-5-4.6
			c-2.1-1-4.4-1.6-7-1.6c-3.7,0-6.8,1.2-9.4,3.5c-2.6,2.3-4.1,5.6-4.4,9.8h27.7C497.6,486.2,497,483.8,495.8,481.8z"/>
		<path class="st2" d="M536.3,461.7c-1-1-1.4-2.1-1.4-3.5c0-1.4,0.5-2.6,1.4-3.5c1-1,2.1-1.4,3.5-1.4c1.3,0,2.5,0.5,3.4,1.4
			c0.9,1,1.4,2.1,1.4,3.5c0,1.4-0.5,2.6-1.4,3.5c-0.9,1-2.1,1.4-3.4,1.4C538.4,463.1,537.3,462.7,536.3,461.7z M543.3,470.3v43.8
			h-7.3v-43.8H543.3z"/>
		<path class="st2" d="M590,474.3c3.3,3.2,5,7.9,5,14v25.8h-7.2v-24.8c0-4.4-1.1-7.7-3.3-10c-2.2-2.3-5.2-3.5-9-3.5
			c-3.8,0-6.9,1.2-9.2,3.6c-2.3,2.4-3.4,5.9-3.4,10.5v24.2h-7.3v-43.8h7.3v6.2c1.4-2.2,3.4-4,5.9-5.2c2.5-1.2,5.2-1.8,8.2-1.8
			C582.4,469.5,586.7,471.1,590,474.3z"/>
		<path class="st2" d="M628.3,480.2c1.8-3.4,4.3-6,7.5-7.9c3.2-1.9,6.7-2.8,10.6-2.8c3.8,0,7.2,0.8,10,2.5c2.8,1.7,4.9,3.7,6.3,6.2
			v-8h7.4v43.8h-7.4v-8.2c-1.4,2.6-3.6,4.7-6.4,6.4c-2.9,1.7-6.2,2.5-10,2.5c-3.9,0-7.4-1-10.6-2.9c-3.1-1.9-5.6-4.6-7.4-8.1
			c-1.8-3.5-2.7-7.4-2.7-11.8C625.5,487.5,626.4,483.6,628.3,480.2z M660.6,483.5c-1.3-2.5-3.1-4.3-5.4-5.6c-2.3-1.3-4.8-2-7.5-2
			s-5.2,0.6-7.4,1.9c-2.2,1.3-4,3.1-5.4,5.6c-1.3,2.5-2,5.3-2,8.6c0,3.4,0.7,6.3,2,8.8c1.3,2.5,3.1,4.4,5.4,5.7c2.2,1.3,4.7,2,7.4,2
			s5.2-0.7,7.5-2c2.3-1.3,4.1-3.2,5.4-5.7c1.3-2.5,2-5.4,2-8.7C662.6,488.8,662,485.9,660.6,483.5z"/>
		<path class="st2" d="M87.3,609c-2.7-1.1-4.8-2.7-6.3-4.8c-1.5-2.1-2.4-4.4-2.6-7.1h7.5c0.2,2.2,1.2,4,3.1,5.4
			c1.8,1.4,4.2,2.1,7.2,2.1c2.8,0,5-0.6,6.6-1.8c1.6-1.2,2.4-2.8,2.4-4.6c0-1.9-0.9-3.3-2.6-4.3c-1.7-0.9-4.3-1.9-7.9-2.8
			c-3.3-0.9-5.9-1.7-8-2.6c-2.1-0.9-3.8-2.2-5.3-3.9c-1.5-1.7-2.2-4-2.2-6.8c0-2.2,0.7-4.3,2-6.2c1.3-1.9,3.2-3.3,5.7-4.4
			c2.5-1.1,5.2-1.6,8.4-1.6c4.9,0,8.8,1.2,11.8,3.7c3,2.5,4.6,5.8,4.8,10.1h-7.3c-0.2-2.3-1.1-4.1-2.8-5.5c-1.7-1.4-3.9-2.1-6.8-2.1
			c-2.6,0-4.7,0.6-6.2,1.7c-1.5,1.1-2.3,2.6-2.3,4.4c0,1.4,0.5,2.6,1.4,3.6c0.9,0.9,2.1,1.7,3.5,2.2c1.4,0.6,3.4,1.2,5.9,1.9
			c3.1,0.9,5.7,1.7,7.7,2.5c2,0.8,3.7,2.1,5.1,3.7c1.4,1.7,2.1,3.8,2.2,6.5c0,2.4-0.7,4.6-2,6.5c-1.3,1.9-3.2,3.4-5.6,4.5
			c-2.4,1.1-5.2,1.6-8.4,1.6C92.9,610.8,89.9,610.2,87.3,609z"/>
		<path class="st2" d="M153.2,567.5c2.7,1.4,4.8,3.5,6.3,6.4c1.5,2.8,2.3,6.3,2.3,10.3V610h-7.2v-24.8c0-4.4-1.1-7.7-3.3-10
			c-2.2-2.3-5.2-3.5-9-3.5c-3.8,0-6.9,1.2-9.2,3.6c-2.3,2.4-3.4,5.9-3.4,10.5V610h-7.3v-59.2h7.3v21.6c1.4-2.2,3.4-4,6-5.2
			c2.5-1.2,5.4-1.8,8.5-1.8C147.6,565.4,150.6,566.1,153.2,567.5z"/>
		<path class="st2" d="M181.6,608c-3.3-1.9-5.9-4.5-7.8-8c-1.9-3.4-2.8-7.4-2.8-12c0-4.5,1-8.4,2.9-11.9c1.9-3.4,4.6-6.1,8-7.9
			c3.4-1.8,7.1-2.8,11.3-2.8c4.2,0,7.9,0.9,11.3,2.8c3.4,1.8,6,4.5,8,7.9c1.9,3.4,2.9,7.4,2.9,11.9c0,4.5-1,8.5-3,12s-4.7,6.1-8.1,8
			c-3.4,1.9-7.2,2.8-11.4,2.8C188.7,610.8,185,609.8,181.6,608z M200.2,602.5c2.3-1.2,4.1-3.1,5.6-5.5c1.4-2.5,2.1-5.4,2.1-9
			s-0.7-6.5-2.1-9c-1.4-2.5-3.2-4.3-5.4-5.5c-2.2-1.2-4.7-1.8-7.3-1.8c-2.7,0-5.1,0.6-7.3,1.8c-2.2,1.2-4,3-5.3,5.5
			c-1.3,2.5-2,5.4-2,9c0,3.6,0.7,6.6,2,9c1.3,2.5,3.1,4.3,5.2,5.5c2.2,1.2,4.6,1.8,7.2,1.8C195.4,604.4,197.9,603.7,200.2,602.5z"/>
		<path class="st2" d="M283.2,566.2L269.6,610H262l-10.6-34.8L240.9,610h-7.5l-13.8-43.8h7.4l10.1,36.8l10.9-36.8h7.4l10.6,36.9
			l9.9-36.9H283.2z"/>
		<path class="st2" d="M290.4,576.2c1.8-3.4,4.3-6,7.6-7.9c3.2-1.9,6.9-2.8,11.1-2.8c5.4,0,9.8,1.3,13.3,3.9
			c3.5,2.6,5.8,6.2,6.9,10.9h-7.8c-0.7-2.7-2.2-4.8-4.4-6.3c-2.2-1.5-4.8-2.3-8-2.3c-4.2,0-7.5,1.4-10.1,4.3
			c-2.6,2.9-3.8,6.9-3.8,12.1c0,5.3,1.3,9.4,3.8,12.2c2.6,2.9,5.9,4.3,10.1,4.3c3.2,0,5.9-0.7,8-2.2c2.1-1.5,3.6-3.6,4.4-6.4h7.8
			c-1.2,4.5-3.5,8.1-7,10.8c-3.5,2.7-7.9,4-13.2,4c-4.2,0-7.8-0.9-11.1-2.8c-3.2-1.9-5.7-4.5-7.6-7.9c-1.8-3.4-2.7-7.4-2.7-12
			C287.7,583.5,288.6,579.6,290.4,576.2z"/>
		<path class="st2" d="M339,576.2c1.8-3.4,4.3-6,7.5-7.9c3.2-1.9,6.7-2.8,10.6-2.8c3.8,0,7.2,0.8,10,2.5c2.8,1.7,4.9,3.7,6.3,6.2v-8
			h7.4V610h-7.4v-8.2c-1.4,2.6-3.6,4.7-6.4,6.4c-2.9,1.7-6.2,2.5-10,2.5c-3.9,0-7.4-1-10.6-2.9c-3.1-1.9-5.6-4.6-7.4-8.1
			c-1.8-3.5-2.7-7.4-2.7-11.8C336.2,583.5,337.2,579.6,339,576.2z M371.4,579.4c-1.3-2.5-3.1-4.3-5.4-5.6c-2.3-1.3-4.8-2-7.5-2
			s-5.2,0.6-7.4,1.9c-2.2,1.3-4,3.1-5.4,5.6c-1.3,2.5-2,5.3-2,8.6c0,3.4,0.7,6.3,2,8.8c1.3,2.5,3.1,4.4,5.4,5.7c2.2,1.3,4.7,2,7.4,2
			s5.2-0.7,7.5-2c2.3-1.3,4.1-3.2,5.4-5.7c1.3-2.5,2-5.4,2-8.7C373.4,584.7,372.7,581.9,371.4,579.4z"/>
		<path class="st2" d="M399.5,609c-2.7-1.1-4.8-2.7-6.3-4.8c-1.5-2.1-2.4-4.4-2.6-7.1h7.5c0.2,2.2,1.2,4,3.1,5.4
			c1.8,1.4,4.2,2.1,7.2,2.1c2.8,0,5-0.6,6.6-1.8c1.6-1.2,2.4-2.8,2.4-4.6c0-1.9-0.9-3.3-2.6-4.3c-1.7-0.9-4.3-1.9-7.9-2.8
			c-3.3-0.9-5.9-1.7-8-2.6c-2.1-0.9-3.8-2.2-5.3-3.9c-1.5-1.7-2.2-4-2.2-6.8c0-2.2,0.7-4.3,2-6.2c1.3-1.9,3.2-3.3,5.7-4.4
			c2.5-1.1,5.2-1.6,8.4-1.6c4.9,0,8.8,1.2,11.8,3.7c3,2.5,4.6,5.8,4.8,10.1h-7.3c-0.2-2.3-1.1-4.1-2.8-5.5c-1.7-1.4-3.9-2.1-6.8-2.1
			c-2.6,0-4.7,0.6-6.2,1.7c-1.5,1.1-2.3,2.6-2.3,4.4c0,1.4,0.5,2.6,1.4,3.6c0.9,0.9,2.1,1.7,3.5,2.2c1.4,0.6,3.4,1.2,5.9,1.9
			c3.1,0.9,5.7,1.7,7.7,2.5c2,0.8,3.7,2.1,5.1,3.7c1.4,1.7,2.1,3.8,2.2,6.5c0,2.4-0.7,4.6-2,6.5c-1.3,1.9-3.2,3.4-5.6,4.5
			c-2.4,1.1-5.2,1.6-8.4,1.6C405.2,610.8,402.2,610.2,399.5,609z"/>
		<path class="st2" d="M474.5,590.8h-35c0.3,4.3,1.7,7.7,4.4,10.1c2.7,2.4,6,3.6,9.8,3.6c3.1,0,5.8-0.7,7.9-2.2
			c2.1-1.5,3.6-3.4,4.4-5.9h7.8c-1.2,4.2-3.5,7.6-7,10.3s-7.9,4-13.1,4c-4.2,0-7.9-0.9-11.2-2.8c-3.3-1.9-5.9-4.5-7.7-8
			c-1.9-3.4-2.8-7.4-2.8-12c0-4.5,0.9-8.5,2.7-11.9c1.8-3.4,4.4-6,7.6-7.9c3.3-1.8,7-2.8,11.3-2.8c4.2,0,7.8,0.9,11,2.7
			s5.7,4.3,7.4,7.5c1.7,3.2,2.6,6.8,2.6,10.8C474.7,587.8,474.7,589.3,474.5,590.8z M465.4,577.8c-1.2-2-2.9-3.5-5-4.6
			c-2.1-1-4.4-1.6-7-1.6c-3.7,0-6.8,1.2-9.4,3.5c-2.6,2.3-4.1,5.6-4.4,9.8h27.7C467.2,582.2,466.6,579.8,465.4,577.8z"/>
		<path class="st2" d="M513.6,608c-3.3-1.9-5.9-4.5-7.8-8c-1.9-3.4-2.8-7.4-2.8-12c0-4.5,1-8.4,2.9-11.9c1.9-3.4,4.6-6.1,8-7.9
			c3.4-1.8,7.1-2.8,11.3-2.8c4.2,0,7.9,0.9,11.3,2.8c3.4,1.8,6,4.5,8,7.9c1.9,3.4,2.9,7.4,2.9,11.9c0,4.5-1,8.5-3,12s-4.7,6.1-8.1,8
			c-3.4,1.9-7.2,2.8-11.4,2.8C520.7,610.8,517,609.8,513.6,608z M532.2,602.5c2.3-1.2,4.1-3.1,5.6-5.5c1.4-2.5,2.1-5.4,2.1-9
			s-0.7-6.5-2.1-9c-1.4-2.5-3.2-4.3-5.4-5.5c-2.2-1.2-4.7-1.8-7.3-1.8c-2.7,0-5.1,0.6-7.3,1.8c-2.2,1.2-4,3-5.3,5.5
			c-1.3,2.5-2,5.4-2,9c0,3.6,0.7,6.6,2,9c1.3,2.5,3.1,4.3,5.2,5.5c2.2,1.2,4.6,1.8,7.2,1.8C527.4,604.4,529.9,603.7,532.2,602.5z"/>
		<path class="st2" d="M569.6,567.5c2.4-1.4,5.3-2.1,8.7-2.1v7.5h-1.9c-8.2,0-12.2,4.4-12.2,13.3V610h-7.3v-43.8h7.3v7.1
			C565.4,570.8,567.2,568.9,569.6,567.5z"/>
		<path class="st2" d="M80.8,672.1c1.8-3.4,4.3-6,7.6-7.9c3.2-1.9,6.9-2.8,11.1-2.8c5.4,0,9.8,1.3,13.3,3.9
			c3.5,2.6,5.8,6.2,6.9,10.9h-7.8c-0.7-2.7-2.2-4.8-4.4-6.3c-2.2-1.5-4.8-2.3-8-2.3c-4.2,0-7.5,1.4-10.1,4.3
			c-2.6,2.9-3.8,6.9-3.8,12.1c0,5.3,1.3,9.4,3.8,12.2c2.6,2.9,5.9,4.3,10.1,4.3c3.2,0,5.9-0.7,8-2.2c2.1-1.5,3.6-3.6,4.4-6.4h7.8
			c-1.2,4.5-3.5,8.1-7,10.8c-3.5,2.7-7.9,4-13.2,4c-4.2,0-7.8-0.9-11.1-2.8c-3.2-1.9-5.7-4.5-7.6-7.9c-1.8-3.4-2.7-7.4-2.7-12
			C78.1,679.5,79,675.5,80.8,672.1z"/>
		<path class="st2" d="M160,663.5c2.7,1.4,4.8,3.5,6.3,6.4c1.5,2.8,2.3,6.3,2.3,10.3V706h-7.2v-24.8c0-4.4-1.1-7.7-3.3-10
			c-2.2-2.3-5.2-3.5-9-3.5c-3.8,0-6.9,1.2-9.2,3.6c-2.3,2.4-3.4,5.9-3.4,10.5V706h-7.3v-59.2h7.3v21.6c1.4-2.2,3.4-4,6-5.2
			c2.5-1.2,5.4-1.8,8.5-1.8C154.4,661.4,157.4,662.1,160,663.5z"/>
		<path class="st2" d="M180.5,672.1c1.8-3.4,4.3-6,7.5-7.9c3.2-1.9,6.7-2.8,10.6-2.8c3.8,0,7.2,0.8,10,2.5c2.8,1.7,4.9,3.7,6.3,6.2
			v-8h7.4V706h-7.4v-8.2c-1.4,2.6-3.6,4.7-6.4,6.4c-2.9,1.7-6.2,2.5-10,2.5c-3.9,0-7.4-1-10.6-2.9c-3.1-1.9-5.6-4.6-7.4-8.1
			c-1.8-3.5-2.7-7.4-2.7-11.8C177.8,679.4,178.7,675.5,180.5,672.1z M212.9,675.4c-1.3-2.5-3.1-4.3-5.4-5.6c-2.3-1.3-4.8-2-7.5-2
			s-5.2,0.6-7.4,1.9c-2.2,1.3-4,3.1-5.4,5.6c-1.3,2.5-2,5.3-2,8.6c0,3.4,0.7,6.3,2,8.8c1.3,2.5,3.1,4.4,5.4,5.7c2.2,1.3,4.7,2,7.4,2
			s5.2-0.7,7.5-2c2.3-1.3,4.1-3.2,5.4-5.7c1.3-2.5,2-5.4,2-8.7C214.9,680.7,214.2,677.8,212.9,675.4z"/>
		<path class="st2" d="M241.8,646.8V706h-7.3v-59.2H241.8z"/>
		<path class="st2" d="M261.5,646.8V706h-7.3v-59.2H261.5z"/>
		<path class="st2" d="M313.6,686.8h-35c0.3,4.3,1.7,7.7,4.4,10.1c2.7,2.4,6,3.6,9.8,3.6c3.1,0,5.8-0.7,7.9-2.2
			c2.1-1.5,3.6-3.4,4.4-5.9h7.8c-1.2,4.2-3.5,7.6-7,10.3s-7.9,4-13.1,4c-4.2,0-7.9-0.9-11.2-2.8c-3.3-1.9-5.9-4.5-7.7-8
			c-1.9-3.4-2.8-7.4-2.8-12c0-4.5,0.9-8.5,2.7-11.9c1.8-3.4,4.4-6,7.6-7.9c3.3-1.8,7-2.8,11.3-2.8c4.2,0,7.8,0.9,11,2.7
			s5.7,4.3,7.4,7.5c1.7,3.2,2.6,6.8,2.6,10.8C313.9,683.8,313.8,685.2,313.6,686.8z M304.5,673.7c-1.2-2-2.9-3.5-5-4.6
			c-2.1-1-4.4-1.6-7-1.6c-3.7,0-6.8,1.2-9.4,3.5c-2.6,2.3-4.1,5.6-4.4,9.8h27.7C306.3,678.1,305.7,675.7,304.5,673.7z"/>
		<path class="st2" d="M357.8,666.2c3.3,3.2,5,7.9,5,14V706h-7.2v-24.8c0-4.4-1.1-7.7-3.3-10c-2.2-2.3-5.2-3.5-9-3.5
			c-3.8,0-6.9,1.2-9.2,3.6c-2.3,2.4-3.4,5.9-3.4,10.5V706h-7.3v-43.8h7.3v6.2c1.4-2.2,3.4-4,5.9-5.2c2.5-1.2,5.2-1.8,8.2-1.8
			C350.1,661.4,354.5,663,357.8,666.2z"/>
		<path class="st2" d="M402.7,663.9c2.9,1.7,5,3.7,6.4,6.2v-8h7.4v44.8c0,4-0.9,7.6-2.6,10.7c-1.7,3.1-4.1,5.6-7.3,7.3
			c-3.2,1.8-6.9,2.6-11.1,2.6c-5.8,0-10.6-1.4-14.4-4.1s-6.1-6.4-6.8-11.1h7.2c0.8,2.7,2.5,4.8,5,6.4c2.5,1.6,5.5,2.4,9,2.4
			c4,0,7.3-1.3,9.8-3.8c2.5-2.5,3.8-6,3.8-10.6v-9.2c-1.4,2.6-3.6,4.7-6.4,6.4c-2.8,1.7-6.1,2.6-9.9,2.6c-3.9,0-7.4-1-10.6-2.9
			c-3.2-1.9-5.7-4.6-7.5-8.1c-1.8-3.5-2.7-7.4-2.7-11.8c0-4.5,0.9-8.4,2.7-11.8c1.8-3.4,4.3-6,7.5-7.9c3.2-1.9,6.7-2.8,10.6-2.8
			C396.5,661.4,399.8,662.3,402.7,663.9z M407,675.4c-1.3-2.5-3.1-4.3-5.4-5.6c-2.3-1.3-4.8-2-7.5-2s-5.2,0.6-7.4,1.9
			c-2.2,1.3-4,3.1-5.4,5.6c-1.3,2.5-2,5.3-2,8.6c0,3.4,0.7,6.3,2,8.8c1.3,2.5,3.1,4.4,5.4,5.7c2.2,1.3,4.7,2,7.4,2s5.2-0.7,7.5-2
			c2.3-1.3,4.1-3.2,5.4-5.7c1.3-2.5,2-5.4,2-8.7C409,680.7,408.3,677.8,407,675.4z"/>
		<path class="st2" d="M468.4,686.8h-35c0.3,4.3,1.7,7.7,4.4,10.1c2.7,2.4,6,3.6,9.8,3.6c3.1,0,5.8-0.7,7.9-2.2
			c2.1-1.5,3.6-3.4,4.4-5.9h7.8c-1.2,4.2-3.5,7.6-7,10.3s-7.9,4-13.1,4c-4.2,0-7.9-0.9-11.2-2.8c-3.3-1.9-5.9-4.5-7.7-8
			c-1.9-3.4-2.8-7.4-2.8-12c0-4.5,0.9-8.5,2.7-11.9c1.8-3.4,4.4-6,7.6-7.9c3.3-1.8,7-2.8,11.3-2.8c4.2,0,7.8,0.9,11,2.7
			s5.7,4.3,7.4,7.5c1.7,3.2,2.6,6.8,2.6,10.8C468.7,683.8,468.6,685.2,468.4,686.8z M459.3,673.7c-1.2-2-2.9-3.5-5-4.6
			c-2.1-1-4.4-1.6-7-1.6c-3.7,0-6.8,1.2-9.4,3.5c-2.6,2.3-4.1,5.6-4.4,9.8h27.7C461.1,678.1,460.5,675.7,459.3,673.7z"/>
	</g>
	<g>
		<path class="st3" d="M686.6,163.8c-5.6,1.2-11.5,1.8-17.5,1.7c-38.7-0.5-70.4-29.3-75.8-66.5l-0.1-21.2
			c5-38.6,38.2-68.1,78.1-67.6c5.2,0.1,10.4,0.7,15.3,1.7L674,32.4v112.4L686.6,163.8z"/>
		<path class="st4" d="M756.6,132.6c-12.4,0.8-24.3,5.3-34.2,12.7l-6.7,5.4l-73.6,61c-7.2,6-14.9,11.3-22.9,16l-19.6,9.8
			c-16,6.8-33,11.1-50.4,12.8l-6.7,4.3l0.9,11.2l9.9,5.9h203.4c2.2,0,4-1.8,4-4V136.7C760.9,134.4,758.9,132.5,756.6,132.6
			L756.6,132.6z"/>
		<circle class="st5" cx="541.9" cy="51.9" r="19.5"/>
		<path class="st6" d="M553.5,95.4l-22.2-11.2l-2.2,2c0.1,2.1-0.5-11.5,2.1,52.1l6.2,9.1H551l5.5-7.8l0.1-35.9L553.5,95.4z"/>
		<path class="st7" d="M610.7,221.1c-1.8-0.1-3.7-0.5-5.5-1c-1.4-0.4-2.5-1.6-2.8-3l-0.3-1.4l-4.9-5.4l-8.9,0.7l-4.5,7l1.9,9.7
			c0.5,2.8,2.3,5.1,4.8,6.4c1,0.5,10.1,5.1,19.5,5.4c5.1,0.2,9.3-3.8,9.5-8.9C619.7,225.5,615.8,221.3,610.7,221.1L610.7,221.1z"/>
		<path class="st8" d="M551.7,156.8l-14.6-7.2l-5.3,1l-2.1,29.8l4.5,7.7l5.8,4.1l8.3-4.1l5.2-24.6L551.7,156.8z"/>
		<path class="st9" d="M602.1,215.7l-10-51.3c-0.5-2.8-2.4-5.2-4.9-6.5l-28.6-14.9c-1.3-0.7-2.1-2-2.1-3.4
			c-15,2.5-25.5-1.3-25.5-1.3l0.4,10.3c0.2,3.2,2.1,6.2,5.1,7.7l36.3,15.1c1.3,0.5,2.2,1.7,2.5,3l8.4,43.4
			C591.5,218.4,598.9,216.6,602.1,215.7L602.1,215.7z"/>
		<path class="st10" d="M686.6,12c-35.4,7.6-61.8,39.4-61.3,77c0.5,36.7,26.5,67.4,61.3,74.8l0,0c10.7-2.3,20.6-6.8,29.1-13l6.7-5.4
			c15.4-14,25.1-34,25.4-56.4C748.3,51.4,722,19.6,686.6,12L686.6,12z"/>
		<g>
			<path class="st11" d="M670.5,111.7c-4.6,0-8.4-3.7-8.4-8.4V89.5c0-4.6,3.7-8.4,8.4-8.4c6.7,0,12.1-5.4,12.1-12.1
				c0-6.7-5.4-12.1-12.1-12.1c-6.7,0-12.1,5.4-12.1,12.1c0,4.6-3.7,8.4-8.4,8.4c-4.6,0-8.4-3.7-8.4-8.4c0-15.9,13-28.9,28.9-28.9
				c15.9,0,28.9,13,28.9,28.9c0,13-8.7,24-20.5,27.6v6.8C678.9,108,675.1,111.7,670.5,111.7L670.5,111.7z"/>
		</g>
		<g>
			<path class="st11" d="M670.5,135.8c-4.6,0-8.4-3.7-8.4-8.4s3.7-8.4,8.4-8.4c4.6,0,8.4,3.7,8.4,8.4v0
				C678.9,132,675.1,135.8,670.5,135.8L670.5,135.8z"/>
		</g>
		<path class="st12" d="M529.7,180.4l-0.6,8.4l-21.6,26.1v7.3l6.3,5.6l8.4-1.9l22.9-27.8c1.2-1.5,2-3.3,2.1-5.2l1-4.9L529.7,180.4z"
			/>
		<path class="st7" d="M520.6,228l1.7-2.1c-6.2-2.2-12.1-8.1-14.7-11.1l-6.1,7.4c-1.6,2-2.4,4.5-2,7c0.7,5.6,4.9,16.4,16.1,21.2
			c1.8,0.8,3.7,0.9,5.5,0.6c3.8-0.8,7.1-4,7.4-8.7c0.2-3.8-2.2-7.2-5.7-8.8c-0.7-0.3-1.2-0.6-1.7-1
			C519.6,231.4,519.5,229.4,520.6,228L520.6,228z"/>
		<path class="st13" d="M598.8,87.9l-4.1-7.1h-6.6l-14.4,8.4c-1.2,0.7-2.7,0.8-3.9,0.2l-28-11.9c-4.6-2-10,0.1-12,4.7
			c-2.1,4.7,0.3,10.3,5,12.3l34,14.5c2.7,1.1,5.7,0.9,8.2-0.5l20.4-11.8L598.8,87.9z"/>
		<path class="st5" d="M588.1,80.8l9.3,15.9l8-4.7c4.4-2.6,5.9-8.2,3.3-12.6c-2.6-4.4-8.2-5.9-12.6-3.3L588.1,80.8z"/>
		<g>
			<path class="st14" d="M548.3,257.1c0-2.3,0.3-4.5,0.9-6.6c-5.4,0.5-10.9,0.8-16.4,0.8h-29.5c-2.2,0-4,1.8-4,4v12.5
				c0,2.2,1.8,4,4,4h50.1C550.2,267.8,548.3,262.6,548.3,257.1z"/>
		</g>
	</g>
</g>
</svg>
