<?xml version="1.0" encoding="utf-8"?>
<!-- Generator: Adobe Illustrator 26.0.1, SVG Export Plug-In . SVG Version: 6.00 Build 0)  -->
<svg version="1.1" id="Layer_1" xmlns="http://www.w3.org/2000/svg" xmlns:xlink="http://www.w3.org/1999/xlink" x="0px" y="0px"
	 viewBox="0 0 828.71 1000" style="enable-background:new 0 0 828.71 1000;" xml:space="preserve">
<style type="text/css">
	.st0{fill:#3A5DC4;}
	.st1{opacity:0.51;fill:#1F4799;}
	.st2{fill:#E3F4FF;}
	.st3{fill:#BDDFF4;}
	.st4{fill:#43A3F9;}
	.st5{fill:#1685FB;}
	.st6{fill:#618BAA;}
	.st7{fill:#3FEFEF;}
	.st8{fill:#4E7693;}
	.st9{fill:#FC3E81;}
	.st10{fill:#9BE058;}
	.st11{fill:#FFDF46;}
	.st12{fill:#4A5BE5;}
	.st13{fill:#FFFFFF;}
</style>
<g>
	<polygon class="st0" points="414.35,994.14 517.75,815.05 310.96,815.05 	"/>
	<path class="st0" d="M818.87,90.26v693.36c0,20.76-16.83,37.55-37.55,37.55H47.38c-20.76,0-37.55-16.79-37.55-37.55V90.26
		c0-20.72,16.79-37.55,37.55-37.55h733.94C802.05,52.71,818.87,69.53,818.87,90.26z"/>
	<path class="st1" d="M818.87,547.6v236.02c0,20.76-16.83,37.55-37.55,37.55H47.38c-20.76,0-37.55-16.79-37.55-37.55V300.35
		C175.19,548.93,454.62,807.41,818.87,547.6z"/>
	<g>
		<path class="st2" d="M761.5,17.96v205.6c0,0.9-0.2,1.77-0.57,2.53c-0.97,2.03-3.03,3.43-5.4,3.43H494.9
			c-3.3,0-5.96-2.67-5.96-5.96V17.96c0-6.7,5.43-12.09,12.13-12.09h248.31C756.07,5.86,761.5,11.26,761.5,17.96z"/>
		<path class="st3" d="M761.49,216.56v7.01c0,3.29-2.67,5.96-5.96,5.96h-55.5l-14.09-14.09c-4.12-4.12-4.78-10.41-1.99-15.23
			l-16.32-16.31c-15.1,10.36-32.94,15.93-51.65,15.93c-24.46,0-47.46-9.52-64.75-26.82c-35.7-35.7-35.7-93.8,0-129.51
			c17.3-17.29,40.29-26.82,64.75-26.82c24.46,0,47.46,9.52,64.75,26.82c17.3,17.3,26.82,40.3,26.82,64.75
			c0,18.71-5.57,36.56-15.94,51.66l16.32,16.31c1.9-1.1,4.06-1.7,6.31-1.7c3.37,0,6.55,1.32,8.93,3.7L761.49,216.56z"/>
		<path class="st3" d="M761.5,17.96v205.6c0,0.9-0.2,1.77-0.57,2.53c-0.97,2.03-3.03,3.43-5.4,3.43h-13.03c1.77,0,3.33-0.77,4.4-2
			c1-1.03,1.57-2.43,1.57-3.96V17.96c0-6.7-5.43-12.09-12.13-12.09h13.03C756.07,5.86,761.5,11.26,761.5,17.96z"/>
		<path class="st4" d="M761.5,17.96v20.82H488.93V17.96c0-6.7,5.43-12.09,12.13-12.09h248.31C756.07,5.86,761.5,11.26,761.5,17.96z"
			/>
		<path class="st5" d="M675.65,38.79H556.3c16.6-14.3,37.54-22.1,59.68-22.1C638.11,16.68,659.05,24.49,675.65,38.79z"/>
		<path class="st5" d="M761.5,17.96v20.82h-13.03V17.96c0-6.7-5.43-12.09-12.13-12.09h13.03C756.07,5.86,761.5,11.26,761.5,17.96z"
			/>
		<path class="st4" d="M662.73,168.88l13.87-13.87l38.22,38.22l-13.87,13.87L662.73,168.88z"/>
		<path class="st6" d="M700.4,108.25c0,46.63-37.8,84.42-84.42,84.42c-46.63,0-84.42-37.8-84.42-84.42s37.8-84.42,84.42-84.42
			C662.6,23.83,700.4,61.63,700.4,108.25z"/>
		<path class="st7" d="M685.12,108.25c0,38.19-30.96,69.14-69.14,69.14s-69.14-30.96-69.14-69.14c0-38.19,30.96-69.14,69.14-69.14
			S685.12,70.07,685.12,108.25z"/>
		<path class="st6" d="M783.38,256.31l-19.34,19.34c-2.14,2.14-5.61,2.14-7.76,0L691,210.38c-2.14-2.14-2.14-5.61,0-7.75
			l19.34-19.35c2.14-2.14,5.61-2.14,7.75,0l65.27,65.27C785.52,250.7,785.52,254.17,783.38,256.31z"/>
		<path class="st8" d="M718.1,183.28l65.27,65.28c2.14,2.14,2.14,5.61,0,7.75l-7.71,7.71c2.14-2.14,2.14-5.61,0-7.75l-65.27-65.28
			c-2.14-2.14-5.61-2.14-7.76,0l7.71-7.71C712.49,181.14,715.96,181.14,718.1,183.28z"/>
		<path class="st4" d="M751.18,272.92c-1.14,0-2.29-0.44-3.16-1.31c-1.74-1.75-1.74-4.57,0-6.32l24.34-24.33
			c1.75-1.75,4.57-1.75,6.32,0c1.74,1.74,1.74,4.57,0,6.32l-24.34,24.34C753.46,272.48,752.32,272.92,751.18,272.92z"/>
		<path class="st9" d="M516.61,27.13c-2.45,0-4.45-1.98-4.47-4.44c-0.02-2.47,1.97-4.5,4.44-4.52h0.03c2.46,0,4.45,1.96,4.47,4.42
			v0.05c0.02,2.47-1.97,4.48-4.44,4.5C516.63,27.13,516.62,27.13,516.61,27.13z"/>
		<path class="st10" d="M528.21,27.13c-2.46,0-4.45-1.98-4.47-4.44c-0.02-2.47,1.97-4.5,4.44-4.52h0.03c2.46,0,4.45,1.96,4.47,4.42
			v0.05c0.02,2.47-1.97,4.48-4.44,4.5C528.23,27.13,528.22,27.13,528.21,27.13z"/>
		<path class="st11" d="M539.82,27.13c-2.45,0-4.45-1.98-4.47-4.44c-0.02-2.47,1.97-4.5,4.44-4.52h0.03c2.45,0,4.45,1.96,4.47,4.42
			l0,0.05c0.01,2.47-1.97,4.48-4.44,4.5C539.84,27.13,539.83,27.13,539.82,27.13z"/>
		<g>
			<path class="st2" d="M579.53,126.51c-2.47,0-4.47-2-4.47-4.47s2-4.49,4.47-4.49c2.47,0,4.47,1.97,4.47,4.44v0.05
				C584,124.51,582,126.51,579.53,126.51z"/>
			<path class="st2" d="M579.53,141.41c-2.47,0-4.47-2-4.47-4.47c0-2.47,2-4.49,4.47-4.49c2.47,0,4.47,1.97,4.47,4.44v0.05
				C584,139.41,582,141.41,579.53,141.41z"/>
			<path class="st2" d="M592.27,126.51c-2.47,0-4.47-2-4.47-4.47s2-4.49,4.47-4.49s4.47,1.97,4.47,4.44v0.05
				C596.73,124.51,594.73,126.51,592.27,126.51z"/>
			<path class="st2" d="M592.27,141.41c-2.47,0-4.47-2-4.47-4.47c0-2.47,2-4.49,4.47-4.49s4.47,1.97,4.47,4.44v0.05
				C596.73,139.41,594.73,141.41,592.27,141.41z"/>
		</g>
		<path class="st4" d="M630.67,68.85L582.8,80.45c-3.52,0.85-4.71,5.25-2.11,7.77l37.9,36.63c2.6,2.52,6.95,1.17,7.69-2.37
			l9.97-48.24C636.93,70.94,633.95,68.05,630.67,68.85z"/>
		<path class="st9" d="M602.69,97.35l10.79,48.06c0.79,3.53,5.17,4.8,7.73,2.24l37.27-37.27c2.56-2.56,1.29-6.93-2.24-7.73
			l-48.06-10.79C604.89,91.12,601.95,94.06,602.69,97.35z"/>
		<path class="st12" d="M631.52,97.1l-5.24,25.38c-0.73,3.54-5.09,4.89-7.69,2.37l-12.42-12l-3.48-15.5
			c-0.74-3.29,2.2-6.23,5.49-5.49L631.52,97.1z"/>
		<path class="st6" d="M518.23,187.29h-2.44c-2.47,0-4.47-2-4.47-4.47c0-2.47,2-4.47,4.47-4.47h2.44c2.47,0,4.47,2,4.47,4.47
			C522.7,185.29,520.7,187.29,518.23,187.29z"/>
		<path class="st6" d="M544.1,187.29h-15.23c-2.47,0-4.47-2-4.47-4.47c0-2.47,2-4.47,4.47-4.47h15.23c2.47,0,4.47,2,4.47,4.47
			C548.57,185.29,546.57,187.29,544.1,187.29z"/>
		<path class="st6" d="M544.1,199.09h-28.31c-2.47,0-4.47-2-4.47-4.47c0-2.47,2-4.47,4.47-4.47h28.31c2.47,0,4.47,2,4.47,4.47
			C548.57,197.09,546.57,199.09,544.1,199.09z"/>
		<path class="st6" d="M544.1,210.89h-28.31c-2.47,0-4.47-2-4.47-4.47c0-2.47,2-4.47,4.47-4.47h28.31c2.47,0,4.47,2,4.47,4.47
			C548.57,208.89,546.57,210.89,544.1,210.89z"/>
		<path class="st4" d="M737.41,154.29c-2.47,0-4.47-2-4.47-4.47V57.75c0-2.47,2-4.47,4.47-4.47c2.47,0,4.47,2,4.47,4.47v92.08
			C741.87,152.29,739.87,154.29,737.41,154.29z"/>
	</g>
	<g>
		<path class="st13" d="M151.53,179.19h-7.65v50.29h-12.59l-31.3-12.77l0.09-0.09v-11.88l12.95-8.73l-12.68-7.46v-9.36h-5.31v-10.08
			h56.49V179.19z M124.99,190.7v10.71l-11.78,8.19l18.08,7.83v-38.23h-23.84L124.99,190.7z"/>
		<path class="st13" d="M175.82,179.19h-7.65v50.29h-12.59v-44.71c0-2.34-0.31-3.85-0.94-4.54c-0.63-0.69-1.9-1.03-3.82-1.03h-2.88
			v-10.08h4.5c1.98,0,3.48,1.02,4.5,3.06c-0.6-3.24-0.9-6.12-0.9-8.64v-1.62h12.14v7.2h7.65V179.19z"/>
		<path class="st13" d="M172.22,169.11h61.17v10.08h-61.17V169.11z M187.87,200.41c0-5.4,1.99-9.71,5.98-12.95s9.01-4.86,15.07-4.86
			c5.4,0,9.55,1.41,12.46,4.23c2.91,2.82,4.36,6.72,4.36,11.7v34.81h-12.59c0-2.16-1.08-3.24-3.24-3.24c-1.26,0-3.81,0.54-7.65,1.62
			c-3.84,1.08-6.96,1.62-9.36,1.62c-4.5,0-8.28-1.21-11.33-3.64c-3.06-2.43-4.59-6.25-4.59-11.47c0-2.16,0.24-4.2,0.72-6.12
			l11.33-0.09c-0.24,1.32-0.36,2.79-0.36,4.41c0,4.08,2.07,6.12,6.21,6.12c1.56,0,3.94-0.43,7.15-1.3c3.21-0.87,5.44-1.3,6.7-1.3
			c1.86,0,3.33,0.51,4.41,1.53v-23.21c0-3.24-1.53-4.86-4.59-4.86c-2.22,0-4.15,0.63-5.8,1.89c-1.65,1.26-2.47,2.97-2.47,5.13
			c0,1.62,0.49,2.85,1.48,3.69c0.99,0.84,2.32,1.26,4,1.26c0.78,0,1.41-0.03,1.89-0.09v9.9c-1.26,0.18-2.52,0.27-3.78,0.27
			c-4.68,0-8.52-1.21-11.51-3.64C189.37,209.36,187.87,205.57,187.87,200.41z"/>
		<path class="st13" d="M257.68,179.19h-7.65v50.29h-12.59v-44.71c0-2.34-0.31-3.85-0.94-4.54c-0.63-0.69-1.9-1.03-3.82-1.03h-2.88
			v-10.08h4.5c1.98,0,3.48,1.02,4.5,3.06c-0.6-3.24-0.9-6.12-0.9-8.64v-1.62h12.14v7.2h7.65V179.19z"/>
		<path class="st13" d="M345.48,213.28c0,5.34-2.76,9.6-8.28,12.78c-5.52,3.18-12.38,4.77-20.6,4.77c-10.97,0-19.49-2.16-25.55-6.48
			c-6.06-4.32-9.42-9.89-10.08-16.73h13.04c0.48,4.2,2.74,7.35,6.79,9.45s9.4,3.15,16.06,3.15c10.67,0,16.01-2.37,16.01-7.11
			c0-3.84-3.18-5.76-9.54-5.76h-2.97v-10.62h2.07c6.6,0,9.89-3.03,9.89-9.09c0-3-1.11-5.31-3.33-6.93l-4.59,7.92h-10.25l-0.18,0.09
			v-2.88c0-5.22-1.95-7.83-5.85-7.83c-1.62,0-3,0.67-4.14,2.02c-1.14,1.35-1.71,3.19-1.71,5.53c0,4.74,2.31,7.11,6.93,7.11
			c1.26,0,2.13-0.03,2.61-0.09v9.89c-1.2,0.24-2.55,0.36-4.05,0.36c-5.16,0-8.94-1.56-11.33-4.68c-2.58,3.12-6.18,4.68-10.79,4.68
			c-1.62,0-3-0.12-4.14-0.36v-9.98c0.54,0.12,1.44,0.18,2.7,0.18c2.1,0,3.78-0.48,5.04-1.44c1.26-0.96,1.89-2.85,1.89-5.67
			c0-4.26-2.49-6.39-7.47-6.39h-7.11v-10.17h8.82c4.62,0,8.31,1.83,11.06,5.49c2.64-3.96,6.3-5.97,10.97-6.03
			c6.36,0,10.53,2.97,12.5,8.9l4.77-9.18c5.46,0,10.18,1.97,14.17,5.89c3.99,3.93,5.98,8.41,5.98,13.45c0,3.84-0.99,6.94-2.97,9.31
			c-1.98,2.37-4.77,3.94-8.37,4.72c3.72,0.54,6.64,1.8,8.77,3.78C344.41,207.34,345.48,209.98,345.48,213.28z"/>
		<path class="st13" d="M399.9,179.19h-7.65v50.29h-12.14v-0.09l-0.09,0.09l-27.17-18.8v-12.05c8.7-7.08,17.78-11.9,27.26-14.48
			v-4.95h-32.38v-10.08h52.17V179.19z M362.66,222.81c1.32,1.32,1.98,2.94,1.98,4.86c0,1.92-0.66,3.54-1.98,4.86
			c-1.32,1.32-2.94,1.98-4.86,1.98c-1.92,0-3.54-0.66-4.86-1.98c-1.32-1.32-1.98-2.94-1.98-4.86c0-1.92,0.66-3.54,1.98-4.86
			c1.32-1.32,2.94-1.98,4.86-1.98C359.72,220.83,361.34,221.49,362.66,222.81z M380.11,216.34V196.1
			c-6.18,2.46-11.48,5.37-15.92,8.73L380.11,216.34z"/>
		<path class="st13" d="M402.69,188.09c4.5,0,7.99,1.39,10.48,4.18c2.49,2.79,3.73,6.43,3.73,10.93s-1.38,8.17-4.14,11.02
			c-2.76,2.85-6.36,4.27-10.79,4.27c-2.94,0-5.58-0.77-7.92-2.29s-3.87-3.64-4.59-6.34l2.79-12.41c0,3.66,0.79,6.33,2.38,8.01
			c1.59,1.68,3.61,2.52,6.07,2.52c1.68,0,2.97-0.48,3.87-1.44c0.9-0.96,1.35-2.28,1.35-3.96c0-1.38-0.4-2.52-1.21-3.42
			c-0.81-0.9-1.93-1.35-3.37-1.35c-0.66,0-1.41,0.06-2.25,0.18v-9.54C399.99,188.21,401.19,188.09,402.69,188.09z M422.12,179.19
			H396.3v-10.08h25.82V179.19z"/>
		<path class="st13" d="M163.95,296.45c0,5.64-1.52,10.05-4.54,13.22c-3.03,3.18-7.21,4.77-12.55,4.77c-0.84,0-1.47-0.03-1.89-0.09
			v-11.33h0.9c3.96,0,5.94-2.19,5.94-6.57c0-2.94-1.07-5.37-3.19-7.29c-2.13-1.92-5.14-3-9.04-3.24v34.54h-12.14v-0.09l-0.09,0.09
			l-27.17-18.8v-12.05c4.92-3.96,9.45-7.15,13.58-9.58c4.14-2.43,8.69-4.12,13.67-5.08v-4.77H95.04v-10.08h73.76v10.08h-29.24v4.77
			c6.42,0.18,12.08,2.2,17,6.07C161.49,284.89,163.95,290.03,163.95,296.45z M127.42,307.34v-21.05c-5.22,1.74-10.58,4.89-16.1,9.45
			L127.42,307.34z"/>
		<path class="st13" d="M217.38,270.19h-7.65v50.29h-12.14v-0.09l-0.09,0.09l-27.17-18.8v-12.05c8.7-7.08,17.78-11.9,27.26-14.48
			v-4.95h-32.38v-10.08h52.17V270.19z M180.14,313.81c1.32,1.32,1.98,2.94,1.98,4.86c0,1.92-0.66,3.54-1.98,4.86
			c-1.32,1.32-2.94,1.98-4.86,1.98c-1.92,0-3.54-0.66-4.86-1.98c-1.32-1.32-1.98-2.94-1.98-4.86c0-1.92,0.66-3.54,1.98-4.86
			c1.32-1.32,2.94-1.98,4.86-1.98C177.2,311.83,178.82,312.49,180.14,313.81z M197.59,307.34V287.1
			c-6.18,2.46-11.48,5.37-15.92,8.73L197.59,307.34z"/>
		<path class="st13" d="M220.17,279.09c4.5,0,7.99,1.39,10.48,4.18c2.49,2.79,3.73,6.43,3.73,10.93s-1.38,8.17-4.14,11.02
			c-2.76,2.85-6.36,4.27-10.79,4.27c-2.94,0-5.58-0.77-7.92-2.29s-3.87-3.64-4.59-6.34l2.79-12.41c0,3.66,0.79,6.33,2.38,8.01
			c1.59,1.68,3.61,2.52,6.07,2.52c1.68,0,2.97-0.48,3.87-1.44c0.9-0.96,1.35-2.28,1.35-3.96c0-1.38-0.4-2.52-1.21-3.42
			c-0.81-0.9-1.93-1.35-3.37-1.35c-0.66,0-1.41,0.06-2.25,0.18v-9.54C217.47,279.21,218.67,279.09,220.17,279.09z M239.6,270.19
			h-25.82v-10.08h25.82V270.19z"/>
		<path class="st13" d="M285.75,320.47h-12.59c-0.36-2.52-0.87-5.07-1.53-7.65c-0.66-2.58-1.54-5.28-2.65-8.1
			c-1.11-2.82-2.53-5.11-4.27-6.88c-1.74-1.77-3.66-2.65-5.76-2.65c-2.04,0-3.57,0.66-4.59,1.98c-1.02,1.32-1.53,3.06-1.53,5.22
			c0,1.68,0.15,3.33,0.45,4.95h-12.23c-0.54-2.22-0.81-4.29-0.81-6.21c0-4.74,1.47-8.75,4.41-12.05c2.94-3.3,7.02-4.95,12.23-4.95
			c7.32,0,12.74,3.57,16.28,10.71v-24.65H236v-10.08h56.58v10.08h-6.84V320.47z"/>
		<path class="st13" d="M309.27,277.16c1.53,1.53,2.29,3.4,2.29,5.62s-0.76,4.09-2.29,5.62s-3.4,2.29-5.62,2.29
			s-4.09-0.77-5.62-2.29s-2.29-3.4-2.29-5.62s0.76-4.09,2.29-5.62s3.4-2.29,5.62-2.29S307.74,275.63,309.27,277.16z M309.27,306.93
			c1.53,1.53,2.29,3.4,2.29,5.62s-0.76,4.09-2.29,5.62s-3.4,2.29-5.62,2.29s-4.09-0.77-5.62-2.29s-2.29-3.4-2.29-5.62
			s0.76-4.09,2.29-5.62s3.4-2.29,5.62-2.29S307.74,305.4,309.27,306.93z"/>
	</g>
	<g>
		<path class="st13" d="M151.27,459.73c0,3.42-0.57,6.57-1.71,9.45h2.16c4.44,0,7.65,1.44,9.63,4.32v-35.71h-66.3v-6.03h84.47
			c2.94,0,5.04,1.29,6.3,3.87c-0.48-2.76-0.72-5.67-0.72-8.73v-2.7h6.84v7.56h10.17v6.03h-10.17v51.72H185v-44.44
			c0-2.34-0.42-4.14-1.26-5.4s-2.34-1.89-4.5-1.89h-10.97v51.72h-6.93v-1.44c0-8.58-3.3-12.86-9.9-12.86h-5.22
			c-4.2,5.22-10.2,7.83-17.99,7.83c-7.8,0-13.84-2.44-18.13-7.33c-4.29-4.89-6.43-11.29-6.43-19.21c0-3.12,0.21-6.3,0.63-9.54h6.84
			c-0.42,3.48-0.63,6.69-0.63,9.63c0,6.36,1.56,11.33,4.68,14.93c3.12,3.6,7.43,5.4,12.95,5.4c5.1,0,9.05-1.57,11.87-4.72
			c2.82-3.15,4.23-7.3,4.23-12.46c0-3.12-0.62-5.65-1.84-7.6c-1.23-1.95-3.1-2.92-5.62-2.92c-2.16,0-3.84,0.78-5.04,2.34
			c-1.2,1.56-1.8,3.57-1.8,6.03c0,1.74,0.3,3.93,0.9,6.57h-6.3c-0.84-2.1-1.26-4.47-1.26-7.11c0-3.9,1.2-7.18,3.6-9.85
			c2.4-2.67,5.67-4,9.8-4c4.5,0,8.05,1.59,10.66,4.77C149.96,451.12,151.27,455.05,151.27,459.73z"/>
		<path class="st13" d="M205.42,467.38l9.36-5.67c-1.8-3.84-5.16-6.69-10.08-8.55v-3.78c0-4.86,1.6-9.16,4.81-12.91
			c3.21-3.75,7.63-5.62,13.27-5.62c6.48,0,11.09,2.25,13.85,6.75v-13.4h7.02v7.56h10.08v6.03h-10.08v51.72h-7.02v-33.64
			l-31.21,19.16V467.38z M211.54,449.48c3.9,1.92,6.75,4.92,8.55,9l16.28-9.99c-0.54-3.48-1.88-6.25-4-8.32
			c-2.13-2.07-5.02-3.1-8.68-3.1c-3.84,0-6.82,1.16-8.95,3.46C212.6,442.83,211.54,445.82,211.54,449.48z"/>
		<path class="st13" d="M294.66,489.51h-6.93v-0.36c-1.92-18.83-7.29-28.25-16.1-28.25c-2.94,0-5.19,0.9-6.75,2.7
			c-1.56,1.8-2.34,4.26-2.34,7.38c0,1.56,0.09,2.94,0.27,4.14h-6.84c-0.3-1.92-0.45-3.42-0.45-4.5c0-4.62,1.41-8.46,4.23-11.51
			c2.82-3.06,6.6-4.59,11.33-4.59c7.79,0,13.34,4.29,16.64,12.86v-29.6h-37.6v-6.03h54.51v6.03h-9.99V489.51z"/>
		<path class="st13" d="M328.3,437.78h-10.17v51.72h-6.93v-44.44c0-2.34-0.42-4.14-1.26-5.4c-0.84-1.26-2.34-1.89-4.5-1.89h-4.41
			v-6.03h4.68c2.88,0,4.98,1.29,6.3,3.87c-0.48-2.76-0.72-5.67-0.72-8.73v-2.7h6.84v7.56h10.17V437.78z"/>
		<path class="st13" d="M375.52,437.78h-10.17v51.72h-6.84l-28.16-21.5v-7.83c3.96-3.66,8.42-6.93,13.4-9.8
			c4.98-2.88,9.9-4.92,14.75-6.12v-6.48H324.7v-6.03h50.83V437.78z M338.28,483.43c0.96,0.93,1.44,2.05,1.44,3.37
			s-0.46,2.43-1.39,3.33c-0.93,0.9-2.08,1.35-3.46,1.35c-1.38,0-2.5-0.45-3.37-1.35c-0.87-0.9-1.3-2.01-1.3-3.33
			s0.45-2.44,1.35-3.37c0.9-0.93,2.01-1.39,3.33-1.39C336.18,482.04,337.32,482.5,338.28,483.43z M358.52,481.41v-30.59
			c-7.62,2.46-14.99,6.87-22.13,13.22L358.52,481.41z"/>
		<path class="st13" d="M399.18,467.38l9.36-5.67c-1.8-3.84-5.16-6.69-10.08-8.55v-3.78c0-4.86,1.6-9.16,4.81-12.91
			c3.21-3.75,7.63-5.62,13.27-5.62c6.48,0,11.09,2.25,13.85,6.75v-13.4h7.02v7.56h10.08v6.03h-10.08v51.72h-7.02v-33.64
			l-31.21,19.16V467.38z M405.3,449.48c3.9,1.92,6.75,4.92,8.55,9l16.28-9.99c-0.54-3.48-1.88-6.25-4-8.32
			c-2.13-2.07-5.02-3.1-8.68-3.1c-3.84,0-6.82,1.16-8.95,3.46C406.36,442.83,405.3,445.82,405.3,449.48z"/>
		<path class="st13" d="M490.58,492.29h-10.62l-25.28-13.04v-5.85c2.28,0.12,3.96,0.18,5.04,0.18c5.16,0,9.64-0.39,13.45-1.17
			c3.81-0.78,6.93-2.19,9.36-4.23c2.43-2.04,3.64-4.62,3.64-7.74c0-2.4-0.85-4.21-2.56-5.44c-1.71-1.23-4.15-2.23-7.33-3.01
			c0.24,0.78,0.36,1.68,0.36,2.7c0,3.42-1.38,6.52-4.14,9.31c-2.76,2.79-6.03,4.18-9.8,4.18c-3.06,0-5.53-0.85-7.42-2.56
			c-1.89-1.71-2.83-4.15-2.83-7.33v-20.51h-8.55v-6.03h55.5v6.03H459v4.05l6.75,1.53c0.12,0.06,0.28,0.12,0.49,0.18
			c0.21,0.06,0.37,0.09,0.5,0.09l10.52,2.52c5.34,1.26,9.28,3,11.83,5.22c2.55,2.22,3.82,5.31,3.82,9.27c0,3-0.71,5.65-2.11,7.96
			c-1.41,2.31-3.37,4.17-5.89,5.58c-2.52,1.41-5.31,2.5-8.37,3.28c-3.06,0.78-6.42,1.29-10.08,1.53c4.44,1.92,8.1,3.66,10.97,5.22
			l13.13,6.93V492.29z M462.69,462.52c2.04,0,3.84-0.87,5.4-2.61c1.56-1.74,2.34-3.6,2.34-5.58c0-1.44-0.44-2.56-1.3-3.37
			c-0.87-0.81-2.35-1.45-4.45-1.93l-5.67-1.35v10.79C459,461.17,460.23,462.52,462.69,462.52z"/>
		<path class="st13" d="M522.69,490.14c-0.48,0.06-1.32,0.09-2.52,0.09c-5.76,0-9.96-2.25-12.59-6.75
			c-2.64-4.5-4.02-10.4-4.14-17.72c0-13.61,2.76-22.94,8.28-27.98h-15.92v-6.03h29.42v6.03h-1.35c-2.58,0-4.78,0.81-6.61,2.43
			c-1.83,1.62-3.24,3.82-4.23,6.61c-0.99,2.79-1.7,5.74-2.11,8.86c-0.42,3.12-0.63,6.48-0.63,10.08c0,12.17,3.57,18.26,10.71,18.26
			h1.71V490.14z"/>
		<path class="st13" d="M587.28,489.51h-6.84v-28.34c-3,2.16-6.34,5.02-10.03,8.59c-3.69,3.57-6.82,7.03-9.4,10.39h-6.93V456.4
			c-1.44-0.48-3.6-1.77-6.48-3.87c-2.88-2.1-5.34-3.15-7.38-3.15c-3.12,0-4.68,1.65-4.68,4.95c0,1.14,0.15,2.37,0.45,3.69h-6.57
			c-0.3-1.5-0.45-3-0.45-4.5c0-3.18,0.97-5.71,2.92-7.6c1.95-1.89,4.54-2.83,7.78-2.83c2.04,0,3.97,0.42,5.8,1.26
			c1.83,0.84,3.3,1.79,4.41,2.83c1.11,1.05,2.41,1.99,3.91,2.83c1.5,0.84,2.97,1.26,4.41,1.26c4.44,0,6.66-2.58,6.66-7.74
			c0-2.04-0.18-3.96-0.54-5.76h-42.73v-6.03h74.21v6.03h-24.65c0.36,1.98,0.54,4.02,0.54,6.12c0,3.66-0.92,6.64-2.74,8.95
			c-1.83,2.31-4.48,3.67-7.96,4.09v13.31c2.76-3.3,6.09-6.6,9.99-9.89c3.9-3.3,7.05-5.58,9.45-6.84h6.84V489.51z"/>
		<path class="st13" d="M643.05,437.78h-10.17v51.72h-6.84l-28.16-21.5v-7.83c3.96-3.66,8.42-6.93,13.4-9.8
			c4.98-2.88,9.9-4.92,14.75-6.12v-6.48h-33.82v-6.03h50.83V437.78z M605.81,483.43c0.96,0.93,1.44,2.05,1.44,3.37
			s-0.46,2.43-1.39,3.33c-0.93,0.9-2.08,1.35-3.46,1.35c-1.38,0-2.5-0.45-3.37-1.35c-0.87-0.9-1.3-2.01-1.3-3.33
			s0.45-2.44,1.35-3.37c0.9-0.93,2.01-1.39,3.33-1.39C603.71,482.04,604.85,482.5,605.81,483.43z M626.05,481.41v-30.59
			c-7.62,2.46-14.99,6.87-22.13,13.22L626.05,481.41z"/>
		<path class="st13" d="M121.94,598.08c-0.48,0.06-1.29,0.09-2.43,0.09c-5.7,0-9.9-2.23-12.59-6.7c-2.7-4.47-4.11-10.39-4.23-17.77
			c0-4.2,0.32-8.16,0.95-11.88c0.63-3.72,1.66-7.32,3.1-10.79c1.44-3.48,3.55-6.24,6.34-8.28c2.79-2.04,6.13-3.06,10.03-3.06h1.35
			v6.03h-1.26c-2.58,0-4.81,0.83-6.7,2.47c-1.89,1.65-3.31,3.88-4.27,6.7c-0.96,2.82-1.65,5.77-2.07,8.86
			c-0.42,3.09-0.63,6.4-0.63,9.94c0,12.17,3.57,18.26,10.71,18.26h1.71V598.08z"/>
		<path class="st13" d="M160.26,590.62v-28.25l-31.57,14.21v-6.93l8.37-3.69c-2.16-3.36-5.04-5.73-8.64-7.11v-1.8
			c0-4.8,1.59-9.04,4.77-12.73s7.59-5.53,13.22-5.53c6.48,0,11.09,2.25,13.85,6.75v-13.4h6.93v7.56h10.17v6.03h-10.17v54.06h-6.93
			v-0.72c0-2.7-1.2-4.05-3.6-4.05c-0.96,0-3.01,0.4-6.16,1.21s-6.07,1.21-8.77,1.21c-3.96,0-7.09-1.17-9.4-3.51
			s-3.46-5.52-3.46-9.54c0-1.74,0.18-3.33,0.54-4.77h6.57c-0.3,1.5-0.45,2.97-0.45,4.41c0,4.74,2.25,7.11,6.75,7.11
			c1.86,0,4.18-0.37,6.97-1.12c2.79-0.75,5.02-1.12,6.7-1.12C157.68,588.91,159.12,589.48,160.26,590.62z M135.34,555.53
			c3.18,1.74,5.67,4.38,7.47,7.92l17.18-7.65c-0.6-3.36-1.96-6.03-4.09-8.01c-2.13-1.98-4.99-2.97-8.59-2.97
			c-3.6,0-6.4,1.05-8.41,3.15C136.89,550.08,135.7,552.6,135.34,555.53z"/>
		<path class="st13" d="M201.01,545.73h-10.17v51.72h-6.93v-44.44c0-2.34-0.42-4.14-1.26-5.4c-0.84-1.26-2.34-1.89-4.5-1.89h-4.41
			v-6.03h4.68c2.88,0,4.98,1.29,6.3,3.87c-0.48-2.76-0.72-5.67-0.72-8.73v-2.7h6.84v7.56h10.17V545.73z"/>
		<path class="st13" d="M203.44,586.48c0-1.8,0.18-3.42,0.54-4.86h6.66c-0.36,1.32-0.54,2.88-0.54,4.68c0,2.4,0.67,4.2,2.02,5.4
			c1.35,1.2,3.19,1.8,5.53,1.8c1.98,0,4.72-0.43,8.23-1.3c3.51-0.87,6.1-1.3,7.78-1.3c1.74,0,3.18,0.57,4.32,1.71v-32.74
			c0-4.5-1.05-8.1-3.15-10.79c-2.1-2.7-5.28-4.05-9.54-4.05c-6.36,0-10.22,2.76-11.6,8.28h0.36c4.74,0,8.51,1.1,11.33,3.28
			c2.82,2.19,4.23,5.29,4.23,9.31c0,4.2-1.47,7.41-4.41,9.62c-2.94,2.22-6.9,3.33-11.87,3.33c-2.22,0-4.59-0.24-7.11-0.72v-5.67
			c2.1,0.18,4.44,0.27,7.02,0.27c6.24,0,9.36-2.28,9.36-6.84s-3.12-6.84-9.36-6.84h-6.93v-1.44c0-5.1,1.57-9.5,4.72-13.22
			c3.15-3.72,7.48-5.58,13-5.58c6.6,0,11.24,2.19,13.94,6.57v-13.22h6.93v7.56h10.17v6.03h-10.17v56.49h-6.93v-1.08
			c0-2.76-1.17-4.14-3.51-4.14c-1.08,0-3.51,0.46-7.29,1.39c-3.78,0.93-7.08,1.39-9.9,1.39c-4.02,0-7.33-1.16-9.94-3.46
			C204.74,594.02,203.44,590.74,203.44,586.48z"/>
		<path class="st13" d="M278.73,545.73h-10.17v51.72h-6.93v-44.44c0-2.34-0.42-4.14-1.26-5.4c-0.84-1.26-2.34-1.89-4.5-1.89h-4.41
			v-6.03h4.68c2.88,0,4.98,1.29,6.3,3.87c-0.48-2.76-0.72-5.67-0.72-8.73v-2.7h6.84v7.56h10.17V545.73z"/>
		<path class="st13" d="M333.15,545.73h-10.71v51.72h-7.02v-8.91c0-5.22-1.3-9.3-3.91-12.23c-2.61-2.94-6.28-4.41-11.02-4.41
			c-3.36,0-6.04,0.85-8.05,2.56c-2.01,1.71-3.01,4.12-3.01,7.24c0,3.12,0.96,5.5,2.88,7.15c1.92,1.65,4.38,2.47,7.38,2.47
			c1.5,0,3.21-0.15,5.13-0.45v6.03c-1.92,0.36-3.84,0.54-5.76,0.54c-4.92,0-8.94-1.36-12.05-4.09c-3.12-2.73-4.68-6.61-4.68-11.65
			c0-3.9,1.14-7.23,3.42-9.99c2.28-2.76,5.31-4.59,9.09-5.49c-0.6-9.95-5.16-14.93-13.67-14.93v-5.58h-6.03v-6.03h58.02V545.73z
			 M315.43,573.44v-27.71h-27.26c4.26,1.32,7.48,3.78,9.67,7.38c2.19,3.6,3.46,7.83,3.82,12.68
			C308.15,566.27,312.73,568.82,315.43,573.44z"/>
		<path class="st13" d="M376.78,545.73h-10.17v51.72h-6.93v-51.72h-10.17v-6.03h10.17v-2.97c0-12.29,6.81-18.44,20.42-18.44
			c7.08,0,14.99,1.32,23.75,3.96v5.94c-8.04-2.58-15.86-3.87-23.48-3.87c-5.16,0-8.74,1.05-10.75,3.15
			c-2.01,2.1-3.01,5.19-3.01,9.27v2.97h10.17V545.73z"/>
		<path class="st13" d="M417.71,597.45h-6.93v-0.36c-1.92-18.83-7.29-28.25-16.1-28.25c-2.94,0-5.19,0.9-6.75,2.7
			c-1.56,1.8-2.34,4.26-2.34,7.38c0,1.56,0.09,2.94,0.27,4.14h-6.84c-0.3-1.92-0.45-3.42-0.45-4.5c0-4.62,1.41-8.46,4.23-11.51
			c2.82-3.06,6.6-4.59,11.33-4.59c7.79,0,13.34,4.29,16.64,12.86v-29.6h-37.6v-6.03h54.51v6.03h-9.99V597.45z"/>
		<path class="st13" d="M474.92,545.73h-10.17v51.72h-6.84l-28.16-21.5v-7.83c3.96-3.66,8.42-6.93,13.4-9.8
			c4.98-2.88,9.9-4.92,14.75-6.12v-6.48H424.1v-6.03h50.83V545.73z M457.92,589.36v-30.59c-7.62,2.46-14.99,6.87-22.13,13.22
			L457.92,589.36z"/>
		<path class="st13" d="M458.28,535.02l12.68-13.49h6.66v0.36l-12.5,13.49h-6.84V535.02z"/>
		<path class="st13" d="M498.58,545.73h-10.17v51.72h-6.93v-44.44c0-2.34-0.42-4.14-1.26-5.4c-0.84-1.26-2.34-1.89-4.5-1.89h-4.41
			v-6.03H476c2.88,0,4.98,1.29,6.3,3.87c-0.48-2.76-0.72-5.67-0.72-8.73v-2.7h6.84v7.56h10.17V545.73z"/>
		<path class="st13" d="M539.87,573.52c0,3.78-0.85,7.53-2.56,11.25c-1.71,3.72-4.24,6.88-7.6,9.49c-3.36,2.61-7.11,3.91-11.24,3.91
			c-4.08,0-7.32-1.27-9.72-3.82c-2.4-2.55-3.6-6.07-3.6-10.57v-38.05h-10.17v-6.03h51.54v6.03h-34.45v6.75l12.14,4.32
			c5.28,1.8,9.21,3.93,11.78,6.39C538.58,565.64,539.87,569.09,539.87,573.52z M518.55,591.97c3.9,0,7.27-1.96,10.12-5.89
			c2.85-3.93,4.27-8.11,4.27-12.55c0-2.64-0.78-4.65-2.34-6.03c-1.56-1.38-4.17-2.73-7.83-4.05l-10.7-3.87v24.2
			C512.07,589.24,514.23,591.97,518.55,591.97z"/>
		<path class="st13" d="M587.46,597.45h-6.93v-0.36c-1.92-18.83-7.29-28.25-16.1-28.25c-2.94,0-5.19,0.9-6.75,2.7
			c-1.56,1.8-2.34,4.26-2.34,7.38c0,1.56,0.09,2.94,0.27,4.14h-6.84c-0.3-1.92-0.45-3.42-0.45-4.5c0-4.62,1.41-8.46,4.23-11.51
			c2.82-3.06,6.6-4.59,11.33-4.59c7.79,0,13.34,4.29,16.64,12.86v-29.6h-37.6v-6.03h54.51v6.03h-9.99V597.45z"/>
		<path class="st13" d="M160.08,680.39c0,5.28-1.44,9.36-4.32,12.23c-2.88,2.88-6.54,4.32-10.98,4.32c-0.78,0-1.35-0.03-1.71-0.09
			v-6.48h1.08c6.06,0,9.08-3.33,9.08-9.99c0-4.32-1.65-7.78-4.95-10.39c-3.3-2.61-7.5-3.91-12.59-3.91v39.31h-6.84l-28.16-21.5
			v-7.83c10.01-9.17,19.4-14.54,28.16-16.1v-6.3H95.04v-6.03h70.62v6.03H135.7v6.21c7.02,0.06,12.83,1.99,17.45,5.8
			C157.77,669.49,160.08,674.4,160.08,680.39z M128.87,697.4v-30.95c-6.78,1.68-14.18,6.21-22.22,13.58L128.87,697.4z"/>
		<path class="st13" d="M212.89,653.68h-10.17v51.72h-6.84l-28.16-21.5v-7.83c3.96-3.66,8.42-6.93,13.4-9.8
			c4.98-2.88,9.9-4.92,14.75-6.12v-6.48h-33.82v-6.03h50.83V653.68z M175.64,699.33c0.96,0.93,1.44,2.05,1.44,3.37
			s-0.46,2.43-1.39,3.33c-0.93,0.9-2.08,1.35-3.46,1.35c-1.38,0-2.5-0.45-3.37-1.35c-0.87-0.9-1.3-2.01-1.3-3.33
			s0.45-2.44,1.35-3.37c0.9-0.93,2.01-1.39,3.33-1.39C173.54,697.93,174.68,698.4,175.64,699.33z M195.88,697.31v-30.59
			c-7.62,2.46-14.99,6.87-22.13,13.22L195.88,697.31z"/>
		<path class="st13" d="M212.98,665.46c4.2,0,7.48,1.17,9.85,3.51c2.37,2.34,3.55,5.61,3.55,9.81c0,3.84-1.25,7.08-3.73,9.71
			c-2.49,2.64-5.95,3.96-10.39,3.96c-2.82,0-5.38-0.76-7.69-2.29s-3.85-3.7-4.63-6.52l2.79-5.76c0,2.52,0.87,4.59,2.61,6.21
			s3.93,2.43,6.57,2.43c2.52,0,4.45-0.72,5.8-2.16c1.35-1.44,2.02-3.33,2.02-5.67c0-2.4-0.65-4.21-1.93-5.44
			c-1.29-1.23-3.07-1.84-5.35-1.84c-1.32,0-2.28,0.06-2.88,0.18v-5.94C210.88,665.52,212.02,665.46,212.98,665.46z M233.22,653.68
			h-23.93v-6.03h23.93V653.68z"/>
		<path class="st13" d="M274.15,705.4h-6.93v-0.36c-1.92-18.83-7.29-28.25-16.1-28.25c-2.94,0-5.19,0.9-6.75,2.7
			c-1.56,1.8-2.34,4.26-2.34,7.38c0,1.56,0.09,2.94,0.27,4.14h-6.84c-0.3-1.92-0.45-3.42-0.45-4.5c0-4.62,1.41-8.46,4.23-11.51
			c2.82-3.06,6.6-4.59,11.33-4.59c7.79,0,13.34,4.29,16.64,12.86v-29.6h-37.6v-6.03h54.51v6.03h-9.99V705.4z"/>
	</g>
</g>
</svg>
