<?xml version="1.0" encoding="utf-8"?>
<!-- Generator: Adobe Illustrator 26.0.1, SVG Export Plug-In . SVG Version: 6.00 Build 0)  -->
<svg version="1.1" id="Layer_1" xmlns="http://www.w3.org/2000/svg" xmlns:xlink="http://www.w3.org/1999/xlink" x="0px" y="0px"
	 viewBox="0 0 810 1000" style="enable-background:new 0 0 810 1000;" xml:space="preserve">
<style type="text/css">
	.st0{fill:#EF3220;}
	.st1{opacity:0.5;fill:#C1211A;}
	.st2{fill:#FFFFFF;}
	.st3{fill:#464754;}
	.st4{fill:#FF6465;}
	.st5{fill:#E1E1E5;}
	.st6{fill:#363844;}
	.st7{fill:#EF525A;}
	.st8{fill:#C7C7C9;}
	.st9{fill:#B28A5D;}
	.st10{fill:#9E6E3F;}
</style>
<g>
	<polygon class="st0" points="404.82,995.33 506.49,819.24 303.15,819.24 	"/>
	<path class="st0" d="M802.59,133.14v681.78c0,20.41-16.54,36.92-36.92,36.92H43.98c-20.41,0-36.92-16.51-36.92-36.92V133.14
		c0-20.38,16.51-36.92,36.92-36.92h721.69C786.04,96.22,802.59,112.76,802.59,133.14z"/>
	<path class="st1" d="M802.59,582.85v232.08c0,20.41-16.54,36.92-36.92,36.92H43.98c-20.41,0-36.92-16.51-36.92-36.92V339.73
		C169.65,584.16,444.41,838.31,802.59,582.85z"/>
	<g>
		<path class="st2" d="M108.44,277.24v-27.77l-32.9,15.83v-12.03l7.7-3.54c-1.83-2.71-4.39-4.6-7.7-5.66v-1.5
			c0-5.19,1.64-9.72,4.91-13.58c3.27-3.86,8.09-5.79,14.46-5.79c6.25,0,10.76,2.27,13.53,6.81v-13h12.38v7.08h7.52v9.91h-7.52v57.23
			h-12.38v-1.77c0-2.12-1.06-3.18-3.19-3.18c-1.24,0-3.44,0.38-6.59,1.15c-3.16,0.77-5.94,1.15-8.36,1.15
			c-4.25,0-7.8-1.24-10.66-3.72c-2.86-2.48-4.29-6.13-4.29-10.97c0-2.12,0.18-4.04,0.53-5.75h12.03c-0.12,1.3-0.18,2.39-0.18,3.27
			c0,4.01,1.74,6.02,5.22,6.02c1.12,0,2.71-0.28,4.78-0.84c2.06-0.56,3.95-0.84,5.66-0.84C105.7,275.74,107.38,276.24,108.44,277.24
			z M87.22,239.74c2.36,1.12,4.33,2.92,5.93,5.39l13.8-6.28c-1.95-3.95-5.25-5.93-9.91-5.93c-2.42,0-4.53,0.62-6.33,1.86
			C88.91,236.02,87.75,237.67,87.22,239.74z"/>
		<path class="st2" d="M180.62,283.43h-11.94v-0.09l-0.09,0.09l-38.12-20.52V253h8.4c4.01,0,7.1-1.09,9.29-3.27
			c2.18-2.18,3.27-5.39,3.27-9.64c0-2.06-0.44-3.76-1.33-5.09c-0.88-1.33-2.21-1.99-3.98-1.99c-1.59,0-2.82,0.53-3.67,1.59
			c-0.86,1.06-1.28,2.42-1.28,4.07c0,1.71,0.35,3.63,1.06,5.75H131c-0.94-2.01-1.42-4.48-1.42-7.43c0-4.13,1.44-7.47,4.33-10.04
			c2.89-2.56,6.81-3.85,11.76-3.85c5.42,0,9.73,1.67,12.91,5c3.18,3.33,4.78,7.33,4.78,11.99c0,5.72-1.37,10.28-4.11,13.67
			c-2.74,3.39-6.44,5.65-11.1,6.77l20.52,11.32V217h11.94v7.08h7.52v9.91h-7.52V283.43z"/>
		<path class="st2" d="M246.52,233.99h-10.17v49.45h-12.38v-7.52c0-4.3-1.11-7.75-3.32-10.35c-2.21-2.59-5.29-3.89-9.24-3.89
			c-2.48,0-4.41,0.52-5.79,1.55c-1.39,1.03-2.08,2.46-2.08,4.29c0,1.83,0.63,3.18,1.9,4.07c1.27,0.88,2.88,1.33,4.82,1.33
			c1.06,0,2.18-0.06,3.36-0.18v10.17c-1.65,0.35-3.63,0.53-5.93,0.53c-4.9,0-8.92-1.38-12.07-4.16c-3.16-2.77-4.73-6.72-4.73-11.85
			c0-3.89,1.02-7.15,3.05-9.78c2.03-2.62,4.79-4.5,8.27-5.62c-0.65-3.12-1.96-5.37-3.94-6.72c-1.98-1.36-4.73-2.03-8.27-2.03v-9.29
			h-5.4v-9.91h61.92V233.99z M223.96,257.87v-23.88h-22.73c3.54,1.59,6.38,3.89,8.54,6.9c2.15,3.01,3.52,6.46,4.11,10.35
			C218.48,252,221.84,254.21,223.96,257.87z"/>
		<path class="st2" d="M98.01,373.53c-0.94,0.18-2.01,0.27-3.18,0.27c-5.96,0-10.56-2.26-13.8-6.77
			c-3.24-4.51-4.92-10.72-5.04-18.62c-0.06-4.13,0.1-7.86,0.49-11.19c0.38-3.33,1.08-6.5,2.08-9.51c1-3.01,2.33-5.53,3.98-7.56
			c1.65-2.03,3.8-3.64,6.46-4.82c2.65-1.18,5.72-1.77,9.2-1.77h2.92v9.91h-2.56c-1.95,0-3.6,0.5-4.95,1.5
			c-1.36,1-2.39,2.23-3.1,3.67c-0.71,1.45-1.27,3.38-1.68,5.79c-0.41,2.42-0.66,4.61-0.75,6.59c-0.09,1.98-0.13,4.44-0.13,7.39
			c0,9.67,2.68,14.51,8.05,14.51c0.94,0,1.62-0.03,2.03-0.09V373.53z"/>
		<path class="st2" d="M110.57,359.03c0-4.36,1.37-8.14,4.11-11.32c2.74-3.18,6.26-5.72,10.57-7.61c-1.53-1.24-2.65-2.68-3.36-4.33
			c-0.88,1.65-2.3,3.08-4.25,4.29c-1.95,1.21-4.36,1.81-7.25,1.81c-3.07,0-6.07-0.74-9.02-2.21v-10.26c3.12,1.24,5.93,1.86,8.4,1.86
			c2.53,0,4.33-0.6,5.4-1.81c1.06-1.21,1.59-3.2,1.59-5.97H97.56v-9.91h42.37c0-0.3,0.01-0.74,0.04-1.33
			c0.03-0.59,0.04-0.94,0.04-1.06c0-1.83-0.31-3.18-0.93-4.07c-0.62-0.88-1.84-1.33-3.67-1.33c-1.3,0-3.86,0.28-7.7,0.84
			c-3.83,0.56-6.69,0.84-8.58,0.84c-3.95,0-7.02-0.65-9.2-1.95v-9.46c1.83,1,4.51,1.5,8.05,1.5c1.83,0,4.82-0.35,8.98-1.06
			c4.16-0.71,7.44-1.06,9.86-1.06c4.66,0,8.23,1.22,10.7,3.67c2.48,2.45,3.72,5.88,3.72,10.31c0,1.42-0.12,2.8-0.35,4.16h7.25v9.91
			h-7.17c0.41,1.65,0.62,3.69,0.62,6.1c0,5.48-2.36,9.41-7.08,11.77c-1.36,0.77-3.66,1.9-6.9,3.41c-3.24,1.5-5.76,2.76-7.56,3.76
			c-1.8,1-3.49,2.45-5.09,4.33c-1.59,1.89-2.39,3.95-2.39,6.19c0,4.84,3.42,7.25,10.26,7.25c5.84,0,8.76-1.24,8.76-3.71
			c0-2.24-2.03-3.36-6.1-3.36c-1.06,0-2.18,0.06-3.36,0.18v-9.64c1.36-0.18,2.83-0.27,4.42-0.27c4.83,0,8.73,1.18,11.68,3.54
			c2.95,2.36,4.42,5.54,4.42,9.55c0,4.24-1.89,7.62-5.66,10.13c-3.77,2.51-8.52,3.76-14.24,3.76c-6.78,0-12.18-1.5-16.19-4.51
			C112.57,368.93,110.57,364.63,110.57,359.03z M134.89,332.93c3.19,0,4.78-1.8,4.78-5.39c0-1.59-0.12-2.95-0.35-4.07h-10.7
			C128.73,329.78,130.82,332.93,134.89,332.93z"/>
		<path class="st2" d="M210.52,372.91h-12.38v-39.36c0-6.84-2.77-10.26-8.31-10.26c-2.3,0-4.1,0.74-5.4,2.21
			c-1.3,1.47-1.95,3.42-1.95,5.84c0,2.6,0.69,4.51,2.08,5.75c1.38,1.24,3.2,1.86,5.44,1.86c1.36,0,2.3-0.03,2.83-0.09v10.79
			c-1.24,0.24-2.68,0.35-4.33,0.35c-5.6,0-9.7-1.68-12.3-5.04c-2.77,3.36-6.69,5.04-11.77,5.04c-1.83,0-3.77-0.21-5.84-0.62v-10.79
			c1.42,0.24,2.86,0.35,4.33,0.35c5.01,0,7.52-2.54,7.52-7.61c0-2.42-0.72-4.33-2.17-5.75c-1.45-1.42-3.44-2.12-5.97-2.12h-7.7
			v-9.91h9.55c5.07,0,9.05,1.8,11.94,5.39c2.77-4.19,6.75-6.28,11.94-6.28c4.48,0,7.84,1.36,10.08,4.07v-10.26h12.38v7.08h7.52v9.91
			h-7.52V372.91z"/>
		<path class="st2" d="M263.41,372.91h-12.38c-0.35-2.48-0.86-4.98-1.5-7.52c-0.65-2.53-1.52-5.19-2.61-7.96
			c-1.09-2.77-2.49-5.03-4.2-6.77c-1.71-1.74-3.6-2.61-5.66-2.61c-2.01,0-3.51,0.65-4.51,1.95c-1,1.3-1.5,3.01-1.5,5.13
			c0,1.65,0.15,3.27,0.44,4.86h-12.03c-0.53-2.18-0.8-4.22-0.8-6.1c0-4.66,1.44-8.61,4.33-11.85c2.89-3.24,6.9-4.86,12.03-4.86
			c7.19,0,12.53,3.51,16.01,10.53v-24.24H214.5v-9.91h55.64v9.91h-6.72V372.91z"/>
		<path class="st2" d="M286.54,330.32c1.5,1.5,2.26,3.35,2.26,5.53s-0.75,4.03-2.26,5.53s-3.35,2.25-5.53,2.25
			c-2.18,0-4.02-0.75-5.53-2.25s-2.26-3.35-2.26-5.53s0.75-4.03,2.26-5.53s3.35-2.25,5.53-2.25
			C283.2,328.07,285.04,328.82,286.54,330.32z M286.54,359.6c1.5,1.5,2.26,3.35,2.26,5.53c0,2.18-0.75,4.03-2.26,5.53
			c-1.5,1.5-3.35,2.25-5.53,2.25c-2.18,0-4.02-0.75-5.53-2.25c-1.5-1.5-2.26-3.35-2.26-5.53c0-2.18,0.75-4.02,2.26-5.53
			s3.35-2.26,5.53-2.26C283.2,357.35,285.04,358.1,286.54,359.6z"/>
	</g>
	<g>
		<path class="st2" d="M115.09,525.72h-6.9V506.7c0-2.3-0.5-4.2-1.5-5.71c-1-1.5-2.54-2.25-4.6-2.25c-1.42,0-2.73,0.5-3.94,1.5
			c-1.21,1-2.32,2.23-3.32,3.67c-1,1.45-2.07,2.91-3.18,4.38c-1.12,1.47-2.54,2.71-4.25,3.71c-1.71,1-3.66,1.5-5.84,1.5
			c-1.95,0-3.98-0.41-6.1-1.24v-6.01c1.95,0.59,3.66,0.88,5.13,0.88c1.65,0,3.07-0.47,4.25-1.42c1.18-0.94,2.51-2.48,3.98-4.6
			c1.47-2.12,2.54-3.57,3.18-4.33c-0.65-5.01-2.37-9.01-5.17-11.98c-2.8-2.98-6.44-4.47-10.92-4.47v-5.48h-5.66v-5.93h54.84v5.93
			h-10V525.72z M100.93,492.46c3.36,0,5.78,1.21,7.25,3.63v-21.23h-25.3c4.01,1.3,7.28,3.58,9.82,6.86c2.54,3.27,4.19,7,4.95,11.19
			C98.72,492.61,99.81,492.46,100.93,492.46z"/>
		<path class="st2" d="M148.26,474.86h-10v50.86h-6.81v-43.7c0-2.3-0.41-4.07-1.24-5.31c-0.83-1.24-2.3-1.86-4.42-1.86h-4.33v-5.93
			h4.6c2.83,0,4.89,1.27,6.19,3.8c-0.47-2.71-0.71-5.57-0.71-8.58v-2.65h6.72v7.43h10V474.86z"/>
		<path class="st2" d="M197.79,511.39c0,5.48-1.74,10.08-5.22,13.8c-3.48,3.71-8.67,5.57-15.57,5.57s-12.25-2.05-16.05-6.15
			c-3.8-4.1-5.71-9.42-5.71-15.97h6.72c0,5.19,1.3,9.2,3.89,12.03c2.59,2.83,6.31,4.25,11.15,4.25c4.54,0,8.02-1.18,10.44-3.54
			c2.42-2.36,3.63-5.72,3.63-10.08c0-5.78-2.33-8.67-6.99-8.67c-2.01,0-3.55,0.62-4.64,1.86c-1.09,1.24-1.64,2.92-1.64,5.04
			c0,1.83,0.27,3.86,0.8,6.1h-6.1c-0.77-2.18-1.15-4.39-1.15-6.64c0-3.54,1.09-6.46,3.27-8.76c2.18-2.3,5.13-3.45,8.84-3.45v-7.7
			l-31.05,16.1v-7.34l7.7-3.89c-1.95-2.89-4.6-4.95-7.96-6.19V486c0-4.72,1.56-8.89,4.69-12.52c3.13-3.63,7.46-5.44,13-5.44
			c6.37,0,10.91,2.21,13.62,6.63V461.5h6.81v7.43h13.62v5.93h-13.62v23.26c2.36,1.12,4.2,2.85,5.53,5.18
			C197.12,505.63,197.79,508.33,197.79,511.39z M158.96,484.5c2.71,1.42,4.95,3.63,6.72,6.64l16.89-8.58
			c-1.65-5.72-5.6-8.58-11.85-8.58c-3.54,0-6.3,1.03-8.27,3.1C160.47,479.14,159.31,481.61,158.96,484.5z"/>
		<path class="st2" d="M227.16,474.86h-10v50.86h-6.81v-43.7c0-2.3-0.41-4.07-1.24-5.31c-0.83-1.24-2.3-1.86-4.42-1.86h-4.33v-5.93
			h4.6c2.83,0,4.89,1.27,6.19,3.8c-0.47-2.71-0.71-5.57-0.71-8.58v-2.65h6.72v7.43h10V474.86z"/>
		<path class="st2" d="M250.42,474.86h-10v50.86h-6.81v-50.86h-10v-5.93h10v-2.92c0-12.09,6.69-18.13,20.08-18.13
			c6.96,0,14.74,1.3,23.35,3.89v5.84c-7.9-2.54-15.6-3.8-23.09-3.8c-5.07,0-8.6,1.03-10.57,3.1c-1.98,2.07-2.96,5.1-2.96,9.11v2.92
			h10V474.86z"/>
		<path class="st2" d="M290.57,474.86h-43.7v-5.93h43.7V474.86z M283.06,526.61h-9.55l-17.96-12.92v-5.92h7.7
			c4.25-0.06,7.47-1.14,9.69-3.23c2.21-2.09,3.32-5,3.32-8.71c0-2.89-0.72-5.12-2.17-6.68c-1.45-1.56-3.44-2.34-5.97-2.34
			c-2.36,0-4.23,0.72-5.62,2.17c-1.39,1.45-2.08,3.35-2.08,5.71c0,1.47,0.29,3.45,0.88,5.93h-6.46c-0.71-1.77-1.06-3.83-1.06-6.19
			c0-3.95,1.28-7.19,3.85-9.73c2.56-2.53,6.03-3.8,10.39-3.8c4.48,0,8.11,1.43,10.88,4.29c2.77,2.86,4.16,6.41,4.16,10.66
			c0,4.9-1.59,8.92-4.78,12.07c-3.19,3.16-7.58,4.88-13.18,5.17l17.96,12.83V526.61z"/>
		<path class="st2" d="M350.99,501.13c0,5.19-1.42,9.2-4.25,12.03c-2.83,2.83-6.43,4.25-10.79,4.25c-0.77,0-1.33-0.03-1.68-0.09
			v-6.37h1.06c5.96,0,8.93-3.27,8.93-9.82c0-4.25-1.62-7.65-4.86-10.22c-3.24-2.57-7.37-3.85-12.38-3.85v38.65h-6.72l-27.69-21.14
			v-7.7c9.85-9.02,19.08-14.3,27.69-15.83v-6.19h-33.26v-5.93h69.44v5.93h-29.45v6.1c6.9,0.06,12.62,1.96,17.16,5.71
			C348.72,490.41,350.99,495.23,350.99,501.13z M320.29,517.85v-30.43c-6.66,1.65-13.95,6.1-21.85,13.36L320.29,517.85z"/>
		<path class="st2" d="M421.31,539.87h-6.72v-13.44c0-5.25-1.83-7.87-5.48-7.87c-1.83,0-3.2,0.78-4.11,2.34
			c-0.92,1.56-1.37,3.61-1.37,6.15v1.95h-6.37v-2.03c0-5.48-2.15-8.23-6.46-8.23c-1.89,0-3.38,0.69-4.47,2.08
			c-1.09,1.39-1.64,3.29-1.64,5.71c0,2.54,0.71,4.44,2.12,5.7s3.3,1.9,5.66,1.9c1.59,0,3.01-0.09,4.25-0.27v5.57
			c-1.36,0.24-2.83,0.35-4.42,0.35c-4.19,0-7.56-1.18-10.13-3.54c-2.57-2.36-3.85-5.6-3.85-9.73c0-3.89,1.09-7.09,3.27-9.6
			c2.18-2.51,5.07-3.76,8.67-3.76c5.37,0,8.73,2.39,10.08,7.17c0.29-2.18,1.22-3.97,2.79-5.35c1.56-1.38,3.43-2.08,5.62-2.08
			c2.65,0,4.6,0.91,5.84,2.74v-5.48l-24.86-10.79v-7.61c7.61-7.02,15.89-11.29,24.86-12.83v-4.07h-41.66v-5.93h77.84v5.93h-29.45
			v3.89c6.13,0.06,11.35,1.61,15.66,4.64c4.3,3.04,6.46,7.09,6.46,12.16c0,4.19-1.3,7.46-3.89,9.82c-2.6,2.36-5.99,3.54-10.17,3.54
			c-0.83,0-1.42-0.03-1.77-0.09v-6.19h1.15c2.48,0,4.41-0.6,5.79-1.81c1.38-1.21,2.08-2.96,2.08-5.26c0-3.48-1.52-6.13-4.56-7.96
			c-3.04-1.83-6.62-2.74-10.75-2.74V539.87z M414.58,503.52v-18.49c-6.25,1.3-12.5,4.63-18.75,9.99L414.58,503.52z"/>
		<path class="st2" d="M474.03,474.86h-10v50.86h-6.81v-43.7c0-2.3-0.41-4.07-1.24-5.31c-0.83-1.24-2.3-1.86-4.42-1.86h-4.33v-5.93
			h4.6c2.83,0,4.89,1.27,6.19,3.8c-0.47-2.71-0.71-5.57-0.71-8.58v-2.65h6.72v7.43h10V474.86z"/>
		<path class="st2" d="M515.33,525.72h-6.9V506.7c0-2.3-0.5-4.2-1.5-5.71c-1-1.5-2.54-2.25-4.6-2.25c-1.42,0-2.73,0.5-3.94,1.5
			c-1.21,1-2.32,2.23-3.32,3.67c-1,1.45-2.07,2.91-3.18,4.38c-1.12,1.47-2.54,2.71-4.25,3.71c-1.71,1-3.66,1.5-5.84,1.5
			c-1.95,0-3.98-0.41-6.1-1.24v-6.01c1.95,0.59,3.66,0.88,5.13,0.88c1.65,0,3.07-0.47,4.25-1.42c1.18-0.94,2.51-2.48,3.98-4.6
			c1.47-2.12,2.54-3.57,3.18-4.33c-0.65-5.01-2.37-9.01-5.17-11.98c-2.8-2.98-6.44-4.47-10.92-4.47v-5.48h-5.66v-5.93h54.84v5.93
			h-10V525.72z M501.18,492.46c3.36,0,5.78,1.21,7.25,3.63v-21.23h-25.3c4.01,1.3,7.28,3.58,9.82,6.86c2.54,3.27,4.19,7,4.95,11.19
			C498.97,492.61,500.06,492.46,501.18,492.46z"/>
		<path class="st2" d="M608.3,510.68c0,5.19-2.45,9.26-7.34,12.21c-4.9,2.95-11.47,4.42-19.73,4.42c-10.26,0-18.31-2.14-24.15-6.41
			c-5.84-4.28-8.99-9.92-9.47-16.94h7.17c0.23,5.48,2.71,9.76,7.43,12.83c4.72,3.07,11.09,4.6,19.11,4.6
			c13.27,0,19.93-3.65,19.99-10.97c0.06-2.89-0.99-5.04-3.14-6.46c-2.15-1.42-5.15-2.12-8.98-2.12h-2.57v-6.1h2.57
			c3.42,0,6.09-0.96,8-2.88c1.92-1.92,2.88-4.5,2.88-7.74c0-4.72-1.83-7.99-5.48-9.82l-5.4,12.03H583v-2.56
			c0-7.19-2.86-10.79-8.58-10.79c-2.42,0-4.38,0.9-5.88,2.7c-1.5,1.8-2.26,4.23-2.26,7.3c0,3.3,0.82,5.78,2.48,7.43
			c1.65,1.65,3.92,2.48,6.81,2.48c1.18,0,2.39-0.09,3.63-0.27v5.84c-1.36,0.24-2.77,0.35-4.25,0.35c-5.25,0-9.17-1.89-11.76-5.66
			c-2.3,3.77-5.99,5.66-11.06,5.66c-1.83,0-3.36-0.15-4.6-0.44v-5.84c1.18,0.24,2.51,0.35,3.98,0.35c2.89,0,4.98-0.8,6.28-2.39
			c1.3-1.59,1.95-4.1,1.95-7.52c0-3.07-0.75-5.34-2.26-6.81c-1.5-1.47-3.82-2.21-6.94-2.21l-8.84-0.09v-5.93h9.2
			c5.48,0,9.52,1.92,12.12,5.75c2.59-4.13,6.34-6.25,11.23-6.37c6.84,0,11.09,3.3,12.74,9.91l4.42-10.17
			c4.54,0.47,8.25,2.29,11.14,5.44c2.89,3.16,4.33,7,4.33,11.54c0,7.13-3.1,11.67-9.29,13.62c3.18,0.47,5.76,1.71,7.74,3.71
			C607.31,504.37,608.3,507.14,608.3,510.68z"/>
		<path class="st2" d="M661.46,474.86h-10v50.86h-6.72l-27.69-21.14v-7.7c3.89-3.6,8.28-6.81,13.18-9.64
			c4.89-2.83,9.73-4.83,14.51-6.02v-6.37h-33.26v-5.93h49.98V474.86z M624.84,519.75c0.94,0.92,1.42,2.02,1.42,3.32
			c0,1.3-0.46,2.39-1.37,3.27c-0.92,0.88-2.05,1.33-3.41,1.33c-1.36,0-2.46-0.44-3.32-1.33c-0.86-0.89-1.28-1.98-1.28-3.27
			c0-1.3,0.44-2.4,1.33-3.32c0.89-0.91,1.98-1.37,3.27-1.37C622.77,518.38,623.89,518.84,624.84,519.75z M644.74,517.76v-30.08
			c-7.49,2.42-14.74,6.75-21.76,13L644.74,517.76z"/>
		<path class="st2" d="M661.54,486.45c4.13,0,7.36,1.15,9.69,3.45c2.33,2.3,3.49,5.51,3.49,9.64c0,3.78-1.23,6.96-3.67,9.55
			c-2.45,2.6-5.85,3.89-10.22,3.89c-2.77,0-5.29-0.75-7.56-2.26c-2.27-1.5-3.79-3.64-4.56-6.41l2.74-5.66c0,2.48,0.86,4.51,2.57,6.1
			c1.71,1.59,3.86,2.39,6.46,2.39c2.48,0,4.38-0.71,5.7-2.12c1.33-1.42,1.99-3.27,1.99-5.57c0-2.36-0.63-4.14-1.9-5.35
			c-1.27-1.21-3.02-1.81-5.26-1.81c-1.3,0-2.24,0.06-2.83,0.18v-5.84C659.48,486.51,660.6,486.45,661.54,486.45z M681.45,474.86
			h-23.53v-5.93h23.53V474.86z"/>
		<path class="st2" d="M96.69,632.48c-0.47,0.06-1.27,0.09-2.39,0.09c-5.6,0-9.73-2.2-12.38-6.59c-2.65-4.39-4.04-10.22-4.16-17.47
			c0-4.13,0.31-8.02,0.93-11.68c0.62-3.66,1.64-7.19,3.05-10.61c1.42-3.42,3.49-6.13,6.24-8.14c2.74-2.01,6.03-3.01,9.86-3.01h1.33
			v5.93h-1.24c-2.54,0-4.73,0.81-6.59,2.43c-1.86,1.62-3.26,3.82-4.2,6.59c-0.94,2.77-1.62,5.68-2.03,8.71
			c-0.41,3.04-0.62,6.3-0.62,9.78c0,11.97,3.51,17.95,10.53,17.95h1.68V632.48z"/>
		<path class="st2" d="M149.67,631.87h-6.81V593.3c0-3.6-0.86-6.69-2.56-9.29c-1.71-2.59-4.6-3.89-8.67-3.89
			c-3.01,0-5.4,0.91-7.17,2.74c-1.77,1.83-2.65,4.28-2.65,7.34c0,3.3,0.84,5.81,2.52,7.52c1.68,1.71,3.96,2.57,6.86,2.57
			c1.24,0,2.48-0.09,3.72-0.27v6.1c-1.36,0.24-2.77,0.35-4.25,0.35c-5.66,0-9.76-2.03-12.3-6.1c-2.48,4.07-6.52,6.1-12.12,6.1
			c-1.65,0-3.3-0.18-4.95-0.53v-6.02c1.36,0.24,2.8,0.35,4.33,0.35c3.01,0,5.32-0.85,6.94-2.57c1.62-1.71,2.43-4.21,2.43-7.52
			c0-3.01-0.92-5.28-2.74-6.81c-1.83-1.53-4.36-2.3-7.61-2.3l-9.02-0.09v-5.93H105c6.02,0,10.41,1.98,13.18,5.93
			c2.83-4.54,7.16-6.81,13-6.81c5.19,0,9.08,1.68,11.68,5.04v-11.59h6.81v7.43h10v5.93h-10V631.87z"/>
		<path class="st2" d="M205.13,631.87h-6.72v-0.18l-0.09,0.18l-37.59-21.49V604h6.55c4.72-0.06,8.43-1.44,11.15-4.16
			c2.71-2.71,4.07-6.28,4.07-10.7v-0.44c-2.24,4.42-5.87,6.63-10.88,6.63c-4.13,0-7.39-1.27-9.77-3.8
			c-2.39-2.53-3.58-5.78-3.58-9.73c0-2.48,0.41-4.72,1.24-6.72h6.63c-0.65,2.36-0.97,4.48-0.97,6.37c0,2.54,0.66,4.5,1.99,5.88
			c1.33,1.39,3.14,2.08,5.44,2.08c2.42,0,4.33-0.84,5.75-2.52c1.41-1.68,2.12-3.96,2.12-6.85c0-1.83-0.12-3.48-0.35-4.95h6.46
			c1.53,5.84,2.3,10.53,2.3,14.06c0,5.19-1.52,9.63-4.56,13.31s-7.18,5.94-12.43,6.77l26.54,15.3v-56.88h6.72v7.43h10v5.93h-10
			V631.87z"/>
		<path class="st2" d="M238.3,581.01h-10v50.86h-6.81v-43.7c0-2.3-0.41-4.07-1.24-5.31c-0.83-1.24-2.3-1.86-4.42-1.86h-4.33v-5.93
			h4.6c2.83,0,4.89,1.27,6.19,3.8c-0.47-2.71-0.71-5.57-0.71-8.58v-2.65h6.72v7.43h10V581.01z"/>
		<path class="st2" d="M298.45,581.01h-43.7v-5.93h43.7V581.01z M290.93,632.75h-9.55l-17.96-12.91v-5.93h7.7
			c4.25-0.06,7.47-1.14,9.69-3.23c2.21-2.09,3.32-5,3.32-8.71c0-2.89-0.72-5.11-2.17-6.68c-1.45-1.56-3.44-2.34-5.97-2.34
			c-2.36,0-4.23,0.72-5.62,2.17c-1.39,1.45-2.08,3.35-2.08,5.71c0,1.47,0.29,3.45,0.88,5.92h-6.46c-0.71-1.77-1.06-3.83-1.06-6.19
			c0-3.95,1.28-7.19,3.85-9.73c2.56-2.54,6.03-3.8,10.39-3.8c4.48,0,8.11,1.43,10.88,4.29c2.77,2.86,4.16,6.41,4.16,10.66
			c0,4.9-1.59,8.92-4.78,12.07c-3.19,3.16-7.58,4.88-13.18,5.18l17.96,12.83V632.75z"/>
		<path class="st2" d="M321.35,632.48c-0.47,0.06-1.3,0.09-2.48,0.09c-5.66,0-9.79-2.21-12.38-6.63c-2.6-4.42-3.95-10.23-4.07-17.42
			c0-13.39,2.71-22.56,8.14-27.51h-15.66v-5.93h28.92v5.93h-1.33c-2.54,0-4.7,0.8-6.5,2.39c-1.8,1.59-3.18,3.76-4.16,6.5
			c-0.97,2.74-1.67,5.65-2.08,8.71c-0.41,3.07-0.62,6.37-0.62,9.91c0,11.97,3.51,17.95,10.53,17.95h1.68V632.48z"/>
		<path class="st2" d="M370.27,581.01h-10v50.86h-6.72l-27.69-21.14v-7.7c3.89-3.6,8.28-6.81,13.18-9.64
			c4.89-2.83,9.73-4.84,14.51-6.02v-6.37h-33.26v-5.93h49.98V581.01z M353.55,623.91v-30.08c-7.49,2.42-14.74,6.75-21.76,13
			L353.55,623.91z"/>
		<path class="st2" d="M413.17,632.48c-0.47,0.06-1.27,0.09-2.39,0.09c-5.6,0-9.73-2.2-12.38-6.59c-2.65-4.39-4.04-10.22-4.16-17.47
			c0-4.13,0.31-8.02,0.93-11.68c0.62-3.66,1.64-7.19,3.05-10.61c1.42-3.42,3.49-6.13,6.24-8.14c2.74-2.01,6.03-3.01,9.86-3.01h1.33
			v5.93h-1.24c-2.54,0-4.73,0.81-6.59,2.43c-1.86,1.62-3.26,3.82-4.2,6.59c-0.94,2.77-1.62,5.68-2.03,8.71
			c-0.41,3.04-0.62,6.3-0.62,9.78c0,11.97,3.51,17.95,10.53,17.95h1.68V632.48z"/>
		<path class="st2" d="M461.11,631.87h-6.72v-0.18l-0.09,0.18l-37.59-21.49V604h6.55c4.72-0.06,8.43-1.44,11.15-4.16
			c2.71-2.71,4.07-6.28,4.07-10.7v-0.44c-2.24,4.42-5.87,6.63-10.88,6.63c-4.13,0-7.39-1.27-9.77-3.8
			c-2.39-2.53-3.58-5.78-3.58-9.73c0-2.48,0.41-4.72,1.24-6.72h6.63c-0.65,2.36-0.97,4.48-0.97,6.37c0,2.54,0.66,4.5,1.99,5.88
			c1.33,1.39,3.14,2.08,5.44,2.08c2.42,0,4.33-0.84,5.75-2.52c1.41-1.68,2.12-3.96,2.12-6.85c0-1.83-0.12-3.48-0.35-4.95h6.46
			c1.53,5.84,2.3,10.53,2.3,14.06c0,5.19-1.52,9.63-4.56,13.31c-3.04,3.69-7.18,5.94-12.43,6.77l26.54,15.3v-56.88h6.72v7.43h10
			v5.93h-10V631.87z"/>
		<path class="st2" d="M524.97,631.87h-6.81V604.8c0-2.24-0.55-4.28-1.64-6.1c-1.09-1.83-2.88-2.74-5.35-2.74
			c-5.01,0-7.52,3.66-7.52,10.97v1.5h-6.9v-1.77c0-6.96-2.71-10.44-8.14-10.44c-2.48,0-4.47,0.85-5.97,2.56
			c-1.5,1.71-2.25,4.04-2.25,6.99c0,3.3,0.91,5.82,2.74,7.56c1.83,1.74,4.22,2.61,7.16,2.61c2.12,0,4.19-0.21,6.19-0.62v6.02
			c-2.18,0.47-4.42,0.71-6.72,0.71c-4.84,0-8.76-1.44-11.77-4.33c-3.01-2.89-4.51-6.87-4.51-11.94c0-4.42,1.31-8.12,3.94-11.1
			c2.62-2.98,6.21-4.47,10.75-4.47c3.18,0,5.82,0.75,7.92,2.25c2.09,1.5,3.43,3.58,4.02,6.24c0.59-2.65,1.8-4.78,3.63-6.37
			c1.83-1.59,4.07-2.39,6.72-2.39c3.48,0,6.04,1.36,7.7,4.07v-13h-50.68v-5.93h67.49v5.93h-10V631.87z"/>
		<path class="st2" d="M558.23,581.01h-10v50.86h-6.81v-43.7c0-2.3-0.41-4.07-1.24-5.31c-0.83-1.24-2.3-1.86-4.42-1.86h-4.33v-5.93
			h4.6c2.83,0,4.89,1.27,6.19,3.8c-0.47-2.71-0.71-5.57-0.71-8.58v-2.65h6.72v7.43h10V581.01z"/>
		<path class="st2" d="M604.67,581.01h-10v50.86h-6.72l-27.69-21.14v-7.7c3.89-3.6,8.28-6.81,13.18-9.64
			c4.89-2.83,9.73-4.84,14.51-6.02v-6.37h-33.26v-5.93h49.98V581.01z M568.05,625.9c0.94,0.91,1.42,2.02,1.42,3.32
			c0,1.3-0.46,2.39-1.37,3.27c-0.92,0.89-2.05,1.33-3.41,1.33c-1.36,0-2.46-0.44-3.32-1.33c-0.86-0.88-1.28-1.97-1.28-3.27
			c0-1.3,0.44-2.4,1.33-3.32c0.89-0.91,1.98-1.37,3.27-1.37C565.98,624.52,567.1,624.98,568.05,625.9z M587.95,623.91v-30.08
			c-7.49,2.42-14.74,6.75-21.76,13L587.95,623.91z"/>
		<path class="st2" d="M116.15,740.75h-10.44l-24.86-12.83v-5.75c2.24,0.12,3.89,0.18,4.95,0.18c5.07,0,9.48-0.38,13.22-1.15
			c3.74-0.77,6.81-2.15,9.2-4.16c2.39-2,3.58-4.54,3.58-7.61c0-2.36-0.84-4.14-2.52-5.35c-1.68-1.21-4.08-2.2-7.21-2.96
			c0.24,0.77,0.35,1.65,0.35,2.65c0,3.36-1.36,6.41-4.07,9.16c-2.71,2.74-5.93,4.11-9.64,4.11c-3.01,0-5.44-0.84-7.3-2.52
			c-1.86-1.68-2.79-4.08-2.79-7.21v-20.17h-8.4v-5.93h54.58v5.93H85.1v3.98l6.63,1.5c0.12,0.06,0.28,0.12,0.49,0.18
			c0.21,0.06,0.37,0.09,0.49,0.09l10.35,2.48c5.25,1.24,9.13,2.95,11.63,5.13c2.51,2.18,3.76,5.22,3.76,9.11
			c0,2.95-0.69,5.56-2.08,7.83c-1.39,2.27-3.32,4.1-5.79,5.48c-2.48,1.39-5.22,2.46-8.23,3.23c-3.01,0.77-6.31,1.27-9.91,1.5
			c4.36,1.89,7.96,3.6,10.79,5.13l12.91,6.81V740.75z M88.73,711.47c2,0,3.77-0.85,5.31-2.56c1.53-1.71,2.3-3.54,2.3-5.48
			c0-1.42-0.43-2.52-1.28-3.32c-0.86-0.8-2.32-1.43-4.38-1.9l-5.57-1.33v10.61C85.1,710.15,86.31,711.47,88.73,711.47z"/>
		<path class="st2" d="M147.72,738.63c-0.47,0.06-1.3,0.09-2.48,0.09c-5.66,0-9.79-2.21-12.38-6.63c-2.6-4.42-3.95-10.23-4.07-17.42
			c0-13.39,2.71-22.56,8.14-27.51h-15.66v-5.93h28.92v5.93h-1.33c-2.54,0-4.7,0.8-6.5,2.39c-1.8,1.59-3.18,3.76-4.16,6.5
			c-0.97,2.74-1.67,5.65-2.08,8.71c-0.41,3.07-0.62,6.37-0.62,9.91c0,11.97,3.51,17.95,10.53,17.95h1.68V738.63z"/>
		<path class="st2" d="M204.16,738.01h-6.81v-27.07c0-2.24-0.55-4.28-1.64-6.1c-1.09-1.83-2.88-2.74-5.35-2.74
			c-5.01,0-7.52,3.66-7.52,10.97v1.5h-6.9v-1.77c0-6.96-2.71-10.44-8.14-10.44c-2.48,0-4.47,0.85-5.97,2.56
			c-1.5,1.71-2.25,4.04-2.25,6.99c0,3.3,0.91,5.82,2.74,7.56c1.83,1.74,4.22,2.61,7.16,2.61c2.12,0,4.19-0.21,6.19-0.62v6.02
			c-2.18,0.47-4.42,0.71-6.72,0.71c-4.84,0-8.76-1.44-11.77-4.33c-3.01-2.89-4.51-6.87-4.51-11.94c0-4.42,1.31-8.12,3.94-11.1
			c2.62-2.98,6.21-4.47,10.75-4.47c3.18,0,5.82,0.75,7.92,2.25c2.09,1.5,3.43,3.58,4.02,6.24c0.59-2.65,1.8-4.78,3.63-6.37
			c1.83-1.59,4.07-2.39,6.72-2.39c3.48,0,6.04,1.36,7.7,4.07v-13h-50.68v-5.93h67.49v5.93h-10V738.01z"/>
	</g>
	<g>
		<ellipse class="st3" cx="499.72" cy="218.55" rx="18.48" ry="18.57"/>
		<path class="st4" d="M514.83,237.11h-30.2c-5.86,0-10.66,4.82-10.66,10.71v10.99h51.52v-10.99
			C525.49,241.94,520.69,237.11,514.83,237.11z"/>
		<path class="st3" d="M749.86,182.58H469.89c-3.79,0-6.88-3.1-6.88-6.88V11.55c0-3.79,3.1-6.88,6.88-6.88h279.97
			c3.79,0,6.88,3.1,6.88,6.88V175.7C756.74,179.48,753.64,182.58,749.86,182.58z"/>
		<path class="st4" d="M735.7,21.95h-30.89H514.34h-30.89c-1.54,0-2.8,1.26-2.8,2.8V162.5c0,1.54,1.26,2.8,2.8,2.8h30.89h190.48
			h30.89c1.54,0,2.8-1.26,2.8-2.8V24.75C738.5,23.21,737.24,21.95,735.7,21.95z"/>
		<circle class="st5" cx="609.58" cy="93.92" r="42.81"/>
		<path class="st4" d="M612.84,102.86l-13.24,7.47c-1.21,0.68-2.63-0.31-2.63-1.84V79.33c0-1.53,1.42-2.52,2.63-1.84l25.87,14.58
			c1.34,0.76,1.34,2.91,0,3.67L612.84,102.86z"/>
		<path class="st6" d="M480.65,175.49V11.76c0-3.9,3.19-7.09,7.09-7.09H470.1c-3.9,0-7.09,3.19-7.09,7.09v163.73
			c0,3.9,3.19,7.09,7.09,7.09h17.65C483.85,182.58,480.65,179.39,480.65,175.49z"/>
		<path class="st7" d="M498.3,162.5V24.75c0-1.54,1.26-2.8,2.8-2.8h-17.65c-1.54,0-2.8,1.26-2.8,2.8V162.5c0,1.54,1.26,2.8,2.8,2.8
			h17.65C499.56,165.3,498.3,164.04,498.3,162.5z"/>
		<path class="st8" d="M584.41,93.91c0-20.62,14.58-37.83,33.99-41.9c-2.85-0.6-5.8-0.92-8.82-0.92
			c-23.64,0-42.81,19.17-42.81,42.81s19.17,42.81,42.81,42.81c3.03,0,5.98-0.32,8.82-0.92C598.99,131.74,584.41,114.53,584.41,93.91
			z"/>
		<path class="st7" d="M614.61,85.96L599.6,77.5c-1.21-0.68-2.63,0.31-2.63,1.84v29.16c0,1.53,1.42,2.52,2.63,1.84l13.24-7.47
			l1.77-1L614.61,85.96L614.61,85.96z"/>
		<path class="st6" d="M493.07,218.54c0-8.18,5.26-15.12,12.57-17.59c-1.86-0.63-3.84-0.98-5.91-0.98
			c-10.2,0-18.48,8.31-18.48,18.57c0,10.26,8.27,18.57,18.48,18.57c2.07,0,4.05-0.35,5.91-0.98
			C498.33,233.66,493.07,226.72,493.07,218.54z"/>
		<path class="st7" d="M496.44,237.11h-11.82c-5.86,0-10.66,4.82-10.66,10.71v10.99h11.82v-10.99
			C485.78,241.94,490.58,237.11,496.44,237.11z"/>
		<path class="st9" d="M527.8,257.64h-56.15c-4.75,0-8.64,3.91-8.64,8.68v1.18v25.05v1.18c0,2.57,2.09,4.66,4.66,4.66h63.61
			c2.85,0,5.16-2.31,5.16-5.17v-7.91V267.5v-1.18C536.44,261.55,532.55,257.64,527.8,257.64z"/>
		<path class="st10" d="M474.83,293.74v-1.18V267.5v-1.18c0-4.78,3.89-8.68,8.64-8.68h-11.82c-4.75,0-8.64,3.91-8.64,8.68v1.18
			v25.05v1.18c0,2.57,2.09,4.66,4.66,4.66h11.82C476.91,298.4,474.83,296.31,474.83,293.74z"/>
		<ellipse class="st3" cx="573.16" cy="218.55" rx="18.48" ry="18.57"/>
		<path class="st4" d="M588.26,237.11h-30.2c-5.86,0-10.66,4.82-10.66,10.71v10.99h51.52v-10.99
			C598.92,241.94,594.12,237.11,588.26,237.11z"/>
		<path class="st6" d="M566.5,218.54c0-8.18,5.26-15.12,12.57-17.59c-1.86-0.63-3.84-0.98-5.91-0.98c-10.2,0-18.48,8.31-18.48,18.57
			c0,10.26,8.27,18.57,18.48,18.57c2.07,0,4.05-0.35,5.91-0.98C571.76,233.66,566.5,226.72,566.5,218.54z"/>
		<path class="st7" d="M569.88,237.11h-11.82c-5.86,0-10.66,4.82-10.66,10.71v10.99h11.82v-10.99
			C559.22,241.94,564.01,237.11,569.88,237.11z"/>
		<path class="st9" d="M601.23,257.64h-56.15c-4.75,0-8.64,3.91-8.64,8.68v1.18v25.05v1.18c0,2.57,2.09,4.66,4.66,4.66h63.96
			c2.66,0,4.82-2.16,4.82-4.82v-5.3V267.5v-1.18C609.87,261.55,605.99,257.64,601.23,257.64z"/>
		<path class="st10" d="M548.26,293.74v-1.18V267.5v-1.18c0-4.78,3.89-8.68,8.64-8.68h-11.82c-4.75,0-8.64,3.91-8.64,8.68v1.18
			v25.05v1.18c0,2.57,2.09,4.66,4.66,4.66h11.82C550.35,298.4,548.26,296.31,548.26,293.74z"/>
		<ellipse class="st3" cx="646.59" cy="218.55" rx="18.48" ry="18.57"/>
		<path class="st4" d="M661.69,237.11h-30.2c-5.86,0-10.66,4.82-10.66,10.71v10.99h51.52v-10.99
			C672.35,241.94,667.56,237.11,661.69,237.11z"/>
		<path class="st6" d="M639.93,218.54c0-8.18,5.26-15.12,12.57-17.59c-1.86-0.63-3.84-0.98-5.91-0.98
			c-10.2,0-18.48,8.31-18.48,18.57c0,10.26,8.27,18.57,18.48,18.57c2.07,0,4.05-0.35,5.91-0.98
			C645.2,233.66,639.93,226.72,639.93,218.54z"/>
		<path class="st7" d="M643.31,237.11h-11.82c-5.86,0-10.66,4.82-10.66,10.71v10.99h11.82v-10.99
			C632.65,241.94,637.45,237.11,643.31,237.11z"/>
		<path class="st9" d="M674.67,257.64h-56.15c-4.75,0-8.64,3.91-8.64,8.68v1.18v25.05v1.18c0,2.57,2.09,4.66,4.66,4.66h64.77
			c2.21,0,4-1.79,4-4v-4.49v-22.4v-1.18C683.31,261.55,679.42,257.64,674.67,257.64z"/>
		<path class="st10" d="M621.7,293.74v-1.18V267.5v-1.18c0-4.78,3.89-8.68,8.64-8.68h-11.82c-4.75,0-8.64,3.91-8.64,8.68v1.18v25.05
			v1.18c0,2.57,2.09,4.66,4.66,4.66h11.82C623.78,298.4,621.7,296.31,621.7,293.74z"/>
		<ellipse class="st3" cx="720.02" cy="218.55" rx="18.48" ry="18.57"/>
		<path class="st4" d="M735.13,237.11h-30.2c-5.86,0-10.66,4.82-10.66,10.71v10.99h51.52v-10.99
			C745.79,241.94,740.99,237.11,735.13,237.11z"/>
		<path class="st6" d="M713.37,218.54c0-8.18,5.26-15.12,12.57-17.59c-1.86-0.63-3.84-0.98-5.91-0.98
			c-10.2,0-18.48,8.31-18.48,18.57c0,10.26,8.27,18.57,18.48,18.57c2.07,0,4.05-0.35,5.91-0.98
			C718.63,233.66,713.37,226.72,713.37,218.54z"/>
		<path class="st7" d="M716.74,237.11h-11.82c-5.86,0-10.66,4.82-10.66,10.71v10.99h11.82v-10.99
			C706.08,241.94,710.88,237.11,716.74,237.11z"/>
		<path class="st9" d="M748.1,257.64h-56.15c-4.75,0-8.64,3.91-8.64,8.68v1.18v25.05v1.18c0,2.57,2.09,4.66,4.66,4.66h62.63
			c3.39,0,6.14-2.75,6.14-6.14v-7.28V267.5v-1.18C756.74,261.55,752.85,257.64,748.1,257.64z"/>
		<path class="st10" d="M695.13,293.74v-1.18V267.5v-1.18c0-4.78,3.89-8.68,8.64-8.68h-11.82c-4.75,0-8.64,3.91-8.64,8.68v1.18
			v25.05v1.18c0,2.57,2.09,4.66,4.66,4.66h11.82C697.21,298.4,695.13,296.31,695.13,293.74z"/>
	</g>
</g>
</svg>
