<?xml version="1.0" encoding="utf-8"?>
<!-- Generator: Adobe Illustrator 26.0.1, SVG Export Plug-In . SVG Version: 6.00 Build 0)  -->
<svg version="1.1" id="Layer_1" xmlns="http://www.w3.org/2000/svg" xmlns:xlink="http://www.w3.org/1999/xlink" x="0px" y="0px"
	 viewBox="0 0 1000 1000" style="enable-background:new 0 0 1000 1000;" xml:space="preserve">
<style type="text/css">
	.st0{fill:#662D91;}
	.st1{fill:#54257C;}
	.st2{fill:#FFFFFF;}
	.st3{fill:#E93234;}
	.st4{fill:#F9F1EF;}
	.st5{fill:#B32425;}
	.st6{fill:#FFD039;}
	.st7{fill:#F4B008;}
	.st8{fill:#546F7A;}
	.st9{fill:#FFAE47;}
	.st10{fill:#00B76C;}
</style>
<g>
	<polygon class="st0" points="500,983.9 603.4,804.8 396.6,804.8 	"/>
	<path class="st0" d="M904.5,97.9v693.4c0,20.8-16.8,37.5-37.5,37.5H133c-20.8,0-37.5-16.8-37.5-37.5V97.9
		c0-20.7,16.8-37.5,37.5-37.5H867C887.7,60.4,904.5,77.2,904.5,97.9z"/>
	<path class="st1" d="M904.5,555.3v236c0,20.8-16.8,37.5-37.5,37.5H133c-20.8,0-37.5-16.8-37.5-37.5V308
		C260.8,556.6,540.3,815.1,904.5,555.3z"/>
	<g>
		<path class="st2" d="M223.6,250.8h-15.4l-25.7-39v39h-15.4v-63.1h15.4l25.7,39.1v-39.1h15.4V250.8z"/>
		<path class="st2" d="M281.8,229.3H247c0.2,3.1,1.2,5.5,3,7.2c1.8,1.6,3.9,2.5,6.5,2.5c3.8,0,6.5-1.6,8-4.9h16.4
			c-0.8,3.3-2.4,6.3-4.5,8.9c-2.2,2.6-4.9,4.7-8.2,6.2c-3.3,1.5-7,2.2-11.1,2.2c-4.9,0-9.3-1-13.1-3.1c-3.8-2.1-6.8-5.1-9-9
			c-2.2-3.9-3.2-8.5-3.2-13.7s1.1-9.8,3.2-13.7c2.1-3.9,5.1-6.9,9-9c3.8-2.1,8.2-3.1,13.2-3.1c4.9,0,9.2,1,13,3.1
			c3.8,2,6.7,4.9,8.9,8.7c2.1,3.8,3.2,8.2,3.2,13.2C282.1,226.3,282,227.8,281.8,229.3z M266.3,220.8c0-2.6-0.9-4.7-2.7-6.3
			s-4-2.3-6.7-2.3c-2.6,0-4.8,0.8-6.5,2.2c-1.8,1.5-2.9,3.6-3.3,6.4H266.3z"/>
		<path class="st2" d="M319.8,250.8l-9.6-13.9l-8.1,13.9h-16.6l16.6-25.6l-17-24.6h17.3l9.6,13.9l8.1-13.9h16.6l-16.8,25.3
			l17.3,24.9H319.8z"/>
		<path class="st2" d="M371,237.7v13h-7.8c-5.6,0-9.9-1.4-13-4.1c-3.1-2.7-4.7-7.2-4.7-13.4v-20h-6.1v-12.8h6.1v-12.2h15.4v12.2
			h10.1v12.8h-10.1v20.2c0,1.5,0.4,2.6,1.1,3.2c0.7,0.7,1.9,1,3.6,1H371z"/>
		<path class="st2" d="M208.2,299.5c5,2.6,8.8,6.3,11.6,11.1c2.7,4.8,4.1,10.3,4.1,16.5c0,6.2-1.4,11.7-4.1,16.5
			c-2.7,4.8-6.6,8.5-11.6,11.2c-5,2.6-10.8,4-17.4,4h-23.7v-63.1h23.7C197.4,295.6,203.2,296.9,208.2,299.5z M203.4,340.6
			c3.2-3.2,4.9-7.7,4.9-13.5c0-5.8-1.6-10.3-4.9-13.6c-3.2-3.2-7.8-4.9-13.6-4.9h-7.3v36.7h7.3C195.6,345.4,200.1,343.8,203.4,340.6
			z"/>
		<path class="st2" d="M279.5,337.3h-34.8c0.2,3.1,1.2,5.5,3,7.2c1.8,1.6,3.9,2.5,6.5,2.5c3.8,0,6.5-1.6,8-4.9h16.4
			c-0.8,3.3-2.4,6.3-4.5,8.9c-2.2,2.6-4.9,4.7-8.2,6.2c-3.3,1.5-7,2.2-11.1,2.2c-4.9,0-9.3-1-13.1-3.1c-3.8-2.1-6.8-5.1-9-9
			c-2.2-3.9-3.2-8.5-3.2-13.7s1.1-9.8,3.2-13.7c2.1-3.9,5.1-6.9,9-9c3.8-2.1,8.2-3.1,13.2-3.1c4.9,0,9.2,1,13,3.1
			c3.8,2,6.7,4.9,8.9,8.7c2.1,3.8,3.2,8.2,3.2,13.2C279.8,334.2,279.7,335.7,279.5,337.3z M264.1,328.7c0-2.6-0.9-4.7-2.7-6.3
			s-4-2.3-6.7-2.3c-2.6,0-4.8,0.8-6.5,2.2c-1.8,1.5-2.9,3.6-3.3,6.4H264.1z"/>
		<path class="st2" d="M296.6,357.2c-3.4-1.5-6.1-3.6-8.1-6.2c-2-2.6-3.1-5.5-3.3-8.8h15.2c0.2,1.7,1,3.1,2.4,4.2
			c1.4,1.1,3.2,1.6,5.3,1.6c1.9,0,3.4-0.4,4.5-1.1c1-0.7,1.6-1.7,1.6-2.9c0-1.4-0.8-2.5-2.2-3.2c-1.5-0.7-3.9-1.5-7.3-2.3
			c-3.6-0.8-6.6-1.7-9-2.7c-2.4-0.9-4.5-2.4-6.2-4.4c-1.7-2-2.6-4.7-2.6-8.1c0-2.9,0.8-5.5,2.4-7.9c1.6-2.4,3.9-4.2,7-5.6
			c3.1-1.4,6.8-2.1,11-2.1c6.3,0,11.3,1.6,14.9,4.7c3.6,3.1,5.7,7.3,6.3,12.4h-14.2c-0.2-1.7-1-3.1-2.3-4.1c-1.3-1-3-1.5-5.1-1.5
			c-1.8,0-3.2,0.3-4.1,1c-1,0.7-1.4,1.6-1.4,2.8c0,1.4,0.8,2.5,2.3,3.2c1.5,0.7,3.9,1.4,7.2,2.2c3.7,1,6.7,1.9,9.1,2.8
			c2.3,0.9,4.4,2.4,6.2,4.5c1.8,2.1,2.7,4.8,2.7,8.3c0,2.9-0.8,5.6-2.5,7.9c-1.7,2.3-4,4.1-7.1,5.4c-3.1,1.3-6.7,2-10.8,2
			C304,359.4,300.1,358.7,296.6,357.2z"/>
		<path class="st2" d="M366.1,345.7v13h-7.8c-5.6,0-9.9-1.4-13-4.1c-3.1-2.7-4.7-7.2-4.7-13.4v-20h-6.1v-12.8h6.1v-12.2h15.4v12.2
			H366v12.8h-10.1v20.2c0,1.5,0.4,2.6,1.1,3.2c0.7,0.7,1.9,1,3.6,1H366.1z"/>
		<path class="st2" d="M375.8,300.9c-1.7-1.6-2.6-3.6-2.6-5.9c0-2.4,0.9-4.4,2.6-6c1.7-1.6,3.9-2.4,6.6-2.4c2.6,0,4.8,0.8,6.5,2.4
			c1.7,1.6,2.6,3.6,2.6,6c0,2.3-0.9,4.3-2.6,5.9c-1.7,1.6-3.9,2.4-6.5,2.4C379.7,303.3,377.5,302.5,375.8,300.9z M390,308.5v50.2
			h-15.4v-50.2H390z"/>
		<path class="st2" d="M445.8,313.7c3.5,3.8,5.3,9,5.3,15.7v29.3h-15.3v-27.3c0-3.4-0.9-6-2.6-7.8c-1.7-1.9-4.1-2.8-7-2.8
			c-2.9,0-5.3,0.9-7,2.8c-1.7,1.9-2.6,4.5-2.6,7.8v27.3h-15.4v-50.2h15.4v6.7c1.6-2.2,3.7-4,6.3-5.3c2.6-1.3,5.6-1.9,8.9-1.9
			C437.6,308,442.3,309.9,445.8,313.7z"/>
		<path class="st2" d="M461.7,319.9c1.9-3.9,4.6-6.9,8-9c3.4-2.1,7.1-3.1,11.2-3.1c3.5,0,6.6,0.7,9.3,2.2c2.7,1.4,4.7,3.3,6.2,5.7
			v-7.1h15.4v50.2h-15.4v-7.1c-1.5,2.3-3.6,4.2-6.3,5.7c-2.7,1.4-5.8,2.2-9.3,2.2c-4.1,0-7.8-1.1-11.2-3.2c-3.4-2.1-6-5.2-8-9.1
			c-1.9-3.9-2.9-8.5-2.9-13.6C458.7,328.4,459.7,323.8,461.7,319.9z M493.1,324.5c-2.1-2.2-4.7-3.3-7.8-3.3s-5.7,1.1-7.8,3.3
			c-2.1,2.2-3.2,5.2-3.2,9s1.1,6.9,3.2,9.1c2.1,2.2,4.7,3.4,7.8,3.4s5.7-1.1,7.8-3.3c2.1-2.2,3.2-5.2,3.2-9.1
			C496.3,329.8,495.3,326.7,493.1,324.5z"/>
		<path class="st2" d="M550.9,345.7v13H543c-5.6,0-9.9-1.4-13-4.1c-3.1-2.7-4.7-7.2-4.7-13.4v-20h-6.1v-12.8h6.1v-12.2h15.4v12.2
			h10.1v12.8h-10.1v20.2c0,1.5,0.4,2.6,1.1,3.2c0.7,0.7,1.9,1,3.6,1H550.9z"/>
		<path class="st2" d="M560.5,300.9c-1.7-1.6-2.6-3.6-2.6-5.9c0-2.4,0.9-4.4,2.6-6c1.7-1.6,3.9-2.4,6.6-2.4c2.6,0,4.8,0.8,6.5,2.4
			c1.7,1.6,2.6,3.6,2.6,6c0,2.3-0.9,4.3-2.6,5.9c-1.7,1.6-3.9,2.4-6.5,2.4C564.4,303.3,562.2,302.5,560.5,300.9z M574.8,308.5v50.2
			h-15.4v-50.2H574.8z"/>
		<path class="st2" d="M595.5,356.3c-3.9-2.1-7-5.1-9.3-9c-2.2-3.9-3.4-8.5-3.4-13.7c0-5.2,1.1-9.7,3.4-13.6c2.3-3.9,5.4-6.9,9.4-9
			c4-2.1,8.4-3.1,13.3-3.1c4.9,0,9.4,1,13.3,3.1c4,2.1,7.1,5.1,9.4,9c2.3,3.9,3.4,8.5,3.4,13.6c0,5.2-1.2,9.7-3.5,13.6
			c-2.3,3.9-5.5,6.9-9.4,9c-4,2.1-8.4,3.1-13.4,3.1C603.9,359.4,599.4,358.4,595.5,356.3z M616.3,342.9c2.1-2.2,3.1-5.2,3.1-9.3
			c0-4-1-7.1-3-9.3c-2-2.2-4.5-3.2-7.4-3.2c-3,0-5.5,1.1-7.5,3.2c-2,2.1-3,5.2-3,9.3c0,4,1,7.1,2.9,9.3c1.9,2.2,4.4,3.2,7.3,3.2
			S614.2,345,616.3,342.9z"/>
		<path class="st2" d="M687.9,313.7c3.5,3.8,5.3,9,5.3,15.7v29.3h-15.3v-27.3c0-3.4-0.9-6-2.6-7.8c-1.7-1.9-4.1-2.8-7-2.8
			c-2.9,0-5.3,0.9-7,2.8c-1.7,1.9-2.6,4.5-2.6,7.8v27.3h-15.4v-50.2h15.4v6.7c1.6-2.2,3.7-4,6.3-5.3c2.6-1.3,5.6-1.9,8.9-1.9
			C679.7,308,684.4,309.9,687.9,313.7z"/>
	</g>
	<g>
		<path class="st2" d="M224.2,437.4v55.3h-7.3v-41.3l-18.4,41.3h-5.1L175,451.4v41.3h-7.3v-55.3h7.8l20.5,45.7l20.5-45.7H224.2z"/>
		<path class="st2" d="M244.5,490.6c-3.3-1.9-5.9-4.5-7.8-8c-1.9-3.4-2.8-7.4-2.8-12c0-4.5,1-8.4,2.9-11.9c1.9-3.4,4.6-6.1,8-7.9
			c3.4-1.8,7.1-2.8,11.3-2.8c4.2,0,7.9,0.9,11.3,2.8c3.4,1.8,6,4.5,8,7.9c1.9,3.4,2.9,7.4,2.9,11.9c0,4.5-1,8.5-3,12s-4.7,6.1-8.1,8
			c-3.4,1.9-7.2,2.8-11.4,2.8C251.5,493.4,247.8,492.5,244.5,490.6z M263,485.2c2.3-1.2,4.1-3.1,5.6-5.5c1.4-2.5,2.1-5.4,2.1-9
			s-0.7-6.5-2.1-9c-1.4-2.5-3.2-4.3-5.4-5.5c-2.2-1.2-4.7-1.8-7.3-1.8c-2.7,0-5.1,0.6-7.3,1.8c-2.2,1.2-4,3-5.3,5.5
			c-1.3,2.5-2,5.4-2,9c0,3.6,0.7,6.6,2,9c1.3,2.5,3.1,4.3,5.2,5.5c2.2,1.2,4.6,1.8,7.2,1.8C258.3,487.1,260.7,486.4,263,485.2z"/>
		<path class="st2" d="M304,486l13.6-37.1h7.8l-17.2,43.8h-8.5l-17.2-43.8h7.8L304,486z"/>
		<path class="st2" d="M372.3,473.5h-35c0.3,4.3,1.7,7.7,4.4,10.1c2.7,2.4,6,3.6,9.8,3.6c3.1,0,5.8-0.7,7.9-2.2
			c2.1-1.5,3.6-3.4,4.4-5.9h7.8c-1.2,4.2-3.5,7.6-7,10.3s-7.9,4-13.1,4c-4.2,0-7.9-0.9-11.2-2.8c-3.3-1.9-5.9-4.5-7.7-8
			c-1.9-3.4-2.8-7.4-2.8-12c0-4.5,0.9-8.5,2.7-11.9c1.8-3.4,4.4-6,7.6-7.9c3.3-1.8,7-2.8,11.3-2.8c4.2,0,7.8,0.9,11,2.7
			s5.7,4.3,7.4,7.5c1.7,3.2,2.6,6.8,2.6,10.8C372.5,470.5,372.5,472,372.3,473.5z M363.2,460.5c-1.2-2-2.9-3.5-5-4.6
			c-2.1-1-4.4-1.6-7-1.6c-3.7,0-6.8,1.2-9.4,3.5c-2.6,2.3-4.1,5.6-4.4,9.8H365C365,464.8,364.4,462.5,363.2,460.5z"/>
		<path class="st2" d="M442.4,448.9v43.8h-7.3v-6.5c-1.4,2.2-3.3,4-5.8,5.2s-5.2,1.9-8.2,1.9c-3.4,0-6.5-0.7-9.2-2.1
			c-2.7-1.4-4.9-3.5-6.4-6.4c-1.6-2.8-2.4-6.3-2.4-10.3v-25.7h7.2v24.7c0,4.3,1.1,7.6,3.3,10c2.2,2.3,5.2,3.5,9,3.5
			c3.9,0,7-1.2,9.2-3.6c2.2-2.4,3.4-5.9,3.4-10.5v-24.1H442.4z"/>
		<path class="st2" d="M468.4,450.7c2.9-1.7,6.2-2.5,10-2.5c3.9,0,7.4,0.9,10.6,2.8c3.2,1.9,5.7,4.5,7.5,7.9
			c1.8,3.4,2.7,7.3,2.7,11.8c0,4.4-0.9,8.4-2.7,11.8c-1.8,3.5-4.3,6.2-7.5,8.1s-6.7,2.9-10.6,2.9c-3.7,0-7-0.8-9.9-2.5
			c-2.9-1.7-5-3.8-6.5-6.3v28.9h-7.3v-64.6h7.3v8.1C463.4,454.5,465.5,452.4,468.4,450.7z M489.7,462c-1.3-2.5-3.1-4.3-5.4-5.6
			s-4.8-1.9-7.5-1.9c-2.7,0-5.1,0.7-7.4,2c-2.3,1.3-4.1,3.2-5.4,5.7c-1.4,2.5-2,5.3-2,8.6c0,3.3,0.7,6.2,2,8.7s3.2,4.4,5.4,5.7
			c2.3,1.3,4.7,2,7.4,2c2.7,0,5.2-0.7,7.5-2c2.3-1.3,4.1-3.2,5.4-5.7c1.3-2.5,2-5.4,2-8.8C491.7,467.4,491,464.5,489.7,462z"/>
		<path class="st2" d="M530.1,458.9c1.8-3.4,4.3-6,7.5-7.9c3.2-1.9,6.7-2.8,10.6-2.8c3.8,0,7.2,0.8,10,2.5c2.8,1.7,4.9,3.7,6.3,6.2
			v-8h7.4v43.8h-7.4v-8.2c-1.4,2.6-3.6,4.7-6.4,6.4c-2.9,1.7-6.2,2.5-10,2.5c-3.9,0-7.4-1-10.6-2.9c-3.1-1.9-5.6-4.6-7.4-8.1
			c-1.8-3.5-2.7-7.4-2.7-11.8C527.4,466.2,528.3,462.3,530.1,458.9z M562.5,462.1c-1.3-2.5-3.1-4.3-5.4-5.6c-2.3-1.3-4.8-2-7.5-2
			s-5.2,0.6-7.4,1.9c-2.2,1.3-4,3.1-5.4,5.6c-1.3,2.5-2,5.3-2,8.6c0,3.4,0.7,6.3,2,8.8c1.3,2.5,3.1,4.4,5.4,5.7c2.2,1.3,4.7,2,7.4,2
			s5.2-0.7,7.5-2c2.3-1.3,4.1-3.2,5.4-5.7c1.3-2.5,2-5.4,2-8.7C564.5,467.4,563.8,464.6,562.5,462.1z"/>
		<path class="st2" d="M612.7,433.6v59.2h-7.3v-59.2H612.7z"/>
		<path class="st2" d="M664.9,473.5h-35c0.3,4.3,1.7,7.7,4.4,10.1c2.7,2.4,6,3.6,9.8,3.6c3.1,0,5.8-0.7,7.9-2.2
			c2.1-1.5,3.6-3.4,4.4-5.9h7.8c-1.2,4.2-3.5,7.6-7,10.3s-7.9,4-13.1,4c-4.2,0-7.9-0.9-11.2-2.8c-3.3-1.9-5.9-4.5-7.7-8
			c-1.9-3.4-2.8-7.4-2.8-12c0-4.5,0.9-8.5,2.7-11.9c1.8-3.4,4.4-6,7.6-7.9c3.3-1.8,7-2.8,11.3-2.8c4.2,0,7.8,0.9,11,2.7
			s5.7,4.3,7.4,7.5c1.7,3.2,2.6,6.8,2.6,10.8C665.1,470.5,665,472,664.9,473.5z M655.8,460.5c-1.2-2-2.9-3.5-5-4.6
			c-2.1-1-4.4-1.6-7-1.6c-3.7,0-6.8,1.2-9.4,3.5c-2.6,2.3-4.1,5.6-4.4,9.8h27.7C657.6,464.8,657,462.5,655.8,460.5z"/>
		<path class="st2" d="M691,486l13.6-37.1h7.8l-17.2,43.8h-8.5l-17.2-43.8h7.8L691,486z"/>
		<path class="st2" d="M759.3,473.5h-35c0.3,4.3,1.7,7.7,4.4,10.1c2.7,2.4,6,3.6,9.8,3.6c3.1,0,5.8-0.7,7.9-2.2
			c2.1-1.5,3.6-3.4,4.4-5.9h7.8c-1.2,4.2-3.5,7.6-7,10.3s-7.9,4-13.1,4c-4.2,0-7.9-0.9-11.2-2.8c-3.3-1.9-5.9-4.5-7.7-8
			c-1.9-3.4-2.8-7.4-2.8-12c0-4.5,0.9-8.5,2.7-11.9c1.8-3.4,4.4-6,7.6-7.9c3.3-1.8,7-2.8,11.3-2.8c4.2,0,7.8,0.9,11,2.7
			s5.7,4.3,7.4,7.5c1.7,3.2,2.6,6.8,2.6,10.8C759.6,470.5,759.5,472,759.3,473.5z M750.2,460.5c-1.2-2-2.9-3.5-5-4.6
			c-2.1-1-4.4-1.6-7-1.6c-3.7,0-6.8,1.2-9.4,3.5c-2.6,2.3-4.1,5.6-4.4,9.8H752C752,464.8,751.4,462.5,750.2,460.5z"/>
		<path class="st2" d="M776.4,433.6v59.2h-7.3v-59.2H776.4z"/>
		<path class="st2" d="M175.6,586.6c-3.3-1.9-5.9-4.5-7.8-8c-1.9-3.4-2.8-7.4-2.8-12c0-4.5,1-8.4,2.9-11.9c1.9-3.4,4.6-6.1,8-7.9
			c3.4-1.8,7.1-2.8,11.3-2.8c4.2,0,7.9,0.9,11.3,2.8c3.4,1.8,6,4.5,8,7.9c1.9,3.4,2.9,7.4,2.9,11.9c0,4.5-1,8.5-3,12s-4.7,6.1-8.1,8
			c-3.4,1.9-7.2,2.8-11.4,2.8C182.7,589.4,179,588.5,175.6,586.6z M194.2,581.2c2.3-1.2,4.1-3.1,5.6-5.5c1.4-2.5,2.1-5.4,2.1-9
			s-0.7-6.5-2.1-9c-1.4-2.5-3.2-4.3-5.4-5.5c-2.2-1.2-4.7-1.8-7.3-1.8c-2.7,0-5.1,0.6-7.3,1.8c-2.2,1.2-4,3-5.3,5.5
			c-1.3,2.5-2,5.4-2,9c0,3.6,0.7,6.6,2,9c1.3,2.5,3.1,4.3,5.2,5.5c2.2,1.2,4.6,1.8,7.2,1.8C189.4,583,191.9,582.4,194.2,581.2z"/>
		<path class="st2" d="M231.6,546.1c2.4-1.4,5.3-2.1,8.7-2.1v7.5h-1.9c-8.2,0-12.2,4.4-12.2,13.3v23.8h-7.3v-43.8h7.3v7.1
			C227.4,549.5,229.2,547.5,231.6,546.1z"/>
		<path class="st2" d="M276.5,587.7c-2.7-1.1-4.8-2.7-6.3-4.8c-1.5-2.1-2.4-4.4-2.6-7.1h7.5c0.2,2.2,1.2,4,3.1,5.4
			c1.8,1.4,4.2,2.1,7.2,2.1c2.8,0,5-0.6,6.6-1.8c1.6-1.2,2.4-2.8,2.4-4.6c0-1.9-0.9-3.3-2.6-4.3c-1.7-0.9-4.3-1.9-7.9-2.8
			c-3.3-0.9-5.9-1.7-8-2.6c-2.1-0.9-3.8-2.2-5.3-3.9c-1.5-1.7-2.2-4-2.2-6.8c0-2.2,0.7-4.3,2-6.2c1.3-1.9,3.2-3.3,5.7-4.4
			c2.5-1.1,5.2-1.6,8.4-1.6c4.9,0,8.8,1.2,11.8,3.7c3,2.5,4.6,5.8,4.8,10.1h-7.3c-0.2-2.3-1.1-4.1-2.8-5.5c-1.7-1.4-3.9-2.1-6.8-2.1
			c-2.6,0-4.7,0.6-6.2,1.7c-1.5,1.1-2.3,2.6-2.3,4.4c0,1.4,0.5,2.6,1.4,3.6c0.9,0.9,2.1,1.7,3.5,2.2c1.4,0.6,3.4,1.2,5.9,1.9
			c3.1,0.9,5.7,1.7,7.7,2.5c2,0.8,3.7,2.1,5.1,3.7c1.4,1.7,2.1,3.8,2.2,6.5c0,2.4-0.7,4.6-2,6.5c-1.3,1.9-3.2,3.4-5.6,4.5
			c-2.4,1.1-5.2,1.6-8.4,1.6C282.2,589.4,279.2,588.8,276.5,587.7z"/>
		<path class="st2" d="M320.7,550.9v25.8c0,2.1,0.5,3.6,1.4,4.5c0.9,0.9,2.5,1.3,4.7,1.3h5.4v6.2h-6.6c-4.1,0-7.1-0.9-9.1-2.8
			c-2-1.9-3-4.9-3-9.2v-25.8h-5.7v-6h5.7v-11h7.3v11h11.4v6H320.7z"/>
		<path class="st2" d="M340.9,554.8c1.8-3.4,4.3-6,7.5-7.9c3.2-1.9,6.7-2.8,10.6-2.8c3.8,0,7.2,0.8,10,2.5c2.8,1.7,4.9,3.7,6.3,6.2
			v-8h7.4v43.8h-7.4v-8.2c-1.4,2.6-3.6,4.7-6.4,6.4c-2.9,1.7-6.2,2.5-10,2.5c-3.9,0-7.4-1-10.6-2.9c-3.1-1.9-5.6-4.6-7.4-8.1
			c-1.8-3.5-2.7-7.4-2.7-11.8C338.2,562.1,339.1,558.2,340.9,554.8z M373.3,558.1c-1.3-2.5-3.1-4.3-5.4-5.6c-2.3-1.3-4.8-2-7.5-2
			s-5.2,0.6-7.4,1.9c-2.2,1.3-4,3.1-5.4,5.6c-1.3,2.5-2,5.3-2,8.6c0,3.4,0.7,6.3,2,8.8c1.3,2.5,3.1,4.4,5.4,5.7c2.2,1.3,4.7,2,7.4,2
			s5.2-0.7,7.5-2c2.3-1.3,4.1-3.2,5.4-5.7c1.3-2.5,2-5.4,2-8.7C375.3,563.4,374.6,560.5,373.3,558.1z"/>
		<path class="st2" d="M407.7,546.1c2.4-1.4,5.3-2.1,8.7-2.1v7.5h-1.9c-8.2,0-12.2,4.4-12.2,13.3v23.8h-7.3v-43.8h7.3v7.1
			C403.5,549.5,405.3,547.5,407.7,546.1z"/>
		<path class="st2" d="M433.6,550.9v25.8c0,2.1,0.5,3.6,1.4,4.5c0.9,0.9,2.5,1.3,4.7,1.3h5.4v6.2h-6.6c-4.1,0-7.1-0.9-9.1-2.8
			c-2-1.9-3-4.9-3-9.2v-25.8h-5.7v-6h5.7v-11h7.3v11h11.4v6H433.6z"/>
		<path class="st2" d="M475.2,554.8c1.8-3.4,4.3-6,7.5-7.9c3.2-1.9,6.7-2.8,10.6-2.8c3.8,0,7.2,0.8,10,2.5c2.8,1.7,4.9,3.7,6.3,6.2
			v-8h7.4v43.8h-7.4v-8.2c-1.4,2.6-3.6,4.7-6.4,6.4c-2.9,1.7-6.2,2.5-10,2.5c-3.9,0-7.4-1-10.6-2.9c-3.1-1.9-5.6-4.6-7.4-8.1
			c-1.8-3.5-2.7-7.4-2.7-11.8C472.5,562.1,473.4,558.2,475.2,554.8z M507.6,558.1c-1.3-2.5-3.1-4.3-5.4-5.6c-2.3-1.3-4.8-2-7.5-2
			s-5.2,0.6-7.4,1.9c-2.2,1.3-4,3.1-5.4,5.6c-1.3,2.5-2,5.3-2,8.6c0,3.4,0.7,6.3,2,8.8c1.3,2.5,3.1,4.4,5.4,5.7c2.2,1.3,4.7,2,7.4,2
			s5.2-0.7,7.5-2c2.3-1.3,4.1-3.2,5.4-5.7c1.3-2.5,2-5.4,2-8.7C509.6,563.4,508.9,560.5,507.6,558.1z"/>
		<path class="st2" d="M584.9,548.9c3.3,3.2,5,7.9,5,14v25.8h-7.2v-24.8c0-4.4-1.1-7.7-3.3-10c-2.2-2.3-5.2-3.5-9-3.5
			c-3.8,0-6.9,1.2-9.2,3.6c-2.3,2.4-3.4,5.9-3.4,10.5v24.2h-7.3v-43.8h7.3v6.2c1.4-2.2,3.4-4,5.9-5.2c2.5-1.2,5.2-1.8,8.2-1.8
			C577.3,544.1,581.6,545.7,584.9,548.9z"/>
		<path class="st2" d="M641.5,569.5h-35c0.3,4.3,1.7,7.7,4.4,10.1c2.7,2.4,6,3.6,9.8,3.6c3.1,0,5.8-0.7,7.9-2.2
			c2.1-1.5,3.6-3.4,4.4-5.9h7.8c-1.2,4.2-3.5,7.6-7,10.3s-7.9,4-13.1,4c-4.2,0-7.9-0.9-11.2-2.8c-3.3-1.9-5.9-4.5-7.7-8
			c-1.9-3.4-2.8-7.4-2.8-12c0-4.5,0.9-8.5,2.7-11.9c1.8-3.4,4.4-6,7.6-7.9c3.3-1.8,7-2.8,11.3-2.8c4.2,0,7.8,0.9,11,2.7
			s5.7,4.3,7.4,7.5c1.7,3.2,2.6,6.8,2.6,10.8C641.8,566.5,641.7,567.9,641.5,569.5z M632.4,556.4c-1.2-2-2.9-3.5-5-4.6
			c-2.1-1-4.4-1.6-7-1.6c-3.7,0-6.8,1.2-9.4,3.5c-2.6,2.3-4.1,5.6-4.4,9.8h27.7C634.3,560.8,633.6,558.4,632.4,556.4z"/>
		<path class="st2" d="M709.7,544.9l-13.7,43.8h-7.5L678,553.9l-10.6,34.8h-7.5l-13.8-43.8h7.4l10.1,36.8l10.9-36.8h7.4l10.6,36.9
			l9.9-36.9H709.7z"/>
		<path class="st2" d="M167.7,650.8c1.8-3.4,4.3-6,7.5-7.9c3.2-1.9,6.7-2.8,10.6-2.8c3.8,0,7.2,0.8,10,2.5c2.8,1.7,4.9,3.7,6.3,6.2
			v-8h7.4v43.8h-7.4v-8.2c-1.4,2.6-3.6,4.7-6.4,6.4c-2.9,1.7-6.2,2.5-10,2.5c-3.9,0-7.4-1-10.6-2.9c-3.1-1.9-5.6-4.6-7.4-8.1
			c-1.8-3.5-2.7-7.4-2.7-11.8C165,658.1,165.9,654.2,167.7,650.8z M200.1,654c-1.3-2.5-3.1-4.3-5.4-5.6c-2.3-1.3-4.8-2-7.5-2
			s-5.2,0.6-7.4,1.9c-2.2,1.3-4,3.1-5.4,5.6c-1.3,2.5-2,5.3-2,8.6c0,3.4,0.7,6.3,2,8.8c1.3,2.5,3.1,4.4,5.4,5.7c2.2,1.3,4.7,2,7.4,2
			s5.2-0.7,7.5-2c2.3-1.3,4.1-3.2,5.4-5.7c1.3-2.5,2-5.4,2-8.7C202.1,659.3,201.4,656.5,200.1,654z"/>
		<path class="st2" d="M221.7,650.8c1.8-3.4,4.3-6,7.5-7.9c3.2-1.9,6.7-2.8,10.7-2.8c3.4,0,6.6,0.8,9.5,2.4c2.9,1.6,5.2,3.6,6.7,6.2
			v-23.2h7.4v59.2h-7.4v-8.2c-1.4,2.6-3.6,4.8-6.4,6.4c-2.8,1.7-6.1,2.5-9.9,2.5c-3.9,0-7.4-1-10.6-2.9c-3.2-1.9-5.7-4.6-7.5-8.1
			c-1.8-3.5-2.7-7.4-2.7-11.8C219,658.1,219.9,654.2,221.7,650.8z M254.1,654c-1.3-2.5-3.1-4.3-5.4-5.6c-2.3-1.3-4.8-2-7.5-2
			s-5.2,0.6-7.4,1.9c-2.2,1.3-4,3.1-5.4,5.6c-1.3,2.5-2,5.3-2,8.6c0,3.4,0.7,6.3,2,8.8c1.3,2.5,3.1,4.4,5.4,5.7c2.2,1.3,4.7,2,7.4,2
			s5.2-0.7,7.5-2c2.3-1.3,4.1-3.2,5.4-5.7c1.3-2.5,2-5.4,2-8.7C256.1,659.3,255.5,656.5,254.1,654z"/>
		<path class="st2" d="M292.1,677.9l13.6-37.1h7.8l-17.2,43.8h-8.5l-17.2-43.8h7.8L292.1,677.9z"/>
		<path class="st2" d="M360.4,665.4h-35c0.3,4.3,1.7,7.7,4.4,10.1c2.7,2.4,6,3.6,9.8,3.6c3.1,0,5.8-0.7,7.9-2.2
			c2.1-1.5,3.6-3.4,4.4-5.9h7.8c-1.2,4.2-3.5,7.6-7,10.3s-7.9,4-13.1,4c-4.2,0-7.9-0.9-11.2-2.8c-3.3-1.9-5.9-4.5-7.7-8
			c-1.9-3.4-2.8-7.4-2.8-12c0-4.5,0.9-8.5,2.7-11.9c1.8-3.4,4.4-6,7.6-7.9c3.3-1.8,7-2.8,11.3-2.8c4.2,0,7.8,0.9,11,2.7
			s5.7,4.3,7.4,7.5c1.7,3.2,2.6,6.8,2.6,10.8C360.6,662.4,360.6,663.9,360.4,665.4z M351.3,652.4c-1.2-2-2.9-3.5-5-4.6
			c-2.1-1-4.4-1.6-7-1.6c-3.7,0-6.8,1.2-9.4,3.5c-2.6,2.3-4.1,5.6-4.4,9.8h27.7C353.1,656.8,352.5,654.4,351.3,652.4z"/>
		<path class="st2" d="M404.5,644.9c3.3,3.2,5,7.9,5,14v25.8h-7.2v-24.8c0-4.4-1.1-7.7-3.3-10c-2.2-2.3-5.2-3.5-9-3.5
			c-3.8,0-6.9,1.2-9.2,3.6c-2.3,2.4-3.4,5.9-3.4,10.5v24.2h-7.3v-43.8h7.3v6.2c1.4-2.2,3.4-4,5.9-5.2c2.5-1.2,5.2-1.8,8.2-1.8
			C396.9,640,401.2,641.6,404.5,644.9z"/>
		<path class="st2" d="M430.3,646.8v25.8c0,2.1,0.5,3.6,1.4,4.5c0.9,0.9,2.5,1.3,4.7,1.3h5.4v6.2h-6.6c-4.1,0-7.1-0.9-9.1-2.8
			c-2-1.9-3-4.9-3-9.2v-25.8h-5.7v-6h5.7v-11h7.3v11h11.4v6H430.3z"/>
		<path class="st2" d="M489.4,640.8v43.8h-7.3v-6.5c-1.4,2.2-3.3,4-5.8,5.2s-5.2,1.9-8.2,1.9c-3.4,0-6.5-0.7-9.2-2.1
			c-2.7-1.4-4.9-3.5-6.4-6.4c-1.6-2.8-2.4-6.3-2.4-10.3v-25.7h7.2v24.7c0,4.3,1.1,7.6,3.3,10c2.2,2.3,5.2,3.5,9,3.5
			c3.9,0,7-1.2,9.2-3.6c2.2-2.4,3.4-5.9,3.4-10.5v-24.1H489.4z"/>
		<path class="st2" d="M514.4,642.1c2.4-1.4,5.3-2.1,8.7-2.1v7.5h-1.9c-8.2,0-12.2,4.4-12.2,13.3v23.8h-7.3v-43.8h7.3v7.1
			C510.2,645.4,512.1,643.5,514.4,642.1z"/>
		<path class="st2" d="M571.2,665.4h-35c0.3,4.3,1.7,7.7,4.4,10.1c2.7,2.4,6,3.6,9.8,3.6c3.1,0,5.8-0.7,7.9-2.2
			c2.1-1.5,3.6-3.4,4.4-5.9h7.8c-1.2,4.2-3.5,7.6-7,10.3s-7.9,4-13.1,4c-4.2,0-7.9-0.9-11.2-2.8c-3.3-1.9-5.9-4.5-7.7-8
			c-1.9-3.4-2.8-7.4-2.8-12c0-4.5,0.9-8.5,2.7-11.9c1.8-3.4,4.4-6,7.6-7.9c3.3-1.8,7-2.8,11.3-2.8c4.2,0,7.8,0.9,11,2.7
			s5.7,4.3,7.4,7.5c1.7,3.2,2.6,6.8,2.6,10.8C571.5,662.4,571.4,663.9,571.2,665.4z M562.1,652.4c-1.2-2-2.9-3.5-5-4.6
			c-2.1-1-4.4-1.6-7-1.6c-3.7,0-6.8,1.2-9.4,3.5c-2.6,2.3-4.1,5.6-4.4,9.8H564C564,656.8,563.4,654.4,562.1,652.4z"/>
	</g>
	<g>
		<path class="st3" d="M816.8,72.7c-0.6-0.9-1.5-1.5-2.6-1.6c-1.1-0.1-2.1,0.2-2.9,1l-11.1,11.1l-19.4-4.2c-1.2-0.3-2.4,0.1-3.2,0.9
			l-48.5,48.5c-0.4,0.4-0.8,0.5-1.3,0.5c-0.5,0-1-0.2-1.3-0.5l-0.7-0.7c-0.4-0.4-0.5-0.8-0.5-1.3c0-0.5,0.2-1,0.5-1.3l48.5-48.5
			c0.8-0.8,1.2-2,0.9-3.2l-4.2-19.4l11.2-11.2c0.8-0.8,1.1-1.8,1-2.9c-0.1-1.1-0.7-2-1.6-2.6c-17.4-11-37.6-16.8-58.3-16.8
			c-29.3,0-56.8,11.4-77.5,32.1c-20.7,20.7-32.1,48.2-32.1,77.5s11.4,56.8,32.1,77.5c20.7,20.7,48.2,32.1,77.5,32.1
			c11.2,0,22.3-1.7,32.9-5c1.1-0.3,2-1.2,2.3-2.3c0.3-1.1,0.1-2.3-0.7-3.2c-7.2-8.7-11.2-19.8-11.2-31.2c0-27,22-49,49-49
			c10.4,0,20.3,3.2,28.7,9.3c0.9,0.7,2.2,0.9,3.2,0.5c1.1-0.4,1.9-1.3,2.2-2.4c2.1-8.5,3.2-17.3,3.2-26.2
			C833.1,109.8,827.5,90,816.8,72.7z"/>
		<path class="st4" d="M792,82.3c-0.5-0.7-1.3-1.2-2.1-1.4l-8.9-1.9c-1.2-0.3-2.4,0.1-3.2,0.9l-48.5,48.5c-0.4,0.4-0.8,0.5-1.3,0.5
			c-0.5,0-1-0.2-1.3-0.5l-0.7-0.7c-0.4-0.4-0.5-0.8-0.5-1.3c0-0.5,0.2-1,0.5-1.3l48.5-48.5c0.8-0.8,1.2-2,0.9-3.2l-2-9.1
			c-0.2-0.8-0.7-1.6-1.4-2.1c-14.2-10.1-31-15.5-48.5-15.5c-46.1,0-83.6,37.5-83.6,83.6c0,46.1,37.5,83.6,83.6,83.6
			c7.3,0,14.6-1,21.6-2.8c1.8-0.5,2.9-2.2,2.5-4c-0.5-2.9-0.8-5.9-0.8-8.9c0-27,22-49,49-49c1.9,0,3.9,0.1,5.8,0.3
			c1.8,0.2,3.5-1,3.8-2.8c1.1-5.4,1.6-10.9,1.6-16.4C807.1,112.9,801.9,96.4,792,82.3z"/>
		<path class="st3" d="M768.9,94.2c-0.6-0.8-1.5-1.3-2.5-1.3c-1-0.1-2,0.3-2.7,1l-34.5,34.5c-0.4,0.4-0.8,0.5-1.3,0.5
			c-0.5,0-1-0.2-1.3-0.5l-0.7-0.7c-0.4-0.4-0.5-0.8-0.5-1.3c0-0.5,0.2-1,0.5-1.3l34.5-34.5c0.7-0.7,1.1-1.7,1-2.6
			c0-1-0.5-1.9-1.3-2.5c-10.3-8.4-23.3-13.1-36.7-13.1c-32,0-58,26-58,58s26,58,58,58c8.6,0,17-1.9,24.7-5.5
			c0.8-0.4,1.5-1.1,1.8-1.9c4.6-12,13.9-22,25.6-27.3c0.8-0.4,1.5-1.1,1.8-1.9c2.7-6.8,4-14,4-21.3
			C781.4,117,777.1,104.5,768.9,94.2z"/>
		<path class="st4" d="M749.7,113.9c-0.6-0.9-1.5-1.5-2.6-1.6c-1.1-0.1-2.1,0.2-2.9,1l-15.1,15.1c-0.4,0.4-0.8,0.5-1.3,0.5
			c-0.5,0-1-0.2-1.3-0.5l-0.7-0.7c-0.4-0.4-0.5-0.8-0.5-1.3c0-0.5,0.2-1,0.5-1.3l15.2-15.2c0.7-0.7,1.1-1.8,1-2.8
			c-0.1-1-0.7-2-1.5-2.6c-5.1-3.4-11-5.2-17.1-5.2c-17,0-30.9,13.9-30.9,30.9s13.9,30.9,30.9,30.9s30.9-13.9,30.9-30.9
			C754.4,124.4,752.8,118.8,749.7,113.9z"/>
		<g>
			<path class="st5" d="M758,229.2c-12.5,6-26.3,9.6-40.8,10.4c2.1,0.1,4.2,0.2,6.3,0.2c11.2,0,22.3-1.7,32.9-5
				c1.1-0.3,2-1.2,2.3-2.3C759,231.3,758.8,230.1,758,229.2C758,229.2,758,229.2,758,229.2z"/>
			<path class="st5" d="M780,45.1l2.3-2.3c0.8-0.8,1.1-1.8,1-2.9c-0.1-1.1-0.7-2-1.6-2.6c-17.4-11-37.6-16.8-58.3-16.8
				c-2.1,0-4.2,0.1-6.3,0.2C740.9,22.1,762.7,31,780,45.1z"/>
			<path class="st5" d="M816.8,72.7c-0.6-0.9-1.5-1.5-2.6-1.6c-1.1-0.1-2.1,0.2-2.9,1l-4.7,4.7c8.8,15.8,13.9,34,13.9,53.4
				c0,8.3-0.9,16.4-2.7,24.1c2.3,1.2,4.5,2.5,6.6,4.1c0.9,0.7,2.2,0.9,3.2,0.5c1.1-0.4,1.9-1.3,2.2-2.4c2.1-8.5,3.2-17.3,3.2-26.2
				C833.1,109.8,827.5,90,816.8,72.7z"/>
		</g>
		<g>
			<path class="st6" d="M808.6,40.1L804,18.8c-0.3-1.2-1.2-2.3-2.4-2.6c-1.2-0.4-2.5,0-3.5,0.9l-33.2,33.2c-0.8,0.8-1.2,2-0.9,3.2
				l4.6,21.3c0.3,1.2,1.2,2.2,2.4,2.6c0.3,0.1,0.7,0.1,1,0.1c0.9,0,1.8-0.4,2.5-1l33.2-33.2C808.4,42.5,808.8,41.3,808.6,40.1z"/>
			<path class="st6" d="M838,52.7c-0.4-1.2-1.4-2.2-2.6-2.4l-21.3-4.6c-1.2-0.3-2.4,0.1-3.2,0.9l-33.2,33.2
				c-0.9,0.9-1.2,2.2-0.9,3.5c0.4,1.2,1.4,2.2,2.6,2.4l21.3,4.6c0.2,0.1,0.5,0.1,0.7,0.1c0.9,0,1.8-0.4,2.5-1l33.2-33.2
				C838.1,55.3,838.4,54,838,52.7z"/>
		</g>
		<path class="st7" d="M789.5,87.9l11.2,2.4c0.2,0.1,0.5,0.1,0.7,0.1c0.9,0,1.8-0.4,2.5-1l33.2-33.2c0.9-0.9,1.2-2.2,0.9-3.5
			c-0.4-1.2-1.4-2.2-2.6-2.4l-6.8-1.5L789.5,87.9z"/>
		<path class="st8" d="M815.9,46.7l-8.3-8.3c-0.7-0.7-1.5-1-2.5-1c-0.9,0-1.8,0.4-2.5,1l-81.7,81.7c-1.7,1.7-2.6,3.9-2.6,6.3
			s0.9,4.6,2.6,6.3l0.7,0.7c1.7,1.7,3.9,2.6,6.3,2.6c2.4,0,4.6-0.9,6.3-2.6l81.7-81.7C817.2,50.3,817.2,48,815.9,46.7z"/>
		<path class="st6" d="M795.8,142.1c-30.9,0-56,25.1-56,56s25.1,56,56,56s56-25.1,56-56C851.7,167.2,826.6,142.1,795.8,142.1z"/>
		<path class="st9" d="M795.8,142.1c-2.4,0-4.8,0.2-7.2,0.5c27.5,3.5,48.8,27.1,48.8,55.5c0,28.4-21.3,52-48.8,55.5
			c2.4,0.3,4.7,0.5,7.2,0.5c30.9,0,56-25.1,56-56C851.7,167.2,826.6,142.1,795.8,142.1z"/>
		<path class="st10" d="M787.5,223.3c-1.9,0-3.8-0.8-5.2-2.1l-16.6-16.6c-2.9-2.9-2.9-7.5,0-10.3c2.9-2.9,7.5-2.9,10.3,0l11.4,11.4
			l28.1-28.1c2.9-2.9,7.5-2.9,10.3,0c2.9,2.9,2.9,7.5,0,10.3l-33.2,33.2C791.3,222.5,789.4,223.3,787.5,223.3z"/>
	</g>
</g>
</svg>
