<?xml version="1.0" encoding="utf-8"?>
<!-- Generator: Adobe Illustrator 26.0.1, SVG Export Plug-In . SVG Version: 6.00 Build 0)  -->
<svg version="1.1" id="Layer_1" xmlns="http://www.w3.org/2000/svg" xmlns:xlink="http://www.w3.org/1999/xlink" x="0px" y="0px"
	 viewBox="0 0 826.2 1015.7" style="enable-background:new 0 0 826.2 1015.7;" xml:space="preserve">
<style type="text/css">
	.st0{fill:#EF3220;}
	.st1{opacity:0.5;fill:#C1211A;}
	.st2{fill:#FFFFFF;}
	.st3{fill:#464754;}
	.st4{fill:#FF6465;}
	.st5{fill:#E1E1E5;}
	.st6{fill:#363844;}
	.st7{fill:#EF525A;}
	.st8{fill:#C7C7C9;}
	.st9{fill:#B28A5D;}
	.st10{fill:#9E6E3F;}
</style>
<polygon class="st0" points="413.1,1011.6 516.5,832.5 309.7,832.5 "/>
<path class="st0" d="M817.6,134.8v693.4c0,20.8-16.8,37.5-37.5,37.5H46.1c-20.8,0-37.5-16.8-37.5-37.5V134.8
	c0-20.7,16.8-37.5,37.5-37.5h733.9C800.8,97.2,817.6,114,817.6,134.8z"/>
<path class="st1" d="M817.6,592.1v236c0,20.8-16.8,37.5-37.5,37.5H46.1c-20.8,0-37.5-16.8-37.5-37.5V344.9
	C173.9,593.4,453.4,851.9,817.6,592.1z"/>
<g>
	<path class="st2" d="M151.7,224.5v63.1h-15.4v-37.9l-14.1,37.9h-12.4l-14.2-38v38H80.2v-63.1h18.2l17.7,43.7l17.5-43.7H151.7z"/>
	<path class="st2" d="M162.6,248.8c1.9-3.9,4.6-6.9,8-9c3.4-2.1,7.1-3.1,11.2-3.1c3.5,0,6.6,0.7,9.3,2.2c2.7,1.4,4.7,3.3,6.2,5.7
		v-7.1h15.4v50.2h-15.4v-7.1c-1.5,2.3-3.6,4.2-6.3,5.7c-2.7,1.4-5.8,2.2-9.3,2.2c-4.1,0-7.8-1.1-11.2-3.2c-3.4-2.1-6-5.2-8-9.1
		c-1.9-3.9-2.9-8.5-2.9-13.6C159.7,257.3,160.7,252.7,162.6,248.8z M194.1,253.4c-2.1-2.2-4.7-3.3-7.8-3.3s-5.7,1.1-7.8,3.3
		c-2.1,2.2-3.2,5.2-3.2,9s1.1,6.9,3.2,9.1c2.1,2.2,4.7,3.4,7.8,3.4s5.7-1.1,7.8-3.3c2.1-2.2,3.2-5.2,3.2-9.1
		C197.3,258.7,196.2,255.6,194.1,253.4z"/>
	<path class="st2" d="M254.5,287.6l-15.3-21v21h-15.4V221h15.4v36.8l15.2-20.4h19l-20.9,25.2l21,25H254.5z"/>
	<path class="st2" d="M326.5,266.2h-34.8c0.2,3.1,1.2,5.5,3,7.2c1.8,1.6,3.9,2.5,6.5,2.5c3.8,0,6.5-1.6,8-4.9h16.4
		c-0.8,3.3-2.4,6.3-4.5,8.9c-2.2,2.6-4.9,4.7-8.2,6.2c-3.3,1.5-7,2.2-11.1,2.2c-4.9,0-9.3-1-13.1-3.1c-3.8-2.1-6.8-5.1-9-9
		c-2.2-3.9-3.2-8.5-3.2-13.7s1.1-9.8,3.2-13.7c2.1-3.9,5.1-6.9,9-9c3.8-2.1,8.2-3.1,13.2-3.1c4.9,0,9.2,1,13,3.1
		c3.8,2,6.7,4.9,8.9,8.7c2.1,3.8,3.2,8.2,3.2,13.2C326.8,263.1,326.7,264.6,326.5,266.2z M311,257.7c0-2.6-0.9-4.7-2.7-6.3
		s-4-2.3-6.7-2.3c-2.6,0-4.8,0.8-6.5,2.2c-1.8,1.5-2.9,3.6-3.3,6.4H311z"/>
	<path class="st2" d="M121.3,332.4v12.3H95.6V358h19.3v12H95.6v25.5H80.2v-63.1H121.3z"/>
	<path class="st2" d="M130.5,337.8c-1.7-1.6-2.6-3.6-2.6-5.9c0-2.4,0.9-4.4,2.6-6c1.7-1.6,3.9-2.4,6.6-2.4c2.6,0,4.8,0.8,6.5,2.4
		c1.7,1.6,2.6,3.6,2.6,6c0,2.3-0.9,4.3-2.6,5.9c-1.7,1.6-3.9,2.4-6.5,2.4C134.4,340.1,132.2,339.3,130.5,337.8z M144.8,345.4v50.2
		h-15.4v-50.2H144.8z"/>
	<path class="st2" d="M178.1,347.2c2.7-1.6,5.7-2.4,9-2.4v16.3h-4.2c-3.8,0-6.7,0.8-8.6,2.5c-1.9,1.7-2.9,4.5-2.9,8.7v23.3h-15.4
		v-50.2h15.4v8.4C173.1,351,175.4,348.8,178.1,347.2z"/>
	<path class="st2" d="M203.2,394c-3.4-1.5-6.1-3.6-8.1-6.2c-2-2.6-3.1-5.5-3.3-8.8h15.2c0.2,1.7,1,3.1,2.4,4.2
		c1.4,1.1,3.2,1.6,5.3,1.6c1.9,0,3.4-0.4,4.5-1.1c1-0.7,1.6-1.7,1.6-2.9c0-1.4-0.8-2.5-2.2-3.2c-1.5-0.7-3.9-1.5-7.3-2.3
		c-3.6-0.8-6.6-1.7-9-2.7c-2.4-0.9-4.5-2.4-6.2-4.4c-1.7-2-2.6-4.7-2.6-8.1c0-2.9,0.8-5.5,2.4-7.9c1.6-2.4,3.9-4.2,7-5.6
		c3.1-1.4,6.8-2.1,11-2.1c6.3,0,11.3,1.6,14.9,4.7c3.6,3.1,5.7,7.3,6.3,12.4h-14.2c-0.2-1.7-1-3.1-2.3-4.1c-1.3-1-3-1.5-5.1-1.5
		c-1.8,0-3.2,0.3-4.1,1c-1,0.7-1.4,1.6-1.4,2.8c0,1.4,0.8,2.5,2.3,3.2c1.5,0.7,3.9,1.4,7.2,2.2c3.7,1,6.7,1.9,9.1,2.8
		c2.3,0.9,4.4,2.4,6.2,4.5c1.8,2.1,2.7,4.8,2.7,8.3c0,2.9-0.8,5.6-2.5,7.9c-1.7,2.3-4,4.1-7.1,5.4c-3.1,1.3-6.7,2-10.8,2
		C210.5,396.3,206.6,395.5,203.2,394z"/>
	<path class="st2" d="M272.6,382.5v13h-7.8c-5.6,0-9.9-1.4-13-4.1c-3.1-2.7-4.7-7.2-4.7-13.4v-20h-6.1v-12.8h6.1v-12.2h15.4v12.2
		h10.1v12.8h-10.1v20.2c0,1.5,0.4,2.6,1.1,3.2c0.7,0.7,1.9,1,3.6,1H272.6z"/>
	<path class="st2" d="M310.7,393.9c-3.7-1.5-6.6-3.7-8.8-6.7c-2.2-2.9-3.3-6.5-3.5-10.6h16.4c0.2,2.3,1,4.1,2.4,5.4
		c1.4,1.2,3.2,1.8,5.4,1.8c2.3,0,4.1-0.5,5.4-1.6c1.3-1,2-2.5,2-4.4c0-1.6-0.5-2.8-1.6-3.9c-1-1-2.3-1.9-3.9-2.5
		c-1.5-0.7-3.7-1.4-6.5-2.2c-4.1-1.3-7.4-2.5-10-3.8c-2.6-1.3-4.8-3.1-6.7-5.6c-1.9-2.5-2.8-5.7-2.8-9.6c0-5.9,2.1-10.5,6.4-13.8
		c4.3-3.3,9.8-5,16.6-5c7,0,12.6,1.7,16.8,5c4.3,3.3,6.5,8,6.8,13.9h-16.6c-0.1-2-0.9-3.6-2.2-4.8c-1.4-1.2-3.1-1.8-5.3-1.8
		c-1.9,0-3.4,0.5-4.5,1.5c-1.1,1-1.7,2.4-1.7,4.3c0,2,1,3.6,2.9,4.8c1.9,1.1,4.9,2.4,9,3.7c4.1,1.4,7.4,2.7,9.9,4
		c2.5,1.3,4.8,3.1,6.6,5.5c1.9,2.4,2.8,5.5,2.8,9.3c0,3.6-0.9,6.9-2.7,9.8c-1.8,2.9-4.5,5.3-8,7c-3.5,1.7-7.6,2.6-12.3,2.6
		C318.5,396.2,314.3,395.4,310.7,393.9z"/>
	<path class="st2" d="M383.5,382.5v13h-7.8c-5.6,0-9.9-1.4-13-4.1c-3.1-2.7-4.7-7.2-4.7-13.4v-20h-6.1v-12.8h6.1v-12.2h15.4v12.2
		h10.1v12.8h-10.1v20.2c0,1.5,0.4,2.6,1.1,3.2c0.7,0.7,1.9,1,3.6,1H383.5z"/>
	<path class="st2" d="M401.6,393.1c-3.9-2.1-7-5.1-9.3-9c-2.2-3.9-3.4-8.5-3.4-13.7c0-5.2,1.1-9.7,3.4-13.6c2.3-3.9,5.4-6.9,9.4-9
		c4-2.1,8.4-3.1,13.3-3.1c4.9,0,9.4,1,13.3,3.1c4,2.1,7.1,5.1,9.4,9c2.3,3.9,3.4,8.5,3.4,13.6c0,5.2-1.2,9.7-3.5,13.6
		c-2.3,3.9-5.5,6.9-9.4,9c-4,2.1-8.4,3.1-13.4,3.1C410,396.3,405.6,395.2,401.6,393.1z M422.4,379.7c2.1-2.2,3.1-5.2,3.1-9.3
		c0-4-1-7.1-3-9.3c-2-2.2-4.5-3.2-7.4-3.2c-3,0-5.5,1.1-7.5,3.2c-2,2.1-3,5.2-3,9.3c0,4,1,7.1,2.9,9.3c1.9,2.2,4.4,3.2,7.3,3.2
		S420.4,381.9,422.4,379.7z"/>
	<path class="st2" d="M471,346.8c2.6-1.4,5.7-2.2,9.3-2.2c4.1,0,7.9,1,11.2,3.1c3.4,2.1,6,5.1,8,9c1.9,3.9,2.9,8.4,2.9,13.6
		c0,5.2-1,9.7-2.9,13.6c-1.9,3.9-4.6,7-8,9.1c-3.4,2.1-7.1,3.2-11.2,3.2c-3.5,0-6.6-0.7-9.2-2.2c-2.7-1.4-4.8-3.3-6.3-5.6v30.9
		h-15.4v-74.1h15.4v7.1C466.2,350.1,468.3,348.2,471,346.8z M483.5,361.3c-2.1-2.2-4.8-3.3-7.9-3.3c-3.1,0-5.7,1.1-7.8,3.3
		c-2.1,2.2-3.2,5.2-3.2,9.1c0,3.8,1.1,6.9,3.2,9.1c2.1,2.2,4.7,3.3,7.8,3.3s5.7-1.1,7.8-3.4c2.2-2.2,3.2-5.3,3.2-9.1
		S485.6,363.5,483.5,361.3z"/>
	<path class="st2" d="M519.2,394c-3.4-1.5-6.1-3.6-8.1-6.2c-2-2.6-3.1-5.5-3.3-8.8h15.2c0.2,1.7,1,3.1,2.4,4.2
		c1.4,1.1,3.2,1.6,5.3,1.6c1.9,0,3.4-0.4,4.5-1.1c1-0.7,1.6-1.7,1.6-2.9c0-1.4-0.8-2.5-2.2-3.2c-1.5-0.7-3.9-1.5-7.3-2.3
		c-3.6-0.8-6.6-1.7-9-2.7c-2.4-0.9-4.5-2.4-6.2-4.4c-1.7-2-2.6-4.7-2.6-8.1c0-2.9,0.8-5.5,2.4-7.9c1.6-2.4,3.9-4.2,7-5.6
		c3.1-1.4,6.8-2.1,11-2.1c6.3,0,11.3,1.6,14.9,4.7c3.6,3.1,5.7,7.3,6.3,12.4h-14.2c-0.2-1.7-1-3.1-2.3-4.1c-1.3-1-3-1.5-5.1-1.5
		c-1.8,0-3.2,0.3-4.1,1c-1,0.7-1.4,1.6-1.4,2.8c0,1.4,0.8,2.5,2.3,3.2c1.5,0.7,3.9,1.4,7.2,2.2c3.7,1,6.7,1.9,9.1,2.8
		c2.3,0.9,4.4,2.4,6.2,4.5c1.8,2.1,2.7,4.8,2.7,8.3c0,2.9-0.8,5.6-2.5,7.9c-1.7,2.3-4,4.1-7.1,5.4c-3.1,1.3-6.7,2-10.8,2
		C526.5,396.3,522.6,395.5,519.2,394z"/>
</g>
<g>
	<path class="st2" d="M150.8,473.8l-16.2,55.7h-8.2l-13-44.9l-13.4,44.9l-8.1,0.1l-15.6-55.8h7.8l12.2,47.3l13.4-47.3h8.2l12.8,47.1
		l12.2-47.1H150.8z"/>
	<path class="st2" d="M198.6,510.4h-35c0.3,4.3,1.7,7.7,4.4,10.1c2.7,2.4,6,3.6,9.8,3.6c3.1,0,5.8-0.7,7.9-2.2
		c2.1-1.5,3.6-3.4,4.4-5.9h7.8c-1.2,4.2-3.5,7.6-7,10.3s-7.9,4-13.1,4c-4.2,0-7.9-0.9-11.2-2.8c-3.3-1.9-5.9-4.5-7.7-8
		c-1.9-3.4-2.8-7.4-2.8-12c0-4.5,0.9-8.5,2.7-11.9c1.8-3.4,4.4-6,7.6-7.9c3.3-1.8,7-2.8,11.3-2.8c4.2,0,7.8,0.9,11,2.7
		s5.7,4.3,7.4,7.5c1.7,3.2,2.6,6.8,2.6,10.8C198.8,507.4,198.7,508.8,198.6,510.4z M189.4,497.3c-1.2-2-2.9-3.5-5-4.6
		c-2.1-1-4.4-1.6-7-1.6c-3.7,0-6.8,1.2-9.4,3.5c-2.6,2.3-4.1,5.6-4.4,9.8h27.7C191.3,501.7,190.7,499.3,189.4,497.3z"/>
	<path class="st2" d="M248.1,510.4h-35c0.3,4.3,1.7,7.7,4.4,10.1c2.7,2.4,6,3.6,9.8,3.6c3.1,0,5.8-0.7,7.9-2.2
		c2.1-1.5,3.6-3.4,4.4-5.9h7.8c-1.2,4.2-3.5,7.6-7,10.3s-7.9,4-13.1,4c-4.2,0-7.9-0.9-11.2-2.8c-3.3-1.9-5.9-4.5-7.7-8
		c-1.9-3.4-2.8-7.4-2.8-12c0-4.5,0.9-8.5,2.7-11.9c1.8-3.4,4.4-6,7.6-7.9c3.3-1.8,7-2.8,11.3-2.8c4.2,0,7.8,0.9,11,2.7
		s5.7,4.3,7.4,7.5c1.7,3.2,2.6,6.8,2.6,10.8C248.4,507.4,248.3,508.8,248.1,510.4z M239,497.3c-1.2-2-2.9-3.5-5-4.6
		c-2.1-1-4.4-1.6-7-1.6c-3.7,0-6.8,1.2-9.4,3.5c-2.6,2.3-4.1,5.6-4.4,9.8h27.7C240.9,501.7,240.2,499.3,239,497.3z"/>
	<path class="st2" d="M282.4,529.6l-17.2-19.4v19.4H258v-59.2h7.3v34.8l16.9-19.4h10.2l-20.6,21.8l20.7,22H282.4z"/>
	<path class="st2" d="M306.4,470.4v59.2h-7.3v-59.2H306.4z"/>
	<path class="st2" d="M356.6,485.8l-26.4,64.4h-7.5l8.6-21.1l-17.7-43.3h8.1l13.8,35.5l13.6-35.5H356.6z"/>
	<path class="st2" d="M81,573.2c-1-1-1.4-2.1-1.4-3.5c0-1.4,0.5-2.6,1.4-3.5c1-1,2.1-1.4,3.5-1.4c1.3,0,2.5,0.5,3.4,1.4
		c0.9,1,1.4,2.1,1.4,3.5c0,1.4-0.5,2.6-1.4,3.5c-0.9,1-2.1,1.4-3.4,1.4C83.1,574.6,82,574.1,81,573.2z M88.1,581.7v43.8h-7.3v-43.8
		H88.1z"/>
	<path class="st2" d="M134.7,585.8c3.3,3.2,5,7.9,5,14v25.8h-7.2v-24.8c0-4.4-1.1-7.7-3.3-10c-2.2-2.3-5.2-3.5-9-3.5
		c-3.8,0-6.9,1.2-9.2,3.6c-2.3,2.4-3.4,5.9-3.4,10.5v24.2h-7.3v-43.8h7.3v6.2c1.4-2.2,3.4-4,5.9-5.2c2.5-1.2,5.2-1.8,8.2-1.8
		C127.1,580.9,131.4,582.5,134.7,585.8z"/>
	<path class="st2" d="M160.5,587.7v25.8c0,2.1,0.5,3.6,1.4,4.5c0.9,0.9,2.5,1.3,4.7,1.3h5.4v6.2h-6.6c-4.1,0-7.1-0.9-9.1-2.8
		c-2-1.9-3-4.9-3-9.2v-25.8h-5.7v-6h5.7v-11h7.3v11h11.4v6H160.5z"/>
	<path class="st2" d="M220.5,606.3h-35c0.3,4.3,1.7,7.7,4.4,10.1c2.7,2.4,6,3.6,9.8,3.6c3.1,0,5.8-0.7,7.9-2.2
		c2.1-1.5,3.6-3.4,4.4-5.9h7.8c-1.2,4.2-3.5,7.6-7,10.3s-7.9,4-13.1,4c-4.2,0-7.9-0.9-11.2-2.8c-3.3-1.9-5.9-4.5-7.7-8
		c-1.9-3.4-2.8-7.4-2.8-12c0-4.5,0.9-8.5,2.7-11.9c1.8-3.4,4.4-6,7.6-7.9c3.3-1.8,7-2.8,11.3-2.8c4.2,0,7.8,0.9,11,2.7
		s5.7,4.3,7.4,7.5c1.7,3.2,2.6,6.8,2.6,10.8C220.7,603.3,220.6,604.8,220.5,606.3z M211.4,593.3c-1.2-2-2.9-3.5-5-4.6
		c-2.1-1-4.4-1.6-7-1.6c-3.7,0-6.8,1.2-9.4,3.5c-2.6,2.3-4.1,5.6-4.4,9.8h27.7C213.2,597.7,212.6,595.3,211.4,593.3z"/>
	<path class="st2" d="M243.1,583c2.4-1.4,5.3-2.1,8.7-2.1v7.5h-1.9c-8.2,0-12.2,4.4-12.2,13.3v23.8h-7.3v-43.8h7.3v7.1
		C238.9,586.3,240.7,584.4,243.1,583z"/>
	<path class="st2" d="M260.1,591.7c1.8-3.4,4.3-6,7.5-7.9c3.2-1.9,6.7-2.8,10.6-2.8c3.8,0,7.2,0.8,10,2.5c2.8,1.7,4.9,3.7,6.3,6.2
		v-8h7.4v43.8h-7.4v-8.2c-1.4,2.6-3.6,4.7-6.4,6.4c-2.9,1.7-6.2,2.5-10,2.5c-3.9,0-7.4-1-10.6-2.9c-3.1-1.9-5.6-4.6-7.4-8.1
		c-1.8-3.5-2.7-7.4-2.7-11.8C257.4,599,258.3,595.1,260.1,591.7z M292.5,594.9c-1.3-2.5-3.1-4.3-5.4-5.6c-2.3-1.3-4.8-2-7.5-2
		s-5.2,0.6-7.4,1.9c-2.2,1.3-4,3.1-5.4,5.6c-1.3,2.5-2,5.3-2,8.6c0,3.4,0.7,6.3,2,8.8c1.3,2.5,3.1,4.4,5.4,5.7c2.2,1.3,4.7,2,7.4,2
		s5.2-0.7,7.5-2c2.3-1.3,4.1-3.2,5.4-5.7c1.3-2.5,2-5.4,2-8.7C294.5,600.2,293.8,597.4,292.5,594.9z"/>
	<path class="st2" d="M314.2,591.7c1.8-3.4,4.3-6,7.6-7.9c3.2-1.9,6.9-2.8,11.1-2.8c5.4,0,9.8,1.3,13.3,3.9
		c3.5,2.6,5.8,6.2,6.9,10.9h-7.8c-0.7-2.7-2.2-4.8-4.4-6.3c-2.2-1.5-4.8-2.3-8-2.3c-4.2,0-7.5,1.4-10.1,4.3
		c-2.6,2.9-3.8,6.9-3.8,12.1c0,5.3,1.3,9.4,3.8,12.2c2.6,2.9,5.9,4.3,10.1,4.3c3.2,0,5.9-0.7,8-2.2c2.1-1.5,3.6-3.6,4.4-6.4h7.8
		c-1.2,4.5-3.5,8.1-7,10.8c-3.5,2.7-7.9,4-13.2,4c-4.2,0-7.8-0.9-11.1-2.8c-3.2-1.9-5.7-4.5-7.6-7.9c-1.8-3.4-2.7-7.4-2.7-12
		C311.5,599,312.4,595.1,314.2,591.7z"/>
	<path class="st2" d="M371.6,587.7v25.8c0,2.1,0.5,3.6,1.4,4.5c0.9,0.9,2.5,1.3,4.7,1.3h5.4v6.2h-6.6c-4.1,0-7.1-0.9-9.1-2.8
		c-2-1.9-3-4.9-3-9.2v-25.8h-5.7v-6h5.7v-11h7.3v11H383v6H371.6z"/>
	<path class="st2" d="M392.1,573.2c-1-1-1.4-2.1-1.4-3.5c0-1.4,0.5-2.6,1.4-3.5c1-1,2.1-1.4,3.5-1.4c1.3,0,2.5,0.5,3.4,1.4
		c0.9,1,1.4,2.1,1.4,3.5c0,1.4-0.5,2.6-1.4,3.5c-0.9,1-2.1,1.4-3.4,1.4C394.2,574.6,393,574.1,392.1,573.2z M399.1,581.7v43.8h-7.3
		v-43.8H399.1z"/>
	<path class="st2" d="M427.8,618.8l13.6-37.1h7.8L432,625.5h-8.5l-17.2-43.8h7.8L427.8,618.8z"/>
	<path class="st2" d="M496.1,606.3h-35c0.3,4.3,1.7,7.7,4.4,10.1c2.7,2.4,6,3.6,9.8,3.6c3.1,0,5.8-0.7,7.9-2.2
		c2.1-1.5,3.6-3.4,4.4-5.9h7.8c-1.2,4.2-3.5,7.6-7,10.3s-7.9,4-13.1,4c-4.2,0-7.9-0.9-11.2-2.8c-3.3-1.9-5.9-4.5-7.7-8
		c-1.9-3.4-2.8-7.4-2.8-12c0-4.5,0.9-8.5,2.7-11.9c1.8-3.4,4.4-6,7.6-7.9c3.3-1.8,7-2.8,11.3-2.8c4.2,0,7.8,0.9,11,2.7
		s5.7,4.3,7.4,7.5c1.7,3.2,2.6,6.8,2.6,10.8C496.3,603.3,496.2,604.8,496.1,606.3z M487,593.3c-1.2-2-2.9-3.5-5-4.6
		c-2.1-1-4.4-1.6-7-1.6c-3.7,0-6.8,1.2-9.4,3.5c-2.6,2.3-4.1,5.6-4.4,9.8h27.7C488.8,597.7,488.2,595.3,487,593.3z"/>
	<path class="st2" d="M80.8,687.6c1.8-3.4,4.3-6,7.6-7.9c3.2-1.9,6.9-2.8,11.1-2.8c5.4,0,9.8,1.3,13.3,3.9c3.5,2.6,5.8,6.2,6.9,10.9
		h-7.8c-0.7-2.7-2.2-4.8-4.4-6.3c-2.2-1.5-4.8-2.3-8-2.3c-4.2,0-7.5,1.4-10.1,4.3c-2.6,2.9-3.8,6.9-3.8,12.1c0,5.3,1.3,9.4,3.8,12.2
		c2.6,2.9,5.9,4.3,10.1,4.3c3.2,0,5.9-0.7,8-2.2c2.1-1.5,3.6-3.6,4.4-6.4h7.8c-1.2,4.5-3.5,8.1-7,10.8c-3.5,2.7-7.9,4-13.2,4
		c-4.2,0-7.8-0.9-11.1-2.8c-3.2-1.9-5.7-4.5-7.6-7.9c-1.8-3.4-2.7-7.4-2.7-12C78.1,695,79,691,80.8,687.6z"/>
	<path class="st2" d="M136.6,662.3v59.2h-7.3v-59.2H136.6z"/>
	<path class="st2" d="M149,687.6c1.8-3.4,4.3-6,7.5-7.9c3.2-1.9,6.7-2.8,10.6-2.8c3.8,0,7.2,0.8,10,2.5c2.8,1.7,4.9,3.7,6.3,6.2v-8
		h7.4v43.8h-7.4v-8.2c-1.4,2.6-3.6,4.7-6.4,6.4c-2.9,1.7-6.2,2.5-10,2.5c-3.9,0-7.4-1-10.6-2.9c-3.1-1.9-5.6-4.6-7.4-8.1
		c-1.8-3.5-2.7-7.4-2.7-11.8C146.3,694.9,147.2,691,149,687.6z M181.4,690.9c-1.3-2.5-3.1-4.3-5.4-5.6c-2.3-1.3-4.8-2-7.5-2
		s-5.2,0.6-7.4,1.9c-2.2,1.3-4,3.1-5.4,5.6c-1.3,2.5-2,5.3-2,8.6c0,3.4,0.7,6.3,2,8.8c1.3,2.5,3.1,4.4,5.4,5.7c2.2,1.3,4.7,2,7.4,2
		s5.2-0.7,7.5-2c2.3-1.3,4.1-3.2,5.4-5.7c1.3-2.5,2-5.4,2-8.7C183.4,696.2,182.7,693.3,181.4,690.9z"/>
	<path class="st2" d="M209.5,720.5c-2.7-1.1-4.8-2.7-6.3-4.8c-1.5-2.1-2.4-4.4-2.6-7.1h7.5c0.2,2.2,1.2,4,3.1,5.4
		c1.8,1.4,4.2,2.1,7.2,2.1c2.8,0,5-0.6,6.6-1.8c1.6-1.2,2.4-2.8,2.4-4.6c0-1.9-0.9-3.3-2.6-4.3c-1.7-0.9-4.3-1.9-7.9-2.8
		c-3.3-0.9-5.9-1.7-8-2.6c-2.1-0.9-3.8-2.2-5.3-3.9c-1.5-1.7-2.2-4-2.2-6.8c0-2.2,0.7-4.3,2-6.2c1.3-1.9,3.2-3.3,5.7-4.4
		c2.5-1.1,5.2-1.6,8.4-1.6c4.9,0,8.8,1.2,11.8,3.7c3,2.5,4.6,5.8,4.8,10.1h-7.3c-0.2-2.3-1.1-4.1-2.8-5.5c-1.7-1.4-3.9-2.1-6.8-2.1
		c-2.6,0-4.7,0.6-6.2,1.7c-1.5,1.1-2.3,2.6-2.3,4.4c0,1.4,0.5,2.6,1.4,3.6c0.9,0.9,2.1,1.7,3.5,2.2c1.4,0.6,3.4,1.2,5.9,1.9
		c3.1,0.9,5.7,1.7,7.7,2.5c2,0.8,3.7,2.1,5.1,3.7c1.4,1.7,2.1,3.8,2.2,6.5c0,2.4-0.7,4.6-2,6.5c-1.3,1.9-3.2,3.4-5.6,4.5
		c-2.4,1.1-5.2,1.6-8.4,1.6C215.2,722.2,212.2,721.6,209.5,720.5z"/>
	<path class="st2" d="M251.3,720.5c-2.7-1.1-4.8-2.7-6.3-4.8c-1.5-2.1-2.4-4.4-2.6-7.1h7.5c0.2,2.2,1.2,4,3.1,5.4
		c1.8,1.4,4.3,2.1,7.2,2.1c2.8,0,5-0.6,6.6-1.8c1.6-1.2,2.4-2.8,2.4-4.6c0-1.9-0.9-3.3-2.6-4.3c-1.7-0.9-4.3-1.9-7.9-2.8
		c-3.3-0.9-5.9-1.7-8-2.6c-2.1-0.9-3.8-2.2-5.3-3.9c-1.5-1.7-2.2-4-2.2-6.8c0-2.2,0.7-4.3,2-6.2c1.3-1.9,3.2-3.3,5.7-4.4
		c2.5-1.1,5.3-1.6,8.4-1.6c4.9,0,8.8,1.2,11.8,3.7c3,2.5,4.6,5.8,4.8,10.1h-7.3c-0.2-2.3-1.1-4.1-2.8-5.5c-1.7-1.4-3.9-2.1-6.8-2.1
		c-2.6,0-4.7,0.6-6.2,1.7c-1.5,1.1-2.3,2.6-2.3,4.4c0,1.4,0.5,2.6,1.4,3.6c0.9,0.9,2.1,1.7,3.5,2.2c1.4,0.6,3.4,1.2,5.9,1.9
		c3.1,0.9,5.7,1.7,7.7,2.5c2,0.8,3.7,2.1,5.1,3.7c1.4,1.7,2.1,3.8,2.2,6.5c0,2.4-0.7,4.6-2,6.5c-1.3,1.9-3.2,3.4-5.6,4.5
		c-2.4,1.1-5.2,1.6-8.4,1.6C256.9,722.2,253.9,721.6,251.3,720.5z"/>
	<path class="st2" d="M326.3,702.3h-35c0.3,4.3,1.7,7.7,4.4,10.1c2.7,2.4,6,3.6,9.8,3.6c3.1,0,5.8-0.7,7.9-2.2
		c2.1-1.5,3.6-3.4,4.4-5.9h7.8c-1.2,4.2-3.5,7.6-7,10.3s-7.9,4-13.1,4c-4.2,0-7.9-0.9-11.2-2.8c-3.3-1.9-5.9-4.5-7.7-8
		c-1.9-3.4-2.8-7.4-2.8-12c0-4.5,0.9-8.5,2.7-11.9c1.8-3.4,4.4-6,7.6-7.9c3.3-1.8,7-2.8,11.3-2.8c4.2,0,7.8,0.9,11,2.7
		s5.7,4.3,7.4,7.5c1.7,3.2,2.6,6.8,2.6,10.8C326.5,699.3,326.4,700.8,326.3,702.3z M317.1,689.2c-1.2-2-2.9-3.5-5-4.6
		c-2.1-1-4.4-1.6-7-1.6c-3.7,0-6.8,1.2-9.4,3.5c-2.6,2.3-4.1,5.6-4.4,9.8H319C319,693.6,318.4,691.2,317.1,689.2z"/>
	<path class="st2" d="M342.6,720.5c-2.7-1.1-4.8-2.7-6.3-4.8c-1.5-2.1-2.4-4.4-2.6-7.1h7.5c0.2,2.2,1.2,4,3.1,5.4
		c1.8,1.4,4.2,2.1,7.2,2.1c2.8,0,5-0.6,6.6-1.8c1.6-1.2,2.4-2.8,2.4-4.6c0-1.9-0.9-3.3-2.6-4.3c-1.7-0.9-4.3-1.9-7.9-2.8
		c-3.3-0.9-5.9-1.7-8-2.6c-2.1-0.9-3.8-2.2-5.3-3.9c-1.5-1.7-2.2-4-2.2-6.8c0-2.2,0.7-4.3,2-6.2c1.3-1.9,3.2-3.3,5.7-4.4
		c2.5-1.1,5.2-1.6,8.4-1.6c4.9,0,8.8,1.2,11.8,3.7c3,2.5,4.6,5.8,4.8,10.1h-7.3c-0.2-2.3-1.1-4.1-2.8-5.5c-1.7-1.4-3.9-2.1-6.8-2.1
		c-2.6,0-4.7,0.6-6.2,1.7c-1.5,1.1-2.3,2.6-2.3,4.4c0,1.4,0.5,2.6,1.4,3.6c0.9,0.9,2.1,1.7,3.5,2.2c1.4,0.6,3.4,1.2,5.9,1.9
		c3.1,0.9,5.7,1.7,7.7,2.5c2,0.8,3.7,2.1,5.1,3.7c1.4,1.7,2.1,3.8,2.2,6.5c0,2.4-0.7,4.6-2,6.5c-1.3,1.9-3.2,3.4-5.6,4.5
		c-2.4,1.1-5.2,1.6-8.4,1.6C348.2,722.2,345.2,721.6,342.6,720.5z"/>
	<path class="st2" d="M413,679.4c2.9-1.7,6.2-2.5,9.8-2.5c3.9,0,7.5,0.9,10.6,2.8c3.1,1.9,5.6,4.5,7.4,7.9c1.8,3.4,2.7,7.3,2.7,11.8
		c0,4.4-0.9,8.4-2.7,11.8c-1.8,3.5-4.3,6.2-7.5,8.1s-6.7,2.9-10.6,2.9c-3.8,0-7.1-0.8-10-2.5c-2.9-1.7-5-3.8-6.4-6.3v8.1h-7.3v-59.2
		h7.3v23.5C407.9,683.2,410.1,681.1,413,679.4z M434.2,690.8c-1.3-2.5-3.1-4.3-5.4-5.6s-4.8-1.9-7.5-1.9c-2.7,0-5.1,0.7-7.4,2
		c-2.3,1.3-4.1,3.2-5.4,5.7c-1.4,2.5-2,5.3-2,8.6c0,3.3,0.7,6.2,2,8.7s3.2,4.4,5.4,5.7c2.3,1.3,4.7,2,7.4,2c2.7,0,5.2-0.7,7.5-2
		c2.3-1.3,4.1-3.2,5.4-5.7c1.3-2.5,2-5.4,2-8.8C436.2,696.1,435.5,693.2,434.2,690.8z"/>
	<path class="st2" d="M493,702.3h-35c0.3,4.3,1.7,7.7,4.4,10.1c2.7,2.4,6,3.6,9.8,3.6c3.1,0,5.8-0.7,7.9-2.2
		c2.1-1.5,3.6-3.4,4.4-5.9h7.8c-1.2,4.2-3.5,7.6-7,10.3s-7.9,4-13.1,4c-4.2,0-7.9-0.9-11.2-2.8c-3.3-1.9-5.9-4.5-7.7-8
		c-1.9-3.4-2.8-7.4-2.8-12c0-4.5,0.9-8.5,2.7-11.9c1.8-3.4,4.4-6,7.6-7.9c3.3-1.8,7-2.8,11.3-2.8c4.2,0,7.8,0.9,11,2.7
		s5.7,4.3,7.4,7.5c1.7,3.2,2.6,6.8,2.6,10.8C493.2,699.3,493.1,700.8,493,702.3z M483.9,689.2c-1.2-2-2.9-3.5-5-4.6
		c-2.1-1-4.4-1.6-7-1.6c-3.7,0-6.8,1.2-9.4,3.5c-2.6,2.3-4.1,5.6-4.4,9.8h27.7C485.7,693.6,485.1,691.2,483.9,689.2z"/>
	<path class="st2" d="M530.8,679.4c2.9,1.7,5,3.7,6.4,6.2v-8h7.4v44.8c0,4-0.9,7.6-2.6,10.7c-1.7,3.1-4.1,5.6-7.3,7.3
		c-3.2,1.8-6.9,2.6-11.1,2.6c-5.8,0-10.6-1.4-14.4-4.1c-3.8-2.7-6.1-6.4-6.8-11.1h7.2c0.8,2.7,2.5,4.8,5,6.4c2.5,1.6,5.5,2.4,9,2.4
		c4,0,7.3-1.3,9.8-3.8c2.5-2.5,3.8-6,3.8-10.6v-9.2c-1.4,2.6-3.6,4.7-6.4,6.4c-2.8,1.7-6.1,2.6-9.9,2.6c-3.9,0-7.4-1-10.6-2.9
		c-3.2-1.9-5.7-4.6-7.5-8.1c-1.8-3.5-2.7-7.4-2.7-11.8c0-4.5,0.9-8.4,2.7-11.8c1.8-3.4,4.3-6,7.5-7.9c3.2-1.9,6.7-2.8,10.6-2.8
		C524.7,677,528,677.8,530.8,679.4z M535.2,690.9c-1.3-2.5-3.1-4.3-5.4-5.6c-2.3-1.3-4.8-2-7.5-2s-5.2,0.6-7.4,1.9
		c-2.2,1.3-4,3.1-5.4,5.6c-1.3,2.5-2,5.3-2,8.6c0,3.4,0.7,6.3,2,8.8c1.3,2.5,3.1,4.4,5.4,5.7c2.2,1.3,4.7,2,7.4,2s5.2-0.7,7.5-2
		c2.3-1.3,4.1-3.2,5.4-5.7c1.3-2.5,2-5.4,2-8.7C537.2,696.2,536.5,693.3,535.2,690.9z"/>
	<path class="st2" d="M557.1,669.1c-1-1-1.4-2.1-1.4-3.5c0-1.4,0.5-2.6,1.4-3.5c1-1,2.1-1.4,3.5-1.4c1.3,0,2.5,0.5,3.4,1.4
		c0.9,1,1.4,2.1,1.4,3.5c0,1.4-0.5,2.6-1.4,3.5c-0.9,1-2.1,1.4-3.4,1.4C559.2,670.6,558.1,670.1,557.1,669.1z M564.1,677.7v43.8
		h-7.3v-43.8H564.1z"/>
	<path class="st2" d="M610.8,681.7c3.3,3.2,5,7.9,5,14v25.8h-7.2v-24.8c0-4.4-1.1-7.7-3.3-10c-2.2-2.3-5.2-3.5-9-3.5
		c-3.8,0-6.9,1.2-9.2,3.6c-2.3,2.4-3.4,5.9-3.4,10.5v24.2h-7.3v-43.8h7.3v6.2c1.4-2.2,3.4-4,5.9-5.2c2.5-1.2,5.2-1.8,8.2-1.8
		C603.2,676.9,607.5,678.5,610.8,681.7z"/>
</g>
<g>
	<ellipse class="st3" cx="509.6" cy="221.6" rx="18.8" ry="18.9"/>
	<path class="st4" d="M525,240.5h-30.7c-6,0-10.8,4.9-10.8,10.9v11.2h52.4v-11.2C535.8,245.4,530.9,240.5,525,240.5z"/>
	<path class="st3" d="M764,185H479.3c-3.9,0-7-3.2-7-7V11.1c0-3.9,3.2-7,7-7H764c3.9,0,7,3.2,7,7V178C771,181.9,767.8,185,764,185z"
		/>
	<path class="st4" d="M749.6,21.7h-31.4H524.5h-31.4c-1.6,0-2.8,1.3-2.8,2.8v140.1c0,1.6,1.3,2.8,2.8,2.8h31.4h193.7h31.4
		c1.6,0,2.8-1.3,2.8-2.8V24.5C752.4,23,751.2,21.7,749.6,21.7z"/>
	<circle class="st5" cx="621.3" cy="94.9" r="43.5"/>
	<path class="st4" d="M624.6,104l-13.5,7.6c-1.2,0.7-2.7-0.3-2.7-1.9V80c0-1.6,1.4-2.6,2.7-1.9L637.5,93c1.4,0.8,1.4,3,0,3.7
		L624.6,104z"/>
	<path class="st6" d="M490.2,177.8V11.3c0-4,3.2-7.2,7.2-7.2h-17.9c-4,0-7.2,3.2-7.2,7.2v166.5c0,4,3.2,7.2,7.2,7.2h17.9
		C493.5,185,490.2,181.8,490.2,177.8z"/>
	<path class="st7" d="M508.2,164.6V24.5c0-1.6,1.3-2.8,2.8-2.8h-17.9c-1.6,0-2.8,1.3-2.8,2.8v140.1c0,1.6,1.3,2.8,2.8,2.8H511
		C509.4,167.5,508.2,166.2,508.2,164.6z"/>
	<path class="st8" d="M595.7,94.9c0-21,14.8-38.5,34.6-42.6c-2.9-0.6-5.9-0.9-9-0.9c-24,0-43.5,19.5-43.5,43.5s19.5,43.5,43.5,43.5
		c3.1,0,6.1-0.3,9-0.9C610.6,133.3,595.7,115.8,595.7,94.9z"/>
	<path class="st7" d="M626.4,86.8l-15.3-8.6c-1.2-0.7-2.7,0.3-2.7,1.9v29.7c0,1.6,1.4,2.6,2.7,1.9l13.5-7.6l1.8-1L626.4,86.8
		L626.4,86.8z"/>
	<path class="st6" d="M502.8,221.6c0-8.3,5.4-15.4,12.8-17.9c-1.9-0.6-3.9-1-6-1c-10.4,0-18.8,8.5-18.8,18.9
		c0,10.4,8.4,18.9,18.8,18.9c2.1,0,4.1-0.4,6-1C508.2,237,502.8,229.9,502.8,221.6z"/>
	<path class="st7" d="M506.3,240.5h-12c-6,0-10.8,4.9-10.8,10.9v11.2h12v-11.2C495.4,245.4,500.3,240.5,506.3,240.5z"/>
	<path class="st9" d="M538.2,261.4H481c-4.8,0-8.8,4-8.8,8.8v1.2v25.5v1.2c0,2.6,2.1,4.7,4.7,4.7h64.7c2.9,0,5.3-2.4,5.3-5.3v-8
		v-18.1v-1.2C546.9,265.3,543,261.4,538.2,261.4z"/>
	<path class="st10" d="M484.3,298.1v-1.2v-25.5v-1.2c0-4.9,4-8.8,8.8-8.8h-12c-4.8,0-8.8,4-8.8,8.8v1.2v25.5v1.2
		c0,2.6,2.1,4.7,4.7,4.7h12C486.4,302.8,484.3,300.7,484.3,298.1z"/>
	<ellipse class="st3" cx="584.3" cy="221.6" rx="18.8" ry="18.9"/>
	<path class="st4" d="M599.6,240.5h-30.7c-6,0-10.8,4.9-10.8,10.9v11.2h52.4v-11.2C610.5,245.4,605.6,240.5,599.6,240.5z"/>
	<path class="st6" d="M577.5,221.6c0-8.3,5.4-15.4,12.8-17.9c-1.9-0.6-3.9-1-6-1c-10.4,0-18.8,8.5-18.8,18.9
		c0,10.4,8.4,18.9,18.8,18.9c2.1,0,4.1-0.4,6-1C582.9,237,577.5,229.9,577.5,221.6z"/>
	<path class="st7" d="M580.9,240.5h-12c-6,0-10.8,4.9-10.8,10.9v11.2h12v-11.2C570.1,245.4,575,240.5,580.9,240.5z"/>
	<path class="st9" d="M612.8,261.4h-57.1c-4.8,0-8.8,4-8.8,8.8v1.2v25.5v1.2c0,2.6,2.1,4.7,4.7,4.7h65c2.7,0,4.9-2.2,4.9-4.9v-5.4
		v-21.1v-1.2C621.6,265.3,617.7,261.4,612.8,261.4z"/>
	<path class="st10" d="M559,298.1v-1.2v-25.5v-1.2c0-4.9,4-8.8,8.8-8.8h-12c-4.8,0-8.8,4-8.8,8.8v1.2v25.5v1.2
		c0,2.6,2.1,4.7,4.7,4.7h12C561.1,302.8,559,300.7,559,298.1z"/>
	<ellipse class="st3" cx="659" cy="221.6" rx="18.8" ry="18.9"/>
	<path class="st4" d="M674.3,240.5h-30.7c-6,0-10.8,4.9-10.8,10.9v11.2h52.4v-11.2C685.2,245.4,680.3,240.5,674.3,240.5z"/>
	<path class="st6" d="M652.2,221.6c0-8.3,5.4-15.4,12.8-17.9c-1.9-0.6-3.9-1-6-1c-10.4,0-18.8,8.5-18.8,18.9
		c0,10.4,8.4,18.9,18.8,18.9c2.1,0,4.1-0.4,6-1C657.5,237,652.2,229.9,652.2,221.6z"/>
	<path class="st7" d="M655.6,240.5h-12c-6,0-10.8,4.9-10.8,10.9v11.2h12v-11.2C644.8,245.4,649.7,240.5,655.6,240.5z"/>
	<path class="st9" d="M687.5,261.4h-57.1c-4.8,0-8.8,4-8.8,8.8v1.2v25.5v1.2c0,2.6,2.1,4.7,4.7,4.7h65.9c2.2,0,4.1-1.8,4.1-4.1v-4.6
		v-22.8v-1.2C696.3,265.3,692.3,261.4,687.5,261.4z"/>
	<path class="st10" d="M633.6,298.1v-1.2v-25.5v-1.2c0-4.9,4-8.8,8.8-8.8h-12c-4.8,0-8.8,4-8.8,8.8v1.2v25.5v1.2
		c0,2.6,2.1,4.7,4.7,4.7h12C635.8,302.8,633.6,300.7,633.6,298.1z"/>
	<ellipse class="st3" cx="733.6" cy="221.6" rx="18.8" ry="18.9"/>
	<path class="st4" d="M749,240.5h-30.7c-6,0-10.8,4.9-10.8,10.9v11.2h52.4v-11.2C759.8,245.4,755,240.5,749,240.5z"/>
	<path class="st6" d="M726.9,221.6c0-8.3,5.4-15.4,12.8-17.9c-1.9-0.6-3.9-1-6-1c-10.4,0-18.8,8.5-18.8,18.9
		c0,10.4,8.4,18.9,18.8,18.9c2.1,0,4.1-0.4,6-1C732.2,237,726.9,229.9,726.9,221.6z"/>
	<path class="st7" d="M730.3,240.5h-12c-6,0-10.8,4.9-10.8,10.9v11.2h12v-11.2C719.5,245.4,724.3,240.5,730.3,240.5z"/>
	<path class="st9" d="M762.2,261.4h-57.1c-4.8,0-8.8,4-8.8,8.8v1.2v25.5v1.2c0,2.6,2.1,4.7,4.7,4.7h63.7c3.5,0,6.2-2.8,6.2-6.2v-7.4
		v-17.8v-1.2C771,265.3,767,261.4,762.2,261.4z"/>
	<path class="st10" d="M708.3,298.1v-1.2v-25.5v-1.2c0-4.9,4-8.8,8.8-8.8h-12c-4.8,0-8.8,4-8.8,8.8v1.2v25.5v1.2
		c0,2.6,2.1,4.7,4.7,4.7h12C710.4,302.8,708.3,300.7,708.3,298.1z"/>
</g>
</svg>
