<?xml version="1.0" encoding="utf-8"?>
<!-- Generator: Adobe Illustrator 26.0.1, SVG Export Plug-In . SVG Version: 6.00 Build 0)  -->
<svg version="1.1" id="Layer_1" xmlns="http://www.w3.org/2000/svg" xmlns:xlink="http://www.w3.org/1999/xlink" x="0px" y="0px"
	 viewBox="0 0 1000 1000" style="enable-background:new 0 0 1000 1000;" xml:space="preserve">
<style type="text/css">
	.st0{fill:#662D91;}
	.st1{fill:#54257C;}
	.st2{fill:#FFFFFF;}
	.st3{fill:#E93234;}
	.st4{fill:#F9F1EF;}
	.st5{fill:#B32425;}
	.st6{fill:#FFD039;}
	.st7{fill:#F4B008;}
	.st8{fill:#546F7A;}
	.st9{fill:#FFAE47;}
	.st10{fill:#00B76C;}
</style>
<g>
	<polygon class="st0" points="500,983.91 603.4,804.83 396.6,804.83 	"/>
	<path class="st0" d="M904.52,97.91v693.36c0,20.76-16.83,37.55-37.55,37.55H133.03c-20.76,0-37.55-16.79-37.55-37.55V97.91
		c0-20.72,16.79-37.55,37.55-37.55h733.94C887.7,60.36,904.52,77.18,904.52,97.91z"/>
	<path class="st1" d="M904.52,555.25v236.02c0,20.76-16.83,37.55-37.55,37.55H133.03c-20.76,0-37.55-16.79-37.55-37.55V308
		C260.83,556.58,540.26,815.06,904.52,555.25z"/>
	<g>
		<path class="st2" d="M167.15,228.1l6.63-3.69c-2.24-3.63-5.06-5.98-8.47-7.05v-4.53c0-4.92,1.64-9.35,4.91-13.3
			s7.93-5.92,13.97-5.92c5.98,0,10.26,2.13,12.84,6.38v-12.25h11.75v6.71h7.13v9.4h-7.13v46.9h-11.75V222.9l-29.87,17.28V228.1z
			 M176.63,212.91c2.57,1.23,4.7,3.36,6.38,6.38l13.42-7.55c-1.34-5.37-4.73-8.05-10.15-8.05c-2.8,0-5.1,0.88-6.92,2.64
			S176.63,210.29,176.63,212.91z"/>
		<path class="st2" d="M261.2,203.85h-7.13v46.9h-11.33v-0.08l-0.08,0.08l-25.34-17.54v-11.24c8.11-6.6,16.58-11.1,25.42-13.51
			v-4.61h-30.2v-9.4h48.66V203.85z M226.46,244.54c1.23,1.23,1.85,2.74,1.85,4.53c0,1.79-0.62,3.3-1.85,4.53
			c-1.23,1.23-2.74,1.85-4.53,1.85c-1.79,0-3.3-0.62-4.53-1.85c-1.23-1.23-1.85-2.74-1.85-4.53c0-1.79,0.61-3.3,1.85-4.53
			c1.23-1.23,2.74-1.85,4.53-1.85C223.72,242.7,225.23,243.31,226.46,244.54z M242.74,238.5v-18.88
			c-5.76,2.29-10.71,5.01-14.85,8.14L242.74,238.5z"/>
		<path class="st2" d="M306.5,203.85h-7.13v46.9h-11.33v-0.08l-0.08,0.08l-25.34-17.54v-11.24c8.11-6.6,16.58-11.1,25.42-13.51
			v-4.61h-30.2v-9.4h48.66V203.85z M288.04,238.5v-18.88c-5.76,2.29-10.71,5.01-14.85,8.14L288.04,238.5z"/>
		<path class="st2" d="M362.29,203.85h-59.15v-9.4h59.15V203.85z M357.93,224.74c0,7.16-2.29,12.91-6.88,17.24
			c-4.59,4.33-10.52,6.5-17.79,6.5c-7.83,0-14.19-2.42-19.09-7.26c-4.89-4.84-7.34-12.18-7.34-22.02c0-2.24,0.11-4.33,0.34-6.29
			h11.16c-0.17,1.9-0.25,3.97-0.25,6.21c0,5.87,1.31,10.56,3.94,14.05c2.63,3.5,6.38,5.24,11.24,5.24c4.14,0,7.33-1.26,9.57-3.78
			c2.24-2.52,3.36-5.82,3.36-9.9c0-2.46-0.41-4.43-1.22-5.92c-0.81-1.48-2-2.22-3.57-2.22c-1.34,0-2.39,0.5-3.15,1.51
			s-1.13,2.38-1.13,4.11c0,1.96,0.28,3.86,0.84,5.71h-10.91c-0.84-1.96-1.26-4.14-1.26-6.54c0-4.14,1.37-7.54,4.11-10.19
			c2.74-2.66,6.4-3.99,10.99-3.99c5.14,0,9.27,1.69,12.38,5.08C356.38,215.67,357.93,219.82,357.93,224.74z"/>
		<path class="st2" d="M384.95,203.85h-7.13v46.9h-11.75v-46.9h-7.05v-9.4h7.05v-2.26c0-4.81-1.79-8.66-5.37-11.54
			c-3.58-2.88-8.61-4.32-15.1-4.32c-5.59,0-8.39,1.2-8.39,3.61c0,1.4,0.84,2.35,2.52,2.85c1.68,0.5,4.17,0.75,7.47,0.75
			c2.68,0,5.34-0.2,7.97-0.59v7.3c-2.35,0.73-5.9,1.09-10.66,1.09c-12.14,0-18.21-3.8-18.21-11.41c0-3.75,1.79-6.74,5.37-8.98
			c3.58-2.24,8.22-3.36,13.93-3.36c9.45,0,17.18,2.45,23.2,7.34c6.01,4.89,9.02,10.67,9.02,17.33v2.18h7.13V203.85z"/>
		<path class="st2" d="M355.16,190.26h-11.58v-0.34l22.57-23.74h11.49v0.34L355.16,190.26z"/>
		<path class="st2" d="M450.89,250.75h-11.75v-34.31c0-4.2-0.8-7.37-2.39-9.52c-1.59-2.15-4.21-3.23-7.84-3.23
			c-5.43,0-8.59,2.38-9.48,7.13c4.47,0.22,8.1,1.53,10.87,3.9c2.77,2.38,4.18,5.8,4.24,10.28c-0.06,5.09-1.86,8.93-5.41,11.54
			c-3.55,2.6-8.32,3.9-14.3,3.9c-2.35,0-4.75-0.25-7.21-0.75v-9.65c2.01,0.22,4.42,0.33,7.21,0.33c5.31,0,7.97-1.76,7.97-5.29
			c0-3.52-2.66-5.29-7.97-5.29h-6.96v-5.71c0-5.82,1.72-10.68,5.16-14.6c3.44-3.91,8.1-5.87,13.97-5.87c5.71,0,9.76,1.82,12.17,5.45
			v-11.33h11.75v6.71h7.13v9.4h-7.13V250.75z"/>
		<path class="st2" d="M506.01,236.57c0,5.99-2.03,10.64-6.08,13.97c-4.06,3.33-9.38,4.99-15.98,4.99c-7.27,0-13.05-2.2-17.33-6.59
			c-4.28-4.39-6.42-10.47-6.42-18.25l11.07-0.08c0,10.52,4.22,15.77,12.67,15.77c3.52,0,6.22-0.89,8.1-2.69
			c1.87-1.79,2.81-4.25,2.81-7.38c0-3.75-1.46-5.62-4.36-5.62c-2.57,0-3.86,1.51-3.86,4.53c0,1.29,0.28,2.83,0.84,4.61h-9.56
			c-0.84-1.85-1.26-3.89-1.26-6.12c0-3.19,0.87-5.78,2.6-7.76c1.73-1.99,4.11-3.29,7.13-3.9c-1.73-0.45-3.96-1.4-6.67-2.85
			c-2.71-1.45-4.71-2.18-6-2.18c-2.01,0-3.02,1.23-3.02,3.69c0,0.95,0.11,1.85,0.34,2.68h-10.66c-0.45-1.51-0.67-3.24-0.67-5.2
			c0-3.08,0.94-5.68,2.81-7.8c1.87-2.12,4.63-3.19,8.26-3.19c2.63,0,5.77,0.94,9.44,2.81c3.66,1.88,6.17,2.81,7.51,2.81
			c3.02,0,4.53-1.71,4.53-5.12c0-1.51-0.11-2.8-0.34-3.86h-37.25v-9.4h56.63v9.4h-8.31c0.39,1.57,0.59,3.5,0.59,5.79
			c0,3.02-0.81,5.66-2.43,7.93c-1.62,2.27-3.89,3.76-6.79,4.49c3.69,0.73,6.56,2.36,8.6,4.91
			C504.99,229.51,506.01,232.72,506.01,236.57z"/>
		<path class="st2" d="M556.6,203.85h-7.13v46.9h-11.33v-0.08l-0.08,0.08l-25.34-17.54v-11.24c8.11-6.6,16.58-11.1,25.42-13.51
			v-4.61h-30.2v-9.4h48.66V203.85z M538.14,238.5v-18.88c-5.76,2.29-10.71,5.01-14.85,8.14L538.14,238.5z"/>
		<path class="st2" d="M580.18,203.85h-26.93v-9.4h26.93V203.85z M570.44,250.75h-12.42c3.52-5.09,5.29-9.65,5.29-13.68
			c0-2.07-0.9-5.54-2.68-10.4c-1.79-4.87-2.68-8.5-2.68-10.91c0-2.46,0.61-4.74,1.85-6.84c1.23-2.1,2.77-3.79,4.61-5.08h12.33
			c-1.96,0.95-3.64,2.43-5.03,4.45c-1.4,2.01-2.1,4.42-2.1,7.22c0,2.35,0.89,6,2.68,10.95c1.79,4.95,2.68,8.49,2.68,10.61
			C574.98,241.72,573.47,246.28,570.44,250.75z"/>
		<path class="st2" d="M185.86,304.58h-7.13v46.9h-11.75v-46.9h-7.13v-9.4h7.13v-3.52c0-5.93,1.92-10.35,5.75-13.26
			c3.83-2.91,9.07-4.36,15.73-4.36c3.97,0,8.1,0.46,12.38,1.38c4.28,0.92,7.56,1.89,9.86,2.89v8.89c-2.46-0.89-5.75-1.75-9.86-2.56
			c-4.11-0.81-7.93-1.22-11.45-1.22c-7.05,0-10.57,2.71-10.57,8.14v3.61h7.05V304.58z"/>
		<path class="st2" d="M228.9,351.48h-11.75c-0.34-2.35-0.81-4.73-1.43-7.13c-0.62-2.4-1.44-4.92-2.47-7.55
			c-1.04-2.63-2.36-4.77-3.99-6.42c-1.62-1.65-3.41-2.48-5.37-2.48c-1.9,0-3.33,0.62-4.28,1.85c-0.95,1.23-1.43,2.85-1.43,4.87
			c0,1.57,0.14,3.1,0.42,4.61H187.2c-0.5-2.07-0.75-4-0.75-5.79c0-4.42,1.37-8.17,4.11-11.24c2.74-3.08,6.54-4.61,11.41-4.61
			c6.82,0,11.88,3.33,15.19,9.98v-22.99H182.5v-9.4h52.77v9.4h-6.38V351.48z"/>
		<path class="st2" d="M285.36,304.58h-7.13v46.9h-11.75l-28.36-13.17l0.08-0.08v-10.24c3.02-1.96,6.46-3.94,10.32-5.96
			c-3.36-0.67-6.12-2.08-8.31-4.24c-2.18-2.15-3.27-4.96-3.27-8.43c0-4.47,1.54-8.1,4.61-10.87c3.08-2.77,7.27-4.15,12.58-4.15
			c1.85,0,3.47,0.11,4.87,0.34v9.4c-0.56-0.05-1.57-0.08-3.02-0.08c-2.01,0-3.66,0.53-4.95,1.59c-1.29,1.06-1.93,2.55-1.93,4.45
			c0,1.9,0.64,3.37,1.93,4.4c1.29,1.04,3.02,1.55,5.2,1.55c2.4,0,4.5-0.42,6.29-1.26c0.95-0.5,2.27-1.17,3.94-2.01v-17.54h18.88
			V304.58z M266.48,340.74v-16.95l-16.28,8.98L266.48,340.74z"/>
		<path class="st2" d="M267.65,291.49L282,277.4h11.49v0.34l-14.26,14.09h-11.58V291.49z"/>
		<path class="st2" d="M308.01,304.58h-7.13v46.9h-11.75v-41.7c0-2.18-0.29-3.59-0.88-4.24c-0.59-0.64-1.78-0.96-3.57-0.96H282v-9.4
			h4.19c1.85,0,3.24,0.95,4.2,2.85c-0.56-3.02-0.84-5.71-0.84-8.05v-1.51h11.33v6.71h7.13V304.58z"/>
		<path class="st2" d="M353.31,304.58h-7.13v46.9h-11.33v-0.08l-0.08,0.08l-25.34-17.54V322.7c8.11-6.6,16.58-11.1,25.42-13.51
			v-4.61h-30.2v-9.4h48.66V304.58z M318.58,345.27c1.23,1.23,1.85,2.74,1.85,4.53c0,1.79-0.62,3.3-1.85,4.53
			c-1.23,1.23-2.74,1.85-4.53,1.85c-1.79,0-3.3-0.62-4.53-1.85c-1.23-1.23-1.85-2.74-1.85-4.53c0-1.79,0.61-3.3,1.85-4.53
			c1.23-1.23,2.74-1.85,4.53-1.85C315.84,343.43,317.35,344.04,318.58,345.27z M334.86,339.23v-18.88
			c-5.76,2.29-10.71,5.01-14.85,8.14L334.86,339.23z"/>
		<path class="st2" d="M396.36,351.48h-11.75c-0.34-2.35-0.81-4.73-1.43-7.13c-0.62-2.4-1.44-4.92-2.47-7.55
			c-1.04-2.63-2.36-4.77-3.99-6.42c-1.62-1.65-3.41-2.48-5.37-2.48c-1.9,0-3.33,0.62-4.28,1.85c-0.95,1.23-1.43,2.85-1.43,4.87
			c0,1.57,0.14,3.1,0.42,4.61h-11.41c-0.5-2.07-0.75-4-0.75-5.79c0-4.42,1.37-8.17,4.11-11.24c2.74-3.08,6.54-4.61,11.41-4.61
			c6.82,0,11.88,3.33,15.19,9.98v-22.99h-34.65v-9.4h52.77v9.4h-6.38V351.48z"/>
		<path class="st2" d="M408.48,317.5c-2.71-2.52-4.07-5.76-4.07-9.73c0-3.97,1.36-7.2,4.07-9.69c2.71-2.49,6.22-3.73,10.53-3.73
			c4.31,0,7.8,1.25,10.49,3.73c2.69,2.49,4.03,5.72,4.03,9.69c0,3.97-1.34,7.22-4.03,9.73c-2.68,2.52-6.18,3.78-10.49,3.78
			C414.7,321.28,411.19,320.02,408.48,317.5z M408.48,348.54c-2.71-2.52-4.07-5.76-4.07-9.73c0-3.97,1.36-7.2,4.07-9.69
			c2.71-2.49,6.22-3.73,10.53-3.73c4.31,0,7.8,1.25,10.49,3.73c2.69,2.49,4.03,5.72,4.03,9.69c0,3.97-1.34,7.22-4.03,9.73
			c-2.68,2.52-6.18,3.78-10.49,3.78C414.7,352.32,411.19,351.06,408.48,348.54z M422.61,311.71c0.84-1.01,1.26-2.32,1.26-3.94
			c0-1.62-0.42-2.95-1.26-3.98c-0.84-1.04-2.04-1.55-3.61-1.55c-1.57,0-2.78,0.52-3.65,1.55c-0.87,1.04-1.3,2.36-1.3,3.98
			c0,1.62,0.43,2.94,1.3,3.94c0.87,1.01,2.08,1.51,3.65,1.51C420.57,313.22,421.78,312.72,422.61,311.71z M422.61,342.76
			c0.84-1.01,1.26-2.32,1.26-3.94c0-1.62-0.42-2.95-1.26-3.99c-0.84-1.03-2.04-1.55-3.61-1.55c-1.57,0-2.78,0.52-3.65,1.55
			c-0.87,1.04-1.3,2.36-1.3,3.99c0,1.62,0.43,2.94,1.3,3.94c0.87,1.01,2.08,1.51,3.65,1.51
			C420.57,344.27,421.78,343.76,422.61,342.76z"/>
	</g>
	<g>
		<path class="st2" d="M166.66,475.03l9.36-5.67c-1.8-3.84-5.16-6.69-10.08-8.55v-3.78c0-4.86,1.6-9.16,4.81-12.91
			c3.21-3.75,7.63-5.62,13.27-5.62c6.48,0,11.09,2.25,13.85,6.75v-13.4h7.02v7.56h10.08v6.03h-10.08v51.72h-7.02v-33.64
			l-31.21,19.16V475.03z M172.78,457.13c3.9,1.92,6.75,4.92,8.55,9l16.28-9.99c-0.54-3.48-1.88-6.25-4-8.32
			c-2.13-2.07-5.02-3.1-8.68-3.1c-3.84,0-6.82,1.16-8.95,3.46C173.84,450.48,172.78,453.47,172.78,457.13z"/>
		<path class="st2" d="M262.19,445.43h-10.17v51.72h-6.84l-28.16-21.5v-7.83c3.96-3.66,8.42-6.93,13.4-9.8
			c4.98-2.88,9.9-4.92,14.75-6.12v-6.48h-33.82v-6.03h50.83V445.43z M224.95,491.08c0.96,0.93,1.44,2.05,1.44,3.37
			s-0.46,2.43-1.39,3.33c-0.93,0.9-2.08,1.35-3.46,1.35c-1.38,0-2.5-0.45-3.37-1.35c-0.87-0.9-1.3-2.01-1.3-3.33
			s0.45-2.44,1.35-3.37c0.9-0.93,2.01-1.39,3.33-1.39C222.85,489.69,223.99,490.16,224.95,491.08z M245.19,489.06v-30.59
			c-7.62,2.46-14.99,6.87-22.13,13.22L245.19,489.06z"/>
		<path class="st2" d="M309.42,445.43h-10.17v51.72h-6.84l-28.16-21.5v-7.83c3.96-3.66,8.42-6.93,13.4-9.8
			c4.98-2.88,9.9-4.92,14.75-6.12v-6.48h-33.82v-6.03h50.83V445.43z M292.42,489.06v-30.59c-7.62,2.46-14.99,6.87-22.13,13.22
			L292.42,489.06z"/>
		<path class="st2" d="M369.69,445.43h-63.87v-6.03h63.87V445.43z M361.86,469c0,3.12-0.45,6.1-1.35,8.95
			c-0.9,2.85-2.25,5.46-4.05,7.83c-1.8,2.37-4.26,4.26-7.38,5.67c-3.12,1.41-6.69,2.11-10.71,2.11c-8.04,0-14.2-2.86-18.49-8.59
			c-4.29-5.73-6.43-12.94-6.43-21.63c0-3,0.18-5.85,0.54-8.55h6.84c-0.36,2.22-0.54,5.07-0.54,8.55c0,6.96,1.54,12.71,4.63,17.27
			c3.09,4.56,7.57,6.84,13.45,6.84c5.34,0,9.42-1.71,12.23-5.13c2.82-3.42,4.23-7.86,4.23-13.31c0-3.3-0.62-6.03-1.84-8.19
			c-1.23-2.16-3.19-3.24-5.89-3.24c-2.22,0-3.93,0.76-5.13,2.29c-1.2,1.53-1.8,3.52-1.8,5.98c0,2.1,0.33,4.41,0.99,6.93h-6.48
			c-0.9-2.28-1.35-4.68-1.35-7.2c0-4.02,1.18-7.36,3.55-10.03c2.37-2.67,5.74-4,10.12-4c4.5,0,8.1,1.71,10.79,5.13
			C360.51,460.09,361.86,464.2,361.86,469z"/>
		<path class="st2" d="M393.35,445.43h-10.17v51.72h-6.93v-51.72h-10.17v-6.03h10.17v-2.25c0-5.88-2.42-10.43-7.24-13.67
			c-4.83-3.24-10.96-4.86-18.4-4.86c-7.32,0-10.97,1.65-10.97,4.95c0,3.24,3.78,4.86,11.33,4.86c3,0,5.85-0.15,8.55-0.45v5.31
			c-2.52,0.48-5.64,0.72-9.36,0.72c-5.28,0-9.47-0.85-12.59-2.56c-3.12-1.71-4.68-4.33-4.68-7.87c0-3.42,1.62-6.07,4.86-7.96
			c3.24-1.89,7.53-2.83,12.86-2.83c9.06,0,16.75,2.31,23.07,6.93c6.33,4.62,9.49,10.47,9.49,17.54v2.16h10.17V445.43z"/>
		<path class="st2" d="M359.52,433.29h-6.84v-0.36l19.16-20.78h6.57v0.36L359.52,433.29z"/>
		<path class="st2" d="M464.86,445.43H454.7v51.72h-7.02l-30.14-14.84v-7.56c2.94-2.04,7.14-4.71,12.59-8.01
			c-3.9-0.3-7.2-1.65-9.89-4.05c-2.7-2.4-4.05-5.58-4.05-9.54c0-4.44,1.48-7.98,4.45-10.62c2.97-2.64,6.97-3.96,12.01-3.96
			c1.86,0,3.63,0.18,5.31,0.54v5.94c-1.08-0.24-2.82-0.36-5.22-0.36c-2.88,0-5.17,0.75-6.88,2.25s-2.56,3.6-2.56,6.3
			c0,2.76,0.87,4.86,2.61,6.3c1.74,1.44,4.05,2.16,6.93,2.16c3.54,0,6.72-0.78,9.54-2.34c0.72-0.42,1.68-0.97,2.88-1.67
			c1.2-0.69,2.01-1.15,2.43-1.39V439.4h17.18V445.43z M447.68,490.05v-26.54l-23.12,14.75L447.68,490.05z"/>
		<path class="st2" d="M488.52,445.43h-10.17v51.72h-6.93v-44.44c0-2.34-0.42-4.14-1.26-5.4c-0.84-1.26-2.34-1.89-4.5-1.89h-4.41
			v-6.03h4.68c2.88,0,4.98,1.29,6.3,3.87c-0.48-2.76-0.72-5.67-0.72-8.73v-2.7h6.84v7.56h10.17V445.43z"/>
		<path class="st2" d="M511.82,497.79c-0.48,0.06-1.32,0.09-2.52,0.09c-5.76,0-9.96-2.25-12.59-6.75c-2.64-4.5-4.02-10.4-4.14-17.72
			c0-13.61,2.76-22.94,8.28-27.98h-15.92v-6.03h29.42v6.03h-1.35c-2.58,0-4.78,0.81-6.61,2.43c-1.83,1.62-3.24,3.82-4.23,6.61
			c-0.99,2.79-1.7,5.74-2.11,8.86c-0.42,3.12-0.63,6.48-0.63,10.08c0,12.17,3.57,18.26,10.71,18.26h1.71V497.79z"/>
		<path class="st2" d="M517.66,475.03l9.36-5.67c-1.8-3.84-5.16-6.69-10.08-8.55v-3.78c0-4.86,1.6-9.16,4.81-12.91
			c3.21-3.75,7.63-5.62,13.27-5.62c6.48,0,11.09,2.25,13.85,6.75v-13.4h7.02v7.56h10.08v6.03h-10.08v51.72h-7.02v-33.64
			l-31.21,19.16V475.03z M523.78,457.13c3.9,1.92,6.75,4.92,8.55,9l16.28-9.99c-0.54-3.48-1.88-6.25-4-8.32
			c-2.13-2.07-5.02-3.1-8.68-3.1c-3.84,0-6.82,1.16-8.95,3.46C524.84,450.48,523.78,453.47,523.78,457.13z"/>
		<path class="st2" d="M637.3,445.43h-10.17v51.72h-7.02l-30.32-15.29v-7.83L606,462.07l-16.1-11.42v-5.22h-7.2v-6.03h54.6V445.43z
			 M611.94,458.39v7.2l-15.38,11.87l23.57,12.32v-44.35h-25.64L611.94,458.39z"/>
		<path class="st2" d="M660.87,445.43h-10.17v51.72h-6.93v-44.44c0-2.34-0.42-4.14-1.26-5.4c-0.84-1.26-2.34-1.89-4.5-1.89h-4.41
			v-6.03h4.68c2.88,0,4.98,1.29,6.3,3.87c-0.48-2.76-0.72-5.67-0.72-8.73v-2.7h6.84v7.56h10.17V445.43z"/>
		<path class="st2" d="M709.27,479.71c0,4.68-1.71,8.47-5.13,11.38c-3.42,2.91-8.07,4.36-13.94,4.36c-7.68,0-13.81-2.67-18.4-8.01
			c-4.59-5.34-6.88-12.47-6.88-21.41c0-1.62,0.15-3.42,0.45-5.4h6.66c-0.18,1.8-0.27,3.51-0.27,5.13c0,7.74,1.66,13.61,4.99,17.63
			c3.33,4.02,7.81,6.03,13.45,6.03c3.72,0,6.64-0.9,8.77-2.7c2.13-1.8,3.22-4.29,3.28-7.47c0-6.06-4.41-9.09-13.22-9.09h-2.61v-6.21
			h2.61c3.66,0,6.37-1.02,8.14-3.06c1.77-2.04,2.65-4.62,2.65-7.74c0-2.58-0.69-4.66-2.07-6.25c-1.38-1.59-3.39-2.38-6.03-2.38
			c-2.52,0-4.45,0.73-5.8,2.2c-1.35,1.47-2.02,3.46-2.02,5.98c0,1.68,0.18,3.48,0.54,5.4h-6.57c-0.54-1.74-0.81-3.66-0.81-5.76
			c0-3.96,1.27-7.26,3.82-9.9c2.55-2.64,6.13-3.96,10.75-3.96c4.68,0,8.4,1.39,11.15,4.18c2.76,2.79,4.14,6.25,4.14,10.39
			c0,3.42-0.87,6.37-2.61,8.86c-1.74,2.49-3.99,4.15-6.75,4.99c3.24,0.3,6,1.53,8.28,3.69
			C708.13,472.78,709.27,475.81,709.27,479.71z"/>
		<path class="st2" d="M766.66,445.43h-10.17v51.72h-7.02l-30.32-15.29v-7.83l16.19-11.96l-16.1-11.42v-5.22h-7.2v-6.03h54.6V445.43
			z M731.21,496.84c0.96,0.93,1.44,2.05,1.44,3.37c0,1.32-0.46,2.43-1.39,3.33s-2.08,1.35-3.46,1.35c-1.38,0-2.5-0.45-3.37-1.35
			c-0.87-0.9-1.3-2.01-1.3-3.33c0-1.32,0.45-2.44,1.35-3.37c0.9-0.93,2.01-1.39,3.33-1.39
			C729.11,495.45,730.25,495.91,731.21,496.84z M741.29,458.39v7.2l-15.38,11.87l23.57,12.32v-44.35h-25.64L741.29,458.39z"/>
		<path class="st2" d="M790.23,445.43h-10.17v51.72h-6.93v-44.44c0-2.34-0.42-4.14-1.26-5.4c-0.84-1.26-2.34-1.89-4.5-1.89h-4.41
			v-6.03h4.68c2.88,0,4.98,1.29,6.3,3.87c-0.48-2.76-0.72-5.67-0.72-8.73v-2.7h6.84v7.56h10.17V445.43z"/>
		<path class="st2" d="M232.96,605.1h-6.93v-1.44c0-8.58-3.3-12.86-9.9-12.86h-5.22c-4.2,5.22-10.2,7.83-17.99,7.83
			c-7.8,0-13.84-2.44-18.13-7.33c-4.29-4.89-6.43-11.29-6.43-19.21c0-3.12,0.21-6.3,0.63-9.54h6.84c-0.42,3.48-0.63,6.69-0.63,9.63
			c0,6.36,1.56,11.33,4.68,14.93c3.12,3.6,7.43,5.4,12.95,5.4c5.1,0,9.05-1.57,11.87-4.72c2.82-3.15,4.23-7.3,4.23-12.46
			c0-3.12-0.62-5.65-1.84-7.6c-1.23-1.95-3.1-2.92-5.62-2.92c-2.16,0-3.84,0.78-5.04,2.34c-1.2,1.56-1.8,3.57-1.8,6.03
			c0,1.74,0.3,3.93,0.9,6.57h-6.3c-0.84-2.1-1.26-4.47-1.26-7.11c0-3.9,1.2-7.18,3.6-9.85c2.4-2.67,5.67-4,9.8-4
			c4.5,0,8.05,1.59,10.66,4.77c2.61,3.18,3.91,7.11,3.91,11.78c0,3.42-0.57,6.57-1.71,9.45h2.16c4.44,0,7.65,1.44,9.63,4.32v-35.71
			h-66.3v-6.03h83.39v6.03h-10.17V605.1z"/>
		<path class="st2" d="M290.62,605.1h-6.93l-37.24-22.58v-6.48h7.65c9.18-0.18,13.76-4.83,13.76-13.94c0-3-0.71-5.35-2.11-7.06
			s-3.43-2.56-6.07-2.56c-2.34,0-4.21,0.75-5.62,2.25c-1.41,1.5-2.11,3.45-2.11,5.85c0,1.8,0.36,3.93,1.08,6.39h-6.66
			c-0.78-2.04-1.17-4.29-1.17-6.75c0-3.96,1.29-7.24,3.87-9.85c2.58-2.61,6.09-3.91,10.52-3.91c4.56,0,8.23,1.51,11.02,4.54
			c2.79,3.03,4.18,6.73,4.18,11.11c0,5.52-1.57,9.99-4.72,13.4s-7.45,5.37-12.91,5.85l26.54,16.46V539.8h6.93v7.56h10.08v6.03
			h-10.08V605.1z"/>
		<path class="st2" d="M347.92,553.38h-10.17v51.72h-6.84l-28.16-21.5v-7.83c3.96-3.66,8.42-6.93,13.4-9.8
			c4.98-2.88,9.9-4.92,14.75-6.12v-6.48H297.1v-6.03h50.83V553.38z M330.92,597.01v-30.59c-7.62,2.46-14.99,6.87-22.13,13.22
			L330.92,597.01z"/>
		<path class="st2" d="M371.58,553.38h-10.17v51.72h-6.93v-44.44c0-2.34-0.42-4.14-1.26-5.4c-0.84-1.26-2.34-1.89-4.5-1.89h-4.41
			v-6.03H349c2.88,0,4.98,1.29,6.3,3.87c-0.48-2.76-0.72-5.67-0.72-8.73v-2.7h6.84v7.56h10.17V553.38z"/>
		<path class="st2" d="M432.84,605.1h-6.93v-0.36c-1.92-18.83-7.29-28.25-16.1-28.25c-2.94,0-5.19,0.9-6.75,2.7
			c-1.56,1.8-2.34,4.26-2.34,7.38c0,1.56,0.09,2.94,0.27,4.14h-6.84c-0.3-1.92-0.45-3.42-0.45-4.5c0-4.62,1.41-8.46,4.23-11.51
			c2.82-3.06,6.6-4.59,11.33-4.59c7.79,0,13.34,4.29,16.64,12.86v-29.6h-37.6v-6.03h54.51v6.03h-9.99V605.1z"/>
		<path class="st2" d="M503.09,553.38h-63.87v-6.03h63.87V553.38z M495.27,576.95c0,3.12-0.45,6.1-1.35,8.95
			c-0.9,2.85-2.25,5.46-4.05,7.83c-1.8,2.37-4.26,4.26-7.38,5.67c-3.12,1.41-6.69,2.11-10.71,2.11c-8.04,0-14.2-2.86-18.49-8.59
			c-4.29-5.73-6.43-12.94-6.43-21.63c0-3,0.18-5.85,0.54-8.55h6.84c-0.36,2.22-0.54,5.07-0.54,8.55c0,6.96,1.54,12.71,4.63,17.27
			c3.09,4.56,7.57,6.84,13.45,6.84c5.34,0,9.42-1.71,12.23-5.13c2.82-3.42,4.23-7.86,4.23-13.31c0-3.3-0.62-6.03-1.84-8.19
			c-1.23-2.16-3.19-3.24-5.89-3.24c-2.22,0-3.93,0.76-5.13,2.29c-1.2,1.53-1.8,3.52-1.8,5.98c0,2.1,0.33,4.41,0.99,6.93h-6.48
			c-0.9-2.28-1.35-4.68-1.35-7.2c0-4.02,1.18-7.36,3.55-10.03c2.37-2.67,5.74-4,10.12-4c4.5,0,8.1,1.71,10.79,5.13
			C493.92,568.04,495.27,572.15,495.27,576.95z"/>
		<path class="st2" d="M497.24,624.98c-3.84-4.62-7.56-8.19-11.15-10.7c-0.78,3.54-2.26,6.4-4.45,8.59
			c-2.19,2.19-4.93,3.28-8.23,3.28c-3.48,0-6.37-1-8.68-3.01c-2.31-2.01-3.46-4.6-3.46-7.78c0-3.42,1.2-6.1,3.6-8.05
			c2.4-1.95,5.55-2.92,9.45-2.92c4.44,0,8.64,1.27,12.59,3.82c3.96,2.55,7.41,5.59,10.34,9.13V624.98z M473.4,620.94
			c2.28,0,4.05-0.92,5.31-2.74c1.26-1.83,2.04-4.09,2.34-6.79c-2.46-1.08-4.74-1.62-6.84-1.62c-2.04,0-3.69,0.48-4.95,1.44
			c-1.26,0.96-1.89,2.34-1.89,4.14c0,1.68,0.54,3.03,1.62,4.05C470.08,620.43,471.55,620.94,473.4,620.94z"/>
		<path class="st2" d="M544.02,605.1h-6.93v-0.36c-1.92-18.83-7.29-28.25-16.1-28.25c-2.94,0-5.19,0.9-6.75,2.7
			c-1.56,1.8-2.34,4.26-2.34,7.38c0,1.56,0.09,2.94,0.27,4.14h-6.84c-0.3-1.92-0.45-3.42-0.45-4.5c0-4.62,1.41-8.46,4.23-11.51
			c2.82-3.06,6.6-4.59,11.33-4.59c7.79,0,13.34,4.29,16.64,12.86v-29.6h-37.6v-6.03h54.51v6.03h-9.99V605.1z"/>
		<path class="st2" d="M174.49,675.72c0-5.7,2.01-10.67,6.03-14.93c4.02-4.26,8.94-6.39,14.75-6.39c9.05,0,13.58,4.92,13.58,14.75
			v43.9h-7.02v-0.81c0-2.7-1.17-4.05-3.51-4.05c-0.96,0-3.48,0.58-7.56,1.75c-4.08,1.17-7.47,1.75-10.17,1.75
			c-4.44,0-8.01-1.35-10.7-4.05c-2.7-2.7-4.05-6.48-4.05-11.33c0-1.38,0.12-2.91,0.36-4.59h6.84c-0.18,1.14-0.27,2.55-0.27,4.23
			c0,3,0.71,5.32,2.11,6.97c1.41,1.65,3.46,2.47,6.16,2.47c1.98,0,4.86-0.55,8.64-1.66c3.78-1.11,6.48-1.66,8.1-1.66
			c1.68,0,3.03,0.57,4.05,1.71v-34.63c0-3-0.53-5.17-1.57-6.52c-1.05-1.35-2.71-2.02-4.99-2.02c-3.48,0-6.64,1.51-9.49,4.54
			c-2.85,3.03-4.27,6.55-4.27,10.57c0,2.94,0.75,4.96,2.25,6.07c1.5,1.11,3.72,1.66,6.66,1.66c1.62,0,3.06-0.09,4.32-0.27v6.12
			c-2.22,0.3-3.93,0.45-5.13,0.45c-4.8,0-8.52-1.18-11.15-3.55C175.8,683.83,174.49,680.34,174.49,675.72z"/>
		<path class="st2" d="M270.29,687.5c0,7.02-2.04,12.79-6.12,17.32c-4.08,4.53-9.75,6.79-17,6.79c-7.86,0-14.03-2.7-18.53-8.1
			c-4.5-5.4-6.75-12.53-6.75-21.41c0-2.4,0.18-4.92,0.54-7.56h6.84c-0.24,2.16-0.36,4.62-0.36,7.38c0,7.14,1.57,12.85,4.72,17.14
			c3.15,4.29,7.66,6.43,13.54,6.43c5.28,0,9.34-1.68,12.19-5.04c2.85-3.36,4.27-7.83,4.27-13.4c0-0.84-0.06-1.98-0.18-3.42
			c-3.9,2.4-7.74,3.6-11.51,3.6c-3.54,0-6.39-1.08-8.55-3.24c-2.16-2.16-3.24-5.13-3.24-8.91v-13.76H214.7v-6.03h62.25v6.03h-29.78
			v13.76c0,3.96,1.8,5.94,5.4,5.94c1.68,0,3.46-0.33,5.35-0.99c1.89-0.66,3.49-1.36,4.81-2.11c1.32-0.75,3.15-1.84,5.49-3.28
			C269.6,678.3,270.29,682.59,270.29,687.5z"/>
		<path class="st2" d="M300.24,713.68c-0.48,0.06-1.32,0.09-2.52,0.09c-5.76,0-9.96-2.25-12.59-6.75c-2.64-4.5-4.02-10.4-4.14-17.72
			c0-13.61,2.76-22.94,8.28-27.98h-15.92v-6.03h29.42v6.03h-1.35c-2.58,0-4.78,0.81-6.61,2.43c-1.83,1.62-3.24,3.82-4.23,6.61
			c-0.99,2.79-1.7,5.74-2.11,8.86c-0.42,3.12-0.63,6.48-0.63,10.08c0,12.17,3.57,18.26,10.71,18.26h1.71V713.68z"/>
		<path class="st2" d="M360.69,661.33h-61.53v-6.03h61.53V661.33z M353.86,690.02c0,6.3-1.98,11.5-5.94,15.61
			c-3.96,4.11-9.48,6.16-16.55,6.16c-7.74,0-13.94-2.74-18.62-8.23s-7.02-12.43-7.02-20.83c0-1.86,0.09-3.57,0.27-5.13h6.75
			c-0.12,2.04-0.18,3.72-0.18,5.04c0,7.02,1.65,12.61,4.95,16.78c3.3,4.17,7.92,6.25,13.85,6.25c5.22,0,9.19-1.42,11.92-4.27
			c2.73-2.85,4.09-6.64,4.09-11.38v-0.45c-3.24,1.56-6.84,2.34-10.79,2.34c-4.32,0-7.77-1.14-10.35-3.42
			c-2.58-2.28-3.87-5.37-3.87-9.27c0.06-3.9,1.45-6.99,4.18-9.27c2.73-2.28,6.13-3.42,10.21-3.42c1.92,0,3.9,0.24,5.94,0.72v5.76
			c-1.8-0.24-3.51-0.36-5.13-0.36c-2.46,0-4.44,0.56-5.94,1.66c-1.5,1.11-2.25,2.74-2.25,4.9c0,2.22,0.75,3.88,2.25,4.99
			c1.5,1.11,3.51,1.66,6.03,1.66c4.62,0,9.47-1.59,14.57-4.77C353.32,684,353.86,686.97,353.86,690.02z"/>
		<path class="st2" d="M424.92,695.15c0,3.66-1.29,6.69-3.87,9.09c-2.58,2.4-5.97,3.6-10.17,3.6c-4.92,0-8.79-1.77-11.6-5.31v10.52
			h-7.02l-26.54-12.77v-7.65c3.12-3.06,6.99-5.92,11.6-8.59c4.62-2.67,9.27-4.66,13.94-5.98c-0.9-3.6-2.35-6.49-4.36-8.68
			c-2.01-2.19-4.54-3.28-7.6-3.28c-2.76,0-4.8,0.87-6.12,2.61c-1.32,1.74-1.98,3.99-1.98,6.75c0,1.38,0.09,2.61,0.27,3.69h-6.84
			c-0.24-1.38-0.36-2.73-0.36-4.05c0-4.44,1.27-8.11,3.82-11.02c2.55-2.91,6.1-4.36,10.66-4.36c6.24,0,10.73,2.85,13.49,8.55V655.3
			h7.02v9.81c2.82-3.6,6.63-5.4,11.42-5.4c4.26,0,7.69,1.21,10.3,3.64c2.61,2.43,3.91,5.44,3.91,9.04c0,2.94-0.84,5.4-2.52,7.38
			c-1.68,1.98-3.69,3.33-6.03,4.05c2.34,0.72,4.35,2.05,6.03,4C424.08,689.77,424.92,692.21,424.92,695.15z M392.27,686.87
			c0-1.14-0.03-2.01-0.09-2.61c-3.42,1.08-6.94,2.65-10.57,4.72c-3.63,2.07-6.85,4.39-9.67,6.97l20.33,9.99V686.87z M410.44,701.81
			c2.34,0,4.21-0.69,5.62-2.07c1.41-1.38,2.11-3.15,2.11-5.31c0-2.34-0.8-4.17-2.38-5.49c-1.59-1.32-3.94-1.98-7.06-1.98h-3.06v-6.3
			h3.06c3.18,0,5.55-0.69,7.11-2.07c1.56-1.38,2.34-3.24,2.34-5.58c0-2.22-0.75-3.97-2.25-5.26c-1.5-1.29-3.45-1.93-5.85-1.93
			c-3.24,0-5.85,1.12-7.83,3.37c-1.98,2.25-2.97,5.17-2.97,8.77v11.69c0,3.66,1.03,6.6,3.1,8.82
			C404.46,700.7,407.14,701.81,410.44,701.81z"/>
		<path class="st2" d="M456.14,661.33h-10.17v51.72h-6.93v-44.44c0-2.34-0.42-4.14-1.26-5.4c-0.84-1.26-2.34-1.89-4.5-1.89h-4.41
			v-6.03h4.68c2.88,0,4.98,1.29,6.3,3.87c-0.48-2.76-0.72-5.67-0.72-8.73v-2.7h6.84v7.56h10.17V661.33z"/>
		<path class="st2" d="M503.36,661.33H493.2v51.72h-6.84l-28.16-21.5v-7.83c3.96-3.66,8.42-6.93,13.4-9.8
			c4.98-2.88,9.9-4.92,14.75-6.12v-6.48h-33.82v-6.03h50.83V661.33z M466.12,706.98c0.96,0.93,1.44,2.05,1.44,3.37
			s-0.46,2.43-1.39,3.33c-0.93,0.9-2.08,1.35-3.46,1.35c-1.38,0-2.5-0.45-3.37-1.35c-0.87-0.9-1.3-2.01-1.3-3.33
			s0.45-2.44,1.35-3.37c0.9-0.93,2.01-1.39,3.33-1.39C464.02,705.59,465.16,706.05,466.12,706.98z M486.36,704.96v-30.59
			c-7.62,2.46-14.99,6.87-22.13,13.22L486.36,704.96z"/>
		<path class="st2" d="M587.83,697.76c0,5.28-2.49,9.42-7.47,12.41c-4.98,3-11.67,4.5-20.06,4.5c-10.43,0-18.62-2.17-24.56-6.52
			c-5.94-4.35-9.15-10.09-9.63-17.23h7.29c0.24,5.58,2.76,9.93,7.56,13.04c4.8,3.12,11.27,4.68,19.43,4.68
			c13.49,0,20.27-3.72,20.33-11.15c0.06-2.94-1-5.13-3.19-6.57c-2.19-1.44-5.23-2.16-9.13-2.16h-2.61v-6.21h2.61
			c3.48,0,6.19-0.97,8.14-2.92c1.95-1.95,2.92-4.57,2.92-7.87c0-4.8-1.86-8.13-5.58-9.99l-5.49,12.23h-6.3v-2.61
			c0-7.32-2.91-10.97-8.73-10.97c-2.46,0-4.45,0.91-5.98,2.74c-1.53,1.83-2.29,4.3-2.29,7.42c0,3.36,0.84,5.88,2.52,7.56
			c1.68,1.68,3.99,2.52,6.93,2.52c1.2,0,2.43-0.09,3.69-0.27v5.94c-1.38,0.24-2.82,0.36-4.32,0.36c-5.34,0-9.33-1.92-11.96-5.76
			c-2.34,3.84-6.09,5.76-11.25,5.76c-1.86,0-3.42-0.15-4.68-0.45v-5.94c1.2,0.24,2.55,0.36,4.05,0.36c2.94,0,5.07-0.81,6.39-2.43
			c1.32-1.62,1.98-4.17,1.98-7.65c0-3.12-0.76-5.43-2.29-6.93s-3.88-2.25-7.06-2.25l-9-0.09v-6.03h9.36c5.58,0,9.68,1.95,12.32,5.85
			c2.64-4.2,6.45-6.36,11.42-6.48c6.96,0,11.27,3.36,12.95,10.08l4.5-10.34c4.62,0.48,8.39,2.32,11.33,5.53
			c2.94,3.21,4.41,7.12,4.41,11.74c0,7.26-3.15,11.87-9.45,13.85c3.24,0.48,5.86,1.74,7.87,3.78
			C586.82,691.34,587.83,694.16,587.83,697.76z"/>
		<path class="st2" d="M641.89,661.33h-10.17v51.72h-6.84l-28.16-21.5v-7.83c3.96-3.66,8.42-6.93,13.4-9.8
			c4.98-2.88,9.9-4.92,14.75-6.12v-6.48h-33.82v-6.03h50.83V661.33z M604.65,706.98c0.96,0.93,1.44,2.05,1.44,3.37
			s-0.46,2.43-1.39,3.33c-0.93,0.9-2.08,1.35-3.46,1.35c-1.38,0-2.5-0.45-3.37-1.35c-0.87-0.9-1.3-2.01-1.3-3.33
			s0.45-2.44,1.35-3.37c0.9-0.93,2.01-1.39,3.33-1.39C602.55,705.59,603.69,706.05,604.65,706.98z M624.89,704.96v-30.59
			c-7.62,2.46-14.99,6.87-22.13,13.22L624.89,704.96z"/>
		<path class="st2" d="M641.98,673.11c4.2,0,7.48,1.17,9.85,3.51c2.37,2.34,3.55,5.61,3.55,9.81c0,3.84-1.25,7.08-3.73,9.71
			c-2.49,2.64-5.95,3.96-10.39,3.96c-2.82,0-5.38-0.76-7.69-2.29s-3.85-3.7-4.63-6.52l2.79-5.76c0,2.52,0.87,4.59,2.61,6.21
			s3.93,2.43,6.57,2.43c2.52,0,4.45-0.72,5.8-2.16c1.35-1.44,2.02-3.33,2.02-5.67c0-2.4-0.65-4.21-1.93-5.44
			c-1.29-1.23-3.07-1.84-5.35-1.84c-1.32,0-2.28,0.06-2.88,0.18v-5.94C639.88,673.17,641.02,673.11,641.98,673.11z M662.22,661.33
			h-23.93v-6.03h23.93V661.33z"/>
		<path class="st2" d="M743.99,688.04c0,5.28-1.44,9.36-4.32,12.23c-2.88,2.88-6.54,4.32-10.98,4.32c-0.78,0-1.35-0.03-1.71-0.09
			v-6.48h1.08c6.06,0,9.08-3.33,9.08-9.99c0-4.32-1.65-7.78-4.95-10.39c-3.3-2.61-7.5-3.91-12.59-3.91v39.31h-6.84l-28.16-21.5
			v-7.83c10.01-9.17,19.4-14.54,28.16-16.1v-6.3h-33.82v-6.03h70.62v6.03h-29.96v6.21c7.02,0.06,12.83,1.99,17.45,5.8
			C741.68,677.15,743.99,682.05,743.99,688.04z M712.78,705.05V674.1c-6.78,1.68-14.18,6.21-22.22,13.58L712.78,705.05z"/>
		<path class="st2" d="M796.8,661.33h-10.17v51.72h-6.84l-28.16-21.5v-7.83c3.96-3.66,8.42-6.93,13.4-9.8
			c4.98-2.88,9.9-4.92,14.75-6.12v-6.48h-33.82v-6.03h50.83V661.33z M759.55,706.98c0.96,0.93,1.44,2.05,1.44,3.37
			s-0.46,2.43-1.39,3.33c-0.93,0.9-2.08,1.35-3.46,1.35c-1.38,0-2.5-0.45-3.37-1.35c-0.87-0.9-1.3-2.01-1.3-3.33
			s0.45-2.44,1.35-3.37c0.9-0.93,2.01-1.39,3.33-1.39C757.45,705.59,758.59,706.05,759.55,706.98z M779.79,704.96v-30.59
			c-7.62,2.46-14.99,6.87-22.13,13.22L779.79,704.96z"/>
		<path class="st2" d="M820.45,661.33h-10.17v51.72h-6.93v-44.44c0-2.34-0.42-4.14-1.26-5.4c-0.84-1.26-2.34-1.89-4.5-1.89h-4.41
			v-6.03h4.68c2.88,0,4.98,1.29,6.3,3.87c-0.48-2.76-0.72-5.67-0.72-8.73v-2.7h6.84v7.56h10.17V661.33z"/>
	</g>
	<g>
		<path class="st3" d="M816.84,72.71c-0.56-0.91-1.5-1.51-2.57-1.63c-1.06-0.12-2.12,0.24-2.87,1l-11.05,11.05l-19.41-4.19
			c-1.16-0.25-2.37,0.11-3.2,0.94l-48.5,48.5c-0.35,0.35-0.82,0.55-1.32,0.55c-0.5,0-0.97-0.19-1.32-0.55l-0.71-0.71
			c-0.35-0.35-0.55-0.82-0.55-1.32c0-0.5,0.19-0.97,0.55-1.32l48.5-48.5c0.84-0.84,1.19-2.05,0.94-3.2l-4.19-19.41l11.2-11.2
			c0.75-0.75,1.12-1.8,1-2.86c-0.12-1.06-0.71-2-1.61-2.56c-17.43-10.96-37.58-16.75-58.26-16.75c-29.29,0-56.82,11.4-77.53,32.11
			c-20.71,20.71-32.11,48.24-32.11,77.53s11.4,56.82,32.11,77.53c20.71,20.71,48.24,32.11,77.53,32.11c11.23,0,22.31-1.7,32.94-5.04
			c1.11-0.35,1.97-1.23,2.3-2.34c0.33-1.11,0.08-2.32-0.66-3.21c-7.24-8.75-11.23-19.83-11.23-31.21
			c0-27.01,21.97-48.98,48.98-48.98c10.4,0,20.33,3.22,28.73,9.31c0.94,0.68,2.16,0.85,3.25,0.45c1.09-0.4,1.91-1.32,2.19-2.45
			c2.09-8.54,3.15-17.34,3.15-26.17C833.1,109.84,827.48,89.96,816.84,72.71z"/>
		<path class="st4" d="M791.99,82.28c-0.5-0.72-1.26-1.22-2.12-1.41l-8.93-1.93c-1.16-0.25-2.37,0.11-3.2,0.94l-48.5,48.5
			c-0.35,0.35-0.82,0.55-1.32,0.55c-0.5,0-0.97-0.19-1.32-0.55l-0.71-0.71c-0.35-0.35-0.55-0.82-0.55-1.32
			c0-0.5,0.19-0.97,0.55-1.32l48.5-48.5c0.84-0.84,1.19-2.05,0.94-3.2l-1.97-9.13c-0.18-0.85-0.68-1.6-1.38-2.1
			c-14.22-10.15-31-15.51-48.51-15.51c-46.11,0-83.61,37.51-83.61,83.61c0,46.11,37.51,83.61,83.61,83.61
			c7.32,0,14.59-0.95,21.63-2.83c1.76-0.47,2.86-2.21,2.53-4c-0.54-2.94-0.82-5.95-0.82-8.95c0-27.01,21.97-48.98,48.98-48.98
			c1.93,0,3.9,0.12,5.85,0.35c1.81,0.21,3.48-1,3.83-2.78c1.07-5.39,1.62-10.91,1.62-16.42C807.08,112.94,801.86,96.37,791.99,82.28
			z"/>
		<path class="st3" d="M768.9,94.21c-0.62-0.78-1.54-1.26-2.53-1.32c-0.99-0.06-1.96,0.31-2.67,1.02l-34.47,34.47
			c-0.35,0.35-0.82,0.55-1.32,0.55c-0.5,0-0.97-0.19-1.32-0.55l-0.71-0.71c-0.35-0.35-0.55-0.82-0.55-1.32
			c0-0.5,0.19-0.97,0.55-1.32l34.54-34.54c0.7-0.7,1.07-1.66,1.02-2.64c-0.05-0.98-0.51-1.9-1.27-2.53
			c-10.32-8.45-23.35-13.1-36.7-13.1c-31.96,0-57.96,26-57.96,57.96s26,57.96,57.96,57.96c8.64,0,16.96-1.86,24.72-5.53
			c0.82-0.39,1.45-1.08,1.77-1.92c4.55-12.04,13.89-21.99,25.62-27.31c0.82-0.37,1.47-1.05,1.8-1.89
			c2.68-6.79,4.04-13.96,4.04-21.31C781.42,116.99,777.09,104.55,768.9,94.21z"/>
		<path class="st4" d="M749.74,113.94c-0.56-0.91-1.51-1.51-2.57-1.63c-1.06-0.12-2.12,0.25-2.87,1l-15.08,15.08
			c-0.35,0.35-0.82,0.55-1.32,0.55c-0.5,0-0.97-0.19-1.32-0.55l-0.71-0.71c-0.35-0.35-0.55-0.82-0.55-1.32
			c0-0.5,0.19-0.97,0.55-1.32l15.21-15.21c0.74-0.74,1.11-1.77,1-2.81c-0.1-1.04-0.67-1.98-1.54-2.56
			c-5.08-3.38-10.99-5.16-17.1-5.16c-17.04,0-30.91,13.86-30.91,30.91s13.86,30.91,30.91,30.91s30.91-13.86,30.91-30.91
			C754.37,124.44,752.77,118.82,749.74,113.94z"/>
		<g>
			<path class="st5" d="M758.02,229.22c-12.49,5.95-26.29,9.61-40.84,10.43c2.08,0.12,4.18,0.18,6.28,0.18
				c11.23,0,22.31-1.7,32.94-5.04c1.11-0.35,1.97-1.23,2.3-2.34c0.33-1.11,0.08-2.32-0.66-3.21
				C758.03,229.23,758.03,229.23,758.02,229.22z"/>
			<path class="st5" d="M780,45.06l2.34-2.34c0.75-0.75,1.12-1.8,1-2.86c-0.12-1.06-0.71-2-1.61-2.56
				c-17.43-10.96-37.58-16.75-58.26-16.75c-2.1,0-4.2,0.07-6.28,0.18C740.93,22.08,762.66,30.97,780,45.06z"/>
			<path class="st5" d="M816.84,72.71c-0.56-0.91-1.5-1.51-2.57-1.63c-1.06-0.12-2.12,0.24-2.87,1l-4.72,4.72
				c8.83,15.8,13.87,34.01,13.87,53.4c0,8.29-0.93,16.35-2.67,24.11c2.29,1.16,4.51,2.52,6.63,4.05c0.94,0.68,2.16,0.85,3.25,0.45
				c1.09-0.4,1.91-1.32,2.19-2.45c2.09-8.54,3.15-17.34,3.15-26.17C833.1,109.84,827.48,89.96,816.84,72.71z"/>
		</g>
		<g>
			<path class="st6" d="M808.55,40.11l-4.59-21.27c-0.27-1.25-1.2-2.25-2.43-2.61c-1.22-0.36-2.55-0.02-3.45,0.88l-33.22,33.22
				c-0.84,0.84-1.19,2.05-0.94,3.2l4.59,21.27c0.27,1.25,1.2,2.25,2.43,2.61c0.32,0.1,0.66,0.14,0.99,0.14
				c0.91,0,1.8-0.36,2.47-1.02l33.22-33.22C808.45,42.47,808.8,41.27,808.55,40.11z"/>
			<path class="st6" d="M838.04,52.73c-0.36-1.23-1.36-2.16-2.61-2.43l-21.27-4.59c-1.16-0.25-2.37,0.11-3.2,0.94l-33.22,33.22
				c-0.9,0.9-1.24,2.23-0.88,3.45c0.36,1.23,1.36,2.16,2.61,2.43l21.27,4.59c0.24,0.05,0.49,0.08,0.74,0.08
				c0.92,0,1.81-0.36,2.47-1.02l33.22-33.22C838.06,55.28,838.4,53.96,838.04,52.73z"/>
		</g>
		<path class="st7" d="M789.52,87.93l11.21,2.42c0.24,0.05,0.49,0.08,0.74,0.08c0.92,0,1.81-0.36,2.47-1.02l33.22-33.22
			c0.9-0.9,1.24-2.23,0.88-3.45c-0.36-1.23-1.36-2.16-2.61-2.43l-6.81-1.47L789.52,87.93z"/>
		<path class="st8" d="M815.87,46.68l-8.28-8.28c-0.65-0.65-1.54-1.02-2.47-1.02c-0.93,0-1.81,0.37-2.47,1.02l-81.7,81.7
			c-1.67,1.67-2.59,3.89-2.59,6.26s0.92,4.58,2.59,6.26l0.71,0.71c1.67,1.67,3.89,2.59,6.26,2.59c2.36,0,4.58-0.92,6.26-2.59
			l81.71-81.71C817.23,50.25,817.23,48.04,815.87,46.68z"/>
		<path class="st6" d="M795.78,142.07c-30.85,0-55.96,25.1-55.96,55.96s25.1,55.96,55.96,55.96s55.96-25.1,55.96-55.96
			C851.74,167.17,826.63,142.07,795.78,142.07z"/>
		<path class="st9" d="M795.78,142.07c-2.43,0-4.83,0.16-7.18,0.46c27.48,3.53,48.78,27.07,48.78,55.5
			c0,28.42-21.3,51.96-48.78,55.5c2.35,0.3,4.75,0.46,7.18,0.46c30.85,0,55.96-25.1,55.96-55.96
			C851.74,167.17,826.63,142.07,795.78,142.07z"/>
		<path class="st10" d="M787.48,223.25c-1.94,0-3.79-0.77-5.16-2.14l-16.61-16.61c-2.85-2.85-2.85-7.48,0-10.33
			c2.85-2.85,7.47-2.85,10.33,0l11.45,11.45l28.05-28.05c2.85-2.85,7.47-2.85,10.33,0c2.85,2.85,2.85,7.48,0,10.33l-33.22,33.22
			C791.27,222.48,789.41,223.25,787.48,223.25z"/>
	</g>
</g>
</svg>
