<?xml version="1.0" encoding="utf-8"?>
<!-- Generator: Adobe Illustrator 26.0.1, SVG Export Plug-In . SVG Version: 6.00 Build 0)  -->
<svg version="1.1" id="Layer_1" xmlns="http://www.w3.org/2000/svg" xmlns:xlink="http://www.w3.org/1999/xlink" x="0px" y="0px"
	 viewBox="0 0 2000 983" style="enable-background:new 0 0 2000 983;" xml:space="preserve">
<style type="text/css">
	.st0{fill:#3A5DC4;}
	.st1{fill:#51B59F;}
	.st2{fill:#EF3220;}
	.st3{fill:#FF9039;}
	.st4{fill:#FC7186;}
	.st5{fill:#662D91;}
	.st6{fill:none;}
	.st7{fill:#9DAEE2;}
	.st8{fill:#F79990;}
	.st9{fill:#2B3990;}
	.st10{fill:#FEB8C3;}
	.st11{fill:#B396C8;}
	.st12{fill:#FFC89C;}
	.st13{fill:#A8DACF;}
	.st14{fill:#FFFFFF;}
	.st15{font-family:'Poppins-Bold';}
	.st16{font-size:22.1782px;}
</style>
<g>
	<rect x="38.6" y="82.08" class="st0" width="55.47" height="50.59"/>
	<rect x="829.87" y="885.68" class="st1" width="50.59" height="50.59"/>
	
		<rect x="472.33" y="492.87" transform="matrix(0.8475 0.5308 -0.5308 0.8475 351.2911 -186.4094)" class="st2" width="55.47" height="50.59"/>
	
		<rect x="1055.5" y="647.15" transform="matrix(0.999 0.0454 -0.0454 0.999 31.9123 -48.4458)" class="st3" width="55.47" height="63.34"/>
	
		<rect x="1184.59" y="262.13" transform="matrix(0.9184 -0.3955 0.3955 0.9184 -15.5166 503.12)" class="st4" width="55.47" height="54.12"/>
	<rect x="1810.56" y="271.7" class="st5" width="55.47" height="54.12"/>
	<path class="st6" d="M1160.82,364.09l2.99,2.8c-0.83-1.05-1.71-2.14-2.63-3.3C1161.07,363.76,1160.95,363.92,1160.82,364.09z"/>
	<path class="st6" d="M1013.62,799.27c10.39,8.67,20.78,17.35,31.96,26.69c9.87-15.01,19.17-29.15,28.71-43.67
		c-13.08-6.84-25.29-13.23-37.35-19.53C1029.04,775.14,1021.46,787,1013.62,799.27z"/>
	<path class="st6" d="M588.82,684.82c-14.66,0-28.73,0-44.13,0c1.7,13.61,3.29,26.36,4.96,39.72c14.89-3.39,29.16-6.64,43.61-9.93
		C591.69,704.06,590.25,694.42,588.82,684.82z"/>
	<path class="st6" d="M600.81,738.89c-5.72-16.66-3.38-13.6-18.17-10.28c-4.59,1.03-9.21,1.98-13.78,3.09
		c-5.78,1.4-11.53,2.93-18.02,4.59c5.98,14.77,11.57,28.58,17.28,42.67c13.69-7.14,26.31-13.73,38.87-20.28
		C604.81,751.67,602.99,745.22,600.81,738.89z"/>
	<path class="st6" d="M612.5,768.84c-12.46,6.84-25.12,13.79-38.94,21.38c8.98,13.35,17.41,25.89,26.09,38.78
		c11.65-10.35,22.22-19.73,32.99-29.29C625.88,789.34,619.41,779.43,612.5,768.84z"/>
	<path class="st6" d="M569.52,571.75c-14.1,7.36-26.77,13.97-39.51,20.63c3.76,11.46,7.16,21.84,10.79,32.9
		c13.99-2.66,28.19-5.36,44.34-8.44C579.85,601.58,574.74,586.82,569.52,571.75z"/>
	<path class="st6" d="M639.62,808.99c-10.22,9.23-20.69,18.68-31.61,28.54c10.17,10.87,19.8,21.15,30.23,32.29
		c9.49-13.42,17.71-25.05,25.88-36.6C655.93,825.12,648,817.28,639.62,808.99z"/>
	<path class="st6" d="M496.41,488.11c-8.36,14.08-15.76,26.53-23.12,38.93c8.66,6.99,16.97,13.7,22.33,18.02
		c11.32-9.63,22.37-19.01,34.56-29.38C518.47,506.12,507.97,497.54,496.41,488.11z"/>
	<path class="st6" d="M444.21,462.93c-4.36,15.5-8.32,29.61-12.21,43.42c11.04,5.03,21.14,9.63,31.54,14.37
		c7.43-12.58,14.98-25.36,23.08-39.07C472.28,475.32,458.65,469.3,444.21,462.93z"/>
	<path class="st6" d="M538.15,524.17c-10.95,12.22-20.64,23.03-30.33,33.85c4.56,6.8,10.28,15.3,16.11,23.99
		c12.88-7.11,25.61-14.13,39.44-21.76C554.95,548.21,546.95,536.76,538.15,524.17z"/>
	<path class="st6" d="M930.03,865.99c5.97,13.61,11.76,26.82,17.98,41.02c14.79-9.4,28.18-17.91,42.1-26.76
		c-8.31-12.85-15.85-24.52-23.12-35.78C954.59,851.7,942.47,858.75,930.03,865.99z"/>
	<path class="st6" d="M881.56,882.56c2.99,14.61,5.93,28.96,9.13,44.55c15.56-5,30.58-9.82,46.42-14.91
		c-5.95-14.37-11.48-27.72-17.03-41.12C906.92,875.01,894.5,878.71,881.56,882.56z"/>
	<path class="st6" d="M673.39,840.02c-8.3,12.38-16.25,24.23-24.47,36.48c12.07,7.51,23.59,14.68,35.28,21.95
		c6.88-13.58,13.24-26.13,20-39.47C693.95,852.67,684.07,846.59,673.39,840.02z"/>
	<path class="st6" d="M1000.4,873.31c12.8-13.11,24.63-25.22,36.7-37.59c-1.52-1.41-3.01-2.78-4.47-4.14l-26.44-23.45
		c-9.7,10.16-19.12,20.04-29.24,30.63C983.58,848.51,991.08,859.56,1000.4,873.31z"/>
	<path class="st6" d="M1006.72,807.59c-0.17,0.18-0.35,0.36-0.52,0.54l26.44,23.45C1023.2,822.85,1014.86,815.12,1006.72,807.59z"/>
	<path class="st6" d="M799.28,934.95c8.75,0.69,16.01,1.25,23.36,1.83c0-16.1,0-31.42,0-47.2c-6.47,0-12.25,0-19.19,0
		C802.06,904.73,800.68,919.76,799.28,934.95z"/>
	<path class="st6" d="M719.6,865.93c-4.18-1.86-6.22-1.35-8.12,3.14c-4.82,11.36-10.22,22.46-16.07,35.17
		c12.82,5.49,25.27,10.82,38.56,16.52c4.29-15.64,8.22-29.97,12.07-44.04C736.6,872.9,727.99,869.66,719.6,865.93z"/>
	<path class="st6" d="M745.03,924.35c14,3.02,27.23,5.88,41.14,8.89c1.7-15.77,3.3-30.62,4.93-45.65
		c-11.47-2.65-22.3-5.15-33.73-7.8C753.26,894.61,749.33,908.79,745.03,924.35z"/>
	<path class="st6" d="M588.96,672.97c-0.65-14.48-1.29-28.42-1.94-42.88c-15.36,2.26-29.27,4.3-43.57,6.4
		c0.67,12.39,1.33,24.53,1.98,36.48C559.78,672.97,573.65,672.97,588.96,672.97z"/>
	<path class="st6" d="M88.12,141.68c-15.27,0-30.14,0-45.19,0c0,13.93,0,27.43,0,41.21c15.21,0,29.9,0,45.19,0
		C88.12,168.71,88.12,155.34,88.12,141.68z"/>
	<path class="st6" d="M90.53,242.79c-15.69,1.56-30.91,3.08-46.78,4.66c2.95,15.21,5.7,29.4,8.53,44.02
		c15.76-4.5,30.72-8.78,45.93-13.13C95.64,266.41,93.19,255.09,90.53,242.79z"/>
	<path class="st6" d="M88.07,194.64c-15.12,0-29.87,0-45.12,0c0,13.73,0,26.84,0,40.26c15.92-1.55,31.26-3.03,46.77-4.54
		C89.15,218.14,88.62,206.55,88.07,194.64z"/>
	<path class="st6" d="M88.17,34.65c-15.36,0-30.28,0-45.5,0c0,13.61,0,26.78,0,40.59c15.63,0,30.5,0,45.5,0
		C88.17,61.46,88.17,48.14,88.17,34.65z"/>
	<path class="st6" d="M88.07,87.54c-15.37,0-30.09,0-45.15,0c0,14.17,0,27.9,0,41.89c15.22,0,29.94,0,45.15,0
		C88.07,114.95,88.07,101.23,88.07,87.54z"/>
	<path class="st6" d="M88.22,22.13c0-0.1,0-0.2,0-0.3l-35.98,0.3C64.4,22.13,76.2,22.13,88.22,22.13z"/>
	<path class="st6" d="M217.17,482.94c15.91,4.45,30.68,8.58,46.24,12.94c2.7-15.97,5.18-30.65,7.68-45.48
		c-12.47-3.74-24.18-7.24-36.32-10.88C229.11,453.5,223.49,467.36,217.17,482.94z"/>
	<path class="st6" d="M274.68,497.86c15.15,1.19,29.55,2.33,44.61,3.51c0-17.1,0-32.23,0-47.55c-12.67-0.68-24.82-1.33-37.08-1.99
		C279.65,467.45,277.25,482.15,274.68,497.86z"/>
	<path class="st6" d="M101.54,289.46c-15.15,4.9-29.84,9.66-46.08,14.91c6.95,16.16,13.44,31.24,19.97,46.44
		c14.76-8.08,28.24-15.47,41.92-22.96C111.91,314.62,106.73,302.05,101.54,289.46z"/>
	<path class="st6" d="M382.93,453.59c0,15.39,0,30.16,0,45.7c12.83,1.29,25.24,2.54,37.81,3.8c4.06-14.68,8.02-29,12.1-43.72
		C415.77,457.43,399.9,451.88,382.93,453.59z"/>
	<path class="st6" d="M331.53,500.01c13.37,0,26.07,0,39.24,0c0-15.97,0-31.39,0-46.73c-13.48,0-26.41,0-39.24,0
		C331.53,469.53,331.53,484.86,331.53,500.01z"/>
	<path class="st6" d="M190.73,416.93c-8.94,12.43-17.56,24.41-27.18,37.79c14.41,7.75,28.43,15.3,42.71,22.98
		c6.53-15.28,12.47-29.18,18.12-42.42C212.51,428.81,201.41,422.75,190.73,416.93z"/>
	<path class="st6" d="M122.65,338.46c-13.69,7.68-27.28,15.31-41.52,23.3c9.42,13.96,18.39,27.25,27.75,41.13
		c12.56-10.59,24.27-20.47,35.73-30.12C136.98,360.85,129.88,349.75,122.65,338.46z"/>
	<path class="st6" d="M152.66,380.93c-11.94,10.85-22.87,20.77-35.02,31.8c12.78,11.65,24.9,22.71,37.76,34.45
		c9.26-13.31,17.77-25.54,23.55-33.84C169.66,401.89,161.44,391.76,152.66,380.93z"/>
	<path class="st6" d="M835.96,889.65c0,15.55,0,30.48,0,46.89c14.95-2.55,28.7-4.89,43.28-7.37c-3.04-15.41-5.83-29.56-8.64-43.76
		C858.32,886.91,846.84,888.32,835.96,889.65z"/>
	<path class="st6" d="M1586.46,557.42c-2.45-12.62-4.71-24.32-6.97-35.98l5.77,36.04C1585.65,557.47,1586.05,557.44,1586.46,557.42z
		"/>
	<path class="st6" d="M1547.5,518.12c0,14.34,0,27.48,0,41.44c12.76-0.7,25.05-1.38,37.75-2.08l-5.77-36.04
		c-0.34-1.78-0.69-3.56-1.03-5.34C1567.87,516.8,1557.86,517.45,1547.5,518.12z"/>
	<path class="st6" d="M1644,424.75c14.43,0.98,27.28,1.84,39.98,2.7c2.14-10.53,4.11-20.3,6.16-30.38
		c-12.85-4.38-25.72-8.78-40.12-13.69C1647.95,397.65,1646.01,410.98,1644,424.75z"/>
	<path class="st6" d="M1621.74,494.92c8.17,9.07,16.53,18.35,26.05,28.9c8.36-11.74,16.21-22.78,24.33-34.19
		c-12.88-5.45-24.72-10.45-35.92-15.19C1631.21,481.52,1626.59,488.06,1621.74,494.92z"/>
	<path class="st6" d="M1644,441.3c-1.54,7.18-2.52,14.49-3.83,22.52c11.85,4.53,23.67,9.05,36.85,14.09
		c2.59-13.4,5.01-25.93,7.62-39.43c-13.09-0.68-24.87-1.44-36.67-1.68C1646.63,436.76,1644.38,439.52,1644,441.3z"/>
	<path class="st6" d="M1590.19,513.75c2.69,12.78,5.44,25.89,8.66,41.18c13.98-7.51,26.84-14.43,40.41-21.73
		c-9.47-11.45-17.73-21.42-25.64-30.98C1605.62,506.16,1598.23,509.8,1590.19,513.75z"/>
	<path class="st6" d="M1502.47,520.2c-2.21,11.8-4.04,23.68-6.23,37.07c12.91,0.79,25.41,1.55,38.01,2.32c0-14.53,0-27.44,0-40.64
		c-9.49-0.65-18.6-1.42-27.72-1.76C1505.17,517.14,1502.71,518.93,1502.47,520.2z"/>
	<path class="st6" d="M1447.74,537.58c12,5.56,23.2,10.74,35.39,16.39c3.36-14.78,6.22-27.33,8.98-39.45
		c-8.06-3.44-14.99-6.39-22.25-9.49C1462.85,515.34,1455.74,525.8,1447.74,537.58z"/>
	<path class="st6" d="M1042.99,751.5c11.79,5.99,23.69,12.02,36.59,18.57c5.76-16.03,11.26-31.34,17.21-47.88
		c-14.83-3.17-28.49-6.1-41.62-8.91C1050.97,726.43,1047.06,738.71,1042.99,751.5z"/>
	<path class="st6" d="M1773.26,321.14c11.4,0,21.86,0,32.76,0c0-15.33,0-29.83,0-45.52c-13.79,0.95-27.05,1.86-40.61,2.79
		C1768.25,293.86,1770.83,307.88,1773.26,321.14z"/>
	<path class="st6" d="M1654.4,371.8c14.13,5.3,26.99,10.12,39.67,14.88c4.59-8.95,8.65-16.87,12.92-25.21
		c-10.61-8.81-20.91-17.37-32.18-26.72C1667.93,347.25,1661.39,359.1,1654.4,371.8z"/>
	<path class="st6" d="M1922.22,320.32c12.98,0,25.44,0,38.2,0c0-14.29,0-28.14,0-42.87c-13.05,0-25.5,0-38.2,0
		C1922.22,291.88,1922.22,306.05,1922.22,320.32z"/>
	<path class="st6" d="M1819.05,320.45c12.79,0,25.47,0,38.49,0c0-14.81,0-29.02,0-43.37c-13.09,0-25.56,0-38.49,0
		C1819.05,291.63,1819.05,305.86,1819.05,320.45z"/>
	<path class="st6" d="M1883.46,276.6c-13.96,0.04-13.92,0.05-13.82,14.22c0.07,9.76,0.01,19.51,0.01,29.72c13.89,0,26.57,0,40.1,0
		c0-14.89,0-29.12,0-43.94C1900.85,276.59,1892.15,276.57,1883.46,276.6z"/>
	<path class="st6" d="M1444.79,478.69c-10.94,6.35-21.87,12.7-33.1,19.23c7.5,12.14,15.47,22.67,26.81,30.78
		c7.72-10.49,15.01-20.41,22.37-30.43C1455.28,491.46,1450.06,485.1,1444.79,478.69z"/>
	<path class="st6" d="M1684.32,327.07c8.95,7.39,19.16,15.82,29.71,24.54c5.31-4.79,10.45-9.42,16.03-14.46
		c-6.99-12.03-14.03-24.14-22.07-37.99C1699.68,308.95,1691.96,318.05,1684.32,327.07z"/>
	<path class="st6" d="M1718.95,293.53c7.53,13.59,14.41,26.02,21.16,38.2c7.69-2.75,14.77-5.28,22.68-8.11
		c-3.25-14.07-6.45-27.95-9.99-43.29C1741,284.92,1730.34,289.08,1718.95,293.53z"/>
	<path class="st6" d="M1060.16,483.63c14.9,0,28.27,0,41.44,0c1.79-12.57,3.51-24.67,5.29-37.18c-13.75-3.01-27.28-5.97-42.02-9.2
		C1063.27,453.02,1061.73,468.2,1060.16,483.63z"/>
	<path class="st6" d="M1067.74,423.37c14.54,4.11,27.84,7.87,41.06,11.61c4.96-12.68,9.59-24.5,14.35-36.68
		c-12.2-6.74-24.5-13.54-38.03-21.01C1079.27,392.82,1073.68,407.64,1067.74,423.37z"/>
	<path class="st6" d="M1090.91,365.5c13.93,8.16,26.21,15.35,37.89,22.2c7.9-10.44,15.23-20.13,23.73-31.38l-15.84-14.83
		c-5.5-4.87-11.12-9.84-16.89-14.95C1111.03,338.38,1101.23,351.59,1090.91,365.5z"/>
	<path class="st6" d="M1152.9,355.84c-5.32-4.71-10.7-9.48-16.2-14.35l15.84,14.83C1152.66,356.16,1152.77,356.01,1152.9,355.84z"/>
	<path class="st6" d="M1061.05,540.77c13.95,0,27.27,0,40.54,0c0-14.68,0-28.73,0-43.47c-13.94,0-27.06,0-40.54,0
		C1061.05,512.07,1061.05,526.46,1061.05,540.77z"/>
	<path class="st6" d="M1057.91,701.28c13.68,2.4,27.17,4.77,41.5,7.29c1.09-17.05,2.1-33.03,3.14-49.35c-14.71,0-28.2,0-41.57,0
		C1059.94,673.49,1058.93,687.26,1057.91,701.28z"/>
	<path class="st6" d="M1129.2,316.07c11.75,11.01,22.34,20.92,33.1,31.01c8.44-6.69,18.22-14.45,28.45-22.56
		c-7.12-13.23-14.18-26.36-21.81-40.53C1155.53,294.82,1142.58,305.27,1129.2,316.07z"/>
	<path class="st6" d="M1061.27,554.41c0,14.8,0,28.89,0,43.14c13.7,0,26.98,0,40.06,0c0-14.83,0-29.06,0-43.14
		C1087.53,554.41,1074.42,554.41,1061.27,554.41z"/>
	<path class="st6" d="M1061.23,644.85c13.78,0,27.11,0,40.48,0c0-11.51,0-22.38,0-33.43c-13.61,0-26.77,0-40.48,0
		C1061.23,622.62,1061.23,633.49,1061.23,644.85z"/>
	<path class="st6" d="M1433.42,444.03c-13.84,1.77-27.29,3.49-41.75,5.33c4.18,12.99,8.03,24.94,12.05,37.46
		c13.03-6.8,24.48-12.77,36.08-18.82C1437.64,459.88,1435.6,452.21,1433.42,444.03z"/>
	<path class="st6" d="M1410.29,342.91c-12.9,7.19-24.56,13.69-35.78,19.94c3.9,10.43,7.49,20.05,11.48,30.73
		c13.16-3.05,26.54-6.14,40.81-9.45C1421.14,369.98,1415.77,356.59,1410.29,342.91z"/>
	<path class="st6" d="M1375.36,296.62c-9.29,11.93-17.63,22.62-25.78,33.08c6.21,7.62,12.26,15.05,18.56,22.79
		c11.59-6.82,23.29-13.71,36.16-21.28C1394.3,319.26,1385.18,308.36,1375.36,296.62z"/>
	<path class="st6" d="M1432.33,433.22c-1.21-12.39-2.33-23.76-3.54-36.1c-13.89,2.63-27.02,5.11-39.98,7.56
		c1,10.92,1.93,21.11,2.91,31.85C1405.56,435.41,1419.04,434.31,1432.33,433.22z"/>
	<path class="st6" d="M1248.08,300.78c8.08-1.03,14.89-1.89,22.3-2.83c0-14.69,0-28.96,0-45.09c-10.33,1.3-20.37,2.56-31.32,3.93
		C1242.25,272.31,1245.17,286.58,1248.08,300.78z"/>
	<path class="st6" d="M1179.67,277.8c7.7,14.72,14.58,27.87,21.35,40.81c12.15-5.22,23.41-10.06,35.57-15.28
		c-3-14.06-6.08-28.52-9.5-44.55C1210.72,265.34,1195.68,271.38,1179.67,277.8z"/>
	<path class="st6" d="M1328.56,265.53c-5.33,14.56-10.08,27.55-14.72,40.24c9.38,5.58,18.14,10.79,26.98,16.05
		c8.22-10.56,16.48-21.17,26.12-33.56C1353.99,280.59,1341.65,273.28,1328.56,265.53z"/>
	<path class="st6" d="M1283.94,252.69c-1.18,16.07-2.23,30.48-3.31,45.17c7.72,1.52,14.85,2.93,21.97,4.33
		c4.68-13.53,9.19-26.55,14.06-40.64C1305.47,258.52,1294.9,255.65,1283.94,252.69z"/>
	<path class="st7" d="M382.5,427.45c-4.06,0-7.32,0-10.93,0c-0.21,4.72-0.41,9.1-0.64,14.28c-13.47,0-26.4,0-39.76,0
		c-0.21-4.79-0.43-9.6-0.65-14.56c-3.97,0-7.25,0-11.35,0c0,5.1,0,9.87,0,13.95c-11.79,0-22.72,0-34.23,0
		c0.78-6.04,1.43-11.01,2.11-16.3c-3.78-0.63-6.81-1.13-10.02-1.67c-1.28,5.25-2.48,10.15-3.82,15.64
		c-12.1-3.25-23.28-6.26-34.56-9.3c2.07-5.53,3.78-10.08,5.68-15.14c-3.66-1.38-6.68-2.51-9.92-3.73
		c-2.07,4.89-3.88,9.15-5.96,14.06c-10.98-5.83-21.37-11.34-31.86-16.91c3.33-5.24,6.05-9.52,8.9-14.02
		c-3.6-2.44-6.52-4.42-9.56-6.47c-2.83,4.26-5.42,8.15-8.68,13.06c-9.3-8.85-18.12-17.26-27.36-26.06c4.96-4.51,8.7-7.9,12.13-11.02
		c-3-2.87-5.51-5.28-8.15-7.8c-3.28,2.87-6.77,5.92-11.09,9.71c-7.16-11.06-13.89-21.45-20.68-31.94c4.8-3.11,8.49-5.49,12.29-7.95
		c-1.94-3.62-3.5-6.52-5.15-9.6c-4.2,2.48-7.99,4.71-12.5,7.37c-5.18-12.47-10.03-24.16-15.07-36.33c5.05-1.56,8.85-2.73,13.02-4.02
		c-1.01-3.89-1.95-7.5-2.91-11.22c-4.41,1-8.28,1.89-12.97,2.95c-2.01-11.39-3.91-22.24-5.83-33.13c4.87-0.99,8.54-1.74,12.75-2.59
		c-0.77-4.17-1.45-7.81-2.15-11.54c-4.43,0.32-8.34,0.6-12.52,0.9c0-11.62,0-22.5,0-34.03c4.21,0,7.92,0,11.52,0
		c0-3.93,0-7.2,0-11.14c-4.2,0-7.92,0-11.62,0c0-14.1,0-27.5,0-41.56c4.12,0,7.83,0,11.78,0c0-4.17,0-7.66,0-11.56
		c-4.03-0.18-7.74-0.35-11.71-0.53c0-14.16,0-27.91,0-41.73c4.1-0.19,7.64-0.35,11.57-0.54c0-3.87,0-7.31,0-11.04
		c-4.06-0.23-7.77-0.43-11.63-0.65c0-13.88,0-27.27,0-40.99c4.05-0.22,7.76-0.43,11.55-0.63c0-4.09,0-7.72,0-11.92
		c-4.28,0-7.99,0-11.56,0c0,0,0,0,0-0.01l-12.75,0.11c0,0.1,0,0.2,0,0.3c-12.02,0-23.82,0-35.98,0l-22.47,0.19c0,0.09,0,0.18,0,0.27
		c-4.81,0-9.19,0-13.77,0c0,3.86,0,7.11,0,10.73c4.75,0.31,9.12,0.6,13.49,0.88c0,14.06,0,27.6,0,41.82c-4.94,0-9.32,0-13.68,0
		c0,3.99,0,7.28,0,10.9c4.74,0.25,9.13,0.48,13.86,0.73c0,14.06,0,27.65,0,41.87c-4.78,0-9.17,0-13.66,0c0,4.29,0,7.94,0,12.28
		c4.86,0,9.23,0,13.52,0c0,14.08,0,27.45,0,41.55c-4.84,0-9.21,0-13.57,0c0,3.98,0,7.21,0,10.95c4.68,0,8.89,0,14.22,0
		c0,14.09,0,27.68,0,41.73c-3.33,0.46-7.48,1.04-12.41,1.72c0.37,4.41,0.71,8.47,1.07,12.73c4.8-0.42,8.7-0.76,12.67-1.11
		c3.15,15.46,6.14,30.15,9.28,45.53c-3.68,1.29-7.61,2.66-11.86,4.15c1.34,4.76,2.59,9.2,3.97,14.1c4.49-1.75,8.38-3.26,12.44-4.84
		c6.78,15.9,13.42,31.49,20.1,47.18c-4.04,2.34-7.87,4.55-12.12,7.02c2.44,4.21,4.63,7.98,6.81,11.75
		c4.62-2.59,8.48-4.77,11.85-6.66c10.06,14.47,19.76,28.42,30.13,43.32c-3.41,2.94-7.24,6.24-10.22,8.81
		c3.22,3.62,5.82,6.55,8.56,9.62c3.64-3.24,7.12-6.32,11.26-10c11.49,12.67,22.75,25.1,34.02,37.53c0.73-0.6,1.47-1.21,2.2-1.81
		c-2.48,3.6-4.96,7.2-7.66,11.11c3.96,2.43,7.15,4.39,10.56,6.48c2.34-3.39,4.48-6.48,6.47-9.36c15.17,8.4,30.02,16.64,45.08,24.98
		c-1.72,3.68-3.56,7.65-5.67,12.16c4.45,2,8.22,3.7,12.29,5.54c1.94-4.88,3.57-8.98,5.08-12.8c15.7,4.5,30.94,8.87,46.42,13.31
		c-0.57,4.91-1.12,9.69-1.75,15.15c4.2,0.58,7.84,1.08,11.71,1.62c0.85-5.24,1.58-9.8,2.29-14.16c15.61,1.16,30.79,2.3,46.5,3.47
		c0.2,4.11,0.42,8.47,0.67,13.45c3.8-0.2,7.05-0.38,10.91-0.58c0-4.86,0-9.19,0-14.02c13.6,0,26.55,0,39.8,0
		c0.25,4.59,0.5,8.98,0.74,13.4c3.89,0,7.24,0,11.14,0v-84.3C382.5,436.48,382.5,432.11,382.5,427.45z M42.67,34.65
		c15.22,0,30.15,0,45.5,0c0,13.49,0,26.81,0,40.59c-15,0-29.87,0-45.5,0C42.67,61.43,42.67,48.26,42.67,34.65z M42.92,87.54
		c15.06,0,29.78,0,45.15,0c0,13.69,0,27.41,0,41.89c-15.21,0-29.94,0-45.15,0C42.92,115.43,42.92,101.7,42.92,87.54z M42.93,141.68
		c15.04,0,29.92,0,45.19,0c0,13.66,0,27.02,0,41.21c-15.28,0-29.98,0-45.19,0C42.93,169.11,42.93,155.61,42.93,141.68z
		 M42.95,194.64c15.25,0,30,0,45.12,0c0.55,11.91,1.09,23.5,1.65,35.72c-15.51,1.51-30.85,2.99-46.77,4.54
		C42.95,221.48,42.95,208.37,42.95,194.64z M43.75,247.45c15.87-1.58,31.09-3.1,46.78-4.66c2.66,12.31,5.11,23.62,7.69,35.55
		c-15.22,4.35-30.18,8.62-45.93,13.13C49.45,276.85,46.7,262.65,43.75,247.45z M55.47,304.37c16.24-5.25,30.93-10.01,46.08-14.91
		c5.19,12.59,10.37,25.17,15.82,38.39c-13.68,7.49-27.17,14.88-41.92,22.96C68.9,335.61,62.42,320.53,55.47,304.37z M108.88,402.88
		c-9.36-13.87-18.33-27.17-27.75-41.13c14.24-7.99,27.83-15.62,41.52-23.3c7.23,11.29,14.34,22.4,21.95,34.3
		C133.15,382.42,121.44,392.29,108.88,402.88z M155.4,447.18c-12.86-11.73-24.99-22.79-37.76-34.45
		c12.15-11.04,23.08-20.96,35.02-31.8c8.78,10.83,17,20.96,26.28,32.41C173.17,421.64,164.66,433.87,155.4,447.18z M206.26,477.7
		c-14.28-7.68-28.3-15.23-42.71-22.98c9.62-13.38,18.24-25.36,27.18-37.79c10.68,5.82,21.78,11.87,33.65,18.35
		C218.73,448.52,212.79,462.42,206.26,477.7z M263.41,495.88c-15.56-4.35-30.33-8.49-46.24-12.94
		c6.32-15.58,11.94-29.44,17.61-43.42c12.13,3.63,23.85,7.14,36.32,10.88C268.59,465.22,266.11,479.91,263.41,495.88z
		 M319.29,501.37c-15.06-1.18-29.45-2.32-44.61-3.51c2.57-15.71,4.97-30.41,7.53-46.03c12.26,0.66,24.41,1.31,37.08,1.99
		C319.29,469.14,319.29,484.27,319.29,501.37z M370.77,500.01c-13.17,0-25.88,0-39.24,0c0-15.15,0-30.48,0-46.73
		c12.83,0,25.76,0,39.24,0C370.77,468.62,370.77,484.04,370.77,500.01z"/>
	<path class="st8" d="M605.89,723.04c5.65-1.2,9.93-2.12,14.57-3.1c-0.8-4.13-1.45-7.49-2.12-10.93c-5.08,1.05-9.55,1.98-14.35,2.98
		c-1.29-9.51-2.47-18.17-3.7-27.31c4.46-0.19,8.63-0.38,13.09-0.57c0-3.72,0-7.02,0-11.14c-5.06-0.31-9.66-0.59-14.74-0.89
		c0-15.07,0-29.37,0-44.18c3.52-0.91,7.79-2.01,12.55-3.25c-1.28-4.35-2.39-8.13-3.58-12.19c-4.45,0.92-8.34,1.72-12.07,2.48
		c-5.74-16.26-11.4-32.28-17.14-48.55c4.09-2.34,8.07-4.62,12.2-6.98c-1.93-3.95-3.56-7.31-5.34-10.96
		c-4.7,2.58-8.71,4.78-12.04,6.61c-9.4-12.97-18.31-25.26-28.27-39c4.27-3.36,8.48-6.66,13.26-10.41c-4.19-3.48-7.4-6.15-11.36-9.44
		c-3.47,4.08-6.63,7.81-9.48,11.16c-12.03-9.66-23.36-18.75-34.94-28.05c2.39-4.02,4.99-8.41,7.83-13.19
		c-3.77-2.45-7.28-4.72-11.16-7.24c-2.97,5.13-5.71,9.86-8,13.81c-14.95-6.99-29.11-13.61-43.26-20.22
		c1.55-4.67,3.07-9.26,4.79-14.45c-4.77-1.13-8.8-2.08-13.28-3.15c-1.25,4.95-2.33,9.22-3.46,13.67
		c-17.71-2.66-35.13-5.29-53.38-8.03v84.3c0.18,0,0.34,0,0.52,0c0-4.66,0-8.82,0-13.89c12.04,1.13,23.29,2.19,35.21,3.32
		c-1.83,5.96-3.26,10.58-4.81,15.61c3.66,1.11,6.79,2.06,10.29,3.13c1.86-5.22,3.54-9.96,5.46-15.33
		c10.02,4.62,19.32,8.9,29.18,13.44c-2.76,5.04-5.09,9.28-7.58,13.83c3.31,1.72,6.37,3.31,9.37,4.87c2.81-4.71,5.15-8.63,7.84-13.13
		c7.64,6.65,14.5,12.62,21.59,18.8c-4.08,3.89-7.47,7.13-11,10.51c2.57,2.84,4.8,5.31,7.34,8.11c4.04-3.31,7.77-6.36,12.21-9.98
		c5.56,8.13,10.7,15.63,16.01,23.39c-5.02,2.92-9.04,5.26-13.41,7.8c1.77,3.41,3.26,6.3,4.86,9.38c4.86-2.53,9.17-4.77,14.37-7.48
		c3.72,10.3,7.21,19.93,10.87,30.05c-5.19,0.97-9.74,1.83-14.98,2.81c0.84,3.8,1.59,7.16,2.36,10.61c5.04-0.76,9.42-1.42,14.68-2.21
		c0.62,11.76,1.22,23.03,1.85,34.95c-5.83,0-10.44,0-15.22,0c0,4.51,0,8.4,0,12.6c5.13,0,9.78,0,14.59,0
		c1.66,13.74,3.29,27.19,4.93,40.73c-5.36,1.19-10.05,2.23-15.11,3.35c1.37,4.62,2.49,8.43,3.7,12.53
		c4.47-1.05,8.54-2.01,12.61-2.97c6.01,14.91,11.86,29.44,17.93,44.53c-2.47,1.51-6.14,2.71-8.35,4.58l67.4-35.34
		C613.36,743.1,609.69,733.23,605.89,723.04z M420.75,503.1c-12.58-1.26-24.99-2.51-37.81-3.8c0-15.54,0-30.31,0-45.7
		c16.96-1.72,32.84,3.84,49.91,5.79C428.77,474.09,424.81,488.42,420.75,503.1z M463.55,520.72c-10.4-4.74-20.51-9.34-31.54-14.37
		c3.88-13.82,7.85-27.92,12.21-43.42c14.44,6.37,28.06,12.39,42.41,18.73C478.53,495.36,470.98,508.14,463.55,520.72z
		 M495.62,545.06c-5.36-4.32-13.67-11.03-22.33-18.02c7.36-12.4,14.76-24.85,23.12-38.93c11.55,9.43,22.06,18.01,33.77,27.57
		C517.99,526.05,506.94,535.44,495.62,545.06z M507.82,558.02c9.69-10.81,19.39-21.63,30.33-33.85c8.8,12.59,16.8,24.04,25.21,36.08
		c-13.83,7.63-26.56,14.65-39.44,21.76C518.09,573.32,512.38,564.81,507.82,558.02z M530.01,592.38
		c12.75-6.65,25.41-13.27,39.51-20.63c5.22,15.07,10.33,29.83,15.61,45.09c-16.15,3.07-30.35,5.77-44.34,8.44
		C537.17,614.21,533.77,603.84,530.01,592.38z M587.02,630.09c0.65,14.45,1.28,28.4,1.94,42.88c-15.31,0-29.18,0-43.53,0
		c-0.65-11.95-1.31-24.09-1.98-36.48C557.75,634.39,571.67,632.35,587.02,630.09z M544.69,684.82c15.4,0,29.47,0,44.13,0
		c1.43,9.6,2.87,19.24,4.45,29.79c-14.45,3.29-28.73,6.54-43.61,9.93C547.98,711.18,546.39,698.43,544.69,684.82z M550.84,736.3
		c6.49-1.66,12.24-3.19,18.02-4.59c4.57-1.11,9.19-2.06,13.78-3.09c14.79-3.33,12.44-6.39,18.17,10.28c2.17,6.33,4,12.78,6.18,19.8
		c-12.56,6.55-25.19,13.14-38.87,20.28C562.42,764.88,556.82,751.07,550.84,736.3z"/>
	<path class="st9" d="M1170.38,375.13c0.42-0.35,0.79-0.66,1.18-0.99l-7.74-7.25C1166.4,370.14,1168.58,372.88,1170.38,375.13z"/>
	<path class="st10" d="M1547.5,559.56c0-13.96,0-27.1,0-41.44c10.37-0.67,20.38-1.33,30.95-2.01c0.35,1.78,0.69,3.56,1.03,5.34
		l-4.88-30.49c0.5,4.22,0.96,8.13,1.55,13.09c-9.7,0.56-18.94,1.1-28.6,1.66c-0.31-5.35-0.58-10.17-0.87-15.23
		c-4.19,0-7.7,0-12.12,0c0,5.11,0,9.91,0,14.45c-10.17,0-19.41,0-28.78,0c0.44-4.97,0.78-8.93,1.15-13.15
		c-3.32-0.54-6.11-0.99-9.09-1.47c-1.4,4.51-2.69,8.65-4.11,13.21c-6.06-2.82-11.28-5.25-16.9-7.86c2.67-4.38,4.86-7.98,7.22-11.85
		c-2.88-1.54-5.58-2.98-8.07-4.31c-3,3.33-5.61,6.23-8.76,9.73c-4.59-5.81-8.58-10.86-12.9-16.32c4.6-3.12,8.61-5.84,12.93-8.78
		c-1.84-2.98-3.41-5.52-5.01-8.11c-4.64,2.33-8.54,4.28-13.22,6.63c-1.63-6.97-3.03-12.99-4.54-19.44
		c5.43-1.36,10.13-2.54,15.11-3.79c-0.75-3.55-1.38-6.52-2.04-9.63c-4.87,0.83-9.17,1.56-14.11,2.39
		c-1.19-12.98-2.31-25.2-3.46-37.66c4.7-1.44,9.32-2.85,14.27-4.37c-1.72-4.37-3.17-8.03-4.71-11.96
		c-4.59,1.45-8.59,2.71-12.11,3.83c-6.14-14.91-12.08-29.33-18.16-44.09c3.94-2.5,8.06-5.11,12.51-7.93
		c-2.59-3.81-4.93-7.25-7.4-10.87c-4.4,2.82-8.13,5.21-11.33,7.26c-10.24-12.94-20.09-25.39-30.12-38.06
		c2.61-3.58,5.32-7.3,8.14-11.16c-3.55-2.73-6.72-5.16-10.23-7.85c-3.15,4.01-6.01,7.64-8.21,10.44
		c-13.64-8.28-26.63-16.17-39.86-24.2c1.3-4.34,2.63-8.77,4.1-13.67c-4.42-1.68-8.49-3.22-12.89-4.89
		c-1.53,4.77-2.8,8.74-4.03,12.57c-12.07-1.98-23.7-3.9-35.71-5.87c0-5.57,0-10.89,0-16.55c-4.14,0-7.83,0-11.77,0
		c-0.46,5.54-0.9,10.79-1.33,15.89c-11.71,0.97-22.57,1.86-33.58,2.77c-1.3-5-2.57-9.88-3.91-15.02c-4.14,1.14-7.68,2.11-11.28,3.09
		c1.04,5.52,1.92,10.12,2.68,14.16c-16.95,6.88-33.5,13.59-50.34,20.43c-2.2-4.13-4.47-8.39-6.91-12.98
		c-4.13,2.52-7.68,4.68-11.36,6.92c2.77,4.91,5.15,9.15,7.21,12.81c-13.77,10.88-27.13,21.44-41.88,33.09
		c-3.03-3.6-6.44-7.65-9.92-11.79c-3.61,3.31-6.67,6.11-10.79,9.88c4.55,3.97,8.58,7.49,12.17,10.62c-0.36,0.5-0.72,1-1.08,1.5
		l24.52,22.96c5.5,4.87,10.89,9.64,16.2,14.35c-0.12,0.16-0.24,0.32-0.36,0.48l8.29,7.76c0.12-0.17,0.24-0.33,0.37-0.5
		c0.92,1.15,1.79,2.25,2.63,3.3l7.74,7.25c2.96-2.48,5.38-4.51,7.88-6.6c-3.51-3.9-6.77-7.54-10.65-11.86
		c9.31-7.55,18.1-14.69,27.19-22.07c3.37,5.47,6.25,10.14,9.26,15.02c3.41-2.27,6.16-4.1,9.08-6.04c-2.75-4.87-5.27-9.33-8.4-14.86
		c11.04-4.45,21.73-8.75,32.89-13.25c1.15,5.4,2.12,9.92,3.29,15.39c3.29-0.75,8.54-0.99,8.77-2.18c0.96-4.99,0.4-10.26,0.4-15.84
		c6.06-0.81,12.34-1.64,18.92-2.52c0.26,5.44,0.48,9.8,0.68,13.92c13.53,3.27,7.27-8.25,10.96-13.19c5.69,1.1,11.66,2.25,18.17,3.5
		c-1.63,4.9-2.88,8.68-4.31,12.98c3.2,1.14,6.27,2.22,9.7,3.44c1.55-4.5,2.89-8.43,4.55-13.25c8.11,4.79,15.7,9.27,23.53,13.89
		c-3.75,4.35-6.8,7.89-8.61,9.99c2.52,3.55,4.68,6.61,7,9.89c3.65-3.98,6.82-7.42,10.68-11.63c5.2,6.45,10.19,12.64,15.41,19.1
		c-4.7,2.96-8.66,5.45-12.86,8.09c1.96,3.58,3.73,6.82,5.57,10.17c4.9-2.81,9.09-5.22,14.17-8.13c3.52,9.66,6.76,18.56,10.06,27.59
		c-5.74,1.45-10.21,2.59-15.12,3.83c0.91,3.96,1.67,7.31,2.47,10.79c5.41-0.99,9.97-1.83,15.16-2.78
		c1.07,10.07,2.09,19.55,3.12,29.22c-5.92,0.69-10.92,1.27-16.23,1.88c0.49,4.59,0.88,8.29,1.32,12.42
		c6.09-0.38,11.58-0.73,16.09-1.02c4.23,14.42,8.24,28.11,12.36,42.14c-4.09,1.93-8.83,4.17-14,6.6c2.57,4.35,4.69,7.93,6.86,11.6
		c5.32-2.6,10.07-4.91,13.95-6.81c10.48,11.62,20.36,22.57,30.5,33.79c-2.84,3.75-5.89,7.79-9.25,12.22
		c4.17,2.98,7.73,5.53,11.64,8.33c3.2-4.54,5.99-8.5,8.22-11.65c12.88,6.52,25.23,12.77,38.41,19.43
		c-0.43,3.21-2.73,8.47-1.08,11.74c1.46,2.89,7.32,3.55,11.93,5.49c1.39-6.13,2.47-10.84,3.55-15.58
		c13.28,1.19,26.19,2.34,39.66,3.55c0,4.33,0,8.5,0,13.04c4.46,0,8.32,0,12.46,0c0.25-4.4,0.47-8.36,0.72-12.91
		c13.25-0.79,26.1-1.56,39.42-2.36l-1.79-11.16C1572.54,558.19,1560.25,558.86,1547.5,559.56z M1162.3,347.08
		c-10.77-10.09-21.35-20-33.1-31.01c13.38-10.8,26.33-21.25,39.74-32.08c7.62,14.17,14.69,27.3,21.81,40.53
		C1180.52,332.63,1170.74,340.39,1162.3,347.08z M1201.02,318.6c-6.77-12.94-13.65-26.09-21.35-40.81
		c16-6.42,31.05-12.45,47.42-19.02c3.42,16.03,6.5,30.49,9.5,44.55C1224.44,308.55,1213.17,313.39,1201.02,318.6z M1270.38,297.95
		c-7.4,0.94-14.22,1.81-22.3,2.83c-2.91-14.21-5.84-28.47-9.02-43.99c10.95-1.38,20.99-2.64,31.32-3.93
		C1270.38,268.99,1270.38,283.26,1270.38,297.95z M1302.61,302.19c-7.12-1.4-14.26-2.81-21.97-4.33c1.08-14.69,2.13-29.1,3.31-45.17
		c10.96,2.97,21.53,5.83,32.73,8.86C1311.8,275.64,1307.29,288.66,1302.61,302.19z M1340.82,321.82
		c-8.84-5.26-17.6-10.47-26.98-16.05c4.64-12.69,9.39-25.68,14.72-40.24c13.09,7.75,25.43,15.06,38.38,22.73
		C1357.29,300.65,1349.04,311.26,1340.82,321.82z M1349.58,329.7c8.15-10.46,16.48-21.15,25.78-33.08
		c9.82,11.75,18.94,22.64,28.94,34.59c-12.86,7.57-24.57,14.46-36.16,21.28C1361.84,344.75,1355.79,337.32,1349.58,329.7z
		 M1374.51,362.85c11.22-6.25,22.88-12.75,35.78-19.94c5.48,13.68,10.85,27.07,16.51,41.22c-14.28,3.31-27.65,6.4-40.81,9.45
		C1382,382.89,1378.41,373.28,1374.51,362.85z M1428.8,397.13c1.21,12.33,2.32,23.7,3.54,36.1c-13.29,1.09-26.77,2.19-40.61,3.32
		c-0.98-10.74-1.91-20.93-2.91-31.85C1401.78,402.24,1414.9,399.76,1428.8,397.13z M1391.67,449.36
		c14.46-1.85,27.91-3.56,41.75-5.33c2.18,8.18,4.22,15.84,6.38,23.97c-11.6,6.05-23.05,12.02-36.08,18.82
		C1399.7,474.31,1395.85,462.35,1391.67,449.36z M1438.49,528.7c-11.33-8.11-19.3-18.64-26.81-30.78
		c11.23-6.53,22.16-12.87,33.1-19.23c5.27,6.42,10.49,12.77,16.08,19.58C1453.5,508.29,1446.21,518.2,1438.49,528.7z
		 M1483.13,553.98c-12.19-5.65-23.39-10.83-35.39-16.39c8.01-11.79,15.12-22.24,22.12-32.55c7.26,3.1,14.19,6.05,22.25,9.49
		C1489.35,526.64,1486.49,539.2,1483.13,553.98z M1534.26,559.59c-12.6-0.77-25.1-1.53-38.01-2.32c2.19-13.39,4.02-25.26,6.23-37.07
		c0.24-1.26,2.69-3.06,4.06-3.01c9.12,0.33,18.23,1.1,27.72,1.76C1534.26,532.14,1534.26,545.06,1534.26,559.59z"/>
	<path class="st11" d="M1973.17,320.61c0-14.61,0-28.67,0-43.06c3.67-0.32,6.97-0.6,10.8-0.93c0-3.64,0-7.08,0-10.76
		c-3.87-0.27-7.37-0.51-11.35-0.78c0-4.4,0-8.36,0-12.41c-4.2,0-7.87,0-12.1,0c0,4.44,0,8.39,0,12.34c-13.24,0-25.89,0-39.11,0
		c0-4.53,0-8.5,0-12.62c-3.89,0-7.2,0-11.04,0c-0.25,4.37-0.49,8.51-0.72,12.69c-13.42,0-26.32,0-39.42,0
		c-0.23-4.44-0.44-8.4-0.66-12.57c-4,0-7.49,0-11.84,0c0,4.43,0,8.55,0,12.56c-13.38,0-25.89,0-38.59,0
		c-0.29-4.44-0.55-8.4-0.81-12.41c-4.21,0-7.86,0-11.96,0c0,4.32,0,8.09,0,12.13c-14.67,1.07-28.9,2.11-43.35,3.17
		c-1.01-5.26-2-10.43-3.09-16.09c-4.12,0.85-7.54,1.55-11.41,2.35c0.86,5.8,1.64,11.03,2.34,15.68c-12.6,4.72-24.69,9.26-37.07,13.9
		c-2.31-3.8-4.82-7.95-7.41-12.22c-3.73,2.42-7.08,4.61-10.77,7.01c2.58,4.62,4.94,8.84,7.03,12.57
		c-9.59,8.86-18.8,17.36-28.31,26.15c-4.02-2.73-8.23-5.6-12.83-8.74c-2.66,3.69-5.07,7.03-7.58,10.5c4.62,3.37,8.57,6.25,12.07,8.8
		c-7.48,13.57-14.68,26.63-22.01,39.93c-4.2-1.65-8.5-3.35-13.29-5.23c-1.69,4.43-3.17,8.32-4.76,12.53
		c4.83,1.77,9.18,3.36,13.22,4.84c-2.01,14.85-3.96,29.23-5.92,43.76c-2.17,0-4.39,0.09-6.6-0.03c-2.17-0.12-4.32-0.45-7.13-0.77
		c0,3.51-1.15,8.42,0.22,9.27c3.57,2.21,8.25,2.63,13.61,4.07c-1.39,7.59-2.79,15.29-4.21,23.08c-15.01-3.79-15.01-3.79-16.6,4.6
		c3.97,1.69,8.01,3.41,12.88,5.49c-4.04,5.86-7.72,11.21-11.54,16.76c-3.98-4.49-7.08-7.98-10.54-11.88
		c-2.64,2.32-4.9,4.3-7.24,6.35c3.5,4.33,6.53,8.09,10.18,12.61c-6.71,3.21-12.61,6.03-18.74,8.96c-1.55-4.98-2.8-8.98-4.1-13.15
		c-3.17,0.68-5.74,1.23-8.82,1.89l4.88,30.49c2.26,11.66,4.53,23.35,6.97,35.98c-0.41,0.02-0.8,0.04-1.21,0.07l1.79,11.16
		c0.06,0,0.12-0.01,0.18-0.01c0.64,3.9,1.28,7.77,2.01,12.17c4.88-0.61,9.22-1.15,14.35-1.78c-1.01-5.2-1.88-9.71-2.54-13.1
		c15.19-8.48,29.78-16.62,45.85-25.59c2.71,2.9,6.46,6.9,9.37,10.01c3.11-2.71,6.09-5.3,9.36-8.15c-3.25-3.99-6.47-7.94-9.15-11.23
		c8.89-12.66,17.37-24.74,26.16-37.26c4.34,1.86,8.98,3.85,14,6.01c1.53-4.64,2.84-8.62,4.33-13.11c-5.11-1.86-9.64-3.51-13.66-4.98
		c2.92-14.06,5.75-27.62,8.63-41.49c3.93,0,8.09,0,12.56,0c0.51-3.56,0.99-6.84,1.54-10.62c-4.92-0.32-9.27-0.6-14.58-0.94
		c1.79-9.68,3.44-18.57,5.16-27.88c5.16,1.65,9.15,2.94,13.54,4.34c1.39-3.24,2.58-6.03,3.99-9.31c-4.62-1.92-8.67-3.61-13.63-5.67
		c4.01-7.37,7.77-14.27,11.67-21.45c4.48,3.14,7.92,5.55,11.59,8.12c2.06-2.98,3.79-5.48,5.62-8.14c-3.69-3.23-7-6.12-10.82-9.47
		c4.74-4.4,8.96-8.32,13.67-12.69c3.1,4.53,5.8,8.48,8.6,12.58c2.65-1.72,4.81-3.12,7.1-4.6c-2.45-4.54-4.54-8.41-7.11-13.17
		c6.78-2.04,12.86-3.87,19.15-5.76c1.42,4.81,2.55,8.62,3.77,12.74c2.89-0.32,5.43-0.6,8.3-0.92c-0.43-4.93-0.79-9.08-1.22-14.04
		c10.77,0,20.91,0,31.18,0c0.34,5.12,0.65,9.77,0.96,14.57c3.96,0,7.44,0,11.73,0c0-5.16,0-9.96,0-14.74c13.54,0,26.26,0,39.53,0
		c0,5.13,0,9.78,0,14.75c4.04,0,7.51,0,11.76,0c0-5.19,0-10.01,0-14.85c13.71,0,26.64,0,39.9,0c0.23,5.21,0.45,10.02,0.67,14.87
		c3.98,0,7.25,0,10.86,0c0.23-5.15,0.45-9.96,0.67-14.93c13.12,0,25.63,0,38.86,0c0,5.19,0,10.02,0,14.99c4.03,0,7.32,0,11.12,0
		c0.31-5.08,0.61-9.91,0.94-15.38c3.92,0,7.4,0,11.18,0c0-4.14,0-7.6,0-11.28C1980.29,321.04,1976.8,320.83,1973.17,320.61z
		 M1598.84,554.93c-3.21-15.29-5.97-28.39-8.66-41.18c8.04-3.96,15.43-7.59,23.43-11.53c7.91,9.56,16.17,19.53,25.64,30.98
		C1625.69,540.5,1612.82,547.42,1598.84,554.93z M1647.79,523.83c-9.51-10.56-17.87-19.84-26.05-28.9
		c4.85-6.87,9.46-13.4,14.46-20.47c11.2,4.74,23.04,9.74,35.92,15.19C1664,501.05,1656.14,512.09,1647.79,523.83z M1677.02,477.9
		c-13.18-5.04-25-9.56-36.85-14.09c1.31-8.03,2.29-15.34,3.83-22.52c0.38-1.78,2.63-4.53,3.97-4.51c11.8,0.24,23.58,1.01,36.67,1.68
		C1682.03,451.98,1679.61,464.51,1677.02,477.9z M1683.98,427.46c-12.71-0.86-25.56-1.73-39.98-2.7c2-13.77,3.94-27.1,6.02-41.37
		c14.4,4.91,27.28,9.31,40.12,13.69C1688.1,407.16,1686.12,416.92,1683.98,427.46z M1694.07,386.68
		c-12.68-4.76-25.55-9.58-39.67-14.88c7-12.7,13.53-24.55,20.42-37.05c11.26,9.35,21.57,17.91,32.18,26.72
		C1702.72,369.8,1698.66,377.72,1694.07,386.68z M1714.02,351.6c-10.55-8.71-20.76-17.14-29.71-24.54
		c7.65-9.02,15.36-18.11,23.67-27.9c8.04,13.84,15.08,25.95,22.07,37.99C1724.47,342.18,1719.33,346.81,1714.02,351.6z
		 M1740.1,331.72c-6.74-12.18-13.63-24.61-21.16-38.2c11.39-4.44,22.06-8.61,33.84-13.2c3.54,15.34,6.75,29.22,9.99,43.29
		C1754.87,326.44,1747.8,328.97,1740.1,331.72z M1806.03,321.14c-10.9,0-21.37,0-32.76,0c-2.43-13.26-5.01-27.28-7.84-42.73
		c13.56-0.93,26.82-1.84,40.61-2.79C1806.03,291.3,1806.03,305.81,1806.03,321.14z M1857.54,320.45c-13.02,0-25.7,0-38.49,0
		c0-14.58,0-28.82,0-43.37c12.93,0,25.4,0,38.49,0C1857.54,291.42,1857.54,305.63,1857.54,320.45z M1909.74,320.53
		c-13.53,0-26.21,0-40.1,0c0-10.21,0.06-19.97-0.01-29.72c-0.1-14.17-0.14-14.18,13.82-14.22c8.7-0.02,17.39,0,26.29,0
		C1909.74,291.41,1909.74,305.64,1909.74,320.53z M1960.42,320.32c-12.76,0-25.23,0-38.2,0c0-14.28,0-28.44,0-42.87
		c12.7,0,25.15,0,38.2,0C1960.42,292.18,1960.42,306.04,1960.42,320.32z"/>
	<path class="st12" d="M1128.8,387.7c-11.69-6.85-23.96-14.04-37.89-22.2c10.32-13.91,20.12-27.13,28.9-38.96
		c5.77,5.11,11.38,10.08,16.89,14.95l-24.52-22.96c-10.24,14.17-20.25,28.03-30.4,42.08c-3.71-1.9-8.05-4.12-12.77-6.54
		c-2.17,4-4.15,7.64-6.33,11.64c4.73,2.44,8.85,4.56,12.77,6.59c-6.45,16.45-12.73,32.46-19.2,48.98
		c-3.75-0.81-7.84-1.69-12.89-2.78c-1.07,4.65-2.1,9.08-3.2,13.83c5.05,1.12,9.58,2.12,14.29,3.17c-1.89,16.19-3.72,31.94-5.6,48.08
		c-4.05,0.25-8.21,0.5-12.39,0.76c0,4.37,0,8.23,0,12.22c4.55,0.2,8.54,0.38,12.72,0.57c0,14.84,0,29.27,0,44.42
		c-4.72,0-8.86,0-12.87,0c0,4.48,0,8.22,0,12.66c4.52,0,8.69,0,13.01,0c0,14.97,0,29.22,0,43.74c-4.62,0.23-8.77,0.45-12.98,0.66
		c0,4.47,0,8.19,0,12.6c4.54,0,8.71,0,12.94,0c0,11.61,0,22.51,0,34.22c-4.6,0-8.72,0-13.14,0c0,4.75,0,8.7,0,13.42
		c4.47,0,8.61,0,13.45,0c-1.12,13.88-2.17,26.92-3.26,40.4c-5.22-1.08-9.32-1.93-13.83-2.86c-1.36,3.48-2.6,6.67-3.97,10.17
		c5.32,1.71,9.71,3.13,14.99,4.83c-3.9,12.02-7.66,23.61-11.58,35.69c-5.36-2.64-9.51-4.68-14.02-6.9
		c-1.89,3.75-3.46,6.86-5.25,10.4c4.96,2.6,9.42,4.93,14.03,7.35c-3.73,5.91-7,11.27-10.46,16.5c-3.51,5.3-7.22,10.48-11.02,15.97
		c-4.68-4.18-8.31-7.42-12.26-10.95c-3.01,3.17-5.54,5.83-8.31,8.76c4.54,4.14,8.49,7.76,12.19,11.13
		c-0.08,0.09-0.16,0.19-0.25,0.28l9.61,8.53c0.17-0.18,0.35-0.36,0.52-0.54c8.14,7.54,16.49,15.26,25.92,23.99l23.81,21.12
		c2.76-3.55,5.02-6.46,7.91-10.17c-3.82-3.54-7.2-6.67-10.02-9.27c10.1-15.36,20.06-30.52,30.27-46.06
		c2.85,1.47,6.18,3.18,9.92,5.11c2.48-3.89,4.87-7.63,7.48-11.72c-4.32-2.27-8.41-4.42-11.97-6.3
		c5.69-17.28,11.13-33.81,16.67-50.65c4.95,0.8,9.96,1.6,15.34,2.47c0.85-4.27,1.61-8.08,2.43-12.22
		c-5.41-1.18-10.12-2.21-13.61-2.97c0.95-17.8,1.85-34.73,2.79-52.34c4.82,0,9.43,0,14.16,0c0-4.66,0-8.61,0-13.26
		c-4.92,0-9.54,0-14.49,0c0-11.59,0-22.48,0-33.77c4.9-0.22,9.5-0.43,14.3-0.64c0-4.32,0-8.05,0-12.25
		c-4.89-0.26-9.49-0.5-14.17-0.75c0-14.72,0-28.99,0-43.39c5.07-0.22,9.66-0.43,14.18-0.63c0-4.58,0-8.32,0-12.77
		c-4.93,0-9.52,0-14.25,0c0-15.01,0-29.29,0-43.97c4.96-0.26,9.57-0.5,14.26-0.74c0-4.46,0-8.18,0-12.55c-4.56,0-8.73,0-13.86,0
		c1.46-12.21,2.83-23.66,4.23-35.43c5.98,1.45,10.75,2.6,16.13,3.9c0.83-3.89,1.6-7.48,2.43-11.37c-5.49-1.47-10.32-2.77-15.82-4.25
		c4.38-11.33,8.43-21.83,12.64-32.71c5.6,2.78,9.77,4.85,14.32,7.11c1.8-3.31,3.47-6.38,5.27-9.68c-4.73-2.69-8.94-5.08-13.95-7.94
		c7.26-9.79,14.08-19,21.78-29.4l-8.29-7.76C1144.03,367.57,1136.7,377.26,1128.8,387.7z M1045.58,825.96
		c-11.18-9.34-21.57-18.02-31.96-26.69c7.84-12.27,15.42-24.13,23.33-36.51c12.05,6.3,24.27,12.69,37.35,19.53
		C1064.75,796.81,1055.45,810.95,1045.58,825.96z M1079.58,770.07c-12.9-6.55-24.79-12.58-36.59-18.57
		c4.07-12.79,7.99-25.07,12.17-38.22c13.14,2.81,26.79,5.73,41.62,8.91C1090.84,738.73,1085.34,754.04,1079.58,770.07z
		 M1099.41,708.57c-14.33-2.52-27.82-4.89-41.5-7.29c1.03-14.03,2.03-27.79,3.08-42.06c13.36,0,26.86,0,41.57,0
		C1101.51,675.54,1100.5,691.52,1099.41,708.57z M1101.71,611.42c0,11.05,0,21.92,0,33.43c-13.37,0-26.7,0-40.48,0
		c0-11.36,0-22.23,0-33.43C1074.93,611.42,1088.09,611.42,1101.71,611.42z M1061.27,597.55c0-14.26,0-28.34,0-43.14
		c13.16,0,26.27,0,40.06,0c0,14.08,0,28.31,0,43.14C1088.25,597.55,1074.97,597.55,1061.27,597.55z M1101.6,540.77
		c-13.28,0-26.59,0-40.54,0c0-14.31,0-28.7,0-43.47c13.48,0,26.6,0,40.54,0C1101.6,512.04,1101.6,526.09,1101.6,540.77z
		 M1101.6,483.63c-13.17,0-26.55,0-41.44,0c1.57-15.43,3.11-30.61,4.72-46.38c14.74,3.23,28.26,6.19,42.02,9.2
		C1105.11,458.96,1103.39,471.07,1101.6,483.63z M1108.8,434.98c-13.23-3.74-26.52-7.5-41.06-11.61
		c5.94-15.74,11.53-30.55,17.38-46.08c13.53,7.47,25.83,14.27,38.03,21.01C1118.39,410.48,1113.76,422.31,1108.8,434.98z"/>
	<path class="st13" d="M1037.1,835.72c-12.08,12.37-23.9,24.48-36.7,37.59c-9.33-13.75-16.82-24.8-23.44-34.55
		c10.11-10.59,19.54-20.47,29.24-30.63l-9.61-8.53c-8.73,9.8-17.29,19.4-26.4,29.62c-4.59-6.07-7.77-10.26-11.12-14.69
		c-3.38,2.62-6.14,4.76-9.15,7.09c3.53,4.78,6.66,9,10.32,13.96c-11.75,6.85-22.75,13.27-34.19,19.94c-2.92-5.74-5.43-10.68-8.13-16
		c-3.31,1.65-6.27,3.12-9.45,4.71c2.16,5.23,4.18,10.12,6.77,16.38c-12.34,3.85-23.96,7.48-35.82,11.18
		c-1.68-6.18-3.01-11.07-4.45-16.39c-3.58,0.86-6.56,1.57-10.12,2.43c1.27,5.57,2.43,10.71,3.73,16.4
		c-11.66,1.56-22.63,3.02-34,4.54c-0.38-6.2-0.68-11.01-0.96-15.55c-3.83,0-6.86,0-10.16,0c-0.33,5.28-0.63,10.11-0.91,14.66
		c-6.28,0-11.95,0-17.76,0c0-5.98,0-11.27,0-16.73c-3.93-0.25-7.45-0.48-11.26-0.73c-0.52,5.42-0.98,10.2-1.49,15.54
		c-11.07-2.39-21.27-4.6-31.54-6.82c1.05-5.64,1.93-10.39,2.86-15.39c-3.47-0.95-6.19-1.7-9.5-2.6c-1.63,5.07-3.11,9.62-4.84,14.98
		c-10.13-3.98-19.65-7.71-29.49-11.57c2.55-5.25,4.65-9.6,6.87-14.17c-3.75-1.84-6.85-3.36-10.11-4.96
		c-2.52,4.89-4.75,9.21-7.27,14.09c-10.18-6.26-19.88-12.24-29.94-18.43c3.81-4.73,7.12-8.85,10.58-13.16
		c-2.98-2.3-5.42-4.17-7.86-6.05c-3.8,4.16-7.36,8.06-10.57,11.57c-7.87-7.54-15.26-14.61-22.68-21.72
		c4.26-4.01,8.09-7.62,12.03-11.33c-2.64-2.88-4.74-5.18-7.18-7.83c-4.09,3.42-7.99,6.69-12.45,10.43
		c-6.42-9.77-12.53-19.07-18.85-28.69c4.76-2.94,8.88-5.49,13.25-8.19c-1.7-3.12-3.18-5.83-4.77-8.76
		c-4.37,2.07-8.35,3.96-13.29,6.3c-0.03-0.08-0.06-0.15-0.09-0.23l-67.4,35.34c-0.7,0.59-1.25,1.24-1.57,2
		c-1.22,2.86,1.89,7.58,3.32,12.24c4.01-2.26,6.77-4.34,9.87-5.35c1.74-0.56,5.13-0.03,5.94,1.21c8.2,12.49,16.03,25.23,24.1,38.13
		c-2.92,2.73-6.19,5.78-9.91,9.26c2.77,3.3,5.45,6.49,8.25,9.82c3.75-3.53,7.11-6.69,10.33-9.72c11.12,10.44,21.71,20.4,32.42,30.45
		c-3.5,4.63-6.7,8.85-10.19,13.47c4.05,2.81,7.44,5.16,10.94,7.59c3.46-4.71,6.45-8.79,9.47-12.9
		c12.51,7.98,24.36,15.55,36.43,23.25c-2.18,4.59-4.37,9.21-6.91,14.55c4.13,2,7.94,3.86,11.82,5.74c2.46-5.28,4.42-9.47,6.32-13.55
		c13.8,5.32,26.93,10.37,40.13,15.45c-1.57,5.04-3,9.66-4.62,14.87c4.52,1.37,8.49,2.58,12.86,3.91c1.64-5.4,3.11-10.22,4.44-14.6
		c14.37,3.2,28.06,6.24,41.91,9.32c0,5.4,0,10.05,0,15.35c4.21,0.26,8.11,0.5,12.15,0.75c0.5-5.36,0.93-9.97,1.38-14.69
		c8.6,0.77,16.56,1.47,24.95,2.22c0,4.76,0,8.94,0,13.75c4.62-0.21,8.71-0.4,12.95-0.59c0.27-5.17,0.5-9.56,0.7-13.44
		c15.32-2.34,29.84-4.56,44.62-6.81c0.82,4.51,1.66,9.09,2.59,14.24c4.41-0.94,8.44-1.79,12.85-2.72
		c-1.21-5.16-2.26-9.61-3.28-13.96c16.11-5.66,31.5-11.07,47.2-16.58c1.76,4.47,3.51,8.91,5.52,14.02
		c4.61-2.67,8.35-4.83,12.28-7.11c-2.47-4.69-4.45-8.44-6.44-12.23c14.64-9.03,29.12-17.95,43.97-27.1
		c3.15,3.63,6.34,7.3,9.93,11.44c3.1-3.24,5.95-6.22,9.03-9.44c-3.23-4.05-6.01-7.53-7.53-9.45c12.24-13.32,24.17-26.31,35.99-39.16
		c4.62,3.91,8.31,7.04,12.35,10.46c0.04-0.05,0.07-0.09,0.1-0.13l-23.81-21.12C1034.1,832.93,1035.58,834.31,1037.1,835.72z
		 M599.65,828.99c-8.67-12.89-17.1-25.42-26.09-38.78c13.82-7.59,26.47-14.54,38.94-21.38c6.91,10.59,13.38,20.51,20.14,30.86
		C621.87,809.26,611.3,818.65,599.65,828.99z M638.24,869.82c-10.43-11.14-20.05-21.42-30.23-32.29
		c10.92-9.86,21.38-19.31,31.61-28.54c8.39,8.29,16.32,16.13,24.51,24.23C655.95,844.77,647.73,856.4,638.24,869.82z M684.21,898.45
		c-11.69-7.27-23.22-14.44-35.28-21.95c8.22-12.25,16.16-24.1,24.47-36.48c10.67,6.57,20.56,12.65,30.81,18.96
		C697.45,872.31,691.09,884.87,684.21,898.45z M733.96,920.76c-13.29-5.69-25.74-11.02-38.56-16.52
		c5.86-12.71,11.26-23.81,16.07-35.17c1.9-4.49,3.94-5,8.12-3.14c8.4,3.73,17,6.97,26.43,10.79
		C742.17,890.78,738.24,905.12,733.96,920.76z M786.17,933.23c-13.91-3.01-27.14-5.86-41.14-8.89c4.31-15.56,8.23-29.73,12.33-44.56
		c11.44,2.64,22.26,5.15,33.73,7.8C789.47,902.61,787.87,917.46,786.17,933.23z M822.64,936.78c-7.35-0.58-14.61-1.14-23.36-1.83
		c1.4-15.19,2.78-30.22,4.17-45.37c6.94,0,12.72,0,19.19,0C822.64,905.36,822.64,920.68,822.64,936.78z M835.96,936.54
		c0-16.41,0-31.34,0-46.89c10.88-1.33,22.36-2.74,34.65-4.24c2.8,14.2,5.6,28.35,8.64,43.76
		C864.66,931.65,850.91,933.99,835.96,936.54z M890.69,927.12c-3.2-15.6-6.13-29.95-9.13-44.55c12.93-3.85,25.35-7.55,38.52-11.47
		c5.55,13.41,11.08,26.75,17.03,41.12C921.27,917.3,906.25,922.12,890.69,927.12z M948.01,907.01
		c-6.22-14.2-12.02-27.42-17.98-41.02c12.44-7.24,24.56-14.29,36.96-21.51c7.27,11.25,14.81,22.92,23.12,35.78
		C976.2,889.1,962.81,897.61,948.01,907.01z"/>
	<g>
		<text transform="matrix(1 0 0 1 54.9333 116.6655)" class="st14 st15 st16">01</text>
	</g>
	<g>
		<text transform="matrix(0.6799 -0.7333 0.7333 0.6799 494.8188 535.0898)" class="st14 st15 st16">02</text>
	</g>
	<g>
		<text transform="matrix(0.9986 -0.053 0.053 0.9986 841.182 919.2756)" class="st14 st15 st16">03</text>
	</g>
	<g>
		<text transform="matrix(0.9986 -0.053 0.053 0.9986 1065.4507 689.595)" class="st14 st15 st16">04</text>
	</g>
	<g>
		<text transform="matrix(0.9424 -0.3345 0.3345 0.9424 1201.1387 301.3669)" class="st14 st15 st16">05</text>
	</g>
	<g>
		<text transform="matrix(0.9975 0.0714 -0.0714 0.9975 1824.9204 305.0256)" class="st14 st15 st16">06</text>
	</g>
</g>
</svg>
