<svg width="163" height="146" viewBox="0 0 163 146" fill="none" xmlns="http://www.w3.org/2000/svg">
<path d="M136.671 68.0021C140.245 68.304 143.822 67.4689 147.148 65.8459C150.248 64.3335 153.575 67.5553 152.182 70.7113C150.357 74.8478 147.525 78.3935 144.017 81.2539L131.212 82.338L124.383 69.5823L136.671 68.0021Z" fill="#00A62C"/>
<path d="M50.696 60.7995C34.24 42.263 4.38643 44.2519 4.96006 64.8802C5.29812 77.0375 27.3996 90.4959 47.9062 82.7943C58.3671 81.4831 63.8954 73.3644 62.5508 68.1817C61.5572 64.3511 56.6047 61.3355 50.696 60.7995ZM75.018 113.401C82.1963 113.476 84.4672 111.394 85.3257 109.975C90.3446 101.684 68.3568 80.9513 66.6767 79.3875C61.9881 78.931 57.3343 81.092 54.6224 85.08C49.5379 91.6064 50.0391 95.9841 50.3246 97.4477C51.6816 104.426 60.7989 110.465 75.018 113.401Z" fill="#55D47B"/>
<path d="M75.0193 113.401C78.5094 114.122 82.3047 114.655 86.3703 114.97C93.5744 115.528 97.0806 106.462 91.5818 101.48C87.0606 97.382 81.7677 93.94 77.9627 89.0114C76.5102 83.6056 71.8388 79.8463 66.6779 79.3873C67.9609 81.3796 68.6819 83.6814 68.765 86.0495C71.3627 91.7083 75.7471 96.2521 79.23 101.264C82.6148 106.136 79.8055 112.252 75.0193 113.401Z" fill="#00C755"/>
<path d="M104.207 85.9828C114.655 95.2127 128.686 99.6312 143.02 97.2022C143.421 97.0714 145.91 96.2135 147.124 93.529C148.317 90.8931 147.374 88.5019 147.21 88.1056L126.404 74.0597L108.861 72.6187C105.379 75.9244 103.593 80.8946 104.207 85.9828Z" fill="#55D47B"/>
<path d="M108.862 72.6187C121.2 71.0669 126.43 84.2353 137.478 85.3793C143.787 86.0331 145.849 92.9261 143.021 97.2022C144.283 96.9884 145.535 96.7243 146.776 96.4105C154.966 94.3368 154.098 82.3877 145.694 81.5176C138.639 80.7857 135.328 75.8884 130.489 73.4671C124.537 67.4837 114.892 66.8944 108.862 72.6187Z" fill="#00C755"/>
<path d="M25.1853 73.2441C20.8468 73.0808 17.4351 70.1477 17.5651 66.6928C17.6952 63.2379 21.3176 60.5695 25.6562 60.7328C29.9947 60.8961 33.4063 63.8292 33.2763 67.2841C33.1462 70.739 29.5238 73.4074 25.1853 73.2441Z" fill="#FFA0AB"/>
<path d="M21.9176 62.6139C22.2515 62.4573 22.5358 62.2118 22.7394 61.9043C22.943 61.5968 23.0579 61.2392 23.0717 60.8707L23.1921 57.6593C23.202 57.3957 23.1599 57.1328 23.0682 56.8855C22.9765 56.6382 22.837 56.4114 22.6576 56.218C22.4782 56.0247 22.2625 55.8685 22.0228 55.7585C21.7831 55.6485 21.5241 55.5868 21.2605 55.5769C20.7282 55.5569 20.2098 55.7492 19.8193 56.1114C19.6259 56.2908 19.4697 56.5065 19.3597 56.7462C19.2497 56.9859 19.188 57.245 19.1781 57.5085L19.0576 60.7199C19.001 62.2286 20.5673 63.2486 21.9176 62.6139Z" fill="#495560"/>
<path d="M61.1778 84.1009L119.43 75.9755C122.951 62.9912 119.097 49.1567 109.42 40.1971C98.7657 30.3326 82.8281 28.021 69.3968 34.4652C62.0473 38.76 55.9763 45.3655 52.6401 54.0381L61.1778 84.1009Z" fill="#C76D33"/>
<path d="M75.8975 33.4645C93.5381 32.8243 110.47 43.0849 116.669 60.6836C116.626 60.8004 118.732 65.7933 119.427 75.9756L123.092 75.4632L121.759 43.2858C116.089 36.0383 108.465 31.5908 100.295 29.7082L75.8975 33.4645Z" fill="#A05423"/>
<path d="M49.8992 71.7075C49.9801 72.4219 50.4133 75.5559 52.9932 77.4097C55.9997 79.5697 60.7251 79.1316 64.1807 75.9785C69.5596 73.4503 72.0463 69.0223 71.8756 64.7067C71.5477 56.2725 61.5775 50.9509 52.64 54.0379C50.6504 59.2103 49.6336 65.1181 49.8992 71.7075ZM107.066 61.7778C108.775 65.4144 112.421 68.0977 118.523 68.2996C123.649 65.718 125.928 59.6017 123.821 54.4274C121.631 49.0458 115.349 46.2859 109.763 48.4019C106.235 52.1907 105.004 57.3911 107.066 61.7778Z" fill="#DF8A57"/>
<path d="M118.521 68.2996C123.763 68.47 128.221 65.1727 129.775 60.2877C127.072 49.2708 121.951 43.6926 121.76 43.2857C117.28 43.1979 112.792 45.1387 109.76 48.402C112.66 51.9154 115.027 56.0195 116.669 60.6836C116.635 60.7798 117.598 62.8586 118.521 68.2996Z" fill="#C76D33"/>
<path d="M86.0852 47.4418C92.5151 47.2218 97.9834 44.2817 100.514 40.1982C95.8389 28.3291 81.4624 28.4064 70.0438 34.094C69.8252 34.2145 69.6088 34.3397 69.3926 34.4652C69.3335 34.9443 69.3122 35.4272 69.3287 35.9096C69.5582 42.5865 77.0605 47.751 86.0852 47.4418Z" fill="#DF8A57"/>
<path d="M70.0465 34.0941C80.2283 32.2496 91.2863 34.2688 100.517 40.1983C102.618 36.8027 102.497 32.9162 100.297 29.7083L100.296 29.706C90.15 27.364 79.1649 28.9796 70.0465 34.0941Z" fill="#C76D33"/>
<path d="M81.2364 77.9118C87.8116 77.9312 94.2721 77.096 100.515 75.4195C101.631 67.5686 93.5367 61.4512 86.2427 64.8796C81.3301 67.1886 79.1501 72.9505 81.2364 77.9118Z" fill="#DF8A57"/>
<path d="M47.226 82.5321C69.817 91.3416 94.8726 91.671 117.466 81.0515C118.449 80.5894 120.196 79.7189 120.364 79.6185C124.373 76.8633 127.276 72.7764 128.557 68.0836L118.453 67.9029C106.755 74.5671 94.7001 77.9516 81.2369 77.9118C71.2368 77.8842 61.1871 75.8833 51.3938 72.066C48.5051 70.94 45.2191 72.3559 44.0651 75.2532C42.9145 78.1434 44.3279 81.4027 47.226 82.5321Z" fill="#FBEB78"/>
<path d="M120.366 79.6185C125.607 76.9091 130.555 73.6681 135.133 69.9465C137.556 67.9818 137.928 64.4402 135.966 62.0422C134.003 59.6417 130.45 59.2906 128.027 61.2554C124.961 63.747 121.762 65.9635 118.454 67.9029C119.111 68.2807 120.983 69.481 121.853 71.8477C123.206 75.5318 120.956 78.8469 120.366 79.6185Z" fill="#FFCE6B"/>
</svg>
