<svg width="173" height="173" viewBox="0 0 173 173" fill="none" xmlns="http://www.w3.org/2000/svg">
<g clip-path="url(#clip0_422_686)">
<path d="M117.932 59.5152C110.523 54.8012 101.639 52.5561 92.9401 52.9433C71.0202 53.8548 51.8695 70.4374 50.4436 94.2581C49.9722 102.962 51.9639 111.996 56.4101 119.644C60.9127 127.121 67.7542 132.983 75.6727 136.721C83.5334 140.345 92.471 141.846 101.108 140.486C109.745 139.126 117.853 135.021 124.177 129.093C130.502 123.165 135.271 115.298 137.289 106.816C139.42 97.9897 138.457 88.721 134.923 80.3239C131.617 71.8112 125.627 64.514 117.932 59.5152Z" fill="#FF986D"/>
<path d="M143.538 62.7638C141.41 60.8282 138.494 61.587 136.152 62.6292C133.125 64.0183 130.328 65.5779 127.533 67.4238C127.418 67.4816 127.304 67.5394 127.304 67.5394C127.362 67.6536 127.478 67.882 127.535 67.9962C127.593 68.1104 127.765 68.1668 127.823 68.281C127.881 68.3952 128.111 68.5657 128.169 68.6799C129.139 68.0454 130.166 67.525 131.136 66.8904C133.248 65.6777 135.646 64.4635 137.99 63.7076C138.847 63.4171 139.99 63.1251 140.85 63.407C141.71 63.6889 142.286 64.2584 142.69 65.0578C143.615 66.885 143.225 68.9477 142.203 70.6129C141.068 72.6222 139.532 74.4045 137.995 76.1868C136.402 78.1411 134.751 79.9812 133.1 81.8213C129.799 85.5015 126.381 88.9533 122.792 92.3487C115.613 99.1396 107.802 105.247 99.7009 110.783C91.4281 116.263 82.6941 121.115 73.7274 125.224C69.1581 127.251 64.6451 129.105 59.9023 130.789C57.8453 131.544 55.9025 132.241 53.6721 132.652C52.1283 133.004 50.1826 133.128 48.6908 132.449C48.117 132.165 47.6573 131.824 47.426 131.367C46.9606 129.881 46.9534 128.45 47.575 126.844C48.081 125.01 48.9888 123.402 49.8388 121.681C50.2928 120.877 50.6889 119.959 51.1991 118.984C51.5952 118.066 52.2212 117.318 52.7893 116.457C53.301 115.767 53.6985 115.136 54.2103 114.446C54.0368 114.104 53.8056 113.647 53.6321 113.304C53.4037 113.42 53.2331 113.65 53.0047 113.765C51.8642 114.63 50.9535 115.665 49.9286 116.757C48.9037 117.85 47.8788 118.943 47.1415 120.321C46.3465 121.584 45.7812 123.018 45.1582 124.338C44.0263 126.919 43.1271 130.244 45.4283 132.522C46.0614 133.206 47.0386 134.002 48.0707 134.341C49.1028 134.679 50.1912 134.845 51.2783 134.725C53.6822 134.656 56.0254 133.9 58.2544 133.202C61.1686 132.157 64.0828 131.112 66.997 130.067C72.5955 127.806 78.1926 125.259 83.5599 122.542C94.4651 116.877 104.736 110.242 114.314 102.524C123.778 94.8625 132.493 86.2894 140.289 77.0339C142.053 74.8498 144.217 72.6064 145.177 69.9683C145.794 67.5037 145.435 64.5288 143.538 62.7638Z" fill="black"/>
<path d="M85.8354 62.7104C85.7198 62.482 85.4899 62.3115 85.2601 62.1409C85.0881 62.0845 84.9161 62.0281 84.6862 61.8575C84.3422 61.7448 83.884 61.6898 83.5414 61.8633C83.313 61.9789 83.1988 62.0368 82.9126 62.0382C82.57 62.2116 82.2852 62.4993 82.0004 62.7869C81.8862 62.8448 81.8298 63.0168 81.7156 63.0746C81.5451 63.3044 81.4323 63.6485 81.3759 63.8205C81.2632 64.1645 81.2646 64.4507 81.3803 64.6791C81.3817 64.9653 81.5551 65.3079 81.785 65.4785C81.9006 65.7069 82.1304 65.8775 82.3603 66.048C82.5323 66.1044 82.7043 66.1608 82.9341 66.3314C83.2782 66.4441 83.7364 66.4991 84.079 66.3256C84.3074 66.21 84.4216 66.1522 84.7078 66.1507C85.0504 65.9773 85.3352 65.6896 85.6199 65.402C85.7341 65.3442 85.7905 65.1722 85.9047 65.1143C86.0753 64.8845 86.1881 64.5405 86.2444 64.3685C86.3572 64.0244 86.3558 63.7382 86.2401 63.5098C86.0667 63.1672 85.951 62.9388 85.8354 62.7104Z" fill="#E6EAEC"/>
<path d="M81.9819 82.8796C79.4696 84.1516 81.4932 88.1485 84.0055 86.8765C86.6321 85.5467 84.6085 81.5498 81.9819 82.8796Z" fill="#E6EAEC"/>
<path d="M102.174 68.0664C100.004 69.165 101.681 72.4767 103.851 71.3781C106.078 70.3938 104.344 66.9679 102.174 68.0664Z" fill="#E6EAEC"/>
<path d="M110.496 84.2244C110.093 83.7112 109.461 83.3137 108.831 83.2024C108.143 82.9769 107.57 82.9797 106.883 83.0404C106.255 83.2153 105.57 83.5622 105.056 83.9655L104.942 84.0233C104.429 84.4266 104.031 85.0583 103.806 85.7464C103.58 86.4344 103.469 87.0647 103.702 87.8077C103.934 88.5507 104.224 89.1217 104.685 89.749C105.088 90.2622 105.72 90.6597 106.408 90.8853C107.096 91.1108 107.726 91.2221 108.469 90.9894C109.212 90.7567 109.783 90.4676 110.41 90.0065C110.924 89.6032 111.321 88.9715 111.547 88.2835C111.772 87.5954 111.883 86.9651 111.651 86.2221L111.593 86.1079C111.246 85.4228 110.899 84.7376 110.496 84.2244Z" fill="#E6EAEC"/>
<path d="M92.0943 100.861C91.8066 100.576 91.4048 100.349 91.0607 100.236C90.8887 100.18 90.6025 100.181 90.4305 100.125C89.9723 100.07 89.5719 100.129 89.1151 100.36C88.7725 100.534 88.5441 100.65 88.4313 100.994C88.2607 101.223 88.0902 101.453 87.9774 101.797C87.8646 102.141 87.8661 102.428 87.8675 102.714C87.869 103 87.9282 103.4 88.0439 103.629C88.1595 103.857 88.2173 103.971 88.4471 104.142C88.7348 104.427 89.1366 104.654 89.4807 104.766C89.6527 104.823 89.9389 104.821 90.1109 104.878C90.5691 104.933 90.9696 104.873 91.4263 104.642C91.7689 104.469 91.9973 104.353 92.1101 104.009C92.2807 103.779 92.4512 103.549 92.564 103.205C92.6768 102.861 92.6753 102.575 92.6739 102.289C92.6725 102.003 92.5568 101.774 92.3834 101.432C92.3255 101.317 92.2099 101.089 92.0943 100.861Z" fill="#E6EAEC"/>
<path d="M125.509 98.0023C119.685 100.951 124.252 109.973 130.076 107.024C135.9 104.075 131.333 95.0536 125.509 98.0023Z" fill="#E6EAEC"/>
<path d="M112.187 112.781C111.899 112.496 111.669 112.326 111.325 112.213C111.153 112.156 110.981 112.1 110.809 112.044C110.409 112.103 110.122 112.104 109.78 112.278C109.551 112.393 109.323 112.509 109.152 112.739C108.982 112.969 108.811 113.199 108.755 113.371C108.584 113.6 108.586 113.887 108.701 114.115C108.703 114.401 108.704 114.688 108.934 114.858C108.992 114.972 109.108 115.201 109.28 115.257C109.567 115.542 109.797 115.712 110.141 115.825C110.313 115.882 110.485 115.938 110.657 115.994C111.058 115.935 111.344 115.934 111.686 115.76C111.915 115.645 112.143 115.529 112.314 115.299C112.484 115.069 112.655 114.839 112.711 114.667C112.882 114.438 112.88 114.151 112.765 113.923C112.763 113.637 112.762 113.351 112.532 113.18C112.416 112.952 112.359 112.837 112.187 112.781Z" fill="#E6EAEC"/>
<path d="M123.851 75.7427C123.506 75.3437 123.104 75.1167 122.588 74.9476C122.416 74.8912 122.13 74.8927 121.958 74.8363C121.499 74.7813 120.985 74.8984 120.528 75.1297C120.185 75.3031 119.901 75.5908 119.73 75.8206C119.445 76.1083 119.275 76.3381 119.22 76.7963C119.107 77.1404 118.994 77.4844 119.053 77.8848C119.113 78.2852 119.114 78.5714 119.288 78.914C119.403 79.1424 119.633 79.313 119.749 79.5414C120.094 79.9404 120.496 80.1673 121.012 80.3365C121.184 80.3928 121.47 80.3914 121.642 80.4478C122.101 80.5027 122.615 80.3856 123.072 80.1544C123.415 79.9809 123.699 79.6933 123.87 79.4634C124.155 79.1758 124.325 78.9459 124.38 78.4877C124.493 78.1437 124.606 77.7997 124.546 77.3992C124.487 76.9988 124.314 76.6562 124.14 76.3136C124.025 76.0853 123.967 75.9711 123.851 75.7427Z" fill="#E6EAEC"/>
<path d="M70.2691 86.6592C68.5561 87.5265 69.8859 90.1531 71.5989 89.2858C73.3119 88.4185 71.9821 85.792 70.2691 86.6592Z" fill="#E6EAEC"/>
<path d="M91.3861 73.6735C91.1563 73.5029 90.9264 73.3323 90.7544 73.2759C90.5824 73.2196 90.4682 73.2774 90.4104 73.1632C90.1242 73.1646 89.838 73.1661 89.6096 73.2817C89.3812 73.3973 89.267 73.4551 89.0964 73.685C88.868 73.8006 88.8116 73.9726 88.8131 74.2588C88.7567 74.4309 88.7003 74.6029 88.7017 74.8891C88.6454 75.0611 88.761 75.2895 88.8766 75.5179C88.9345 75.6321 88.9923 75.7463 89.0501 75.8605C89.2799 76.0311 89.5098 76.2016 89.6818 76.258L90.0258 76.3708C90.312 76.3693 90.5982 76.3679 90.8266 76.2523C91.055 76.1366 91.1692 76.0788 91.3398 75.849C91.5682 75.7333 91.6246 75.5613 91.6231 75.2751C91.6795 75.1031 91.7359 74.9311 91.7344 74.6449C91.7908 74.4729 91.6752 74.2445 91.5596 74.0161C91.5017 73.9019 91.4439 73.7877 91.3861 73.6735Z" fill="#E6EAEC"/>
<path d="M103.292 96.6253C101.236 97.6661 102.797 100.749 104.853 99.7087C106.966 98.7821 105.347 95.5846 103.292 96.6253Z" fill="#E6EAEC"/>
<path d="M96.9173 126.825C96.2841 126.141 95.4226 125.573 94.5625 125.291C94.1043 125.236 93.5883 125.067 93.13 125.012C92.0994 124.96 91.1844 125.137 90.2708 125.599C89.5856 125.946 88.9582 126.407 88.5607 127.039C88.1053 127.556 87.7078 128.188 87.4823 128.876C87.2568 129.564 87.2033 130.309 87.264 130.995C87.2105 131.74 87.4432 132.483 87.7901 133.168C88.1356 133.567 88.3668 134.024 88.7123 134.423C89.3454 135.106 90.2069 135.674 91.067 135.956C91.5252 136.011 92.0413 136.18 92.4995 136.235C93.5302 136.287 94.4452 136.111 95.3588 135.649C96.044 135.302 96.6713 134.841 97.0689 134.209C97.5242 133.691 97.9217 133.06 98.1473 132.372C98.3728 131.684 98.4263 130.939 98.3656 130.253C98.4191 129.508 98.1864 128.765 97.8395 128.08C97.494 127.681 97.1485 127.282 96.9173 126.825Z" fill="#E6EAEC"/>
<path d="M38.9144 101.529L34.4578 103.211L33.3359 107.796L30.4551 104.09L25.6487 104.515L28.2045 100.495L26.4657 96.2103L31.0508 97.3321L34.6994 94.3371L34.9522 99.0871L38.9144 101.529Z" fill="black"/>
<path d="M100.061 34.9899L94.1517 32.3864L88.8451 35.7904L89.3859 29.4909L84.4423 25.3941L90.7318 23.9314L93.0491 18.0236L96.2826 23.5601L102.639 23.9288L98.484 28.7582L100.061 34.9899Z" fill="black"/>
<path d="M160.538 97.1965L156.708 98.4179L155.582 102.144L153.219 98.8933L149.27 99.0277L151.658 95.81L150.322 92.0386L154.107 93.279L157.358 90.9156L157.32 94.8084L160.538 97.1965Z" fill="black"/>
</g>
<defs>
<clipPath id="clip0_422_686">
<rect width="128" height="128" fill="white" transform="translate(0 57.818) rotate(-26.853)"/>
</clipPath>
</defs>
</svg>
