<svg width="1926" height="560" viewBox="0 0 1926 560" fill="none" xmlns="http://www.w3.org/2000/svg">
<g clip-path="url(#clip0_27_28)">
<path d="M0 560H1926.11C1926.11 560 1932.25 11.2933 1922.39 10.7556C1912.53 10.2178 0 -1.5974e-05 0 -1.5974e-05L0 560Z" fill="url(#paint0_linear_27_28)"/>
<path d="M1033.71 17.2087C1036.87 17.2087 1039.44 19.4353 1039.44 22.182C1039.44 24.9287 1036.87 27.1553 1033.71 27.1553C1030.55 27.1553 1027.98 24.9287 1027.98 22.182C1027.98 19.4353 1030.55 17.2087 1033.71 17.2087Z" fill="white"/>
<path d="M192.779 270.582C193.286 273.293 191.166 275.848 188.044 276.288C184.922 276.728 181.98 274.887 181.473 272.176C180.966 269.464 183.087 266.91 186.209 266.47C189.331 266.03 192.272 267.871 192.779 270.582Z" fill="white"/>
<path d="M596.34 141.993C599.503 141.993 602.067 144.22 602.067 146.966C602.067 149.713 599.503 151.939 596.34 151.939C593.177 151.939 590.613 149.713 590.613 146.966C590.613 144.22 593.177 141.993 596.34 141.993Z" fill="white"/>
<path d="M1146.24 141.993C1149.4 141.993 1151.97 144.22 1151.97 146.966C1151.97 149.713 1149.4 151.939 1146.24 151.939C1143.08 151.939 1140.51 149.713 1140.51 146.966C1140.51 144.22 1143.08 141.993 1146.24 141.993Z" fill="white"/>
<path d="M483.011 102.214C483.011 101.722 482.843 101.241 482.529 100.832C482.214 100.423 481.767 100.104 481.243 99.9162C480.72 99.728 480.144 99.6787 479.589 99.7747C479.034 99.8706 478.523 100.107 478.123 100.455C477.722 100.803 477.45 101.246 477.339 101.728C477.229 102.211 477.285 102.711 477.502 103.165C477.719 103.62 478.086 104.008 478.557 104.281C479.028 104.554 479.581 104.7 480.148 104.7C480.907 104.7 481.635 104.438 482.172 103.972C482.709 103.506 483.011 102.873 483.011 102.214Z" fill="white"/>
<path d="M-0.000142581 418.028L-0.000150183 267L4.68416 299.641C4.68416 299.641 29.3447 301.813 8.58268 319.98C61.1223 313.655 55.2217 343.003 15.594 358.493C15.594 358.493 38.26 380.584 3.36198 395.642L-0.000142581 418.028Z" fill="#DFDFDF"/>
<path d="M926.072 155.771C929.235 155.771 931.799 157.998 931.799 160.744C931.799 163.491 929.235 165.718 926.072 165.718C922.909 165.718 920.345 163.491 920.345 160.744C920.345 157.998 922.909 155.771 926.072 155.771Z" fill="white"/>
<path d="M740.158 113.104L736.085 113.951C735.795 114.009 735.492 114.006 735.203 113.942C734.914 113.878 734.647 113.755 734.423 113.583L731.318 111.149C731.062 110.949 730.746 110.815 730.407 110.762C730.067 110.709 729.718 110.74 729.397 110.85C729.077 110.961 728.798 111.147 728.593 111.387C728.388 111.628 728.264 111.914 728.235 112.212L727.903 115.834C727.88 116.092 727.784 116.342 727.625 116.561C727.466 116.781 727.247 116.963 726.989 117.093L723.362 118.911C723.064 119.06 722.819 119.278 722.656 119.542C722.493 119.805 722.418 120.103 722.44 120.401C722.462 120.7 722.58 120.987 722.781 121.23C722.981 121.474 723.256 121.663 723.574 121.778L727.435 123.175C727.713 123.273 727.959 123.429 728.152 123.63C728.344 123.83 728.477 124.068 728.538 124.324L729.399 127.873C729.472 128.165 729.637 128.434 729.876 128.649C730.115 128.864 730.419 129.017 730.752 129.09C731.086 129.164 731.436 129.155 731.764 129.065C732.092 128.976 732.385 128.808 732.61 128.582L735.33 125.826C735.525 125.628 735.773 125.475 736.052 125.379C736.331 125.283 736.633 125.247 736.932 125.275L741.087 125.655C741.43 125.688 741.778 125.636 742.089 125.506C742.4 125.376 742.663 125.172 742.847 124.918C743.031 124.664 743.13 124.371 743.131 124.071C743.133 123.771 743.037 123.476 742.855 123.221L740.679 120.125C740.522 119.903 740.43 119.652 740.41 119.392C740.391 119.133 740.444 118.873 740.566 118.635L742.273 115.322C742.413 115.048 742.463 114.746 742.416 114.45C742.369 114.153 742.227 113.874 742.007 113.643C741.787 113.413 741.498 113.24 741.171 113.145C740.844 113.05 740.493 113.036 740.158 113.104Z" fill="#F5E6C7"/>
<path d="M817.36 98.9883L810.197 104.086C809.683 104.45 809.075 104.7 808.425 104.815C807.774 104.929 807.102 104.904 806.465 104.742L797.565 102.512C796.832 102.329 796.054 102.327 795.32 102.507C794.586 102.687 793.925 103.042 793.41 103.531C792.896 104.02 792.549 104.624 792.409 105.275C792.268 105.926 792.34 106.598 792.616 107.216L795.963 114.715C796.204 115.251 796.291 115.829 796.217 116.401C796.144 116.972 795.911 117.52 795.54 117.996L790.342 124.655C789.914 125.204 789.671 125.847 789.641 126.509C789.611 127.172 789.795 127.829 790.172 128.405C790.549 128.982 791.105 129.456 791.776 129.773C792.446 130.09 793.206 130.237 793.968 130.199L803.216 129.727C803.879 129.694 804.541 129.802 805.145 130.041C805.749 130.28 806.277 130.643 806.684 131.098L812.373 137.443C812.841 137.966 813.469 138.366 814.185 138.596C814.9 138.826 815.676 138.878 816.424 138.745C817.172 138.611 817.862 138.299 818.416 137.843C818.97 137.386 819.366 136.805 819.558 136.163L821.908 128.382C822.075 127.824 822.397 127.311 822.844 126.885C823.292 126.46 823.852 126.136 824.477 125.941L833.188 123.205C833.907 122.981 834.539 122.586 835.012 122.065C835.485 121.544 835.781 120.919 835.866 120.26C835.951 119.601 835.822 118.934 835.493 118.336C835.163 117.737 834.648 117.231 834.004 116.874L826.207 112.53C825.649 112.219 825.186 111.795 824.858 111.295C824.531 110.794 824.348 110.232 824.326 109.657L824.024 101.613C823.993 100.954 823.753 100.316 823.329 99.7693C822.905 99.2226 822.314 98.789 821.623 98.5168C820.932 98.2446 820.167 98.1445 819.414 98.2278C818.662 98.3111 817.95 98.5744 817.36 98.9883Z" fill="#F5E6C7"/>
<path d="M1475.97 155.771C1479.13 155.771 1481.7 157.998 1481.7 160.744C1481.7 163.491 1479.13 165.718 1475.97 165.718C1472.81 165.718 1470.24 163.491 1470.24 160.744C1470.24 157.998 1472.81 155.771 1475.97 155.771Z" fill="white"/>
<path d="M1290.06 113.104L1285.98 113.951C1285.69 114.009 1285.39 114.006 1285.1 113.942C1284.81 113.878 1284.55 113.755 1284.32 113.583L1281.22 111.149C1280.96 110.949 1280.64 110.815 1280.31 110.762C1279.97 110.709 1279.62 110.74 1279.3 110.85C1278.98 110.961 1278.7 111.147 1278.49 111.387C1278.29 111.628 1278.16 111.914 1278.13 112.212L1277.8 115.834C1277.78 116.092 1277.68 116.342 1277.52 116.561C1277.36 116.781 1277.15 116.963 1276.89 117.093L1273.26 118.911C1272.96 119.06 1272.72 119.278 1272.55 119.542C1272.39 119.805 1272.32 120.103 1272.34 120.401C1272.36 120.7 1272.48 120.987 1272.68 121.23C1272.88 121.474 1273.15 121.663 1273.47 121.778L1277.33 123.175C1277.61 123.273 1277.86 123.429 1278.05 123.63C1278.24 123.83 1278.37 124.068 1278.44 124.324L1279.3 127.873C1279.37 128.165 1279.54 128.434 1279.77 128.649C1280.01 128.864 1280.32 129.017 1280.65 129.09C1280.98 129.164 1281.33 129.155 1281.66 129.065C1281.99 128.976 1282.28 128.808 1282.51 128.582L1285.23 125.826C1285.42 125.628 1285.67 125.475 1285.95 125.379C1286.23 125.283 1286.53 125.247 1286.83 125.275L1290.99 125.655C1291.33 125.688 1291.68 125.636 1291.99 125.506C1292.3 125.376 1292.56 125.172 1292.75 124.918C1292.93 124.664 1293.03 124.371 1293.03 124.071C1293.03 123.771 1292.94 123.476 1292.75 123.221L1290.58 120.125C1290.42 119.903 1290.33 119.652 1290.31 119.392C1290.29 119.133 1290.34 118.873 1290.46 118.635L1292.17 115.322C1292.31 115.048 1292.36 114.746 1292.31 114.45C1292.27 114.153 1292.13 113.874 1291.91 113.643C1291.69 113.413 1291.4 113.24 1291.07 113.145C1290.74 113.05 1290.39 113.036 1290.06 113.104Z" fill="#F5E6C7"/>
<path d="M1367.26 98.9883L1360.1 104.086C1359.58 104.45 1358.97 104.7 1358.32 104.815C1357.67 104.929 1357 104.904 1356.36 104.742L1347.46 102.512C1346.73 102.329 1345.95 102.327 1345.22 102.507C1344.48 102.687 1343.82 103.042 1343.31 103.531C1342.79 104.02 1342.45 104.624 1342.31 105.275C1342.17 105.926 1342.24 106.598 1342.51 107.216L1345.86 114.715C1346.1 115.251 1346.19 115.829 1346.12 116.401C1346.04 116.972 1345.81 117.52 1345.44 117.996L1340.24 124.655C1339.81 125.204 1339.57 125.847 1339.54 126.509C1339.51 127.172 1339.69 127.829 1340.07 128.405C1340.45 128.982 1341 129.456 1341.67 129.773C1342.34 130.09 1343.1 130.237 1343.87 130.199L1353.11 129.727C1353.78 129.694 1354.44 129.802 1355.04 130.041C1355.65 130.28 1356.18 130.643 1356.58 131.098L1362.27 137.443C1362.74 137.966 1363.37 138.366 1364.08 138.596C1364.8 138.826 1365.57 138.878 1366.32 138.745C1367.07 138.611 1367.76 138.299 1368.31 137.843C1368.87 137.386 1369.26 136.805 1369.46 136.163L1371.81 128.382C1371.97 127.824 1372.3 127.311 1372.74 126.885C1373.19 126.46 1373.75 126.136 1374.38 125.941L1383.09 123.205C1383.81 122.981 1384.44 122.586 1384.91 122.065C1385.38 121.544 1385.68 120.919 1385.76 120.26C1385.85 119.601 1385.72 118.934 1385.39 118.336C1385.06 117.737 1384.55 117.231 1383.9 116.874L1376.11 112.53C1375.55 112.219 1375.08 111.795 1374.76 111.295C1374.43 110.794 1374.25 110.232 1374.22 109.657L1373.92 101.613C1373.89 100.954 1373.65 100.316 1373.23 99.7693C1372.8 99.2226 1372.21 98.789 1371.52 98.5168C1370.83 98.2446 1370.07 98.1445 1369.31 98.2278C1368.56 98.3111 1367.85 98.5744 1367.26 98.9883Z" fill="#F5E6C7"/>
<g style="mix-blend-mode:soft-light">
<path d="M1360.34 411.677C1361.74 411.677 1362.87 412.244 1362.87 412.944C1362.87 413.643 1361.74 414.21 1360.34 414.21C1358.94 414.21 1357.81 413.643 1357.81 412.944C1357.81 412.244 1358.94 411.677 1360.34 411.677Z" fill="white"/>
</g>
<g style="mix-blend-mode:soft-light">
<path d="M1343.4 466.613C1346.79 466.613 1349.54 467.988 1349.54 469.683C1349.54 471.379 1346.79 472.754 1343.4 472.754C1340.01 472.754 1337.27 471.379 1337.27 469.683C1337.27 467.988 1340.01 466.613 1343.4 466.613Z" fill="white"/>
</g>
<g style="mix-blend-mode:soft-light">
<path d="M1335.88 480.372C1335.88 479.4 1334.31 478.613 1332.37 478.613C1330.43 478.613 1328.85 479.4 1328.85 480.372C1328.85 481.343 1330.43 482.13 1332.37 482.13C1334.31 482.13 1335.88 481.343 1335.88 480.372Z" fill="white"/>
</g>
<path d="M1369.17 340.527C1368.98 340.514 1368.81 340.438 1368.69 340.315C1368.57 340.192 1368.51 340.033 1368.52 339.871C1368.52 339.694 1367.71 335.935 1369.62 317.879C1369.65 317.721 1369.74 317.577 1369.88 317.473C1370.02 317.369 1370.2 317.313 1370.38 317.314C1370.56 317.337 1370.73 317.416 1370.85 317.536C1370.97 317.657 1371.03 317.811 1371.03 317.971C1369.12 336.046 1369.94 339.773 1369.92 339.95C1369.9 340.109 1369.81 340.255 1369.67 340.362C1369.53 340.468 1369.35 340.527 1369.17 340.527Z" fill="#522260"/>
<path d="M1372.43 335.16C1372.34 335.15 1372.25 335.125 1372.17 335.084C1372.09 335.044 1372.01 334.99 1371.96 334.925C1371.9 334.86 1371.86 334.786 1371.83 334.707C1371.81 334.628 1371.8 334.546 1371.81 334.465C1371.81 334.32 1371.88 339.622 1370.85 317.924C1370.85 317.76 1370.92 317.601 1371.04 317.48C1371.17 317.358 1371.35 317.283 1371.54 317.268C1371.72 317.267 1371.91 317.328 1372.05 317.439C1372.19 317.549 1372.27 317.702 1372.29 317.865C1373.33 339.681 1373.27 334.478 1373.25 334.615C1373.22 334.779 1373.12 334.926 1372.97 335.027C1372.81 335.128 1372.62 335.176 1372.43 335.16Z" fill="#522260"/>
<path d="M1371.61 318.324C1371.42 318.31 1371.24 318.256 1371.08 318.167C1370.91 318.066 1370.77 317.924 1370.68 317.758C1370.6 317.593 1370.56 317.409 1370.59 317.229C1370.96 314.65 1372.24 308.437 1376.16 306.363C1376.92 305.97 1377.78 305.737 1378.67 305.685C1379.56 305.632 1380.45 305.761 1381.27 306.062C1382.95 306.6 1383.86 307.426 1383.96 308.502C1384.1 309.88 1382.76 312.964 1372.27 318.2C1372.07 318.299 1371.84 318.342 1371.61 318.324ZM1379.3 306.941C1378.46 306.876 1377.62 307.049 1376.91 307.433C1373.7 309.126 1372.48 314.545 1372.09 316.861C1378.62 313.541 1382.67 310.3 1382.54 308.62C1382.48 308.056 1381.89 307.597 1380.77 307.236C1380.3 307.079 1379.8 306.977 1379.3 306.934V306.941Z" fill="#522260"/>
<path d="M1370.6 318.666C1370.38 318.651 1370.18 318.583 1370.01 318.469C1365.95 315.845 1359.2 310.911 1359.61 307.887C1359.68 307.461 1359.88 307.06 1360.19 306.728C1360.5 306.395 1360.91 306.144 1361.38 306.004C1361.89 305.799 1362.45 305.697 1363.02 305.705C1363.58 305.712 1364.14 305.83 1364.64 306.049C1368.42 307.637 1370.9 314.539 1371.78 317.433C1371.85 317.631 1371.84 317.84 1371.75 318.033C1371.67 318.225 1371.52 318.389 1371.32 318.502C1371.11 318.626 1370.85 318.684 1370.6 318.666ZM1363.14 306.975C1362.74 306.949 1362.33 307.014 1361.96 307.165C1361.21 307.454 1361.06 307.821 1361.03 308.051C1360.81 309.671 1364.38 313.162 1370.17 317.033C1369.29 314.343 1367.05 308.457 1364.02 307.191C1363.75 307.064 1363.45 306.984 1363.14 306.955V306.975Z" fill="#522260"/>
<path d="M1380.16 319.591L1379.55 319.532C1375.33 319.197 1371.41 318.495 1371.37 318.488L1369.5 318.154L1371.16 317.34C1371.63 317.104 1382.78 311.685 1388.17 313.404C1388.77 313.58 1389.31 313.872 1389.76 314.257C1390.21 314.642 1390.56 315.111 1390.77 315.628C1391 316.042 1391.08 316.504 1391.02 316.96C1390.96 317.415 1390.74 317.845 1390.41 318.2C1389.12 319.532 1385.75 319.984 1380.16 319.591ZM1373.68 317.622C1379.56 318.508 1387.66 319.092 1389.34 317.399C1389.55 317.189 1389.78 316.828 1389.46 316.087C1389.31 315.739 1389.08 315.424 1388.78 315.166C1388.47 314.908 1388.11 314.714 1387.7 314.598C1385.77 313.981 1382.41 314.447 1378.08 315.91C1376.38 316.487 1374.81 317.124 1373.68 317.616V317.622Z" fill="#522260"/>
<path d="M1370.14 318.509C1369.43 318.456 1366.28 318.213 1363.02 317.689C1357.81 316.849 1354.97 315.72 1354.32 314.283C1354.07 313.739 1354.01 312.886 1355.07 311.882C1355.52 311.451 1356.08 311.11 1356.7 310.883C1357.31 310.657 1357.98 310.55 1358.65 310.57C1363.94 310.662 1370.57 317.19 1370.85 317.465L1372 318.607L1370.25 318.496L1370.14 318.509ZM1358.95 311.849H1358.65C1358.18 311.828 1357.72 311.898 1357.28 312.053C1356.85 312.209 1356.46 312.446 1356.14 312.748C1355.45 313.404 1355.6 313.732 1355.65 313.844C1356.36 315.432 1363.07 316.645 1368.5 317.124C1366.45 315.333 1362.29 312.085 1358.95 311.849Z" fill="#522260"/>
<path d="M0 0H1925.93V0C1925.93 9.43532 1917.25 17.2396 1907.87 18.3307C1899.83 19.2677 1889.24 21.3847 1876.44 25.8612C1863.04 30.5477 1841.62 56.1465 1848.7 135.511C1848.9 137.797 1848.77 140.157 1848.21 142.383C1838.74 180.032 1827.94 175.873 1824.95 175.856C1816.09 175.805 1800.21 175.21 1792.85 136.418C1786.97 105.384 1851.7 27.8008 1794.86 30.3869C1738.02 32.973 1780.82 115.729 1755.4 115.082C1729.99 114.436 1728.51 74.9974 1727.32 67.2391C1714.61 -15.5167 1700.22 28.8025 1682.51 27.8008C1663.19 26.7074 1666.46 2.58612 1629.68 9.05142C1592.9 15.5167 1580.87 31.0334 1534.72 23.9216C1488.58 16.8098 1501.23 71.3179 1469.86 71.7648C1451.34 72.0287 1444.3 35.8228 1426.55 31.6585C1424.28 31.1242 1421.93 31.6769 1419.72 32.4414C1395.23 40.911 1368.56 46.6606 1332.1 20.689C1304.01 7.75836 1312.84 12.7243 1282.62 12.9306C1199.69 47.1967 1141.51 55.6016 1079.32 26.2906C1079.32 26.2906 1044.95 12.891 1022.48 12.9306C1001.81 12.967 955.371 31.0134 932.872 31.0334C908.5 31.0551 899.436 35.5591 878.036 26.5077C860.686 20.5168 849.652 6.75411 834.824 11.4538C832.375 12.23 830.348 13.9313 828.547 15.7635C805.31 39.4046 790.103 30.5787 787.759 29.0938C768.366 16.8098 769.503 13.8859 758.335 14.8702C728.685 17.4833 741.561 43.3175 742.954 59.4807C744.347 75.644 730.917 87.2815 716.874 85.3419C702.83 83.4023 730.248 45.9036 719.549 26.5077C708.849 7.11183 671.097 11.0115 654.682 10.991C637.458 10.9695 603.549 32.3751 587.81 32.3265C563.561 32.2516 509.74 13.0756 489.507 12.9306C462.776 12.739 418.41 29.4225 399.898 29.0938C369.378 28.552 360.994 22.9566 357.768 21.982C327.522 12.8438 313.901 4.85375 285.574 25.0575C282.02 27.5928 277.438 29.7058 275.986 33.8236C272.566 43.5239 272.824 66.5224 272.839 87.5682C272.84 88.67 272.761 89.771 272.555 90.8534C269.15 108.751 258.022 117.298 255.453 117.022C249.965 116.432 236.134 120.144 228.162 105.112C226.52 102.016 226.342 98.3819 226.797 94.9067C231.239 60.9487 223.078 50.138 209.98 51.0758C193.862 52.2298 204.63 75.644 179.887 75.644C155.144 75.644 153.159 17.8975 136.42 19.3959C93.3336 23.2528 112.346 106.677 115.689 125.427C119.033 144.176 98.3026 144.823 88.9405 143.53C79.5783 142.237 70.2162 135.125 68.21 120.901C66.2038 106.677 81.9404 59.1844 72.2223 32.3265C65.2435 13.039 37.5793 29.3641 31.4301 29.0938C24.1558 28.7742 16.3909 26.0835 10.3991 23.4447C3.7419 20.5129 0 13.676 0 6.40177V0Z" fill="#FFC544"/>
<path d="M243.917 130.119C243.532 131.988 236.294 140.026 228.517 138.011C220.74 135.995 216.374 124.951 216.759 123.083C217.144 121.214 218.845 129.957 226.623 131.972C234.4 133.987 244.302 128.25 243.917 130.119Z" fill="white" fill-opacity="0.16"/>
<path d="M723.736 84.648C723.494 85.8209 718.951 90.8656 714.07 89.6009C709.189 88.3361 711.184 77.7516 711.426 76.5787C711.667 75.4057 711.073 84.4019 715.955 85.6666C720.836 86.9314 723.977 83.475 723.736 84.648Z" fill="white" fill-opacity="0.16"/>
<path d="M305.659 74.5345C305.46 75.4979 299.958 79.1822 293.348 77.4696C286.738 75.757 288.283 67.0392 288.482 66.0758C288.68 65.1124 288.829 72.6664 295.439 74.379C302.049 76.0916 305.857 73.5711 305.659 74.5345Z" fill="white" fill-opacity="0.16"/>
<path d="M1577.78 151.647C1577.01 153.363 1565.33 165.241 1558.19 161.237C1551.05 157.234 1550.16 139.16 1550.93 137.445C1551.69 135.729 1551.05 150.227 1558.19 154.231C1565.33 158.234 1578.54 149.931 1577.78 151.647Z" fill="white" fill-opacity="0.16"/>
<path d="M1518.91 104.275C1518.75 105.387 1513.73 114.278 1508.65 113.349C1503.57 112.42 1499.8 102.373 1499.96 101.261C1500.12 100.149 1502.32 108.461 1507.4 109.39C1512.48 110.319 1519.07 103.163 1518.91 104.275Z" fill="white" fill-opacity="0.16"/>
<path d="M792.907 30.354C792.142 32.0695 778.211 43.363 771.072 39.3599C763.933 35.3568 760.612 30.0779 761.377 28.3623C762.142 26.6468 763.933 31.3052 771.072 35.3083C778.211 39.3114 793.672 28.6384 792.907 30.354Z" fill="white" fill-opacity="0.16"/>
<path d="M881.405 35.8241C880.583 37.5061 853.766 45.1604 844.362 39.3799C834.958 33.5993 828.943 28.6709 829.765 26.9889C830.587 25.307 838.836 30.4495 848.24 36.2301C857.644 42.0106 882.228 34.1422 881.405 35.8241Z" fill="white" fill-opacity="0.16"/>
<path d="M482.917 28.8629C482.42 31.0168 465.868 36.8939 458.141 34.6511C452.767 33.0913 443.765 32.0202 438.342 29.3718C434.473 27.4823 435.956 24.3648 440.08 25.43C445.883 26.9292 454.356 29.78 459.173 31.1781C466.901 33.4209 483.346 27.006 482.917 28.8629Z" fill="white" fill-opacity="0.16"/>
<path d="M165.766 30.1577C166.263 32.3116 176.893 39.9072 181.408 38.5968C184.771 37.6208 190.724 37.6613 193.636 35.2447C195.674 33.5531 194.215 31.0519 191.695 31.6375C188.285 32.4298 183.306 34.2735 180.466 35.0978C175.951 36.4081 165.337 28.3008 165.766 30.1577Z" fill="white" fill-opacity="0.16"/>
<path d="M1238.54 42.4005C1237.67 44.4023 1220.41 46.5077 1213.23 42.6018C1208.27 39.904 1199.72 36.8883 1194.85 33.13C1191.33 30.4176 1193.32 27.6298 1197.22 29.6083C1202.64 32.3648 1210.4 37.0009 1214.85 39.4249C1222.03 43.3309 1239.28 40.6746 1238.54 42.4005Z" fill="white" fill-opacity="0.16"/>
<path d="M1384.51 27.4206C1384.32 29.1566 1368.86 35.277 1360.93 34.2202C1355.97 33.5589 1348.18 33.4755 1342.5 32.3108C1337.4 31.2645 1338.26 28.1805 1343.42 28.8097C1349.24 29.5196 1356.94 30.7975 1361.46 31.4001C1369.38 32.4569 1384.67 25.9241 1384.51 27.4206Z" fill="white" fill-opacity="0.16"/>
<path d="M1299.43 73.5C1298.38 74.6109 1285.22 71.1349 1283.52 67.2532C1282.58 65.1013 1280.91 62.9615 1280.11 60.9213C1278.94 57.8972 1282.14 56.9963 1283.59 59.8689C1284.7 62.0832 1285.87 64.8377 1286.71 66.7576C1288.41 70.6393 1302.44 70.3294 1299.43 73.5Z" fill="white" fill-opacity="0.16"/>
<path d="M1460.13 37.4378C1459.35 38.2551 1449.68 35.6978 1448.43 32.842C1447.91 31.6624 1447.09 30.4877 1446.47 29.3446C1444.93 26.5304 1447.66 25.648 1449.03 28.5666C1449.67 29.9256 1450.29 31.3851 1450.77 32.4774C1452.02 35.3332 1462.34 35.1052 1460.13 37.4378Z" fill="white" fill-opacity="0.16"/>
<path d="M1068.56 45.5267C1070.28 50.2335 1023.01 50.9122 1008.62 43.25C999.71 38.5064 990.24 33.4017 984.109 29.0676C979.029 25.4774 980.572 23.0739 986.066 25.8005C994.102 29.7886 1006.38 36.2126 1016.67 40.8515C1033.39 48.3874 1066.85 40.8199 1068.56 45.5267Z" fill="white" fill-opacity="0.16"/>
<path d="M628.479 32.336C627.981 34.4899 611.43 40.367 603.702 38.1242C598.328 36.5645 589.327 35.4933 583.904 32.8449C580.034 30.9554 581.518 27.838 585.641 28.9032C591.444 30.4024 599.918 33.2531 604.735 34.6513C612.462 36.8941 628.907 30.4791 628.479 32.336Z" fill="white" fill-opacity="0.16"/>
<path d="M357.619 105.804C363.253 102.413 364.007 105.046 358.854 109.198C357.672 110.15 356.416 111.029 355.15 111.714C350.619 114.162 346.083 113.576 342.762 111.714C340.211 110.283 336.803 99.7197 337.084 96.6641V96.6641C337.689 90.1044 341.461 91.8068 342.491 98.4018C343.074 102.134 344.554 106.062 347.408 107.662C350.459 109.373 354.264 107.823 357.619 105.804Z" fill="white" fill-opacity="0.16"/>
<path d="M1926.16 369.637L1926.16 589.248L1919.36 541.785C1919.36 541.785 1883.5 538.629 1913.69 512.261C1837.29 521.446 1845.88 478.799 1903.5 456.249C1903.5 456.249 1870.57 424.1 1921.29 402.238L1926.16 369.637Z" fill="white"/>
<path d="M1781.18 477.52C1784.34 477.52 1786.9 479.747 1786.9 482.494C1786.9 485.24 1784.34 487.467 1781.18 487.467C1778.01 487.467 1775.45 485.24 1775.45 482.494C1775.45 479.747 1778.01 477.52 1781.18 477.52Z" fill="white"/>
<path d="M1685.86 389.448L1681.1 390.432C1680.76 390.504 1680.4 390.503 1680.06 390.429C1679.72 390.354 1679.4 390.209 1679.14 390.006L1675.51 387.158C1675.21 386.923 1674.84 386.765 1674.44 386.703C1674.05 386.641 1673.64 386.676 1673.26 386.805C1672.89 386.934 1672.56 387.152 1672.32 387.433C1672.08 387.715 1671.94 388.049 1671.9 388.398L1671.51 392.637C1671.49 392.941 1671.37 393.235 1671.19 393.494C1671 393.752 1670.74 393.967 1670.44 394.12L1666.19 396.239C1665.84 396.415 1665.56 396.673 1665.37 396.982C1665.18 397.292 1665.09 397.641 1665.12 397.991C1665.15 398.341 1665.28 398.677 1665.52 398.962C1665.75 399.247 1666.08 399.47 1666.45 399.605L1670.98 401.232C1671.31 401.349 1671.59 401.534 1671.82 401.769C1672.04 402.005 1672.2 402.284 1672.27 402.583L1673.29 406.743C1673.37 407.089 1673.56 407.409 1673.84 407.665C1674.12 407.92 1674.48 408.102 1674.88 408.188C1675.27 408.275 1675.69 408.262 1676.07 408.153C1676.46 408.044 1676.8 407.841 1677.06 407.57L1680.25 404.342C1680.48 404.109 1680.77 403.928 1681.09 403.813C1681.42 403.699 1681.77 403.655 1682.12 403.686L1686.99 404.132C1687.39 404.163 1687.79 404.098 1688.15 403.944C1688.5 403.79 1688.81 403.553 1689.02 403.26C1689.23 402.967 1689.34 402.628 1689.35 402.281C1689.35 401.935 1689.24 401.594 1689.04 401.297L1686.47 397.689C1686.29 397.428 1686.18 397.134 1686.16 396.83C1686.14 396.526 1686.2 396.222 1686.34 395.943L1688.34 392.059C1688.51 391.738 1688.57 391.382 1688.52 391.031C1688.47 390.68 1688.3 390.349 1688.04 390.076C1687.78 389.803 1687.44 389.6 1687.06 389.488C1686.67 389.377 1686.25 389.363 1685.86 389.448Z" fill="#F5E6C7"/>
<g style="mix-blend-mode:soft-light">
<path d="M1813.53 403.137C1813.53 401.458 1810.81 400.093 1807.45 400.093C1804.08 400.093 1801.36 401.458 1801.36 403.137C1801.36 404.817 1804.08 406.182 1807.45 406.182C1810.81 406.182 1813.53 404.817 1813.53 403.137Z" fill="white"/>
</g>
<g style="mix-blend-mode:soft-light">
<path d="M1800.52 391.525C1802.45 391.525 1804.02 392.313 1804.02 393.284C1804.02 394.255 1802.45 395.042 1800.52 395.042C1798.58 395.042 1797.01 394.255 1797.01 393.284C1797.01 392.313 1798.58 391.525 1800.52 391.525Z" fill="white"/>
</g>
<g style="mix-blend-mode:soft-light">
<path d="M1816.3 395.041C1816.3 394.274 1815.06 393.65 1813.53 393.65C1811.99 393.65 1810.76 394.307 1810.76 395.041C1810.76 395.776 1812 396.426 1813.53 396.426C1815.05 396.426 1816.3 395.809 1816.3 395.041Z" fill="white"/>
</g>
<g style="mix-blend-mode:soft-light">
<path d="M1672.12 424.434C1672.12 423.082 1669.92 421.98 1667.22 421.98C1664.51 421.98 1662.32 423.082 1662.32 424.434C1662.32 425.785 1664.51 426.888 1667.22 426.888C1669.92 426.888 1672.12 425.785 1672.12 424.434Z" fill="white"/>
</g>
<g style="mix-blend-mode:soft-light">
<path d="M1737.06 409.91C1737.06 408.827 1735.31 407.941 1733.15 407.941C1730.99 407.941 1729.23 408.814 1729.23 409.91C1729.23 411.005 1730.99 411.878 1733.15 411.878C1735.31 411.878 1737.06 410.992 1737.06 409.91Z" fill="white"/>
</g>
<path d="M1936.66 447.533C1923.95 442.321 1908.32 444.265 1897.99 452.748C1895.91 448.329 1892.55 444.445 1888.22 441.471C1873.96 431.613 1852.72 433.195 1840.78 445.008C1836.92 448.766 1834.36 453.373 1833.37 458.314C1832.38 463.255 1833.01 468.335 1835.18 472.986C1832.91 472.898 1830.64 473.103 1828.44 473.594C1823.06 474.765 1818.39 477.655 1815.39 481.677C1808.68 469.549 1792.19 462.848 1776.08 466.439C1759.13 470.215 1748.67 484.029 1751.56 498.047C1746.04 496.923 1740.27 496.979 1734.78 498.208C1729.83 499.275 1725.23 501.305 1721.34 504.143C1717.44 506.98 1714.36 510.549 1712.32 514.574C1711.2 514.95 1710.1 515.393 1709.05 515.898C1705.8 509.243 1696.59 504.694 1686.91 505.156C1686.02 505.197 1685.14 505.282 1684.27 505.41C1675.66 506.695 1667.71 511.772 1662.79 519.081C1658.82 517.329 1654.38 516.531 1649.93 516.772L1649.29 516.807C1636.65 517.673 1627.12 526.229 1628.06 535.878C1628.55 540.836 1631.78 545.385 1636.93 548.372C1637.98 549.195 1639.25 549.79 1640.62 550.108C1642.59 550.845 1644.66 551.355 1646.78 551.624C1646.56 556.628 1651.36 561.92 1658.68 564.503C1661.79 565.619 1665.15 566.131 1668.52 566C1673.94 565.742 1678.24 563.648 1680.16 560.377C1682.33 561.904 1684.78 563.115 1687.4 563.96L1650.34 598.378L1926.78 571.739L1925.89 545.597C1930.12 543.896 1933.89 541.454 1936.97 538.426C1937.57 537.822 1938.14 537.202 1938.68 536.571C1938.76 538.336 1939.16 540.08 1939.84 541.744L1936.66 447.533Z" fill="white"/>
<path d="M1838.65 478.031C1829.34 468.547 1821.74 482.218 1821.74 482.218C1820.45 480.09 1815.31 477.349 1812.78 476.095C1811.74 475.571 1810.85 469.39 1810.44 468.158C1809.75 466.107 1809.01 464.063 1808.2 462.042C1806.56 457.916 1804.8 456.696 1799.95 455.145C1791.98 452.593 1783.32 452.416 1774.94 451.819C1770.69 451.582 1766.47 451.094 1762.3 450.357C1758.21 450.357 1754.12 448.143 1751.31 445.884C1751.02 445.597 1750.63 445.397 1750.2 445.314C1749.95 445.318 1749.7 445.365 1749.47 445.452C1749.24 445.539 1749.03 445.665 1748.86 445.823C1746.57 447.516 1745.28 449.972 1744.24 452.416C1741.69 458.582 1740.63 465.129 1741.11 471.661C1741.22 473.305 1741.47 474.94 1741.86 476.553C1742.22 477.985 1742.08 478.339 1742.22 479.201C1741.68 479.586 1740.38 480.313 1736.27 482.211C1736.25 482.172 1728.67 468.555 1719.36 478.023C1714.89 482.569 1714.69 502.01 1727.28 510.324C1729.26 511.616 1731.56 512.491 1734 512.878C1736.45 513.265 1738.96 513.153 1741.34 512.552C1747.5 511.013 1753.72 509.492 1759.79 507.783C1761.3 507.356 1762.81 506.871 1764.39 506.732C1766.23 506.567 1768.07 506.875 1769.89 507.117C1779.11 508.374 1788.51 508.113 1797.61 506.348C1797.9 506.275 1798.21 506.249 1798.51 506.271C1798.83 506.336 1799.14 506.455 1799.4 506.621C1804.69 509.4 1810.73 511.07 1816.63 512.541C1819.01 513.142 1821.53 513.253 1823.97 512.866C1826.41 512.479 1828.71 511.604 1830.69 510.312C1843.32 502.017 1843.11 482.576 1838.65 478.031Z" fill="#522260"/>
<mask id="mask0_27_28" style="mask-type:luminance" maskUnits="userSpaceOnUse" x="1716" y="445" width="126" height="69">
<path d="M1838.65 478.031C1829.34 468.547 1821.74 482.218 1821.74 482.218C1820.45 480.09 1815.31 477.349 1812.78 476.095C1811.74 475.571 1810.85 469.39 1810.44 468.158C1809.75 466.107 1809.01 464.063 1808.2 462.042C1806.56 457.916 1804.8 456.696 1799.95 455.145C1791.98 452.593 1783.32 452.416 1774.94 451.819C1770.69 451.582 1766.47 451.094 1762.3 450.357C1758.21 450.357 1754.12 448.143 1751.31 445.884C1751.02 445.597 1750.63 445.397 1750.2 445.314C1749.95 445.318 1749.7 445.365 1749.47 445.452C1749.24 445.539 1749.03 445.665 1748.86 445.823C1746.57 447.516 1745.28 449.972 1744.24 452.416C1741.69 458.582 1740.63 465.129 1741.11 471.661C1741.22 473.305 1741.47 474.94 1741.86 476.553C1742.22 477.985 1742.08 478.339 1742.22 479.201C1741.68 479.586 1740.38 480.313 1736.27 482.211C1736.25 482.172 1728.67 468.555 1719.36 478.023C1714.89 482.569 1714.69 502.01 1727.28 510.324C1729.26 511.616 1731.56 512.491 1734 512.878C1736.45 513.265 1738.96 513.153 1741.34 512.552C1747.5 511.013 1753.72 509.492 1759.79 507.783C1761.3 507.356 1762.81 506.871 1764.39 506.732C1766.23 506.567 1768.07 506.875 1769.89 507.117C1779.11 508.374 1788.51 508.113 1797.61 506.348C1797.9 506.275 1798.21 506.249 1798.51 506.271C1798.83 506.336 1799.14 506.455 1799.4 506.621C1804.69 509.4 1810.73 511.07 1816.63 512.541C1819.01 513.142 1821.53 513.253 1823.97 512.866C1826.41 512.479 1828.71 511.604 1830.69 510.312C1843.32 502.017 1843.11 482.576 1838.65 478.031Z" fill="white"/>
</mask>
<g mask="url(#mask0_27_28)">
<g style="mix-blend-mode:soft-light">
<path d="M1730.76 487.999C1733.9 493.896 1739.75 503.626 1737.09 517.055L1719.55 510.154L1709.34 495.501V480.355L1715.28 480.044C1718.49 479.868 1721.69 480.534 1724.46 481.955C1727.22 483.375 1729.42 485.483 1730.76 487.999Z" fill="white"/>
</g>
<g style="mix-blend-mode:soft-light">
<path d="M1746 448.975C1746 448.975 1741.7 486.179 1763.38 503.299C1763.38 503.299 1749.91 495.874 1744.32 482.984L1738.66 485.555L1733.36 478.35L1746 448.975Z" fill="white"/>
</g>
<path d="M1762.23 476.641C1761.49 483.011 1761.88 489.932 1766.32 495.078C1769.48 498.761 1774.45 501.113 1779.65 502.118C1784.84 503.122 1790.28 502.864 1795.52 502.06C1798.33 501.633 1801.39 500.878 1802.9 498.804C1803.82 497.537 1804 495.982 1804.06 494.489C1804.54 482.684 1799 471.237 1791.67 461.249C1790.27 459.325 1788.78 457.447 1786.87 455.884C1783.53 453.143 1775.78 449.81 1771.16 452.116C1769.31 453.036 1768.6 455.133 1767.86 456.735C1764.93 463.116 1763.03 469.815 1762.23 476.641Z" fill="#FEE1EB"/>
<g style="mix-blend-mode:soft-light">
<path d="M1744.77 506.694C1744.77 506.694 1746.37 502.076 1743.78 499.905L1744.77 506.694Z" fill="white"/>
</g>
<g style="mix-blend-mode:soft-light">
<path d="M1731.99 484.886C1731.99 484.886 1730.81 480.914 1726.97 480.556L1731.99 484.886Z" fill="white"/>
</g>
<g style="mix-blend-mode:soft-light">
<path d="M1737.63 492.099C1737.63 492.099 1742.11 505.455 1740.32 510.743C1740.34 510.743 1744.06 501.047 1737.63 492.099Z" fill="white"/>
</g>
</g>
<path d="M1836.28 475.202C1836.28 475.202 1860.07 497.426 1844.08 508.973C1827.22 521.162 1805.24 512.352 1805.24 512.352L1790.72 514.022C1790.72 514.022 1783.66 507.891 1787.14 496.513C1788.74 496.354 1790.35 496.7 1791.68 497.487C1793.17 498.442 1792.57 498.761 1794.44 498.476C1794.86 498.415 1799.01 497.837 1799.02 497.988C1798.83 493.9 1799.68 490.082 1801.03 486.106C1801.48 484.751 1801.1 481.071 1802.52 480.213C1803 479.924 1804.35 479.94 1804.94 479.855L1836.28 475.202Z" fill="#4A9D78"/>
<path d="M1845.95 497.318C1846.57 496.753 1847.33 496.312 1848.18 496.028C1849.02 495.744 1849.92 495.623 1850.83 495.675C1852.65 495.759 1854.37 496.396 1855.7 497.472C1856.39 498.03 1856.96 498.758 1856.84 499.52C1856.8 499.719 1856.71 499.909 1856.57 500.075C1856.44 500.242 1856.26 500.383 1856.06 500.489C1855.86 500.594 1855.63 500.662 1855.4 500.688C1855.16 500.714 1854.93 500.698 1854.7 500.64C1855.44 502.087 1856.19 503.638 1855.75 505.151C1855.3 506.663 1853.13 507.984 1851.27 507.372C1851.37 507.977 1851.28 508.593 1851.02 509.161C1850.76 509.729 1850.33 510.229 1849.78 510.612C1849.17 511.026 1848.47 511.325 1847.72 511.489C1846.97 511.654 1846.19 511.68 1845.43 511.567C1844.89 511.486 1844.29 511.267 1844.22 510.855C1843.49 510.716 1843.37 510.705 1843.18 509.993C1843.02 509.264 1843.04 508.515 1843.25 507.795" fill="#522260"/>
<mask id="mask1_27_28" style="mask-type:luminance" maskUnits="userSpaceOnUse" x="1792" y="475" width="64" height="41">
<path d="M1842.3 475.202C1842.3 475.202 1866.09 497.426 1850.09 508.973C1833.23 521.162 1811.25 512.352 1811.25 512.352L1796.74 514.022C1796.74 514.022 1789.68 507.891 1793.16 496.513C1794.76 496.354 1796.37 496.7 1797.69 497.487C1799.18 498.442 1798.59 498.761 1800.46 498.476C1800.88 498.415 1805.03 497.837 1805.04 497.988C1804.85 493.9 1805.69 490.082 1807.05 486.106C1807.5 484.751 1807.12 481.071 1808.54 480.213C1809.02 479.924 1810.37 479.94 1810.95 479.855L1842.3 475.202Z" fill="white"/>
</mask>
<g mask="url(#mask1_27_28)">
<g style="mix-blend-mode:soft-light">
<path d="M1803.73 492.133C1803.87 492.029 1805.65 492.518 1805.87 492.572C1808.04 492.888 1810.24 492.991 1812.43 492.88C1813.62 492.826 1815.24 492.11 1816.39 492.426C1818.26 492.93 1816.18 495.724 1815.67 496.694C1814.81 498.405 1814.42 500.265 1814.53 502.127C1814.64 503.99 1815.25 505.806 1816.31 507.433C1819.78 512.652 1826.41 513.483 1832.71 514.326C1838.53 515.117 1844.47 514.987 1850.24 513.941C1850.89 513.822 1851.53 513.691 1852.18 513.556L1817.58 518.595L1810.83 516.528L1797.88 515.131L1791.85 513.114L1786.7 501.833L1792.18 495.844L1798.62 495.678L1803.73 492.133Z" fill="white"/>
</g>
<g style="mix-blend-mode:soft-light">
<path d="M1849.02 489.812C1849.19 490.151 1854.05 495.547 1850.63 500.016C1850.63 500.016 1850.42 492.272 1849.02 489.812Z" fill="white"/>
</g>
<g style="mix-blend-mode:soft-light">
<path d="M1847.35 497.691C1847.43 497.865 1850.49 499.858 1846.91 502.499C1846.91 502.499 1847.97 499.296 1847.35 497.691Z" fill="white"/>
</g>
<g style="mix-blend-mode:soft-light">
<path d="M1849.65 501.378C1849.69 501.509 1852.04 504.038 1848.67 504.665C1848.67 504.665 1850.13 502.368 1849.65 501.378Z" fill="white"/>
</g>
<g style="mix-blend-mode:soft-light">
<path d="M1844.83 498.581C1844.86 498.792 1847.11 502.695 1843.17 504.154C1843.17 504.165 1845.22 500.178 1844.83 498.581Z" fill="white"/>
</g>
<g style="mix-blend-mode:soft-light">
<path d="M1846.43 492.479C1846.51 492.61 1849.15 494.789 1846.64 496.432C1846.64 496.432 1847.12 493.453 1846.43 492.479Z" fill="white"/>
</g>
</g>
<path d="M1857.72 385.036C1868.01 387.111 1863 377.196 1859.26 373.643C1853.66 368.308 1845.79 365.372 1837.39 366.307C1831.23 366.992 1825.83 369.421 1820.71 372.304C1819.49 372.989 1807.44 381.768 1807.83 381.976L1839.79 421.274L1840.9 423.583C1841.25 424.319 1841.78 424.981 1842.45 425.527C1843.12 426.073 1843.92 426.49 1844.79 426.749C1845.66 427.008 1846.59 427.105 1847.51 427.031C1848.43 426.958 1849.32 426.717 1850.12 426.324C1857.76 422.475 1858.18 410.02 1858.18 410.02C1863.64 413.099 1866.45 409.958 1866.85 405.097C1867.26 399.958 1865.26 386.533 1857.72 385.036Z" fill="#522260"/>
<mask id="mask2_27_28" style="mask-type:luminance" maskUnits="userSpaceOnUse" x="1807" y="366" width="60" height="62">
<path d="M1857.72 385.036C1868.01 387.111 1863 377.196 1859.26 373.643C1853.66 368.308 1845.79 365.372 1837.39 366.307C1831.23 366.992 1825.83 369.421 1820.71 372.304C1819.49 372.989 1807.44 381.768 1807.83 381.976L1839.79 421.274L1840.9 423.583C1841.25 424.319 1841.78 424.981 1842.45 425.527C1843.12 426.073 1843.92 426.49 1844.79 426.749C1845.66 427.008 1846.59 427.105 1847.51 427.031C1848.43 426.958 1849.32 426.717 1850.12 426.324C1857.76 422.475 1858.18 410.02 1858.18 410.02C1863.64 413.099 1866.45 409.958 1866.85 405.097C1867.26 399.958 1865.26 386.533 1857.72 385.036Z" fill="white"/>
</mask>
<g mask="url(#mask2_27_28)">
<g style="mix-blend-mode:soft-light">
<path d="M1835.62 364.344C1842.06 365.913 1847.94 368.882 1852.67 372.966C1854.55 374.594 1856.29 376.499 1856.77 378.758C1857.24 381.018 1856.05 383.67 1853.54 384.459C1856.31 386.043 1858.62 388.15 1860.3 390.617C1861.97 393.085 1862.97 395.849 1863.22 398.7C1863.35 400.301 1863.22 401.983 1862.27 403.369C1860.61 405.813 1856.4 406.632 1853.67 405.039C1855.28 406.825 1854.78 409.369 1854.16 411.582C1853.33 414.527 1852.37 417.514 1850.42 420.05C1848.47 422.586 1845.3 424.573 1841.79 424.68C1841.77 427.428 1844.53 429.792 1847.64 430.427C1850.75 431.062 1854.05 430.277 1856.88 428.995C1859.51 427.806 1861.93 426.139 1863.39 423.918C1864.86 421.697 1865.26 418.868 1863.99 416.563C1866.59 415.755 1868.63 413.869 1869.81 411.725C1870.98 409.581 1871.36 407.148 1871.36 404.77C1871.35 399.7 1869.7 394.733 1866.59 390.424C1866.38 390.184 1866.25 389.9 1866.2 389.601C1866.2 388.973 1866.95 388.581 1867.55 388.207C1869.69 386.841 1870.32 384.359 1870.73 382.103C1870.99 380.66 1871.22 379.162 1870.73 377.761C1870.2 376.145 1868.81 374.848 1867.38 373.705C1859.35 367.338 1848.81 363.823 1837.89 363.867" fill="#DCDEDE"/>
</g>
</g>
<path d="M1815.59 382.557C1815.59 382.557 1833.49 391.933 1837.12 414.592C1837.12 414.592 1846 417.359 1844.69 406.598C1844.69 406.598 1858.72 404.846 1846.2 388.869C1846.2 388.869 1851.8 383.296 1840.6 376.938C1830.53 371.23 1815.59 382.557 1815.59 382.557Z" fill="#FEE1EB"/>
<path d="M1819.79 379.855C1820.88 379.035 1822.06 378.304 1823.31 377.669C1824.56 377.019 1825.87 376.458 1827.23 375.991C1828.59 375.518 1830.02 375.165 1831.47 374.94C1832.95 374.719 1834.45 374.672 1835.94 374.801C1837.46 374.951 1838.92 375.342 1840.27 375.956C1841.59 376.58 1842.78 377.396 1843.78 378.369C1845.66 380.319 1846.96 382.628 1847.59 385.101C1846.47 382.862 1844.91 380.805 1842.98 379.02C1841.05 377.341 1838.51 376.283 1835.78 376.021C1834.41 375.891 1833.03 375.914 1831.67 376.091C1830.28 376.26 1828.92 376.531 1827.59 376.899C1824.88 377.657 1822.27 378.648 1819.79 379.855Z" fill="white"/>
<path d="M1815.17 377.265C1815.17 377.265 1783.1 364.99 1752.52 379.52C1752.9 379.285 1739.78 370.91 1738.46 370.283C1732.95 367.588 1727.19 365.398 1720.78 365.044C1712.03 364.563 1704.14 368.046 1698.77 373.874C1695.19 377.753 1690.76 388.277 1701.24 385.548C1693.57 387.545 1692.55 401.521 1693.37 406.771C1694.15 411.774 1697.31 414.831 1702.7 411.355C1702.7 411.355 1704.1 424.207 1712.28 427.725C1713.14 428.086 1714.07 428.284 1715.03 428.308C1715.99 428.332 1716.94 428.18 1717.82 427.862C1718.7 427.544 1719.49 427.068 1720.14 426.466C1720.79 425.863 1721.29 425.148 1721.59 424.368L1722.56 421.932C1722.56 421.932 1727.61 443.817 1750.24 452.762C1750.24 452.762 1786.23 468.123 1821.04 447.939C1855.86 427.755 1834.16 385.27 1815.17 377.265Z" fill="#522260"/>
<path d="M1745.81 384.012C1745.81 384.012 1727.91 393.388 1724.28 416.043C1724.28 416.043 1715.4 418.815 1716.71 408.053C1716.71 408.053 1702.69 406.302 1715.2 390.321C1715.2 390.321 1709.6 384.747 1720.8 378.389C1730.88 372.685 1745.81 384.012 1745.81 384.012Z" fill="#FEE1EB"/>
<path d="M1745.81 384.012C1743.54 382.5 1741.12 381.168 1738.57 380.032C1737.31 379.479 1736.01 379.002 1734.68 378.604C1733.36 378.201 1732 377.907 1730.62 377.727C1729.25 377.545 1727.87 377.516 1726.49 377.638C1725.11 377.744 1723.75 378.024 1722.46 378.47C1721.15 378.91 1719.91 379.491 1718.77 380.198C1718.19 380.546 1717.62 380.919 1717.08 381.318C1716.79 381.503 1716.55 381.73 1716.28 381.938L1715.48 382.565C1715.92 382.072 1716.32 381.549 1716.82 381.079C1717.3 380.602 1717.81 380.152 1718.36 379.732C1718.64 379.528 1718.9 379.297 1719.2 379.116L1720.09 378.55C1720.4 378.368 1720.72 378.2 1721.05 378.046L1721.53 377.808C1721.7 377.731 1721.87 377.669 1722.04 377.6C1724.78 376.495 1727.84 376.121 1730.83 376.526C1732.31 376.731 1733.75 377.067 1735.14 377.527C1736.52 377.985 1737.85 378.546 1739.11 379.205C1740.36 379.854 1741.56 380.582 1742.69 381.383C1743.82 382.18 1744.86 383.06 1745.81 384.012Z" fill="white"/>
<path d="M1769.25 433.287C1769.31 435.211 1765.54 436.858 1760.82 436.978C1756.11 437.097 1752.23 435.638 1752.16 433.718C1752.09 431.797 1755.86 430.146 1760.58 430.03C1765.3 429.915 1769.18 431.37 1769.25 433.287Z" fill="#FD9DB3"/>
<path d="M1829.44 431.769C1829.5 433.694 1825.73 435.341 1821.01 435.457C1816.3 435.572 1812.41 434.117 1812.35 432.2C1812.29 430.284 1816.05 428.629 1820.77 428.509C1825.49 428.39 1829.37 429.849 1829.44 431.769Z" fill="#FD9DB3"/>
<path d="M1768.28 441.073C1768.82 442.286 1769.47 443.459 1770.24 444.579C1770.94 445.636 1771.92 446.533 1773.1 447.196C1774.3 447.786 1775.7 447.994 1777.06 447.785C1778.53 447.558 1779.97 447.18 1781.34 446.658C1780.21 447.617 1778.81 448.323 1777.29 448.713C1776.47 448.934 1775.62 449.007 1774.77 448.926C1773.92 448.845 1773.1 448.612 1772.37 448.243C1770.95 447.475 1769.86 446.345 1769.23 445.014C1768.6 443.77 1768.28 442.429 1768.28 441.073Z" fill="white"/>
<path d="M1790.85 442.073C1796.34 442.135 1804.72 440.996 1802.39 431.092C1802.22 430.376 1802 429.68 1801.77 429.002C1797.78 417.421 1792.7 416.501 1790.01 416.997C1787.28 416.635 1782.27 417.806 1779.08 429.568C1776.49 439.137 1783.69 441.719 1788.96 442.008C1789.53 442.039 1790.17 442.066 1790.85 442.073Z" fill="white"/>
<path d="M1785.12 437.204C1786.26 437.204 1787.18 435.271 1787.18 432.886C1787.18 430.501 1786.26 428.567 1785.12 428.567C1783.99 428.567 1783.07 430.501 1783.07 432.886C1783.07 435.271 1783.99 437.204 1785.12 437.204Z" fill="#522260"/>
<path d="M1815.15 410.909C1815.81 411.84 1816.33 412.842 1816.7 413.888C1817.09 414.961 1817.3 416.079 1817.31 417.206C1817.35 418.442 1816.98 419.662 1816.26 420.731C1815.85 421.296 1815.32 421.787 1814.69 422.175C1814.07 422.553 1813.39 422.838 1812.66 423.018L1812.13 423.137L1811.6 423.214C1811.24 423.264 1810.87 423.292 1810.5 423.299C1809.74 423.298 1808.98 423.182 1808.26 422.956C1807.55 422.721 1806.89 422.363 1806.34 421.905C1805.82 421.478 1805.38 420.986 1805.02 420.446C1804.4 419.434 1804 418.329 1803.85 417.19C1803.76 416.644 1803.73 416.094 1803.73 415.543C1803.73 414.998 1803.78 414.455 1803.89 413.919C1804.22 414.936 1804.62 415.936 1805.08 416.913C1805.49 417.833 1806.05 418.701 1806.73 419.492C1807.31 420.188 1808.12 420.707 1809.07 420.974C1809.51 421.083 1809.98 421.129 1810.45 421.112C1810.95 421.091 1811.44 421.017 1811.93 420.893C1812.39 420.789 1812.83 420.619 1813.22 420.389C1813.61 420.171 1813.94 419.897 1814.22 419.58C1814.79 418.833 1815.16 417.98 1815.29 417.09C1815.45 416.095 1815.5 415.088 1815.45 414.084C1815.42 413.033 1815.29 411.979 1815.15 410.909Z" fill="white"/>
<path d="M1775.62 413.156C1775.97 414.206 1776.16 415.29 1776.19 416.382C1776.23 417.508 1776.08 418.634 1775.74 419.723C1775.4 420.921 1774.67 422.014 1773.64 422.879C1773.07 423.328 1772.41 423.68 1771.68 423.914C1770.97 424.141 1770.21 424.259 1769.45 424.264H1768.9L1768.36 424.218C1767.99 424.185 1767.63 424.13 1767.28 424.053C1766.54 423.878 1765.84 423.594 1765.22 423.214C1764.59 422.825 1764.07 422.33 1763.68 421.759C1763.31 421.227 1763.04 420.649 1762.88 420.046C1762.59 418.926 1762.55 417.769 1762.75 416.636C1762.84 416.091 1762.98 415.552 1763.15 415.023C1763.32 414.494 1763.54 413.979 1763.81 413.483C1763.81 414.538 1763.88 415.592 1764.02 416.64C1764.14 417.622 1764.41 418.587 1764.82 419.507C1765.16 420.306 1765.79 420.991 1766.61 421.462C1767.01 421.67 1767.45 421.821 1767.91 421.909C1768.4 422.002 1768.9 422.043 1769.4 422.032C1769.88 422.037 1770.35 421.972 1770.8 421.84C1771.24 421.72 1771.65 421.532 1772.01 421.285C1772.79 420.695 1773.41 419.957 1773.8 419.13C1774.27 418.208 1774.64 417.249 1774.89 416.266C1775.22 415.265 1775.42 414.226 1775.62 413.156Z" fill="white"/>
<mask id="mask3_27_28" style="mask-type:luminance" maskUnits="userSpaceOnUse" x="1699" y="365" width="147" height="94">
<path d="M1821.19 377.265C1821.19 377.265 1789.11 364.99 1758.54 379.52C1758.92 379.285 1745.79 370.91 1744.48 370.283C1738.97 367.588 1733.21 365.398 1726.8 365.044C1718.05 364.563 1710.16 368.046 1704.78 373.874C1701.2 377.753 1696.77 388.277 1707.26 385.548C1699.59 387.545 1698.56 401.521 1699.39 406.771C1700.17 411.774 1703.33 414.831 1708.72 411.355C1708.72 411.355 1710.12 424.207 1718.29 427.725C1719.15 428.086 1720.09 428.284 1721.05 428.308C1722 428.332 1722.95 428.18 1723.84 427.862C1724.72 427.544 1725.51 427.068 1726.16 426.466C1726.81 425.863 1727.3 425.148 1727.61 424.368L1728.57 421.932C1728.57 421.932 1733.63 443.817 1756.26 452.762C1756.26 452.762 1792.25 468.123 1827.06 447.939C1861.88 427.755 1840.18 385.27 1821.19 377.265Z" fill="white"/>
</mask>
<g mask="url(#mask3_27_28)">
<g style="mix-blend-mode:soft-light">
<path d="M1725.25 361.407C1719.04 362.227 1713.23 364.548 1708.49 368.1C1706.19 369.844 1704.07 372.057 1703.81 374.682C1703.7 375.747 1703.92 376.818 1704.42 377.794C1704.93 378.771 1705.71 379.621 1706.7 380.266C1707.7 380.911 1708.86 381.33 1710.09 381.483C1711.32 381.637 1712.58 381.52 1713.74 381.144C1708.69 386.028 1705.25 391.993 1703.8 398.411C1703.27 400.778 1703.08 403.415 1704.67 405.408C1706.27 407.402 1710.27 407.949 1711.74 405.893C1711.54 409.529 1711.91 413.171 1712.85 416.72C1713.3 418.476 1713.98 420.285 1715.48 421.536C1717.57 423.268 1720.79 423.46 1723.44 422.725C1726.66 421.855 1729.04 419.23 1731.49 417.302C1731.21 417.525 1731.94 419.796 1732.05 420.158C1732.31 421.201 1732.62 422.236 1732.98 423.256C1733.71 425.297 1734.64 427.279 1735.77 429.18C1737.92 432.794 1740.01 436.493 1743.19 439.572C1747.5 443.74 1754.46 448.355 1760.46 450.48C1768.9 453.463 1783.16 455.368 1792.13 453.898C1800.12 439.73 1818.08 434.149 1836.3 443.421C1831.8 445.368 1810.34 445.611 1806.53 448.424C1803.11 450.969 1799.96 453.871 1795.98 455.737C1790.92 458.101 1784.98 458.551 1779.23 458.955C1771.77 459.479 1764.17 459.994 1756.86 458.57C1752.78 457.77 1748.8 456.346 1745.56 454.094C1739.47 449.883 1736.42 443.317 1731.91 437.817C1731.47 437.224 1730.92 436.703 1730.27 436.277C1729.07 435.577 1727.53 435.542 1726.09 435.507C1719.65 435.346 1712.54 434.395 1708.46 430.119C1706.65 428.194 1705.64 425.804 1703.95 423.803C1701.29 420.646 1697.1 418.66 1694.35 415.562C1691.69 412.567 1690.59 408.761 1690.06 405.016C1687.87 389.316 1695.47 372.854 1709.58 362.723C1712.04 360.957 1714.77 359.336 1717.9 358.705C1721.02 358.074 1723.04 359.405 1725.25 361.407Z" fill="white"/>
</g>
<g style="mix-blend-mode:soft-light">
<path d="M1791.99 370.294C1791.99 370.294 1825.07 370.983 1836.3 405.104C1847.52 439.225 1806.04 451.446 1806.04 451.446H1834.5C1834.5 451.446 1850.86 433.991 1852.34 434.191C1853.83 434.391 1852.79 407.725 1852.79 407.725C1852.79 407.725 1846.97 396.683 1845.34 392.279C1843.7 387.876 1832.77 377.068 1832.23 375.49C1831.69 373.912 1815.78 369.255 1815.78 369.255L1791.99 370.294Z" fill="#DCDEDE"/>
</g>
<g style="mix-blend-mode:soft-light">
<path d="M1735.25 417.248C1735.25 417.248 1735.25 437.201 1759.49 446.815C1759.49 446.815 1740 435.403 1735.25 417.248Z" fill="white"/>
</g>
<g style="mix-blend-mode:soft-light">
<path d="M1738.6 415.442C1738.6 415.442 1738.38 422.132 1741.97 424.272L1738.6 415.442Z" fill="white"/>
</g>
<g style="mix-blend-mode:soft-light">
<path d="M1744 421.069C1744 421.069 1743.8 425.892 1746.93 427.432L1744 421.069Z" fill="white"/>
</g>
<g style="mix-blend-mode:soft-light">
<path d="M1716.38 413.075C1716.38 413.075 1715.66 417.863 1718.62 419.649L1716.38 413.075Z" fill="white"/>
</g>
<g style="mix-blend-mode:soft-light">
<path d="M1707.8 396.994C1707.8 396.994 1705.43 401.37 1707.62 403.838L1707.8 396.994Z" fill="white"/>
</g>
<g style="mix-blend-mode:soft-light">
<path d="M1711.41 393.573C1711.41 393.573 1709.05 397.949 1711.23 400.416L1711.41 393.573Z" fill="white"/>
</g>
<g style="mix-blend-mode:soft-light">
<path d="M1743.07 426.624C1743.07 426.624 1742.85 430.723 1746.4 432.032L1743.07 426.624Z" fill="white"/>
</g>
</g>
<path d="M1793.32 439.306C1803.06 434.733 1818.08 434.522 1827.3 440.176C1827.09 440.045 1834.26 435.472 1834.97 435.122C1837.98 433.656 1841.13 432.455 1844.63 432.262C1849.41 431.997 1853.72 433.898 1856.65 437.085C1858.61 439.202 1861.04 444.952 1855.31 443.459C1859.5 444.552 1860.06 452.185 1859.61 455.052C1859.16 457.781 1857.46 459.455 1854.51 457.558C1854.51 457.558 1853.75 464.578 1849.28 466.499C1848.81 466.695 1848.3 466.803 1847.78 466.816C1847.26 466.829 1846.74 466.745 1846.26 466.572C1845.78 466.399 1845.34 466.139 1844.99 465.811C1844.63 465.482 1844.36 465.092 1844.2 464.667L1843.67 463.335C1843.67 463.335 1840.91 475.267 1828.55 480.174C1828.55 480.174 1808.88 488.565 1789.87 477.538C1774.53 468.643 1777.74 446.746 1793.12 439.402L1793.32 439.306Z" fill="#4A9D78"/>
<path d="M1830.98 442.635C1830.98 442.635 1840.76 447.754 1842.74 460.133C1842.74 460.133 1847.59 461.645 1846.88 455.768C1846.88 455.768 1854.54 454.81 1847.7 446.08C1847.7 446.08 1850.76 443.039 1844.64 439.568C1839.13 436.446 1830.98 442.635 1830.98 442.635Z" fill="#FEE1EB"/>
<path d="M1830.98 442.636C1832 441.57 1833.22 440.659 1834.59 439.941C1835.98 439.185 1837.52 438.675 1839.14 438.44C1840.8 438.217 1842.5 438.433 1844.02 439.06C1845.47 439.696 1846.69 440.665 1847.55 441.862C1846.43 440.946 1845.12 440.217 1843.69 439.711C1842.99 439.481 1842.26 439.338 1841.52 439.287C1840.77 439.223 1840.02 439.241 1839.28 439.341C1837.78 439.557 1836.33 439.969 1834.98 440.561C1833.58 441.16 1832.25 441.854 1830.98 442.636Z" fill="white"/>
<path d="M1816.63 470.098C1816.59 471.149 1818.66 472.049 1821.23 472.115C1823.81 472.18 1825.93 471.383 1825.96 470.333C1826 469.282 1823.94 468.385 1821.36 468.32C1818.79 468.254 1816.66 469.043 1816.63 470.098Z" fill="#FD9DB3"/>
<path d="M1783.75 469.262C1783.72 470.309 1785.78 471.214 1788.35 471.275C1790.93 471.337 1793.05 470.544 1793.09 469.497C1793.13 468.45 1791.06 467.546 1788.48 467.48C1785.91 467.415 1783.79 468.215 1783.75 469.262Z" fill="#FD9DB3"/>
<path d="M1817.16 474.332C1817.21 475.084 1817.05 475.836 1816.71 476.53C1816.38 477.283 1815.77 477.924 1814.98 478.354C1814.57 478.563 1814.1 478.694 1813.63 478.737C1813.15 478.78 1812.66 478.735 1812.21 478.604C1811.36 478.371 1810.61 477.949 1810.01 477.38C1810.78 477.625 1811.57 477.8 1812.38 477.904C1813.09 477.997 1813.82 477.88 1814.45 477.573C1815.07 477.222 1815.6 476.753 1815.98 476.203C1816.42 475.603 1816.82 474.978 1817.16 474.332Z" fill="white"/>
<path d="M1804.83 474.89C1801.83 474.925 1797.22 474.301 1798.53 468.893C1798.62 468.508 1798.74 468.124 1798.87 467.739C1801.05 461.411 1803.82 460.911 1805.29 461.195C1806.78 460.999 1809.52 461.638 1811.26 468.066C1812.68 473.289 1808.74 474.701 1805.86 474.859C1805.55 474.871 1805.2 474.886 1804.83 474.89Z" fill="white"/>
<path d="M1791.56 457.866C1791.36 458.982 1791.34 460.115 1791.48 461.237C1791.55 461.723 1791.75 462.187 1792.06 462.596C1792.38 462.951 1792.82 463.205 1793.32 463.316C1793.82 463.458 1794.36 463.472 1794.88 463.358C1795.39 463.211 1795.84 462.928 1796.15 462.55C1796.53 462.118 1796.83 461.644 1797.05 461.141C1797.3 460.606 1797.52 460.06 1797.7 459.505C1797.8 460.098 1797.8 460.699 1797.7 461.291C1797.61 461.912 1797.39 462.514 1797.05 463.066C1796.68 463.695 1796.05 464.186 1795.29 464.447C1794.9 464.569 1794.48 464.632 1794.07 464.636C1793.67 464.628 1793.27 464.575 1792.89 464.478C1792.07 464.288 1791.37 463.843 1790.92 463.231C1790.52 462.648 1790.33 461.981 1790.35 461.307C1790.39 460.088 1790.81 458.9 1791.56 457.866Z" fill="white"/>
<path d="M1813.15 459.093C1813.31 460.214 1813.63 461.312 1814.12 462.361C1814.34 462.814 1814.68 463.217 1815.11 463.539C1815.51 463.812 1816.02 463.957 1816.53 463.947C1817.07 463.972 1817.59 463.863 1818.06 463.635C1818.5 463.377 1818.85 463.004 1819.04 462.569C1819.27 462.067 1819.42 461.54 1819.48 461.002C1819.56 460.43 1819.6 459.854 1819.6 459.278C1819.89 459.822 1820.08 460.401 1820.18 460.995C1820.29 461.613 1820.26 462.243 1820.11 462.854C1819.94 463.544 1819.49 464.159 1818.83 464.586C1818.49 464.794 1818.11 464.949 1817.71 465.044C1817.32 465.125 1816.92 465.165 1816.53 465.163C1815.68 465.157 1814.87 464.883 1814.24 464.393C1813.68 463.922 1813.29 463.325 1813.1 462.669C1812.75 461.495 1812.76 460.26 1813.15 459.093Z" fill="white"/>
<path d="M1806.84 469.871C1806.84 471.172 1807.34 472.23 1807.96 472.23C1808.58 472.23 1809.09 471.172 1809.09 469.871C1809.09 468.57 1808.58 467.511 1807.96 467.511C1807.34 467.511 1806.84 468.558 1806.84 469.871Z" fill="white"/>
<mask id="mask4_27_28" style="mask-type:luminance" maskUnits="userSpaceOnUse" x="1779" y="432" width="81" height="52">
<path d="M1793.32 439.306C1803.06 434.733 1818.08 434.522 1827.3 440.176C1827.09 440.045 1834.26 435.472 1834.97 435.122C1837.98 433.656 1841.13 432.455 1844.63 432.262C1849.41 431.997 1853.72 433.898 1856.65 437.085C1858.61 439.202 1861.03 444.952 1855.31 443.459C1859.5 444.552 1860.06 452.185 1859.61 455.052C1859.16 457.781 1857.46 459.455 1854.51 457.558C1854.51 457.558 1853.75 464.578 1849.28 466.499C1848.81 466.695 1848.3 466.803 1847.78 466.816C1847.26 466.829 1846.74 466.745 1846.26 466.572C1845.78 466.399 1845.34 466.139 1844.99 465.811C1844.63 465.482 1844.36 465.092 1844.19 464.667L1843.67 463.335C1843.67 463.335 1840.91 475.267 1828.55 480.174C1828.55 480.174 1808.88 488.565 1789.87 477.538C1774.53 468.643 1777.74 446.746 1793.12 439.402L1793.32 439.306Z" fill="white"/>
</mask>
<g mask="url(#mask4_27_28)">
<g style="mix-blend-mode:soft-light">
<path d="M1816.33 435.015C1816.33 435.015 1780.08 435.146 1788.42 468.016C1788.42 468.016 1795.21 485.282 1830.97 481.984L1813.04 485.879L1785.12 479.205L1773.49 469.374L1769.53 450.776L1781.32 440.711L1797.69 431.574L1816.33 435.015Z" fill="white"/>
</g>
</g>
<g style="mix-blend-mode:soft-light">
<path d="M1832.85 451.819C1832.93 451.95 1835.57 454.129 1833.05 455.772C1833.05 455.772 1833.54 452.778 1832.85 451.819Z" fill="white"/>
</g>
<g style="mix-blend-mode:soft-light">
<path d="M1835.05 454.613C1835.16 454.798 1838.72 457.766 1835.33 460.002C1835.33 460.01 1835.98 455.945 1835.05 454.613Z" fill="white"/>
</g>
<g style="mix-blend-mode:soft-light">
<path d="M1835.75 451.177C1835.88 451.3 1839.25 453.028 1837.1 455.291C1837.11 455.291 1836.75 452.054 1835.75 451.177Z" fill="white"/>
</g>
<g style="mix-blend-mode:soft-light">
<path d="M1855.43 450.538C1855.54 450.718 1859.1 453.686 1855.71 455.926C1855.71 455.93 1856.36 451.865 1855.43 450.538Z" fill="white"/>
</g>
<g style="mix-blend-mode:soft-light">
<path d="M1851.87 448.84C1851.99 448.963 1855.37 450.691 1853.21 452.951C1853.23 452.951 1852.87 449.717 1851.87 448.84Z" fill="white"/>
</g>
<g style="mix-blend-mode:soft-light">
<path d="M1852.91 437.963C1853.03 438.086 1856.4 439.814 1854.25 442.074C1854.25 442.074 1853.9 438.84 1852.91 437.963Z" fill="white"/>
</g>
<path d="M1833.45 477.584C1832.25 478.729 1830.84 479.701 1829.28 480.463C1827.73 481.252 1826.07 481.879 1824.35 482.33C1822.63 482.788 1820.85 483.068 1819.05 483.165C1818.16 483.222 1817.26 483.231 1816.37 483.192C1815.92 483.176 1815.47 483.14 1815.03 483.084C1814.58 483.038 1814.13 482.984 1813.68 482.923C1814.13 482.888 1814.58 482.853 1815.03 482.83C1815.47 482.807 1815.92 482.807 1816.37 482.745C1817.26 482.653 1818.11 482.603 1818.97 482.461C1819.42 482.391 1819.84 482.349 1820.27 482.276L1821.54 482.037C1821.99 481.972 1822.38 481.864 1822.8 481.772C1823.22 481.679 1823.65 481.591 1824.06 481.46L1825.3 481.125C1825.7 480.994 1826.11 480.856 1826.52 480.74C1827.33 480.471 1828.12 480.17 1828.91 479.851C1830.49 479.201 1832.01 478.443 1833.45 477.584Z" fill="white"/>
<path d="M1751.47 463.84C1751.47 463.84 1763.74 506.044 1785.41 490.609C1807.08 475.175 1767.18 457.312 1767.18 457.312" fill="#522260"/>
<path d="M1780.68 465.19C1779.54 464.382 1778.4 463.62 1777.23 462.881C1776.07 462.142 1774.87 461.453 1773.65 460.772C1773.05 460.425 1772.45 460.087 1771.83 459.752C1771.22 459.417 1770.61 459.086 1770 458.743C1768.78 458.07 1767.54 457.396 1766.32 456.688C1767.73 457.069 1769.1 457.549 1770.41 458.124C1771.73 458.687 1773 459.317 1774.24 460.01C1775.47 460.708 1776.64 461.48 1777.74 462.319C1778.86 463.168 1779.84 464.132 1780.68 465.19Z" fill="white"/>
<mask id="mask5_27_28" style="mask-type:luminance" maskUnits="userSpaceOnUse" x="1751" y="457" width="41" height="38">
<path d="M1751.47 463.84C1751.47 463.84 1763.74 506.044 1785.41 490.609C1807.08 475.175 1765.92 457.012 1765.92 457.012" fill="white"/>
</mask>
<g mask="url(#mask5_27_28)">
<g style="mix-blend-mode:soft-light">
<path d="M1793.34 474.655C1793.34 474.655 1772.75 475.271 1772.75 490.309C1772.75 490.309 1769.17 492.233 1751.53 467.523L1757.51 480.136L1767.04 491.802L1774.15 495.682L1781.5 495.035L1787.76 491.856L1793.96 485.136L1793.34 474.655Z" fill="white"/>
</g>
<g style="mix-blend-mode:soft-light">
<path d="M1756.16 468.974C1756.16 468.974 1758.09 477.619 1770.34 485.786L1756.16 468.974Z" fill="white"/>
</g>
<g style="mix-blend-mode:soft-light">
<path d="M1756.59 463.358C1756.59 463.358 1757.73 468.539 1761.13 469.617L1756.59 463.358Z" fill="white"/>
</g>
<g style="mix-blend-mode:soft-light">
<path d="M1762.18 466.838C1762.18 466.838 1762.97 470.576 1765.87 471.269L1762.18 466.838Z" fill="white"/>
</g>
<g style="mix-blend-mode:soft-light">
<path d="M1762.51 471.253C1762.51 471.253 1763.13 474.44 1766.33 474.886L1762.51 471.253Z" fill="white"/>
</g>
</g>
<path d="M1751.47 463.839C1752.89 468.041 1754.63 472.156 1756.69 476.156C1757.72 478.158 1758.85 480.117 1760.09 482.014C1761.32 483.924 1762.73 485.745 1764.3 487.457C1765.83 489.163 1767.66 490.647 1769.74 491.852C1771.78 493.042 1774.2 493.636 1776.67 493.546C1779.1 493.419 1781.43 492.522 1783.46 491.313C1784.48 490.69 1785.46 490.021 1786.39 489.308C1787.33 488.604 1788.27 487.888 1789.22 487.126C1788.71 488.161 1787.97 489.105 1787.06 489.908C1786.15 490.712 1785.14 491.431 1784.06 492.056C1781.92 493.322 1779.41 494.292 1776.73 494.423C1775.39 494.49 1774.05 494.352 1772.78 494.015C1771.51 493.675 1770.3 493.182 1769.2 492.549C1767.05 491.281 1765.16 489.721 1763.59 487.93C1760.46 484.404 1758.13 480.428 1756.17 476.383C1755.2 474.351 1754.33 472.28 1753.55 470.194C1752.76 468.108 1752.05 465.976 1751.47 463.839Z" fill="white"/>
<path d="M1821.85 485.64C1817.3 482.561 1806.97 478.577 1800.81 477.857C1797.91 477.522 1794.78 477.326 1792.16 478.308C1790.71 478.835 1789.5 479.765 1788.72 480.949C1787.95 482.134 1787.65 483.506 1787.88 484.851C1788.41 487.399 1790.86 489.616 1793.93 490.936C1797.01 492.256 1800.64 492.745 1804.22 492.757C1807.8 492.768 1811.34 492.325 1814.87 491.883L1821.85 485.64Z" fill="#4A9D78"/>
<mask id="mask6_27_28" style="mask-type:luminance" maskUnits="userSpaceOnUse" x="1787" y="477" width="35" height="16">
<path d="M1821.85 485.64C1817.3 482.561 1806.97 478.577 1800.81 477.857C1797.91 477.522 1794.78 477.326 1792.16 478.308C1790.71 478.835 1789.5 479.765 1788.72 480.949C1787.95 482.134 1787.65 483.506 1787.88 484.851C1788.41 487.399 1790.86 489.616 1793.93 490.936C1797 492.256 1800.64 492.745 1804.22 492.757C1807.8 492.768 1811.34 492.325 1814.86 491.883L1821.85 485.64Z" fill="white"/>
</mask>
<g mask="url(#mask6_27_28)">
<g style="mix-blend-mode:soft-light">
<path d="M1791.71 482.799C1793.18 485.205 1795.31 487.265 1797.91 488.8C1800.72 490.447 1803.97 491.283 1807.28 491.752C1808.26 491.89 1809.24 491.98 1810.22 492.022C1810.77 492.045 1811.46 492.022 1811.92 492.314C1811.52 493.303 1809.68 493.827 1808.67 494.192C1807.23 494.709 1805.73 495.083 1804.19 495.309C1800.94 495.731 1797.61 495.376 1794.58 494.281C1792.97 493.757 1791.48 493.008 1790.17 492.064C1788.11 490.485 1786.67 488.394 1786.06 486.083C1785.57 484.513 1785.59 482.859 1786.11 481.298C1786.46 480.39 1788.18 477.573 1789.6 478.635C1790.03 479.037 1790.31 479.535 1790.43 480.07C1790.75 481.014 1791.18 481.928 1791.71 482.799Z" fill="white"/>
</g>
</g>
<path d="M1792.15 478.308C1794.21 477.723 1796.35 477.401 1798.51 477.349C1799.05 477.349 1799.59 477.322 1800.13 477.33L1801.76 477.399C1802.84 477.478 1803.92 477.606 1804.98 477.784L1805.78 477.927C1806.04 477.977 1806.3 478.05 1806.57 478.111C1807.09 478.242 1807.62 478.354 1808.13 478.496C1809.16 478.804 1810.16 479.168 1811.13 479.586C1813.07 480.405 1814.87 481.456 1816.47 482.707C1814.65 481.763 1812.75 480.937 1810.79 480.236C1809.83 479.851 1808.82 479.609 1807.83 479.32C1807.32 479.189 1806.81 479.081 1806.3 478.962C1806.05 478.908 1805.8 478.839 1805.54 478.796L1804.77 478.666C1802.71 478.293 1800.61 478.081 1798.5 478.031C1796.38 477.978 1794.26 478.07 1792.15 478.308Z" fill="white"/>
<path d="M1799.09 492.202C1801.16 492.295 1803.12 492.337 1805.15 492.318C1806.14 492.299 1807.15 492.299 1808.15 492.26C1809.16 492.222 1810.18 492.183 1811.22 492.202C1810.27 492.556 1809.27 492.814 1808.25 492.972C1807.23 493.14 1806.19 493.228 1805.15 493.238C1804.12 493.246 1803.08 493.172 1802.06 493.015C1801.03 492.872 1800.03 492.598 1799.09 492.202Z" fill="white"/>
</g>
<defs>
<linearGradient id="paint0_linear_27_28" x1="957.907" y1="560" x2="957.907" y2="-22.9377" gradientUnits="userSpaceOnUse">
<stop stop-color="#FEAB33"/>
<stop offset="1" stop-color="#FEAB33"/>
</linearGradient>
<clipPath id="clip0_27_28">
<rect width="1925.93" height="560" fill="white"/>
</clipPath>
</defs>
</svg>
