<svg width="1944" height="564" viewBox="0 0 1944 564" fill="none" xmlns="http://www.w3.org/2000/svg">
<rect width="1944" height="564" fill="#FEAB33"/>
<path d="M0 0H1944V0C1944 9.26709 1935.52 16.9139 1926.3 17.9129C1918.12 18.8006 1907.25 20.8698 1894.05 25.3542C1880.53 29.9455 1858.94 55.0096 1866.03 132.686C1866.24 135.038 1866.1 137.46 1865.51 139.746C1855.96 176.491 1845.09 172.425 1842.08 172.409C1833.13 172.359 1817.1 171.775 1809.68 133.743C1803.74 103.318 1869.08 27.2558 1811.7 29.7912C1754.33 32.3266 1797.53 113.46 1771.88 112.826C1746.23 112.192 1744.73 73.5272 1743.53 65.9209C1730.7 -15.2125 1716.17 28.2378 1698.3 27.2558C1678.79 26.1838 1682.1 2.53542 1644.98 8.87397C1607.85 15.2125 1595.7 30.425 1549.13 23.4526C1502.55 16.4802 1515.32 69.9197 1483.65 70.3579C1464.91 70.6172 1457.82 34.9578 1439.82 31.0103C1437.59 30.5227 1435.31 31.0422 1433.15 31.768C1408.4 40.092 1381.45 45.7841 1344.6 20.2834C1316.25 7.60626 1325.16 12.4749 1294.65 12.6771C1210.95 46.2714 1152.23 54.5115 1089.45 25.7752C1089.45 25.7752 1054.75 12.6383 1032.08 12.6771C1011.21 12.7128 964.335 30.4054 941.625 30.425C917.025 30.4463 907.875 34.862 886.275 25.9881C868.742 20.108 857.599 6.59147 842.607 11.2448C840.173 12.0002 838.14 13.6563 836.328 15.4477C812.87 38.6338 797.516 29.9794 795.15 28.5235C775.575 16.4802 776.723 13.6136 765.45 14.5787C735.522 17.1406 748.519 42.4683 749.925 58.3147C751.331 74.161 737.775 85.5704 723.6 83.6689C709.425 81.7673 737.1 45.0037 726.3 25.9881C715.5 6.9724 677.394 10.7957 660.825 10.7755C643.44 10.7544 609.212 31.7404 593.325 31.6927C568.849 31.6194 514.523 12.8193 494.1 12.6771C467.118 12.4893 422.336 28.8457 403.65 28.5235C372.844 27.9922 364.381 22.5066 361.125 21.5511C330.555 12.5802 316.81 4.73782 288.14 24.6452C284.629 27.0833 280.089 29.0565 278.609 33.0672C275.126 42.5101 275.383 65.0916 275.399 85.7706C275.4 86.9045 275.317 88.0367 275.098 89.1491C271.643 106.644 260.44 114.998 257.85 114.728C252.335 114.152 238.477 117.755 230.414 103.253C228.663 100.103 228.483 96.3644 228.959 92.7926C233.366 59.7 225.138 49.1574 211.95 50.0745C195.681 51.2059 206.55 74.161 181.575 74.161C156.6 74.161 154.596 17.5466 137.7 19.0156C94.2093 22.797 113.4 104.586 116.775 122.968C120.15 141.35 99.225 141.984 89.775 140.716C80.325 139.448 70.875 132.476 68.85 118.531C66.825 104.586 82.7092 58.0241 72.9 31.6927C65.8557 12.7833 37.9319 28.7884 31.725 28.5235C24.4337 28.2123 16.6543 25.6089 10.6238 23.0393C3.84261 20.1499 0 13.2391 0 5.86801V0Z" fill="#FFC544"/>
<path d="M246.205 127.568C245.816 129.401 238.51 137.281 230.66 135.305C222.81 133.329 218.403 122.502 218.792 120.67C219.181 118.837 220.898 127.409 228.748 129.385C236.598 131.361 246.593 125.736 246.205 127.568Z" fill="white" fill-opacity="0.16"/>
<path d="M730.524 82.9886C730.28 84.1386 725.695 89.0844 720.768 87.8444C715.84 86.6045 717.854 76.2275 718.098 75.0775C718.342 73.9275 717.743 82.7473 722.67 83.9873C727.597 85.2272 730.768 81.8387 730.524 82.9886Z" fill="white" fill-opacity="0.16"/>
<path d="M308.527 73.073C308.327 74.0175 302.772 77.6296 296.1 75.9505C289.429 74.2715 290.988 65.7246 291.188 64.7801C291.389 63.8356 291.539 71.2415 298.211 72.9205C304.883 74.5995 308.727 72.1285 308.527 73.073Z" fill="white" fill-opacity="0.16"/>
<path d="M1592.58 148.675C1591.81 150.357 1580.02 162.002 1572.81 158.077C1565.61 154.153 1564.71 136.433 1565.48 134.751C1566.25 133.069 1565.61 147.283 1572.81 151.208C1580.02 155.132 1593.35 146.993 1592.58 148.675Z" fill="white" fill-opacity="0.16"/>
<path d="M1533.16 102.23C1533 103.321 1527.93 112.038 1522.8 111.127C1517.67 110.216 1513.87 100.366 1514.03 99.2761C1514.19 98.1858 1516.41 106.334 1521.54 107.245C1526.66 108.156 1533.32 101.14 1533.16 102.23Z" fill="white" fill-opacity="0.16"/>
<path d="M800.348 29.7587C799.576 31.4406 785.515 42.5127 778.308 38.5881C771.102 34.6634 767.75 29.488 768.522 27.8061C769.294 26.1242 771.102 30.6912 778.308 34.6159C785.515 38.5405 801.12 28.0767 800.348 29.7587Z" fill="white" fill-opacity="0.16"/>
<path d="M889.675 35.1222C888.845 36.7712 861.776 44.2755 852.284 38.6083C842.792 32.941 836.72 28.1092 837.55 26.4602C838.38 24.8113 846.706 29.853 856.198 35.5202C865.69 41.1874 890.505 33.4732 889.675 35.1222Z" fill="white" fill-opacity="0.16"/>
<path d="M487.449 28.2966C486.947 30.4083 470.24 36.1702 462.44 33.9714C457.061 32.4551 448.082 31.4098 442.594 28.8608C438.612 27.0111 440.094 23.8929 444.319 24.9588C450.173 26.4358 458.65 29.2044 463.482 30.5665C471.282 32.7653 487.881 26.4762 487.449 28.2966Z" fill="white" fill-opacity="0.16"/>
<path d="M167.319 29.5675C167.821 31.6792 178.551 39.1259 183.108 37.8412C186.465 36.895 192.378 36.9232 195.351 34.6331C197.488 32.9869 195.996 30.4453 193.409 31.0371C189.969 31.8238 185.001 33.6091 182.157 34.4108C177.6 35.6954 166.886 27.747 167.319 29.5675Z" fill="white" fill-opacity="0.16"/>
<path d="M1250.16 41.5691C1249.29 43.5317 1231.86 45.5958 1224.61 41.7664C1219.64 39.1392 1211.09 36.2044 1206.16 32.5539C1202.55 29.8817 1204.56 27.101 1208.54 29.0701C1214 31.7774 1221.78 36.2877 1226.25 38.6519C1233.5 42.4813 1250.91 39.8771 1250.16 41.5691Z" fill="white" fill-opacity="0.16"/>
<path d="M1397.5 26.8834C1397.32 28.5853 1381.71 34.5857 1373.71 33.5496C1368.75 32.9072 1360.98 32.8211 1355.26 31.7086C1350.03 30.691 1350.88 27.6309 1356.16 28.2612C1362.02 28.9602 1369.71 30.1986 1374.24 30.7848C1382.24 31.8209 1397.66 25.4161 1397.5 26.8834Z" fill="white" fill-opacity="0.16"/>
<path d="M1311.63 72.0596C1310.56 73.1488 1297.28 69.7409 1295.57 65.9352C1294.61 63.813 1292.91 61.7029 1292.11 59.6921C1290.94 56.7258 1294.17 55.8692 1295.62 58.6805C1296.75 60.854 1297.94 63.5627 1298.79 65.4494C1300.5 69.255 1314.66 68.9512 1311.63 72.0596Z" fill="white" fill-opacity="0.16"/>
<path d="M1473.83 36.7041C1473.05 37.5054 1463.28 34.9982 1462.02 32.1985C1461.49 31.0328 1460.66 29.8722 1460.03 28.7431C1458.49 25.9853 1461.24 25.1367 1462.62 27.9933C1463.27 29.3295 1463.9 30.7665 1464.38 31.841C1465.64 34.6408 1476.06 34.4173 1473.83 36.7041Z" fill="white" fill-opacity="0.16"/>
<path d="M1078.59 44.6342C1080.32 49.2487 1032.61 49.9141 1018.08 42.4021C1009.14 37.778 999.64 32.8039 993.448 28.5705C988.258 25.0223 989.814 22.6399 995.419 25.3436C1003.53 29.257 1015.86 35.5217 1026.21 40.0506C1043.08 47.4388 1076.85 40.0196 1078.59 44.6342Z" fill="white" fill-opacity="0.16"/>
<path d="M634.378 31.7019C633.877 33.8136 617.17 39.5755 609.37 37.3766C603.991 35.8603 595.012 34.815 589.524 32.266C585.542 30.4164 587.024 27.2982 591.249 28.3641C597.103 29.841 605.58 32.6096 610.412 33.9718C618.212 36.1706 634.811 29.8814 634.378 31.7019Z" fill="white" fill-opacity="0.16"/>
<path d="M360.76 103.855C366.612 100.488 367.37 103.103 361.993 107.235C360.868 108.1 359.681 108.895 358.484 109.523C353.911 111.924 349.332 111.349 345.98 109.523C343.405 108.121 339.964 97.7645 340.249 94.7688V94.7688C340.861 88.3196 344.666 90.0234 345.708 96.4826C346.298 100.139 347.791 103.984 350.669 105.551C353.684 107.193 357.426 105.772 360.76 103.855Z" fill="white" fill-opacity="0.16"/>
<path d="M750.529 156.846C753.69 156.846 756.253 159.083 756.253 161.843C756.253 164.603 753.69 166.84 750.529 166.84C747.367 166.84 744.805 164.603 744.805 161.843C744.805 159.083 747.367 156.846 750.529 156.846Z" fill="white"/>
<path d="M564.712 113.977L560.642 114.828C560.351 114.886 560.049 114.883 559.76 114.819C559.471 114.755 559.204 114.631 558.981 114.459L555.877 112.013C555.621 111.812 555.305 111.677 554.966 111.624C554.627 111.571 554.277 111.602 553.957 111.713C553.637 111.824 553.358 112.011 553.153 112.252C552.948 112.494 552.824 112.781 552.796 113.081L552.464 116.72C552.44 116.98 552.345 117.231 552.186 117.451C552.026 117.671 551.808 117.855 551.55 117.985L547.925 119.811C547.627 119.961 547.382 120.181 547.219 120.445C547.056 120.71 546.982 121.009 547.004 121.309C547.026 121.609 547.144 121.898 547.344 122.142C547.544 122.387 547.819 122.577 548.137 122.692L551.995 124.096C552.274 124.195 552.52 124.352 552.712 124.553C552.904 124.754 553.037 124.993 553.098 125.25L553.959 128.816C554.032 129.11 554.197 129.38 554.436 129.596C554.675 129.812 554.978 129.965 555.311 130.039C555.645 130.113 555.995 130.104 556.323 130.014C556.651 129.924 556.944 129.756 557.168 129.528L559.887 126.76C560.082 126.561 560.33 126.407 560.609 126.31C560.888 126.214 561.189 126.178 561.488 126.206L565.641 126.588C565.984 126.621 566.331 126.569 566.642 126.438C566.953 126.307 567.216 126.102 567.4 125.847C567.584 125.592 567.683 125.297 567.684 124.996C567.685 124.694 567.59 124.399 567.408 124.142L565.233 121.031C565.076 120.808 564.984 120.556 564.965 120.295C564.945 120.034 564.998 119.773 565.12 119.535L566.827 116.206C566.966 115.931 567.016 115.627 566.969 115.329C566.922 115.031 566.78 114.751 566.561 114.519C566.341 114.288 566.051 114.114 565.725 114.018C565.398 113.923 565.047 113.909 564.712 113.977Z" fill="#F5E6C7"/>
<path d="M641.876 99.7942L634.717 104.916C634.203 105.282 633.595 105.533 632.945 105.648C632.295 105.763 631.623 105.738 630.987 105.575L622.091 103.334C621.358 103.15 620.581 103.149 619.848 103.33C619.114 103.511 618.453 103.867 617.939 104.358C617.424 104.85 617.078 105.457 616.937 106.111C616.797 106.765 616.869 107.44 617.145 108.061L620.49 115.596C620.731 116.134 620.818 116.715 620.744 117.289C620.671 117.863 620.438 118.413 620.067 118.892L614.872 125.583C614.444 126.134 614.201 126.78 614.171 127.446C614.141 128.111 614.325 128.771 614.702 129.351C615.079 129.93 615.634 130.406 616.305 130.724C616.975 131.043 617.734 131.191 618.497 131.153L627.739 130.678C628.402 130.646 629.063 130.754 629.667 130.994C630.271 131.234 630.799 131.598 631.206 132.056L636.892 138.431C637.359 138.957 637.987 139.359 638.702 139.59C639.418 139.821 640.193 139.873 640.941 139.739C641.688 139.605 642.378 139.291 642.932 138.833C643.485 138.374 643.881 137.79 644.073 137.145L646.422 129.327C646.589 128.767 646.91 128.251 647.358 127.823C647.805 127.396 648.365 127.07 648.989 126.875L657.696 124.126C658.414 123.9 659.046 123.503 659.519 122.98C659.992 122.457 660.288 121.829 660.373 121.167C660.458 120.504 660.328 119.835 659.999 119.233C659.67 118.632 659.155 118.123 658.512 117.764L650.719 113.4C650.161 113.088 649.698 112.662 649.371 112.159C649.043 111.656 648.86 111.091 648.838 110.513L648.536 102.431C648.506 101.769 648.265 101.128 647.842 100.579C647.418 100.03 646.828 99.5939 646.137 99.3204C645.446 99.047 644.682 98.9464 643.929 99.0301C643.177 99.1137 642.466 99.3783 641.876 99.7942Z" fill="#F5E6C7"/>
</svg>
